<?xml version="1.0" encoding="utf-8"?>
<!-- Generator: Adobe Illustrator 26.0.1, SVG Export Plug-In . SVG Version: 6.00 Build 0)  -->
<svg version="1.1" id="Artwork" xmlns="http://www.w3.org/2000/svg" xmlns:xlink="http://www.w3.org/1999/xlink" x="0px" y="0px"
	 viewBox="0 0 508 508" style="enable-background:new 0 0 508 508;" xml:space="preserve">
<style type="text/css">
	.st0{display:none;fill:#CC6699;stroke:#FFFFFF;stroke-miterlimit:10;}
	.st1{stroke:#FFFFFF;stroke-miterlimit:10;}
	.st2{fill:#FFFFFF;stroke:#FFFFFF;stroke-miterlimit:10;}
	.st3{fill:#FFFFFF;stroke:#000000;stroke-miterlimit:10;}
</style>
<path class="st0" d="M0,0v508h508V0H0z"/>
<g id="Pallet_00000037672583136654584180000009449683366459431067_">
	<g id="Pallet_00000102543439742951748930000013173477533246305968_">
		<path id="Pallet_Sillowette" class="st1" d="M457.1,169.7c-17-19.4-42.2-30.6-69.1-30.6c-36.2,0-67.9,19.8-80.7,50.5
			c-14.2,33.9-48,51.7-88.4,45.9c-23.2-3.3-41.7-13.1-53.5-28.2C148.4,185.5,122,173,93,173c-78.9,0-88.6,74.4-90.3,84.1
			C-6,307,6.7,358.4,38.3,402C78,456.7,144.6,508,261.1,508c123.6,0,226.3-74.7,244.2-177.6C515.1,273.6,498,216.6,457.1,169.7z
			 M98.2,322.3c-8.3,1.3-16.1-4.3-17.4-12.6c-1.3-8.3,4.3-16.1,12.6-17.4s16.1,4.3,17.4,12.6S106.5,321,98.2,322.3z M204.1,400.4
			c-8.4,0-15.2-6.8-15.2-15.2c0-8.4,6.8-15.2,15.2-15.2s15.2,6.8,15.2,15.2C219.2,393.6,212.4,400.4,204.1,400.4z M340.6,386.5
			c-8.4,0-15.2-6.8-15.2-15.2s6.8-15.2,15.2-15.2s15.2,6.8,15.2,15.2C355.7,379.7,348.9,386.5,340.6,386.5z M399.1,269.2
			c-8.4,0-15.2-6.8-15.2-15.2s6.8-15.2,15.2-15.2s15.2,6.8,15.2,15.2C414.3,262.4,407.5,269.2,399.1,269.2z"/>
		<path id="Pallet" class="st2" d="M435.9,188.3c-11.6-13.3-29.1-20.9-47.9-20.9c-24.8,0-46.2,13-54.7,33.2
			c-19.3,46-65,70.6-118.4,62.9c-30.5-4.4-55.3-17.8-71.7-38.8c-11.7-14.9-30-23.5-50.2-23.5c-54.2,0-61.1,52.5-62.5,60.7
			c-7.4,42.3,3.5,86.2,30.6,123.5c35.2,48.6,99.6,94.4,200,94.4c109.9,0,200.9-64.9,216.4-154.3
			C485.8,277.4,471.1,228.6,435.9,188.3z M98.2,322.3c-8.3,1.3-16.1-4.3-17.4-12.6c-1.3-8.3,4.3-16.1,12.6-17.4s16.1,4.3,17.4,12.6
			S106.5,321,98.2,322.3z M204.1,400.4c-8.4,0-15.2-6.8-15.2-15.2c0-8.4,6.8-15.2,15.2-15.2s15.2,6.8,15.2,15.2
			C219.2,393.6,212.4,400.4,204.1,400.4z M340.6,386.5c-8.4,0-15.2-6.8-15.2-15.2s6.8-15.2,15.2-15.2s15.2,6.8,15.2,15.2
			C355.7,379.7,348.9,386.5,340.6,386.5z M399.1,269.2c-8.4,0-15.2-6.8-15.2-15.2s6.8-15.2,15.2-15.2s15.2,6.8,15.2,15.2
			C414.3,262.4,407.5,269.2,399.1,269.2z"/>
	</g>
	<g id="Pallet_Holes">
		<path id="Hole_4" d="M441.3,244c-5.5-23.3-28.9-37.8-52.2-32.3c-23.3,5.5-37.8,28.9-32.3,52.2s28.9,37.8,52.2,32.3
			C432.4,290.7,446.8,267.3,441.3,244z M399.1,269.2c-8.4,0-15.2-6.8-15.2-15.2s6.8-15.2,15.2-15.2s15.2,6.8,15.2,15.2
			C414.3,262.4,407.5,269.2,399.1,269.2z"/>
		<path id="Hole_3" d="M340.6,328c-23.9,0-43.4,19.5-43.4,43.4s19.5,43.4,43.4,43.4s43.4-19.5,43.4-43.4
			C383.9,347.4,364.5,328,340.6,328z M340.6,386.5c-8.4,0-15.2-6.8-15.2-15.2s6.8-15.2,15.2-15.2s15.2,6.8,15.2,15.2
			C355.7,379.7,348.9,386.5,340.6,386.5z"/>
		<path id="Hole_2" d="M204.1,341.9c-23.9,0-43.4,19.5-43.4,43.4s19.5,43.4,43.4,43.4s43.4-19.5,43.4-43.4
			C247.4,361.3,228,341.9,204.1,341.9z M204.1,400.4c-8.4,0-15.2-6.8-15.2-15.2c0-8.4,6.8-15.2,15.2-15.2s15.2,6.8,15.2,15.2
			C219.2,393.6,212.4,400.4,204.1,400.4z"/>
		<path id="Hole_1" d="M126.5,276.6c-16.9-16.9-44.4-16.9-61.4,0c-16.9,16.9-16.9,44.4,0,61.4c16.9,16.9,44.4,16.9,61.4,0
			C143.4,321,143.4,293.6,126.5,276.6z M98.2,322.3c-8.3,1.3-16.1-4.3-17.4-12.6c-1.3-8.3,4.3-16.1,12.6-17.4s16.1,4.3,17.4,12.6
			S106.5,321,98.2,322.3z"/>
	</g>
</g>
<g id="Brush_00000023983546838554064500000012251754709311905928_">
	<path id="Sillowette" class="st1" d="M439.6,24.4c-42-6.3-99.6-9.3-159.1-8.1c-49.7,1-94.7,5.1-125.8,11.2C139.1,5.1,120,0,106,0
		C90.8,0,74.4,5.5,56,16.8c-10.3,3.8-24.9,0.9-31.9-6.2C20.1,6.5,14,5.3,8.7,7.5C3.5,9.6,0,14.8,0,20.5c0,53,44.7,99.5,95.6,99.5
		c10.2,0,42,0,59.7-28.7c31.1,6.1,75.9,10.2,125.2,11.1c78.5,1.3,104.7,1,159.1-8.1c48.4-8.2,68.4-17.5,68.4-35
		S488.2,31.7,439.6,24.4z"/>
	<path id="Tip" class="st2" d="M106,28.2c-9.9,0-22.1,4.4-36.1,13.2c-0.7,0.5-12.2,8-36.9,4c10.3,26.2,35.5,46.3,62.6,46.3
		c6.9,0,28-0.6,38.4-19.7V47.3C123.9,30.3,113.3,28.2,106,28.2z"/>
	<path id="Handle" class="st3" d="M281.1,44.4C234,45.3,191.6,49,162.2,54.6V64c29.4,5.6,71.9,9.2,118.9,10.2
		c8.4,0.1,132.8,7.7,188.8-14.9C411.7,36.3,289.5,44.2,281.1,44.4z"/>
</g>
</svg>
