<?xml version="1.0" encoding="utf-8"?>
<!-- Generator: Adobe Illustrator 26.0.1, SVG Export Plug-In . SVG Version: 6.00 Build 0)  -->
<svg version="1.1" id="Calendar" xmlns="http://www.w3.org/2000/svg" xmlns:xlink="http://www.w3.org/1999/xlink" x="0px" y="0px"
	 width="600px" height="600px" viewBox="0 0 600 600" style="enable-background:new 0 0 600 600;" xml:space="preserve">
<style type="text/css">
	.st0{display:none;}
	.st1{display:inline;fill:#FFFFFF;}
	.st2{fill:#FFFFFF;}
</style>
<g id="Background" class="st0">
	<rect id="_Transparent_Rectangle_" class="st1" width="600" height="600"/>
</g>
<g id="Schedule">
	<path id="Outline" class="st2" d="M546.1,335.2V217.1V92.9c0-22.8-19.3-41.4-42.8-41.4h-85.6V10h-42.8v41.4H203.7V10h-42.8v41.4
		H75.3c-23.5,0-42.8,18.6-42.8,41.4v414.3c0,22.8,19.3,41.4,42.8,41.4h79.2h10.7h2.1h115.6c30,24.9,70.6,41.4,113.4,41.4
		c94.2,0,171.2-74.6,171.2-165.7C567.5,384.9,563.2,372.5,546.1,335.2z M75.3,507.1V92.9h85.6v41.4h42.8V92.9h171.2v41.4h42.8V92.9
		h85.6v124.3v76.6c-27.8-20.7-68.5-35.2-107-35.2c-94.2,0-171.2,74.6-171.2,165.7c0,29,8.6,58,23.5,82.9L75.3,507.1L75.3,507.1z
		 M396.3,548.6c-70.6,0-128.4-55.9-128.4-124.3S325.7,300,396.3,300s128.4,55.9,128.4,124.3S466.9,548.6,396.3,548.6z"/>
	<polygon id="Clock_Hands" class="st2" points="417.7,347.5 374.9,347.5 374.9,438.6 428.2,492.5 457.8,463.5 417.7,422.1 	"/>
</g>
</svg>
