<?xml version="1.0" encoding="utf-8"?>
<!-- Generator: Adobe Illustrator 26.0.1, SVG Export Plug-In . SVG Version: 6.00 Build 0)  -->
<svg version="1.1" id="icon" xmlns="http://www.w3.org/2000/svg" xmlns:xlink="http://www.w3.org/1999/xlink" x="0px" y="0px"
	 width="600px" height="672px" viewBox="0 0 600 672" style="enable-background:new 0 0 600 672;" xml:space="preserve">
<style type="text/css">
	.st0{fill:#FFFFFF;}
</style>
<path id="Sillowette" d="M151.2,624h129.6c33.6,28.8,79.2,48,127.2,48c105.6,0,192-86.4,192-192c0-45.6-4.8-60-24-103.2V240V96
	c0-26.4-21.6-48-48-48h-96V0h-48v48H192V0h-48v48H48C21.6,48,0,69.6,0,96v480c0,26.4,21.6,48,48,48h88.8h12H151.2z"/>
<path id="Inner_square" class="st0" d="M48,576V96h96v48h48V96h192v48h48V96h96v144v88.8c-31.2-24-76.8-40.8-120-40.8
	c-105.6,0-192,86.4-192,192c0,33.6,9.6,67.2,26.4,96H48z"/>
<path id="Inner_Circle" class="st0" d="M408,336c-79.2,0-144,64.8-144,144s64.8,144,144,144s144-64.8,144-144S487.2,336,408,336z"/>
<polygon id="Hands" points="446.4,552 384,489.6 384,384 432,384 432,470.4 480,518.4 "/>
</svg>
