<?xml version="1.0" encoding="utf-8"?>
<!-- Generator: Adobe Illustrator 26.0.1, SVG Export Plug-In . SVG Version: 6.00 Build 0)  -->
<svg version="1.1" id="Layer_1" xmlns="http://www.w3.org/2000/svg" xmlns:xlink="http://www.w3.org/1999/xlink" x="0px" y="0px"
	 viewBox="0 0 600 600" style="enable-background:new 0 0 600 600;" xml:space="preserve">
<g>
	<g>
		<path d="M586.639,185.04L510,133.95V0H90v133.95l-76.639,51.09C5.01,190.6,0,199.97,0,210v360c0,16.57,13.43,30,30,30h540
			c16.57,0,30-13.43,30-30V210C600,199.97,594.99,190.6,586.639,185.04z M510,170l46.4,30.93L510,230.96V170z M120,30h360v220.37
			L300,366.84L120,250.37C120,250.37,120,30,120,30z M90,170v60.96l-46.4-30.02L90,170z M570,570H30V227.87l242.389,156.84
			L51.86,527.4c-6.96,4.51-8.95,13.8-4.45,20.74c2.861,4.46,7.68,6.86,12.6,6.86c2.8,0,5.61-0.79,8.13-2.4L300,402.57L531.86,552.6
			c2.52,1.61,5.33,2.4,8.13,2.4c4.92,0,9.74-2.4,12.611-6.86c4.5-6.94,2.5-16.23-4.45-20.74L327.62,384.7L570,227.87V570z"/>
	</g>
</g>
<g>
	<g>
		<rect x="150" y="60" width="300" height="30"/>
	</g>
</g>
<g>
	<g>
		<rect x="150" y="120" width="300" height="30"/>
	</g>
</g>
<g>
	<g>
		<rect x="150" y="180" width="150" height="30"/>
	</g>
</g>
</svg>
