<?xml version="1.0" encoding="utf-8"?>
<!-- Generator: Adobe Illustrator 26.0.1, SVG Export Plug-In . SVG Version: 6.00 Build 0)  -->
<svg version="1.1" id="Layer_1" xmlns="http://www.w3.org/2000/svg" xmlns:xlink="http://www.w3.org/1999/xlink" x="0px" y="0px"
	 viewBox="0 0 64 64" style="enable-background:new 0 0 64 64;" xml:space="preserve">
<style type="text/css">
	.st0{display:none;fill:#C100D0;}
	.st1{fill:#FFFFFF;stroke:#000000;stroke-width:2;stroke-linecap:round;stroke-linejoin:round;}
	.st2{fill:none;stroke:#000000;stroke-width:2;stroke-linecap:round;stroke-linejoin:round;}
</style>
<g id="Fundraising">
	<rect class="st0" width="64.1" height="64.1"/>
	<path id="Box" class="st1" d="M49,45H16L6,61h53L49,45z M41.5,54h-18c-0.8,0-1.5-0.7-1.5-1.5s0.7-1.5,1.5-1.5h18
		c0.8,0,1.5,0.7,1.5,1.5S42.3,54,41.5,54z"/>
	<g id="Floaters">
		<circle id="Floater_00000180367579355321666300000007147047976756828551_" cx="59" cy="42" r="1"/>
		<circle id="Floater_00000018953907844740041680000015913085072084967051_" cx="45" cy="38" r="1"/>
		<circle id="Floater_00000093160694450290491940000014205159769533067709_" cx="12" cy="40" r="1"/>
		<line id="Floater_00000011751750515880268640000011523236759663690401_" class="st2" x1="55" y1="30" x2="55" y2="34"/>
		<line id="Floater_00000083073850354868559660000011297278070039007674_" class="st2" x1="53" y1="32" x2="57" y2="32"/>
		<line id="Floater_00000021081251801307132890000007778581533226525592_" class="st2" x1="10" y1="9" x2="10" y2="13"/>
		<line id="Floater" class="st2" x1="8" y1="11" x2="12" y2="11"/>
	</g>
	<g id="Coin">
		<path id="Coin_Part_00000045616640982121661000000014205210552834444182_" class="st1" d="M32,21.1c-5.1-3.3-11.9-2.2-15.2,2.9
			s-1.9,11.9,3.1,15.2c5.1,3.3,11.9,1.9,15.2-3.1c1.2-1.8,1.8-3.9,1.8-6.1c0-0.5,0.1-1.5,0-2H25.3c-2.3,0.1-3.4-2.3-2.9-4.1
			c0.3-0.9,1.7-2,2.5-2.3c0.6-0.2,1.6-0.5,2.3-0.5c0.6,0,0.6,0.1,2.3,0C30,21.1,32,21.1,32,21.1z"/>
		<path id="Coin_Part" class="st1" d="M22.5,23.9c-3.2,1-4.4,6.8-2.3,10c2.2,3.2,6.5,4.1,9.7,1.9c2.4-1.6,3.8-5,3.1-7.8h-7.7
			C21.7,27.8,22.5,23.9,22.5,23.9z"/>
	</g>
	<g id="Hand_00000061453691146942064450000008850411152643994292_">
		<path id="Hand_Part_00000134216266019232874700000006553261331950824595_" class="st1" d="M17.7,22.5c0,0-3,3.7-2.7,8.2
			c-2.5,1.2-3.2,0.9-5.5,0.4C9.8,31.1,17.7,22.5,17.7,22.5z"/>
		<path id="Hand_Part" class="st1" d="M33.4,15.9c1.1,0,2.6,0.6,2.6,2.6c0,2.6-2.6,2.6-2.6,2.6H32c0,0-6.8-5-14.4,1.5
			C24.4,16.1,22.9,15.9,33.4,15.9z"/>
		<path id="Hand" class="st1" d="M52,4c1.8,7.3,10,11.9,10,11.9l-4.7,2.7l-3.7,5.7C51.2,26.7,48,28,44.6,28H25.3
			c-3.1,0-4.6-4.5-0.4-6.4c0.8-0.3,1.7-0.5,2.6-0.5h5.8c1.4,0,2.6-1.2,2.6-2.6l0,0c0-1.4-1.2-2.6-2.6-2.6L28,16.1
			c-3.1-0.2-5.4,1.5-6.9,2.8L10.1,30.6c-1,1.2-2.8,1.3-4.1,0.4c0,0,0,0-0.1-0.1c-1.2-1.1-1.3-2.9-0.3-4.1l11.8-13.5
			c1.9-2.1,4.6-3.4,7.4-3.4h16.7c1.6,0,3.3-0.4,4.8-1.1C47.4,8.4,52,4,52,4z"/>
	</g>
</g>
</svg>
