<?xml version="1.0" encoding="utf-8"?>
<!-- Generator: Adobe Illustrator 27.1.1, SVG Export Plug-In . SVG Version: 6.00 Build 0)  -->
<svg version="1.1" id="Layer_1" xmlns="http://www.w3.org/2000/svg" xmlns:xlink="http://www.w3.org/1999/xlink" x="0px" y="0px"
	 viewBox="0 0 64.1 64.7" style="enable-background:new 0 0 64.1 64.7;" xml:space="preserve">
<style type="text/css">
	.st0{display:none;fill:#C100D0;}
	.st1{fill:none;stroke:#FFFFFF;stroke-width:2;stroke-linecap:round;stroke-linejoin:round;}
	.st2{fill:#FFFFFF;stroke:#FFFFFF;stroke-width:2;stroke-linecap:round;stroke-linejoin:round;}
	.st3{fill:#FFFFFF;stroke:#FFFFFF;stroke-miterlimit:10;}
</style>
<g id="Fundraising">
	<rect class="st0" width="64" height="64.6"/>
	<path class="st1" d="M36.9,28.6H33c0.7,2.8-0.7,6.2-3.1,7.8c-3.2,2.2-7.5,1.3-9.7-1.9c-2.1-3.2-0.9-8.9,2.2-10c0,0,0,0,0,0
		c0.3-0.9,1.7-2,2.5-2.3c0.6-0.2,1.6-0.5,2.3-0.5c0.6,0,0.6,0.1,2.3,0c0.5,0,2.5,0,2.5,0c-5.1-3.3-11.9-2.2-15.2,2.9
		s-1.9,11.9,3.1,15.2c5.1,3.3,11.9,1.9,15.2-3.1c1.2-1.8,1.8-3.9,1.8-6.1C36.9,30.1,37,29.1,36.9,28.6z"/>
	<path id="Box" class="st2" d="M49,45.6H16l-10,16h53L49,45.6z M41.5,54.6h-18c-0.8,0-1.5-0.7-1.5-1.5s0.7-1.5,1.5-1.5h18
		c0.8,0,1.5,0.7,1.5,1.5S42.3,54.6,41.5,54.6z"/>
	<g id="Floaters">
		<circle id="Floater_00000180367579355321666300000007147047976756828551_" class="st3" cx="59" cy="42.6" r="1"/>
		<circle id="Floater_00000018953907844740041680000015913085072084967051_" class="st3" cx="45" cy="38.6" r="1"/>
		<circle id="Floater_00000093160694450290491940000014205159769533067709_" class="st3" cx="12" cy="40.6" r="1"/>
		<line id="Floater_00000011751750515880268640000011523236759663690401_" class="st1" x1="55" y1="30.6" x2="55" y2="34.6"/>
		<line id="Floater_00000083073850354868559660000011297278070039007674_" class="st1" x1="53" y1="32.6" x2="57" y2="32.6"/>
		<line id="Floater_00000021081251801307132890000007778581533226525592_" class="st1" x1="10" y1="9.6" x2="10" y2="13.6"/>
		<line id="Floater" class="st1" x1="8" y1="11.6" x2="12" y2="11.6"/>
	</g>
	<g id="Hand_00000061453691146942064450000008850411152643994292_">
		<path id="Coin" class="st1" d="M20.2,34.5c2.2,3.2,6.5,4.1,9.7,1.9c2.4-1.6,3.8-5,3.1-7.8h-7.7c-2.3,0.1-3.4-2.3-2.9-4.1
			C19.3,25.6,18.1,31.3,20.2,34.5z"/>
		<path id="Hand_Part_00000134216266019232874700000006553261331950824595_" class="st1" d="M17.7,23.1c0,0-3,3.7-2.7,8.2
			c-2.5,1.2-3.2,0.9-5.5,0.4C9.8,31.7,17.7,23.1,17.7,23.1z"/>
		<path id="Hand_Part" class="st1" d="M33.4,16.5c1.1,0,2.6,0.6,2.6,2.6c0,2.6-2.6,2.6-2.6,2.6H32c0,0-6.8-5-14.4,1.5
			C24.4,16.7,22.9,16.5,33.4,16.5z"/>
		<path id="Hand_Part_00000124161378435314516880000000184009556374902153_" class="st1" d="M52,4.6c0,0-4.6,4.4-5.7,4.8
			c-1.5,0.7-3.2,1.1-4.8,1.1H24.8c-2.8,0-5.5,1.3-7.4,3.4L5.6,27.4c-1,1.2-0.9,3,0.3,4.1C6,31.6,6,31.6,6,31.6
			c1.3,0.9,3.1,0.8,4.1-0.4l11-11.7c1.5-1.3,3.8-3,6.9-2.8l5.3-0.2c1.4,0,2.6,1.2,2.6,2.6s-1.2,2.6-2.6,2.6h-5.8
			c-0.9,0-1.8,0.2-2.6,0.5c-1.4,0.6-2.1,1.5-2.4,2.4c-0.1,0.5-0.2,2.1,0.8,3.2c0.1,0.1,0.3,0.3,0.5,0.4c0.1,0.1,0.2,0.1,0.4,0.2
			c0,0,0,0,0,0c0.3,0.1,0.7,0.2,1.2,0.2H33h11.6c3.4,0,6.6-1.3,9-3.7l3.7-5.7l4.7-2.7C62,16.5,53.8,11.9,52,4.6z"/>
	</g>
</g>
</svg>
