<?xml version="1.0" encoding="utf-8"?>
<!-- Generator: Adobe Illustrator 26.5.0, SVG Export Plug-In . SVG Version: 6.00 Build 0)  -->
<svg version="1.1" id="Links-White" xmlns="http://www.w3.org/2000/svg" xmlns:xlink="http://www.w3.org/1999/xlink" x="0px"
	 y="0px" viewBox="0 0 273 273" style="enable-background:new 0 0 273 273;" xml:space="preserve">
<style type="text/css">
	.st0{opacity:0;fill:none;}
	.st1{fill:#FFFFFF;}
</style>
<rect id="Background" class="st0" width="274.2" height="274.2"/>
<g id="Links">
	<path id="Outline" class="st1" d="M256.2,16.8C245.4,6,231,0,215.7,0S186,6,175.3,16.8l-40.8,40.8c-5.5,5.5-6.6,13.6-3.5,20.2
		C118.5,79.4,107,85,98,94l-81.3,81.3C6,186.1,0,200.4,0,215.7c0,15.3,5.9,29.7,16.8,40.5C27.6,267,41.9,273,57.2,273
		s29.7-6,40.5-16.8l40.8-40.8c3.4-3.4,5.2-7.9,5.2-12.7c0-2.7-0.6-5.2-1.7-7.6c12.4-1.6,23.9-7.2,32.9-16.2l81.3-81.3
		C267,86.9,273,72.5,273,57.2C273,42,267,27.6,256.2,16.8z M130.1,206.9l-40.8,40.8c-8.5,8.6-19.9,13.3-32,13.3
		c-12.1,0-23.4-4.7-32-13.3c-8.6-8.5-13.3-19.9-13.3-32c0-12.1,4.7-23.5,13.3-32l81.3-81.3c8.5-8.6,19.9-13.3,32-13.3
		c12.1,0,23.5,4.7,32,13.3c2.3,2.3,2.3,6.1,0,8.4s-6.1,2.3-8.4,0c-6.3-6.3-14.7-9.8-23.6-9.8c-8.9,0-17.3,3.5-23.6,9.8l-81.3,81.3
		c-6.3,6.3-9.8,14.7-9.8,23.6c0,8.9,3.5,17.3,9.8,23.6s14.7,9.8,23.6,9.8c8.9,0,17.3-3.5,23.6-9.8l40.8-40.8c2.3-2.4,6.1-2.3,8.4,0
		C132.4,200.8,132.4,204.6,130.1,206.9z M93.8,179.1c5.3,5.3,11.4,9.4,18.1,12.2L72.2,231c-4.1,4-9.4,6.3-15.2,6.3
		c-5.7,0-11.1-2.2-15.2-6.3c-4.1-4.1-6.3-9.4-6.3-15.2c0-5.7,2.2-11.1,6.3-15.2l81.3-81.3c4.1-4.1,9.4-6.3,15.2-6.3
		c5.7,0,11.1,2.2,15.2,6.3c3.4,3.4,7.9,5.2,12.6,5.2c4.8,0,9.3-1.9,12.7-5.2c3.4-3.4,5.3-7.9,5.3-12.7c0-4.8-1.9-9.3-5.2-12.7
		c-5.3-5.3-11.4-9.4-18.1-12.2L200.5,42c4-4,9.4-6.3,15.2-6.3c5.7,0,11.1,2.2,15.2,6.3c4.1,4,6.3,9.4,6.3,15.2s-2.3,11.1-6.3,15.2
		l-81.3,81.3c-4,4-9.4,6.3-15.2,6.3c-5.8,0-11.1-2.2-15.2-6.3c-3.4-3.4-7.9-5.2-12.7-5.2s-9.3,1.9-12.7,5.2
		c-3.4,3.4-5.2,7.9-5.2,12.7C88.6,171.2,90.5,175.7,93.8,179.1z M247.7,89.3l-81.3,81.3c-8.8,8.8-20.4,13.2-32,13.2
		c-11.6,0-23.2-4.5-32-13.3c-2.3-2.3-2.3-6.1,0-8.4c2.3-2.3,6.1-2.3,8.4,0c13,13,34.2,13,47.2,0l81.3-81.3
		c6.3-6.3,9.8-14.7,9.8-23.6c0-8.9-3.5-17.3-9.8-23.6c-13-13-34.2-13-47.2,0l-40.8,40.8c-2.3,2.3-6.1,2.3-8.4,0
		c-2.3-2.3-2.3-6.1,0-8.4l40.8-40.8c17.7-17.7,46.4-17.7,64.1,0c8.5,8.5,13.2,19.9,13.2,32.1C261,69.4,256.3,80.7,247.7,89.3z"/>
</g>
</svg>
