<?xml version="1.0" encoding="utf-8"?>
<!-- Generator: Adobe Illustrator 26.5.0, SVG Export Plug-In . SVG Version: 6.00 Build 0)  -->
<svg version="1.1" id="Merchandise_00000164472280846002434480000017646321004329616277_"
	 xmlns="http://www.w3.org/2000/svg" xmlns:xlink="http://www.w3.org/1999/xlink" x="0px" y="0px" viewBox="0 0 512 512"
	 style="enable-background:new 0 0 512 512;" xml:space="preserve">
<style type="text/css">
	.st0{fill:#FFFFFF;}
</style>
<g id="Shopping-Cart">
	<path id="Wheel-2" class="st0" d="M129.7,459.3c0,22.9,18.8,41.7,40.7,41.7s40.7-18.8,40.7-41.7s-17.8-41.7-40.7-41.7
		C148.5,417.6,129.7,436.4,129.7,459.3z M150.6,459.2c0-11.5,9.4-20.9,19.8-20.9s19.8,9.4,19.8,20.9s-8.3,20.9-19.8,20.9
		C160,480.1,150.6,470.7,150.6,459.2z"/>
	<path id="Wheel-1" class="st0" d="M351.8,459.3c0,22.9,17.8,41.7,40.7,41.7c21.9,0,40.7-18.8,40.7-41.7s-17.8-41.7-40.7-41.7
		C370.6,417.6,351.8,436.4,351.8,459.3z M372.7,459.2c0-11.5,8.3-20.9,19.8-20.9c10.4,0,19.8,9.4,19.8,20.9s-8.3,20.9-19.8,20.9
		C382,480.1,372.7,470.8,372.7,459.2z"/>
	<path id="Cart" class="st0" d="M72.4,11H14.1v20.8h41.7l74,286.7h1h283.6c16.7,0,31.3,14.6,31.3,33.4s-13.6,33.4-31.3,33.4H130.8
		v19.8h283.6c29.2,0,52.1-24,52.1-54.2c0-27.5-18.9-48.9-44.2-52.6l75.5-223.7H88.6L72.4,11L72.4,11z M145.4,297.7L94.3,95.4h374.3
		l-67.8,202.3H145.4L145.4,297.7z"/>
	
		<rect id="Bar-2_00000149372762907815396670000015857234342443013027_" x="344.5" y="144.4" class="st0" width="20.9" height="117.8"/>
	<rect id="Bar-2" x="270.4" y="144.4" class="st0" width="20.9" height="117.8"/>
	<rect id="Bar-1" x="196.4" y="144.4" class="st0" width="20.9" height="117.8"/>
</g>
</svg>
