<?xml version="1.0" encoding="utf-8"?>
<!-- Generator: Adobe Illustrator 26.0.1, SVG Export Plug-In . SVG Version: 6.00 Build 0)  -->
<svg version="1.1" id="Artwork" xmlns="http://www.w3.org/2000/svg" xmlns:xlink="http://www.w3.org/1999/xlink" x="0px" y="0px"
	 width="600px" height="600px" viewBox="0 0 600 600" style="enable-background:new 0 0 600 600;" xml:space="preserve">
<style type="text/css">
	.st0{display:none;fill:#CC6699;stroke:#FFFFFF;stroke-miterlimit:10;}
	.st1{fill:#FFFFFF;}
</style>
<path class="st0" d="M0,0v600h600V0H0z"/>
<g id="Pallet_00000037672583136654584180000009449683366459431067_">
	<g id="Pallet_00000102543439742951748930000013173477533246305968_">
		<path id="Pallet_Sillowette" d="M539.9,200.4c-20.1-22.9-49.8-36.1-81.6-36.1c-42.8,0-80.2,23.4-95.3,59.6
			c-16.8,40-56.7,61.1-104.4,54.2c-27.4-3.9-49.3-15.5-63.2-33.3c-20.1-25.7-51.3-40.5-85.5-40.5c-93.2,0-104.6,87.9-106.7,99.3
			c-10.3,58.9,4.7,119.6,42,171.1C92.1,539.4,170.8,600,308.4,600c146,0,267.3-88.2,288.4-209.8
			C608.4,323.1,588.2,255.8,539.9,200.4z M116,380.7c-9.8,1.5-19-5.1-20.6-14.9c-1.5-9.8,5.1-19,14.9-20.6s19,5.1,20.6,14.9
			S125.8,379.1,116,380.7z M241.1,472.9c-9.9,0-18-8-18-18c0-9.9,8-18,18-18s18,8,18,18C258.9,464.9,250.9,472.9,241.1,472.9z
			 M402.3,456.5c-9.9,0-18-8-18-18c0-9.9,8-18,18-18s18,8,18,18C420.1,448.5,412.1,456.5,402.3,456.5z M471.4,318c-9.9,0-18-8-18-18
			c0-9.9,8-18,18-18s18,8,18,18C489.3,309.9,481.3,318,471.4,318z"/>
		<path id="Pallet" class="st1" d="M514.8,222.4c-13.7-15.7-34.4-24.7-56.6-24.7c-29.3,0-54.6,15.4-64.6,39.2
			c-22.8,54.3-76.8,83.4-139.8,74.3c-36-5.2-65.3-21-84.7-45.8c-13.8-17.6-35.4-27.8-59.3-27.8c-64,0-72.2,62-73.8,71.7
			c-8.7,50,4.1,101.8,36.1,145.9c41.6,57.4,117.6,111.5,236.2,111.5c129.8,0,237.3-76.7,255.6-182.2
			C573.8,327.6,556.4,270,514.8,222.4z M116,380.7c-9.8,1.5-19-5.1-20.6-14.9c-1.5-9.8,5.1-19,14.9-20.6s19,5.1,20.6,14.9
			S125.8,379.1,116,380.7z M241.1,472.9c-9.9,0-18-8-18-18c0-9.9,8-18,18-18s18,8,18,18C258.9,464.9,250.9,472.9,241.1,472.9z
			 M402.3,456.5c-9.9,0-18-8-18-18c0-9.9,8-18,18-18s18,8,18,18C420.1,448.5,412.1,456.5,402.3,456.5z M471.4,318c-9.9,0-18-8-18-18
			c0-9.9,8-18,18-18s18,8,18,18C489.3,309.9,481.3,318,471.4,318z"/>
	</g>
	<g id="Pallet_Holes">
		<path id="Hole_4" d="M521.2,288.2c-6.5-27.5-34.1-44.6-61.7-38.1c-27.5,6.5-44.6,34.1-38.1,61.7c6.5,27.5,34.1,44.6,61.7,38.1
			C510.7,343.3,527.7,315.7,521.2,288.2z M471.4,318c-9.9,0-18-8-18-18c0-9.9,8-18,18-18s18,8,18,18
			C489.3,309.9,481.3,318,471.4,318z"/>
		<path id="Hole_3" d="M402.3,387.4c-28.2,0-51.3,23-51.3,51.3s23,51.3,51.3,51.3s51.3-23,51.3-51.3
			C453.4,410.3,430.5,387.4,402.3,387.4z M402.3,456.5c-9.9,0-18-8-18-18c0-9.9,8-18,18-18s18,8,18,18
			C420.1,448.5,412.1,456.5,402.3,456.5z"/>
		<path id="Hole_2" d="M241.1,403.8c-28.2,0-51.3,23-51.3,51.3c0,28.2,23,51.3,51.3,51.3s51.3-23,51.3-51.3
			C292.2,426.7,269.3,403.8,241.1,403.8z M241.1,472.9c-9.9,0-18-8-18-18c0-9.9,8-18,18-18s18,8,18,18
			C258.9,464.9,250.9,472.9,241.1,472.9z"/>
		<path id="Hole_1" d="M149.4,326.7c-20-20-52.4-20-72.5,0c-20,20-20,52.4,0,72.5c20,20,52.4,20,72.5,0
			C169.4,379.1,169.4,346.8,149.4,326.7z M116,380.7c-9.8,1.5-19-5.1-20.6-14.9c-1.5-9.8,5.1-19,14.9-20.6s19,5.1,20.6,14.9
			S125.8,379.1,116,380.7z"/>
	</g>
</g>
<g id="Brush_00000023983546838554064500000012251754709311905928_">
	<path id="Sillowette" d="M519.2,28.8c-49.6-7.4-117.6-11-187.9-9.6c-58.7,1.2-111.9,6-148.6,13.2C164.3,6,141.7,0,125.2,0
		c-18,0-37.3,6.5-59.1,19.8c-12.2,4.5-29.4,1.1-37.7-7.3c-4.7-4.8-11.9-6.3-18.2-3.7C4.1,11.3,0,17.5,0,24.2
		c0,62.6,52.8,117.5,112.9,117.5c12,0,49.6,0,70.5-33.9c36.7,7.2,89.6,12,147.9,13.1c92.7,1.5,123.7,1.2,187.9-9.6
		C576.4,101.7,600,90.7,600,70S576.6,37.4,519.2,28.8z"/>
	<path id="Tip" class="st1" d="M125.2,33.3c-11.7,0-26.1,5.2-42.6,15.6c-0.8,0.6-14.4,9.4-43.6,4.7c12.2,30.9,41.9,54.7,73.9,54.7
		c8.1,0,33.1-0.7,45.4-23.3V55.9C146.3,35.8,133.8,33.3,125.2,33.3z"/>
	<path id="Handle" class="st1" d="M332,52.4c-55.6,1.1-105.7,5.4-140.4,12v11.1c34.7,6.6,84.9,10.9,140.4,12
		c9.9,0.1,156.9,9.1,223-17.6C486.3,42.9,341.9,52.2,332,52.4z"/>
</g>
</svg>
