<?xml version="1.0" encoding="utf-8"?>
<!-- Generator: Adobe Illustrator 26.0.1, SVG Export Plug-In . SVG Version: 6.00 Build 0)  -->
<svg version="1.1" id="TrackWrestling_00000096742986783868110480000005860710652286282166_"
	 xmlns="http://www.w3.org/2000/svg" xmlns:xlink="http://www.w3.org/1999/xlink" x="0px" y="0px" viewBox="0 0 484 158"
	 style="enable-background:new 0 0 484 158;" xml:space="preserve">
<style type="text/css">
	.st0{fill:none;}
	.st1{display:none;}
	.st2{display:inline;fill:#64656A;}
	.st3{fill:#0D71B9;}
	.st4{fill:#232327;}
	.st5{fill:#FFFFFF;}
	.st6{fill:#010101;}
	.st7{fill:#929497;}
	.st8{fill:#1071B9;}
	.st9{opacity:0.3;}
</style>
<rect id="Background" class="st0" width="484" height="158"/>
<g id="TrackWrestling">
	<g id="Powered_by_FloSports_Text" class="st1">
		<path id="s" class="st2" d="M480.7,147.4c0,0.5-0.1,1.1-0.4,1.5c-0.2,0.4-0.6,0.8-1,1.1s-0.9,0.5-1.5,0.7s-1.2,0.2-1.8,0.2
			c-0.8,0-1.6-0.1-2.3-0.4c-0.8-0.2-1.5-0.6-2.2-1.1c-0.1-0.1-0.1-0.2-0.1-0.4l0.6-1c0-0.1,0.2-0.2,0.3-0.1h0.1
			c0.5,0.4,1.1,0.7,1.7,0.9s1.3,0.3,1.9,0.3c0.7,0,1.3-0.1,1.9-0.5c0.5-0.3,0.8-0.8,0.8-1.4c0-0.3-0.1-0.6-0.2-0.8
			c-0.2-0.2-0.4-0.4-0.6-0.5c-0.3-0.1-0.6-0.2-0.9-0.3s-0.6-0.1-1-0.2c-0.4-0.1-0.9-0.2-1.4-0.3s-1-0.3-1.4-0.6s-0.8-0.6-1.1-1
			c-0.3-0.5-0.5-1.1-0.5-1.6s0.1-1,0.4-1.5c0.3-0.4,0.6-0.8,1-1c0.4-0.3,0.9-0.5,1.4-0.6s1.1-0.2,1.7-0.2c0.7,0,1.4,0.1,2,0.3
			c0.7,0.2,1.3,0.5,1.9,0.8c0.2,0.1,0.2,0.2,0.1,0.3l-0.6,1c-0.1,0.2-0.2,0.2-0.3,0.1c-0.5-0.3-1-0.5-1.5-0.6
			c-0.5-0.2-1.1-0.2-1.7-0.2c-0.8,0-1.4,0.1-1.9,0.4c-0.4,0.3-0.7,0.7-0.7,1.2c0,0.3,0.1,0.6,0.2,0.8c0.2,0.2,0.4,0.4,0.6,0.5
			c0.3,0.2,0.6,0.3,0.9,0.4c0.4,0.1,0.7,0.2,1.1,0.3c0.5,0.1,0.9,0.2,1.4,0.3s0.9,0.3,1.4,0.6c0.4,0.2,0.8,0.6,1,1
			C480.6,146.3,480.7,146.9,480.7,147.4z"/>
		<path id="t" class="st2" d="M467.3,148.6c0.4,0.4,0.9,0.6,1.6,0.6c0.1,0,0.3,0,0.5,0s0.4,0,0.6,0s0.3,0.1,0.3,0.3v1.2
			c0,0.1-0.1,0.3-0.2,0.3l0,0c-0.2,0-0.4,0-0.7,0c-0.2,0-0.4,0-0.6,0c-0.5,0-1.1-0.1-1.6-0.2c-0.5-0.2-0.9-0.4-1.3-0.7
			s-0.7-0.8-0.8-1.3c-0.2-0.6-0.3-1.2-0.3-1.8v-10.6c0-0.1,0.1-0.3,0.2-0.3c0,0,0,0,0.1,0h1.2c0.1,0,0.2,0.1,0.3,0.3l0.2,2.8h3
			c0.1,0,0.2,0.1,0.3,0.2c0,0,0,0,0,0.1v1.1c0,0.2-0.1,0.3-0.3,0.3h-3v6.1C466.7,147.6,466.9,148.2,467.3,148.6z"/>
		<path id="r_00000166639121196689797400000017010022572407151756_" class="st2" d="M456.5,150.7c-0.1,0-0.2-0.1-0.3-0.2
			c0,0,0,0,0-0.1v-10.6c0-0.1,0.1-0.3,0.2-0.3c0.6-0.3,1.2-0.5,1.9-0.6c0.7-0.1,1.3-0.2,2-0.2c0.4,0,0.8,0,1.1,0
			c0.4,0,0.8,0.1,1.2,0.1c0.2,0,0.2,0.1,0.2,0.3v1.1c0,0.2-0.1,0.3-0.3,0.2c-0.3,0-0.7-0.1-1-0.1s-0.7,0-1,0c-0.5,0-0.9,0-1.4,0.1
			c-0.4,0.1-0.7,0.2-1.1,0.3v9.7c0,0.2-0.1,0.3-0.3,0.3H456.5z"/>
		<path id="o_00000003799783159177186790000013893826371483385993_" class="st2" d="M453.6,146.5c0,0.6-0.1,1.2-0.4,1.8
			c-0.2,0.5-0.6,1-1,1.4c-0.5,0.4-1,0.7-1.6,0.9c-1.4,0.4-2.8,0.4-4.2,0c-0.6-0.2-1.1-0.5-1.6-0.9c-0.4-0.4-0.8-0.9-1-1.4
			c-0.2-0.6-0.4-1.2-0.4-1.8v-3.3c0-0.6,0.1-1.3,0.4-1.8c0.2-0.5,0.6-1,1-1.4c0.5-0.4,1-0.7,1.6-0.9c1.4-0.4,2.8-0.4,4.2,0
			c0.6,0.2,1.1,0.5,1.6,0.9c0.4,0.4,0.8,0.9,1,1.4c0.2,0.6,0.4,1.2,0.4,1.8V146.5z M445.5,146.5c0,0.9,0.3,1.5,0.8,2.1
			c0.5,0.5,1.3,0.8,2.3,0.8s1.8-0.3,2.3-0.8s0.8-1.2,0.8-2.1v-3.3c0-0.9-0.3-1.6-0.8-2.1s-1.3-0.8-2.3-0.8s-1.8,0.3-2.3,0.8
			s-0.8,1.2-0.8,2.1V146.5z"/>
		<path id="p" class="st2" d="M431.8,139.5c0.7-0.3,1.4-0.5,2.2-0.6c0.7-0.1,1.5-0.2,2.3-0.2c0.7,0,1.4,0.1,2,0.3s1.1,0.5,1.6,0.9
			s0.8,1,1,1.5c0.3,0.7,0.4,1.5,0.4,2.2v2.5c0,0.7-0.1,1.4-0.4,2.1c-0.2,0.6-0.6,1.1-1,1.5c-0.5,0.4-1,0.7-1.6,0.9s-1.3,0.3-2,0.3
			c-0.5,0-1-0.1-1.5-0.2c-0.5-0.1-0.9-0.3-1.3-0.5v4.5c0,0.2-0.1,0.2-0.3,0.3h-1.3c-0.1,0-0.2-0.1-0.3-0.2c0,0,0,0,0-0.1v-15
			C431.6,139.7,431.7,139.6,431.8,139.5z M436.2,149.3c1,0,1.8-0.3,2.4-0.8s0.8-1.3,0.8-2.4v-2.5c0-1.2-0.3-2.1-0.9-2.6
			s-1.4-0.8-2.4-0.8c-0.5,0-1,0-1.4,0.1s-0.8,0.2-1.2,0.3v7.7c0.4,0.3,0.8,0.5,1.2,0.6C435.2,149.3,435.7,149.3,436.2,149.3
			L436.2,149.3z"/>
		<path id="S_00000136395208492554857230000009205312067374811019_" class="st2" d="M429.1,146.3c0,0.7-0.1,1.5-0.5,2.1
			c-0.3,0.6-0.8,1.1-1.3,1.4c-0.6,0.4-1.2,0.7-1.9,0.8c-0.7,0.2-1.5,0.3-2.3,0.3c-1,0-2.1-0.2-3-0.5c-1-0.4-1.9-1-2.7-1.6
			c-0.1-0.1-0.1-0.2-0.1-0.3l0,0l0.8-1.1c0.1-0.2,0.2-0.2,0.3-0.1c0.7,0.5,1.5,1,2.3,1.3s1.6,0.5,2.4,0.5c0.5,0,1-0.1,1.5-0.2
			c0.4-0.1,0.9-0.3,1.3-0.5s0.6-0.5,0.9-0.9c0.2-0.4,0.3-0.8,0.3-1.3c0-0.4-0.1-0.8-0.3-1.2c-0.2-0.3-0.5-0.6-0.9-0.8
			s-0.9-0.4-1.3-0.6c-0.5-0.2-1.1-0.3-1.8-0.4c-0.7-0.2-1.3-0.3-2-0.6c-0.6-0.2-1.2-0.5-1.7-0.9s-0.9-0.8-1.2-1.4
			c-0.6-1.2-0.6-2.7,0-3.9c0.3-0.5,0.7-1,1.3-1.3c0.6-0.4,1.2-0.6,1.9-0.8c0.7-0.2,1.5-0.3,2.2-0.3c0.9,0,1.9,0.1,2.8,0.4
			c0.9,0.3,1.8,0.8,2.5,1.4c0.1,0,0.2,0.2,0.1,0.3c0,0,0,0.1-0.1,0.1l-0.8,1.1c-0.1,0.1-0.2,0.2-0.4,0c-1.3-0.9-2.8-1.4-4.4-1.5
			c-1.1,0-2,0.2-2.7,0.6c-0.7,0.4-1.1,1.1-1,1.9c0,0.4,0.1,0.8,0.3,1.1c0.2,0.3,0.5,0.6,0.8,0.8c0.4,0.2,0.8,0.4,1.3,0.6
			c0.5,0.2,1,0.3,1.6,0.4c0.7,0.2,1.5,0.4,2.2,0.6c0.6,0.2,1.3,0.5,1.8,0.9s0.9,0.8,1.3,1.4C429,144.9,429.1,145.6,429.1,146.3z"/>
		<path id="o_00000138544832971386996940000001696303669150119079_" class="st2" d="M415.1,146.5c0,0.6-0.1,1.2-0.4,1.8
			c-0.2,0.5-0.6,1-1,1.4c-0.5,0.4-1,0.7-1.6,0.9c-1.4,0.4-2.8,0.4-4.2,0c-0.6-0.2-1.1-0.5-1.6-0.9c-0.4-0.4-0.8-0.9-1-1.4
			c-0.2-0.6-0.4-1.2-0.4-1.8v-3.3c0-0.6,0.1-1.3,0.4-1.8c0.2-0.5,0.6-1,1-1.4c0.5-0.4,1-0.7,1.6-0.9c1.4-0.4,2.8-0.4,4.2,0
			c0.6,0.2,1.1,0.5,1.6,0.9c0.4,0.4,0.8,0.9,1,1.4c0.2,0.6,0.4,1.2,0.4,1.8V146.5z M407,146.5c0,0.9,0.3,1.5,0.8,2.1
			c0.5,0.5,1.3,0.8,2.3,0.8s1.8-0.3,2.3-0.8s0.8-1.2,0.8-2.1v-3.3c0-0.9-0.3-1.6-0.8-2.1s-1.3-0.8-2.3-0.8s-1.8,0.3-2.3,0.8
			s-0.8,1.2-0.8,2.1V146.5z"/>
		<path id="l" class="st2" d="M403.6,150.9c-0.2,0-0.4,0.1-0.6,0.1s-0.4,0-0.6,0c-1.1,0-1.9-0.4-2.5-1.1c-0.6-0.7-0.9-1.8-0.9-3.1
			v-12.1c0-0.2,0.1-0.2,0.3-0.3h1.3c0.1,0,0.2,0.1,0.3,0.2c0,0,0,0,0,0.1v12.1c0,0.9,0.2,1.5,0.5,1.9s0.7,0.6,1.3,0.6
			c0.1,0,0.3,0,0.5,0s0.4,0,0.5-0.1c0.2,0,0.3,0.1,0.3,0.3v1.2C403.8,150.8,403.7,150.9,403.6,150.9z"/>
		<path id="F" class="st2" d="M396.7,136c0,0.2-0.1,0.2-0.3,0.2h-7.8v5.7h6.9c0.1,0,0.2,0.1,0.3,0.2c0,0,0,0,0,0.1v1.3
			c0,0.1-0.1,0.2-0.2,0.3c0,0,0,0-0.1,0h-6.9v6.7c0,0.1-0.1,0.2-0.2,0.3c0,0,0,0-0.1,0h-1.4c-0.2,0-0.3-0.1-0.3-0.3v-15.8
			c0-0.2,0.1-0.2,0.3-0.3h9.5c0.2,0,0.3,0.1,0.3,0.3L396.7,136z"/>
		<path id="y" class="st2" d="M376.1,139.2c0-0.2,0.1-0.3,0.3-0.3h1.3c0.1,0,0.3,0.1,0.3,0.2c0,0,0,0,0,0.1v11.2
			c0,1.5-0.4,2.7-1.2,3.6s-2,1.3-3.6,1.3c-0.8,0-1.7-0.1-2.5-0.4c-0.7-0.3-1.4-0.7-1.9-1.2c-0.1-0.1-0.1-0.3,0-0.4l0.7-0.9
			c0.1-0.1,0.2-0.2,0.3-0.1c0,0,0,0,0.1,0c0.5,0.4,1,0.6,1.5,0.9c0.6,0.3,1.2,0.4,1.8,0.4c1,0,1.7-0.3,2.2-0.8s0.7-1.3,0.7-2.5v-0.5
			c-0.4,0.2-0.9,0.3-1.4,0.4c-0.5,0.1-1,0.2-1.5,0.2c-0.6,0-1.2-0.1-1.8-0.3c-0.6-0.2-1.1-0.5-1.5-0.8c-0.5-0.4-0.8-0.9-1.1-1.4
			c-0.3-0.6-0.4-1.3-0.4-2v-6.6c0-0.2,0.1-0.3,0.3-0.3h1.3c0.1,0,0.3,0.1,0.3,0.2c0,0,0,0,0,0.1v6.5c0,0.5,0.1,0.9,0.3,1.3
			c0.2,0.3,0.4,0.7,0.7,0.9c0.3,0.2,0.6,0.4,1,0.5s0.8,0.2,1.2,0.2c0.5,0,0.9-0.1,1.4-0.2c0.4-0.1,0.8-0.2,1.2-0.5L376.1,139.2
			L376.1,139.2z"/>
		<path id="b" class="st2" d="M358,139.4c0.9-0.5,1.9-0.7,2.9-0.7c0.7,0,1.4,0.1,2,0.3s1.1,0.5,1.6,0.9c0.4,0.4,0.8,0.9,1,1.5
			c0.3,0.6,0.4,1.3,0.4,2v2.5c0,0.8-0.1,1.5-0.4,2.2c-0.2,0.6-0.6,1.1-1,1.5c-0.5,0.4-1,0.7-1.6,0.9c-0.7,0.2-1.4,0.3-2,0.3
			c-0.8,0-1.5-0.1-2.3-0.2c-0.7-0.1-1.4-0.3-2.1-0.6c-0.1,0-0.2-0.2-0.2-0.3v-15.2c0-0.1,0.1-0.2,0.2-0.3c0,0,0,0,0.1,0h1.3
			c0.2,0,0.3,0.1,0.3,0.3L358,139.4z M360.7,149.3c1,0,1.8-0.2,2.4-0.7s0.9-1.3,0.9-2.5v-2.5c0-1.1-0.3-1.9-0.8-2.4
			c-0.6-0.5-1.3-0.8-2.4-0.8c-0.5,0-1,0.1-1.5,0.2c-0.4,0.1-0.9,0.3-1.2,0.6v7.7c0.4,0.2,0.8,0.3,1.2,0.3
			C359.7,149.3,360.2,149.3,360.7,149.3L360.7,149.3z"/>
		<path id="d" class="st2" d="M346.1,134.7c0-0.2,0.1-0.2,0.3-0.3h1.3c0.1,0,0.2,0.1,0.3,0.2c0,0,0,0,0,0.1v15.2
			c0,0.1-0.1,0.3-0.2,0.3c-0.7,0.3-1.4,0.5-2.1,0.6s-1.5,0.2-2.3,0.2c-0.7,0-1.4-0.1-2-0.3s-1.1-0.5-1.6-0.9s-0.8-0.9-1-1.5
			c-0.3-0.7-0.4-1.5-0.4-2.2v-2.5c0-0.7,0.1-1.4,0.4-2c0.2-0.6,0.6-1.1,1-1.5c0.5-0.4,1-0.7,1.6-0.9s1.3-0.3,2-0.3
			c1,0,2,0.2,2.9,0.7L346.1,134.7z M340.1,146.1c0,1.2,0.3,2,0.9,2.5s1.4,0.7,2.4,0.7c0.5,0,1,0,1.4-0.1s0.8-0.2,1.2-0.3v-7.7
			c-0.4-0.3-0.8-0.5-1.2-0.6c-0.5-0.1-1-0.2-1.5-0.2c-1,0-1.8,0.3-2.4,0.8s-0.8,1.3-0.8,2.4V146.1z"/>
		<path id="e_00000122703902765110707820000018075926544654806454_" class="st2" d="M336.1,145.5c0,0.2-0.1,0.3-0.3,0.3h-7.4v1
			c0,0.9,0.3,1.5,0.8,2c0.6,0.5,1.4,0.7,2.1,0.7s1.4-0.1,2-0.4c0.5-0.2,1-0.5,1.5-0.9c0.1-0.1,0.3-0.1,0.3,0l0,0l0.7,0.9
			c0.1,0.1,0.1,0.2,0,0.4c-0.6,0.5-1.3,0.9-2,1.2c-0.8,0.3-1.7,0.5-2.5,0.5c-0.6,0-1.2-0.1-1.8-0.3c-0.6-0.2-1.1-0.4-1.5-0.8
			c-1-0.8-1.5-2-1.5-3.2v-3.5c0-0.7,0.1-1.4,0.4-2c0.2-0.5,0.6-1,1.1-1.4s1-0.7,1.5-0.8c0.6-0.2,1.2-0.3,1.8-0.3
			c0.6,0,1.2,0.1,1.8,0.3c0.6,0.2,1.1,0.5,1.5,0.8c0.5,0.4,0.8,0.9,1.1,1.4c0.3,0.6,0.4,1.3,0.4,2V145.5z M334.2,143.2
			c0-1-0.3-1.7-0.8-2.2c-0.6-0.5-1.3-0.7-2.1-0.7c-0.9,0-1.6,0.2-2.1,0.7s-0.8,1.2-0.8,2.2v1h5.9L334.2,143.2z"/>
		<path id="r" class="st2" d="M318.8,150.7c-0.1,0-0.2-0.1-0.3-0.2c0,0,0,0,0-0.1v-10.6c0-0.1,0.1-0.3,0.2-0.3
			c0.6-0.3,1.2-0.5,1.9-0.6c0.7-0.1,1.3-0.2,2-0.2c0.4,0,0.8,0,1.1,0c0.4,0,0.8,0.1,1.2,0.1c0.2,0,0.2,0.1,0.2,0.3v1.1
			c0,0.2-0.1,0.3-0.3,0.2c-0.3,0-0.7-0.1-1-0.1s-0.7,0-1,0c-0.5,0-0.9,0-1.4,0.1c-0.4,0.1-0.7,0.2-1.1,0.3v9.7
			c0,0.2-0.1,0.3-0.3,0.3H318.8z"/>
		<path id="e" class="st2" d="M316,145.5c0,0.2-0.1,0.3-0.3,0.3h-7.4v1c0,0.9,0.3,1.5,0.8,2c0.6,0.5,1.4,0.7,2.1,0.7s1.4-0.1,2-0.4
			c0.5-0.2,1-0.5,1.5-0.9c0.1-0.1,0.3-0.1,0.3,0l0,0l0.7,0.9c0.1,0.1,0.1,0.2,0,0.4c-0.6,0.5-1.3,0.9-2,1.2
			c-0.8,0.3-1.7,0.5-2.5,0.5c-0.6,0-1.2-0.1-1.8-0.3c-0.6-0.2-1.1-0.4-1.5-0.8c-0.4-0.4-0.8-0.8-1.1-1.3c-0.3-0.6-0.4-1.2-0.4-1.9
			v-3.5c0-0.7,0.1-1.4,0.4-2c0.2-0.5,0.6-1,1.1-1.4s1-0.7,1.5-0.8c0.6-0.2,1.2-0.3,1.8-0.3c0.6,0,1.2,0.1,1.8,0.3
			c0.6,0.2,1.1,0.5,1.5,0.8c0.5,0.4,0.8,0.9,1.1,1.4c0.3,0.6,0.4,1.3,0.4,2V145.5z M314.2,143.2c0-1-0.3-1.7-0.8-2.2
			c-0.6-0.5-1.3-0.7-2.1-0.7c-0.9,0-1.6,0.2-2.1,0.7s-0.8,1.2-0.8,2.2v1h5.9L314.2,143.2z"/>
		<path id="w" class="st2" d="M291.9,150.5l-3.4-11.2c-0.1-0.2,0-0.3,0.2-0.3h1.4c0.1,0,0.3,0.1,0.3,0.2l1.5,5.4
			c0.1,0.2,0.1,0.5,0.2,0.9s0.2,0.7,0.3,1.1c0.1,0.4,0.2,0.8,0.3,1.1c0.1,0.4,0.2,0.6,0.2,0.9l0,0c0.2-0.6,0.3-1.3,0.5-1.9
			c0.2-0.6,0.3-1.2,0.5-1.8l1.7-5.5c0-0.1,0.1-0.2,0.3-0.2h1.5c0.1,0,0.3,0.1,0.3,0.2l1.7,5.5c0.2,0.6,0.3,1.2,0.5,1.8
			s0.3,1.3,0.5,1.9l0,0c0.1-0.2,0.1-0.5,0.2-0.9s0.2-0.7,0.3-1.1c0.1-0.4,0.2-0.8,0.3-1.1c0.1-0.4,0.2-0.7,0.2-0.9l1.5-5.4
			c0-0.1,0.1-0.2,0.2-0.2l0,0h1.4c0.2,0,0.3,0.1,0.2,0.3l-3.4,11.2c0,0.1-0.2,0.2-0.3,0.2h-1.6c-0.1,0-0.3-0.1-0.3-0.2l0,0l-1.9-6.2
			c-0.2-0.5-0.3-1-0.4-1.5s-0.2-1-0.3-1.3h-0.1c-0.1,0.4-0.2,0.8-0.3,1.3c-0.1,0.5-0.3,1-0.4,1.5l-1.9,6.2c0,0.1-0.1,0.2-0.2,0.2
			l0,0H292C292.1,150.8,292,150.7,291.9,150.5L291.9,150.5z"/>
		<path id="o" class="st2" d="M287.1,146.5c0,0.6-0.1,1.2-0.4,1.8c-0.2,0.5-0.6,1-1,1.4c-0.5,0.4-1,0.7-1.6,0.9
			c-1.4,0.4-2.8,0.4-4.2,0c-0.6-0.2-1.1-0.5-1.6-0.9c-0.4-0.4-0.8-0.9-1-1.4c-0.2-0.6-0.4-1.2-0.4-1.8v-3.3c0-0.6,0.1-1.3,0.4-1.8
			c0.2-0.5,0.6-1,1-1.4c0.5-0.4,1-0.7,1.6-0.9c1.4-0.4,2.8-0.4,4.2,0c0.6,0.2,1.1,0.5,1.6,0.9c0.4,0.4,0.8,0.9,1,1.4
			c0.2,0.6,0.4,1.2,0.4,1.8V146.5z M279,146.5c0,0.9,0.3,1.5,0.8,2.1c0.5,0.5,1.3,0.8,2.3,0.8s1.8-0.3,2.3-0.8s0.8-1.2,0.8-2.1v-3.3
			c0-0.9-0.3-1.6-0.8-2.1s-1.3-0.8-2.3-0.8s-1.8,0.3-2.3,0.8s-0.8,1.2-0.8,2.1V146.5z"/>
		<path id="P" class="st2" d="M269.5,134.5c1.8,0,3.2,0.5,4.2,1.4s1.5,2.2,1.5,3.9s-0.5,3-1.5,4c-1,0.9-2.4,1.4-4.2,1.4h-3.8v5.4
			c0,0.1-0.1,0.2-0.2,0.3c0,0,0,0-0.1,0H264c-0.1,0-0.2-0.1-0.3-0.2c0,0,0,0,0-0.1v-15.8c0-0.1,0.1-0.2,0.2-0.3c0,0,0,0,0.1,0
			L269.5,134.5L269.5,134.5z M269.3,143.3c2.6,0,3.9-1.2,3.9-3.6c0-2.4-1.3-3.5-3.9-3.5h-3.6v7.1H269.3z"/>
	</g>
	<g id="TrackWrestling_Text">
		<g id="Wrestling_Text">
			<path id="G" class="st3" d="M458.6,119.6c-6.4,0-9.7-1.9-9.7-5.8V98.4c0-3.9,3.2-5.8,9.7-5.8h21.2v4h-21.2c-3,0-4.5,0.6-4.5,1.8
				v15.4c0,1.2,1.5,1.8,4.5,1.8h12c3,0,4.5-0.6,4.5-1.8v-9h5.1v9c0,3.8-3.2,5.8-9.7,5.8C470.5,119.6,458.6,119.6,458.6,119.6z"/>
			<path id="N" class="st3" d="M441.6,119.6l-28.9-21.1v21.1h-4.5V92.5h4.5l26.9,20.1V92.5h4.5v27.1H441.6L441.6,119.6z"/>
			<path id="I" class="st3" d="M397.9,119.6V92.5h5.1v27.1H397.9z"/>
			<path id="L" class="st3" d="M367,119.6V92.5h5.1v23.1h22v4H367L367,119.6z"/>
			<path id="T" class="st3" d="M344.7,119.6V96.5h-14.2v-4h33.1v4h-13.8v23.1H344.7z"/>
			<path id="S" class="st3" d="M296.7,119.6v-4h23.5c2.3,0,3.4-0.8,3.4-2.5v-3.4c0-1.7-1.1-2.5-3.4-2.5h-15.9
				c-1.5,0-2.8-0.2-3.9-0.5c-1-0.3-1.9-0.7-2.6-1.3c-0.7-0.5-1.2-1.3-1.5-2.1c-0.3-0.8-0.5-1.8-0.5-2.7V99c0-0.9,0.1-1.8,0.5-2.7
				c0.3-0.8,0.8-1.5,1.5-2.1c0.8-0.6,1.7-1.1,2.6-1.3c1.1-0.3,2.4-0.5,3.9-0.5h22.9v4h-22.9c-2.3,0-3.4,0.8-3.4,2.5v1.7
				c0,1.7,1.1,2.5,3.4,2.5h15.9c1.5,0,2.8,0.2,3.9,0.5c1,0.3,1.9,0.7,2.6,1.3c0.7,0.6,1.2,1.3,1.5,2.1c0.3,0.8,0.5,1.8,0.5,2.7v3.3
				c0,0.9-0.1,1.8-0.5,2.7c-0.3,0.8-0.8,1.5-1.5,2.1c-0.8,0.6-1.7,1.1-2.6,1.3c-1.1,0.3-2.4,0.5-3.9,0.5H296.7L296.7,119.6z"/>
			<path id="E" class="st3" d="M264.2,119.6V92.5H292v4h-22.7v6.8h21.6v4h-21.6v8.3H292v4L264.2,119.6L264.2,119.6z"/>
			<path id="R" class="st3" d="M254.3,119.6l-6.3-12.1h-14.3v12.1h-5.1V92.5h23c1.5,0,2.8,0.2,3.9,0.5c1,0.3,1.9,0.7,2.6,1.3
				c0.7,0.6,1.2,1.3,1.5,2.1c0.3,0.8,0.5,1.8,0.5,2.7v1.9c0,1.7-0.5,3.2-1.5,4.4c-1,1.2-2.7,1.9-5.2,2.1l6.4,12.2L254.3,119.6
				L254.3,119.6z M255,99c0-1.7-1.1-2.5-3.4-2.5h-17.9v7h17.9c2.3,0,3.4-0.8,3.4-2.5V99z"/>
			<path id="W" class="st3" d="M209.7,119.6l-9.4-20.8l-9.6,20.8H187l-12.5-27.1h4.9l9.4,20.8l9.5-20.8h3.8l9.4,20.8l9.5-20.8h5
				l-12.5,27.1H209.7z"/>
		</g>
		<g id="Track_Text">
			<path id="K" class="st4" d="M173.6,119.6l-10.2-12.1h-8.8v12.1h-5.1V92.5h5.1v11h8.7l10.2-11h6.1l-12,12.6l12,14.5H173.6
				L173.6,119.6z"/>
			<path id="C" class="st4" d="M123.3,119.6c-1.5,0-2.8-0.2-3.9-0.5c-1-0.3-1.9-0.7-2.6-1.3c-0.7-0.6-1.2-1.3-1.5-2.1
				c-0.3-0.8-0.5-1.8-0.5-2.7V99c0-0.9,0.1-1.8,0.5-2.7c0.3-0.8,0.8-1.5,1.5-2.1c0.8-0.6,1.7-1.1,2.6-1.3c1.3-0.3,2.6-0.5,3.9-0.5
				h21.8v4h-21.8c-2.3,0-3.4,0.8-3.4,2.5V113c0,1.7,1.1,2.5,3.4,2.5h21.8v4L123.3,119.6L123.3,119.6z"/>
			<path id="A" class="st4" d="M108.3,119.6h5.8L96.2,92.5h-3.7l-18,27.1h5.7l5.4-8.3H103L108.3,119.6z M88.2,107.3l6.2-9.5l6.1,9.5
				H88.2z"/>
			<path id="R_00000017511298768340164800000008690958843686160009_" class="st4" d="M67.1,119.6l-6.3-12.1H46.5v12.1h-5.1V92.5h23
				c1.5,0,2.8,0.2,3.9,0.5c1,0.3,1.9,0.7,2.6,1.3c0.7,0.6,1.2,1.3,1.5,2.1c0.3,0.8,0.5,1.8,0.5,2.7v1.9c0,1.7-0.5,3.2-1.5,4.4
				c-1,1.2-2.7,1.9-5.2,2.1l6.4,12.2L67.1,119.6L67.1,119.6z M67.7,99c0-1.7-1.1-2.5-3.4-2.5H46.5v7h17.9c2.3,0,3.4-0.8,3.4-2.5
				L67.7,99z"/>
			<path id="T_00000129900655287076640240000015700649108779617924_" class="st4" d="M19,119.6V96.5H4.8v-4h33.1v4H24.1v23.1H19z"/>
		</g>
	</g>
	<g id="Logo">
		<path id="Logo_Border" class="st5" d="M242.5,80.1l-10.9-5.9l-2.1-1.3c-0.5-0.3-0.9-0.6-1.3-0.9l-0.2-0.1c-0.4-0.3-0.8-0.6-1.2-1
			l-0.1-0.1c-0.5-0.4-0.9-0.8-1.3-1.1l0,0c-0.5-0.4-0.9-0.9-1.5-1.5c-0.3-0.3-0.6-0.6-0.9-1l0,0l-0.1-0.1c-0.3-0.4-0.6-0.7-0.9-1
			l0,0c-0.1-0.1-0.2-0.2-0.2-0.3l-0.1-0.1c-0.4-0.5-0.7-0.9-1.1-1.4l-0.1-0.1c-0.4-0.5-0.7-1-1-1.5l0,0c-1.1-1.6-2.1-3.3-2.9-5
			l-0.1-0.1c-0.3-0.5-0.5-1.1-0.8-1.6v-0.1c-0.3-0.6-0.5-1.2-0.8-1.8V54c-3-6.9-4.9-15.1-5.6-23.5l-0.1-1.6L209,10.3l3.5-1
			c19.7-5.5,40.5-5.5,60.2,0l3.5,1L276,29l-0.1,1.5c-0.7,8.4-2.6,16.6-5.6,23.5v0.1c-0.3,0.6-0.5,1.2-0.8,1.8l-0.1,0.1
			c-0.2,0.5-0.5,1.1-0.8,1.7l-0.1,0.1c-0.9,1.7-1.8,3.3-2.8,4.8l0,0c-0.1,0.1-0.2,0.2-0.2,0.4v0.1l-1.8,2.4c0,0.1-0.1,0.1-0.1,0.2
			l-0.1,0.1c-0.1,0.1-0.1,0.2-0.2,0.2v0.1c-0.3,0.4-0.6,0.7-0.9,1l-0.1,0.1c-0.3,0.3-0.6,0.7-0.9,1c-0.6,0.6-1,1-1.5,1.4l0,0
			c-0.4,0.4-0.8,0.7-1.3,1.1l-0.1,0.1c-0.4,0.3-0.8,0.7-1.2,1l-0.2,0.1c-0.4,0.3-0.9,0.6-1.3,0.9l-2.9,1.8L242.5,80.1z M234.2,71.3
			l8.3,4.4l8.3-4.4l2.7-1.6c0.3-0.2,0.7-0.5,1-0.7l0.2-0.1c0.4-0.3,0.7-0.6,1.1-0.9l0.1-0.1c0.4-0.4,0.8-0.7,1.1-0.9l0,0
			c0.4-0.4,0.8-0.8,1.4-1.3c0.3-0.3,0.6-0.6,0.9-0.9l0.1-0.1c0.2-0.3,0.5-0.6,0.7-0.9l2.1-2.9l0.1-0.1l0.1-0.1c1-1.5,1.9-3,2.7-4.5
			l0.1-0.1c0.3-0.5,0.5-1,0.8-1.6l0.1-0.1c0.2-0.5,0.5-1.1,0.7-1.6v-0.1c2.8-6.6,4.7-14.3,5.3-22.3l0.1-1.4l0.1-15.5l-0.7-0.2
			c-19-5.4-39.1-5.4-58,0l-0.7,0.2l0.2,15.6l0.1,1.4c0.7,8,2.5,15.7,5.3,22.3v0.1c0.2,0.5,0.5,1.1,0.8,1.7l0.1,0.1
			c0.2,0.5,0.5,1,0.7,1.5L220,56c0.8,1.6,1.7,3.1,2.7,4.6l0,0c0.3,0.5,0.6,0.9,1,1.4l0.1,0.1c0.3,0.4,0.6,0.8,1,1.3l0.3,0.3
			c0.2,0.3,0.5,0.6,0.8,0.9l0.1,0.1c0.3,0.3,0.6,0.6,0.8,0.9c0.5,0.5,0.9,0.9,1.3,1.3l0,0c0.3,0.3,0.7,0.6,1.1,1l0.1,0.1
			c0.4,0.3,0.7,0.6,1.1,0.9l0.2,0.1c0.3,0.3,0.7,0.5,1.1,0.8L234.2,71.3z"/>
		<path id="Logo_Stencil" class="st6" d="M274.2,11.8l-2.1-0.6c-19.3-5.4-39.8-5.4-59.1,0l-2.1,0.6l0.2,17.1l0.1,1.5
			c0.7,8.2,2.6,16.2,5.5,22.9v0.1c0.3,0.6,0.5,1.2,0.8,1.8v0.1c0.3,0.5,0.5,1,0.8,1.5l0.1,0.1c0.9,1.6,1.8,3.2,2.8,4.8v0.1
			c0.3,0.5,0.6,0.9,1,1.4l0.1,0.1c0.3,0.4,0.7,0.9,1,1.3l0.1,0.1c0,0.1,0.1,0.1,0.2,0.2V65c0.3,0.3,0.6,0.7,0.9,1l0,0
			c0.3,0.3,0.6,0.7,0.9,1c0.5,0.5,1,1,1.4,1.4l0.1,0.1c0.4,0.3,0.7,0.7,1.2,1l0.1,0.1c0.4,0.3,0.8,0.6,1.2,0.9l0.2,0.1
			c0.4,0.3,0.8,0.6,1.2,0.8l2,1.3l0.7,0.4l9.3,4.9l9.3-4.9l0.7-0.4l1.9-1.2l0.1-0.1c0.4-0.3,0.8-0.5,1.2-0.8l0.2-0.1
			c0.4-0.3,0.8-0.6,1.1-0.9l0.1-0.1c0.4-0.3,0.8-0.7,1.1-1l0.1-0.1c0.4-0.4,0.9-0.8,1.4-1.4c0.3-0.3,0.6-0.6,0.9-1l0.1-0.1
			c0.3-0.3,0.6-0.7,0.8-1v-0.1c0.1-0.1,0.1-0.1,0.2-0.2l0.1-0.1l0.1-0.1L264,62c0.1-0.1,0.1-0.2,0.2-0.3v-0.1c1-1.5,1.9-3.1,2.8-4.7
			v-0.1c0.3-0.6,0.6-1.1,0.8-1.7V55c0.3-0.6,0.5-1.2,0.8-1.7l0,0v-0.1c2.9-6.8,4.8-14.7,5.5-22.9l0.1-1.5V11.8z M233.2,24.5v25.1
			c-3-6.1-4.9-13.8-5.4-22.1l-0.1-2.3C229.6,24.9,231.4,24.7,233.2,24.5z M257.1,27.4c-0.5,8.3-2.4,16.1-5.4,22.1v-25
			c1.8,0.2,3.7,0.4,5.5,0.6L257.1,27.4z"/>
		<path id="Logo_T" class="st7" d="M236.1,47.9l6.4-6.2l6.4,6.2V21.3c7.6,0.4,15.1,1.7,22.4,3.8V14c-18.8-5.3-38.7-5.3-57.5,0v11.1
			c7.3-2.1,14.8-3.3,22.4-3.8L236.1,47.9L236.1,47.9z M242.5,64l-6.4,6.2v1.1l6.4,3.4l6.4-3.4v-1.1L242.5,64z M251.8,24.5
			c0,0,3.5,0.3,5.5,0.6l0,0c0,0-0.1,14.6-5.5,24.4l0,0v-2.8c1.4-2.7,4.2-12.9,4.2-20.6l-4.2-0.5L251.8,24.5 M233.2,24.5v1.1
			l-4.2,0.5c0,7.7,2.8,17.9,4.2,20.6v2.8l0,0c-5.4-9.8-5.5-24.4-5.5-24.4l0,0C229.7,24.8,233.2,24.5,233.2,24.5"/>
		<path id="Logo_W" class="st8" d="M269.5,29.7c-3.1-0.9-6.3-1.6-9.5-2.2c-0.6,9.8-3.1,19.1-7.1,25.9c-0.4,0.8-0.9,1.5-1.4,2.1
			l-9.1-8.8l-9.1,8.8c-0.5-0.7-0.9-1.4-1.4-2.1c-4-6.8-6.5-16.1-7.1-25.9c-3.2,0.6-6.4,1.3-9.5,2.2l-1.4,0.4
			c0.7,8.2,2.5,15.7,5.3,22c0,0,0,0,0,0.1c0.2,0.6,0.5,1.1,0.7,1.6c0,0,0,0,0,0.1c0.3,0.5,0.5,1.1,0.8,1.6l0,0
			c0.8,1.5,1.7,3,2.6,4.5c0,0,0,0,0,0.1c0.3,0.4,0.6,0.9,0.9,1.3l0.1,0.1c0.3,0.4,0.6,0.8,0.9,1.2l0.1,0.1c0.1,0.1,0.1,0.1,0.2,0.2
			l0,0c0.3,0.3,0.5,0.6,0.8,0.9c0,0,0,0,0.1,0.1c0.3,0.3,0.5,0.6,0.8,0.9c0.4,0.4,0.8,0.9,1.3,1.3l0,0c0.3,0.3,0.7,0.6,1,0.9
			l0.1,0.1c0.3,0.3,0.7,0.6,1,0.8c0,0,0.1,0.1,0.2,0.1c0.3,0.3,0.7,0.5,1,0.7l0,0l10.3-10l10.4,10l0,0c0.4-0.2,0.7-0.5,1-0.7
			c0,0,0.1-0.1,0.2-0.1c0.3-0.3,0.7-0.5,1-0.8l0.1-0.1c0.4-0.3,0.7-0.6,1-0.9l0,0c0.4-0.4,0.8-0.8,1.3-1.3c0.3-0.3,0.6-0.6,0.8-0.9
			l0,0c0,0,0,0,0-0.1c0.3-0.3,0.5-0.6,0.8-0.9l0,0c0.1-0.1,0.1-0.1,0.2-0.2l0.1-0.1c0.3-0.4,0.6-0.8,0.9-1.2l0.1-0.1
			c0.3-0.4,0.6-0.8,0.9-1.3c0,0,0,0,0-0.1c1-1.4,1.8-2.9,2.6-4.5l0,0c0.3-0.5,0.5-1.1,0.8-1.6c0,0,0,0,0-0.1
			c0.3-0.5,0.5-1.1,0.7-1.6c0,0,0,0,0-0.1c2.7-6.3,4.6-13.8,5.3-22L269.5,29.7z"/>
		<g id="Logo_Shadow_00000125604731563358968070000016173261855945791649_" class="st9">
			<path id="Logo_Shadow" class="st5" d="M221.5,50.5c0-7.7,2.3-15.2,6.5-21.6c0-0.5-0.1-1-0.1-1.5l-0.1-2.3
				c1.1-0.2,2.2-0.3,3.3-0.4c7.7-9,19.3-14.7,32.2-14.7c1.9,0,3.7,0.1,5.6,0.4c-18.4-4.6-37.7-4.3-55.9,0.8l-2.1,0.6l0.2,17.1
				l0.1,1.5c0.7,8.2,2.6,16.2,5.5,22.9v0.1c0.3,0.6,0.5,1.2,0.8,1.8v0.1c0.3,0.5,0.5,1,0.8,1.5l0.1,0.1c0.9,1.6,1.8,3.2,2.8,4.8v0.1
				c0.3,0.5,0.6,0.9,1,1.4l0.1,0.1c0.3,0.4,0.7,0.9,1,1.3l0.1,0.1c0,0.1,0.1,0.1,0.2,0.2V65c0.3,0.3,0.6,0.7,0.9,1l0,0
				c0.1,0.2,0.3,0.3,0.4,0.5C222.6,61.4,221.5,56,221.5,50.5z"/>
		</g>
	</g>
</g>
</svg>
