<?xml version="1.0" encoding="utf-8"?>
<!-- Generator: Adobe Illustrator 26.0.1, SVG Export Plug-In . SVG Version: 6.00 Build 0)  -->
<svg version="1.1" id="Layer_1" xmlns="http://www.w3.org/2000/svg" xmlns:xlink="http://www.w3.org/1999/xlink" x="0px" y="0px"
	 viewBox="0 0 575 176" style="enable-background:new 0 0 575 176;" xml:space="preserve">
<style type="text/css">
	.st0{fill:none;}
	.st1{fill:#FDFDFD;}
	.st2{fill:#0E4573;}
	.st3{fill:#A02138;}
</style>
<rect id="Backgroung" class="st0" width="575" height="176"/>
<g id="USA_Wrestling">
	<path id="Stenciled_Background" class="st1" d="M570.4,115.6c0,17.9,0,35.9,0,53.8c0,1.4-0.3,1.7-1.7,1.7c-187,0-374,0-561,0
		c-1.4,0-1.7-0.3-1.7-1.7c0-53.9,0.1-107.8,0-161.7C6,6,6.7,6,8,6c79.8,0,159.5,0,239.3,0c0,0.3,0.1,0.6,0,0.9
		c-1.9,6.3-3.8,12.6-5.6,19c-0.3,1-0.9,1.4-1.6,2c-6.6,5.4-13.2,10.8-19.9,16.2c-0.7,0.5-1.3,1.1-2.2,1.3c-3.8,0.7-7.7,1.4-11.5,2.3
		c-1.2,0.3-1.7-0.2-2.1-1.3c-0.8-2.1-1.8-4.1-2.5-6.2c-0.6-1.7-1.1-2.1-2.8-0.9c-2.5,1.9-5.1,3.6-7.8,5.2c-1.4,0.9-2.3,2-3,3.6
		c-0.9,2.2-2,4.4-3.2,7.1c-1-6.5-2.7-12.4,0.7-18.5c-1.4,0.4-2.1,0.6-2.8,0.8c-4.9,1.5-5,1.4-4.1-3.6c0.2-1.4,0.1-1.8-1.4-2.1
		c-8.8-1.9-17.8-1.5-26.7-1.7c-1.3,0-1.6,0.4-1.5,1.7c0.3,3.1,0.6,6.2,0.9,9.3c0.5,4.9,1.1,9.6,5.5,13c3.3,2.6,6.6,5.3,6.9,10.3
		c1.4-0.8,2.4-1.4,3.5-2c4.6-2.6,8.6-1.9,11.8,2.1c1.7,2,1.4,7.6-0.1,9.7c-2.2,3.3-5.5,4.4-9.1,5c-2.1,0.4-1.9,1-1,2.5
		c2.8,4.6,4.9,9.5,3.5,15.1c-0.8,3.4-0.4,6.5,1.5,9.5c1,1.5,1.4,3.3,2,5.1c1.1,3.7,2.6,7.1,6.7,8.6c1.4,0.5,2.7,1.6,4.2,2.5
		c-7.5,1.1-14.4-3-16.9-9.6c-2.9-7.4-5.3-15-7.6-22.6c-0.6-2.1-1.8-3.5-4.2-3.3c-4.3,0.4-8.6,0.9-12.9,1.2c-1.7,0.1-1.5,1.1-1.3,2.1
		c0.2,1,4.6,4,5.5,3.7c2.1-0.7,3.5,0.2,5,1.3c0.6,0.4,1.2,1,1.8,1c1.9-0.1,2.2,1,2.4,2.5c0.1,0.9,0.3,1.7,0.6,2.6
		c1.3,3.5,0.8,6.4-2.5,8.7c-1,0.7-1.8,1.6-2.6,2.5c-0.5,0.5-1,0.7-1.7,0.5c-3.8-0.8-7.5-1.6-8.8-6.1c-0.1-0.4-0.4-0.7-0.6-1
		c-0.5-1.2-1.3-1.7-2.6-1.5c-2.8,0.5-5.5-0.2-8.1-1.2c-2.7-1.1-5.4-1.9-8.1-3c-1.5-0.6-2.6-0.4-4,0.4c-2.3,1.2-4.3,3.3-7.2,2.9
		c-3.7-0.5-6.5,0.8-8.8,3.5c-0.3,0.4-0.7,0.7-1.1,0.9c-1.4,1-1.5,1.7,0.2,2.6c6.5,3.5,12.4,7.8,17.7,12.9c3.5,3.3,4.4,7.4,2.1,11.5
		c-3.3-4.5-3.3-4.5-6.3-5.4c-3.7-1.1-3.9-1.2-5.6,2.3c-0.9,1.8-2.9,2.8-3.3,4.8c-0.6,2.6-1,5.1-1.6,7.7c-0.2,0.8,0.2,1.4,0.7,1.9
		c1.9,2,3.8,4.1,5.7,6.2c0.7,0.8,1.3,0.9,2.2,0.2c1.7-1.4,3.4-2.7,5.1-4c2.5-1.8,4.1-1.5,5.6,1c2.8,4.7,5.6,9.3,8.2,14
		c0.8,1.4,1.7,2.1,3.2,2.5c3.2,0.7,6.3,1.6,9.5,2.4c2.2,0.5,4.3,1.4,6.8,1.5c-1.3-4.2-2.5-8.1-3.8-12c-0.5-1.4-0.2-2.3,0.9-3.3
		c4.2-3.5,8.4-7.1,12.5-10.8c1.5-1.4,2.9-1.8,4.9-1.5c9,1.3,17.9,1.4,27,0c-1-2.4-1.9-4.8-2.9-7.3c9.6-0.7,18.9-1.3,28.2-2
		c1.2-0.1,1.9,0.2,2.4,1.4c1.8,4,3.7,7.9,5.6,11.9c0.3,0.6,0.6,1.4,1.1,1.8c3.5,3.1,7,6.1,10.6,9.2c1.3-2.5,2.5-5,3.8-7.3
		c0.7-1.2,0.5-2.1,0-3.3c-4-8.4-8.9-16.2-13.6-24.1c-1-1.6-0.9-2.7,0.1-4.2c6.2-9.4,12.2-18.8,18.4-28.2c0.8-1.3,1.1-2.2,0.2-3.6
		c-1.2-1.7-1.9-3.7-3.1-5.4c-1.6-2.1-1.6-3.7,0.8-5.1c1.1-0.6,1.6-1.6,1.5-3c-0.2-3.6-0.2-7.2-0.3-10.7c-0.1-1.8,0.3-3.4,1.2-5
		c2-3.3,3.8-6.6,5.7-9.9c0.5-0.9,0.7-1.7,0.6-2.7c-0.2-2.5-0.3-4.9-0.6-7.4c-0.2-1.5,0.2-2.7,1-4c2.9-4.7,5.7-9.6,8.7-14.3
		c0.8-1.3,0.8-2.1-0.7-2.7c-3.1-1.1-4.6-3.4-5.4-6.4c-0.4-1.5-0.9-3-1.9-4.3c104.5,0,208.9,0,313.4,0c1.8,0,2.2,0.4,2.2,2.2
		c-0.1,35.5,0,71,0,106.4c-1-0.4-1-1.5-1.4-2.3c-12.3-29-24.6-57.9-36.8-86.9c-0.5-1.3-1.1-1.8-2.6-1.8c-6.9,0.1-13.9,0.1-20.8,0
		c-1.4,0-2.1,0.5-2.6,1.8c-12.4,29.4-24.8,58.7-37.3,88c-0.7,1.5-0.6,2,1.3,2c7.6-0.1,15.2-0.1,22.8,0c1.6,0,2.2-0.6,2.7-1.9
		c1.6-4.2,3.4-8.4,5-12.6c0.5-1.2,1-1.8,2.4-1.8c10.5,0.1,21.1,0.1,31.6,0c1.4,0,2,0.5,2.4,1.7c1.6,4.2,3.5,8.4,5.1,12.6
		c0.6,1.7,1.5,2,3.2,2c7.7-0.1,15.5,0,23.2,0C569.2,115.4,569.9,115.1,570.4,115.6z M79.3,34.8c0.3-0.1,0.5-0.2,0.8-0.3
		c0.7,5,4.4,7.8,7.8,10.8c1.2,1.1,2.4,2.1,3.6,3.2c0.5,0.5,1.1,1,1.8,1.1c6.5,1.2,12.5,4.3,19,5.6c0.9,0.2,1.6,0.7,2.3,1.2
		c4.9,3.8,10.1,7,15.3,10.3c1.2,0.7,2.1,1,3.5,0.4c2.7-1.1,5-0.5,6.7,1.6c0.7,0.8,1.3,0.7,2.1,0.4c2.5-0.9,4.9-1.8,7.4-2.8
		c1.8-0.7,2.4-1.9,1.8-4c-1.2-4.1-4.1-7.2-6.3-10.6c-1-1.5-1.3-2.9-1.4-4.6c-0.2-5.1,0.4-10.2,1.4-15.2c0.3-1.6,0.3-2.5-1.9-2.5
		c-13,0-26-0.2-39-0.3c-5.3-0.1-10.6,0.3-15.8-0.2C73.5,27.4,58.8,25.6,44,24c-8.5-0.9-16.9-2.3-25.5-2c-2,0.1-2.7,0.4-2.4,2.5
		c0.5,3.3,0.8,6.6,1.3,9.9c0.6,3.4,0.3,6.6-1.1,10c-3.3,7.9-6.1,16.1-9.2,24.1c-0.5,1.4-0.6,2.7-0.1,4.1
		c3.8,13.1,7.6,26.3,11.3,39.4c0.4,1.4,1.1,2.4,2.2,3.3c5.7,4.4,11.3,8.8,16.9,13.3c0.9,0.7,1.8,1.2,3,1.4c8.7,2,17.4,4,26.1,6.1
		c5,1.2,10.1,3.1,15.2,3.2c6.8,0.2,13.7-1,20.5-1.5c0.8-0.1,1.4-0.3,1.2-1.3c-0.5-2.7,1-4.7,2.4-6.7c1.2-1.8,0.7-5.1-1-6.5
		c-3.6-2.9-7.1-6-11.3-8c-3.8-1.8-6.4-4.5-8.1-8.3c-1-2.1-1.2-4,0.3-6c1.8-2.4,3.5-4.9,5.1-7.5c0.8-1.3,1.8-1.9,3.3-2.4
		c2.8-0.9,6.1-0.8,8.2-3c3.9-4,8.7-6.1,13.9-7.4c0.6-0.2,1.2-0.4,1.8-0.6c0.7-0.2,0.8-0.6,0.4-1.3c-2.5-3.9-3.8-8.7-8.7-10.6
		c-2-0.8-3.6-2.2-4.7-3.9c-2.7-4.1-6.4-5.1-10.9-4c-2.1,0.5-3.3-0.2-3.9-2.2c-1.6-4.8-4.4-8.3-9.6-9.5c-1-0.2-1.4-0.8-1.3-1.9
		C79.4,42.7,79.3,38.7,79.3,34.8z M292.7,55.3c0.4,8.5-0.6,18.8,0.6,29.2c1.8,15.9,11.6,27.2,27,31c9,2.2,18,2.3,27.1,0.5
		c9.2-1.8,17.2-5.8,22.8-13.7c5.3-7.4,7.3-15.9,7.4-24.8c0.2-17.1,0-34.1,0.1-51.2c0-1.8-0.6-2.1-2.2-2c-7.1,0.1-14.2,0.1-21.3,0
		c-1.9,0-2.4,0.5-2.4,2.4c0.1,16.4,0,32.8,0.1,49.3c0,2-0.2,4-0.6,5.9c-1.6,7.4-6.9,11.9-14.4,12.3c-8.9,0.5-14.7-3.2-17.2-10.7
		c-0.9-2.9-1.2-5.9-1.2-9c0-15.9,0-31.9,0-47.8c0-1.8-0.4-2.5-2.3-2.4c-7.1,0.1-14.2,0.1-21.3,0c-1.7,0-2.2,0.4-2.2,2.1
		C292.8,35.4,292.7,44.4,292.7,55.3z M425.9,22.8c-1,0-1.9,0-2.9,0c-8.2,0.4-15.8,2.4-22.6,7.3c-13.5,9.8-16.4,36.4,5.1,45
		c5.3,2.1,10.8,3.8,16.4,5.2c5,1.2,10.2,2.1,14.8,4.6c2,1.1,3.1,2.7,2.9,5c-0.1,2.4-1.4,3.8-3.5,4.7c-2,0.9-4.1,1.2-6.3,1.2
		c-10.5,0.1-19.9-3.3-28.2-9.6c-1.6-1.2-2.3-1-3.5,0.5c-3.7,4.7-7.6,9.2-11.5,13.8c-0.9,1.1-0.9,1.6,0.2,2.4
		c17.9,13.6,37.8,17.6,59.3,11c12-3.7,18.9-13.7,19.2-25.6c0.2-12.4-5.2-19.9-18.1-25.1c-0.7-0.3-1.3-0.5-2-0.8
		c-6.3-2.4-12.9-3.5-19.4-5.2c-2.6-0.7-5.2-1.4-7.6-2.9c-1.8-1.1-2.9-2.8-2.7-5c0.2-2.2,1.5-3.7,3.4-4.5c1.5-0.7,3.2-1,4.9-1
		c9-0.2,17,3,24.5,7.8c1.4,0.9,2.1,1.1,3.2-0.5c3.3-4.9,6.7-9.7,10.2-14.4c1.1-1.4,1-2.1-0.5-3.1C450.7,25.8,438.8,22.8,425.9,22.8z
		 M316,136.6c2.3,6.5,4.4,12.4,6.3,18.3c0.5,1.4,1.1,1.9,2.5,1.8c0.6-0.1,1.3-0.1,1.9,0c1.7,0.3,2.4-0.4,3-2.1
		c2.7-8.2,5.5-16.4,8.4-24.6c1.7-4.8,1.7-4.7-3.4-4.9c-1.9-0.1-2.6,0.7-3.1,2.4c-1.7,6-3.6,12-5.5,18c-0.6-0.4-0.7-1-0.9-1.5
		c-1.7-5.1-3.4-10.1-5.1-15.2c-1.2-3.7-1.2-3.6-5.2-3.7c-1.6,0-2.2,0.6-2.6,2c-1.7,5.4-3.5,10.7-5.3,16.1c-0.2,0.7-0.2,1.6-1.2,2.1
		c-1.9-6.1-3.7-12.2-5.6-18.2c-0.3-0.8-0.3-1.9-1.7-1.9c-2,0.1-4.1,0-6.3,0c0.2,0.8,0.3,1.3,0.5,1.9c2.9,8.7,5.9,17.3,8.9,26
		c1.3,3.7,1.2,3.6,5.2,3.7c1.6,0,2.3-0.4,2.9-2C311.7,148.9,313.8,143.1,316,136.6z M526.4,144.1c-4.3-5.6-8.2-10.4-11.8-15.6
		c-1.8-2.6-3.8-3.7-6.9-3.4c-1.6,0.1-2.1,0.5-2.1,2.2c0.1,8.1,0,16.3,0,24.4c0,4.9,0,4.8,4.9,4.8c1.5,0,2.1-0.4,2-2
		c-0.1-4.9-0.1-9.9,0-14.8c0-0.6-0.4-1.4,0.6-2c4,5.3,8.2,10.4,12,15.8c1.6,2.3,3.3,3.3,6.1,3c1.7-0.1,2.3-0.5,2.3-2.3
		c-0.1-8.1,0-16.3,0-24.4c0-4.7,0-4.6-4.8-4.7c-2-0.1-2.3,0.7-2.3,2.5C526.5,132.9,526.4,138.1,526.4,144.1z M364.2,145.5
		c0.4-0.3,0.6-0.4,0.8-0.5c4.7-2.6,6.4-6.4,5.4-11.8c-0.8-4.2-4-7-9-7.6c-5.2-0.7-10.4-0.1-15.6-0.3c-1.1,0-1.4,0.4-1.4,1.4
		c0,9.5,0,19,0,28.5c0,0.5-0.2,1.3,0.5,1.4c2,0.1,4,0.1,6,0c0.9-0.1,0.6-1,0.6-1.6c0-2.2,0-4.5,0-6.7c0-0.5-0.2-1.1,0.5-1.5
		c1.3-0.7,4.9,0.2,5.7,1.5c1.6,2.3,3.1,4.6,4.7,7c0.4,0.6,0.7,1.4,1.5,1.4c2.4,0,4.8,0,7.6,0c-1.5-2.2-2.6-3.9-3.8-5.6
		C366.7,149.1,365.5,147.4,364.2,145.5z M569.1,145.5c0-1.6-0.1-3.2,0-4.8c0.2-1.7-0.3-2.4-2.2-2.3c-2.7,0.2-5.4,0-8.1,0
		c-3.3,0-3.1,0-3.3,3.3c-0.2,2.3,0.5,3.2,2.9,2.8c0.5-0.1,1.1-0.1,1.7,0c0.8,0.2,2.2-0.7,2.3,0.8c0.1,1.4,0.9,3.2-1.1,4.2
		c-4,2.1-9.5,1.1-12.3-2.2c-2.9-3.4-3-9-0.2-12.7c2.7-3.5,7.3-4.5,11.7-2.6c1.3,0.5,2.2,2.4,3.6,1.7c1.2-0.6,1.9-2.1,2.8-3.2
		c0.2-0.2,0.3-0.4,0.4-0.6c1.1-0.8,0.5-1.4-0.3-2c-2.6-2-5.6-2.9-8.9-3.3c-7.3-0.9-14.2,2.8-17.2,9.1c-3,6.4-1.5,14.2,3.5,18.9
		c4.9,4.6,13.5,5.4,20.5,2.1c3-1.4,5.1-3.2,4.3-6.9C568.9,147.3,569.1,146.4,569.1,145.5z M376.8,140.9c0,4.5,0.1,8.9,0,13.4
		c-0.1,1.9,0.6,2.3,2.3,2.2c5.7-0.1,11.5,0,17.2,0c4.6,0,4.5,0,4.4-4.6c0-1.3-0.4-1.7-1.7-1.6c-3.7,0.1-7.3,0-11,0
		c-4.4,0-4.4,0-4.3-4.5c0-1.4,0.4-2,1.9-1.9c2.9,0.1,5.7,0,8.6,0c4.4,0,4.3,0,4.2-4.5c0-1.3-0.4-1.8-1.8-1.8c-2.9,0.1-5.7,0-8.6,0
		c-4.6,0-4.6,0-4.4-4.6c0.1-1.3,0.5-1.6,1.7-1.6c3.5,0.1,7,0,10.5,0c4.6,0,4.5,0,4.4-4.5c0-1.4-0.5-1.7-1.8-1.7
		c-6.6,0.1-13.3,0.1-19.9,0c-1.5,0-1.9,0.4-1.9,1.9C376.8,131.7,376.8,136.3,376.8,140.9z M416.7,156.9c1.7,0.1,3.3,0,5-0.4
		c4.8-1.2,7.3-4.2,7.5-8.9c0.2-4.2-1.8-6.9-6.4-8.7c-1.3-0.5-2.7-0.9-4.1-1.3c-1.4-0.5-2.9-0.9-4.3-1.4c-1.1-0.4-1.8-1.3-1.7-2.6
		c0.1-1.3,1-1.9,2.1-2.3c2.3-0.8,4.4,0,6.5,0.9c3.7,1.7,3.7,1.7,6-1.7c0-0.1,0.1-0.1,0.1-0.2c1.1-1.2,0.6-1.8-0.6-2.6
		c-4.2-2.6-8.7-3.4-13.6-2.4c-4.9,1-7.6,4.7-7.5,9.6c0.1,4.2,2.5,6.5,6.2,7.8c2.7,0.9,5.5,1.7,8.2,2.6c1.3,0.4,2.3,1.3,2.1,2.8
		c-0.2,1.6-1.4,2.2-2.8,2.5c-2.7,0.4-5.2-0.1-7.6-1.4c-3.6-1.9-3.6-1.9-6.3,1.4c0,0.1-0.1,0.1-0.2,0.2c-1,0.8-0.8,1.5,0.2,2.2
		C408.9,155.3,412.6,156.7,416.7,156.9z M445.1,125.2c-2.8,0-5.6,0-8.4,0c-4.9,0-4.8,0-4.7,4.8c0,1.3,0.4,1.9,1.8,1.8
		c1.9-0.1,3.8,0.1,5.8-0.1c1.6-0.1,2,0.4,2,2c-0.1,6,0,12,0,17.9c0,5,0,4.9,5.1,4.9c1.6,0,2-0.5,2-2.1c-0.1-6,0-12,0-17.9
		c0-4.8,0-4.8,4.9-4.8c4.7,0,4.6,0,4.6-4.7c0-1.4-0.4-2-1.9-1.9C452.5,125.3,448.8,125.2,445.1,125.2z M463.1,140.9
		c0,4.5,0.1,9.1,0,13.6c0,1.6,0.4,2.1,2,2c5.3-0.1,10.7,0,16.1,0c4.7,0,4.7,0,4.6-4.7c0-1.4-0.4-1.9-1.8-1.7c-0.6,0.1-1.3,0-1.9,0
		c-3.9-0.2-7.8,0.3-11.7-0.3c-0.4-3.9-0.1-7.8-0.2-11.7c-0.1-2.6,0-5.3,0-7.9c0-5.3,0-5.2-5.4-5.1c-1.4,0-1.7,0.5-1.7,1.8
		C463.1,131.6,463.1,136.3,463.1,140.9z M498,140.9c0-3.6,0-7.2,0-10.7c0-5,0-5-5-5c-1.7,0-2.1,0.5-2.1,2.1c0.1,8,0,16.1,0,24.1
		c0,5.3,0,5.3,5.3,5.1c1.3,0,1.8-0.4,1.8-1.8C497.9,150.2,498,145.5,498,140.9z"/>
	<g id="Country">
		<path id="East" class="st2" d="M254.9,6c1,1.2,1.5,2.8,1.9,4.3c0.8,3,2.3,5.3,5.4,6.4c1.5,0.5,1.5,1.3,0.7,2.7
			c-3,4.7-5.7,9.6-8.7,14.3c-0.8,1.3-1.2,2.5-1,4c0.3,2.4,0.4,4.9,0.6,7.4c0.1,1-0.1,1.8-0.6,2.7c-1.9,3.3-3.7,6.7-5.7,9.9
			c-1,1.6-1.3,3.2-1.2,5c0.2,3.6,0.1,7.2,0.3,10.7c0.1,1.4-0.4,2.3-1.5,3c-2.4,1.4-2.4,3-0.8,5.1c1.2,1.6,2,3.7,3.1,5.4
			c0.9,1.4,0.7,2.3-0.2,3.6c-6.2,9.4-12.2,18.9-18.4,28.2c-1,1.5-1.1,2.6-0.1,4.2c4.8,7.9,9.7,15.7,13.6,24.1c0.6,1.2,0.7,2.1,0,3.3
			c-1.3,2.3-2.5,4.8-3.8,7.3c-3.7-3.2-7.2-6.2-10.6-9.2c-0.5-0.4-0.8-1.2-1.1-1.8c-1.9-4-3.8-7.9-5.6-11.9c-0.5-1.1-1.1-1.5-2.4-1.4
			c-9.3,0.7-18.6,1.4-28.2,2c1,2.5,1.9,4.9,2.9,7.3c-9.1,1.4-18.1,1.3-27,0c-2-0.3-3.4,0.1-4.9,1.5c-4.1,3.7-8.3,7.3-12.5,10.8
			c-1.1,1-1.4,1.8-0.9,3.3c1.3,3.9,2.5,7.9,3.8,12c-2.5-0.1-4.6-1-6.8-1.5c-3.2-0.7-6.3-1.7-9.5-2.4c-1.5-0.3-2.4-1.1-3.2-2.5
			c-2.7-4.7-5.5-9.3-8.2-14c-1.5-2.6-3.1-2.9-5.6-1c-1.7,1.3-3.5,2.6-5.1,4c-0.9,0.7-1.4,0.7-2.2-0.2c-1.8-2.1-3.8-4.1-5.7-6.2
			c-0.5-0.5-0.8-1.1-0.7-1.9c0.6-2.6,1-5.1,1.6-7.7c0.4-2,2.4-3,3.3-4.8c1.7-3.5,1.9-3.4,5.6-2.3c3.1,0.9,3.1,0.9,6.3,5.4
			c2.3-4.1,1.4-8.2-2.1-11.5c-5.4-5.1-11.2-9.4-17.7-12.9c-1.7-0.9-1.5-1.6-0.2-2.6c0.4-0.3,0.8-0.6,1.1-0.9c2.3-2.8,5.1-4,8.8-3.5
			c2.9,0.4,4.9-1.6,7.2-2.9c1.4-0.8,2.5-1,4-0.4c2.7,1.1,5.4,1.9,8.1,3c2.6,1.1,5.3,1.8,8.1,1.2c1.3-0.3,2.1,0.3,2.6,1.5
			c0.2,0.4,0.5,0.7,0.6,1c1.3,4.5,5,5.2,8.8,6.1c0.7,0.2,1.2,0,1.7-0.5c0.8-0.9,1.6-1.8,2.6-2.5c3.3-2.2,3.8-5.1,2.5-8.7
			c-0.3-0.8-0.5-1.7-0.6-2.6c-0.2-1.5-0.5-2.6-2.4-2.5c-0.6,0-1.3-0.6-1.8-1c-1.5-1.1-2.9-2.1-5-1.3c-0.9,0.3-5.3-2.7-5.5-3.7
			c-0.2-1-0.3-2,1.3-2.1c4.3-0.3,8.6-0.9,12.9-1.2c2.4-0.2,3.6,1.3,4.2,3.3c2.3,7.6,4.7,15.2,7.6,22.6c2.6,6.6,9.4,10.7,16.9,9.6
			c-1.6-0.9-2.8-2-4.2-2.5c-4.1-1.5-5.6-4.9-6.7-8.6c-0.5-1.8-1-3.6-2-5.1c-1.9-3-2.3-6.1-1.5-9.5c1.4-5.6-0.7-10.5-3.5-15.1
			c-0.9-1.6-1.1-2.2,1-2.5c3.6-0.6,6.9-1.8,9.1-5c1.5-2.2,1.7-7.7,0.1-9.7c-3.3-4-7.3-4.7-11.8-2.1c-1,0.6-2.1,1.2-3.5,2
			c-0.2-5-3.5-7.7-6.9-10.3c-4.3-3.3-5-8.1-5.5-13c-0.3-3.1-0.5-6.2-0.9-9.3c-0.1-1.2,0.2-1.7,1.5-1.7c8.9,0.2,17.9-0.2,26.7,1.7
			c1.5,0.3,1.7,0.8,1.4,2.1c-0.9,5-0.8,5,4.1,3.6c0.7-0.2,1.4-0.4,2.8-0.8c-3.4,6.1-1.7,12-0.7,18.5c1.2-2.7,2.3-4.9,3.2-7.1
			c0.6-1.5,1.5-2.7,3-3.6c2.7-1.6,5.3-3.3,7.8-5.2c1.6-1.2,2.2-0.8,2.8,0.9c0.7,2.1,1.7,4.1,2.5,6.2c0.4,1,0.9,1.5,2.1,1.3
			c3.8-0.8,7.7-1.5,11.5-2.3c0.9-0.2,1.6-0.8,2.2-1.3c6.6-5.4,13.2-10.8,19.9-16.2c0.7-0.5,1.3-1,1.6-2c1.8-6.3,3.8-12.6,5.6-19
			c0.1-0.3,0-0.6,0-0.9C249.8,6,252.4,6,254.9,6z"/>
		<path id="West" class="st3" d="M79.3,34.8c0,4,0,7.9,0,11.9c0,1.1,0.4,1.7,1.3,1.9c5.2,1.2,8,4.8,9.6,9.5c0.7,2,1.8,2.7,3.9,2.2
			c4.5-1.1,8.2-0.1,10.9,4c1.1,1.7,2.8,3.1,4.7,3.9c4.9,2,6.2,6.7,8.7,10.6c0.4,0.6,0.3,1-0.4,1.3c-0.6,0.2-1.2,0.4-1.8,0.6
			c-5.2,1.4-10,3.4-13.9,7.4c-2.1,2.2-5.4,2.1-8.2,3c-1.5,0.5-2.5,1.1-3.3,2.4c-1.6,2.5-3.4,5-5.1,7.5c-1.5,2-1.2,3.9-0.3,6
			c1.7,3.8,4.3,6.5,8.1,8.3c4.2,2,7.7,5.1,11.3,8c1.7,1.3,2.2,4.7,1,6.5c-1.4,2.1-2.9,4-2.4,6.7c0.2,1-0.4,1.2-1.2,1.3
			c-6.8,0.6-13.7,1.7-20.5,1.5c-5.1-0.2-10.1-2-15.2-3.2c-8.7-2-17.4-4.1-26.1-6.1c-1.1-0.3-2.1-0.7-3-1.4
			c-5.6-4.5-11.3-8.9-16.9-13.3c-1.1-0.9-1.8-1.9-2.2-3.3C14.6,98.9,10.8,85.7,7,72.6c-0.4-1.4-0.4-2.7,0.1-4.1
			c3.1-8,5.9-16.1,9.2-24.1c1.4-3.3,1.6-6.5,1.1-10c-0.5-3.3-0.8-6.6-1.3-9.9c-0.3-2.1,0.4-2.4,2.4-2.5c8.6-0.3,17,1.1,25.5,2
			c14.8,1.6,29.5,3.4,44.3,4.9c5.2,0.5,10.5,0.1,15.8,0.2c13,0.1,26,0.3,39,0.3c2.2,0,2.3,0.9,1.9,2.5c-1,5-1.6,10-1.4,15.2
			c0.1,1.7,0.4,3.2,1.4,4.6c2.2,3.4,5.1,6.5,6.3,10.6c0.6,2,0,3.2-1.8,4c-2.4,1-4.9,1.9-7.4,2.8c-0.8,0.3-1.4,0.4-2.1-0.4
			c-1.7-2.1-4-2.7-6.7-1.6c-1.4,0.5-2.3,0.3-3.5-0.4c-5.2-3.3-10.4-6.5-15.3-10.3c-0.7-0.5-1.4-1-2.3-1.2c-6.5-1.3-12.5-4.4-19-5.6
			c-0.8-0.1-1.3-0.6-1.8-1.1c-1.2-1.1-2.4-2.1-3.6-3.2c-3.4-3-7.1-5.7-7.8-10.8C79.9,34.6,79.6,34.7,79.3,34.8z"/>
	</g>
	<g id="USA">
		<g id="A_00000093869192733096783410000017383972741572001185_">
			<path id="Inner_A" class="st1" d="M519,53.9c1,2.5,1.8,4.7,2.7,6.8c2.2,5.6,4.4,11.2,6.7,16.8c0.6,1.5,0.4,1.9-1.3,1.9
				c-6-0.1-11.9,0-18.2,0C512.3,70.8,515.5,62.6,519,53.9z"/>
			<path id="A" class="st2" d="M570.4,115.6c-0.6-0.5-1.2-0.2-1.8-0.2c-7.7,0-15.5-0.1-23.2,0c-1.7,0-2.6-0.4-3.2-2
				c-1.6-4.2-3.4-8.4-5.1-12.6c-0.5-1.2-1.1-1.7-2.4-1.7c-10.5,0.1-21.1,0.1-31.6,0c-1.4,0-1.9,0.6-2.4,1.8c-1.6,4.2-3.4,8.4-5,12.6
				c-0.5,1.4-1.2,2-2.7,1.9c-7.6-0.1-15.2-0.1-22.8,0c-1.8,0-1.9-0.4-1.3-2c12.5-29.3,24.9-58.7,37.3-88c0.5-1.3,1.2-1.8,2.6-1.8
				c6.9,0.1,13.9,0.1,20.8,0c1.5,0,2,0.5,2.6,1.8c12.2,29,24.5,58,36.8,86.9c0.3,0.8,0.3,1.9,1.4,2.3
				C570.4,115,570.4,115.3,570.4,115.6z M519,53.9c-3.5,8.7-6.7,16.9-10.1,25.5c6.3,0,12.2,0,18.2,0c1.6,0,1.9-0.4,1.3-1.9
				c-2.3-5.6-4.4-11.2-6.7-16.8C520.9,58.5,520,56.4,519,53.9z"/>
		</g>
		<path id="S_00000093877958742409566940000007718879592745354925_" class="st2" d="M425.9,22.8c12.8,0,24.8,3,35.3,10.7
			c1.5,1.1,1.5,1.7,0.5,3.1c-3.5,4.7-6.9,9.5-10.2,14.4c-1.1,1.6-1.7,1.4-3.2,0.5c-7.4-4.8-15.4-7.9-24.5-7.8c-1.7,0-3.3,0.3-4.9,1
			c-1.9,0.9-3.2,2.3-3.4,4.5c-0.2,2.2,0.9,3.8,2.7,5c2.3,1.4,4.9,2.2,7.6,2.9c6.5,1.7,13.1,2.8,19.4,5.2c0.7,0.3,1.3,0.5,2,0.8
			c12.9,5.2,18.4,12.7,18.1,25.1c-0.2,11.8-7.2,21.9-19.2,25.6c-21.5,6.6-41.4,2.6-59.3-11c-1.1-0.8-1.1-1.4-0.2-2.4
			c3.9-4.5,7.8-9.1,11.5-13.8c1.2-1.5,1.9-1.7,3.5-0.5c8.3,6.3,17.7,9.7,28.2,9.6c2.2,0,4.3-0.3,6.3-1.2c2-0.9,3.3-2.4,3.5-4.7
			c0.1-2.4-1-4-2.9-5c-4.6-2.5-9.8-3.4-14.8-4.6c-5.6-1.4-11-3-16.4-5.2c-21.5-8.6-18.6-35.2-5.1-45c6.8-4.9,14.4-6.9,22.6-7.3
			C424,22.8,425,22.8,425.9,22.8z"/>
		<path id="U" class="st2" d="M292.7,55.3c0-10.9,0-19.9,0-28.9c0-1.7,0.5-2.1,2.2-2.1c7.1,0.1,14.2,0.1,21.3,0c2,0,2.4,0.6,2.3,2.4
			c-0.1,15.9,0,31.9,0,47.8c0,3,0.3,6,1.2,9c2.4,7.5,8.3,11.1,17.2,10.7c7.6-0.4,12.9-4.9,14.4-12.3c0.4-2,0.6-3.9,0.6-5.9
			c0-16.4,0-32.8-0.1-49.3c0-1.9,0.5-2.4,2.4-2.4c7.1,0.1,14.2,0.1,21.3,0c1.6,0,2.2,0.3,2.2,2c-0.1,17.1,0.1,34.1-0.1,51.2
			c-0.1,8.9-2.1,17.4-7.4,24.8c-5.6,7.8-13.6,11.9-22.8,13.7c-9,1.7-18.1,1.7-27.1-0.5c-15.4-3.8-25.2-15.1-27-31
			C292.1,74.1,293.1,63.7,292.7,55.3z"/>
	</g>
	<g id="Wrestling_Text">
		<path id="G" class="st3" d="M569.1,145.5c0,0.9-0.1,1.8,0,2.6c0.7,3.7-1.3,5.4-4.3,6.9c-6.9,3.3-15.5,2.5-20.5-2.1
			c-5-4.7-6.5-12.6-3.5-18.9c3-6.4,9.9-10,17.2-9.1c3.2,0.4,6.2,1.3,8.9,3.3c0.8,0.6,1.4,1.2,0.3,2c-0.2,0.1-0.3,0.4-0.4,0.6
			c-0.9,1.1-1.6,2.6-2.8,3.2c-1.4,0.6-2.3-1.2-3.6-1.7c-4.4-1.9-9-0.9-11.7,2.6c-2.8,3.7-2.7,9.2,0.2,12.7c2.8,3.3,8.2,4.2,12.3,2.2
			c2-1,1.2-2.8,1.1-4.2c-0.1-1.5-1.5-0.6-2.3-0.8c-0.5-0.1-1.1-0.1-1.7,0c-2.3,0.4-3-0.5-2.9-2.8c0.2-3.2,0.1-3.3,3.3-3.3
			c2.7,0,5.4,0.1,8.1,0c1.9-0.1,2.3,0.6,2.2,2.3C569,142.3,569.1,143.9,569.1,145.5z"/>
		<path id="N" class="st3" d="M526.4,144.1c0-6,0.1-11.2,0-16.5c0-1.8,0.3-2.5,2.3-2.5c4.8,0.1,4.8,0,4.8,4.7c0,8.1-0.1,16.3,0,24.4
			c0,1.8-0.5,2.1-2.3,2.3c-2.8,0.2-4.5-0.8-6.1-3c-3.8-5.4-8-10.5-12-15.8c-1,0.5-0.6,1.3-0.6,2c0,4.9-0.1,9.9,0,14.8
			c0,1.6-0.5,2-2,2c-4.9,0-4.9,0.1-4.9-4.8c0-8.1,0-16.3,0-24.4c0-1.7,0.5-2,2.1-2.2c3.1-0.3,5.1,0.8,6.9,3.4
			C518.2,133.7,522.1,138.6,526.4,144.1z"/>
		<path id="I" class="st3" d="M498,140.9c0,4.6,0,9.2,0,13.8c0,1.4-0.4,1.7-1.8,1.8c-5.3,0.1-5.3,0.2-5.3-5.1c0-8,0-16.1,0-24.1
			c0-1.7,0.4-2.2,2.1-2.1c5,0,5,0,5,5C498,133.8,498,137.4,498,140.9z"/>
		<path id="L" class="st3" d="M463.1,140.9c0-4.6,0-9.2,0-13.9c0-1.3,0.3-1.8,1.7-1.8c5.4-0.1,5.4-0.2,5.4,5.1c0,2.6,0,5.3,0,7.9
			c0.1,3.9-0.2,7.8,0.2,11.7c3.9,0.6,7.8,0.1,11.7,0.3c0.6,0,1.3,0.1,1.9,0c1.4-0.2,1.8,0.4,1.8,1.7c0.1,4.7,0.1,4.7-4.6,4.7
			c-5.4,0-10.7-0.1-16.1,0c-1.6,0-2-0.5-2-2C463.2,150,463.1,145.4,463.1,140.9z"/>
		<path id="T" class="st3" d="M445.1,125.2c3.7,0,7.4,0.1,11,0c1.5,0,1.9,0.5,1.9,1.9c0,4.7,0.1,4.7-4.6,4.7c-4.9,0-4.9,0-4.9,4.8
			c0,6-0.1,12,0,17.9c0,1.5-0.4,2.1-2,2.1c-5.1,0-5.1,0.1-5.1-4.9c0-6-0.1-12,0-17.9c0-1.6-0.4-2.1-2-2c-1.9,0.1-3.8-0.1-5.8,0.1
			c-1.4,0.1-1.7-0.5-1.8-1.8c-0.1-4.8-0.2-4.8,4.7-4.8C439.5,125.2,442.3,125.2,445.1,125.2z"/>
		<path id="S" class="st3" d="M416.7,156.9c-4.1-0.2-7.8-1.5-11.1-4c-1-0.7-1.2-1.4-0.2-2.2c0.1-0.1,0.1-0.1,0.2-0.2
			c2.6-3.3,2.7-3.3,6.3-1.4c2.4,1.3,4.9,1.9,7.6,1.4c1.5-0.2,2.6-0.9,2.8-2.5c0.2-1.5-0.8-2.4-2.1-2.8c-2.7-0.9-5.5-1.7-8.2-2.6
			c-3.7-1.3-6.1-3.6-6.2-7.8c-0.1-4.9,2.6-8.7,7.5-9.6c4.8-1,9.3-0.1,13.6,2.4c1.2,0.7,1.7,1.4,0.6,2.6c-0.1,0.1-0.1,0.1-0.1,0.2
			c-2.3,3.4-2.3,3.4-6,1.7c-2.1-0.9-4.2-1.7-6.5-0.9c-1.2,0.4-2,1-2.1,2.3c-0.1,1.3,0.6,2.1,1.7,2.6c1.4,0.5,2.9,1,4.3,1.4
			c1.4,0.4,2.8,0.8,4.1,1.3c4.6,1.8,6.7,4.5,6.4,8.7c-0.2,4.7-2.8,7.7-7.5,8.9C420,156.9,418.4,157,416.7,156.9z"/>
		<path id="E" class="st3" d="M376.8,140.9c0-4.6,0.1-9.2,0-13.9c0-1.5,0.4-1.9,1.9-1.9c6.6,0.1,13.3,0.1,19.9,0
			c1.3,0,1.8,0.3,1.8,1.7c0.1,4.5,0.2,4.5-4.4,4.5c-3.5,0-7,0-10.5,0c-1.2,0-1.6,0.4-1.7,1.6c-0.2,4.6-0.3,4.6,4.4,4.6
			c2.9,0,5.7,0.1,8.6,0c1.4,0,1.7,0.4,1.8,1.8c0.1,4.5,0.1,4.5-4.2,4.5c-2.9,0-5.8,0.1-8.6,0c-1.5-0.1-1.9,0.5-1.9,1.9
			c-0.1,4.5-0.1,4.5,4.3,4.5c3.7,0,7.3,0,11,0c1.2,0,1.6,0.4,1.7,1.6c0.2,4.6,0.2,4.6-4.4,4.6c-5.7,0-11.5-0.1-17.2,0
			c-1.7,0-2.4-0.4-2.3-2.2C376.9,149.9,376.8,145.4,376.8,140.9z"/>
		<g id="R_00000025429188112785712920000011581785808242035391_">
			<path id="R" class="st3" d="M364.2,145.5c1.3,1.9,2.5,3.6,3.7,5.4c1.2,1.7,2.3,3.4,3.8,5.6c-2.8,0-5.2,0-7.6,0
				c-0.9,0-1.1-0.8-1.5-1.4c-1.6-2.3-3.1-4.6-4.7-7c-0.9-1.3-4.4-2.2-5.7-1.5c-0.7,0.3-0.5,0.9-0.5,1.5c0,2.2,0,4.5,0,6.7
				c0,0.6,0.3,1.5-0.6,1.6c-2,0.1-4,0.1-6,0c-0.8,0-0.5-0.9-0.5-1.4c0-9.5,0-19,0-28.5c0-1,0.3-1.4,1.4-1.4
				c5.2,0.2,10.4-0.4,15.6,0.3c5,0.7,8.2,3.4,9,7.6c1,5.4-0.8,9.3-5.4,11.8C364.8,145.1,364.6,145.2,364.2,145.5z M356,140.5
				c1.3-0.1,2.7,0,4-0.2c2.4-0.5,3.7-2.1,3.7-4.3c0-2.2-1.4-3.7-3.8-4.1c-1.2-0.2-2.4-0.2-3.6-0.2c-4.6,0-4.6,0-4.6,4.6
				C351.7,140.4,351.7,140.4,356,140.5z"/>
			<path id="Inner_R" class="st1" d="M356,140.5c-4.3-0.1-4.3-0.1-4.3-4.3c0-4.6,0-4.6,4.6-4.6c1.2,0,2.4,0,3.6,0.2
				c2.5,0.4,3.8,1.9,3.8,4.1c0,2.2-1.3,3.8-3.7,4.3C358.7,140.4,357.3,140.4,356,140.5z"/>
		</g>
		<path id="W" class="st3" d="M316,136.6c-2.2,6.4-4.3,12.3-6.3,18.1c-0.5,1.6-1.2,2-2.9,2c-3.9-0.1-3.9,0-5.2-3.7
			c-2.9-8.7-5.9-17.3-8.9-26c-0.2-0.5-0.3-1.1-0.5-1.9c2.2,0,4.3,0.1,6.3,0c1.4-0.1,1.4,1,1.7,1.9c1.9,6.1,3.7,12.1,5.6,18.2
			c1-0.5,1-1.4,1.2-2.1c1.8-5.3,3.6-10.7,5.3-16.1c0.4-1.4,1.1-2,2.6-2c4,0.1,4,0,5.2,3.7c1.7,5,3.4,10.1,5.1,15.2
			c0.2,0.5,0.3,1.1,0.9,1.5c1.8-6,3.7-12,5.5-18c0.5-1.7,1.2-2.4,3.1-2.4c5.1,0.1,5.1,0,3.4,4.9c-2.8,8.2-5.7,16.4-8.4,24.6
			c-0.5,1.6-1.3,2.4-3,2.1c-0.6-0.1-1.3-0.1-1.9,0c-1.4,0.2-2.1-0.3-2.5-1.8C320.4,149,318.3,143.1,316,136.6z"/>
	</g>
</g>
</svg>
