<?xml version="1.0" encoding="utf-8"?>
<!-- Generator: Adobe Illustrator 16.0.0, SVG Export Plug-In . SVG Version: 6.00 Build 0)  -->
<!DOCTYPE svg PUBLIC "-//W3C//DTD SVG 1.1//EN" "http://www.w3.org/Graphics/SVG/1.1/DTD/svg11.dtd">
<svg version="1.1" id="Layer_1" xmlns="http://www.w3.org/2000/svg" xmlns:xlink="http://www.w3.org/1999/xlink" x="0px" y="0px"
	 width="681px" height="681px" viewBox="0 0 681 681" enable-background="new 0 0 681 681" xml:space="preserve">
<g id="BD-Head-Right">
	<rect x="0.5" y="0.5" display="none" fill="#663333" stroke="#000000" stroke-miterlimit="10" width="680" height="680"/>
	<path id="Chin_1_" fill="#999999" d="M581.516,510.143c-6.694,6.406-12.857,13.41-20.889,18.297
		c-36.994,22.463-77.113,32.15-119.919,25.799c-33.883-5.041-66.472-14.932-94.46-36.264
		c-15.011-11.442-27.748-25.139-40.418-38.958c0,0,0.039,0.05,0.039,0.046c-3.321-6.444-9.272-11.437-11.476-19.433
		c22.813,2.493,44.733,4.788,66.732,0.889c-6.956-1.847-13.968-2.799-20.983-3.706c-14.31-1.839-29.193-1.5-42.555-7.388
		c-20.744-9.138-29.808-22.235-18.995-44.381c9.296-19.052,21.606-36.115,33.579-53.433c0.286-0.415,1.026-0.524,2.785-1.375
		c-5.852,18.083-5.669,35.371-2.063,53.068c-6.219-0.404-10.357-4.928-16.079-4.632c0.024,2.112,1.128,2.8,2.595,3.18l-0.031-0.039
		c2.715,3.032,6.451,4.449,9.986,6.082c47.848,22.065,97.491,26.257,148.547,14.183c33.16-7.844,65.484-17.539,86.604-48.029
		c16.565,0.5,31.288-5.447,45.146-16.504c1.513,14.863-3.944,25.961-10.329,36.792l0.035-0.039
		c-10.143,13.312-23.463,23.151-36.51,33.29l0.035-0.046c-3.807,2.743-6.596,4.28-10.756,6.48l0.035-0.042
		c-9.771,5.182-19.541,10.363-29.307,15.539c31.027-7.23,55.906-25.534,81.258-44.494c5.563,12.832,11.841,24.984,13.741,38.808
		c3.341,24.304-2.214,46.377-16.386,66.345L581.516,510.143z"/>
	<path id="Cheek_1_" fill="#999999" d="M606.189,333.168c-0.381,1.368-0.409,3.002-1.202,4.075
		c-7.343,9.984-7.097,21.368-6.712,32.951c0.26,7.806-2.926,14.962-5.938,21.841c13.658,27.596,19.231,31.044,16.75,85.296
		c14.277-9.79,26.214-20.785,33.674-36.223c5.895-12.185,6.772-24.396,2.937-37.408c-6.433-21.843-17.669-41.278-29.235-60.587
		c-2.461-4.115-4.875-8.25-7.157-12.096c-2.218-0.293-2.267,1.438-3.144,2.189L606.189,333.168z"/>
	<path id="Face_4_" fill="#999999" d="M549.297,321.326c-3.826,3.553-7.714,3.367-12.216,0.93
		c-11.083-6.006-23.175-7.398-35.134-7.558c-1.953,2.725,0.832,4.206,0.293,6.151c-4.734,4.523-18.98,2.74-24.883-3.127
		c-4.502-4.477-3.691-9.73,2.676-16.249c6.152-6.307,13.225-11.401,20.97-15.568l-0.028,0.043
		c7.664-4.833,15.325-9.67,24.555-15.494c-11.324-0.571-20.924,1.128-30.604,1.847c-10.305,0.758-18.772,6.279-28.81,8.464
		c2.608-2.32,5.229-4.639,7.844-6.962c-0.539-0.786-1.076-1.576-1.615-2.366c-6.842,6.053-14.268,11.116-23.803,15.406
		c6.758,2.454,12.854,0.719,19.637,5.662c-24.004,1.872-44.846,8.313-65.523,18.078c1.824-4.351,2.027-4.502,9.109-7.47
		c3.551-1.492,7.115-2.976,10.457-4.971c-15.924,4.619-30.579,12.272-45.65,18.921c-0.366-0.366-0.74-0.733-1.109-1.097
		c2.753-2.83,13.393-9.458,15.944-11.535c1.192,0.599-16.358-6.469-27.487-17.606c-10.15-10.17-14.828-23.825,2.619-36.294
		c-1.457,3.97-2.485,6.776-3.518,9.582c-3.822,10.414-2.205,17.211,6.028,24.491c8.309,7.357,18.187,12.363,28.601,15.318
		c6.791,1.921,13.273-3.335,20.031-5.655c-13.347-2.461-26.316-11.986-32.947-18.763c-8.201-8.369-9.491-20.066-8.966-32.169
		c-14.404-1.294-28.259-0.395-42.075,1.854l0.035,0.004c13.484-7.185,28.379-6.318,43.049-7.383
		c-12.65-3.962-25.592-5.443-38.564-6.793c21.836-1.459,43.15,1.607,64.078,7.572c12.166,3.469,24.197,7.379,36.3,11.087
		l0.335-0.063l0.08-0.342c-16.818-10.749-35.291-17.722-54.223-23.613c-3.734-1.167-7.566-2.055-11.35-3.071l-0.045,0.046
		c32.123,2.845,77.623,23.363,104.457,47.106c21.495-9.296,29.797-27.77,27.175-60.464c4.423,5.355,6.69,18.836,4.808,27.783
		c-2.041,9.716-5.217,18.889-12.677,26.176c9.585,3.871,19.795-0.754,23.401-10.164c3.977-10.364,8.235-20.567,14.701-29.68
		c3.236-4.559,6.905-8.578,15.258-10.517c-11.726,10.541-19.846,20.948-24.47,33.604c0.832,0.775,1.663,1.551,2.499,2.33
		c2.514-3.325,4.637-7.065,7.625-9.889c7.521-7.083,14.893-14.521,25.32-17.43c3.059-0.856,5.982-1.237,7.869,2.916
		c-4.918,0.648-10.94-1.156-12.555,5.764l-0.035-0.042c4.971,1.827,6.921,5.817,7.325,10.693c0.589,6.994-0.733,13.724-3.239,20.246
		l0.078,0.338l0.345,0.092c8.429-8.02,16.245-16.542,22.366-26.528c1.787-2.934,1.924-5.542,0.349-8.518
		c-12.194-23.123-29.226-41.349-53.435-52.014c-12.223-5.394-24.287-11.274-37.207-15.188c10.541-0.159,20.57,2.708,31.172,5.82
		C508.359,138.174,376.134,94.9,332.51,101.8c-1.48,4.484-2.771,9.275-4.65,13.823c-1.867,4.537-3.785,9.145-8.023,13.707
		c0.525-4.537,0.787-8.031,1.33-11.482c7.664-49.102-34.778-72.327-71.703-68.696c-21.865,2.147-40.797,10.989-58.293,23.74
		c-7.875,5.743-15.554,11.785-24.195,16.643c7.672,0.783,14.589-2.45,21.865-3.088l-0.043-0.057
		c-13.004,9.311-28.545,10.604-43.506,13.738c-3.646,0.769-7.39,1.407-10.865,2.715c-5.82,2.203-6.381,6.434-1.495,10.417
		c5.397,4.407,11.859,6.441,18.593,7.713c20.966,3.97,41.106,0.004,61.166-5.94c18.427-5.461,35.898-14.571,55.395-15.942
		c13.738-0.97,26.973,1.29,38.804,12.938c-5.493-2.859-9.24-5.136-13.228-6.804c-4.068-1.699-8.348-3.007-12.701-2.605
		c-1.221,1.354-0.139,2.189,0.176,3.127l-0.035-0.036c6.92,3.719,10.544,9.572,10.262,17.366c-0.268,7.604-4.98,12.212-11.57,15.329
		c-9.381,4.432-18.283,9.97-28.912,11.433c5.426-2.553,18.051-9.825,18.441-9.808l-0.031,0.039
		c-0.367-0.021-24.914-7.89-35.395-15.054l0.042,0.046c-2.982-2.232-5.962-4.456-9.159-6.854
		c-6.057,2.171-12.011,4.308-19.386,6.952c7.093,3.451,12.987,6.25,17.771,10.759c4.767,4.484,9.776,8.768,11.087,16.538
		c-5.055-2.835-8.207-7.28-13.537-8.898c-18.805,38.603-66.358,109.114-67.635,114.413c6.861-3.25,38.138-32.437,44.378-36.425
		l-0.032,0.039c4.604-4.244,9.216-8.485,13.827-12.727l0.303-0.296c7.464-7.442,14.927-14.888,22.386-22.33
		c0-0.007-0.038-0.042-0.038-0.042c-9.812,18.456-24.466,32.79-39.957,46.292c-14.373,12.536-29.116,24.667-43.901,36.73
		c-9.18,7.492-17.162,16.069-24.487,25.319l0.042-0.039c-11.02,16.901-17.814,35.226-19.714,55.458
		c-2.073,22.033,3.69,42.576,11.57,62.607c25.634,65.125,69.965,90.018,134.812,112.693c30.752,10.752,62.762,14.895,95.076,17.214
		c3.693,0.261,7.424,0.032,13.146,0.032c-23.743-16.044-46.673-30.279-61.173-53.858"/>
	<path id="Face_1_" fill="#999999" d="M299.35,488.687c-7.402-9.927-13.879-20.353-17.633-32.402
		c-0.504-0.384-1.002-0.972-1.629-1.223c-17.836-6.874-20.381-20.878-14.369-37.891c4.941-13.947,13.59-25.856,21.832-37.952
		c0.363,0.357,0.723,0.721,1.078,1.073l-0.035,0.046c-0.366-0.359-0.726-0.72-1.082-1.076c5.204-8.267,10.862-16.209,17.201-23.638
		c0.355,0.359,0.723,0.712,1.082,1.075l-0.039,0.031c-0.356-0.359-0.723-0.708-1.082-1.07c4.748-5.998,9.501-11.983,14.246-17.98
		c0.018-0.419-0.18-0.613-0.6-0.592c-2.482,1.679-4.961,3.352-8.397,5.697c1.044-7.146,5.408-10.563,10.322-13.267
		c4.523-2.492,9.272-5.2,14.151-2.806c1.389,3.26-1.572,3.817-1.537,6.077c22.548,16.009,48.771,24.822,74.033,35.802
		c-5.655-5.564-11.775-10.43-16.598-16.609c-7.844-10.051-5.803-22.82,4.526-28.481l-0.046-0.039
		c-8.989,13.33-7.943,20.701,4.407,31.341c8.276,9.074,58.74,35.117,90.415,37.154c28.316,1.815,60.746-15.332,62.223-56.459
		c0.029-0.643,0.308-1.279,0.885-3.617c4.16,14.289-1.311,25.471-5.573,36.938c5.288,2.176,9.688,0.159,13.687-1.776
		c19.689-9.525,31.717-25.658,37.623-46.281c2.139-7.491,0.437-15.367-3.233-22.344c-1.935-3.67-5.222-6.282-10.069-6.695
		c-9.955,12.195-21.733,22.377-35.888,29.642"/>
	<g id="Forehead_1_">
		<path id="forehead-accent_5_" d="M301.567,162.443c-1.082,0.726-2.168,1.456-3.25,2.186l0.035-0.039
			c-1.371,1.128-2.722,2.281-4.11,3.388c-8.655,6.903-17.549,13.601-22.654,23.87c-4.911,9.878-3.74,17.313,4.773,24.336
			c5.475,4.512,11.803,7.989,17.637,12.089c2.328,1.635,5.423,2.827,5.719,7.628c-6.642-0.744-11.612-4.019-16.523-7.216
			c-24.871-16.213-26.521-33.565-5.256-54.415l0.024-0.032c14.172-9.762,28.615-19.016,45.055-24.625l-0.046-0.045
			c-7.146,4.301-14.296,8.612-21.441,12.913L301.567,162.443z M283.289,225.752c-0.359-0.36-0.727-0.719-1.086-1.075
			s-0.716-0.719-1.068-1.075c-0.367-0.36-0.72-0.716-1.079-1.072l0.042-0.046c0.359,0.36,0.717,0.715,1.072,1.075
			c0.363,0.36,0.719,0.719,1.078,1.075c0.354,0.356,0.717,0.723,1.08,1.083L283.289,225.752z M275.779,220.39l0.039-0.031
			L275.779,220.39z M271.489,217.175l0.038-0.042L271.489,217.175z"/>
		<path id="forehead-accent_4_" d="M473.145,178.52c8.355,8.771,15.213,18.779,23.994,27.703
			c-1.552-7.781-3.115-15.568-4.667-23.356l-0.05,0.042c4.297,11.609,7.385,23.384,6.574,36.015
			c-3.377-0.166-3.902-1.498-4.406-2.855l0.043,0.046c-9.043-14.327-18.402-28.415-30.09-40.795c0.373-0.36,0.74-0.73,1.111-1.097
			c0.002-0.003,0.041,0.042,0.041,0.042c-0.369,0.367-0.74,0.73-1.107,1.096c-6.944-7.195-14.722-13.245-23.352-18.388
			c-11.729-6.995-23.33-14.211-35.574-20.31l-0.039,0.046c26.119,8.151,50.019,19.883,67.561,41.86L473.145,178.52z
			 M481.726,191.425c-0.366-0.355-0.729-0.712-1.093-1.075l0.049-0.042c0.354,0.363,0.721,0.719,1.079,1.086L481.726,191.425z"/>
		<path id="forehead-accent_3_" d="M475.281,257.89l0.063,0.063c0.847,0.642,1.64,1.368,2.552,1.9
			c0.381,0.226,1.002,0.039,2.535,0.039c-3.158-7.029-35.211-37.686-47.49-46.63c-21.329-15.54-44.166-28.757-69.467-37.073
			c-2.359-0.783-4.803-1.29-7.211-1.921l0.054-0.063c22.364,8.687,43.19,20.218,62.748,34.063c4.505,3.187,8.858,6.585,13.284,9.889
			"/>
	</g>
	<g id="Ears_1_">
		<path id="ear_1_" fill="#999999" d="M467.84,111.149c-1.277,1.682-2.561,3.37-4.287,5.644
			c19.66,10.746,40.396,19.048,57.873,32.945l-0.014-0.018c0.38,0.384,0.754,0.758,1.131,1.135l-0.018-0.01
			c0.712,0.359,1.42,0.712,2.133,1.068l-0.018-0.01c4.096,3.081,7.291,7.339,12.067,9.479
			c15.265-16.854,18.567-18.889,31.333-18.886c-4.583,3.166-10.713,3.113-13.044,8.578c13.069,5.017,43.331-2.404,51.188-13.115
			c5.197-7.075,11.521-14.366,7.137-25.058c-8.853,1.241-17.239,2.319-25.842,1.903c-17.609-0.856-33.776-7.297-50.486-11.718
			c-12.333-3.271-24.922-4.527-37.694-4.1c-11.973,0.398-21.96,5.669-31.506,12.205C467.794,111.185,467.84,111.149,467.84,111.149z
			"/>
		<path id="ear-inner_1_" fill="#CCCCCC" d="M230.104,115.545c12.685,8.76,23.469,16.95,37.271,19.358
			c3.951,0.694,7.83-0.074,11.434-1.89c8.199-4.139,9.782-12.713,3.475-19.273c-7.117-7.403-15.021-11.669-25.73-7.34
			C248.5,109.654,240.135,112.115,230.104,115.545z"/>
	</g>
	<g id="Eyes_1_">
		<g id="iris_3_">
			<path id="iris_5_" fill="#FFFFFF" d="M411.768,249.768c2.908,13.925-1.551,18.582-20.816,21.723
				c4.826,7.083,17.365,8.133,25.185,2.129c7.47-5.743,7.96-14.556,1.308-21.988c-1.432-1.597-3.117-2.292-5.154-2.376
				C412.113,249.422,411.94,249.598,411.768,249.768z"/>
			<path id="iris_4_" fill="#FFFFFF" d="M538.27,246.845c-2.486,0.769-3.871,2.281-4.84,4.079c0.934,3.363,1.814,6.575,2.75,9.934
				c2.301,1.562,4.324,1.259,5.506-1.441C543.903,254.318,542.331,250.211,538.27,246.845z"/>
		</g>
		<path id="eye-accent_1_" d="M356.754,255.595c-17.846-7.097-35.896-5.024-53.917-2.902c6.198,0,12.413-0.268,18.593,0.078
			c6.166,0.342,12.304,1.304,20.955,2.281c-7.191,3.931-12.766,6.25-16.552,11.017c-3.983,5.021-4.978,10.238-1.601,18.046
			C325.664,262.043,343.364,261.726,356.754,255.595z"/>
		<path id="eye-white_7_" fill="#FFFFFF" d="M390.594,257.016c1.336,2.838,3.72,3.973,6.594,3.169
			c3.141-0.875,4.903-3.229,5.488-6.685c-5.687-3.532-9.553-2.207-12.117,3.554L390.594,257.016z"/>
		<path id="eye-white_6_" fill="#FFFFFF" d="M406.645,284.887c14.204,5.337,27.753,2.641,40.879-3.603
			c6.066-2.888,11.999-6.113,17.182-10.587c-5.863-6.304-24.005-14.684-33.213-15.483c-0.145,0.486-0.465,1.001-0.404,1.474
			c2.09,17.422-3.1,24.088-20.941,26.934c-1.191,0.19-2.307,0.864-3.459,1.308L406.645,284.887z"/>
		<path id="eye-white_5_" fill="#FFFFFF" d="M526.861,258.394c-1.329,0.578-2.034,0.716-2.496,1.128
			c-0.606,0.536-1.033,1.294-2.059,2.669C525.863,262.783,527.056,262.036,526.861,258.394z"/>
		<path id="eye-white_4_" fill="#FFFFFF" d="M546.91,263.463c8.531-2.806,9.486-8.873,11.201-14.077
			c2.322-7.037,0.15-12.508-6.826-15.956c-3.516,2.027-6.131,4.819-8.615,8.295C548.359,247.349,549.998,254.097,546.91,263.463z"/>
	</g>
	<g id="Mouth_1_">
		<g id="Gum_1_">
			<path fill="#CCCCCC" d="M354.875,353.855c2.375,6.346,7.083,10.956,11.588,16.127c3.691-1.978,7.082-3.803,11.912-6.391
				c-8.323-3.733-15.631-7.016-22.946-10.298C355.245,353.478,355.059,353.664,354.875,353.855z"/>
			<path fill="#CCCCCC" d="M320.576,352.053c1.59,0.674,2.99,1.273,4.604,1.949c3.212-3.605,6.332-7.117,9.562-10.738
				c-2.274-2.734-4.852-4.328-8.369-4.979C323.471,342.414,321.906,347.008,320.576,352.053z"/>
			<path fill="#CCCCCC" d="M397.039,371.781c3.303,4.77,5.612,10.273,10.26,14.684c2.117-2.605,3.979-4.887,6.225-7.65
				c-5.553-3.137-10.911-5.355-16.53-6.991L397.039,371.781z"/>
			<path fill="#CCCCCC" d="M350.109,415.245c3.281,0.632,5.429,1.037,7.635,1.468c1.199-3.441-0.443-5.91-0.831-9.91
				C354.371,409.957,352.661,412.072,350.109,415.245z"/>
			<path fill="#CCCCCC" d="M429.082,420.029c-1.295-2.479-2.621-3.804-4.566-4.618c-2.056,0.966-3.025,2.658-3.395,5.173
				C423.835,421.65,426.332,421.75,429.082,420.029z"/>
			<path fill="#CCCCCC" d="M397.282,420.513c-0.003-2.546-1.445-3.419-3.169-4.142c-1.805,0.56-2.189,1.998-2.472,3.578
				C393.39,421.641,395.156,421.453,397.282,420.513z"/>
		</g>
		<g id="Teeth_1_">
			<path id="tooth_19_" fill="#FFFFFF" d="M319.766,406.102c6.413,3.693,13.527,5.607,20.662,6.711
				c5.676,0.879,8.426-4.984,13.517-7.467c-11.454-14.277-22.432-27.948-31.034-45.547c-4.992,16.604-8.908,31.107-3.102,46.338
				L319.766,406.102z"/>
			<path id="tooth_18_" fill="#FFFFFF" d="M353.824,397.465c1.904-10.327-2.09-20.512,6.227-28.6
				c-7.541-6.948-7.552-19.686-19.053-23.133c-11.545,5.453-13.945,11.912-8.368,22.84
				C337.926,378.941,344.781,388.209,353.824,397.465z"/>
			<path id="tooth_17_" fill="#FFFFFF" d="M390.859,414.582c-10.463-12.504-17.963-26.732-27.672-40.619
				c-8.017,15.393-1.956,29.37,0.287,43.18C374.66,422.342,384.475,421.514,390.859,414.582z"/>
			<path id="tooth_16_" fill="#FFFFFF" d="M396.14,411.251c0.219-10.269-0.808-18.435,3.635-25.294
				c-7.484-17.69-13.315-25.133-29.401-12.932C373.126,388.773,385.595,397.939,396.14,411.251z"/>
			<path id="tooth_15_" fill="#FFFFFF" d="M435.024,420.908c-0.825-12.48,1.841-22.127,7.517-31.489
				c-7.498-2.884-14.229-5.645-21.086-8.021c-3.049-1.055-5.664,0.817-7.502,3.057c-2.482,3.014-2.689,6.519-0.715,9.984
				C418.596,403.861,426.613,411.057,435.024,420.908z"/>
			<path id="tooth_14_" fill="#FFFFFF" d="M402.398,391.083c-2.543,18.963-2.508,24.12,0.199,29.81
				c11.709,2.363,14.623,1.273,19.479-7.709c-5.412-6.6-9.459-14.585-16.094-20.652c-1.064-0.979-1.942-2.153-3.635-1.4
				L402.398,391.083z"/>
			<path id="tooth_13_" fill="#FFFFFF" d="M462.417,416.863c-5.122-8.615-10.248-17.232-15.423-25.939
				c-7.225,6.547-10.556,21.564-6.346,29.17c7.106-1.065,14.454-2.17,21.807-3.272L462.417,416.863z"/>
			<path id="tooth_12_" fill="#FFFFFF" d="M452.8,392.965c3.72,8.768,8.507,15.159,12.854,21.527
				c1.885,0.866,3.373,0.496,5.393-0.526c0.857-4.558,1.756-9.367,2.743-14.602C466.884,397.263,460.499,395.313,452.8,392.965z"/>
			<path id="tooth_11_" fill="#FFFFFF" d="M504.6,399.682c-5.444,0.719-9.795,0.331-13.817,2.209
				c-0.817,1.896,0.011,3.1,1.428,4.319C496.314,404.973,500.34,403.527,504.6,399.682z"/>
			<path id="tooth_10_" fill="#FFFFFF" d="M488.706,407.832c0.454-2.395-0.395-4.096-1.731-5.828
				c-2.774-0.736-5.595-1.928-8.88-1.272c-2.222,3.377-1.942,7.347-2.817,11.774C480.664,412.248,484.736,410.053,488.706,407.832z"
				/>
		</g>
	</g>
	<g id="Nose_1_">
		<path id="Nose-tip-accent_1_" fill="#999999" d="M483.912,305.282c-0.889,1.498-1.768,2.99-3.139,5.302
			c31.285-16.65,62.245-31.302,98.002-32.617c-1.258-5.256-5.051-5.834-8.961-6.328c-20.912-2.647-39.871,3.338-57.922,13.209
			c-10.227,5.592-19.587,12.396-28.013,20.469L483.912,305.282z"/>
		<path id="Nose-accent_1_" d="M420.6,313.862c6.447-2.866,12.889-5.718,19.34-8.581l-0.043,0.042
			c6.448,3.934,12.724,0.18,19.049-0.511c2.979-0.317,5.908-1.068,8.861-1.625c0.371-0.37,0.738-0.744,1.101-1.111l-0.042-0.035
			c-0.363,0.367-0.73,0.737-1.096,1.103c-3.385,4.982-8.525,8.655-10.842,14.892c4.854-1.203,8.391-4.192,11.75-7.637
			c-1.617,0.561-3.232,1.129-4.844,1.695c-0.391,0.201-0.779,0.398-1.879,0.963c0.688-1.033,0.924-1.399,1.17-1.752
			c3.287-3.131,6.579-6.244,10.944-10.379c-8.5-1.318-15.146,1.371-22.239,0.452c5.307-1.788,10.611-3.582,15.929-5.362
			c-17.29,1.89-33.78,5.827-47.132,17.867L420.6,313.862z"/>
	</g>
	<g id="Whiskers_1_">
		<path id="whisker_21_" d="M494.129,341.236c0.838,1.742,1.889,1.979,2.929,1.781c0.751-0.145,1.421-0.705,3.44-1.781
			C497.523,341.236,496.004,341.236,494.129,341.236z"/>
		<path id="whisker_20_" d="M456.467,351.989c0.102,2.327,0.924,2.923,2.746,2.077C459.632,351.947,458.578,351.615,456.467,351.989
			z"/>
		<path id="whisker_19_" d="M583.8,327.414c-0.585-0.547-1.174-1.093-2.549-2.355c0,2.842-2.083,5.57,2.549,4.58l0.035,0.031
			c0-0.764,0-1.522,0.004-2.277L583.8,327.414z"/>
		<path id="whisker_18_" d="M526.625,330.813c-0.924-0.434-1.473-0.705-2.51-1.195c-0.046,0.984-0.328,1.798-0.053,2.076
			C525.232,332.91,525.691,331.818,526.625,330.813z"/>
		<path id="whisker_17_" d="M570.646,336.453c0.98-1.029,0.779-1.73-0.549-2.15c-1.094,0.528-0.967,1.256-0.428,2.076
			C569.991,336.407,570.309,336.432,570.646,336.453z"/>
		<path id="whisker_16_" d="M452.867,342.937c-0.303-0.327-0.617-0.659-0.924-0.984c-0.271,0.347-0.543,0.688-0.805,1.026
			c0.393,0.227,0.794,0.447,1.191,0.663C452.51,343.408,452.69,343.17,452.867,342.937z"/>
		<path id="whisker_15_" d="M498.553,368.436c0.677-1.313,0.166-1.834-1.188-1.887C496.855,367.773,497.068,368.467,498.553,368.436
			z"/>
		<path id="whisker_14_" d="M516.187,353.988c1.206,0.424,1.671,0.18,1.749-0.712C517.205,352.571,516.793,353.072,516.187,353.988z
			"/>
		<path id="whisker_13_" d="M469.996,347.498c-0.5-2.414-1.441-2.616-3.031-1.508C467.201,347.925,468.058,348.287,469.996,347.498z
			"/>
		<path id="whisker_12_" d="M352.58,300.843c-29.461-15.575-61.024-19.591-93.842-16.319
			C291.164,283.301,322.488,288.3,352.58,300.843z"/>
		<path id="whisker_11_" d="M273.838,333.897c12.384-7.411,24.836-14.595,39.064-18.128c6.014-1.487,12.141-1.297,19.414-1.314
			c-2.838-5.592-6.914-5.973-10.813-5.908c-15.223,0.25-27.646,7.279-38.932,16.73C279.449,327.896,276.742,331.018,273.838,333.897
			L273.838,333.897z"/>
	</g>
	<path id="Outline_1_" d="M650.077,374.934c1.974,4.152,4.009,8.291,5.905,12.479c4.389,9.673,4.766,20.271,6.974,30.452
		c0,2.143,0,4.287,0,6.439c-0.999,4.651-1.989,9.314-3.015,13.965c-4.852,22.193-19.407,36.957-37.476,49.06
		c-0.323,0.007-0.497,0.173-0.524,0.501c-4.568,2.788-9.142,5.57-13.711,8.357l0.047-0.041c-6.283,2.979-9.565,8.496-13.017,14.26
		c-16.287,27.259-42.259,40.62-71.649,48.658c-17.096,4.668-34.566,7.043-52.285,7.635c-3.899,0.131-7.785,0.691-12.812,1.15
		c4.632,13.006,9.078,25.439,14.151,39.635c-20.593-10.213-39.644-19.672-58.72-29.147c-13.933,5.648-27.636,11.278-42.815,14.13
		c-3.34,16.498-6.701,32.885-9.945,49.292c-0.786,3.987-1.191,8.05-1.784,12.082c-0.353,0-0.705,0-1.067,0
		c-6.811-14.874-13.566-29.765-20.473-44.59c-1.474-3.161-2.383-6.747-5.323-9.162c-24.921,2.556-49.782,3.377-76.632-0.899
		c-10.621,10.781-21.906,22.242-33.244,33.756c0-13.009,0-26.264,0-39.297c-6.44-3.635-12.627-7.129-18.812-10.619l0.043,0.039
		c-18.378-9.667-35.747-20.817-51.531-34.369l0.054,0.053c-3-2.48-6.004-4.967-9.185-7.59
		c-20.556,6.151-40.362,15.229-63.854,17.176c11.27-13.461,18.733-27.649,27.935-40.69l0.06-0.057
		c2.158-3.849,5.524-7.019,6.779-11.792c-11.588-18.321-22.174-37.337-31.682-56.938c-1.284-2.648-3.699-3.146-6.064-3.861
		c-20.666-6.269-41.332-12.508-61.977-18.812c-1.727-0.521-3.906-0.415-5.228-3.092c21.698-9.825,43.261-19.583,64.698-29.292
		c5.471-24.259,9.697-48.362,19.805-70.861c-14.288-16.703-31.799-30.106-45.756-46.824c0.356-0.864,0.705-1.724,1.062-2.584
		c25.107,1.061,50.216,2.122,75.388,3.184c3.588-5.549,6.947-10.752,10.438-16.14c-8.517-15.364-16.854-30.413-25.908-46.732
		c17.871,3.991,34.306,7.657,50.963,11.369c2.049-3.123,3.854-5.982,5.762-8.771c10.691-15.696,16.932-33.862,27.529-49.603
		l-0.053,0.056c5.629-9.878,11.268-19.756,17.112-29.99c-6.435-3.889-13.037-6.018-20.398-5.877
		c-18.579,0.359-37.231,0.959-55.073-5.503c-7.848-2.845-16.876-5.795-17.098-16.058c-0.24-10.365,8.584-14.063,16.438-17.524
		c14.546-6.406,38.751-16.506,63.601-34.895c24.026-16.432,50.551-24.381,79.199-18.163c22.238,4.819,42.135,15.169,52.045,37.943
		c1.47,3.385,2.355,7.03,3.508,10.541c39.854,5.243,79.691,9.057,116.846,24.537c1.473-1.254,2.479-1.988,3.345-2.866
		c14.924-15.152,33.228-21.664,54.241-21.125c17.684,0.448,34.338,6.148,51.285,10.273c15.061,3.667,29.835,8.475,45.779,6.716
		c8.169-0.903,15.922,1.174,20.209,9.169c4.445,8.281,1.002,15.741-3.886,22.421c-12.2,16.703-29.813,23.853-49.485,26.702
		c-8.367,1.206-16.883,1.406-25.125,2.052c-0.955,5.133-0.396,6.398,5.044,8.926c19.133,8.884,34.21,22.485,46.458,39.436
		c3.096,4.276,5.919,9.025,4.844,14.327c-2.771,13.785-9.039,25.848-19.523,35.49l0.046-0.045c-0.974,1.543-0.656,2.866,1.046,3.402
		c5.405,1.713,7.153,5.968,7.645,11.009c11.059,5.387,18.476,13.767,19.516,25.876c0.628,7.287,3.109,13.436,6.417,19.563
		c2.358,4.393,4.801,8.746,7.206,13.125l-0.039-0.039c2.098,3.185,4.201,6.367,6.3,9.541c0,0,0.274,0.277,0.278,0.277
		c6.401,9.618,12.801,19.225,19.21,28.828 M231.801,623.822l-0.047-0.043C231.754,623.783,231.801,623.822,231.801,623.822z
		 M285.375,111.11l0.035-0.036L285.375,111.11z M158.892,534.729c1.106,2.64,10.04,12.885,56.339,39.258
		c2.303,1.26,4.615,2.479,8.08,4.337c0.793-7.54,1.773-14.137,2.095-20.765c0.349-7.182,3.909-10.777,10.844-11.426
		c13.911-1.279,19.245-2.337,32.85,4.475l5.585,3.874c8.81,7.745,7.35,18.402-3.039,28.753l-0.932,1.1
		c-0.92,1.467-2.156,1.629-3.553,3.839c20.327,5.44,40.002,3.804,59.79,1.414c0.325-4.36-1.636-7.315-3.219-10.161
		c-3.099-5.566-1.17-9.765,3.667-12.076c13.625-6.533,27.596-6.279,41.395-0.237c4.224,1.847,4.104,6.311,4.851,10.798
		c14.169-3.635,27.65-7.607,40.257-15.262c-10.555-3.098-20.5-7.805-31.541-8.433c-35.061-1.967-70.342-0.5-105.043-7.812
		c-48.802-10.294-101.309-31.507-136.75-72.781l0.047,0.045c-18.939-19.48-30.334-42.83-37.391-68.674
		c-4.379-16.014-6.682-32.392-10.471-48.969c-2.256,11.271-4.513,22.539-6.74,33.686c2.334,3.677,6.691,5.479,7.414,9.936
		l-0.035-0.035c9.162,12.373,11.026,26.178,6.535,40.527c-1.544,4.918-3.35,9.236-1.139,14.211l-0.039-0.035
		c6.18,11.852,11.603,24.117,18.893,35.387c1.445,2.225,3.148,4.295,4.738,6.445l-0.042,0.029c2.45-6.965,7.644-9.17,14.408-7.68
		c14.966,3.308,26.997,10.404,31.46,26.264c3.293,11.663,1.607,14.998-9.355,20.021 M522.458,150.792
		c0.72,0.356,1.431,0.708,2.136,1.065l-0.006-0.004c4.092,3.075,7.287,7.333,12.057,9.476c15.271-16.858,18.575-18.889,31.33-18.885
		c-4.572,3.162-10.703,3.113-13.03,8.574c13.065,5.017,43.321-2.394,51.187-13.107c5.191-7.076,11.516-14.369,7.127-25.062
		c-8.845,1.241-17.235,2.32-25.834,1.9c-17.616-0.856-33.783-7.293-50.486-11.718c-12.333-3.268-24.922-4.527-37.705-4.101
		c-11.965,0.402-21.949,5.676-31.492,12.205c-0.367-0.37-0.74-0.74-1.109-1.107c-0.008-0.388-0.02-0.772-0.025-1.16
		c-0.01-0.007,0.025,0.039,0.025,0.039c0.023,0.363,0.027,0.72,0.045,1.079c0.367,0.366,0.732,0.74,1.1,1.106
		c-1.275,1.682-2.555,3.367-4.282,5.648c19.653,10.742,40.397,19.044,57.868,32.945 M282.206,108.967l-0.035-0.042L282.206,108.967z
		 M549.297,321.326c-3.826,3.553-7.714,3.367-12.216,0.93c-11.083-6.006-23.175-7.398-35.134-7.558
		c-1.953,2.725,0.832,4.206,0.293,6.151c-4.734,4.523-18.98,2.74-24.883-3.127c-4.502-4.477-3.691-9.73,2.676-16.249
		c6.152-6.307,13.225-11.401,20.97-15.568l-0.028,0.043c7.664-4.833,15.325-9.67,24.555-15.494
		c-11.324-0.571-20.924,1.128-30.604,1.847c-10.305,0.758-18.772,6.279-28.81,8.464c2.608-2.32,5.229-4.639,7.844-6.962
		c-0.539-0.786-1.076-1.576-1.615-2.366c-6.842,6.053-14.268,11.116-23.803,15.406c6.758,2.454,12.854,0.719,19.637,5.662
		c-24.004,1.872-44.846,8.313-65.523,18.078c1.824-4.351,2.027-4.502,9.109-7.47c3.551-1.492,7.115-2.976,10.457-4.971
		c-15.924,4.619-30.579,12.272-45.65,18.921c-0.366-0.366-0.74-0.733-1.109-1.097c2.753-2.83,13.393-9.458,15.944-11.535
		c1.192,0.599-16.358-6.469-27.487-17.606c-10.15-10.17-14.828-23.825,2.619-36.294c-1.457,3.97-2.485,6.776-3.518,9.582
		c-3.822,10.414-2.205,17.211,6.028,24.491c8.309,7.357,18.187,12.363,28.601,15.318c6.791,1.921,13.273-3.335,20.031-5.655
		c-13.347-2.461-26.316-11.986-32.947-18.763c-8.201-8.369-9.491-20.066-8.966-32.169c-14.404-1.294-28.259-0.395-42.075,1.854
		l0.035,0.004c13.484-7.185,28.379-6.318,43.049-7.383c-12.65-3.962-25.592-5.443-38.564-6.793
		c21.836-1.459,43.15,1.607,64.078,7.572c12.166,3.469,24.197,7.379,36.3,11.087l0.335-0.063l0.08-0.342
		c-16.818-10.749-35.291-17.722-54.223-23.613c-3.734-1.167-7.566-2.055-11.35-3.071l-0.045,0.046
		c32.123,2.845,77.623,23.363,104.457,47.106c21.495-9.296,29.797-27.77,27.175-60.464c4.423,5.355,6.69,18.836,4.808,27.783
		c-2.041,9.716-5.217,18.889-12.677,26.176c9.585,3.871,19.795-0.754,23.401-10.164c3.977-10.364,8.235-20.567,14.701-29.68
		c3.236-4.559,6.905-8.578,15.258-10.517c-11.726,10.541-19.846,20.948-24.47,33.604c0.832,0.775,1.663,1.551,2.499,2.33
		c2.514-3.325,4.637-7.065,7.625-9.889c7.521-7.083,14.893-14.521,25.32-17.43c3.059-0.856,5.982-1.237,7.869,2.916
		c-4.918,0.648-10.94-1.156-12.555,5.764l-0.035-0.042c4.971,1.827,6.921,5.817,7.325,10.693c0.589,6.994-0.733,13.724-3.239,20.246
		l0.078,0.338l0.345,0.092c8.429-8.02,16.245-16.542,22.366-26.528c1.787-2.934,1.924-5.542,0.349-8.518
		c-12.194-23.123-29.226-41.349-53.435-52.014c-12.223-5.394-24.287-11.274-37.207-15.188c10.541-0.159,20.57,2.708,31.172,5.82
		C508.359,138.174,376.134,94.9,332.51,101.8c-1.48,4.484-2.771,9.275-4.65,13.823c-1.867,4.537-3.785,9.145-8.023,13.707
		c0.525-4.537,0.787-8.031,1.33-11.482c7.664-49.102-34.778-72.327-71.703-68.696c-21.865,2.147-40.797,10.989-58.293,23.74
		c-7.875,5.743-15.554,11.785-24.195,16.643c7.672,0.783,14.589-2.45,21.865-3.088l-0.043-0.057
		c-13.004,9.311-28.545,10.604-43.506,13.738c-3.646,0.769-7.39,1.407-10.865,2.715c-5.82,2.203-6.381,6.434-1.495,10.417
		c5.397,4.407,11.859,6.441,18.593,7.713c20.966,3.97,41.106,0.004,61.166-5.94c18.427-5.461,35.898-14.571,55.395-15.942
		c13.738-0.97,26.973,1.29,38.804,12.938c-5.493-2.859-9.24-5.136-13.228-6.804c-4.068-1.699-8.348-3.007-12.701-2.605
		c-1.221,1.354-0.139,2.189,0.176,3.127l-0.035-0.036c6.92,3.719,10.544,9.572,10.262,17.366c-0.268,7.604-4.98,12.212-11.57,15.329
		c-9.381,4.432-18.283,9.97-28.912,11.433c5.426-2.553,18.051-9.825,18.441-9.808l-0.031,0.039
		c-0.367-0.021-24.914-7.89-35.395-15.054l0.042,0.046c-2.982-2.232-5.962-4.456-9.159-6.854
		c-6.057,2.171-12.011,4.308-19.386,6.952c7.093,3.451,12.987,6.25,17.771,10.759c4.767,4.484,9.776,8.768,11.087,16.538
		c-5.055-2.835-8.207-7.28-13.537-8.898c-18.805,38.603-66.358,109.114-67.635,114.413c6.861-3.25,38.138-32.437,44.378-36.425
		l-0.032,0.039c4.604-4.244,9.216-8.485,13.827-12.727l0.303-0.296c7.464-7.442,14.927-14.888,22.386-22.33
		c0-0.007-0.038-0.042-0.038-0.042c-9.812,18.456-24.466,32.79-39.957,46.292c-14.373,12.536-29.116,24.667-43.901,36.73
		c-9.18,7.492-17.162,16.069-24.487,25.316l0.042-0.032c-11.02,16.897-17.814,35.223-19.714,55.454
		c-2.073,22.033,4.325,42.333,11.57,62.607c12.744,35.668,44.589,67.085,58.835,76.797c42.982,23.748,46.944,25.747,75.977,35.896
		c30.752,10.752,62.762,14.895,95.076,17.214c3.693,0.261,7.424,0.032,13.146,0.032c-23.743-16.044-46.637-30.234-61.138-53.815
		c0.367-0.366-13.879-20.353-17.633-32.402c-0.504-0.384-1.002-0.972-1.629-1.223c-17.836-6.874-20.381-20.878-14.369-37.891
		c4.941-13.947,13.59-25.856,21.832-37.952c0.363,0.357,0.723,0.721,1.078,1.073l-0.035,0.046c-0.366-0.359-0.726-0.72-1.082-1.076
		c5.204-8.267,10.862-16.209,17.201-23.638c0.355,0.359,0.723,0.712,1.082,1.075l-0.039,0.031c-0.356-0.359-0.723-0.708-1.082-1.07
		c4.748-5.998,9.501-11.983,14.246-17.98c0.018-0.419-0.18-0.613-0.6-0.592c-2.482,1.679-4.961,3.352-8.397,5.697
		c1.044-7.146,5.408-10.563,10.322-13.267c4.523-2.492,9.272-5.2,14.151-2.806c1.389,3.26-1.572,3.817-1.537,6.077
		c22.548,16.009,48.771,24.822,74.033,35.802c-5.655-5.564-11.775-10.43-16.598-16.609c-7.844-10.051-5.803-22.82,4.526-28.481
		l-0.046-0.039c-8.989,13.33-7.943,20.701,4.407,31.341c8.276,9.074,58.74,35.117,90.415,37.154
		c28.316,1.815,60.746-15.332,62.223-56.459c0.029-0.643,0.308-1.279,0.885-3.617c4.16,14.289-1.311,25.471-5.573,36.938
		c5.288,2.176,9.688,0.159,13.687-1.776c19.689-9.525,31.717-25.658,37.623-46.281c2.139-7.491,0.437-15.367-3.233-22.344
		c-1.935-3.67-5.222-6.282-10.069-6.695c-9.955,12.195-21.733,22.377-35.888,29.642 M305.773,478.964
		c12.67,13.819,25.404,27.512,40.418,38.959c27.98,21.335,60.578,31.228,94.457,36.258c42.809,6.356,82.928-3.331,119.912-25.802
		c8.045-4.882,14.2-11.887,20.893-18.293l-0.035,0.031c14.182-19.961,19.727-42.037,16.385-66.337
		c-1.894-13.819-8.179-25.981-13.741-38.811c-25.341,18.959-50.224,37.263-81.258,44.497c9.772-5.186,19.541-10.361,29.317-15.543
		l-0.049,0.045c3.293-2.654,6.811-4.932,10.762-6.479l-0.035,0.046c13.052-10.143,26.36-19.982,36.514-33.294l-0.043,0.039
		c6.389-10.827,11.846-21.929,10.337-36.792c-13.862,11.064-28.577,17.007-45.149,16.51c-21.125,30.494-53.441,40.184-86.604,48.023
		c-51.06,12.074-100.7,7.887-148.543-14.186c-3.536-1.626-7.28-3.043-9.995-6.074l0.035,0.039c-1.466-0.385-2.566-1.069-2.59-3.177
		c5.717-0.301,9.863,4.227,16.075,4.628c-3.606-17.697-3.786-34.989,2.065-53.07c-1.766,0.854-2.503,0.959-2.788,1.371
		c-11.969,17.32-24.286,34.387-33.583,53.434c-10.806,22.146-1.748,35.247,18.998,44.375c13.361,5.895,28.242,5.556,42.555,7.396
		c7.016,0.908,14.028,1.857,20.977,3.708c-21.984,3.896-43.908,1.601-66.719-0.892c2.201,7.999,8.145,12.983,11.469,19.436
		 M31.266,418.884c0.42,0.3,0.889,0.944,1.266,0.893c13.619-1.854,26.765,0.997,39.936,3.792c2.059,0.438,4.53,0.314,5.969-1.508
		c4.287-5.451,9.011-6.477,14.859-0.874c0.261-6.64-2.514-11.285-4.209-16.21l0.039,0.035c-1.961-2.715-3.91-5.42-5.983-8.291
		c-18.808,4.307-34.697,14.813-51.919,22.198 M349.781,410.367l-0.036-0.039L349.781,410.367z M386.201,406.079
		c0.004,0,0.039-0.042,0.039-0.042L386.201,406.079z M539.631,377.115l-0.032-0.035L539.631,377.115z M313.307,58.55l-0.035-0.035
		L313.307,58.55z M207.119,54.263l-0.035-0.046C207.076,54.225,207.119,54.263,207.119,54.263z M353,350.305l-0.035-0.039
		L353,350.305z M162.072,251.622l-0.039-0.035L162.072,251.622z M529.936,249.482l0.035-0.046L529.936,249.482z M594.287,151.867
		l0.043-0.039L594.287,151.867z M228.525,144.361l0.042-0.045L228.525,144.361z M404.48,387.814l-0.037,0.049L404.48,387.814z
		 M390.541,256.959c1.329,2.841,3.706,3.973,6.582,3.173c3.145-0.875,4.908-3.233,5.489-6.688c-5.679-3.529-9.55-2.207-12.113,3.557
		L390.541,256.959z M396.975,371.729c3.311,4.77,5.613,10.266,10.266,14.683c2.123-2.608,3.981-4.89,6.224-7.646
		c-5.55-3.142-10.912-5.362-16.53-6.987L396.975,371.729z M354.928,353.354l-0.109,0.447c2.377,6.346,7.086,10.954,11.578,16.13
		c3.693-1.985,7.096-3.801,11.923-6.388c-8.323-3.741-15.632-7.02-22.944-10.303L354.928,353.354z M105.908,308.254
		c-3.6-2.119-7.071-4.358-10.632-6.24c-4.202-2.228-7.524-5.239-10.214-9.166c-3.645-5.31-12.152-9.473-20.176-9.804
		c7.918,6.325,15.311,12.015,22.453,18.012c5.151,4.322,10.975,7.981,14.662,13.855l-0.285-0.449
		C104.301,313.207,104.598,311.35,105.908,308.254z M428.076,571.23c0.057,2.968,2.701,3.539,4.541,4.702
		c7.347,4.644,14.775,9.142,23.43,14.465c-1.932-8.95-6.166-15.282-8.469-21.188c-7.869-4.565-13.593-0.524-19.548,2.063
		L428.076,571.23z M411.707,249.711c2.909,13.936-1.551,18.586-20.816,21.723c4.826,7.076,17.362,8.141,25.182,2.13
		c7.48-5.74,7.968-14.553,1.312-21.988c-1.432-1.601-3.108-2.289-5.161-2.373C411.884,249.196,411.707,249.365,411.707,249.711z
		 M158.5,507.975c-3.631,1.656-7.664,0.869-13.185-0.128c1.593,16.675-14.634,18.009-23.704,25.858
		c0.539,0.748,1.082,1.51,1.617,2.268c12.995-5.408,25.993-10.806,39.59-16.457c1.101-0.852,0.283-2.527,0.269-4.057l0.046,0.035
		C161.821,513.016,161.511,509.955,158.5,507.975z M462.357,416.804c-5.127-8.616-10.238-17.222-15.417-25.933
		c-7.231,6.551-10.558,21.561-6.35,29.176c7.097-1.075,14.454-2.178,21.81-3.275L462.357,416.804z M402.334,391.029
		c-2.539,18.96-2.5,24.117,0.207,29.809c11.699,2.357,14.617,1.271,19.479-7.708c-5.412-6.609-9.462-14.588-16.096-20.651
		c-1.065-0.977-1.951-2.154-3.632-1.406L402.334,391.029z M447.465,281.231c6.064-2.891,12.006-6.113,17.18-10.583
		c-5.865-6.314-24.008-14.69-33.216-15.491c-0.142,0.486-0.462,1.004-0.401,1.478c2.094,17.422-3.104,24.082-20.938,26.937
		c-1.199,0.194-2.309,0.857-3.461,1.301l-0.035-0.035C420.793,290.172,434.334,287.475,447.465,281.231z M483.855,305.225
		c-0.886,1.499-1.773,2.994-3.139,5.298c31.281-16.646,62.245-31.298,97.996-32.609c-1.259-5.256-5.041-5.838-8.951-6.332
		c-20.919-2.644-39.875,3.342-57.934,13.209c-10.229,5.595-19.583,12.399-28.008,20.468L483.855,305.225z M340.375,412.761
		c5.665,0.878,8.414-4.989,13.502-7.468c-11.439-14.28-22.418-27.952-31.027-45.548c-4.984,16.599-8.911,31.108-3.102,46.334
		l-0.039-0.035C326.122,409.742,333.236,411.652,340.375,412.761z M263.92,563.768c0.74-1.587,1.484-3.188,2.365-5.063
		c-10.364-7.396-21.455-8.771-34.02-5.938c-2.355,21.598-4.981,42.781-3.758,66.4c5.803-8.542,10.436-15.37,15.074-22.205
		l-0.035,0.045c1.639-4.516,3.117-8.912,1.682-13.939c-1.143-4.019,0.814-7.059,4.449-9.299c4.971-3.047,10.436-5.43,14.295-10.055
		L263.92,563.768z M606.137,333.115c-0.388,1.371-0.412,3.008-1.209,4.074c-7.34,9.974-7.101,21.367-6.709,32.953
		c0.258,7.812-2.93,14.957-5.943,21.839c13.66,27.593,19.234,31.044,16.752,85.286c14.285-9.783,26.223-20.775,33.682-36.213
		c5.891-12.187,6.769-24.399,2.934-37.414c-6.438-21.84-17.674-41.272-29.236-60.584c-2.465-4.111-4.879-8.246-7.16-12.096
		c-2.218-0.289-2.268,1.438-3.15,2.189L606.137,333.115z M267.315,134.847c3.955,0.691,7.826-0.078,11.433-1.89
		c8.196-4.135,9.79-12.706,3.477-19.27c-7.111-7.403-15.025-11.676-25.736-7.34c-8.041,3.257-16.41,5.714-26.437,9.141
		C242.729,124.253,253.517,132.442,267.315,134.847z M117.962,537.368c1.079-7.36,6.889-9.056,12.106-11.122
		c7.096-2.803,11.722-7.213,12.141-15.262c0.236-4.65,3.328-5.436,7.186-4.721c2.234,0.41,4.399,1.64,6.723,0.336
		c-2.961-7.072-15.254-13.396-25.045-12.582c-11.904,17.083-24.004,34.45-36.1,51.815
		C102.641,542.159,109.772,540.51,117.962,537.368z M359.994,368.813c-7.541-6.945-7.555-19.682-19.063-23.13
		c-11.538,5.458-13.936,11.909-8.358,22.835c5.288,10.371,12.155,19.629,21.194,28.893
		C355.668,387.081,351.67,376.896,359.994,368.813z M363.125,373.9c-8.01,15.401-1.95,29.373,0.285,43.182
		c11.193,5.203,21.001,4.371,27.393-2.553C380.34,402.025,372.84,387.797,363.125,373.9z M341.249,603.794
		c4.144,8.845,7.939,17.86,12.66,26.616c-2.962-14.75,6.455-31.498-7.83-42.751c0.878-8.832,10.65-11.307,5.521-19.126
		c-10.672-2.295-17.697,0.135-23.732,8.119C332.443,585.896,337.016,594.762,341.249,603.794z M399.719,385.904
		c-7.481-17.694-13.323-25.127-29.409-12.939c2.753,15.752,15.229,24.918,25.774,38.227
		C396.295,400.926,395.277,392.768,399.719,385.904z M442.484,389.365c-7.502-2.884-14.232-5.647-21.092-8.023
		c-3.05-1.05-5.656,0.822-7.492,3.057c-2.484,3.015-2.696,6.516-0.729,9.991c5.366,9.421,13.393,16.608,21.794,26.468
		C434.137,408.375,436.806,398.727,442.484,389.365z M107.657,305.356c2.676-6.924,8.919-12.875,11.687-21.293
		c-19.643-1.89-38.582-3.705-57.534-5.524c-0.296,0.649-0.593,1.294-0.892,1.936C80.664,280.978,91.313,297.882,107.657,305.356z
		 M123.75,223.228c5.986,9.966,11.355,18.9,17.271,28.739c5.063-6.917,9.613-13.122,14.669-20.024
		C144.613,228.925,134.881,226.267,123.75,223.228z M558.051,249.337c2.326-7.044,0.145-12.512-6.818-15.956
		c-3.529,2.02-6.135,4.819-8.617,8.292c8.223,3.077,14.735,9.88,4.238,21.734C555.381,260.604,556.33,254.534,558.051,249.337z
		 M363.664,571.035c-2.553-1.769-4.9-2.721-8.073-1.698c0.86,6.413-3.589,10.692-7.068,16.192
		c4.302,7.636,10.597,15.014,8.687,25.192C359.994,597.431,359.303,583.833,363.664,571.035z M47.947,425.529
		c15.248,3.444,30.834,5.365,45.602,10.629c2.982-8.33,1.236-12.24-7.012-16.295c-1.006,0.766-2.277,1.464-3.177,2.5
		c-5.122,5.902-11.208,6.854-18.385,4.279c-5.743-2.059-11.698-3.476-18.466-1.691C46.985,425.145,47.447,425.413,47.947,425.529z
		 M465.59,414.428c1.89,0.875,3.377,0.512,5.4-0.522c0.857-4.55,1.756-9.366,2.736-14.587c-6.899-2.108-13.295-4.063-20.979-6.413
		C456.463,401.676,461.247,408.068,465.59,414.428z M258.945,571.438c-11.264,5.911-11.229,5.979-8.82,18.825
		c5.031-1.499,19.816-22.799,18.875-28.576C266.173,566.387,262.992,569.313,258.945,571.438z M325.117,353.949
		c3.223-3.606,6.342-7.113,9.568-10.734c-2.281-2.743-4.855-4.343-8.373-4.98c-2.905,4.121-4.471,8.721-5.799,13.766
		C322.107,352.674,323.514,353.269,325.117,353.949z M486.922,401.947c-2.777-0.729-5.598-1.932-8.891-1.272
		c-2.215,3.382-1.932,7.351-2.807,11.774c5.373-0.252,9.452-2.453,13.425-4.67C489.104,405.389,488.252,403.689,486.922,401.947z
		 M534.75,251.553c-1.833,2.238-1.844,0.382-0.916,3.738c0.718,1.765,2.958,2.333,4.708,0.125c2.465-3.11,2.194-3.863-0.479-6.969
		C535.578,249.219,535.715,249.755,534.75,251.553z M357.686,416.655c1.194-3.437-0.445-5.897-0.84-9.917
		c-2.534,3.163-4.241,5.282-6.797,8.451C353.331,415.82,355.478,416.229,357.686,416.655z M490.723,401.836
		c-0.822,1.893,0.007,3.098,1.424,4.317c4.107-1.24,8.137-2.689,12.389-6.526C499.096,400.344,494.748,399.96,490.723,401.836z
		 M424.455,415.354c-2.055,0.974-3.02,2.663-3.391,5.176c2.707,1.067,5.2,1.163,7.953-0.558
		C427.73,417.498,426.406,416.169,424.455,415.354z M394.056,416.317c-1.814,0.557-2.196,1.999-2.474,3.581
		c1.752,1.689,3.519,1.503,5.641,0.564C397.223,417.914,395.773,417.043,394.056,416.317z M524.594,260.384
		c-0.613,0.536-1.317,0.376-2.348,1.751c12.254,1.329,7.528,2.381,7.528-2.17c0-1.571,0-1.571,0-4.75
		C528.452,255.792,525.053,259.968,524.594,260.384z"/>
	<path id="collar_1_" fill="#333333" d="M98.844,454.402c-2.211-4.971-0.402-9.293,1.143-14.207
		c4.487-14.355,2.629-28.146-6.54-40.529l0.042,0.035c-0.729-4.458-5.084-6.26-7.417-9.938c2.231-11.147,4.481-22.41,6.74-33.688
		c3.786,16.582,6.096,32.969,10.468,48.978c5.689,31.154,31.572,65.52,44.479,77.056c36.383,35.199,80.816,54.061,129.623,64.348
		c34.692,7.313,69.975,5.838,105.031,7.819c11.048,0.62,20.993,5.333,31.541,8.429c-12.592,7.654-26.088,11.628-40.252,15.26
		c-0.752-4.489-0.628-8.953-4.852-10.799c-13.791-6.047-27.762-6.297-41.395,0.229c-4.834,2.32-6.766,6.528-3.667,12.086
		c1.587,2.844,3.543,5.805,3.226,10.159c-19.795,2.394-39.463,4.029-59.797-1.41c15.684-16.815,15.353-23.077,10.848-29.847
		l-3.381-3.901c-12.283-10.059-24.463-9.575-38.374-8.292c-6.931,0.642-10.495,4.244-10.845,11.43
		c-0.316,6.62-1.301,13.217-2.09,20.764c-3.467-1.857-5.785-3.088-8.088-4.347c-19.101-10.442-37.711-21.639-54.227-35.979
		l0.038,0.027c-0.716-1.1-1.429-2.203-2.144-3.303l-0.049,0.053c10.963-5.02,12.645-8.355,9.363-20.024
		c-4.467-15.853-16.503-22.942-31.461-26.257c-6.766-1.496-11.958,0.715-14.408,7.686l0.031-0.047
		c-1.578-2.135-3.285-4.209-4.73-6.436c-7.291-11.268-12.713-23.529-18.89-35.393L98.844,454.402z"/>
	<g id="Spikes_2_">
		<path id="spike_13_" fill="#FFFFFF" d="M243.604,597.057c1.643-4.501,3.119-8.904,1.686-13.933
			c-1.139-4.019,0.813-7.054,4.452-9.3c4.967-3.045,10.428-5.433,14.292-10.057l-0.057,0.057c0.748-1.594,1.491-3.188,2.365-5.066
			c-10.357-7.397-21.448-8.769-34.016-5.938c-2.355,21.6-4.979,42.787-3.759,66.404c5.804-8.545,10.435-15.374,15.071-22.207
			L243.604,597.057z"/>
		<path id="spike_12_" fill="#FFFFFF" d="M94.606,545.833c9.708-4.075,13.435-5.003,22.992-8.465
			c2.362-8.461,6.878-9.056,12.099-11.122c7.104-2.795,11.729-7.206,12.143-15.254c0.236-4.654,3.324-5.439,7.188-4.722
			c2.232,0.41,4.403,1.641,6.717,0.333c-2.955-7.076-15.255-13.4-25.037-12.582C118.801,511.104,106.701,528.468,94.606,545.833z"/>
		<path id="spike_11_" fill="#FFFFFF" d="M89.184,405.072c-1.956-2.719-3.912-5.426-5.979-8.301
			c-18.809,4.302-34.704,14.822-51.926,22.2l0.043-0.038c0.426,0.314,0.892,0.948,1.266,0.895
			c13.618-1.854,26.765,0.99,39.939,3.797c2.062,0.438,4.529,0.311,5.968-1.506c4.29-5.449,9.011-6.482,14.856-0.881
			c0.264-6.639-2.518-11.281-4.207-16.202L89.184,405.072z"/>
		<path id="spike_10_" fill="#FFFFFF" d="M327.927,576.712c4.576,9.232,9.152,18.104,13.379,27.136
			c4.149,8.852,7.939,17.863,12.659,26.619c-2.954-14.75,6.463-31.498-7.83-42.756c0.328-7.851,10.65-11.305,5.533-19.132
			C340.986,566.291,333.955,568.73,327.927,576.712z"/>
		<path id="spike_9_" fill="#FFFFFF" d="M60.98,280.526c19.739,0.508,30.333,17.356,46.677,24.83
			c4.185-7.001,8.612-13.171,11.743-21.237c-19.641-1.889-38.586-3.705-57.527-5.524C61.573,279.24,61.277,279.885,60.98,280.526z"
			/>
		<path id="spike_8_" fill="#FFFFFF" d="M428.137,571.283c0.053,2.969,2.7,3.55,4.541,4.713c7.35,4.633,14.771,9.127,23.432,14.455
			c-1.938-8.959-6.169-15.279-8.468-21.182c-7.872-4.561-13.597-0.529-19.544,2.056L428.137,571.283z"/>
		<path id="spike_7_" fill="#FFFFFF" d="M155.744,232c-11.07-3.021-20.807-5.68-31.938-8.715
			c5.993,9.962,11.362,18.899,17.274,28.739C146.147,245.107,150.691,238.895,155.744,232z"/>
		<path id="spike-accent_9_" fill="#CCCCCC" d="M357.266,610.774c2.785-13.283,2.098-26.882,6.461-39.683
			c-2.559-1.775-4.906-2.721-8.079-1.701c0.862,6.416-3.585,10.695-7.069,16.188C352.887,593.218,359.18,600.594,357.266,610.774z"
			/>
		<path id="spike-accent_8_" fill="#CCCCCC" d="M46.572,425.004c0.473,0.19,0.936,0.462,1.432,0.578
			c15.247,3.444,30.836,5.365,45.604,10.626c2.985-8.319,1.241-12.229-7.013-16.291c-1,0.769-2.276,1.466-3.18,2.499
			c-5.118,5.905-11.203,6.854-18.381,4.283C59.292,424.638,53.342,423.22,46.572,425.004z"/>
		<path id="spike-accent_7_" fill="#CCCCCC" d="M102.027,314.931c2.588-1.259,3-3.712,3.881-6.677
			c-3.6-2.119-7.012-4.301-10.579-6.191c-4.192-2.224-7.517-5.235-10.21-9.163c-3.645-5.306-12.148-9.472-20.172-9.8
			c7.918,6.321,15.314,12.015,22.457,18.008c5.143,4.326,10.971,7.978,14.662,13.851L102.027,314.931z"/>
		<path id="spike-accent_6_" fill="#CCCCCC" d="M269.053,561.744c-2.823,4.695-6.004,7.625-10.055,9.746
			c-11.252,5.916-11.221,5.982-8.813,18.822C255.213,588.825,270.005,567.521,269.053,561.744z"/>
		<path id="spike-accent_5_" fill="#CCCCCC" d="M163.193,515.55c-1.313-2.476-1.622-5.542-4.633-7.526
			c-3.639,1.664-7.661,0.875-13.192-0.12c1.597,16.668-14.63,18.007-23.694,25.849c0.533,0.761,1.075,1.52,1.611,2.27
			c12.998-5.396,25.989-10.805,39.594-16.453c1.1-0.85,0.285-2.53,0.271-4.058L163.193,515.55z"/>
	</g>
</g>
</svg>
