<?xml version="1.0" encoding="utf-8"?>
<!-- Generator: Adobe Illustrator 16.0.0, SVG Export Plug-In . SVG Version: 6.00 Build 0)  -->
<!DOCTYPE svg PUBLIC "-//W3C//DTD SVG 1.1//EN" "http://www.w3.org/Graphics/SVG/1.1/DTD/svg11.dtd">
<svg version="1.1" id="Layer_1" xmlns="http://www.w3.org/2000/svg" xmlns:xlink="http://www.w3.org/1999/xlink" x="0px" y="0px"
	 width="1050.868px" height="1049.869px" viewBox="0 0 1050.868 1049.869" enable-background="new 0 0 1050.868 1049.869"
	 xml:space="preserve">
<path id="Sillowette" fill-rule="evenodd" clip-rule="evenodd" stroke="#000000" stroke-miterlimit="10" d="M1039.74,364.98
	c-0.993,13.484-11.334,22.801-26.02,24.596c-8.568,1.047-17.246,1.168-25.844,2.028c-1.513,0.151-3.793,1.641-4.144,2.938
	c-2.12,7.831-7.024,13.449-13.177,18.314c-5.225,4.13-10.508,8.219-15.426,12.7c-11.004,10.025-11.754,21.098-2.416,32.588
	c3.15,3.876,6.387,7.699,9.809,11.335c11.246,11.952,16.863,26.08,17.184,42.476c0.038,1.99,1.167,4.571,2.669,5.826
	c16.343,13.645,27.495,30.885,33.929,50.884c16.477,51.22,9.066,99.563-19.229,144.905c-6.53,10.465-11.023,21.579-13.624,33.549
	c-5.172,23.795-4.861,47.975-4.982,72.114c-0.178,35.504-14.533,63.738-44.379,82.979c-44.488,28.682-92.855,42.83-146.195,35.355
	c-26.049-3.65-49.734-12.376-67.103-33.565c-0.137-0.167-0.562-0.098-1.177-0.185c0,1.657-0.053,3.283,0.008,4.904
	c0.842,22.361-2.923,44.102-8.953,65.517c-1.971,7-7.213,9.63-13.841,6.723c-4.856-2.13-9.62-4.615-14.073-7.489
	c-19.07-12.309-33.043-29.234-43.839-49.005c-0.794-1.456-2.632-3.423-3.893-3.359c-5.796,0.295-11.604,0.997-17.31,2.074
	c-1.606,0.305-3.646,2.12-4.176,3.687c-2.873,8.503-5.069,17.236-7.994,25.72c-6.367,18.473-13.977,36.376-26.409,51.759
	c-6.587,8.15-11.96,8.486-19.765,1.503c-17.205-15.393-29.394-34.299-38.442-55.342c-1.17-2.722-2.227-4.311-5.631-4.171
	c-24.416,1-48.533-1.772-72.469-6.336c-2.917-0.556-4.441,0.139-6.005,2.692c-10.756,17.571-24.827,32.074-41.552,44.036
	c-7.309,5.227-12.612,4.156-17.484-3.497c-10.008-15.718-17.063-32.712-21.809-50.695c-0.537-2.032-1.019-4.076-1.53-6.132
	c-11.439,1.631-22.286,3.327-33.175,4.694c-16.286,2.046-32.546,2.462-48.582-1.979c-20.542-5.69-35.521-19.136-48.547-35.154
	c-17.209-21.163-30.612-44.775-43.41-68.73c-1.942-3.636-3.811-4.121-7.738-3.447c-16.539,2.838-33.12,5.598-49.789,7.445
	c-9.522,1.054-12.322-2.373-9.674-11.455c3.57-12.25,7.955-24.298,12.646-36.173c3.151-7.979,7.438-15.508,10.646-22.07
	c-10.775-11.2-21.592-21.369-31.144-32.611c-16.659-19.611-31.316-40.602-39.434-65.471c-0.416-1.272-2.396-2.461-3.879-2.891
	c-11.634-3.375-23.49-6.071-34.942-9.962c-8.009-2.722-9.028-6.849-5.229-14.458c7.049-14.115,16.392-26.642,26.901-38.319
	c2.084-2.313,2.488-4.284,1.841-7.488c-2.403-11.88-5.488-23.84-5.92-35.854c-0.891-24.768-0.315-49.591-0.138-74.39
	c0.024-3.464-0.894-5.637-3.55-8.017c-8.04-7.205-16.205-14.409-23.263-22.533c-6.712-7.726-4.982-13.066,4.167-17.793
	c8.722-4.506,17.427-9.053,26.249-13.359c3.215-1.569,5.005-3.52,5.919-7.201c3.165-12.747,6.463-25.486,10.413-38.006
	c10.567-33.479,24.709-65.386,44.393-94.551c3.973-5.886,4.709-10.712,2.959-17.482c-3.99-15.435-6.99-31.135-10.094-46.786
	c-1.385-6.982-0.632-7.938,6.249-7.462c12.438,0.86,24.996,1.424,37.21,3.696c11.621,2.163,21.346,1.131,29.123-8.502
	c1.235-1.53,2.978-2.653,4.495-3.953c20.56-17.623,41.971-34.113,67.29-44.31c7.551-3.041,9.536-7.465,10.436-14.768
	c1.582-12.847,4.132-25.598,6.786-38.28c1.283-6.128,4.193-7.702,10.288-6.187c5.453,1.355,10.994,2.902,16.007,5.361
	c8.313,4.077,16.232,8.953,24.673,13.691c0.354-1.681,0.744-3.569,1.149-5.454c1.988-9.264,3.313-18.732,6.095-27.75
	c8.59-27.851,29.479-41.401,58.044-36.352c13.271,2.346,26.371,7.016,38.818,12.34c18.64,7.974,36.482,17.792,54.951,26.194
	c17.072,7.768,35.086,11.805,53.944,8.975c22.305-3.348,44.114-1.645,65.668,4.805c24.264,7.261,46.51,19.072,68.508,31.155
	c24.563,13.493,50.262,22.873,78.172,25.575c30.439,2.948,56.861,13.469,78.005,36.675c9.51,10.438,23.179,14.156,37.146,12.201
	c14.277-1.999,28.497-5.066,42.409-8.877c24.641-6.75,46.424-2.533,65.608,14.488c2.615,2.32,5.361,4.493,7.975,6.813
	c8.848,7.856,13.915,17.771,15.359,29.431c0.713,5.765,1.021,11.611,1.068,17.423c0.207,25.348,8.593,46.861,28.663,63.235
	c8.335,6.799,15.549,14.845,19.83,24.745C1038.408,352.734,1040.168,359.167,1039.74,364.98z"/>
<g id="BD-Head">
	<g id="Gray_Fur">
		<path id="Chin" fill-rule="evenodd" clip-rule="evenodd" fill="#999999" d="M862.184,593.225c0.83,0.749,1.617,1.552,2.494,2.238
			c30.878,24.215,45.332,55.734,42.277,95.036c-2.91,37.438-21.277,66.987-47.57,92.317c-21.819,21.022-47.351,36.484-74.925,48.731
			c-20.929,9.296-42.197,10.693-63.445,1.59c-9.288-3.979-18.195-8.978-26.922-14.114c-15.938-9.382-32.647-16.74-51.438-14.774
			c-22.982,2.404-45.861,5.961-68.689,9.622c-28.395,4.553-56.573,10.602-85.063,14.344c-22.695,2.979-45.233,0.533-66.157-10.261
			c-4.806-2.479-8.395-5.86-10.313-10.988c-6.806-18.204-14.202-36.211-20.363-54.631c-8.91-26.637-13.73-54.147-14.044-82.284
			c-0.262-23.487,3.908-46.36,11.114-68.679c13.797-42.726,38.909-77.58,73.552-105.856c20.959-17.108,44.123-29.66,70.85-35.006
			c34.819-6.966,69.11-3.262,102.614,6.934c48.848,14.865,98.493,24.164,149.572,26.289c30.414,1.265,60.189,6.875,88.989,17.082
			c14.813,5.25,28.135,12.489,38.229,25.15c10.98,13.773,15.1,29.072,12.124,46.26c-1.524,8.801-6.327,12.77-15.222,12.665
			c-6.809-0.081-13.607-0.919-20.414-1.386c-8.924-0.612-17.852-1.192-26.777-1.785C862.498,592.22,862.342,592.722,862.184,593.225
			z M795.354,561.001c-32.257-22.814-68.281-32.9-107.742-30.398c-12.178,0.771-24.181,2.647-35.438,7.675
			c-3.285,1.467-6.334,3.461-9.438,6.145c58.005-2.977,113.233,7.181,165.517,32.417c0.444-0.542,0.889-1.084,1.333-1.626
			C804.874,570.431,800.75,564.816,795.354,561.001z"/>
		<path id="Forehead" fill-rule="evenodd" clip-rule="evenodd" fill="#999999" d="M222.593,475.901c0-1.807-0.083-3.617,0.013-5.417
			c1.319-24.699,5.318-48.922,13.198-72.417c12.202-36.385,32.604-67.53,60.272-94.028c2.515-2.408,4.138-2.782,6.876-0.059
			c4.114,4.089,8.688,7.771,13.374,11.208c2.913,2.138,6.395,3.506,9.999,5.421c0.07-1.281,0.135-1.468,0.08-1.61
			c-0.704-1.859-1.44-3.707-2.145-5.566c-8.916-23.585-11.014-47.486-3.36-71.852c4.828-15.373,14.748-27.493,25.293-39.116
			c25.447-28.053,55.59-48.932,92.625-58.572c21.766-5.667,42.836-4.045,62.246,8.567c1.368,0.889,2.858,1.588,4.943,2.736
			c-1.063-9.313-4.551-16.53-9.152-23.336c-3.527-5.217-3.471-5.261,2.041-8.474c0.716-0.417,1.479-0.751,2.208-1.144
			c23.91-12.927,49.2-13.939,75.106-8.32c26.992,5.854,51.654,17.862,76.266,29.844c22.22,10.819,44.313,22.033,68.459,27.891
			c11.876,2.88,24.148,4.232,36.298,5.856c19.803,2.65,34.894,13.757,48.872,26.806c18.705,17.458,33.763,37.77,46.67,59.827
			c2.707,4.628,2.764,7.751-0.273,11.897c-3.648,4.978-6.504,10.471-7.206,16.47c7.642-0.847,14.865-2.215,22.11-2.34
			c19.365-0.335,37.146,4.966,50.629,19.31c14.703,15.646,26.748,33.394,34.791,53.472c5.328,13.301,7.405,26.936,0.432,40.455
			c-6.549,12.696-17.635,21.503-27.482,31.334c-0.859,0.857-3.455,0.652-4.927,0.098c-5.869-2.215-11.505-5.077-17.429-7.115
			c-8.395-2.888-16.969-5.261-25.984-8.013c4.801-5.177,9.852-9.601,13.59-14.944c3.72-5.314,6.12-11.551,9.305-17.786
			c8.303,3.292,12.564,11.243,18.395,18.28c0.598-1.509,1.128-2.503,1.39-3.566c4.477-18.185-7.804-46.208-25.023-57.711
			c-2.773-1.853-4.593-1.898-7.437-0.042c-30.412,19.856-64.383,27.027-100.082,26.409c-14.537-0.252-29.045-2.849-43.542-4.58
			c-6.609-0.788-6.691-1.044-4.642-7.203c3.282-9.864,1.68-19.103-2.916-28.636c-1.434,4.953-2.458,9.316-3.958,13.511
			c-4.566,12.766-12.876,18.704-26.372,18.437c-5.096-0.101-10.158-1.431-15.26-1.969c-4.432-0.468-4.289-2.409-2.405-5.611
			c5.446-9.259,5.973-19.272,3.524-29.413c-0.99-4.097-3.234-7.892-5.421-13.027c-0.983,2.741-1.534,3.797-1.74,4.917
			c-3.702,20.107-18.116,27.797-36.097,28.179c-19.279,0.409-36.665-6.146-52.635-16.021c-30.99-19.166-55.972-45.042-78.923-73.018
			c-8.723-10.63-17.377-21.327-26.444-31.658c-1.664-1.897-5.317-3.339-7.807-3.028c-33.262,4.161-60.825,18.638-80.352,46.438
			c-4.059,5.778-6.268,12.855-9.328,19.333c0.531,0.362,1.063,0.725,1.594,1.087c9.673-8.359,19.638-16.144,32.926-17.828
			c0.19,0.99,0.397,1.48,0.353,1.947c-0.125,1.321-0.274,2.65-0.554,3.946c-3.037,14.074-1.901,27.744,3.629,41.084
			c6.761,16.312,18.614,28.591,31.376,40.193c3.509,3.189,6.949,6.453,11.516,10.702c-12.509,0.034-22.729,3.084-32.278,8.372
			c-5.24,2.9-10.42,5.911-15.603,8.913c-7.592,4.399-15.723,7.848-24.472,7.698c-12.596-0.216-25.189-1.389-37.75-2.523
			c-30.02-2.713-57.684,3.695-80.429,23.853c-13.876,12.298-25.571,27.051-38.313,40.637c-6.893,7.349-13.929,14.563-20.9,21.839
			C223.765,476.583,223.179,476.242,222.593,475.901z M781.654,278.261c-6.898,1.503-11.867,0.192-17.755-3.748
			c-18.021-12.063-38.282-12.988-58.977-9.273c-5.521,0.991-10.992,2.548-16.284,4.417c-3.861,1.364-4.926,0.4-6.031-3.428
			c-4.133-14.322-11.137-27.316-25.723-32.766c-9.214-3.443-15.099-10.223-22.272-15.792c-17.391-13.499-36.933-15.87-57.938-10.742
			c4.73,0.699,9.476,1.312,14.189,2.113c17.381,2.949,32.359,10.981,44.791,23.139c4.82,4.713,9.885,8.223,15.686,11.462
			c12.916,7.214,18.584,20.239,24.18,33.046c1.715,3.924,2.888,8.085,4.503,12.69c1.736-0.768,3.179-1.386,4.606-2.04
			c27.758-12.726,55.497-12.843,83.309-0.082c1.874,0.859,4.587,1.295,6.419,0.611c11.46-4.274,22.114-3.611,31.968,4.097
			c0.175,0.137,0.612-0.062,1.425-0.171C802.756,280.612,790.455,276.345,781.654,278.261z"/>
		<g id="Ears">
			<path id="Ear_1_" fill-rule="evenodd" clip-rule="evenodd" fill="#999999" d="M391.865,100.596
				c7.989,7.604,7.307,18.35,8.589,28.181c11.237-2.843,22.17-5.349,32.944-8.409c10.501-2.982,20.914-6.328,31.212-9.951
				c3.262-1.148,6.03-3.7,9.688-6.033c-1.675-0.911-2.323-1.473-3.059-1.631c-16.483-3.553-31.099-11.388-45.585-19.607
				C411.543,75.139,396.656,69.233,380.424,67c-20.395-2.805-35.718,6.85-40.973,26.859c-3.792,14.437-6.578,29.134-10.121,43.641
				c-3.572,14.629-8.929,28.512-18.37,40.535c-10.733,13.668-25.167,21.951-40.951,28.245c-9.858,3.931-19.803,7.647-29.696,11.491
				c-1.391,0.541-2.731,1.224-4.064,1.903c-4.171,2.125-6.738,5.374-6.78,10.209c-0.042,4.978,2.285,8.512,6.744,10.736
				c10.491,5.234,21.753,5.746,33.119,5.288c5.807-0.234,11.609-0.846,17.382-1.555c6.61-0.813,11.592-4.27,14.06-10.513
				c11.117-28.135,31.058-49.261,53.906-68.054c7.442-6.122,15.218-11.839,22.849-17.731c4.069-3.141,7.076-6.889,7.985-12.179
				C387.527,124.154,389.716,112.465,391.865,100.596z"/>
			<path id="Ear" fill-rule="evenodd" clip-rule="evenodd" fill="#999999" d="M838.195,218.717c1.441,2.306,2.266,3.665,3.127,4.999
				c9.367,14.517,18.924,28.917,27.999,43.613c2.724,4.41,5.804,5.854,10.67,5.006c10.184-1.773,10.159-1.694,12.288-12.859
				c2.47-12.947,8.076-23.573,21.395-28.349c0.721-0.258,1.479-0.413,3.216-0.891c-2.401,4.905-5.065,8.803-6.249,13.108
				c-2.005,7.281-3.752,14.765-4.352,22.263c-0.645,8.057,2.367,14.864,8.793,20.685c20.844,18.886,36.133,42.136,49.001,66.831
				c5.66,10.862,12.021,17.397,25.015,14.928c6.004-1.14,12.303-0.779,18.273-2.029c7.521-1.575,9.033-5.096,4.557-11.253
				c-7.52-10.34-15.695-20.204-23.642-30.231c-7.862-9.924-15.485-19.935-19.347-32.303c-2.638-8.445-3.469-16.902-1.846-25.595
				c5.732-30.704-14.285-51.227-33.465-58.379c-9.021-3.364-18.352-2.304-27.555-0.181c-15.374,3.548-30.666,7.539-46.162,10.429
				C853.235,219.753,846.133,218.717,838.195,218.717z"/>
		</g>
		<path id="Neck" fill-rule="evenodd" clip-rule="evenodd" fill="#999999" d="M521.685,843.953c3.573,1.77,7.012,3.918,10.742,5.247
			c17.058,6.076,34.897,8.205,52.793,9.791c31.546,2.796,63.12,3.445,94.579-0.844c10.097-1.377,20.008-4.123,30.523-6.352
			c-0.96-1.757-1.078-2.36-1.42-2.541c-11.006-5.821-22.184-11.336-33.024-17.448c-18.099-10.205-37.396-11.31-57.12-7.541
			c-15.652,2.992-30.997,7.599-46.646,10.614c-15.474,2.98-31.158,4.865-46.75,7.233c-1.078,0.164-2.152,0.353-3.229,0.529
			C521.983,843.08,521.834,843.517,521.685,843.953z"/>
		<g id="Cheeks">
			<path id="Cheek" fill-rule="evenodd" clip-rule="evenodd" fill="#999999" d="M634.453,382.076
				c-0.773,1.464-1.089,2.187-1.511,2.841c-5.849,9.084-5.63,18.12,0.333,26.995c1.858,2.767,3.539,3.467,6.898,2.412
				c10.891-3.426,20.857-1.894,28.449,7.396c3.879,4.746,7.574,9.726,10.693,14.99c5.042,8.511,9.541,17.343,14.94,27.277
				c-3.748-0.482-6.315-0.608-8.78-1.18c-3.234-0.75-6.438-1.713-9.57-2.821c-45.561-16.107-92.305-24.153-140.766-21.278
				c-2.674,0.158-6.384-2.146-8.161-4.431c-8.215-10.559-12.45-23.002-15.54-35.868c-0.481-2.005-0.945-4.013-1.675-7.115
				c-4.637,4.003-8.543,7.058-12.085,10.49c-15.126,14.662-22.722,31.945-17.297,53.208c1.133,4.439,0.146,6.463-3.786,8.591
				c-30.054,16.26-54.708,38.828-75.554,65.695c-26.195,33.76-46.694,70.748-61.584,110.763
				c-4.628,12.438-7.949,25.361-11.87,38.062c0.48,0.163,0.96,0.325,1.439,0.488c0.768-1.435,1.464-2.912,2.313-4.296
				c9.198-14.995,18.37-30.007,27.695-44.922c1.195-1.913,3.218-3.308,5.436-5.52c0.255,1.772,0.458,2.277,0.368,2.722
				c-0.264,1.302-0.611,2.591-0.987,3.866c-7.042,23.884-9.234,48.298-7.417,73.043c2.432,33.122,10.772,64.929,23.16,95.61
				c7.898,19.563,16.883,38.687,25.456,57.975c5.007,11.264,3.686,20.812-5.607,28.921c-5.545,4.84-11.972,9.091-18.678,12.105
				c-26.591,11.957-54.827,15.59-83.745,15.193c-12.162-0.167-23.306-3.281-33.104-10.705
				c-14.984-11.353-28.03-24.609-38.639-40.127c-28.813-42.145-52.456-87.081-71.633-134.36
				c-12.879-31.751-20.815-64.471-19.165-99.122c2.349-49.327,24.052-86.718,67.557-110.802c5.101-2.823,10.774-4.609,16.182-6.876
				c0.254,0.481,0.508,0.962,0.761,1.443c-3.845,10.098-15.398,12.309-21.797,20.22c0.803,0.272,1.261,0.597,1.663,0.54
				c11.394-1.631,21.725-5.4,28.581-15.349c11.421-16.571,22.748-33.208,33.999-49.895c13.584-20.15,29.942-37.464,53.272-45.763
				c39.254-13.963,79.203-14.185,119.289-3.189c1.647,0.452,3.284,0.946,4.927,1.421c0.345-0.464,0.69-0.929,1.036-1.394
				c-4.813-5.338-9.626-10.677-14.904-16.533C492.337,371.553,562.386,370.448,634.453,382.076z M570.94,403.492
				c3.749,0.145,7.858-3.795,7.864-7.542c0.008-3.689-3.57-7.432-7.248-7.583c-3.904-0.162-7.804,3.574-7.827,7.497
				C563.706,399.638,567.213,403.349,570.94,403.492z M536.758,419.466c-0.104,3.919,3.183,8.358,6.158,8.472
				c3.515,0.133,7.746-4.025,7.771-7.637c0.027-3.735-2.553-5.582-8.592-5.544C539.739,414.835,536.865,415.41,536.758,419.466z
				 M593.23,417.747c-0.632,2.761,4.595,7.716,6.621,6.51c1.92-1.143,3.807-4.229,3.715-6.376c-0.109-2.565-2.337-5.041-3.646-7.556
				c-0.828-0.007-1.656-0.015-2.483-0.022C595.974,412.77,593.841,415.083,593.23,417.747z"/>
			<path id="Cheek_1_" fill-rule="evenodd" clip-rule="evenodd" fill="#999999" d="M955.99,520.373
				c20.878,16.257,33.583,38.123,40.441,63.286c10.392,38.126,7.975,74.837-14.107,108.889
				c-8.272,12.755-15.239,26.115-19.125,40.947c-6.16,23.508-5.531,47.496-5.523,71.479c0.004,10.935,1.148,22.385-1.597,32.704
				c-6.761,25.418-23.32,43.674-46.812,55.469c-36.646,18.401-75.478,25.559-116.236,21.606
				c-16.561-1.604-32.401-5.981-45.988-16.278c-2.111-1.602-3.904-3.622-6.311-5.887c1.723-0.748,2.291-1.065,2.9-1.249
				c20.829-6.282,36.348-19.666,48.994-36.803c5.062-6.858,10.149-13.57,17.816-17.85c5.078-2.835,9.951-6.038,14.928-9.058
				c30.602-18.569,58.123-40.532,78.134-70.799c0.638-0.966,1.72-1.639,2.595-2.448c-1.248,24.114-12.016,44.75-21.161,66.026
				c19.327-13.131,30.161-32.485,38.002-53.466c19.146-51.234,21.241-101.625-10.272-149.821c1.074-0.437,1.938-0.905,2.861-1.143
				c17.055-4.392,25.797-16.121,27.363-32.931c2.469-26.502-6.439-49.446-24.01-69.121c-2.252-2.522-3.471-4.822-3.496-8.284
				c-0.094-12.959-3.583-25.047-10.83-35.831c-6.314-9.396-14.604-16.588-25.434-21.306c-0.921,13.267-2.431,25.86-7.927,37.569
				c-5.995-2.012-11.114-4.03-16.394-5.45c-23.927-6.442-48.581-8.018-73.067-10.736c-8.656-0.96-17.271-2.294-25.905-3.458
				c0.021-0.398,0.042-0.796,0.063-1.193c11.241-7.637,22.481-15.274,34.195-23.233c2.485,3.571,5.112,7.346,7.724,11.099
				c9.672-4.215,12.886-13.516,10.255-30.053c1.673,0,3.302-0.169,4.886,0.026c20.318,2.494,40.772,4.22,60.906,7.765
				c30.571,5.383,54.154,22.224,71.447,47.793c5.506,8.144,9.089,17.203,9.477,27.446c-7.442,0-14.367,0-21.027,0
				C941.252,510.847,949.094,515.003,955.99,520.373z M844.844,433.237c-1.627,0.101-3.833,2.782-4.437,4.712
				c-0.901,2.881,2.631,6.761,5.442,6.104c1.965-0.458,3.585-2.387,4.766-3.235C850.281,435.755,848.379,433.018,844.844,433.237z
				 M853.434,462.738c-0.175,3.338,2.32,5.819,5.686,5.267c1.834-0.3,4.916-3.301,4.632-4.183c-0.71-2.205-3.019-3.896-5.5-6.721
				C855.943,459.678,853.517,461.146,853.434,462.738z"/>
		</g>
	</g>
	<g id="Collar_5_">
		<g id="Collar_6_">
			<path id="Collar_1_" fill-rule="evenodd" clip-rule="evenodd" fill="#333333" d="M74.092,410.334
				c5.859-1.179,11.623-2.62,17.475-3.452c9.386-1.334,18.808-2.561,28.256-3.291c11.943-0.923,16.785,2.407,20.23,13.892
				c6.861,22.871,7.21,45.717-2.432,67.911c-8.364,19.253-15.454,22.542-35.196,15.329c-10.84-3.961-20.877-10.132-31.239-15.382
				c-2.045-1.037-3.917-2.415-6.8-4.217c-3.243,34.239-5.829,67.52,2.836,101.447c3.989-2.997,7.307-5.7,10.834-8.093
				c6.049-4.103,11.969-8.508,18.409-11.897c12.491-6.573,21.347-6.264,37.307,0.325c1.001-1.281,2.118-2.657,3.178-4.076
				c7.066-9.467,14.33-18.798,21.049-28.507c1.943-2.809,3.417-6.766,3.237-10.097c-4.393-81.869,21.405-154.303,68.505-220.078
				c6.97-9.733,14.752-18.883,22.081-28.364c1.192-1.543,2.501-3.326,2.763-5.142c0.167-1.166-1.238-3.449-2.357-3.77
				c-8.928-2.554-17.956-4.76-27.353-7.176c-0.528,4.17-0.81,8.613-1.686,12.937c-6.485,32.026-27.418,49.945-57.817,57.928
				c-15.257,4.006-21.292,0.888-29.163-12.838c-4.118-7.181-8.145-14.413-12.3-21.776C107.306,309.17,73.132,390.453,74.092,410.334
				z"/>
			<path id="Collar_3_" fill-rule="evenodd" clip-rule="evenodd" fill="#333333" d="M431.71,846.638
				c6.638,10.123,11.556,20.805,19.381,28.552c6.259,6.195,15.748,9.608,24.328,12.887c28.615,10.933,58.624,14.87,89.039,15.748
				c50.626,1.46,100.327-4.561,148.749-19.771c16.376-5.145,32.297-11.439,46.754-20.931c1.607-1.055,3.113-2.266,5.848-4.271
				c-5.324-0.363-9.223-0.563-13.109-0.909c-6.629-0.591-13.238-1.418-19.877-1.841c-2.556-0.163-5.391-0.053-7.717,0.882
				c-47.615,19.142-97.208,24.516-147.994,21.185c-48.168-3.158-94.707-13.882-139.784-31.069c-0.933-0.355-1.879-0.683-2.838-0.953
				C434.215,846.068,433.87,846.24,431.71,846.638z"/>
			<path id="Collar_4_" fill-rule="evenodd" clip-rule="evenodd" fill="#333333" d="M434.637,889.454
				c4.522,11.045,8.657,21.481,13.158,31.757c0.624,1.424,2.977,2.756,4.662,2.944c13.359,1.495,26.734,2.951,40.141,3.9
				c7.586,0.538,15.241,0.098,23.629,0.098c-2.076-7.585,0.828-12.238,8.806-14.105
				C493.234,910.837,463.185,902.606,434.637,889.454z"/>
			<path id="Collar_2_" fill-rule="evenodd" clip-rule="evenodd" fill="#333333" d="M87.254,661.021
				c9.351,30.539,27.178,54.516,48.292,76.382c0.52-0.245,1.04-0.49,1.561-0.735c-1.486-5.511-3.149-10.98-4.427-16.539
				c-4.272-18.589-8.359-37.221-12.698-55.793c-0.3-1.282-2.057-3.14-3.179-3.169C107.357,660.912,97.9,661.021,87.254,661.021z"/>
			<path id="Collar" fill-rule="evenodd" clip-rule="evenodd" fill="#333333" d="M185.766,219.533
				c6.76,7.93,15.631,10.901,24.98,12.772c2.937,0.588,4.276-1.478,4.164-4.234c-0.458-11.243,5.767-18.421,14.74-23.599
				c6.021-3.475,12.476-6.196,18.688-9.349c9.377-4.76,11.35-12.778,5.2-22.343C227.928,183.741,206.102,200.188,185.766,219.533z"
				/>
			<path id="Collar_7_" fill-rule="evenodd" clip-rule="evenodd" fill="#333333" d="M184.618,503.901
				c6.025-3.962,12.604-7.327,17.831-12.153c2.392-2.208,2.892-7.283,2.941-11.076c0.458-34.675,6.941-68.211,20.145-100.182
				c14.582-35.313,35.035-66.814,64.19-92.129c6.359-5.521,5.37-16.635-2.31-24.25c-44.905,36.416-74.514,83.076-91.396,137.908
				c-10.063,32.68-18.182,65.876-13.871,100.477C182.972,502.963,183.795,503.432,184.618,503.901z"/>
		</g>
		<g id="Spikes">
			<path id="Spike" fill-rule="evenodd" clip-rule="evenodd" fill="#FFFFFF" d="M171.536,310.089
				c-9.218-14.099-17.997-27.934-22.88-45.204c4.986,4.101,8.923,7.507,13.034,10.688c9.535,7.379,19.798,13.385,31.634,16.36
				c3.173,0.798,5.399,0.511,7.484-2.657c5.708-8.676,8.889-18.127,10.191-28.332c0.569-4.456-1.064-7.398-4.943-9.901
				c-14.993-9.673-31.542-15.595-48.52-20.376c-11.662-3.286-23.541-5.807-35.334-8.623c-1.073-0.256-2.229-0.172-4.404-0.315
				c1.976,7.561,3.583,14.612,5.666,21.52c6.457,21.403,15.127,41.842,27.103,60.8C156.873,314.031,159.31,314.831,171.536,310.089z
				"/>
			<path id="Spike_1_" fill-rule="evenodd" clip-rule="evenodd" fill="#FFFFFF" d="M32.699,443.119
				c8.174,6.472,15.379,13.48,23.766,18.527c14.626,8.804,29.963,16.429,45.047,24.464c1.88,1.001,4.005,1.583,6.061,2.207
				c9.61,2.916,14.637-0.133,16.879-10.161c-16.848-1.872-31.923-8.055-46.317-18.844c8.61,0.594,16.194,2.036,23.593,1.384
				c8.307-0.731,16.466-3.275,24.648-5.203c2.709-0.638,4.178-2.504,3.65-5.534c-1.526-8.773-2.55-17.668-4.688-26.288
				c-1.417-5.707-5.581-8.116-11.445-7.277c-27.13,3.88-53.286,11.046-77.632,23.988C35.41,440.834,34.706,441.562,32.699,443.119z"
				/>
			<path id="Spike_2_" fill-rule="evenodd" clip-rule="evenodd" fill="#FFFFFF" d="M117.737,645.663c0-3.059,0-5.833,0-8.99
				c-12.106-0.844-24.14-1.682-36.173-2.52c-0.155-0.594-0.311-1.188-0.466-1.782c6.238-2.722,12.364-5.752,18.751-8.066
				c5.121-1.856,10.615-2.661,15.814-4.336c1.445-0.466,3.181-2.196,3.507-3.636c2.891-12.757,5.559-25.567,8.069-38.405
				c0.231-1.186-0.721-3.155-1.749-3.94c-4.853-3.703-10.495-3.882-16.177-2.631c-9.668,2.129-17.682,7.515-25.174,13.642
				c-16.237,13.276-29.779,28.94-40.678,46.872c-0.856,1.409-1.585,2.896-2.365,4.332
				C48.614,641.063,101.834,647.679,117.737,645.663z"/>
			<path id="Spike_3_" fill-rule="evenodd" clip-rule="evenodd" fill="#FFFFFF" d="M544.922,925.797
				c-11.717,2.766-11.802,2.795-8.195,13.382c5.572,16.365,13.443,31.443,25.335,44.198c1.132,1.214,2.434,2.274,3.511,3.531
				c2.674,3.122,4.914,2.2,6.582-0.847c3.822-6.979,8.156-13.787,11.021-21.156c4.914-12.636,8.863-25.647,13.684-39.879
				c-7.58-1.181-13.857-2.192-20.149-3.11c-1.304-0.19-2.66-0.056-3.991-0.031c-14.498,0.261-11.115-1.18-12.773,12.467
				c-0.498,4.104-0.158,8.313-0.178,12.473c-0.018,3.964-0.004,7.927-0.004,13.265C550.885,949.638,548.104,937.789,544.922,925.797
				z"/>
			<path id="Spike_4_" fill-rule="evenodd" clip-rule="evenodd" fill="#FFFFFF" d="M419.33,893.221
				c-8.012,6.717-14.782,12.271-21.356,18.046c-0.919,0.807-0.938,2.693-1.271,4.103c-1.164,4.925-2.285,9.859-3.424,14.791
				c-0.543-0.037-1.087-0.074-1.63-0.111c-0.584-4.118-1.167-8.235-1.78-12.563c-4.194,1.888-8.145,3.525-11.932,5.477
				c-0.876,0.451-1.829,2.078-1.682,2.992c2.293,14.22,7.409,27.429,14.983,41.417c8.289-8.106,16.611-15.052,23.401-23.263
				c5.409-6.543,9.425-14.406,13.082-22.145c1.432-3.029,1.133-7.643-0.024-10.96C425.558,904.871,422.203,899.16,419.33,893.221z"
				/>
			<path id="Spike_5_" fill-rule="evenodd" clip-rule="evenodd" fill="#FFFFFF" d="M701.731,903.877
				c-9.409,2.807-18.25,5.442-27.882,8.315c1.504,4.908,2.918,9.522,4.331,14.135c-0.282,0.264-0.565,0.526-0.848,0.789
				c-2.711-2.5-6.03-4.601-7.985-7.594c-2.777-4.251-5.99-5.028-10.379-3.522c-1.24,0.427-2.541,0.678-3.803,1.006
				c1.967,13.019,28.213,40.939,41.85,44.083C703.938,942.598,702.846,923.507,701.731,903.877z"/>
			<path id="Spike_6_" fill-rule="evenodd" clip-rule="evenodd" fill="#FFFFFF" d="M275.326,178.532
				c8.944-2.05,9.952-3.605,8.899-11.646c-0.805-6.134-1.368-12.299-2.039-18.45c0.499-0.127,0.998-0.254,1.497-0.38
				c3.199,5.905,6.398,11.812,9.755,18.006c0.875-0.51,1.849-0.809,2.432-1.459c6.544-7.306,11.247-15.554,13.007-25.348
				c0.678-3.767-0.136-6.609-3.215-9.194c-8.444-7.088-17.278-13.375-28.822-16.624
				C270.265,135.113,272.891,156.566,275.326,178.532z"/>
			<path id="Spike_7_" fill-rule="evenodd" clip-rule="evenodd" fill="#FFFFFF" d="M127.001,815.748
				c11.659,0.739,38.601-4.302,46.534-8.741c-2.172-3.068-3.768-7.727-6.592-8.656c-2.942-0.968-7.068,1.658-10.677,2.713
				c-0.24-0.363-0.479-0.728-0.719-1.091c2.903-2.734,5.807-5.469,9.01-8.487c-3.975-9.063-8.049-18.349-12.616-28.764
				C141.617,780.154,132.279,796.755,127.001,815.748z"/>
		</g>
	</g>
	<g id="Teeth">
		<path id="Tooth_1_" fill-rule="evenodd" clip-rule="evenodd" fill="#FFFFFF" d="M503.787,411
			c-12.199,9.903-16.905,28.916-10.354,41.053c8.359-3.726,16.743-7.462,25.633-11.424C510.248,432.765,506.647,422.321,503.787,411
			z"/>
		<path id="Tooth" fill-rule="evenodd" clip-rule="evenodd" fill="#FFFFFF" d="M888.715,472.792
			c-1.717,5.599-3.414,10.75-4.789,15.984c-0.236,0.898,0.589,2.63,1.438,3.172c5.266,3.36,10.676,6.49,16.093,9.73
			C903.293,491.653,897.66,478.527,888.715,472.792z"/>
	</g>
	<g id="Eyes">
		<g id="Iris_Colored">
			<path id="Eye_Iris" fill-rule="evenodd" clip-rule="evenodd" fill="#CCCCCC" d="M800.514,392.845
				c-2.829-0.127-5.445-0.245-7.986-0.36c-1.838,6.485,1.219,13.94,7.304,18.335c7.419,5.361,19.458,5.06,28.267-0.705
				c6.262-4.099,8.681-10.08,6.985-18.167c-2.813,0.211-5.718,0.428-8.521,0.638c-3.037,10.025-7.506,14.089-14.684,13.561
				C805.98,405.713,802.022,401.263,800.514,392.845z"/>
			<path id="Eye_Iris_1_" fill-rule="evenodd" clip-rule="evenodd" fill="#CCCCCC" d="M525.5,302.831
				c-2.115-2.214-4.953-5.188-7.727-8.093c-11.685,8.268-16.364,25.781-10.891,39.373c5.287,13.126,18.604,20.032,34.459,17.589
				c11.703-1.805,21.302-6.978,27.438-18.275c-3.912-2.417-7.518-4.645-11.09-6.852c-11.322,14.063-23.328,18.153-33.223,11.35
				c-6.004-4.127-9.292-10.257-7.485-17.171C518.577,314.644,522.406,309.121,525.5,302.831z"/>
		</g>
		<g id="Eye_White_4_">
			<path id="Eye_Inner" fill-rule="evenodd" clip-rule="evenodd" fill="#FFFFFF" d="M533.531,321.21
				c3.012-0.235,5.34-1.805,5.383-5.439c0.043-3.686-2.441-5.521-5.737-5.517c-3.46,0.004-5.479,2.292-5.435,5.806
				C527.784,319.418,529.695,321.187,533.531,321.21z"/>
			<path id="Eye_Inner_1_" fill-rule="evenodd" clip-rule="evenodd" fill="#FFFFFF" d="M812.492,393.166c-2.768,0-5.535,0-8.301,0
				c-0.279,0.457-0.557,0.914-0.836,1.371c1.543,1.134,3.104,3.196,4.623,3.166c1.853-0.036,3.67-1.831,5.504-2.865
				C813.152,394.28,812.822,393.722,812.492,393.166z"/>
			<path id="Eye_White_3_" fill-rule="evenodd" clip-rule="evenodd" fill="#FFFFFF" d="M577.057,337.486
				c-1.34,9.469-6.341,15.695-13.975,21.6c20.247,3.754,39.346,4.095,58.516,1.53c0.125-0.478,0.25-0.957,0.376-1.435
				C607.193,352.042,592.413,344.903,577.057,337.486z"/>
			<path id="Eye_White_1_" fill-rule="evenodd" clip-rule="evenodd" fill="#FFFFFF" d="M768.65,388.63
				c3.361,8.164,8.881,11.896,16.352,13.652c0-3.598,0-6.68,0-10.06C779.689,391.056,774.619,389.941,768.65,388.63z"/>
			<path id="Eye_White" fill-rule="evenodd" clip-rule="evenodd" fill="#FFFFFF" d="M838.953,412.875
				c11.904,3.978,24.5,5.466,36.195-2.712c10.561-7.386,13.727-18.458,13.899-30.269c-12.266,3.181-24.245,6.304-36.239,9.375
				c-1.436,0.367-3.164,0.067-4.365,0.759c-1.454,0.836-3.086,2.189-3.604,3.679C842.75,399.72,841.062,405.874,838.953,412.875z"/>
			<path id="Eye_White_2_" fill-rule="evenodd" clip-rule="evenodd" fill="#FFFFFF" d="M507.185,361.363
				c-21.852-20.78-23.935-51.39-2.435-74.999c-12-14.306-25.871-24.754-45.916-23.551c-6.25,0.375-10.658,2.668-13.29,8.623
				c-4.556,10.309-5.835,20.981-2.308,31.565c7.901,23.698,23.103,41.658,44.913,53.854
				C493.642,359.928,499.637,361.813,507.185,361.363z"/>
		</g>
	</g>
	<path id="Nose_Highlight" fill-rule="evenodd" clip-rule="evenodd" fill="#FFFFFF" d="M679.132,396.036
		c29.069-2.627,55.402,6.042,81.651,18.542c-0.784-6.768-4.162-11.091-9.168-13.33c-8.75-3.911-17.711-7.587-26.914-10.184
		c-10.525-2.97-21.387-4.797-32.152-6.853C682.902,382.371,678.439,386.151,679.132,396.036z"/>
	<path id="Chin_Line" fill-rule="evenodd" clip-rule="evenodd" d="M809.586,575.213c-4.712-4.782-8.836-10.396-14.232-14.212
		c-32.257-22.814-68.281-32.9-107.742-30.398c-12.178,0.771-24.181,2.647-35.438,7.675c-3.285,1.467-6.334,3.461-9.438,6.145
		c58.005-2.977,113.233,7.181,165.517,32.417C808.697,576.297,809.142,575.755,809.586,575.213z"/>
	<path id="Forehead_Wrinkle" fill-rule="evenodd" clip-rule="evenodd" d="M807.749,291.794
		c-4.993-11.182-17.294-15.449-26.095-13.534c-6.898,1.503-11.867,0.192-17.755-3.748c-18.021-12.063-38.282-12.988-58.977-9.273
		c-5.521,0.991-10.992,2.548-16.284,4.417c-3.861,1.364-4.926,0.4-6.031-3.428c-4.133-14.322-11.137-27.316-25.723-32.766
		c-9.214-3.443-15.099-10.223-22.272-15.792c-17.391-13.499-36.933-15.87-57.938-10.742c4.73,0.699,9.476,1.312,14.189,2.113
		c17.381,2.949,32.359,10.981,44.791,23.139c4.82,4.713,9.885,8.223,15.686,11.462c12.916,7.214,18.584,20.239,24.18,33.046
		c1.715,3.924,2.888,8.085,4.503,12.69c1.736-0.768,3.179-1.386,4.606-2.04c27.758-12.726,55.497-12.843,83.309-0.082
		c1.874,0.859,4.587,1.295,6.419,0.611c11.46-4.274,22.114-3.611,31.968,4.097C806.499,292.102,806.937,291.904,807.749,291.794z"/>
	<g id="Whiskers">
		<path id="Wisker_4_" fill-rule="evenodd" clip-rule="evenodd" d="M563.729,395.864c-0.023,3.774,3.483,7.484,7.211,7.628
			c3.749,0.145,7.858-3.795,7.864-7.542c0.008-3.689-3.57-7.432-7.248-7.583C567.652,388.205,563.753,391.941,563.729,395.864z"/>
		<path id="Wisker_3_" fill-rule="evenodd" clip-rule="evenodd" d="M542.096,414.756c-2.356,0.079-5.23,0.653-5.338,4.709
			c-0.104,3.919,3.183,8.358,6.158,8.472c3.515,0.133,7.746-4.025,7.771-7.637C550.715,416.566,548.135,414.719,542.096,414.756z"/>
		<path id="Wisker_2_" fill-rule="evenodd" clip-rule="evenodd" d="M597.437,410.302c-1.463,2.467-3.596,4.781-4.206,7.444
			c-0.632,2.761,4.595,7.716,6.621,6.51c1.92-1.143,3.807-4.229,3.715-6.376c-0.109-2.565-2.337-5.041-3.646-7.556
			C599.092,410.318,598.264,410.31,597.437,410.302z"/>
		<path id="Wisker" fill-rule="evenodd" clip-rule="evenodd" d="M850.615,440.818c-0.334-5.063-2.236-7.8-5.771-7.581
			c-1.627,0.101-3.833,2.782-4.437,4.712c-0.901,2.881,2.631,6.761,5.442,6.104C847.814,443.595,849.435,441.666,850.615,440.818z"
			/>
		<path id="Wisker_1_" fill-rule="evenodd" clip-rule="evenodd" d="M858.251,457.101c-2.308,2.577-4.734,4.045-4.817,5.637
			c-0.175,3.338,2.32,5.819,5.686,5.267c1.834-0.3,4.916-3.301,4.632-4.183C863.041,461.617,860.732,459.926,858.251,457.101z"/>
	</g>
</g>
</svg>
