<?xml version="1.0" encoding="utf-8"?>
<!-- Generator: Adobe Illustrator 26.0.1, SVG Export Plug-In . SVG Version: 6.00 Build 0)  -->
<svg version="1.1" id="BD-Body-Head_00000141450106340548527340000009930210577267074441_"
	 xmlns="http://www.w3.org/2000/svg" xmlns:xlink="http://www.w3.org/1999/xlink" x="0px" y="0px" viewBox="0 0 1200 1200"
	 style="enable-background:new 0 0 1200 1200;" xml:space="preserve">
<style type="text/css">
	.st0{fill-rule:evenodd;clip-rule:evenodd;fill:none;}
	.st1{fill:#999999;}
	.st2{fill:#FDFDFD;}
	.st3{fill:#333333;}
	.st4{fill:#191919;}
</style>
<rect id="_x31_200x1200_Background" x="0" y="0" transform="matrix(-1 -4.489576e-11 4.489576e-11 -1 1200 1200)" class="st0" width="1200" height="1200"/>
<g id="BD-Body-Head">
	<path id="Sillowette" d="M414.8,136.1c-18.4-0.2-42,9.4-42,28.6c0,8.1,2.5,28.3,17.7,50.5c-11.8,3-105.3-55.9-98-24.3
		c9.3,39.9,13.1,45.3,25.9,75.2c-16.6,16.6-47.4,44.6-60.3,59.7c-23.7,28-50.5,67.2-70.6,97.4c-32.6,0.6-58-1.4-86.7,3.7
		c-29.5,5.2,16.7,41.1,49.3,68.5c-5.2,11.6-15.6,36.5-21.6,51.1C106.5,599.9,95.2,641.9,83,701c-20.9,12-47.8,30-62.1,42
		c-26.2,22.1,17.7,26.1,64.5,36.5c3.6,24.9,7.1,44.6,21.9,72.4c23.4,44.1,45,63.6,69.1,83.4c-6.4,11.6-16.4,58.7-14.3,85.5
		c0,28.3,33.5,7.3,100.4-33.5c33.5,15.5,106.8,35,178.3,34.4c4.3,25,10.5,59.1,37.4,93.4c23,29.3,64.2-44.7,86.1-102.6
		c70.3-17.3,98.6-22.9,111.7-26.2c33-8.2,63.9-11.6,95.7-6.9c70.8,10.3,102.1,45.6,157.5,28.2c85.2-26.7,109.3-62.4,136-130.9
		c64.5-7.3,77.9-16.4,96.9-35.1c37-36.3,30.1-96.9-7.1-134.5c-4.4-4.4-9-8.6-13.8-12.5c-8.8-7.3-8.8-7.1-1.6-15.6
		c13.9-16.4,21.8-34.8,18.8-56.8c-0.5-3.9-1-8-2.7-11.5c-5-10.4-4.3-20.6-2.6-31.7c5.9-38.6-12.2-71.2-47.8-87.2
		c-5.8-2.6-7.5-5.4-6.4-11.4c2.9-16.3,3.4-32.6-0.3-48.8c-7.9-34.7-30.3-56.8-62.7-68.7c-10.8-4-15.6-8.9-17.1-20.6
		c-2.7-20.3-11.3-38.8-21.5-56.6c-1.2-2.1-2.5-4.3-4.2-7.3c11.7-0.8,22.6-0.3,33.3-2.2c25.5-4.5,40.4-20.3,38.8-42.1
		c-0.9-12.6-7.5-22.9-15.3-32.3c-16.5-19.9-37.7-33.9-60.4-45.5c-28.4-14.5-57.7-27-89.7-31.6c-44.9-6.4-85.3,3.6-118.9,35.3
		c-3.6,3.4-7.4,4.6-12.2,4.3c-16.9-0.9-33.9-1.3-50.8,1c-4.8,0.6-5.1-2.5-6.4-5c-18.9-36.1-47.4-61.3-85.8-75.1
		c-16.1-5.8-32.7-8.8-49.9-6.3c-2.5,0.4-42.1,12.4-54.8,25.1C476.8,148.9,434.5,136.4,414.8,136.1z"/>
	<g id="Gray_Parts">
		<g id="Head">
			<path id="Chin" class="st1" d="M823.6,788.6c2.9,4.1,7.3,6.1,11.6,8.2c10.8,5.3,22.6,7.3,34.3,8.7c34.5,4.3,66.3,15.3,95.2,35
				c6.1,4.2,5.2,6.2,0.7,10.3c-10,9.2-20.9,17.2-32.2,24.7c-10.8,7.2-22.5,12.7-35.5,19.9c35.6,1.8,63.8-11,89.2-31.3
				c4.5-3.6,7.9-4.8,13.4-2.1c10.9,5.4,22.7,8.9,34.6,10.9c7.6,1.3,8.4,3.8,6.1,10.5c-17,49.2-51.1,81.6-98.9,100.1
				c-28.5,11.1-57.9,14.4-86.4,0.7c-28.6-13.7-58.9-19.3-89.8-22.7c-46.6-5.2-93.3-8.8-139.9-13.9c-23.2-2.5-46.5-5.7-68.6-14.3
				c-6.8-2.6-8.9-4.3-3.7-11.3c19.9-27.3,32-58.1,39.7-90.9c5.2-22.3,7.4-44.9,8.5-68.5c10.3,4.8,19.7,9.7,30.1,12.4
				c44.9,11.5,89.4,7.3,132.8-6.3c40.6-12.7,79.8-29.5,119.2-45.6c27.9-11.4,56.6-19,87.2-17.9c25.6,0.9,46.3,11.4,62,31.5
				c11,14.1,19.3,29.8,27.6,45.6c3.1,6,5.5,12.4,10.3,18.4c-3.9-38.4-14.5-61.6-38.5-85.1c-11.9-11.6-11.9-11.6,3.8-17.3
				c51.4-18.4,103.5,5.5,120,55.3c13.5,40.6-7,86.4-52,95.9c-22.3,4.7-44.3,3.8-66.3-1.2c-26.1-6-50.2-17.7-73.4-30.2
				c-44.4-24-93.5-23.4-141.3-29.7C823.6,788.6,823.6,788.6,823.6,788.6z"/>
			<path id="Cheek" class="st1" d="M468.1,572.2c19.6-20,39.1-40,58.5-60.1c30.7-31.7,62.2-62.2,98.9-87.2
				c52.5-35.8,102.5-20.8,135.5,19.1c12.1,14.6,25.1,28.2,37.8,42.3c13.7,15.2,30.9,18.8,50,16.6c12.6-1.4,24.8-5.3,37-8.5
				c13.3-3.5,26.7-7.4,40.8-5.2c24.4,3.8,43.8,16.1,58.9,35.1c21.7,27.3,23,64.6,3.8,90.5c-19.8,26.6-59.4,32.6-79.5,0.1
				c-4.4-7.2-10-13.7-14.7-20.7c-12.7-18.8-30.1-28.8-53-30c-14.1-0.8-28.3-1-42.3-0.2c-29.6,1.7-54.3-5.5-68.6-34.2
				c-1.5-3-4.1-5.4-6.4-7.9c-21.9-23.9-53-30.4-82.6-17.2c-28.4,12.7-45.4,35.6-55.6,64c-16.5,45.9-18.3,93.3-13.1,141.2
				c3.6,33,4.4,65.9-1.2,98.7c-6.7,39.3-20.9,75.4-45.4,107.2c-2.5,3.2-4.5,6.6-9.8,6.6c-56.9-0.2-111.9-9.5-162.8-36.1
				c-54-28.2-76.7-72.1-70-132.5c4.4-39.8,22.1-73.7,46.8-104.3c41.4-51.1,94.6-87.7,150.2-121.1c3.1-1.9,6.5-5.3,11.9-4
				c-12.8,17.1-27.1,32.7-35.1,54.2C463.6,577.3,465.8,574.6,468.1,572.2z"/>
			<path id="Upper_Lip" class="st1" d="M1030.7,598.6c-3.6-2.1-7.1-4.7-9.9-7.8c-3.9-4.2-2.6-13,1.5-14.2
				c32.1-9.6,58.3-26.5,73-57.9c1.9-4,3.6-3,6.3-1.3c18.8,11.7,28,28.7,28.5,50.7c0.5,19.1-8.6,31.1-26.2,37.7
				c-8.9,3.3-17.8,5.3-23.3,5.1C1060.2,611.1,1044.9,606.8,1030.7,598.6z"/>
			<path id="Eye_Lid" class="st1" d="M735.7,348c-17.5,3.5-32,12.7-39.9,28.5c-5.2,10.2-11.7,12.4-21.6,11.8
				c-3.9-0.2-6.3-0.9-8.1-4.4c-9.3-18.5-11.6-37.5-3.8-57.2c3.1-7.8,7.7-14.9,16-17.6c13.7-4.6,27.5-5.2,41.2,0.9
				c18.1,8,31.1,22,45.6,37.6C754,347.5,744.8,346.2,735.7,348z"/>
			<path id="Forehead" class="st1" d="M833.9,201.9c45.7,13,88.1,32.4,120.7,68.3c30.5,33.6,47,72.6,42.2,119
				c-0.6,5.6-1.2,11.4,0.4,18.1c3.7-4.3,6.4-7.9,9.6-11.1c9.9-10.1,19-11.4,31.2-4.6c4.2,2.3,8.3,4.8,12.1,7.8
				c19.7,15.5,27.6,36,26.3,61.4c-37.3-17-74.5-15-112.6-2.9c9.1-24.1,9.8-46.4-3.1-68c-6.9-11.5-16-21.2-25.9-30
				c-23.2-20.8-49.7-38.3-66.3-66c2.9,13.4,10.3,24.2,18.4,34.7c12,15.6,27.6,27.5,41.2,41.4c30.7,31.5,29,68.5,10.4,97.4
				c-1.5,2.3-2.9,6.3-5.8,5.6c-9.2-2.3-19.1,0.8-28-4.4c-27-15.6-49.1-37-69.6-60.1c-22.7-25.6-40.7-55-64.2-79.9
				c-18-19.1-37.2-37.3-65-39.5c-33.8-2.7-55,9.8-62.7,41.8c-5.3,21.9-2.9,42.5,10.5,61.7c-15.3,5.8-29.4,13.4-42.7,22.3
				c-13.4,8.9-26,19-38.2,29.5c-10.6,9.2-20.7,18.9-34.3,24.3c-16.5,6.6-31.8,15.8-47.3,24.5c-47.1,26.5-92.3,55.8-132.9,91.7
				c-22.7,20-43.2,42-61.6,68c-0.2-2.9-0.4-4.2-0.3-5.4c5-39.9,17.2-77,41.8-109.3c3.1-4.1,5-8.4,6-13.7
				c8.1-46.8,30.1-86,66.7-116.5c21.9-18.2,45.9-33.9,66-54.3c27.2-27.8,49.9-57.9,48.7-99.6c-0.1-2.4,0.2-4.2,2.8-5.5
				c15.4-7.8,30.3-16.3,48.3-16.6c5.3-0.1,10.9,0.4,16.3-2.1c-2.5-4.4-6.1-5.3-9.6-6.2c-21-5.7-42-4.9-62.4,2.3
				c-30.5,10.9-59.9,8.7-88.5-5.7c-17.7-9-31.3-22.2-36.9-42c-3.4-11.8-0.1-17.1,11.8-19.2c13.2-2.4,26.5-1.8,39.7-0.6
				c20.4,1.9,39.4-2.2,56.7-13c12.2-7.6,23.9-16,35.9-24.1c27-18.2,55.9-22.7,85.9-9.4c43.9,19.4,73.8,51.9,88,98.2
				c1.7,5.5,2.1,11.5,6.1,16.9c1.9-6.6,3.7-12.5,5.2-18.6c0.6-2.7,0.9-5.7,0.6-8.4c-0.8-6.1,1.5-7.6,7.5-7.2
				c41.3,3.2,76,19.6,103.7,50.8c2.6,2.9,4.7,6.7,10.5,9c-2.1-4.9-3.3-8.3-5-11.4c-8.9-16.9-21.1-31.2-37.6-45
				C816.3,196.2,825.1,199.4,833.9,201.9z"/>
			<path id="Ear" class="st1" d="M896,150.1c39.7,6.1,75.4,22.6,108.8,44.4c12.4,8.1,23.4,17.7,31.4,30.4c8.5,13.4,5.3,22-9.9,25.6
				c-17.6,4.2-35.4,2.3-53-0.2c-2.7-0.4-4.5-2.3-6.3-4.1c-29.6-29-65.1-48-103.7-62.1c-16.7-6.1-33.9-10.2-52.6-14.8
				C837.7,150.4,866.1,145.5,896,150.1z"/>
		</g>
	</g>
	<g id="White_Parts">
		<g id="Spikes">
			<path id="Spike_00000041292950597516356200000002455401688892479400_" class="st2" d="M457.2,985.7c0-10.7,5-17.7,15.2-20.7
				c21.1-6.3,41.4-3.9,60.3,7.4c13.6,8.2,18.1,19.5,13.9,34.7c-9,31.8-23.1,61.2-43.6,87.3c-10.4,13.2-14.7,12.8-23.2-1.4
				c-1.4-2.4-2.7-4.9-3.9-7.5c-12-27.2-18.2-55.7-19.6-85.3C456.7,995.2,457.2,990.4,457.2,985.7z"/>
			<path id="Spike_00000064318660959273555340000011029414718169988529_" class="st2" d="M188.1,946c5.4-16.3,11.9-32.2,22.1-46.3
				c9.7-13.4,15-15,30-8.3c15.9,7,28.6,18,37.7,32.8c7.9,12.9,6.9,21.2-4.3,31.4c-26.5,24-56.8,42.5-88.9,58
				c-8.9,4.3-10,3.3-9.6-6.6C176.2,985.9,181.6,965.8,188.1,946z"/>
			<path id="Spike_00000111175258037863882070000006061723647397937026_" class="st2" d="M45.6,744.2c22.3-16.1,46.8-28.2,71.9-39.2
				c18.1-7.9,36.6-14.6,56.2-17.7c13.7-2.1,19.1,0.6,24.2,13.7c6.3,16.3,6.9,33,1.6,49.7c-3.9,12.2-10.8,17-23.9,17.5
				c-33.2,1.3-65.9-2.6-98.5-8c-13-2.1-26-4.1-38.3-9.5C40.2,747.5,43.1,746,45.6,744.2z"/>
			<path id="Spike" class="st2" d="M192.6,441.7c22.7,2.8,45.1,6.3,66.3,15.8c8.1,3.7,10.6,9.7,9.5,17.7c-1.7,12.9-6.9,24.3-15.7,34
				c-11.8,12.9-20.5,14.7-35.9,6.6c-29.6-15.5-56.6-34.8-83-55.2c-7.8-6-15.5-12.1-23.1-20.9C139.4,437.3,166,438.4,192.6,441.7z"/>
			<path id="Spike_00000098943791795790263770000007251386862308892862_" class="st2" d="M320.4,204.4c25.9,9.3,49.5,23,73.2,36.6
				c13.7,7.8,27.4,15.6,39.1,26.5c7.1,6.7,8.6,14.1,4.5,22.9c-6.8,14.7-17.5,25.4-32.1,32.2c-11.4,5.3-21.6,4.1-31-4.9
				c-12.5-12.1-22.2-26.2-30.9-41.1c-13.5-23.2-25.5-47-32.1-75C315.1,202.8,317.8,203.5,320.4,204.4z"/>
		</g>
		<g id="Teeth">
			<path id="Lower_Big_Teeth" class="st2" d="M601.3,597.3c14.9,17.4,20.5,25.1,34.8,46.5c20.6,29.1,20.9,34.1,47.6,5.5
				c10-10.7,14.3-16.8,28.3-30.9c5.8-6.3,8.3-8.5,15.5,2.1c0.5,0.7,0.7,1.5,1.1,2.3c7.8,14.1,17.8,29.5,26.6,43.1
				c9.4,14.6,17.4,16,31.3,6c11.1-8,19.4-18.9,28.9-28.5c5.9-5.9,11.4-8.6,15.7-2.6c6.8,10.3,13.6,22.7,21,34.1
				c15.7,24.1,24.7,21.5,36.9,7c7.4-8.8,11.3-15.5,19.5-24.6c5.1-5.9,9.3-8.7,16.2,4c5.5,9.2,13.8,27.2,22.5,28.9
				c0,0-14.1,1-16.9,1.5c-21.5,3.8-41.7,11.5-62,19.4c-41.4,16.2-81.9,35.3-125.3,45.9c-34.4,8.4-69.3,11.3-104,2.2
				c-31.4-8.2-46.8-20.6-49.2-52.6c-2.9-38-2.3-75.6,7-114.2C599.1,594.8,600.2,596.1,601.3,597.3z"/>
			<path id="Upper_Big_Teeth" class="st2" d="M805.3,580.4c8.8,0,17.5,0.2,26.3,0c23.5-0.8,41.2,8.2,53.6,28.7
				c11.6,20.2,23.9,29.2,26.6,30.5c-6.7,4-8.5,6.6-11.7,10.4c-9.5,12-12.5,15.7-22.3,26.9c-3.9,3-7.7-0.1-11.6-5.4
				c-8.6-12.2-17.2-28.1-25.5-40c-10.4-13.7-13.4-16.4-30.2-0.3c-8.2,7.7-17.1,18.9-26.1,26c-13.4,10.6-13.6,10.9-21.4-4.6
				c-9.2-15.9-19.8-31.1-28-46.1c-8.5-11.3-17.1-14.2-31.1,1.9c-12,14.8-24.6,29.2-38.6,41.3c-6.7,4.7-8.8-2-14.6-10.1
				c-17.6-22.6-29.8-39.8-45.5-58.3c-2.3-2.7-2.7-5.2-1.2-8.4c5.4-12.1,10.8-24.3,19.7-34.3c19.6-21.8,52.3-34.1,80.1-13.3
				c8.3,6.2,14.3,14.3,19.8,23c12,18.8,29.1,29.7,51.4,31.3c10.1,0.7,20.3,0.1,30.5,0.1C805.3,580,805.3,580.2,805.3,580.4z"/>
			<path id="Small_Tooth" class="st2" d="M1120,667.1c-6.7,6.2-9,9-15.6-2.1c-6.5-12.1-16.4-35.4-25.5-37.5
				c19.7-0.4,36.2-6.9,50.9-18C1138.7,629.4,1135,651.8,1120,667.1z"/>
			<path id="Small_Tooth_00000176745456225691667590000008746361511290254734_" class="st2" d="M1007.1,693.5c-2,1.2-3.8,2-6.2,0.9
				c-7.2-3.2-15-5.3-22.8-5.7c-9.7-0.5-8.2-0.2-12.3,0.1c8-3.5,16.8-23.6,22.8-34.9c5.1-9.5,10.6-13.2,18.7-2.9
				c10.1,12.4,14.3,27.5,25.3,30C1023.6,684.7,1014.2,689,1007.1,693.5z"/>
			<path id="Small_Tooth_00000010275980468834045570000004816705062781485477_" class="st2" d="M1044.7,661.4
				c-7.3,13.3-12.1,11.2-16.6,3.5c-4.7-6.6-10.1-16.9-15.1-22.3c-5.1-5.6-11.2-10.6-16-11.1c5.3-6,11.4-16.8,15.4-23.6
				c0.1-0.2,0.4-0.3,0.8-0.6c16.3,11.9,34.6,18.5,56.2,20.6C1063.2,629.7,1056,642.5,1044.7,661.4z"/>
			<path id="Small_Tooth_00000161626082163409758430000011821844150332903344_" class="st2" d="M966.3,671.4
				c-2.8,4.5-6.2,10.2-10,10.4c-3.5,0.1-8.8-4.6-11.1-8.3c-5.2-8.5-13.2-23.7-16.5-25.6c10.9,3.4,33.9,6.9,55.1-7.1
				C979.3,645,972.4,661.5,966.3,671.4z"/>
			<path id="Small_Tooth_00000131366063733043193380000002377201516829066120_" class="st2" d="M1076.5,637.8
				c6.7,1.1,18.4,34.8,22.1,36.7c-16.6-5-36.7-0.9-52.1,2.5C1050.4,674.6,1067.8,633.5,1076.5,637.8z"/>
		</g>
		<g id="Eye">
			<path id="Eye_White" class="st2" d="M763,364.7c12.4,2.4,23.3,6.4,30.6,18.4c7,10.1,14.9,19.8,22.8,29.4
				c9.7,11.9,15.3,17.6,20,22.5c-11.1-1.2-39.4,12.2-32.6,32.3c-7.5-7.5-12.2-12.7-19.8-22.4c-19.3-24.6-41.2-45.7-72.9-53.5
				c-4.8-1.2-3-3.7-1.4-6.2c9.5-14.7,23.2-21.8,42.3-21.8C754.6,363.8,758.9,363.9,763,364.7z"/>
			<path id="Eye_White_Small" class="st2" d="M867.9,475.3c0.8,6.3-4.4,6.2-8.1,7.6c-2.1,0.8-4.4,1.1-6.6,1.5
				c-6,1.1-9.1-2.1-7.9-8.1c1.2-6.2,5.5-8.8,11.6-8.9C863.3,467.2,867.2,470.1,867.9,475.3z"/>
		</g>
	</g>
	<path id="Collar" class="st3" d="M496.5,257.7c3.9-0.2,3.5,2.9,3.4,5.4c-0.3,13.7-5.6,25.8-12.6,37.2
		c-19.1,31.1-46.7,53.7-75.8,74.7c-46.3,33.4-78.2,76.5-90,133.1c-1.9,8.9-4.7,17-9.8,24.6c-33.4,49.3-45,104.3-42,163
		c0.2,4.3,0.4,8.6-1.1,12.5c-11,27.2-11.9,55.7-9.5,84.2c3.3,38.9,20.6,70.8,51.5,95.2c39.2,30.9,84.7,45.8,133.1,53.9
		c9.2,1.5,18.3,3.3,28.6,5.1c-24.3,10.8-28.3,15.1-31.6,34.7c-1,5.8-1.5,11.8-1.2,17.7c0.4,6.2-2.5,7-7.5,6.8
		c-12.4-0.4-24.8-0.6-37.2-1.7c-37.8-3.4-74.4-11.8-110.1-24.8c-7.7-2.8-7.6-4.2-1.9-9.3c20.1-18.1,22.2-32.2,10-53.8
		c-11.4-20.3-29.1-34.3-50.9-42.4c-18.4-6.8-28.2-3.7-41.1,11.3c-6.9,8-12.1,16.9-16.4,26.5c-2.5,5.7-4.8,7.2-10.1,2.3
		c-8.3-7.6-16.2-15.7-23.4-24.4c-24.7-29.6-40-63.7-47.1-101.5c-0.8-4.3-0.1-6.6,4.7-6.2c2.5,0.2,5.1,0,7.6,0.4
		c20.5,3.3,41.1,3.1,61.7,2.9c16.3-0.2,27.9-8,34.7-22.6c8.8-18.7,9.1-38.3,4.2-57.9c-7.2-28.9-23.3-40.3-52.9-32.4
		c-17.1,4.5-33.7,9.9-50,16.4c-5.5,2.2-6.1-0.2-5.3-4.3c1.2-5.5,3.1-10.8,4.4-16.2c12.2-53.2,31.3-104,53.5-153.7
		c2.7-6.1,5.3-5.9,10.1-2.8c9.5,6,19.3,11.5,28.9,17.4c29.3,18,49.5,5.5,64.1-13.5c8.8-11.5,13.7-24.4,15.9-38.7
		c2.3-15.4-5.3-28.5-19.7-34.4c-12.3-5-25-8.4-37.9-11.6c-4.2-1.1-10.6,0.3-12.1-3.7c-1.6-4.5,3.9-8.2,6.4-12.2
		c29-45.3,63.5-86,102-123.5c4.5-4.4,6.7-4,9.8,1.4c3.9,6.8,8.6,13.2,13.3,19.6c4.7,6.3,9.9,12.3,15.6,17.8
		c13.7,13.3,29.7,15.9,46.9,9.1c18.2-7.2,31.9-20.1,40.9-37.4c9.1-17.5,8.6-34.2-7.4-49.1C461.1,257.5,478.7,258.5,496.5,257.7z
		 M648,976.5c-27.2-3.7-54.2-7-80.7-13.5c-9.7-2.4-19.1-6.3-27.6-11.8c-6.4-4.1-12.6-6.5-20.4-3.9c7.2,4.3,15.6,6.1,22.7,10.8
		c11.8,7.8,19.7,18,22.4,32c0.6,3.3,1.5,5.3,5.3,4.4C595.8,988.9,622.3,984.6,648,976.5z"/>
	<path id="Nose_Tip" class="st4" d="M1015.3,551.6c0,0,57.1-4.5,61.1-65.6c0.4-6.1-58.4-39.3-117.9-2.7
		C1010.1,510.3,1015.3,551.6,1015.3,551.6z"/>
</g>
</svg>
