<?xml version="1.0" encoding="utf-8"?>
<!-- Generator: Adobe Illustrator 26.5.0, SVG Export Plug-In . SVG Version: 6.00 Build 0)  -->
<svg version="1.1" id="Banner_00000002370928143762477440000003144886751426026925_"
	 xmlns="http://www.w3.org/2000/svg" xmlns:xlink="http://www.w3.org/1999/xlink" x="0px" y="0px" viewBox="0 0 1200 630"
	 style="enable-background:new 0 0 1200 630;" xml:space="preserve">
<style type="text/css">
	.st0{fill:#231F20;stroke:#FFFFFF;stroke-width:1.5;stroke-miterlimit:10;}
	.st1{fill:#FFFFFF;}
	.st2{fill:#231F20;}
	.st3{fill:#989898;}
	.st4{fill:#58595B;}
	.st5{fill:#191919;}
	.st6{fill:#3A3B3A;stroke:#989898;stroke-miterlimit:10;}
	.st7{fill:#B0B0B0;stroke:#231F20;stroke-miterlimit:10;}
	.st8{fill:#FFFFFF;stroke:#939598;stroke-width:0.5;stroke-miterlimit:10;}
</style>
<rect width="1200" height="630"/>
<g id="BD_Wrestling_Logo">
	<g id="Banner">
		<path id="White_Banner_Rim" class="st0" d="M216.5,446.6l0-2.8c-0.1-64.2-0.1-186.5,0-214.6l0-2.8l2.8,0.6
			c128.3,26.6,257.3,34.8,368,34.8c58.4,0,111.6-2.3,157-5.4c74.4-5.1,135.8-12.9,174.3-18.5c41.7-6.1,66.1-11,66.3-11.1l2.8-0.6
			v220l-2.8-0.6c-0.2-0.1-24.6-5.2-66.3-11.6c-38.5-5.9-99.9-14-174.3-19.3c-45-3.2-97.9-5.6-155.8-5.6
			c-110.9,0-240.4,8.7-369.2,36.7L216.5,446.6z M221.2,232c-0.1,32.1-0.1,146,0,208.9c86-18.6,179.4-30.1,277.6-34.4
			c79.4-3.5,162.2-2.2,246,3.8c74.5,5.3,136.1,13.4,174.7,19.3c33.7,5.1,56.1,9.5,63.7,11V231.8c-7.5,1.5-30,5.6-63.7,10.6
			c-38.5,5.6-100.1,13.4-174.7,18.5c-83.8,5.7-166.5,7-246,3.7C400.6,260.6,307.2,249.6,221.2,232z"/>
		<g id="WRESTLING_CLUB">
			<g>
				<path id="W-WRESTLING-CLUB_00000133517151542650085400000015009520575294465207_" class="st1" d="M239,289.9
					c0-9.6,0-19.2,0-28.8c8.6,1.4,17.2,2.7,25.8,3.9c0,9.1,0,18.1,0,27.2c-2.2-0.2-4.3-0.4-6.5-0.6c1.1,13.9,2.2,27.7,3.3,41.3
					c3.2-13.7,6.4-27.1,9.6-40.2c3.2,13.7,6.4,27.1,9.6,40.2c1.1-13.1,2.2-26.2,3.3-39.1c-2.2-0.2-4.3-0.4-6.5-0.5
					c0-8.8,0-17.6,0-26.4c8.6,1.2,17.2,2.4,25.9,3.5c0,8.3,0,16.7,0,25c-2.2-0.2-4.3-0.3-6.5-0.5c-2.2,25.2-4.3,50.8-6.5,76.7
					c2.2-0.2,4.3-0.3,6.5-0.5c0,8.5,0,16.9,0,25.4c-8.3,1.1-16.6,2.2-24.9,3.4c0-8.9,0-17.8,0-26.8c1.8-0.2,3.7-0.3,5.5-0.5
					c-2.2-8.6-4.3-17.4-6.5-26.3c-2.2,9-4.3,18.1-6.5,27.4c1.8-0.2,3.7-0.3,5.5-0.5c0,9,0,17.9,0,26.9c-8.3,1.2-16.6,2.4-24.9,3.7
					c0-9.5,0-18.9,0-28.4c2.2-0.2,4.3-0.4,6.5-0.6c-2.2-27.8-4.3-55.9-6.5-84.5C243.3,290.3,241.1,290.1,239,289.9z"/>
				<path id="R-WRESTLING-CLUB_00000145050103143036077300000006741481062741547943_" class="st1" d="M310.5,394.7
					c0-8.2,0-16.5,0-24.7c2.2-0.2,4.3-0.3,6.5-0.5c0-24.4,0-48.7,0-73.1c-2.2-0.2-4.3-0.3-6.5-0.5c0-8.2,0-16.5,0-24.7
					c11.7,1.5,23.3,2.9,35,4.2c3.5,6.5,6.9,12.9,10.4,19.2c0,10.5,0,21.1,0,31.6c-1.3,2.2-2.6,4.5-3.9,6.8c1.3,2.3,2.6,4.5,3.9,6.8
					c0,9,0,18.1,0,27.1c2.2-0.1,4.3-0.3,6.5-0.4c0,7.4,0,14.9,0,22.3c-8.3,0.9-16.7,1.8-25,2.7c0-7.8,0-15.6,0-23.4
					c1.9-0.1,3.7-0.3,5.6-0.4c0-7.7,0-15.4,0-23.1c-4.3,0.1-8.6,0.2-13,0.3c0,7.9,0,15.8,0,23.7c1.9-0.1,3.7-0.3,5.6-0.4
					c0,7.8,0,15.7,0,23.5C327.1,392.7,318.8,393.7,310.5,394.7z M329.9,321.1c4.3,0.1,8.6,0.2,13,0.3c0-7.7,0-15.4,0-23.1
					c-4.3-0.3-8.6-0.6-13-0.9C329.9,305.3,329.9,313.2,329.9,321.1z"/>
				<path id="E-WRESTLING-CLUB_00000132084773823988388640000013655438105166752386_" class="st1" d="M369.2,388.1
					c0-7.3,0-14.7,0-22c2.2-0.1,4.3-0.3,6.5-0.4c0-21.8,0-43.5,0-65.3c-2.2-0.1-4.3-0.3-6.5-0.4c0-7.3,0-14.7,0-22
					c15.1,1.5,30.3,2.9,45.4,4.1c0,10.2,0,20.4,0,30.6c-4.3-0.1-8.7-0.3-13-0.4c0-3.5,0-6.9,0-10.4c-4.3-0.2-8.7-0.5-13-0.7
					c0,7.1,0,14.2,0,21.3c4.3,0.1,8.7,0.2,13,0.2c0,6.9,0,13.9,0,20.8c-4.3,0.1-8.7,0.2-13,0.2c0,7.1,0,14.2,0,21.3
					c4.3-0.2,8.7-0.5,13-0.7c0-3.5,0-6.9,0-10.4c4.3-0.1,8.7-0.3,13-0.4c0,10.2,0,20.4,0,30.6C399.5,385.2,384.3,386.5,369.2,388.1z
					"/>
				<path id="S-WRESTLING-CLUB_00000078011778071758827810000017019456861709703829_" class="st1" d="M421.5,353.2
					c4.3-0.1,8.7-0.3,13-0.4c0,3.3,0,6.6,0,9.9c4.3-0.2,8.7-0.4,13-0.5c0-6.5,0-12.9,0-19.4c-5.2,0.1-10.4,0.1-15.6,0.2
					c-3.5-5.2-6.9-10.6-10.4-16c0-9.4,0-18.8,0-28.2c3.5-5.2,6.9-10.3,10.4-15.3c6.1,0.4,12.1,0.9,18.2,1.3
					c3.5,5.4,6.9,10.7,10.4,15.9c0,4.5,0,8.9,0,13.4c-4.3-0.1-8.7-0.2-13-0.3c0-3.2,0-6.5,0-9.7c-4.3-0.2-8.7-0.4-13-0.5
					c0,6.6,0,13.2,0,19.8c5.1,0.1,10.3,0.1,15.4,0.2c3.5,5.2,7.1,10.3,10.6,15.4c0,8.9,0,17.8,0,26.7c-3.5,5.2-6.9,10.5-10.4,15.9
					c-6.1,0.4-12.1,0.8-18.2,1.3c-3.5-5-6.9-10.2-10.4-15.3C421.5,362.6,421.5,357.9,421.5,353.2z"/>
				<path id="T-WRESTLING-CLUB_00000056420103275938661160000013151920405524777149_" class="st1" d="M480.5,379.6
					c0-6.2,0-12.4,0-18.6c2.2-0.1,4.3-0.1,6.5-0.2c0-18.5,0-37,0-55.5c-2.2-0.1-4.3-0.1-6.5-0.2c0,3.1,0,6.2,0,9.3
					c-4.3-0.1-8.7-0.2-13-0.3c0-9.5,0-18.9,0-28.4c17.3,1,34.7,1.8,52,2.4c0,9,0,18,0,26.9c-4.3-0.1-8.7-0.1-13-0.2c0-3,0-6.1,0-9.1
					c-2.2-0.1-4.3-0.1-6.5-0.2c0,18.3,0,36.5,0,54.8c2.2-0.1,4.3-0.1,6.5-0.2c0,6.1,0,12.1,0,18.2
					C497.8,378.7,489.1,379.1,480.5,379.6z"/>
				<path id="L2-WRESTLING-CLUB_00000022536462936695180570000007796503923253184670_" class="st1" d="M526.4,377.7
					c0-6,0-11.9,0-17.9c2.2,0,4.3-0.1,6.5-0.1c0-17.8,0-35.6,0-53.4c-2.2,0-4.3-0.1-6.5-0.1c0-6,0-11.9,0-17.9
					c8.7,0.3,17.4,0.5,26,0.7c0,5.9,0,11.7,0,17.6c-2.2,0-4.3-0.1-6.5-0.1c0,17.6,0,35.3,0,52.9c4.3-0.1,8.7-0.1,13-0.2
					c0-2.9,0-5.8,0-8.8c4.3,0,8.7-0.1,13-0.1c0,8.7,0,17.5,0,26.2C556.8,376.8,541.6,377.2,526.4,377.7z"/>
				<path id="I-WRESTLING-CLUB_00000015319994468858473930000008623405718542440330_" class="st1" d="M578.9,376.6
					c0-5.8,0-11.6,0-17.4c2.2,0,4.3,0,6.5,0c0-17.4,0-34.8,0-52.2c-2.2,0-4.3,0-6.5,0c0-5.8,0-11.6,0-17.4
					c8.4,0.1,16.7,0.1,25.1,0.1c0,5.8,0,11.6,0,17.4c-1.9,0-3.7,0-5.6,0c0,17.4,0,34.8,0,52.2c1.9,0,3.7,0,5.6,0
					c0,5.8,0,11.6,0,17.4C595.6,376.5,587.3,376.5,578.9,376.6z"/>
				<path id="N-WRESTLING-CLUB_00000015338576346765732840000011383196320984414345_" class="st1" d="M610.9,376.5
					c0-5.8,0-11.6,0-17.4c2.2,0,4.3,0,6.5,0c0-17.4,0-34.8,0-52.3c-2.2,0-4.3,0-6.5,0c0-5.8,0-11.6,0-17.4c6.5,0,13-0.1,19.5-0.2
					c6.5,16.6,13,33.2,19.5,50c0-10.9,0-21.8,0-32.7c-2.2,0-4.3,0.1-6.5,0.1c0-5.9,0-11.7,0-17.6c8.7-0.2,17.4-0.4,26-0.6
					c0,5.9,0,11.9,0,17.8c-2.2,0-4.3,0.1-6.5,0.1c0,23.6,0,47.3,0,70.9c-4.3-0.1-8.7-0.2-13-0.3c-6.5-16.9-13-33.6-19.5-50.3
					c0,10.8,0,21.6,0,32.5c2.2,0,4.3,0,6.5,0.1c0,5.8,0,11.7,0,17.5C628.3,376.7,619.6,376.6,610.9,376.5z"/>
				<path id="G-WRESTLING-CLUB_00000083071469678296425220000018442396241288766357_" class="st1" d="M686.9,378.1
					c-3.5-4.9-6.9-9.8-10.4-14.7c0-20.3,0-40.6,0-60.9c3.5-4.9,6.9-9.7,10.4-14.7c6.1-0.2,12.1-0.5,18.2-0.8
					c3.5,4.7,6.9,9.5,10.4,14.3c0,4.3,0,8.7,0,13c-4.3,0.1-8.7,0.2-13,0.2c0-3.1,0-6.1,0-9.2c-4.3,0.1-8.7,0.2-13,0.3
					c0,18.1,0,36.2,0,54.3c4.3,0.1,8.7,0.2,13,0.3c0-6.1,0-12.2,0-18.3c-2.2,0-4.3,0-6.5-0.1c0-6.1,0-12.1,0-18.2
					c6.5-0.1,13-0.1,19.5-0.2c0,13.6,0,27.2,0,40.8c-3.5,4.8-6.9,9.6-10.4,14.3C699,378.6,692.9,378.4,686.9,378.1z"/>
				<path id="C-WRESTLING-CLUB_00000048489095346157005340000007213850374934718138_" class="st1" d="M769.4,382.7
					c-3.5-5.6-6.9-11-10.4-16.4c0-22.2,0-44.4,0-66.6c3.5-5.4,6.9-10.9,10.4-16.4c6.1-0.4,12.1-0.9,18.2-1.4
					c3.5,5.2,6.9,10.4,10.4,15.8c0,4.9,0,9.7,0,14.6c-4.3,0.1-8.7,0.3-13,0.4c0-3.4,0-6.8,0-10.2c-4.3,0.2-8.7,0.4-13,0.6
					c0,20,0,39.9,0,59.9c4.3,0.2,8.7,0.4,13,0.6c0-3.4,0-6.8,0-10.2c4.3,0.1,8.7,0.3,13,0.4c0,4.9,0,9.7,0,14.6
					c-3.5,5.3-6.9,10.6-10.4,15.8C781.6,383.6,775.5,383.2,769.4,382.7z"/>
				<path id="L1-WRESTLING-CLUB_00000154420648840175146800000000236278257983449756_" class="st1" d="M804.9,385.6c0-7,0-14,0-21
					c2.2,0.1,4.3,0.2,6.5,0.4c0-21.3,0-42.5,0-63.8c-2.2,0.1-4.3,0.2-6.5,0.4c0-7,0-14,0-21c8.7-0.8,17.3-1.6,26-2.5
					c0,7.3,0,14.7,0,22c-2.2,0.1-4.3,0.3-6.5,0.4c0,21.8,0,43.5,0,65.3c4.3,0.3,8.7,0.5,13,0.8c0-3.7,0-7.4,0-11.1
					c4.3,0.2,8.6,0.4,13,0.6c0,11.4,0,22.8,0,34.3C835.2,388.5,820.1,387,804.9,385.6z"/>
				<path id="U-WRESTLING-CLUB_00000134961699353436532660000005181064121025942191_" class="st1" d="M857.2,275.2
					c8.3-0.9,16.7-1.9,25-2.9c0,8.1,0,16.2,0,24.3c-1.9,0.1-3.7,0.3-5.6,0.4c0,24,0,48.1,0,72.1c4.3,0.3,8.6,0.6,12.9,1
					c0-24.7,0-49.4,0-74.1c-1.8,0.1-3.7,0.3-5.5,0.4c0-8.1,0-16.3,0-24.4c8.3-1,16.6-2.1,25-3.2c0,8.6,0,17.1,0,25.7
					c-2.2,0.2-4.3,0.3-6.5,0.5c0,27,0,54.1,0,81.1c-3.5,6.5-6.9,12.8-10.4,18.9c-6-0.8-12.1-1.5-18.1-2.2c-3.5-6.8-6.9-13.4-10.4-20
					c0-25,0-50,0-75c-2.2,0.1-4.3,0.3-6.5,0.4C857.2,290.6,857.2,282.9,857.2,275.2z"/>
				<path id="B-WRESTLING-CLUB_00000102504925761015190440000006840385274665329076_" class="st1" d="M915.9,398.2
					c0-8.7,0-17.4,0-26.1c2.2,0.2,4.3,0.4,6.5,0.5c0-26.4,0-52.9,0-79.3c-2.2,0.2-4.3,0.4-6.5,0.5c0-8.7,0-17.4,0-26.1
					c11.6-1.6,23.3-3.3,34.9-5.1c3.4,7,6.9,14.1,10.3,21.4c0,13.4,0,26.8,0,40.3c-2.2,2.9-4.3,5.8-6.5,8.6c2.2,2.8,4.3,5.7,6.5,8.6
					c0,13.4,0,26.8,0,40.3c-3.4,7.3-6.9,14.4-10.3,21.4C939.2,401.5,927.5,399.8,915.9,398.2z M935.3,319.4
					c4.3-0.1,8.6-0.3,12.9-0.4c0-9.3,0-18.6,0-28c-4.3,0.4-8.6,0.8-12.9,1.2C935.3,301.3,935.3,310.4,935.3,319.4z M935.3,373.8
					c4.3,0.4,8.6,0.8,12.9,1.2c0-9.3,0-18.6,0-28c-4.3-0.1-8.6-0.3-12.9-0.4C935.3,355.7,935.3,364.7,935.3,373.8z"/>
			</g>
		</g>
	</g>
	<g id="BD-Body">
		<path id="Outline" class="st2" d="M836.2,585.9c-1.2-1.4-1.5-3.1-1.5-4.9c0-4.7-1.2-9.2-3-13.5c-2.1-5-5-9.5-9.5-12.8
			c-3.6-2.7-5-7-6.4-11.1c-1-3-1.7-6.1-3.2-8.8c-5.4-9.6-13.1-16.6-22.6-21.8c-4.9-2.7-9.9-5-14.9-7.4c-2.3-1.1-4-2.7-5.2-5.1
			c-4-8.7-9.9-15.9-17.5-21.6c-2.6-1.9-5.3-3.6-8.1-5.4c1.8-1.7,3.8-1.7,5.9-1.8c3.5,0,6.9,0.5,10.4,0.1c5.8-0.7,8.5-6.1,5.5-11.2
			c-0.9-1.5-1.9-2.9-3.1-4c-8.2-8-18-11.6-29.4-10.1c-7.2,1-12.7,4.6-16.1,11.1c-1.2,2.3-1.2,2.3-3.5,1.2
			c-21-9.9-42.1-19.7-62.5-30.9c-0.5-0.3-1-0.6-1.4-1.1c-7.2-9.3-15.5-17.4-25-24.2c-19.6-14-41-20.6-65.1-16.7
			c-8.2,1.3-16,3.9-22.8,9c-0.4,0.3-0.8,0.3-1.2,0.2c-3-0.4-5.9,0.1-8.7,1.1c-6.7,2.5-11.7,6.9-15,13.3c-0.2,0.4-0.3,1-1.1,0.9
			c-3-0.4-5.9-0.3-8.9-0.2c-0.8,0-1.5-0.2-2.1-0.8c-5.9-5.6-13-7.4-20.8-6.3c-5.6,0.8-10.7,3-15.7,5.6c-4,2.1-7.7,4.5-10.6,8.1
			c-1.4,1.7-2.5,3.5-2.7,5.7c-0.3,3.9,2.3,6.7,6.8,7.5c1.9,0.3,3.8,0.2,5.8,0.4c-0.3,0.5-0.5,0.9-0.7,1.3c-1.8,3.1-3.3,6.4-3.8,10
			c-0.3,2.1-1.1,3-3,3.7c-5.7,2.1-9.6,6-11,12.2c-0.6,2.9-0.6,5.8-0.1,8.7c0.2,1.1-0.1,1.6-1.1,2c-6.2,2.8-9.4,8.6-8.4,15.5
			c0.3,2,0.4,3.8-0.5,5.6c-0.3,0.6-0.4,1.3-0.5,2c-0.5,3.9,0.9,7.2,3.3,10.1c1.3,1.5,1.3,1.5-0.3,2.8c-0.8,0.7-1.7,1.4-2.4,2.2
			c-6.5,6.7-7.1,16.8-1.2,23.9c0.9,1.1,0.9,1.8,0.2,2.9c-0.7,0.9-1.2,2-1.6,3c-6,13.7-7,27.9-3.4,42.3c1.4,5.5,3.8,10.5,8.9,13.7
			c0.7,0.4,0.3,0.8,0.2,1.3c-1.2,6.4-0.8,12.8,1.4,19c1.6,4.5,4.6,7.4,9.2,8.4c4.5,1,9.1,1,13.7,0.8c3.4-0.1,6.7-0.8,9.8-2.2
			c1.4-0.6,2.3-2.4,3.6-2.2c1.3,0.2,2.6,1.4,3.9,2c7.8,3.2,16,3.5,24.2,2.3c4.2-0.6,8-2.4,11.7-4c4.3-1.9,6.9-5.4,7-10.3
			c0.1-3.2-1.2-6.1-2.8-8.7c-5.4-8.4-12.7-14.4-21.8-18.1c-4-1.6-8.3-3.2-12.7-1c-0.1-2.3,0.1-4.4,0.9-6.4c0.8-2,2.2-3.1,4.4-3.2
			c2.5-0.1,4.9,0.4,7.3,1.1c6.9,2.2,13.6,5.2,20.5,7.5c8.4,2.8,16.9,5.1,25.7,5.9c9.5,0.9,18.9-0.1,28.2-1.9
			c5.6-1.1,11.2-2.6,16.6-4.5c0.1,0.2,0.1,0.3,0.1,0.3c-0.1,0.7-0.2,1.5-0.2,2.2c-0.3,6,1.5,11,6.6,14.3c3.4,2.2,7.1,2.8,11.1,2.6
			c3.5-0.1,6.8-1.4,10.4-0.2c3.9,1.2,7.6-0.6,10.8-2.9c0.5-0.3,0.8-0.7,1.6-0.4c1.5,0.7,3,0.9,4.6,0.7c1-0.1,1.4,0.1,1.2,1.2
			c-0.2,0.8-0.1,1.7,0,2.5c0.7,8.7,6.8,15,14.5,14.6c0.7,0,0.9,0.4,1.1,0.9c1.8,3.7,4.7,5.9,8.7,6.8c2.6,0.6,5.2,0.6,7.8,0.3
			c8.5-0.7,17-1.5,25.5-1.9c5.1-0.2,10.2-0.2,15.3,0.4c3.2,0.4,6.3,1.6,9.6,2c4.2,0.6,8.3,0.6,12.3-0.7c8.1-2.6,10.6-10,9.8-17.2
			c-0.6-5.7-3.8-9.9-8.4-13c-0.6-0.4-1.1-0.7-0.8-1.6c3-10.9,3-22,1.2-33.1c-0.3-2-0.7-3.9-1.1-6.2c4,2.8,7.8,5.3,11.7,7.7
			c6.3,3.8,12.9,6.4,20.4,6.3c5.9-0.1,11.7-0.6,17.4-1.5c0.5-0.1,1-0.4,1.4,0.3c1.6,3.1,3.2,6.2,4.9,9.4c-3,0.6-5.8,1.2-8.5,2.3
			c-0.5,0.2-0.9,0-1.3-0.1c-5.4-1.2-10.8-2-16.3-1.3c-6.2,0.8-10.6,4.2-11.8,10c-1.8,8.8,0,17,5.1,24.2c3.2,4.5,7.6,7.1,13.2,6.5
			c2.6-0.3,4.8,0,7.3,0.7c6.6,2.1,12.9,0.7,18.8-2.9c0.8-0.5,1.2-0.5,1.8,0.2c1.1,1.1,2.3,1.9,3.7,2.5c5,2.5,10.2,2.7,15.5,1.8
			c8.3-1.5,15.7-4.9,21.6-11.3C840.3,599.3,840.3,590.6,836.2,585.9z M658.6,571.9c-0.5,0.1-0.9,0-1.2-0.4c-0.2-0.3-0.4-0.5-0.6-0.8
			c-1.8-2.6-1.8-2.9,0.8-4.5c3.9-2.4,7.5-5,10.7-8.3c0.2-0.2,0.4-0.3,0.7-0.6c0.6,5.1,0.4,10,1.4,15.1
			C666.4,571.2,662.6,570.8,658.6,571.9z"/>
		<g id="Gray-Parts">
			<g id="Leg-and-Paw">
				<path id="Leg-and-Paw-1" class="st3" d="M482.3,587.5c0.1-0.1,0.2-0.1,0.2-0.2c2.9-4.1,4.5-4.8,9.3-3.6
					c6.7,1.6,12.3,5.4,17.3,10.1c3,2.8,5.7,5.9,7.4,9.7c2.2,4.9,0.3,9.3-4.7,11c-0.7,0.2-1.1,0.1-1.5-0.5c-3.9-6-8.6-11.3-13.9-15.9
					c-1.8-1.6-3.7-3-5.8-4.2c-0.5-0.3-1.1-0.5-1.6-0.7c-0.5-0.2-1.1-0.4-1.5,0.1c-0.4,0.6,0.1,1.1,0.5,1.4c1.7,1.6,3.3,3.3,5.1,4.9
					c5,4.7,9.4,9.8,13,15.8c0.5,0.9,0.6,1.3-0.6,1.6c-7.9,1.6-15.8,1.7-23.6-0.9c-3.1-1-5.7-2.7-7.7-5.5c-1.8-2.6-3.7-5.1-5.9-7.3
					c-0.3-0.3-0.7-1-1.2-0.7c-0.6,0.3-0.2,1-0.1,1.5c1,3.2,2.4,6.1,3.9,9.1c0.6,1.3,0.3,1.9-0.8,2.5c-2,1-4.2,1.6-6.4,1.8
					c-4.8,0.5-9.6,0.5-14.3-0.4c-3.1-0.6-5.3-2.4-6.3-5.5c-2.2-6.8-2.7-13.6,0.1-20.3c1.7-4.1,4.8-6.4,9.3-6.5
					c0.8,0,1.6-0.1,2.6-0.2c-3.5-2.9-8.8-2.7-12.4,0.3c-1,0.9-2,1.9-2.6,3c-0.5,0.8-0.8,0.9-1.5,0.3c-2.8-2.4-4.5-5.5-5.4-9
					c-3.9-14.6-3-28.9,3.8-42.5c0.9-1.9,1-1.9,2.9-1.1c2.8,1.2,5.7,1.6,8.7,1.6c1,0,1.4,0.2,1.6,1.2c3.4,13.3,16,22.6,28.2,23.7
					c2,0.2,4,0,5.9-0.2c0.5-0.1,0.8-0.1,1.2,0.3c1,1.2,2.1,2.4,3.1,3.7c-1,0.4-1.9,0.6-2.8,1.1c-2.7,1.4-4.1,3.7-4.8,6.5
					c-1.2,4.4-0.7,8.6,0.7,12.9C481.7,586.6,481.8,587.1,482.3,587.5z"/>
				<path id="Paw-4" class="st3" d="M608.2,592.8c-3.9,0.6-7.5,0.5-10.8-1.4c-4.5-2.6-5.6-7.6-4.6-12.4c0.1-0.6,0.5-0.7,1-0.6
					c3.5,0.5,7.1,0.9,10.6,0.9c0.7,0,0.9,0.3,0.8,1C604.7,584.7,605.6,588.8,608.2,592.8z"/>
				<path id="Paw-3" class="st3" d="M771.1,578.1c-8.9,6.8-11.4,22-5.4,31.2c-2.6,0.3-4.8-0.5-6.7-2.1c-2.7-2.3-4.3-5.3-5.5-8.6
					c-1.4-4.1-2.1-8.2-1.5-12.6c0.6-4.8,2.9-7.3,7.5-8.2C763.3,577.1,767,577.4,771.1,578.1z"/>
				<path id="Paw-2" class="st3" d="M627.4,583.4c0.1-6.1,0.1-6,5.6-7.3c5.8-1.3,11.4-3.3,16.8-5.8c1-0.5,1.6-0.6,1.9,0.7
					c0.1,0.5,0.4,1.1,0.8,1.5c1.2,1.3,1.1,2.3-0.3,3.4c-1.5,1.2-2.3,2.9-2.8,4.7c-0.2,0.7-0.5,0.9-1.2,1c-5.1,0.6-8.9,3.3-11.6,7.7
					c-0.3,0.6-0.7,0.9-1.3,1c-1.3,0.3-2.6,0.3-3.8,0.1c-2.2-0.3-3.5-2.1-3.8-4.9C627.4,584.6,627.4,583.8,627.4,583.4z"/>
				<path id="Paw-1" class="st3" d="M609.5,582.4c0-3.2,0-3.1,3-3.3c3.3-0.2,6.5-0.5,9.7-0.9c1.2-0.2,1.1,0.3,1,1.1
					c-0.4,2.8-0.5,5.7,0.3,8.5c0.1,0.2,0.1,0.5,0.2,0.7c0.8,2.4,0.8,2.4-1.4,3.6c-6,3-11.9-0.6-12.6-7.7
					C609.6,583.7,609.6,583,609.5,582.4z"/>
			</g>
			<g id="Chest">
				<path id="Chest2" class="st3" d="M549.9,580.2c-8.1,0.1-16-1.5-23.7-3.6c-8.7-2.4-17-6.2-25.6-9c-4.1-1.3-7.4-3.7-10.4-6.7
					c-1-1-0.7-1.4,0.4-1.8c3.9-1.6,8.1-2.2,12.3-2.8c0.8-0.1,1.7-0.1,2.5-0.3c4.5-1.3,8.5,0.7,12.7,1.9c6.5,1.8,13,3.3,19.7,4.4
					c0.7,0.1,1.1,0.4,1.3,1.1c1.3,3.8,3,7.4,5.2,10.8C545.8,576.6,547.3,578.9,549.9,580.2z"/>
				<path id="Chest-1" class="st3" d="M551.9,580.3c4.9-3.4,5.5-8.8,7.2-13.8c6.8,3.9,13.9,6.8,21.7,9.2
					C571.1,578.5,561.7,580,551.9,580.3z"/>
			</g>
			<path id="Tail" class="st3" d="M754.3,467.1c-2.8-0.2-5.6-0.3-8.4,0.3c-2.1,0.4-3.9,1.4-5.3,3c-0.5,0.5-0.8,0.6-1.5,0.3
				c-5.9-2.8-11.8-5.7-17.7-8.4c-0.9-0.4-1-0.8-0.6-1.7c2.4-5.5,6.8-8.7,12.5-9.7c10.3-1.7,19.2,1.6,26.6,8.9c0.9,0.9,1.7,2,2.3,3.1
				c1,2.1,0.1,3.9-2.2,4.1c-1,0.1-2,0.1-3,0.1C756.1,467.3,755.2,467.2,754.3,467.1z"/>
			<path id="Body" class="st3" d="M832.2,588.3c-1.7-1.9-2.1-4.5-2.2-7c-0.1-5.3-1.6-10.3-4-14.9c-1.7-3.2-3.9-5.8-6.8-8
				c-4.2-3.2-6.2-8.1-7.8-13c-1-3-1.7-6.2-3.3-9c-4.5-7.7-10.8-13.6-18.3-18.1c-5.6-3.3-11.5-6-17.4-8.8c-2.8-1.4-5.1-3.2-6.4-6.2
				c-5.2-11.7-13.8-20.1-24.7-26.1c-9.8-5.4-20.1-9.8-30.3-14.6c-16.9-8-33.9-16-50.6-24.6c-1.2-0.6-2.3-1.2-3.5-1.8
				c-0.2,0.5,0,0.6,0.1,0.8c6.1,9.9,10.3,20.6,12.4,32.2c0.3,1.9,0.8,3.9,0.3,5.9c-0.8-0.3-0.8-1-1-1.5c-0.9-2.4-1.8-4.9-2.7-7.3
				c-7.9-22.1-20.2-41.1-38.5-55.9c-12.4-10.1-26.1-17.3-41.9-20c-10.5-1.8-20.9-1.5-31.2,1.3c-4,1.1-7.9,2.6-11.5,4.7
				c-0.3,0.2-1.5,0.3-0.4,1.1c2.6,1.8,5.2,3.5,7.8,5.3c2.4,1.6,5.1,2.3,8,2c2.7-0.3,5.3-0.3,8,0.1c4.2,0.7,6.4,3.9,5.6,8.1
				c-0.3,1.6-0.9,3.1-1.7,4.5c-0.2,0.4-0.9,0.8-0.5,1.3c0.5,0.6,1,0,1.4-0.3c3.2-1.6,6.4-3.5,9.9-4.4c3.2-0.8,4.6,0.6,3.9,3.8
				c-0.6,3.1-1.9,6-3.2,8.9c-0.4,0.9-0.4,1.4,0.3,2c8.4,7.9,15.5,16.9,21.5,26.8c0.4,0.7,0.8,0.8,1.6,0.8c2.1-0.2,4.2-0.4,6.4-0.4
				c2.6,0,5.3-0.1,7.8,0.7c1.6,0.5,2,1.9,1.1,3.4c-0.6,0.9-1.3,1.7-2.1,2.5c-2,1.9-4,3.6-6.2,5.1c-1.1,0.8-1.3,1.3-0.7,2.6
				c5.2,11.1,9.1,22.6,11.3,34.7c0.2,0.8,0.5,1.4,1.3,1.8c2.9,1.6,5.8,3.2,8.3,5.6c2.1,2,1.8,3.8-0.9,4.9c-2.3,0.9-4.6,1.4-7,1.8
				c-0.7,0.1-1.1,0.4-1.2,1.2c-1.5,11.3-6.8,20.5-15.2,27.9c-0.8,0.7-0.9,1.3-0.6,2.3c1,3.4,1.8,6.9,1.6,10.5
				c-0.1,2.8-1.5,3.8-4.2,3.1c-0.6-0.2-1.2-0.4-1.8-0.6c-3.3-1.3-6.3-3.1-9.2-5.1c-0.7-0.5-1.3-0.6-2.2-0.2
				c-4.6,1.9-9.3,3.3-14.1,4.4c-4.2,0.9-8.6,1.3-13.3,1.8c0.7,0.4,1,0.6,1.3,0.8c10.3,5.3,21.2,8.4,32.8,9.4
				c8.4,0.7,16.7,0.5,25-0.9c12.2-2,23.8-5.8,34.3-12.6c3.8-2.5,7.3-5.3,9.9-9.2c0.3-0.5,0.7-1,0.6-1.8c-0.5-2.9-1.3-5.6-2.4-8.3
				c-2.7-6.8-12.6-9.9-18.2-2.6c-0.4,0.6-0.9,1.1-1.3,1.6c-3,4.4-7.3,5.7-12.4,4.9c-3.5-0.6-6-2.6-7.9-5.6c-0.3-0.4-0.6-0.9-0.2-1.4
				c0.4-0.4,0.9,0,1.2,0.2c1.3,0.8,2.7,1.5,4,2.4c4.1,2.6,9.8,0.8,12.1-2.9c0.6-1,1.4-1.9,2.2-2.8c5.3-6.2,11.8-6.8,18.8-2.6
				c4.2,2.5,6.1,6.9,7.3,11.5c1.8,6.6,2,13.5,2.4,20.3c0.3,4.3,0.7,8.5,2.3,12.5c2.2,5.6,5.7,10.3,9.7,14.6c0.5,0.6,1.1,1.1,1.5,2.1
				c-0.5-0.2-0.7-0.3-0.9-0.4c-5.9-3.3-10.4-8-13.5-14c-0.3-0.5-0.5-1-1.1-1.3c-3.3-1.7-6.7-2.7-10.4-2.2c-3.1,0.5-5.8,1.8-7.5,4.6
				c-0.4,0.7-0.4,0.9,0.5,1.2c2.8,0.9,5.3,2.4,7.5,4.4c0.6,0.5,1.3,1.1,1.4,2c-0.5,0.3-1,0.1-1.4-0.1c-1.2-0.4-2.3-0.8-3.5-1.2
				c-3.8-1.2-7.7-1.6-11.6-0.6c-4.1,1.1-6.7,4-7.7,8.2c-1,4.5,0.1,8.6,3.3,11.9c1.3,1.3,2.8,2,4.6,2.3c0.9,0.2,1.4,0,1.3-1.1
				c-0.1-1.1,0.1-2.3,0.2-3.4c0.8-8.6,8.5-11.7,15.3-9c0.8,0.3,1.6,0.7,2.4,1.6c-1.1-0.1-2-0.3-2.9-0.3c-3.8,0-7.5,0.3-9.5,4.4
				c-2.2,4.6-1.4,9,1.3,13.1c1,1.6,2.7,2.3,4.5,2.6c2.7,0.5,5.3,0.4,8,0.1c8.8-0.7,17.6-1.6,26.5-1.9c6.7-0.2,13.4,0,20,1.9
				c3.6,1.1,7.4,1.4,11.2,0.8c4.7-0.7,7.9-3.3,8.9-7.6c1.3-5.9-0.4-10.7-5.1-14.4c-0.8-0.6-1.1-0.7-1.7,0.3c-2,3.2-4.5,5.9-7.5,8
				c-0.5,0.4-1.1,1-1.7,0.5c-0.6-0.5,0-1.2,0.3-1.7c0.6-1,1.2-2.1,1.9-3.1c3.7-5.8,5.9-12.2,6.8-19.1c1.5-10.7,0.3-21.3-2.3-31.8
				c-3.9-15.8-10.8-30.3-20-43.7c-0.5-0.7-1-1.4-1.1-2.4c0.8,0.2,1.3,0.6,1.8,1c2.4,1.9,4.3,4.3,6.1,6.8
				c7.1,9.5,12.1,20.1,15.8,31.3c0.3,0.8,0.5,1.4,1.2,2c4.7,3.4,9.3,6.8,14.3,9.7c3.8,2.2,7.5,4.4,11.9,5.4c4.7,1,9.5,0.8,14.3,0.5
				c4.1-0.3,8.2-0.9,12.2-1.7c1.2-0.2,1.8,0.1,2.4,1.3c2.6,5.2,5.3,10.3,8,15.5c1.1,2.1,1.1,2.1-1.3,2.1c-4.6,0-8.9,1-13,3
				c-8.6,4.2-11.4,12.2-10.6,20.8c0.4,4.1,2,7.7,6,9.4c6,2.7,11.7,1.5,17.2-1.7c0.7-0.4,0.5-0.8,0.2-1.4c-0.8-1.7-1.3-3.5-1.7-5.4
				c-1.6-8.8,1.9-15.3,10-18.1c1.7-0.6,3.5-1,5.4-1c0.3,0,0.8,0.1,0.9,0.4c0.1,0.4-0.3,0.6-0.6,0.7c-0.9,0.4-1.8,0.7-2.7,1.2
				c-5,2.5-8.3,6.2-8.7,12.1c-0.5,7.5,3.6,13.7,10.3,15.2c2.7,0.6,5.5,0.8,8.3,0.4c7.5-1.1,14.2-4,19.7-9.5
				C835,598.7,835.8,592.3,832.2,588.3z"/>
			<g id="Head">
				<path id="Chin" class="st3" d="M492.6,521.1c-8.4,1.1-17,1-24.7,5.3c-4.1,2.2-8.3,4.3-12.9,5.4c-3.9,0.9-7.7,1.1-11.6,0.2
					c-7.9-1.7-11.5-9.8-9.1-17c2.9-8.8,12-13.1,21-9.8c2.8,1,2.8,1,0.7,3.1c-4.2,4.2-6.1,8.3-6.7,15.1c0.8-1.1,1.3-2.2,1.8-3.3
					c1.4-2.8,2.9-5.6,4.8-8.1c2.7-3.6,6.4-5.4,10.9-5.6c5.4-0.2,10.4,1.1,15.3,3.2c6.9,2.9,13.8,5.8,20.9,8.1
					c7.6,2.4,15.4,3.2,23.3,1.1c1.8-0.5,3.5-1.3,5.3-2.2c0.2,4.2,0.6,8.2,1.5,12.2c1.3,5.8,3.5,11.3,7,16.1c0.9,1.3,0.5,1.5-0.7,2
					c-3.9,1.5-7.9,2.1-12,2.5c-8.2,0.9-16.4,1.5-24.5,2.5c-5.4,0.6-10.7,1.6-15.7,4c-5,2.4-10.1,1.8-15.1-0.1
					c-8.4-3.3-14.3-9-17.3-17.8c-0.4-1.2-0.3-1.6,1.1-1.9c2.1-0.4,4.1-1,6.1-1.9c1-0.5,1.6-0.3,2.3,0.4c4.5,3.6,9.4,5.9,15.6,5.6
					c-2.3-1.3-4.3-2.3-6.2-3.5c-2-1.3-3.9-2.8-5.6-4.4c-0.8-0.7-0.9-1.1,0.1-1.8c5.1-3.5,10.6-5.5,16.7-6.2c2.1-0.3,4.1-0.6,6-1.5
					C491.3,522.2,492.1,521.8,492.6,521.1C492.6,521.1,492.6,521.1,492.6,521.1z"/>
				<path id="Cheek" class="st3" d="M556.6,483.8c-1.4-3.8-3.9-6.6-6.2-9.6c0.9-0.2,1.5,0.4,2.1,0.7c9.7,5.9,19.1,12.4,26.3,21.5
					c4.3,5.4,7.4,11.4,8.2,18.5c1.2,10.7-2.8,18.5-12.3,23.5c-8.9,4.7-18.6,6.4-28.5,6.4c-0.9,0-1.3-0.6-1.7-1.2
					c-4.3-5.6-6.8-12.1-8-19c-1-5.8-0.8-11.7-0.2-17.5c0.9-8.5,0.6-16.9-2.3-25.1c-1.8-5-4.8-9.1-9.7-11.4
					c-5.2-2.3-10.6-1.2-14.5,3.1c-0.4,0.4-0.9,0.9-1.1,1.4c-2.5,5.1-6.8,6.4-12,6.1c-2.5-0.1-4.9-0.1-7.4,0c-4,0.2-7.1,2-9.3,5.3
					c-0.8,1.2-1.8,2.4-2.6,3.7c-3.5,5.8-10.5,4.7-13.9,0c-3.4-4.6-3.1-11.2,0.7-16.1c2.6-3.4,6-5.6,10.3-6.2
					c2.5-0.4,4.8,0.3,7.2,0.9c2.1,0.6,4.3,1.3,6.5,1.5c3.3,0.4,6.4-0.3,8.8-3c2.2-2.5,4.5-4.9,6.6-7.5c5.8-7.1,14.5-9.7,23.7-3.4
					c6.4,4.4,12,9.9,17.3,15.5c3.4,3.6,6.8,7.1,10.3,10.7C555.3,483.1,555.7,483.6,556.6,483.8z"/>
				<path id="Upper-Lip" class="st3" d="M447.6,489.5c-1,0-2.5-0.3-4.1-0.9c-3.1-1.2-4.7-3.3-4.6-6.7c0.1-3.9,1.7-6.9,5-9
					c0.5-0.3,0.8-0.5,1.1,0.2c2.6,5.6,7.2,8.6,12.8,10.3c0.7,0.2,0.9,1.8,0.3,2.5c-0.5,0.5-1.1,1-1.7,1.4
					C453.9,488.8,451.2,489.6,447.6,489.5z"/>
				<path id="Eye-Lid" class="st3" d="M502.9,442.8c2.5-2.8,4.8-5.3,8-6.7c2.4-1.1,4.8-1,7.2-0.2c1.5,0.5,2.3,1.7,2.8,3.1
					c1.4,3.5,1,6.9-0.7,10.2c-0.3,0.6-0.7,0.7-1.4,0.8c-1.7,0.1-2.9-0.3-3.8-2.1c-1.4-2.8-3.9-4.4-7-5.1
					C506.4,442.5,504.8,442.8,502.9,442.8z"/>
				<path id="Forehead" class="st3" d="M496,415.9c-2.9,2.5-5,5-6.6,8c-0.3,0.6-0.5,1.2-0.9,2c1-0.4,1.4-1.1,1.8-1.6
					c4.8-5.5,10.9-8.4,18.2-9c1-0.1,1.4,0.2,1.3,1.3c-0.1,0.5,0,1,0.1,1.5c0.3,1.1,0.6,2.1,0.9,3.3c0.7-1,0.8-2,1.1-3
					c2.5-8.2,7.7-14,15.4-17.4c5.3-2.4,10.3-1.6,15.1,1.7c2.1,1.4,4.1,2.9,6.3,4.3c3,1.9,6.4,2.6,9.9,2.3c2.3-0.2,4.6-0.3,7,0.1
					c2.1,0.4,2.7,1.3,2.1,3.4c-1,3.5-3.4,5.9-6.5,7.5c-5,2.6-10.2,2.9-15.5,1c-3.6-1.3-7.3-1.4-10.9-0.4c-0.6,0.2-1.2,0.3-1.7,1.1
					c0.9,0.5,1.9,0.4,2.9,0.4c3.2,0.1,5.8,1.6,8.5,2.9c0.4,0.2,0.5,0.6,0.5,1c-0.2,7.4,3.8,12.8,8.5,17.7c3.5,3.6,7.7,6.4,11.6,9.7
					c6.4,5.4,10.3,12.4,11.7,20.7c0.2,0.9,0.5,1.7,1,2.4c4.3,5.7,6.4,12.3,7.3,19.4c0,0.2,0,0.5,0,1c-3.2-4.6-6.8-8.5-10.8-12.1
					c-7.1-6.4-15-11.6-23.3-16.3c-2.7-1.5-5.4-3.2-8.3-4.4c-2.4-1-4.1-2.7-6-4.3c-2.1-1.9-4.3-3.6-6.7-5.2c-2.3-1.6-4.8-2.9-7.5-4
					c2.3-3.4,2.8-7.1,1.8-11c-1.4-5.7-5.1-7.9-11-7.4c-4.9,0.4-8.2,3.6-11.4,7c-4.1,4.4-7.3,9.6-11.2,14.2
					c-3.6,4.1-7.4,7.9-12.2,10.7c-1.6,0.9-3.3,0.4-4.9,0.8c-0.5,0.1-0.8-0.6-1-1c-3.3-5.1-3.6-11.7,1.8-17.3
					c2.4-2.5,5.1-4.6,7.2-7.4c1.4-1.9,2.7-3.8,3.2-6.2c-2.9,4.9-7.5,8-11.6,11.7c-1.7,1.6-3.3,3.3-4.5,5.3
					c-2.3,3.8-2.1,7.8-0.6,12.1c-6.7-2.1-13.2-2.5-19.7,0.5c-0.2-4.5,1.2-8.2,4.6-10.9c0.7-0.5,1.4-1,2.1-1.4c2.1-1.2,3.7-1,5.5,0.8
					c0.5,0.6,1,1.2,1.7,2c0.3-1.2,0.2-2.2,0.1-3.2c-0.8-8.2,2.1-15.2,7.4-21.1c5.7-6.4,13.1-9.8,21.1-12.1
					C492.4,416.5,493.9,415.9,496,415.9z"/>
				<path id="Ear" class="st3" d="M494.9,411.1c-3.3,0.8-6.3,1.6-9.2,2.6c-6.8,2.5-13,5.9-18.2,11c-0.3,0.3-0.6,0.7-1.1,0.7
					c-3.1,0.5-6.2,0.8-9.3,0c-2.7-0.6-3.2-2.2-1.7-4.5c1.4-2.2,3.3-4,5.5-5.4c5.8-3.9,12.1-6.8,19.1-7.9
					C485.2,406.9,490.2,407.8,494.9,411.1z"/>
			</g>
		</g>
		<g id="White-Parts">
			<g id="Spikes">
				<path id="Spike-5" class="st1" d="M557,558.6c-0.2,5.3-1.3,10.3-3.4,15.2c-0.2,0.5-0.4,0.9-0.7,1.3c-1.5,2.5-2.2,2.6-4.1,0.2
					c-3.6-4.6-6.1-9.8-7.6-15.5c-0.8-2.7,0-4.7,2.4-6.2c3.3-2,6.9-2.4,10.6-1.3c1.8,0.5,2.7,1.8,2.7,3.7
					C556.8,556.9,556.9,557.8,557,558.6z"/>
				<path id="Spike-4" class="st1" d="M606.2,559.9c0.1,1.8-0.1,1.9-1.7,1.2c-5.6-2.8-10.9-6-15.6-10.3c-2-1.8-2.1-3.3-0.8-5.6
					c1.6-2.6,3.8-4.6,6.6-5.8c2.6-1.2,3.6-0.9,5.3,1.5c1.8,2.5,2.9,5.3,3.9,8.2C605.1,552.6,606,556.1,606.2,559.9z"/>
				<path id="Spike-3" class="st1" d="M630.1,514.4c-2.2,1-4.4,1.3-6.7,1.7c-5.7,0.9-11.5,1.6-17.3,1.4c-2.3-0.1-3.5-0.9-4.2-3.1
					c-0.9-3-0.8-5.9,0.3-8.8c0.9-2.3,1.8-2.8,4.2-2.4c3.4,0.5,6.7,1.7,9.8,3.1c4.4,1.9,8.7,4.1,12.6,7
					C629.4,513.5,629.9,513.8,630.1,514.4z"/>
				<path id="Spike-2" class="st1" d="M617.5,459.1c-1.3,1.6-2.7,2.6-4,3.7c-4.6,3.6-9.3,7.1-14.5,9.8c-2.7,1.4-4.2,1.1-6.3-1.2
					c-1.5-1.7-2.5-3.7-2.8-6c-0.2-1.4,0.2-2.5,1.7-3.1c3.7-1.7,7.6-2.3,11.6-2.8C607.8,458.9,612.5,458.7,617.5,459.1z"/>
				<path id="Spike-1" class="st1" d="M582.4,416.9c-1.2,5-3.3,9.2-5.6,13.3c-1.5,2.6-3.2,5.2-5.4,7.3c-1.6,1.6-3.4,1.8-5.4,0.9
					c-2.6-1.2-4.4-3.1-5.6-5.7c-0.7-1.6-0.5-2.9,0.8-4.1c2-1.9,4.4-3.3,6.8-4.7c4.2-2.4,8.3-4.8,12.8-6.5
					C581.2,417.2,581.7,417.1,582.4,416.9z"/>
			</g>
			<g id="Teeth">
				<path id="Tooth-7" class="st1" d="M532.3,486.3c1.6,6.9,1.7,13.5,1.2,20.3c-0.4,5.7-3.1,7.9-8.6,9.3c-6.1,1.6-12.2,1.1-18.2-0.4
					c-7.6-1.9-14.7-5.3-22-8.1c-3.5-1.4-7.1-2.8-10.9-3.5c-0.5-0.1-3-0.3-3-0.3c1.5-0.3,3-3.5,3.9-5.1c1.2-2.3,1.9-1.8,2.8-0.7
					c1.4,1.6,2.1,2.8,3.4,4.4c2.1,2.6,3.7,3,6.5-1.2c1.3-2,2.5-4.2,3.7-6c0.8-1.1,1.7-0.6,2.8,0.5c1.7,1.7,3.1,3.6,5.1,5.1
					c2.4,1.8,3.8,1.5,5.5-1.1c1.5-2.4,3.3-5.2,4.7-7.7c0.1-0.1,0.1-0.3,0.2-0.4c1.3-1.9,1.7-1.5,2.7-0.4c2.5,2.5,3.2,3.6,5,5.5
					c4.7,5.1,4.7,4.2,8.3-1c2.5-3.8,3.5-5.2,6.1-8.3C531.8,486.9,531.9,486.7,532.3,486.3z"/>
				<path id="Tooth-6" class="st1" d="M495.8,484c1.8,0,3.6,0.1,5.3,0c3.9-0.3,6.9-2.2,9-5.6c1-1.5,2-3,3.5-4.1
					c4.9-3.7,10.6-1.5,14,2.4c1.6,1.8,2.5,3.9,3.5,6.1c0.3,0.6,0.2,1-0.2,1.5c-2.8,3.3-4.9,6.3-8,10.4c-1,1.4-1.4,2.6-2.6,1.8
					c-2.5-2.2-4.6-4.7-6.8-7.3c-2.4-2.9-4-2.3-5.4-0.3c-1.4,2.7-3.3,5.4-4.9,8.2c-1.4,2.7-1.4,2.7-3.8,0.8c-1.6-1.3-3.1-3.2-4.6-4.6
					c-3-2.9-3.5-2.4-5.3,0.1c-1.4,2.1-3,4.9-4.5,7.1c-0.7,0.9-1.3,1.5-2,1c-1.7-2-2.2-2.7-3.9-4.8c-0.6-0.7-0.9-1.1-2.1-1.9
					c0.5-0.2,2.6-1.8,4.7-5.4c2.2-3.7,5.3-5.2,9.4-5.1C492.8,484.2,494.3,484.1,495.8,484C495.8,484.1,495.8,484.1,495.8,484z"/>
				<path id="Tooth-5" class="st1" d="M439,489.3c2.6,2,5.5,3.1,8.9,3.2c-1.6,0.4-3.3,4.5-4.5,6.7c-1.2,2-1.6,1.5-2.7,0.4
					C438.1,496.8,437.4,492.8,439,489.3z"/>
				<path id="Tooth-4" class="st1" d="M456,502c1.9-0.4,2.7-3.1,4.4-5.3c1.4-1.8,2.4-1.2,3.3,0.5c1.1,2,2.6,5.6,4,6.2
					c-0.7-0.1-0.5-0.1-2.1,0c-1.4,0.1-2.7,0.4-4,1c-0.4,0.2-0.7,0.1-1.1-0.2C459.2,503.4,457.6,502.6,456,502z"/>
				<path id="Tooth-3" class="st1" d="M449.6,492.6c3.8-0.4,7-1.5,9.8-3.6c0.1,0,0.1,0.1,0.1,0.1c0.7,1.2,1.8,3.1,2.7,4.2
					c-0.8,0.1-1.9,1-2.8,2c-0.9,1-1.8,2.8-2.6,4c-0.8,1.4-1.6,1.7-2.9-0.6C451.9,495.2,450.7,492.9,449.6,492.6z"/>
				<path id="Tooth-2" class="st1" d="M464.6,494.8c3.7,2.5,7.8,1.9,9.7,1.3c-0.6,0.4-2,3-2.9,4.6c-0.4,0.7-1.3,1.5-1.9,1.5
					c-0.7,0-1.3-1-1.7-1.8C466.6,498.5,465.3,495.6,464.6,494.8z"/>
				<path id="Tooth-1" class="st1" d="M453.6,501.3c-2.7-0.6-6.2-1.3-9.1-0.4c0.7-0.3,2.7-6.3,3.9-6.5
					C449.8,493.6,452.9,500.9,453.6,501.3z"/>
			</g>
			<g id="Eye">
				<path id="Eye-White" class="st1" d="M505.1,445.6c3.4,0,5.7,1.3,7.4,3.9c0.3,0.4,0.6,0.9-0.2,1.1c-5.5,1.4-9.4,5.1-12.8,9.5
					c-1.3,1.7-2.2,2.6-3.5,4c1.2-3.6-3.8-6-5.7-5.7c0.8-0.9,1.8-1.9,3.5-4c1.4-1.7,2.8-3.4,4-5.2c1.3-2.1,3.2-2.8,5.4-3.3
					C504,445.7,504.7,445.7,505.1,445.6z"/>
				<path id="Eye-White-Small" class="st1" d="M486.8,464c1.1,0,1.8,0.5,2,1.6c0.2,1.1-0.3,1.6-1.4,1.4c-0.4-0.1-0.8-0.1-1.2-0.3
					c-0.7-0.2-1.6-0.2-1.4-1.3C485,464.5,485.7,464,486.8,464z"/>
			</g>
		</g>
		<path id="Collar" class="st4" d="M559.3,425.9c-2.8,2.6-2.9,5.6-1.3,8.7c1.6,3.1,4,5.4,7.2,6.6c3,1.2,5.8,0.7,8.2-1.6
			c1-1,1.9-2,2.7-3.2c0.8-1.1,1.7-2.3,2.3-3.5c0.5-1,0.9-1,1.7-0.3c6.7,6.7,12.8,13.9,17.9,21.9c0.4,0.7,1.4,1.4,1.1,2.2
			c-0.3,0.7-1.4,0.5-2.1,0.7c-2.2,0.6-4.5,1.2-6.6,2.1c-2.5,1-3.9,3.4-3.5,6.1c0.4,2.5,1.2,4.8,2.8,6.9c2.6,3.4,6.1,5.6,11.2,2.4
			c1.7-1,3.4-2,5.1-3.1c0.8-0.5,1.3-0.6,1.8,0.5c3.9,8.8,7.2,17.8,9.4,27.3c0.2,1,0.6,1.9,0.8,2.9c0.2,0.7,0,1.2-0.9,0.8
			c-2.9-1.2-5.8-2.1-8.8-2.9c-5.2-1.4-8,0.6-9.3,5.7c-0.9,3.5-0.8,7,0.7,10.3c1.2,2.6,3.2,4,6.1,4c3.6,0,7.2,0.1,10.8-0.5
			c0.4-0.1,0.9,0,1.3-0.1c0.9-0.1,1,0.3,0.8,1.1c-1.3,6.7-3.9,12.8-8.3,18c-1.3,1.5-2.6,3-4.1,4.3c-0.9,0.9-1.3,0.6-1.8-0.4
			c-0.7-1.7-1.7-3.3-2.9-4.7c-2.3-2.7-4-3.2-7.2-2c-3.8,1.4-6.9,3.9-8.9,7.5c-2.1,3.8-1.8,6.3,1.7,9.6c1,0.9,1,1.2-0.3,1.7
			c-6.3,2.3-12.7,3.8-19.3,4.4c-2.2,0.2-4.3,0.2-6.5,0.3c-0.9,0-1.4-0.1-1.3-1.2c0.1-1,0-2.1-0.2-3.1c-0.6-3.5-1.3-4.3-5.5-6.2
			c1.8-0.3,3.4-0.6,5-0.9c8.5-1.4,16.5-4.1,23.3-9.6c5.4-4.3,8.4-10,9-16.9c0.4-5.1,0.3-10.1-1.7-15c-0.3-0.7-0.2-1.4-0.2-2.2
			c0.5-10.4-1.5-20.2-7.4-28.9c-0.9-1.4-1.4-2.8-1.7-4.4c-2.1-10-7.7-17.7-15.8-23.6c-5.1-3.7-9.9-7.7-13.3-13.3
			c-1.2-2-2.1-4.2-2.2-6.6c0-0.4-0.1-1,0.6-1C553,427,556.1,426.8,559.3,425.9z M537.1,557.7c0.7,0.1,0.8-0.2,0.9-0.8
			c0.5-2.5,1.9-4.3,3.9-5.7c1.2-0.8,2.7-1.1,4-1.9c-1.4-0.5-2.5,0-3.6,0.7c-1.5,1-3.1,1.7-4.8,2.1c-4.6,1.1-9.4,1.7-14.1,2.4
			C527.9,555.9,532.5,556.7,537.1,557.7z"/>
		<path id="Nose-Tip" class="st5" d="M459,479c0,0-10-0.8-10.7-11.6c-0.1-1.1,10.2-7,20.7-0.5C460,471.7,459,479,459,479z"/>
	</g>
	<g id="BULLDOGS">
		<g id="BULLDOGS-Dark">
			<path id="S_00000004546339839368448630000007185927902318700204_" class="st6" d="M835.5,163.7c1.8-7.9,3.7-15.6,5.4-22.5
				c4.8-17.1,15.4-26.6,23.6-26.7c3.9,0,45.7,0,45.7,0l-7.1,35.4h-25.8l2-8.7h-13.2l-4.2,17.9H881c14.3,0.5,17.6,8.8,14.3,23.3
				c0,0-3.8,15.9-5,21.1c-4,16.7-13,24.5-23.3,24.4c-14.8,0.2-21.8,0-29.1,0c-7,0-11.2,0-16.2,0.1c1.2-4.7,6.9-30.6,8.2-35.7
				l24.1,0.1l-2.7,11.3h14.5l4.8-20.2c0,0-15.3,0.3-19.1,0.3C835.5,183.4,833.8,171,835.5,163.7z"/>
			<path id="G_00000103238432996447080360000018154697045117432737_" class="st6" d="M813.6,227.8c-17.1,0.2-39.2,0-46,0
				c-7.2,0-16.5-3.4-11.7-24.5c4.9-19.6,10.2-43.6,14.9-62.1c4.7-19.5,14.1-26.3,20.4-26.9c8.2-0.3,36.5,0.3,49.9,0.3
				c-6.4,25.4-8.7,33.4-8.7,33.4l-25.1-0.3l1.7-6.5h-13.2L781,203.6h13.5l4.8-21h-6.6l6.1-24.1l31.3,0.5L813.6,227.8z"/>
			<path id="O_00000088134212774854240650000013587612055927786681_" class="st6" d="M752,114.4c-13.4,0-28.2,0.3-32.1,0.3
				c-8.2,0.1-15.3,4.7-20.3,26.4c-4.7,18.4-10,42.7-14.9,62.2c-5.2,20.7,5.1,24.3,11.7,24.4c7.3,0.1,14.3,0.2,29.1,0
				c10.3,0.1,19.2-7.9,23.3-24.4c4.6-19.8,10.4-44.2,15-62.2C767.3,127.3,762.1,114.4,752,114.4z M723.3,203.6h-13.5l14.9-62.4h13.2
				L723.3,203.6z"/>
			<path id="D_00000006702405924172587300000017815303812820839838_" class="st6" d="M681,114.7c-13.5,0-48.9,0-53,0l-6.3,26.4h5.4
				l-14.9,62.4h-5.8l-5,24.2c0,0,37.9,0.2,52.8,0c10.4,0.1,19.3-6.9,23.4-23.7c4.7-19.9,10.8-44.8,15.1-63
				C695.9,127.9,691.1,114.7,681,114.7z M650.1,203.6h-13.5l14.9-62.4h13.2L650.1,203.6z"/>
			<path id="L_00000056386102673885029660000007111918231088763037_" class="st6" d="M554.7,114.7c4.1,0,38.7,0,38.7,0l-6.5,26.4
				h-6.4l-13.8,62.4h9.7l3.7-18.8l23.7-0.2l-9.2,43.3h-65.1l5-24.2h6.9l13.8-62.4h-6.5L554.7,114.7z"/>
			<path id="L_00000034054033382589050580000004397263983453981603_" class="st6" d="M484.8,114.7c4.1,0,36.5,0,36.5,0l-5.4,26.4
				h-6.5l-13.8,62.4h9.7l3.7-18.8l22.6-0.2l-9.2,43.3h-65.1l6.1-24.2h6.9l14.9-62.4h-6.6L484.8,114.7z"/>
			<path id="U_00000057116293265474259200000017225705484017856917_" class="st6" d="M400.8,114.7l-7.1,26.4h7
				c0,0-12,48.3-15.6,66.4c-1.7,8.3,0.3,20.3,9.3,20.3c9.1,0,27.3,0,36.3,0c15.1,0,19.3-19.4,19.3-19.4l16.2-67.3h5.7l6.1-26.4
				h-31.8l-20.9,88.8h-13l20.8-88.9H400.8L400.8,114.7z"/>
			<path id="B_00000025430119880610519190000016050450327695027076_" class="st6" d="M375.8,114.6c-19.2,0.2-54.8,0-54.8,0
				l-6.2,26.5h7l-14.8,62.4h-7.1l-6.3,23.8c0,0,40.2,0.6,54.9,0.4c14.1,0.1,19.6-9.6,21.9-17.4c0.7-3.4,5.6-23.6,6.5-26.9
				c2.2-7.4,0.4-12.7-8.8-14.3c9.5,0.1,12.4-1.5,14.2-8.3c1.5-5.2,3.7-13.7,5.1-19.7C390.6,128.2,391.6,115.4,375.8,114.6z
				 M346.4,203.6h-13l4.7-20.8l13-0.2L346.4,203.6z M356.2,161h-13.1l4.8-19.9h13.2L356.2,161z"/>
		</g>
		<g id="BULLDOGS-Light">
			<path id="S" class="st7" d="M829.4,157.8c1.8-7.9,3.7-15.6,5.4-22.5c4.8-17.1,15.4-26.6,23.6-26.7c3.9,0,45.7,0,45.7,0l-7.1,35.4
				h-25.8l2-8.7h-13.3l-4.2,17.9h19.1c14.3,0.5,17.6,8.8,14.3,23.3c0,0-3.8,15.9-5,21.1c-4,16.7-13,24.5-23.3,24.4
				c-14.8,0.2-21.8,0-29.1,0c-7,0-12.8,0-17.9,0.1c1.2-4.7,7.3-30.6,8.5-35.7l25.4,0.1l-2.7,11.3h14.5l4.8-20.2
				c0,0-15.3,0.3-19.1,0.3C829.4,177.6,827.7,165.1,829.4,157.8z"/>
			<path id="G" class="st7" d="M807.5,222c-17.1,0.2-39.2,0-46,0c-7.2,0-16.5-3.4-11.7-24.5c4.9-19.6,10.2-43.6,14.9-62.1
				c4.7-19.5,14.1-26.3,20.4-26.9c8.2-0.3,36.5,0.3,49.9,0.3c-6.4,25.4-8.7,33.4-8.7,33.4l-25-0.3l1.7-6.5h-13.2L775,197.7h13.5
				l4.8-21h-6.6l6.1-24.1l31.2,0.4L807.5,222z"/>
			<path id="O" class="st7" d="M745.9,108.6c-13.4,0-28.2,0.3-32.1,0.3c-8.2,0.1-15.3,4.7-20.3,26.4c-4.7,18.4-10,42.7-14.9,62.2
				c-5.2,20.7,5.1,24.3,11.7,24.4c7.3,0.1,14.3,0.2,29.1,0c10.3,0.1,19.2-7.9,23.3-24.4c4.6-19.8,10.4-44.2,15-62.2
				C761.2,121.4,756,108.6,745.9,108.6z M717.1,197.7h-13.5l14.9-62.4h13.2L717.1,197.7z"/>
			<path id="D" class="st7" d="M674.8,108.9c-13.5,0-48.9,0-53,0l-6.3,26.4h5.4l-14.9,62.4h-5.8l-5.2,24.4c0,0,38.1,0.1,53-0.1
				c10.4,0.1,19.3-6.9,23.4-23.7c4.7-19.9,10.9-44.8,15.2-63C689.7,122.1,684.9,108.9,674.8,108.9z M643.9,197.7h-13.5l14.9-62.4
				h13.2L643.9,197.7z"/>
			<path id="L" class="st7" d="M548.6,108.9c4.1,0,38.7,0,38.7,0l-6.5,26.4h-6.4l-13.8,62.4h9.7l3.7-18.8l23.7-0.2l-9.2,43.3H523
				l5.1-24.2h7l13.8-62.4h-6.5L548.6,108.9z"/>
			<path id="L_00000005961750670012436270000000948459104063206293_" class="st7" d="M478.6,108.9c4.1,0,36.5,0,36.5,0l-5.4,26.4
				h-6.5l-13.9,62.4h9.7l3.7-18.8l22.6-0.2l-9.2,43.3H451l6.1-24.2h6.9l14.9-62.4h-6.5L478.6,108.9z"/>
			<path id="U" class="st7" d="M394.6,108.9l-7,26.4h7c0,0-12,48.3-15.6,66.4c-1.7,8.3,0.3,20.3,9.3,20.3c9.1,0,27.3,0,36.3,0
				c15.1,0,19.3-19.4,19.3-19.4l16-67.4h5.7l6.1-26.4H440l-21,88.8h-13l20.7-88.8H394.6z"/>
			<path id="B" class="st7" d="M369.6,108.8c-19.2,0.2-54.8,0-54.8,0l-6.2,26.5h7l-14.8,62.4h-7.1l-6.3,23.8c0,0,40.2,0.6,54.9,0.4
				c14.1,0.1,19.6-9.6,21.9-17.4c0.7-3.4,5.6-23.6,6.5-26.9c2.2-7.4,0.4-12.7-8.8-14.3c9.5,0.1,12.4-1.5,14.2-8.3
				c1.5-5.2,3.7-13.7,5.1-19.7C384.5,122.3,385.4,109.6,369.6,108.8z M340.2,197.7h-13l4.7-20.8l13-0.2L340.2,197.7z M350.1,155.2
				H337l4.8-19.9H355L350.1,155.2z"/>
		</g>
	</g>
	<g id="SOUTHERN-ILLINOIS">
		<path id="S2-SOUTHERNILLINOIS" class="st8" d="M195.6,51.7h12.6V58h12.6V45.4h-15.1l-10.1-10.1V17.6l10.1-10.1h17.7l10.1,10.1v8.8
			h-12.6v-6.3h-12.6v12.6h15l10.3,10.1v17.7l-10.1,10.1h-17.7l-10.1-10.1V51.7z"/>
		<path id="O2-SOUTHERNILLINOIS" class="st8" d="M250.3,70.6l-10.1-10.1V17.6l10.1-10.1H268l10.1,10.1v42.9L268,70.6H250.3z
			 M252.8,58h12.6V20.1h-12.6V58z"/>
		<path id="U-SOUTHERNILLINOIS" class="st8" d="M284.8,7.5h24.3v12.6h-5.4V58h12.6V20.1h-5.4V7.5h24.3v12.6h-6.3v40.4l-10.1,10.1
			h-17.7l-10.1-10.1V20.1h-6.3V7.5z"/>
		<path id="T-SOUTHERNILLINOIS" class="st8" d="M354.6,70.6V58h6.3V20.1h-6.3v6.3H342V7.5h50.5v18.9h-12.6v-6.3h-6.3V58h6.3v12.6
			H354.6z"/>
		<path id="H-SOUTHERNILLINOIS" class="st8" d="M399.2,70.6V58h6.3V20.1h-6.3V7.5h24.3v12.6h-5.4v12.6h12.6V20.1h-5.4V7.5h24.3v12.6
			h-6.3V58h6.3v12.6h-24.3V58h5.4V45.4h-12.6V58h5.4v12.6H399.2z"/>
		<path id="E-SOUTHERNILLINOIS" class="st8" d="M456.4,70.6V58h6.3V20.1h-6.3V7.5h44.2v18.9h-12.6v-6.3h-12.6v12.6h12.6v12.6h-12.6
			V58h12.6v-6.3h12.6v18.9H456.4z"/>
		<path id="R-SOUTHERNILLINOIS" class="st8" d="M507.2,70.6V58h6.3V20.1h-6.3V7.5h34.1l10.1,10.1v17.7l-3.8,3.8l3.8,3.8V58h6.3v12.6
			h-24.3V58h5.4V45.4h-12.6V58h5.4v12.6H507.2z M526.2,32.7h12.6V20.1h-12.6V32.7z"/>
		<path id="N2-SOUTHERNILLINOIS" class="st8" d="M564.4,70.6V58h6.3V20.1h-6.3V7.5h18.9l18.9,36.1V20.1H596V7.5h25.2v12.6h-6.3v50.5
			h-12.6l-18.9-36.1V58h6.3v12.6H564.4z"/>
		<path id="I3-SOUTHERNILLINOIS" class="st8" d="M663.5,70.6V58h6.3V20.1h-6.3V7.5h24.3v12.6h-5.4V58h5.4v12.6H663.5z"/>
		<path id="L-SOUTHERNILLINOIS" class="st8" d="M694.6,70.6V58h6.3V20.1h-6.3V7.5h25.2v12.6h-6.3V58h12.6v-6.3h12.6v18.9H694.6z"/>
		<path id="L-SOUTHERNILLINOIS_00000180327677329662313850000015415238339770089643_" class="st8" d="M745.4,70.6V58h6.3V20.1h-6.3
			V7.5h25.2v12.6h-6.3V58H777v-6.3h12.6v18.9H745.4z"/>
		<path id="I2-SOUTHERNILLINOIS" class="st8" d="M796.3,70.6V58h6.3V20.1h-6.3V7.5h24.3v12.6h-5.4V58h5.4v12.6H796.3z"/>
		<path id="N1-SOUTHERNILLINOIS" class="st8" d="M827.4,70.6V58h6.3V20.1h-6.3V7.5h18.9l18.9,36.1V20.1h-6.3V7.5h25.2v12.6h-6.3
			v50.5h-12.6l-18.9-36.1V58h6.3v12.6H827.4z"/>
		<path id="O1-SOUTHERNILLINOIS" class="st8" d="M901,70.6l-10.1-10.1V17.6L901,7.5h17.7l10.1,10.1v42.9l-10.1,10.1H901z M903.5,58
			h12.6V20.1h-12.6V58z"/>
		<path id="I1-SOUTHERNILLINOIS" class="st8" d="M935.5,70.6V58h6.3V20.1h-6.3V7.5h24.3v12.6h-5.4V58h5.4v12.6H935.5z"/>
		<path id="S1-SOUTHERNILLINOIS" class="st8" d="M966.5,51.7h12.6V58h12.6V45.4h-15.1l-10.1-10.1V17.6l10.1-10.1h17.7l10.1,10.1v8.8
			h-12.6v-6.3h-12.6v12.6h15l10.3,10.1v17.7l-10.1,10.1h-17.7l-10.1-10.1V51.7z"/>
	</g>
</g>
</svg>
