<?xml version="1.0" encoding="utf-8"?>
<!-- Generator: Adobe Illustrator 26.5.0, SVG Export Plug-In . SVG Version: 6.00 Build 0)  -->
<svg version="1.1" id="BD-Banner-Logo" xmlns="http://www.w3.org/2000/svg" xmlns:xlink="http://www.w3.org/1999/xlink" x="0px"
	 y="0px" viewBox="0 0 600 600" style="enable-background:new 0 0 600 600;" xml:space="preserve">
<style type="text/css">
	.st0{opacity:0;fill:none;}
	.st1{fill:#010101;stroke:#010101;stroke-width:5;stroke-miterlimit:10;}
	.st2{fill:#B0B0B0;}
	.st3{fill:#FFFFFF;}
	.st4{fill:#010101;}
	.st5{fill:#989898;}
	.st6{fill:#333333;}
	.st7{fill:#191919;}
	.st8{fill:#3A3B3A;stroke:#989898;stroke-miterlimit:10;}
	.st9{fill:#B0B0B0;stroke:#231F20;stroke-miterlimit:10;}
	.st10{fill:#3A3B3A;}
</style>
<rect id="Background" class="st0" width="600" height="600"/>
<g id="Banner-Logo">
	<g id="BD_Wrestling_Logo">
		<g id="Banner">
			<path id="Banner-Background" class="st1" d="M31.8,245.3l-0.6,140.5c0,0,228.5-57.5,537.5,0c0,0,0-93.2,0-141.2
				C262.1,300,31.8,245.3,31.8,245.3z"/>
			<path id="Banner-Rim" d="M23.1,396.3l0-2.1c-0.1-47.2-0.1-137,0-157.7l0-2.1l2,0.4c92.1,19.5,184.8,25.6,264.3,25.6
				c41.9,0,80.2-1.7,112.8-4c53.4-3.7,97.6-9.4,125.2-13.6c29.9-4.5,47.4-8.1,47.6-8.1l2-0.4v161.6l-2-0.4c-0.2,0-17.7-3.8-47.6-8.5
				c-27.6-4.3-71.8-10.3-125.2-14.2c-32.3-2.4-70.3-4.1-111.9-4.1c-79.7,0-172.7,6.4-265.1,27L23.1,396.3z M26.4,238.6
				c-0.1,23.6-0.1,107.3,0,153.5c61.8-13.6,128.8-22.1,199.4-25.3c57-2.5,116.5-1.6,176.7,2.8c53.5,3.9,97.8,9.9,125.4,14.2
				c24.2,3.8,40.3,7,45.7,8.1V238.5c-5.4,1.1-21.5,4.1-45.7,7.8c-27.7,4.1-71.9,9.9-125.4,13.6c-60.2,4.2-119.6,5.1-176.6,2.7
				C155.3,259.7,88.2,251.6,26.4,238.6z"/>
			<g id="WRESTLING-CLUB">
				<g>
					<g id="W-WRESTLING_00000083793163176090642370000001255325858078298785_">
						<path class="st2" d="M65.1,360.3c0-6.1,0-12.1,0-18.2c1.4-0.1,2.7-0.2,4.1-0.4c-1.8-7-3.5-14.1-5.3-21.3
							c-1.8,7.3-3.5,14.7-5.3,22.3c1.4-0.1,2.7-0.2,4.1-0.4c0,6.1,0,12.2,0,18.3c-5.6,0.8-11.3,1.6-16.9,2.5c0-6.4,0-12.9,0-19.3
							c1.6-0.1,3.1-0.3,4.7-0.4c-1.6-20.2-3.1-40.7-4.7-61.4c-1.5-0.1-3.1-0.3-4.6-0.4c0-6.5,0-13.1,0-19.6
							c5.8,0.9,11.7,1.8,17.5,2.7c0,6.2,0,12.4,0,18.6c-1.6-0.1-3.1-0.3-4.7-0.4c0.9,11.2,1.8,22.3,2.7,33.4
							c2.4-10.2,4.8-20.1,7.1-29.9c2.4,10.1,4.8,20,7.1,29.8c0.9-10.6,1.8-21.1,2.7-31.5c-1.6-0.1-3.1-0.3-4.7-0.4c0-6,0-12,0-18
							c5.9,0.8,11.7,1.6,17.6,2.4c0,5.7,0,11.4,0,17.1c-1.5-0.1-3.1-0.2-4.6-0.4c-1.6,18.4-3.1,37-4.7,55.9c1.6-0.1,3.1-0.3,4.7-0.4
							c0,5.8,0,11.6,0,17.3C76.3,358.7,70.7,359.5,65.1,360.3z"/>
						<path class="st3" d="M86.1,268.8c0,5.4,0,10.8,0,16.3c-1.2-0.1-2.4-0.2-3.6-0.3c-0.3,0-0.6-0.1-0.9-0.1c0,0.3,0,0.5-0.1,0.8
							c-1.5,18.1-3.1,36.5-4.6,55.1c0,0.3-0.1,0.6-0.1,1c0.4,0,0.7-0.1,1.1-0.1c1.2-0.1,2.4-0.2,3.6-0.3c0,5.5,0,11,0,16.5
							c-5.3,0.7-10.6,1.4-15.9,2.2c0-5.8,0-11.5,0-17.3c1-0.1,2-0.2,3-0.3c0.4,0,0.8-0.1,1.2-0.1c-0.1-0.4-0.2-0.7-0.3-1.1
							c-1.5-6.2-3.1-12.4-4.6-18.8c-0.3-1.3-0.6-2.7-1-4c-0.3,1.3-0.6,2.7-1,4c-1.5,6.5-3.1,13-4.6,19.7c-0.1,0.4-0.2,0.8-0.3,1.2
							c0.4,0,0.8-0.1,1.2-0.1c1-0.1,2-0.2,3-0.3c0,5.8,0,11.6,0,17.4c-5.3,0.8-10.6,1.5-15.9,2.3c0-6.1,0-12.2,0-18.3
							c1.2-0.1,2.4-0.2,3.6-0.3c0.4,0,0.7-0.1,1.1-0.1c0-0.3-0.1-0.7-0.1-1c-1.5-19.8-3.1-40-4.6-60.4c0-0.3,0-0.6-0.1-0.9
							c-0.3,0-0.6-0.1-0.9-0.1c-1.2-0.1-2.4-0.2-3.6-0.4c0-6.2,0-12.4,0-18.6c5.5,0.9,11,1.7,16.6,2.5c0,5.9,0,11.8,0,17.6
							c-1.2-0.1-2.4-0.2-3.6-0.3c-0.4,0-0.7-0.1-1.1-0.1c0,0.3,0.1,0.7,0.1,1c0.8,10,1.6,19.9,2.4,29.7c0.2,2.1,0.3,4.2,0.5,6.3
							c0.5-2.1,1-4.1,1.5-6.2c2-8.4,3.9-16.7,5.9-24.8c2,8.4,3.9,16.7,5.9,24.8c0.5,2,1,4,1.5,5.9c0.2-2,0.3-4,0.5-6.1
							c0.8-9.4,1.6-18.7,2.4-28c0-0.3,0.1-0.6,0.1-1c-0.4,0-0.7-0.1-1.1-0.1c-1.2-0.1-2.4-0.2-3.6-0.3c0-5.7,0-11.4,0-17.1
							C75.1,267.3,80.6,268.1,86.1,268.8 M87.1,268c-6.2-0.8-12.4-1.6-18.6-2.5c0,6.3,0,12.6,0,19c1.5,0.1,3.1,0.3,4.6,0.4
							c-0.8,9.3-1.6,18.6-2.4,28c-2.3-9.4-4.6-19-6.9-28.8c-2.3,9.4-4.6,19-6.9,28.8c-0.8-9.8-1.6-19.7-2.4-29.6
							c1.5,0.1,3.1,0.3,4.6,0.4c0-6.5,0-13,0-19.5c-6.2-0.9-12.4-1.9-18.5-2.8c0,6.9,0,13.7,0,20.6c1.5,0.1,3.1,0.3,4.6,0.4
							c1.5,20.5,3.1,40.7,4.6,60.6c-1.5,0.1-3.1,0.3-4.6,0.4c0,6.8,0,13.6,0,20.3c6-0.9,11.9-1.8,17.9-2.7c0-6.4,0-12.8,0-19.3
							c-1.3,0.1-2.7,0.2-4,0.3c1.5-6.6,3.1-13.2,4.6-19.6c1.5,6.4,3.1,12.6,4.6,18.8c-1.3,0.1-2.7,0.2-4,0.3c0,6.4,0,12.8,0,19.2
							c6-0.9,11.9-1.7,17.9-2.5c0-6.1,0-12.1,0-18.2c-1.5,0.1-3.1,0.2-4.6,0.4c1.5-18.6,3.1-36.9,4.6-54.9c1.5,0.1,3.1,0.2,4.6,0.4
							C87.1,280,87.1,274,87.1,268C87.1,268,87.1,268,87.1,268z"/>
					</g>
					<g id="R-WRESTLING_00000003812265098527107190000016291016305971273895_">
						<path class="st2" d="M111.8,354.4c0-5.3,0-10.6,0-15.9c1.3-0.1,2.7-0.2,4-0.3c0-5.8,0-11.6,0-17.4c-3.4,0.1-6.9,0.1-10.3,0.2
							c0,6,0,11.9,0,17.9c1.3-0.1,2.7-0.2,4-0.3c0,5.3,0,10.7,0,16c-5.6,0.6-11.3,1.3-16.9,2c0-5.6,0-11.2,0-16.8
							c1.5-0.1,3.1-0.2,4.6-0.4c0-17.7,0-35.4,0-53.2c-1.5-0.1-3.1-0.2-4.6-0.4c0-5.6,0-11.2,0-16.8c8.1,1,16.2,2,24.3,2.9
							c2.4,4.6,4.8,9,7.3,13.4c0,7.5,0,15,0,22.5c-0.9,1.6-1.9,3.3-2.8,4.9c0.9,1.7,1.9,3.3,2.8,4.9c0,6.6,0,13.2,0,19.7
							c1.6-0.1,3.1-0.2,4.7-0.3c0,5.1,0,10.2,0,15.2C123.1,353.1,117.5,353.7,111.8,354.4z M105.5,304.8c3.4,0.1,6.9,0.2,10.3,0.2
							c0-5.8,0-11.6,0-17.4c-3.4-0.2-6.9-0.5-10.3-0.7C105.5,292.9,105.5,298.9,105.5,304.8z"/>
						<path class="st3" d="M116.5,272.4c2.4,4.5,4.7,8.8,7.1,13.1c0,7.5,0,14.9,0,22.4c-0.9,1.6-1.8,3.1-2.7,4.7
							c-0.1,0.1-0.1,0.2-0.2,0.3c0.1,0.1,0.1,0.2,0.2,0.3c0.9,1.6,1.8,3.2,2.7,4.7c0,6.4,0,12.9,0,19.3c0,0.3,0,0.5,0,0.8
							c0.3,0,0.7,0,1-0.1c1.2-0.1,2.4-0.2,3.7-0.2c0,4.8,0,9.6,0,14.5c-5.3,0.5-10.6,1.1-16,1.7c0-5,0-10.1,0-15.1
							c1-0.1,2-0.1,3-0.2c0.3,0,0.7,0,1-0.1c0-0.3,0-0.5,0-0.8c0-5.5,0-11,0-16.5c0-0.3,0-0.5,0-0.8c-0.3,0-0.7,0-1,0
							c-3.1,0.1-6.2,0.1-9.3,0.2c-0.3,0-0.7,0-1,0c0,0.3,0,0.6,0,0.8c0,5.7,0,11.4,0,17.1c0,0.3,0,0.6,0,0.8c0.3,0,0.7,0,1-0.1
							c1-0.1,2-0.1,3-0.2c0,5.1,0,10.2,0,15.2c-5.3,0.6-10.6,1.2-15.9,1.9c0-5.3,0-10.6,0-15.9c1.2-0.1,2.4-0.2,3.7-0.3
							c0.3,0,0.7-0.1,1-0.1c0-0.3,0-0.6,0-0.8c0-17.4,0-34.8,0-52.2c0-0.3,0-0.6,0-0.8c-0.3,0-0.7-0.1-1-0.1
							c-1.2-0.1-2.4-0.2-3.7-0.3c0-5.3,0-10.6,0-15.9C100.9,270.6,108.7,271.5,116.5,272.4 M105,305.2c0.3,0,0.7,0,1,0
							c3.1,0.1,6.2,0.1,9.3,0.2c0.3,0,0.7,0,1,0c0-0.3,0-0.5,0-0.8c0-5.5,0-11,0-16.5c0-0.3,0-0.5,0-0.8c-0.3,0-0.7,0-1-0.1
							c-3.1-0.2-6.2-0.4-9.3-0.7c-0.3,0-0.7,0-1-0.1c0,0.3,0,0.6,0,0.8c0,5.7,0,11.4,0,17.1C105,304.7,105,304.9,105,305.2
							 M117.2,271.7c-8.4-0.9-16.8-1.9-25.1-3c0,5.9,0,11.8,0,17.7c1.5,0.1,3.1,0.2,4.6,0.3c0,17.5,0,34.9,0,52.4
							c-1.5,0.1-3.1,0.2-4.6,0.3c0,5.9,0,11.8,0,17.7c6-0.8,12-1.5,17.9-2.2c0-5.6,0-11.2,0-16.8c-1.3,0.1-2.7,0.2-4,0.3
							c0-5.7,0-11.3,0-17c3.1-0.1,6.2-0.1,9.3-0.2c0,5.5,0,11.1,0,16.6c-1.3,0.1-2.7,0.2-4,0.3c0,5.6,0,11.2,0,16.8
							c6-0.7,12-1.3,18-2c0-5.3,0-10.7,0-16c-1.6,0.1-3.1,0.2-4.7,0.3c0-6.5,0-12.9,0-19.4c-0.9-1.6-1.9-3.2-2.8-4.9
							c0.9-1.6,1.9-3.2,2.8-4.9c0-7.5,0-15.1,0-22.6C122.1,280.9,119.7,276.3,117.2,271.7L117.2,271.7z M106,304.4
							c0-5.7,0-11.3,0-17c3.1,0.2,6.2,0.4,9.3,0.6c0,5.5,0,11.1,0,16.6C112.2,304.5,109.1,304.5,106,304.4
							C106,304.4,106,304.4,106,304.4z"/>
					</g>
					<g id="E-WRESTLING_00000153681616720891252270000006447637005386706313_">
						<path class="st2" d="M134.7,351.9c0-5,0-10,0-15c1.6-0.1,3.1-0.2,4.7-0.3c0-15.8,0-31.7,0-47.5c-1.6-0.1-3.1-0.2-4.7-0.3
							c0-5,0-10,0-15c10.5,1,21.1,2,31.6,2.8c0,7.1,0,14.1,0,21.2c-2.8-0.1-5.6-0.2-8.3-0.3c0-2.5,0-5,0-7.4
							c-3.4-0.2-6.9-0.4-10.3-0.6c0,5.3,0,10.7,0,16c3.1,0.1,6.2,0.1,9.3,0.2c0,4.7,0,9.5,0,14.2c-3.1,0.1-6.2,0.1-9.3,0.2
							c0,5.3,0,10.7,0,16c3.4-0.2,6.9-0.4,10.3-0.6c0-2.5,0-5,0-7.4c2.8-0.1,5.6-0.2,8.3-0.3c0,7.1,0,14.1,0,21.2
							C155.8,349.9,145.3,350.9,134.7,351.9z"/>
						<path class="st3" d="M165.9,277c0,6.8,0,13.7,0,20.5c-2.4-0.1-4.9-0.2-7.3-0.3c0-2.2,0-4.5,0-6.7c0-0.2,0-0.5,0-0.7
							c-0.3,0-0.7,0-1-0.1c-3.1-0.2-6.2-0.3-9.3-0.5c-0.3,0-0.7,0-1-0.1c0,0.2,0,0.5,0,0.7c0,5.1,0,10.2,0,15.3c0,0.2,0,0.5,0,0.7
							c0.3,0,0.7,0,1,0c2.8,0,5.5,0.1,8.3,0.1c0,4.5,0,9,0,13.5c-2.8,0-5.6,0.1-8.3,0.1c-0.3,0-0.7,0-1,0c0,0.2,0,0.5,0,0.7
							c0,5.1,0,10.2,0,15.3c0,0.2,0,0.5,0,0.7c0.3,0,0.7,0,1-0.1c3.1-0.2,6.2-0.3,9.3-0.5c0.3,0,0.7,0,1-0.1c0-0.2,0-0.5,0-0.7
							c0-2.2,0-4.5,0-6.7c2.4-0.1,4.9-0.2,7.3-0.3c0,6.8,0,13.7,0,20.5c-10.2,0.8-20.4,1.7-30.6,2.7c0-4.7,0-9.5,0-14.2
							c1.2-0.1,2.4-0.2,3.7-0.2c0.3,0,0.7,0,1-0.1c0-0.3,0-0.5,0-0.8c0-15.6,0-31.1,0-46.7c0-0.3,0-0.5,0-0.8c-0.3,0-0.7,0-1-0.1
							c-1.2-0.1-2.4-0.1-3.7-0.2c0-4.7,0-9.5,0-14.2C145.4,275.3,155.7,276.2,165.9,277 M166.9,276.4c-10.9-0.9-21.8-1.9-32.6-3
							c0,5.3,0,10.5,0,15.8c1.6,0.1,3.1,0.2,4.7,0.3c0,15.6,0,31.2,0,46.8c-1.6,0.1-3.1,0.2-4.7,0.3c0,5.3,0,10.5,0,15.8
							c10.9-1.1,21.7-2.1,32.6-3c0-7.3,0-14.6,0-21.9c-3.1,0.1-6.2,0.2-9.3,0.3c0,2.5,0,5,0,7.5c-3.1,0.2-6.2,0.3-9.3,0.5
							c0-5.1,0-10.2,0-15.2c3.1-0.1,6.2-0.1,9.3-0.2c0-5,0-9.9,0-14.9c-3.1-0.1-6.2-0.1-9.3-0.2c0-5.1,0-10.2,0-15.2
							c3.1,0.2,6.2,0.3,9.3,0.5c0,2.5,0,5,0,7.5c3.1,0.1,6.2,0.2,9.3,0.3C166.9,291,166.9,283.7,166.9,276.4
							C166.9,276.4,166.9,276.4,166.9,276.4z"/>
					</g>
					<g id="S-WRESTLING_00000044156871364080066600000015589501964573034386_">
						<path class="st2" d="M179.6,348.1c-2.4-3.5-4.9-7.1-7.3-10.7c0-3.2,0-6.4,0-9.7c2.8-0.1,5.6-0.2,8.3-0.3c0,2.4,0,4.7,0,7.1
							c3.4-0.2,6.9-0.3,10.3-0.4c0-4.9,0-9.7,0-14.6c-3.8,0-7.6,0.1-11.4,0.2c-2.4-3.7-4.9-7.4-7.3-11.2c0-6.7,0-13.4,0-20
							c2.4-3.6,4.9-7.2,7.3-10.7c4.1,0.3,8.3,0.6,12.4,0.8c2.4,3.8,4.9,7.5,7.3,11.1c0,3.1,0,6.1,0,9.2c-2.8-0.1-5.6-0.1-8.3-0.2
							c0-2.3,0-4.6,0-6.9c-3.4-0.1-6.9-0.3-10.3-0.4c0,5,0,9.9,0,14.9c3.7,0.1,7.5,0.1,11.2,0.1c2.5,3.6,4.9,7.2,7.4,10.8
							c0,6.3,0,12.7,0,19c-2.4,3.7-4.9,7.4-7.3,11.1C187.9,347.5,183.8,347.8,179.6,348.1z"/>
						<path class="st3" d="M191.7,278.9c2.4,3.7,4.7,7.3,7.1,10.9c0,2.9,0,5.9,0,8.8c-2.4-0.1-4.9-0.1-7.3-0.2c0-2.1,0-4.2,0-6.3
							c0-0.2,0-0.4,0-0.7c-0.3,0-0.7,0-1,0c-3.1-0.1-6.2-0.3-9.3-0.4c-0.3,0-0.7,0-1,0c0,0.2,0,0.5,0,0.7c0,4.7,0,9.5,0,14.2
							c0,0.2,0,0.5,0,0.7c0.3,0,0.7,0,1,0c3.5,0,7,0.1,10.4,0.1c2.4,3.6,4.8,7.1,7.2,10.5c0,6.3,0,12.6,0,18.9
							c-2.4,3.6-4.7,7.2-7.1,10.9c-3.9,0.3-7.9,0.5-11.8,0.8c-2.4-3.4-4.7-6.9-7.1-10.5c0-3.1,0-6.2,0-9.2c2.4-0.1,4.9-0.2,7.3-0.2
							c0,2.1,0,4.3,0,6.4c0,0.2,0,0.5,0,0.7c0.3,0,0.7,0,1,0c3.1-0.1,6.2-0.3,9.3-0.4c0.3,0,0.7,0,1,0c0-0.2,0-0.4,0-0.7
							c0-4.6,0-9.3,0-13.9c0-0.2,0-0.4,0-0.7c-0.3,0-0.7,0-1,0c-3.5,0-7,0.1-10.6,0.1c-2.4-3.6-4.7-7.2-7.1-10.9
							c0-6.6,0-13.2,0-19.9c2.4-3.5,4.7-7,7.1-10.5C183.9,278.4,187.8,278.7,191.7,278.9 M192.4,278.3c-4.4-0.3-8.7-0.6-13.1-0.9
							c-2.5,3.6-5,7.3-7.5,11c0,6.7,0,13.5,0,20.2c2.5,3.9,5,7.7,7.5,11.4c3.7-0.1,7.5-0.1,11.2-0.2c0,4.6,0,9.3,0,13.9
							c-3.1,0.1-6.2,0.3-9.3,0.4c0-2.4,0-4.7,0-7.1c-3.1,0.1-6.2,0.2-9.3,0.3c0,3.4,0,6.7,0,10.1c2.5,3.7,5,7.4,7.5,11
							c4.4-0.3,8.7-0.6,13.1-0.9c2.5-3.9,5-7.7,7.5-11.4c0-6.4,0-12.8,0-19.1c-2.5-3.6-5.1-7.3-7.6-11c-3.7,0-7.4-0.1-11.1-0.2
							c0-4.7,0-9.4,0-14.2c3.1,0.1,6.2,0.3,9.3,0.4c0,2.3,0,4.6,0,7c3.1,0.1,6.2,0.2,9.3,0.2c0-3.2,0-6.4,0-9.6
							C197.3,285.9,194.9,282.1,192.4,278.3C192.4,278.3,192.4,278.3,192.4,278.3z"/>
					</g>
					<g id="T-WRESTLING_00000088093559435509282110000008803938160471581603_">
						<path class="st2" d="M214.6,345.9c0-4.2,0-8.5,0-12.7c1.6,0,3.1-0.1,4.7-0.1c0-13.5,0-26.9,0-40.4c-1.9-0.1-3.8-0.1-5.7-0.2
							c0,2.2,0,4.5,0,6.7c-2.8-0.1-5.6-0.1-8.3-0.2c0-6.5,0-13.1,0-19.6c12.1,0.7,24.2,1.2,36.4,1.7c0,6.2,0,12.4,0,18.7
							c-2.8,0-5.6-0.1-8.3-0.1c0-2.2,0-4.3,0-6.5c-1.9,0-3.8-0.1-5.7-0.1c0,13.3,0,26.6,0,39.9c1.6,0,3.1-0.1,4.7-0.1
							c0,4.1,0,8.3,0,12.4C226.4,345.4,220.5,345.6,214.6,345.9z"/>
						<path class="st3" d="M241.2,281.4c0,6,0,12,0,18.1c-2.4,0-4.9-0.1-7.3-0.1c0-2,0-3.9,0-5.9c0-0.2,0-0.4,0-0.6
							c-0.3,0-0.7,0-1,0c-1.6,0-3.1-0.1-4.7-0.1c-0.3,0-0.7,0-1,0c0,0.2,0,0.4,0,0.6c0,13.1,0,26.2,0,39.3c0,0.2,0,0.4,0,0.6
							c0.3,0,0.7,0,1,0c1.2,0,2.4-0.1,3.7-0.1c0,3.9,0,7.8,0,11.8c-5.6,0.2-11.1,0.5-16.7,0.8c0-4,0-8,0-12c1.2,0,2.4-0.1,3.7-0.1
							c0.3,0,0.7,0,1,0c0-0.2,0-0.4,0-0.6c0-13.2,0-26.5,0-39.7c0-0.2,0-0.4,0-0.6c-0.3,0-0.7,0-1,0c-1.6,0-3.1-0.1-4.7-0.1
							c-0.3,0-0.7,0-1,0c0,0.2,0,0.4,0,0.6c0,2,0,4,0,6c-2.4-0.1-4.9-0.1-7.3-0.2c0-6.3,0-12.7,0-19
							C217.6,280.4,229.4,280.9,241.2,281.4 M242.2,280.8c-12.5-0.4-24.9-1-37.4-1.7c0,6.8,0,13.5,0,20.3c3.1,0.1,6.2,0.1,9.3,0.2
							c0-2.2,0-4.4,0-6.7c1.6,0,3.1,0.1,4.7,0.1c0,13.3,0,26.5,0,39.8c-1.6,0-3.1,0.1-4.7,0.1c0,4.4,0,8.9,0,13.3
							c6.2-0.3,12.5-0.6,18.7-0.9c0-4.3,0-8.7,0-13c-1.6,0-3.1,0.1-4.7,0.1c0-13.1,0-26.2,0-39.2c1.6,0,3.1,0.1,4.7,0.1
							c0,2.2,0,4.3,0,6.5c3.1,0.1,6.2,0.1,9.3,0.1C242.2,293.6,242.2,287.2,242.2,280.8C242.2,280.8,242.2,280.8,242.2,280.8z"/>
					</g>
					<g id="L-WRESTLING_00000095337130539707901190000002318055776665875636_">
						<path class="st2" d="M247.6,344.6c0-4.1,0-8.1,0-12.2c1.6,0,3.1-0.1,4.7-0.1c0-12.9,0-25.9,0-38.8c-1.6,0-3.1-0.1-4.7-0.1
							c0-4.1,0-8.1,0-12.2c5.9,0.2,11.8,0.3,17.7,0.5c0,4,0,8,0,12c-1.6,0-3.1,0-4.7-0.1c0,12.8,0,25.7,0,38.5
							c3.5,0,6.9-0.1,10.4-0.1c0-2.1,0-4.2,0-6.3c2.8,0,5.6,0,8.3-0.1c0,6.1,0,12.1,0,18.2C268.8,344,258.2,344.2,247.6,344.6z"/>
						<path class="st3" d="M264.8,282c0,3.8,0,7.6,0,11.4c-1.2,0-2.4,0-3.7-0.1c-0.3,0-0.7,0-1,0c0,0.2,0,0.4,0,0.6
							c0,12.6,0,25.3,0,37.9c0,0.2,0,0.4,0,0.6c0.3,0,0.7,0,1,0c3.1,0,6.2-0.1,9.4-0.1c0.3,0,0.7,0,1,0c0-0.2,0-0.4,0-0.6
							c0-1.9,0-3.8,0-5.7c2.4,0,4.9,0,7.3,0c0,5.8,0,11.7,0,17.5c-10.2,0.1-20.5,0.3-30.7,0.7c0-3.8,0-7.7,0-11.5
							c1.2,0,2.4,0,3.7-0.1c0.3,0,0.7,0,1,0c0-0.2,0-0.4,0-0.6c0-12.7,0-25.4,0-38.2c0-0.2,0-0.4,0-0.6c-0.3,0-0.7,0-1,0
							c-1.2,0-2.4,0-3.7-0.1c0-3.8,0-7.7,0-11.5C253.7,281.8,259.3,281.9,264.8,282 M265.8,281.4c-6.2-0.1-12.5-0.3-18.7-0.5
							c0,4.3,0,8.5,0,12.8c1.6,0,3.1,0.1,4.7,0.1c0,12.7,0,25.5,0,38.2c-1.6,0-3.1,0.1-4.7,0.1c0,4.3,0,8.5,0,12.8
							c10.9-0.3,21.8-0.6,32.7-0.7c0-6.3,0-12.5,0-18.8c-3.1,0-6.2,0-9.4,0.1c0,2.1,0,4.2,0,6.3c-3.1,0-6.2,0.1-9.4,0.1
							c0-12.6,0-25.3,0-37.9c1.6,0,3.1,0,4.7,0.1C265.8,289.8,265.8,285.6,265.8,281.4C265.8,281.4,265.8,281.4,265.8,281.4z"/>
					</g>
					<g id="I-WRESTLING_00000066473910909026655890000002717245276302401920_">
						<path class="st2" d="M285.3,343.8c0-4,0-7.9,0-11.9c1.6,0,3.1,0,4.7,0c0-12.7,0-25.3,0-38c-1.6,0-3.1,0-4.7,0
							c0-4,0-7.9,0-11.9c5.7,0,11.4,0.1,17,0.1c0,4,0,7.9,0,11.9c-1.3,0-2.7,0-4,0c0,12.7,0,25.3,0,38c1.3,0,2.7,0,4,0
							c0,4,0,7.9,0,11.9C296.7,343.7,291,343.8,285.3,343.8z"/>
						<path class="st3" d="M301.9,282.4c0,3.7,0,7.5,0,11.2c-1,0-2,0-3,0c-0.3,0-0.7,0-1,0c0,0.2,0,0.4,0,0.6c0,12.5,0,24.9,0,37.4
							c0,0.2,0,0.4,0,0.6c0.3,0,0.7,0,1,0c1,0,2,0,3,0c0,3.7,0,7.5,0,11.2c-5.3,0-10.7,0-16,0.1c0-3.8,0-7.5,0-11.3
							c1.2,0,2.4,0,3.7,0c0.3,0,0.7,0,1,0c0-0.2,0-0.4,0-0.6c0-12.5,0-24.9,0-37.4c0-0.2,0-0.4,0-0.6c-0.3,0-0.7,0-1,0
							c-1.2,0-2.4,0-3.7,0c0-3.8,0-7.5,0-11.3C291.2,282.4,296.5,282.4,301.9,282.4 M302.9,281.8c-6,0-12,0-18-0.1
							c0,4.2,0,8.3,0,12.5c1.6,0,3.1,0,4.7,0c0,12.5,0,24.9,0,37.4c-1.6,0-3.1,0-4.7,0c0,4.2,0,8.3,0,12.5c6-0.1,12-0.1,18-0.1
							c0-4.2,0-8.3,0-12.5c-1.3,0-2.7,0-4,0c0-12.5,0-24.9,0-37.4c1.3,0,2.7,0,4,0C302.9,290.1,302.9,285.9,302.9,281.8L302.9,281.8
							z"/>
					</g>
					<g id="N-WRESTLING_00000127724997089998161450000005072140427306518186_">
						<path class="st2" d="M336.3,344.1c-5-12.9-10-25.6-14.9-38.3c0,8.7,0,17.4,0,26.1c1.6,0,3.1,0,4.7,0c0,4,0,8,0,11.9
							c-5.9-0.1-11.8-0.2-17.7-0.2c0-4,0-7.9,0-11.9c1.6,0,3.1,0,4.7,0c0-12.7,0-25.4,0-38c-1.6,0-3.1,0-4.7,0c0-4,0-7.9,0-11.9
							c4.4,0,8.8-0.1,13.1-0.1c5,12.6,10,25.3,14.9,38.1c0-8.8,0-17.6,0-26.3c-1.6,0-3.1,0-4.7,0.1c0-4,0-8,0-12
							c5.9-0.1,11.8-0.3,17.7-0.4c0,4,0,8.1,0,12.1c-1.6,0-3.1,0.1-4.7,0.1c0,16.9,0,33.9,0,50.8
							C341.9,344.3,339.1,344.2,336.3,344.1z"/>
						<path class="st3" d="M348.9,281.7c0,3.8,0,7.7,0,11.5c-1.2,0-2.4,0-3.7,0.1c-0.3,0-0.7,0-1,0c0,0.2,0,0.4,0,0.6
							c0,16.7,0,33.4,0,50.1c-2.5-0.1-5-0.1-7.6-0.2c-4.6-12-9.2-23.8-13.8-35.5c-0.7-1.7-1.3-3.4-2-5c0,1.7,0,3.5,0,5.2
							c0,7.7,0,15.5,0,23.2c0,0.2,0,0.4,0,0.6c0.3,0,0.7,0,1,0c1.2,0,2.4,0,3.7,0c0,3.8,0,7.5,0,11.3c-5.6-0.1-11.1-0.1-16.7-0.2
							c0-3.8,0-7.5,0-11.3c1.2,0,2.4,0,3.7,0c0.3,0,0.7,0,1,0c0-0.2,0-0.4,0-0.6c0-12.5,0-25,0-37.4c0-0.2,0-0.4,0-0.6
							c-0.3,0-0.7,0-1,0c-1.2,0-2.4,0-3.7,0c0-3.8,0-7.5,0-11.3c4.1,0,8.2-0.1,12.2-0.1c4.6,11.7,9.2,23.4,13.8,35.3
							c0.7,1.7,1.3,3.4,2,5.1c0-1.7,0-3.5,0-5.2c0-7.8,0-15.6,0-23.4c0-0.2,0-0.4,0-0.6c-0.3,0-0.7,0-1,0c-1.2,0-2.4,0-3.7,0
							c0-3.8,0-7.6,0-11.4C337.8,282,343.4,281.8,348.9,281.7 M349.9,281c-6.2,0.2-12.5,0.3-18.7,0.5c0,4.2,0,8.4,0,12.6
							c1.6,0,3.1,0,4.7-0.1c0,7.8,0,15.6,0,23.4c-4.7-12-9.4-23.9-14-35.8c-4.7,0.1-9.4,0.1-14,0.1c0,4.2,0,8.3,0,12.5
							c1.6,0,3.1,0,4.7,0c0,12.5,0,24.9,0,37.4c-1.6,0-3.1,0-4.7,0c0,4.2,0,8.3,0,12.5c6.2,0,12.5,0.1,18.7,0.2c0-4.2,0-8.4,0-12.5
							c-1.6,0-3.1,0-4.7,0c0-7.7,0-15.5,0-23.2c4.7,11.9,9.4,23.9,14,36c3.1,0.1,6.2,0.1,9.4,0.2c0-16.9,0-33.9,0-50.8
							c1.6,0,3.1-0.1,4.7-0.1C349.9,289.5,349.9,285.3,349.9,281C349.9,281,349.9,281,349.9,281z"/>
					</g>
					<g id="G-WRESTLING_00000183247477652543828230000013857937971731349183_">
						<path class="st2" d="M362.7,344.9c-2.4-3.5-4.9-6.9-7.3-10.3c0-14.5,0-29,0-43.5c2.4-3.4,4.9-6.8,7.3-10.3
							c4.1-0.2,8.3-0.3,12.4-0.5c2.4,3.3,4.9,6.6,7.3,10c0,3,0,5.9,0,8.9c-2.8,0.1-5.6,0.1-8.3,0.2c0-2.2,0-4.4,0-6.6
							c-3.4,0.1-6.9,0.2-10.3,0.3c0,13.2,0,26.3,0,39.5c3.4,0.1,6.9,0.2,10.3,0.3c0-4.6,0-9.2,0-13.8c-1.6,0-3.1,0-4.7,0
							c0-4.1,0-8.3,0-12.4c4.3,0,8.7-0.1,13-0.1c0,9.6,0,19.2,0,28.8c-2.4,3.4-4.9,6.7-7.3,10C371,345.2,366.9,345.1,362.7,344.9z"
							/>
						<path class="st3" d="M374.8,280.7c2.4,3.2,4.7,6.5,7.1,9.8c0,2.8,0,5.7,0,8.5c-2.4,0.1-4.9,0.1-7.3,0.1c0-2,0-4,0-5.9
							c0-0.2,0-0.4,0-0.6c-0.3,0-0.7,0-1,0c-3.1,0.1-6.2,0.2-9.3,0.2c-0.3,0-0.7,0-1,0c0,0.2,0,0.4,0,0.6c0,12.9,0,25.9,0,38.8
							c0,0.2,0,0.4,0,0.6c0.3,0,0.7,0,1,0c3.1,0.1,6.2,0.2,9.3,0.2c0.3,0,0.7,0,1,0c0-0.2,0-0.4,0-0.6c0-4.4,0-8.8,0-13.1
							c0-0.2,0-0.4,0-0.6c-0.3,0-0.7,0-1,0c-1.2,0-2.4,0-3.7,0c0-3.9,0-7.9,0-11.8c4,0,8-0.1,12-0.1c0,9.5,0,18.9,0,28.4
							c-2.4,3.3-4.7,6.5-7.1,9.8c-3.9-0.2-7.9-0.3-11.8-0.5c-2.4-3.4-4.7-6.7-7.1-10c0-14.5,0-28.9,0-43.4c2.4-3.3,4.7-6.7,7.1-10
							C367,281.1,370.9,280.9,374.8,280.7 M375.5,280.1c-4.4,0.2-8.7,0.4-13.1,0.5c-2.5,3.5-5,7-7.5,10.5c0,14.5,0,29.1,0,43.6
							c2.5,3.5,5,7,7.5,10.5c4.4,0.2,8.7,0.3,13.1,0.5c2.5-3.4,5-6.8,7.5-10.3c0-9.7,0-19.5,0-29.2c-4.7,0-9.3,0.1-14,0.1
							c0,4.3,0,8.7,0,13c1.6,0,3.1,0,4.7,0c0,4.4,0,8.7,0,13.1c-3.1-0.1-6.2-0.2-9.3-0.2c0-13,0-25.9,0-38.9
							c3.1-0.1,6.2-0.2,9.3-0.2c0,2.2,0,4.4,0,6.6c3.1-0.1,6.2-0.1,9.3-0.2c0-3.1,0-6.2,0-9.3C380.5,286.9,378,283.4,375.5,280.1
							L375.5,280.1z"/>
					</g>
					<g id="C-WRESTLING_00000085957619560121607220000012869606980318571919_">
						<path class="st2" d="M422,348.2c-2.4-3.9-4.9-7.7-7.3-11.5c0-15.9,0-31.7,0-47.6c2.4-3.8,4.9-7.6,7.3-11.5
							c4.1-0.3,8.3-0.6,12.4-1c2.4,3.6,4.9,7.3,7.3,11c0,3.3,0,6.7,0,10c-2.8,0.1-5.6,0.2-8.3,0.3c0-2.4,0-4.9,0-7.3
							c-3.4,0.2-6.9,0.3-10.3,0.5c0,14.5,0,29,0,43.5c3.4,0.2,6.9,0.3,10.3,0.5c0-2.4,0-4.9,0-7.3c2.8,0.1,5.6,0.2,8.3,0.3
							c0,3.3,0,6.7,0,10c-2.4,3.7-4.9,7.4-7.3,11C430.3,348.8,426.2,348.5,422,348.2z"/>
						<path class="st3" d="M434.1,277.1c2.4,3.5,4.7,7.1,7.1,10.7c0,3.2,0,6.4,0,9.5c-2.4,0.1-4.9,0.2-7.3,0.3c0-2.2,0-4.4,0-6.6
							c0-0.2,0-0.5,0-0.7c-0.3,0-0.7,0-1,0.1c-3.1,0.2-6.2,0.3-9.3,0.4c-0.3,0-0.7,0-1,0c0,0.2,0,0.5,0,0.7c0,14.3,0,28.5,0,42.8
							c0,0.2,0,0.5,0,0.7c0.3,0,0.7,0,1,0c3.1,0.1,6.2,0.3,9.3,0.4c0.3,0,0.7,0,1,0.1c0-0.2,0-0.5,0-0.7c0-2.2,0-4.4,0-6.6
							c2.4,0.1,4.9,0.2,7.3,0.3c0,3.2,0,6.4,0,9.5c-2.4,3.6-4.7,7.2-7.1,10.7c-3.9-0.3-7.8-0.6-11.8-0.9c-2.4-3.8-4.7-7.5-7.1-11.2
							c0-15.8,0-31.7,0-47.5c2.4-3.7,4.7-7.4,7.1-11.2C426.3,277.7,430.2,277.4,434.1,277.1 M434.8,276.3c-4.4,0.4-8.7,0.7-13.1,1
							c-2.5,4-5,7.9-7.5,11.8c0,15.9,0,31.8,0,47.7c2.5,3.9,5,7.8,7.5,11.8c4.4,0.3,8.7,0.7,13.1,1c2.5-3.7,5-7.5,7.5-11.3
							c0-3.5,0-7,0-10.4c-3.1-0.1-6.2-0.2-9.3-0.3c0,2.4,0,4.9,0,7.3c-3.1-0.2-6.2-0.3-9.3-0.4c0-14.3,0-28.6,0-42.9
							c3.1-0.1,6.2-0.3,9.3-0.4c0,2.4,0,4.9,0,7.3c3.1-0.1,6.2-0.2,9.3-0.3c0-3.5,0-7,0-10.4C439.7,283.8,437.2,280,434.8,276.3
							C434.8,276.3,434.8,276.3,434.8,276.3z"/>
					</g>
					<g id="L-WRESTLING_00000017508159914811946770000009852581438253963196_">
						<path class="st2" d="M447.7,350.3c0-4.8,0-9.6,0-14.4c1.6,0.1,3.1,0.2,4.7,0.3c0-15.5,0-31,0-46.5c-1.6,0.1-3.1,0.2-4.7,0.3
							c0-4.8,0-9.6,0-14.4c5.9-0.5,11.8-1.1,17.6-1.7c0,5,0,10,0,15c-1.6,0.1-3.1,0.2-4.7,0.3c0,15.8,0,31.7,0,47.5
							c3.4,0.2,6.9,0.4,10.3,0.6c0-2.7,0-5.3,0-8c2.8,0.1,5.5,0.2,8.3,0.4c0,7.9,0,15.8,0,23.7C468.8,352.2,458.2,351.2,447.7,350.3
							z"/>
						<path class="st3" d="M464.8,274.3c0,4.7,0,9.5,0,14.2c-1.2,0.1-2.4,0.2-3.7,0.2c-0.3,0-0.7,0-1,0.1c0,0.3,0,0.5,0,0.8
							c0,15.6,0,31.1,0,46.7c0,0.3,0,0.5,0,0.8c0.3,0,0.7,0,1,0.1c3.1,0.2,6.2,0.4,9.3,0.6c0.3,0,0.7,0,1,0.1c0-0.3,0-0.5,0-0.8
							c0-2.4,0-4.8,0-7.2c2.4,0.1,4.9,0.2,7.3,0.3c0,7.6,0,15.3,0,22.9c-10.2-1.1-20.4-2.1-30.6-3c0-4.5,0-9.1,0-13.6
							c1.2,0.1,2.4,0.1,3.7,0.2c0.3,0,0.7,0,1,0.1c0-0.2,0-0.5,0-0.7c0-15.3,0-30.6,0-45.8c0-0.2,0-0.5,0-0.7c-0.3,0-0.7,0-1,0.1
							c-1.2,0.1-2.4,0.1-3.7,0.2c0-4.5,0-9.1,0-13.6C453.7,275.4,459.3,274.9,464.8,274.3 M465.8,273.5c-6.2,0.6-12.4,1.2-18.6,1.8
							c0,5,0,10,0,15.1c1.6-0.1,3.1-0.2,4.7-0.3c0,15.2,0,30.5,0,45.7c-1.6-0.1-3.1-0.2-4.7-0.3c0,5,0,10,0,15.1
							c10.9,1,21.8,2,32.6,3.2c0-8.2,0-16.4,0-24.5c-3.1-0.1-6.2-0.3-9.3-0.4c0,2.7,0,5.3,0,8c-3.1-0.2-6.2-0.4-9.3-0.6
							c0-15.6,0-31.2,0-46.8c1.6-0.1,3.1-0.2,4.7-0.3C465.8,284,465.8,278.7,465.8,273.5L465.8,273.5z"/>
					</g>
					<g id="U-WRESTLING_00000022546722740364764970000010357075933376038557_">
						<path class="st2" d="M497.2,355.4c-2.4-4.8-4.8-9.4-7.3-14c0-18,0-36.1,0-54.1c-1.6,0.1-3.1,0.2-4.7,0.3c0-5.3,0-10.5,0-15.8
							c5.7-0.6,11.3-1.3,16.9-2c0,5.5,0,11,0,16.6c-1.3,0.1-2.7,0.2-4,0.3c0,17.5,0,35,0,52.5c3.4,0.3,6.9,0.5,10.3,0.8
							c0-18,0-36,0-54c-1.3,0.1-2.7,0.2-4,0.3c0-5.6,0-11.1,0-16.7c5.6-0.7,11.3-1.4,16.9-2.2c0,5.8,0,11.7,0,17.5
							c-1.5,0.1-3.1,0.3-4.6,0.4c0,19.5,0,38.9,0,58.4c-2.4,4.5-4.8,8.9-7.3,13.2C505.4,356.4,501.3,355.9,497.2,355.4z"/>
						<path class="st3" d="M520.9,267.9c0,5.5,0,11.1,0,16.6c-1.2,0.1-2.4,0.2-3.6,0.3c-0.3,0-0.7,0.1-1,0.1c0,0.3,0,0.6,0,0.9
							c0,19.3,0,38.5,0,57.8c-2.4,4.4-4.7,8.7-7.1,12.9c-3.9-0.5-7.8-1-11.7-1.4c-2.4-4.6-4.7-9.2-7.1-13.7c0-17.9,0-35.8,0-53.7
							c0-0.3,0-0.5,0-0.8c-0.3,0-0.7,0-1,0.1c-1.2,0.1-2.4,0.2-3.7,0.3c0-5,0-10,0-15c5.3-0.6,10.6-1.2,15.9-1.8
							c0,5.2,0,10.5,0,15.7c-1,0.1-2,0.2-3,0.2c-0.3,0-0.7,0-1,0.1c0,0.3,0,0.6,0,0.8c0,17.2,0,34.4,0,51.6c0,0.3,0,0.6,0,0.8
							c0.3,0,0.7,0,1,0.1c3.1,0.2,6.2,0.5,9.3,0.7c0.3,0,0.7,0.1,1,0.1c0-0.3,0-0.6,0-0.9c0-17.7,0-35.5,0-53.2c0-0.3,0-0.6,0-0.9
							c-0.3,0-0.7,0.1-1,0.1c-1,0.1-2,0.2-3,0.2c0-5.3,0-10.6,0-15.8C510.3,269.3,515.6,268.6,520.9,267.9 M521.9,266.9
							c-6,0.8-11.9,1.6-17.9,2.3c0,5.8,0,11.7,0,17.5c1.3-0.1,2.7-0.2,4-0.3c0,17.7,0,35.4,0,53.1c-3.1-0.2-6.2-0.5-9.3-0.7
							c0-17.2,0-34.5,0-51.7c1.3-0.1,2.7-0.2,4-0.3c0-5.8,0-11.6,0-17.4c-6,0.7-12,1.4-17.9,2.1c0,5.5,0,11.1,0,16.6
							c1.6-0.1,3.1-0.2,4.7-0.3c0,17.9,0,35.8,0,53.7c2.5,4.7,5,9.4,7.4,14.3c4.3,0.5,8.7,1.1,13,1.6c2.5-4.4,5-8.9,7.4-13.6
							c0-19.4,0-38.8,0-58.2c1.5-0.1,3.1-0.2,4.6-0.4C521.9,279.1,521.9,273,521.9,266.9C521.9,266.9,521.9,266.9,521.9,266.9z"/>
					</g>
					<g id="B-WRESTLING_00000035516673069258234190000011052603399732288657_">
						<path class="st2" d="M527.4,359.3c0-5.9,0-11.9,0-17.8c1.5,0.1,3.1,0.3,4.6,0.4c0-19.3,0-38.6,0-57.9
							c-1.5,0.1-3.1,0.3-4.6,0.4c0-5.9,0-11.9,0-17.8c8.1-1.1,16.2-2.3,24.2-3.5c2.4,4.9,4.8,9.9,7.2,15c0,9.5,0,19,0,28.5
							c-1.6,2.1-3.2,4.3-4.8,6.3c1.6,2.1,3.2,4.2,4.8,6.3c0,9.5,0,19,0,28.5c-2.4,5.1-4.8,10.1-7.2,15
							C543.5,361.5,535.4,360.4,527.4,359.3z M540.3,342.6c3.4,0.3,6.8,0.6,10.3,0.9c0-7,0-14,0-21c-3.4-0.1-6.8-0.2-10.3-0.3
							C540.3,329,540.3,335.8,540.3,342.6z M540.3,303.7c3.4-0.1,6.8-0.2,10.3-0.3c0-7,0-14,0-21c-3.4,0.3-6.8,0.6-10.3,0.9
							C540.3,290.1,540.3,296.9,540.3,303.7z"/>
						<path class="st3" d="M551.3,263.6c2.4,4.8,4.7,9.6,7.1,14.6c0,9.4,0,18.8,0,28.2c-1.5,2-3,4-4.4,5.9c-0.2,0.2-0.3,0.4-0.5,0.6
							c0.2,0.2,0.3,0.4,0.5,0.6c1.5,1.9,3,3.9,4.4,5.9c0,9.4,0,18.8,0,28.2c-2.4,5-4.7,9.8-7.1,14.6c-7.8-1.2-15.6-2.3-23.4-3.4
							c0-5.6,0-11.3,0-16.9c1.2,0.1,2.4,0.2,3.6,0.3c0.3,0,0.7,0.1,1,0.1c0-0.3,0-0.6,0-0.9c0-19,0-38,0-57c0-0.3,0-0.6,0-0.9
							c-0.3,0-0.7,0.1-1,0.1c-1.2,0.1-2.4,0.2-3.6,0.3c0-5.6,0-11.3,0-16.9C535.7,265.9,543.5,264.8,551.3,263.6 M539.8,304.1
							c0.3,0,0.7,0,1,0c3.1-0.1,6.2-0.2,9.3-0.3c0.3,0,0.7,0,1,0c0-0.3,0-0.6,0-1c0-6.7,0-13.4,0-20.1c0-0.3,0-0.6,0-1
							c-0.3,0-0.7,0.1-1,0.1c-3.1,0.3-6.2,0.6-9.3,0.9c-0.3,0-0.7,0.1-1,0.1c0,0.3,0,0.6,0,0.9c0,6.5,0,13,0,19.4
							C539.8,303.5,539.8,303.8,539.8,304.1 M539.8,343c0.3,0,0.7,0.1,1,0.1c3.1,0.3,6.2,0.6,9.3,0.9c0.3,0,0.7,0.1,1,0.1
							c0-0.3,0-0.6,0-1c0-6.7,0-13.4,0-20.1c0-0.3,0-0.6,0-1c-0.3,0-0.7,0-1,0c-3.1-0.1-6.2-0.2-9.3-0.3c-0.3,0-0.7,0-1,0
							c0,0.3,0,0.6,0,0.9c0,6.5,0,13,0,19.4C539.8,342.4,539.8,342.7,539.8,343 M551.9,262.5c-8.3,1.3-16.7,2.5-25.1,3.7
							c0,6.2,0,12.5,0,18.7c1.5-0.1,3.1-0.3,4.6-0.4c0,19,0,37.9,0,56.9c-1.5-0.1-3.1-0.3-4.6-0.4c0,6.2,0,12.5,0,18.7
							c8.4,1.2,16.7,2.4,25.1,3.7c2.5-5,4.9-10.1,7.4-15.3c0-9.6,0-19.2,0-28.9c-1.5-2.1-3.1-4.2-4.6-6.2c1.5-2,3.1-4.1,4.6-6.2
							c0-9.6,0-19.2,0-28.9C556.9,272.6,554.4,267.5,551.9,262.5L551.9,262.5z M540.8,303.2c0-6.5,0-13,0-19.5
							c3.1-0.3,6.2-0.6,9.3-0.8c0,6.7,0,13.4,0,20C547,303,543.9,303.1,540.8,303.2C540.8,303.2,540.8,303.2,540.8,303.2z
							 M540.8,342.1c0-6.5,0-13,0-19.5c3.1,0.1,6.2,0.2,9.3,0.3c0,6.7,0,13.4,0,20C547,342.7,543.9,342.4,540.8,342.1
							C540.8,342.1,540.8,342.1,540.8,342.1z"/>
					</g>
				</g>
			</g>
		</g>
		<g id="BD-Body">
			<path id="Sillowette" class="st4" d="M469.6,494.2c-0.9-1-1.1-2.2-1.1-3.5c0-3.4-0.9-6.6-2.2-9.7c-1.5-3.6-3.6-6.8-6.8-9.2
				c-2.6-1.9-3.6-5-4.6-8c-0.7-2.1-1.2-4.4-2.3-6.3c-3.9-6.9-9.4-11.9-16.2-15.6c-3.5-1.9-7.1-3.6-10.7-5.3
				c-1.7-0.8-2.9-1.9-3.7-3.7c-2.9-6.3-7.1-11.4-12.6-15.5c-1.8-1.4-3.8-2.6-5.8-3.9c1.3-1.2,2.8-1.2,4.2-1.3c2.5,0,5,0.4,7.5,0.1
				c4.2-0.5,6.1-4.4,4-8c-0.6-1.1-1.3-2-2.2-2.9c-5.9-5.7-12.9-8.3-21.1-7.2c-5.1,0.7-9.1,3.3-11.6,8c-0.9,1.7-0.9,1.7-2.5,0.9
				c-15.1-7.1-30.2-14.1-44.9-22.1c-0.4-0.2-0.7-0.4-1-0.8c-5.2-6.7-11.2-12.5-18-17.4c-14-10.1-29.5-14.8-46.7-11.9
				c-5.9,1-11.5,2.8-16.4,6.5c-0.3,0.2-0.6,0.2-0.9,0.2c-2.2-0.3-4.3,0.1-6.3,0.8c-4.8,1.8-8.4,5-10.8,9.6c-0.2,0.3-0.2,0.7-0.8,0.6
				c-2.1-0.3-4.3-0.2-6.4-0.1c-0.6,0-1.1-0.1-1.5-0.6c-4.2-4-9.3-5.3-15-4.5c-4,0.6-7.7,2.2-11.3,4c-2.9,1.5-5.5,3.3-7.6,5.8
				c-1,1.2-1.8,2.5-1.9,4.1c-0.2,2.8,1.7,4.8,4.9,5.4c1.4,0.2,2.7,0.2,4.2,0.3c-0.2,0.4-0.4,0.7-0.5,0.9c-1.3,2.3-2.4,4.6-2.7,7.2
				c-0.2,1.5-0.8,2.1-2.2,2.6c-4.1,1.5-6.9,4.3-7.9,8.7c-0.5,2.1-0.4,4.1,0,6.2c0.1,0.8-0.1,1.1-0.8,1.4c-4.5,2-6.8,6.2-6,11.1
				c0.2,1.4,0.3,2.7-0.3,4c-0.2,0.4-0.3,1-0.3,1.5c-0.4,2.8,0.6,5.1,2.4,7.2c0.9,1.1,0.9,1.1-0.2,2c-0.6,0.5-1.2,1-1.7,1.6
				c-4.7,4.8-5.1,12.1-0.9,17.1c0.7,0.8,0.7,1.3,0.1,2.1c-0.5,0.7-0.8,1.4-1.2,2.2c-4.3,9.8-5,20-2.5,30.3c1,4,2.8,7.6,6.4,9.8
				c0.5,0.3,0.2,0.6,0.1,0.9c-0.9,4.6-0.6,9.1,1,13.6c1.1,3.2,3.3,5.3,6.6,6.1c3.3,0.7,6.6,0.7,9.9,0.6c2.4-0.1,4.8-0.6,7-1.6
				c1-0.4,1.6-1.7,2.6-1.6c1,0.1,1.8,1,2.8,1.4c5.6,2.3,11.5,2.5,17.4,1.7c3-0.4,5.7-1.7,8.4-2.9c3.1-1.3,4.9-3.8,5-7.4
				c0.1-2.3-0.8-4.4-2-6.3c-3.9-6-9.1-10.3-15.7-13c-2.9-1.2-5.9-2.3-9.1-0.7c-0.1-1.6,0.1-3.1,0.6-4.6c0.6-1.5,1.6-2.2,3.2-2.3
				c1.8-0.1,3.5,0.3,5.2,0.8c5,1.6,9.8,3.7,14.7,5.4c6,2,12.1,3.6,18.4,4.2c6.8,0.6,13.6,0,20.2-1.4c4-0.8,8-1.9,11.9-3.2
				c0.1,0.2,0.1,0.2,0.1,0.2c-0.1,0.5-0.1,1.1-0.2,1.6c-0.3,4.3,1.1,7.9,4.8,10.3c2.4,1.6,5.1,2,8,1.9c2.5-0.1,4.9-1,7.5-0.1
				c2.8,0.9,5.4-0.4,7.8-2.1c0.3-0.2,0.6-0.5,1.1-0.3c1,0.5,2.2,0.6,3.3,0.5c0.7-0.1,1,0,0.9,0.9c-0.1,0.6,0,1.2,0,1.8
				c0.5,6.2,4.9,10.8,10.4,10.4c0.5,0,0.6,0.3,0.8,0.7c1.3,2.7,3.4,4.3,6.3,4.9c1.9,0.4,3.8,0.4,5.6,0.2c6.1-0.5,12.2-1.1,18.3-1.3
				c3.7-0.1,7.3-0.2,11,0.3c2.3,0.3,4.5,1.2,6.9,1.5c3,0.4,6,0.4,8.9-0.5c5.8-1.9,7.6-7.2,7-12.3c-0.5-4.1-2.7-7.1-6.1-9.3
				c-0.4-0.3-0.8-0.5-0.6-1.2c2.2-7.8,2.1-15.8,0.8-23.7c-0.2-1.4-0.5-2.8-0.8-4.5c2.9,2,5.6,3.8,8.4,5.5c4.5,2.7,9.3,4.6,14.7,4.5
				c4.2-0.1,8.4-0.4,12.5-1.1c0.4-0.1,0.7-0.3,1,0.2c1.1,2.2,2.3,4.4,3.5,6.7c-2.2,0.4-4.2,0.9-6.1,1.7c-0.3,0.1-0.6,0-0.9-0.1
				c-3.9-0.8-7.8-1.4-11.7-0.9c-4.5,0.6-7.6,3-8.5,7.2c-1.3,6.3,0,12.2,3.7,17.4c2.3,3.2,5.5,5.1,9.5,4.7c1.9-0.2,3.5,0,5.3,0.5
				c4.7,1.5,9.3,0.5,13.5-2.1c0.6-0.3,0.9-0.3,1.3,0.1c0.8,0.8,1.7,1.3,2.6,1.8c3.6,1.8,7.3,2,11.1,1.3c6-1.1,11.3-3.5,15.5-8.1
				C472.5,503.8,472.6,497.5,469.6,494.2z M342.1,484.2c-0.3,0.1-0.6,0-0.9-0.3c-0.2-0.2-0.3-0.4-0.5-0.6c-1.3-1.8-1.3-2.1,0.6-3.2
				c2.8-1.7,5.4-3.6,7.6-6c0.1-0.1,0.3-0.2,0.5-0.4c0.4,3.6,0.3,7.2,1,10.8C347.7,483.7,344.9,483.4,342.1,484.2z"/>
			<g id="Gray_Parts">
				<g id="Leg_and_Paw_Parts">
					<path id="Leg_and_Paw" class="st5" d="M215.5,495.3c0.1,0,0.1-0.1,0.2-0.1c2.1-3,3.2-3.4,6.7-2.6c4.8,1.2,8.8,3.9,12.4,7.2
						c2.1,2,4.1,4.2,5.3,6.9c1.6,3.5,0.2,6.6-3.4,7.9c-0.5,0.2-0.8,0.1-1-0.4c-2.8-4.3-6.2-8.1-10-11.4c-1.3-1.1-2.7-2.2-4.1-3
						c-0.4-0.2-0.8-0.4-1.2-0.5c-0.4-0.1-0.8-0.3-1.1,0.1c-0.3,0.4,0.1,0.8,0.4,1c1.2,1.2,2.4,2.3,3.6,3.5c3.6,3.4,6.8,7.1,9.3,11.3
						c0.4,0.6,0.4,1-0.4,1.1c-5.7,1.2-11.4,1.2-16.9-0.6c-2.2-0.7-4.1-2-5.6-4c-1.3-1.8-2.7-3.6-4.3-5.2c-0.2-0.2-0.5-0.7-0.9-0.5
						c-0.4,0.2-0.2,0.7,0,1.1c0.7,2.3,1.7,4.4,2.8,6.5c0.5,0.9,0.2,1.4-0.6,1.8c-1.4,0.7-3,1.1-4.6,1.3c-3.4,0.3-6.9,0.4-10.3-0.3
						c-2.2-0.4-3.8-1.7-4.5-4c-1.6-4.9-1.9-9.7,0.1-14.5c1.2-2.9,3.4-4.6,6.7-4.7c0.6,0,1.2-0.1,1.9-0.2c-2.5-2.1-6.3-2-8.9,0.2
						c-0.7,0.6-1.4,1.3-1.9,2.2c-0.3,0.6-0.6,0.6-1.1,0.2c-2-1.7-3.2-3.9-3.9-6.4c-2.8-10.5-2.1-20.7,2.7-30.5
						c0.7-1.4,0.7-1.3,2.1-0.8c2,0.8,4.1,1.1,6.2,1.1c0.7,0,1,0.2,1.2,0.9c2.5,9.5,11.5,16.2,20.2,17c1.4,0.1,2.8,0,4.2-0.2
						c0.3,0,0.6-0.1,0.9,0.2c0.7,0.9,1.5,1.7,2.3,2.6c-0.7,0.3-1.4,0.5-2,0.8c-1.9,1-2.9,2.7-3.5,4.7c-0.9,3.1-0.5,6.2,0.5,9.2
						C215,494.7,215.1,495.1,215.5,495.3z"/>
					<path id="Paw_Part" class="st5" d="M305.9,499.1c-2.8,0.4-5.4,0.4-7.8-1c-3.2-1.9-4-5.4-3.3-8.9c0.1-0.5,0.3-0.5,0.7-0.4
						c2.5,0.4,5.1,0.6,7.6,0.7c0.5,0,0.7,0.2,0.6,0.7C303.4,493.4,304,496.3,305.9,499.1z"/>
					<path id="Paw_Part_00000005254885933849666250000003107378698027715492_" class="st5" d="M422.8,488.6
						c-6.4,4.9-8.2,15.8-3.9,22.3c-1.9,0.2-3.4-0.4-4.8-1.5c-1.9-1.6-3.1-3.8-3.9-6.2c-1-2.9-1.5-5.9-1.1-9c0.4-3.4,2.1-5.2,5.4-5.9
						C417.3,487.9,420,488.1,422.8,488.6z"/>
					<path id="Paw_Part_00000147220389038550254280000011505495240346232962_" class="st5" d="M319.7,492.4c0.1-4.4,0.1-4.3,4-5.2
						c4.2-0.9,8.2-2.4,12-4.2c0.7-0.3,1.1-0.4,1.4,0.5c0.1,0.4,0.3,0.8,0.5,1c0.9,0.9,0.8,1.6-0.2,2.5c-1.1,0.8-1.6,2.1-2,3.3
						c-0.1,0.5-0.4,0.7-0.9,0.7c-3.7,0.5-6.4,2.3-8.3,5.5c-0.2,0.4-0.5,0.6-1,0.7c-0.9,0.2-1.8,0.2-2.8,0.1
						c-1.6-0.2-2.5-1.5-2.7-3.5C319.7,493.3,319.7,492.7,319.7,492.4z"/>
					<path id="Paw_Part_00000129177242370734486720000006181314005343418518_" class="st5" d="M306.9,491.7c0-2.3,0-2.2,2.2-2.4
						c2.3-0.2,4.7-0.4,7-0.7c0.8-0.1,0.8,0.2,0.7,0.8c-0.3,2-0.3,4.1,0.2,6.1c0,0.2,0.1,0.3,0.1,0.5c0.6,1.7,0.6,1.7-1,2.6
						c-4.3,2.2-8.5-0.4-9-5.5C306.9,492.6,306.9,492.1,306.9,491.7z"/>
				</g>
				<g id="Chest">
					<path id="Chest_Part" class="st5" d="M264,490.1c-5.8,0.1-11.5-1.1-17-2.6c-6.3-1.7-12.2-4.4-18.4-6.5c-3-1-5.3-2.7-7.5-4.8
						c-0.7-0.7-0.5-1,0.3-1.3c2.8-1.2,5.8-1.6,8.8-2c0.6-0.1,1.2-0.1,1.8-0.2c3.2-0.9,6.1,0.5,9.1,1.3c4.7,1.3,9.4,2.3,14.1,3.2
						c0.5,0.1,0.8,0.3,1,0.8c1,2.7,2.2,5.3,3.7,7.7C261.1,487.5,262.2,489.2,264,490.1z"/>
					<path id="Chest_Part_00000064354729281083990970000012564295147744032405_" class="st5" d="M265.5,490.2
						c3.5-2.4,3.9-6.3,5.1-9.9c4.9,2.8,10,4.9,15.6,6.6C279.3,488.9,272.5,490,265.5,490.2z"/>
				</g>
				<path id="Tail" class="st5" d="M410.8,409.1c-2-0.1-4-0.2-6,0.2c-1.5,0.3-2.8,1-3.8,2.2c-0.3,0.4-0.6,0.5-1.1,0.2
					c-4.2-2-8.5-4.1-12.7-6c-0.7-0.3-0.7-0.6-0.4-1.2c1.8-4,4.9-6.3,9-6.9c7.4-1.2,13.8,1.2,19.1,6.4c0.7,0.7,1.2,1.4,1.6,2.2
					c0.7,1.5,0.1,2.8-1.6,3c-0.7,0.1-1.4,0.1-2.1,0.1C412.1,409.2,411.5,409.1,410.8,409.1z"/>
				<path id="Body" class="st5" d="M466.8,495.9c-1.2-1.4-1.5-3.2-1.6-5c0-3.8-1.2-7.3-2.9-10.7c-1.2-2.3-2.8-4.2-4.9-5.8
					c-3.1-2.3-4.5-5.8-5.6-9.3c-0.7-2.2-1.2-4.4-2.4-6.4c-3.2-5.5-7.7-9.8-13.1-13c-4-2.4-8.3-4.3-12.5-6.3c-2-1-3.7-2.3-4.6-4.4
					c-3.7-8.4-9.9-14.4-17.8-18.7c-7.1-3.8-14.5-7.1-21.7-10.5c-12.2-5.7-24.3-11.5-36.3-17.6c-0.8-0.4-1.7-0.9-2.5-1.3
					c-0.1,0.3,0,0.5,0.1,0.6c4.4,7.1,7.4,14.8,8.9,23c0.2,1.4,0.5,2.8,0.2,4.2c-0.5-0.2-0.6-0.7-0.8-1.1c-0.7-1.7-1.3-3.5-2-5.2
					c-5.7-15.8-14.5-29.5-27.6-40.1c-8.9-7.2-18.7-12.4-30.1-14.3c-7.5-1.3-15-1-22.4,1c-2.9,0.8-5.7,1.9-8.3,3.4
					c-0.2,0.1-1.1,0.2-0.3,0.8c1.8,1.3,3.7,2.5,5.6,3.8c1.8,1.1,3.6,1.7,5.8,1.4c1.9-0.2,3.8-0.2,5.7,0.1c3,0.5,4.6,2.8,4.1,5.8
					c-0.2,1.2-0.7,2.2-1.2,3.2c-0.1,0.3-0.6,0.5-0.3,0.9c0.4,0.5,0.7,0,1-0.2c2.3-1.2,4.6-2.5,7.1-3.1c2.3-0.6,3.3,0.4,2.8,2.7
					c-0.4,2.2-1.3,4.3-2.3,6.3c-0.3,0.6-0.3,1,0.2,1.5c6,5.6,11.1,12.1,15.4,19.2c0.3,0.5,0.6,0.6,1.1,0.6c1.5-0.1,3-0.3,4.6-0.3
					c1.9,0,3.8-0.1,5.6,0.5c1.1,0.4,1.4,1.4,0.8,2.4c-0.4,0.7-1,1.2-1.5,1.8c-1.4,1.3-2.9,2.6-4.5,3.7c-0.8,0.5-0.9,1-0.5,1.9
					c3.7,8,6.5,16.2,8.1,24.9c0.1,0.6,0.4,1,0.9,1.3c2.1,1.1,4.2,2.3,5.9,4c1.5,1.5,1.3,2.7-0.6,3.5c-1.6,0.7-3.3,1-5,1.3
					c-0.5,0.1-0.8,0.3-0.8,0.9c-1.1,8.1-4.9,14.7-10.9,20c-0.6,0.5-0.6,1-0.4,1.7c0.7,2.5,1.3,4.9,1.2,7.5c-0.1,2-1.1,2.8-3,2.2
					c-0.4-0.1-0.9-0.3-1.3-0.4c-2.3-1-4.5-2.3-6.6-3.7c-0.5-0.4-0.9-0.4-1.5-0.2c-3.3,1.4-6.7,2.4-10.2,3.2c-3,0.7-6.1,1-9.6,1.3
					c0.5,0.3,0.7,0.4,0.9,0.6c7.4,3.8,15.3,6,23.5,6.8c6,0.5,12,0.3,18-0.6c8.8-1.4,17.1-4.2,24.7-9c2.7-1.8,5.3-3.8,7.1-6.6
					c0.2-0.4,0.5-0.7,0.4-1.3c-0.4-2-0.9-4-1.7-6c-2-4.9-9-7.1-13-1.9c-0.3,0.4-0.7,0.8-0.9,1.2c-2.2,3.2-5.2,4.1-8.9,3.5
					c-2.5-0.4-4.3-1.9-5.7-4c-0.2-0.3-0.4-0.7-0.1-1c0.3-0.3,0.6,0,0.9,0.2c1,0.5,1.9,1.1,2.9,1.7c2.9,1.9,7,0.6,8.7-2
					c0.5-0.7,1-1.4,1.6-2c3.8-4.4,8.5-4.9,13.5-1.9c3,1.8,4.4,4.9,5.2,8.2c1.3,4.8,1.4,9.7,1.7,14.5c0.2,3.1,0.5,6.1,1.6,9
					c1.6,4,4.1,7.4,7,10.5c0.4,0.4,0.8,0.8,1.1,1.5c-0.4-0.1-0.5-0.2-0.7-0.3c-4.2-2.4-7.4-5.7-9.7-10c-0.2-0.4-0.4-0.7-0.8-1
					c-2.4-1.2-4.8-2-7.5-1.6c-2.2,0.3-4.1,1.3-5.4,3.3c-0.3,0.5-0.3,0.7,0.3,0.9c2,0.6,3.8,1.8,5.4,3.1c0.4,0.4,1,0.8,1,1.4
					c-0.4,0.2-0.7,0.1-1,0c-0.8-0.3-1.7-0.6-2.5-0.8c-2.7-0.8-5.5-1.2-8.3-0.4c-2.9,0.8-4.8,2.9-5.5,5.9c-0.7,3.2,0,6.1,2.4,8.5
					c0.9,0.9,2,1.4,3.3,1.7c0.6,0.1,1,0,0.9-0.8c-0.1-0.8,0-1.6,0.1-2.5c0.6-6.2,6.1-8.4,11-6.5c0.6,0.2,1.2,0.5,1.7,1.1
					c-0.8-0.1-1.4-0.2-2.1-0.2c-2.7,0-5.4,0.2-6.8,3.1c-1.6,3.3-1,6.4,1,9.4c0.7,1.1,2,1.6,3.3,1.9c1.9,0.4,3.8,0.3,5.7,0.1
					c6.3-0.5,12.7-1.2,19-1.3c4.8-0.1,9.6,0,14.4,1.3c2.6,0.8,5.3,1,8,0.6c3.4-0.5,5.7-2.4,6.4-5.4c1-4.2-0.3-7.6-3.7-10.3
					c-0.6-0.5-0.8-0.5-1.2,0.2c-1.4,2.3-3.2,4.2-5.4,5.8c-0.4,0.3-0.8,0.7-1.2,0.4c-0.4-0.4,0-0.9,0.2-1.2c0.4-0.7,0.9-1.5,1.4-2.2
					c2.7-4.2,4.2-8.8,4.9-13.7c1-7.7,0.2-15.3-1.6-22.8c-2.8-11.4-7.7-21.7-14.3-31.3c-0.4-0.5-0.7-1-0.8-1.8
					c0.6,0.1,0.9,0.4,1.3,0.7c1.7,1.4,3.1,3.1,4.4,4.8c5.1,6.8,8.7,14.4,11.3,22.5c0.2,0.6,0.4,1,0.9,1.4c3.3,2.4,6.7,4.8,10.3,6.9
					c2.7,1.6,5.4,3.2,8.5,3.9c3.4,0.7,6.9,0.6,10.3,0.3c2.9-0.2,5.9-0.6,8.8-1.2c0.8-0.2,1.3,0.1,1.7,0.9c1.9,3.7,3.8,7.4,5.7,11.1
					c0.8,1.5,0.8,1.5-0.9,1.5c-3.3,0-6.4,0.7-9.4,2.2c-6.2,3-8.2,8.7-7.6,14.9c0.3,3,1.5,5.5,4.3,6.7c4.3,1.9,8.4,1,12.3-1.2
					c0.5-0.3,0.4-0.6,0.2-1c-0.6-1.2-1-2.5-1.2-3.9c-1.2-6.3,1.4-11,7.2-13c1.2-0.4,2.5-0.8,3.9-0.7c0.2,0,0.6,0,0.6,0.3
					c0.1,0.3-0.2,0.4-0.5,0.5c-0.6,0.3-1.3,0.5-2,0.8c-3.6,1.8-5.9,4.5-6.3,8.7c-0.4,5.3,2.6,9.8,7.4,10.9c2,0.4,3.9,0.6,5.9,0.3
					c5.4-0.8,10.2-2.8,14.2-6.8C468.8,503.4,469.3,498.8,466.8,495.9z"/>
				<g id="Head">
					<path id="Chin" class="st5" d="M222.9,447.8c-6,0.8-12.2,0.7-17.8,3.8c-2.9,1.6-5.9,3.1-9.2,3.8c-2.8,0.6-5.5,0.8-8.3,0.2
						c-5.7-1.2-8.2-7-6.5-12.2c2.1-6.3,8.6-9.4,15.1-7c2,0.7,2,0.7,0.5,2.2c-3,3-4.4,5.9-4.8,10.8c0.6-0.8,0.9-1.6,1.3-2.3
						c1-2,2.1-4,3.5-5.8c2-2.6,4.6-3.9,7.8-4c3.8-0.1,7.5,0.8,11,2.3c5,2.1,9.9,4.2,15,5.8c5.5,1.7,11.1,2.3,16.7,0.8
						c1.3-0.3,2.5-1,3.8-1.6c0.1,3,0.4,5.9,1.1,8.7c1,4.2,2.5,8.1,5,11.6c0.6,0.9,0.4,1.1-0.5,1.4c-2.8,1.1-5.7,1.5-8.6,1.8
						c-5.9,0.6-11.7,1.1-17.6,1.8c-3.9,0.4-7.7,1.2-11.3,2.9c-3.6,1.7-7.3,1.3-10.9-0.1c-6-2.4-10.3-6.5-12.4-12.7
						c-0.3-0.9-0.2-1.2,0.8-1.3c1.5-0.3,3-0.7,4.4-1.4c0.7-0.3,1.1-0.2,1.7,0.3c3.2,2.6,6.8,4.2,11.2,4c-1.6-0.9-3.1-1.6-4.5-2.5
						c-1.4-1-2.8-2-4.1-3.1c-0.6-0.5-0.7-0.8,0.1-1.3c3.6-2.5,7.6-3.9,12-4.5c1.5-0.2,3-0.4,4.3-1.1
						C222,448.5,222.5,448.3,222.9,447.8C222.9,447.8,222.9,447.8,222.9,447.8z"/>
					<path id="Cheek" class="st5" d="M268.9,421c-1-2.7-2.8-4.7-4.4-6.9c0.7-0.2,1.1,0.3,1.5,0.5c7,4.3,13.7,8.9,18.9,15.4
						c3.1,3.9,5.3,8.2,5.9,13.3c0.8,7.7-2,13.3-8.8,16.9c-6.4,3.4-13.3,4.6-20.5,4.6c-0.7,0-0.9-0.4-1.2-0.8
						c-3.1-4-4.9-8.7-5.7-13.6c-0.7-4.2-0.6-8.4-0.2-12.6c0.7-6.1,0.4-12.1-1.6-18c-1.3-3.6-3.4-6.5-7-8.1
						c-3.7-1.7-7.6-0.9-10.4,2.2c-0.3,0.3-0.6,0.6-0.8,1c-1.8,3.7-4.9,4.6-8.6,4.4c-1.8-0.1-3.5-0.1-5.3,0c-2.9,0.2-5.1,1.4-6.7,3.8
						c-0.6,0.9-1.3,1.7-1.9,2.6c-2.5,4.1-7.5,3.4-10,0c-2.4-3.3-2.3-8,0.5-11.5c1.9-2.4,4.3-4,7.4-4.5c1.8-0.3,3.5,0.2,5.1,0.7
						c1.5,0.4,3.1,0.9,4.7,1.1c2.4,0.3,4.6-0.2,6.3-2.1c1.6-1.8,3.2-3.5,4.8-5.4c4.1-5.1,10.4-7,17-2.4c4.6,3.2,8.6,7.1,12.4,11.1
						c2.4,2.6,4.9,5.1,7.4,7.6C267.9,420.5,268.2,420.8,268.9,421z"/>
					<path id="Upper_Lip" class="st5" d="M190.6,425.1c-0.7,0-1.8-0.2-2.9-0.6c-2.2-0.8-3.4-2.4-3.3-4.8c0.1-2.8,1.2-5,3.6-6.5
						c0.3-0.2,0.6-0.3,0.8,0.2c1.9,4,5.2,6.2,9.2,7.4c0.5,0.2,0.7,1.3,0.2,1.8c-0.4,0.4-0.8,0.7-1.2,1
						C195,424.6,193.1,425.1,190.6,425.1z"/>
					<path id="Eye_Lid" class="st5" d="M230.3,391.6c1.8-2,3.5-3.8,5.7-4.8c1.7-0.8,3.5-0.7,5.2-0.1c1,0.4,1.6,1.2,2,2.2
						c1,2.5,0.7,4.9-0.5,7.3c-0.2,0.4-0.5,0.5-1,0.6c-1.3,0.1-2.1-0.2-2.7-1.5c-1-2-2.8-3.2-5-3.6
						C232.8,391.4,231.6,391.6,230.3,391.6z"/>
					<path id="Forehead" class="st5" d="M225.3,372.3c-2.1,1.8-3.6,3.6-4.7,5.7c-0.2,0.4-0.4,0.8-0.6,1.5c0.7-0.3,1-0.8,1.3-1.2
						c3.5-4,7.8-6.1,13-6.5c0.7-0.1,1,0.1,0.9,0.9c0,0.3,0,0.7,0.1,1.1c0.2,0.8,0.4,1.5,0.7,2.4c0.5-0.7,0.6-1.5,0.8-2.2
						c1.8-5.9,5.6-10,11.1-12.5c3.8-1.7,7.4-1.1,10.8,1.2c1.5,1,3,2.1,4.5,3.1c2.2,1.4,4.6,1.9,7.1,1.7c1.7-0.2,3.3-0.2,5,0.1
						c1.5,0.3,1.9,1,1.5,2.5c-0.7,2.5-2.4,4.2-4.6,5.3c-3.6,1.8-7.3,2.1-11.1,0.7c-2.6-0.9-5.2-1-7.9-0.3c-0.4,0.1-0.9,0.2-1.2,0.8
						c0.7,0.3,1.4,0.3,2.1,0.3c2.3,0,4.2,1.1,6.1,2.1c0.3,0.2,0.4,0.4,0.3,0.7c-0.1,5.3,2.7,9.1,6.1,12.7c2.5,2.6,5.5,4.6,8.3,6.9
						c4.6,3.9,7.4,8.9,8.4,14.8c0.1,0.7,0.4,1.2,0.7,1.7c3.1,4.1,4.6,8.8,5.3,13.9c0,0.2,0,0.3,0,0.7c-2.3-3.3-4.9-6.1-7.8-8.7
						c-5.1-4.6-10.8-8.3-16.7-11.7c-2-1.1-3.9-2.3-6-3.1c-1.7-0.7-3-1.9-4.3-3.1c-1.5-1.3-3.1-2.6-4.8-3.8c-1.7-1.1-3.5-2.1-5.4-2.8
						c1.7-2.4,2-5.1,1.3-7.9c-1-4.1-3.6-5.7-7.9-5.3c-3.5,0.3-5.9,2.6-8.2,5c-3,3.2-5.2,6.9-8.1,10.2c-2.6,2.9-5.3,5.7-8.8,7.7
						c-1.1,0.7-2.4,0.3-3.5,0.6c-0.4,0.1-0.5-0.4-0.7-0.7c-2.3-3.7-2.6-8.4,1.3-12.4c1.7-1.8,3.7-3.3,5.2-5.3c1-1.3,1.9-2.7,2.3-4.4
						c-2.1,3.5-5.4,5.8-8.3,8.4c-1.2,1.1-2.4,2.4-3.3,3.8c-1.6,2.7-1.5,5.6-0.4,8.7c-4.8-1.5-9.5-1.8-14.2,0.4
						c-0.2-3.2,0.8-5.8,3.3-7.8c0.5-0.4,1-0.7,1.5-1c1.5-0.9,2.7-0.7,3.9,0.6c0.4,0.4,0.7,0.9,1.2,1.4c0.2-0.8,0.1-1.6,0-2.3
						c-0.6-5.9,1.5-10.9,5.3-15.2c4.1-4.6,9.4-7,15.2-8.7C222.7,372.7,223.8,372.3,225.3,372.3z"/>
					<path id="Ear" class="st5" d="M224.5,368.9c-2.4,0.6-4.5,1.1-6.6,1.9c-4.9,1.8-9.3,4.2-13.1,7.9c-0.2,0.2-0.5,0.5-0.8,0.5
						c-2.2,0.3-4.5,0.6-6.7,0c-1.9-0.5-2.3-1.6-1.2-3.3c1-1.6,2.4-2.8,4-3.9c4.2-2.8,8.7-4.9,13.7-5.7
						C217.5,365.9,221.1,366.5,224.5,368.9z"/>
				</g>
			</g>
			<g id="White_Parts">
				<g id="Spikes">
					<path id="Spike_00000041292950597516356200000002455401688892479400_" class="st3" d="M269.1,474.7c-0.2,3.8-1,7.4-2.5,10.9
						c-0.1,0.3-0.3,0.6-0.5,1c-1.1,1.8-1.6,1.9-2.9,0.2c-2.6-3.3-4.4-7.1-5.5-11.1c-0.5-1.9,0-3.4,1.7-4.4c2.4-1.4,4.9-1.7,7.6-0.9
						c1.3,0.4,1.9,1.3,1.9,2.6C269,473.4,269.1,474.1,269.1,474.7z"/>
					<path id="Spike_00000064318660959273555340000011029414718169988529_" class="st3" d="M304.5,475.5c0.1,1.3-0.1,1.4-1.2,0.8
						c-4-2-7.8-4.3-11.2-7.4c-1.4-1.3-1.5-2.4-0.5-4c1.1-1.9,2.7-3.3,4.7-4.2c1.9-0.8,2.6-0.6,3.8,1.1c1.3,1.8,2.1,3.8,2.8,5.9
						C303.7,470.3,304.3,472.9,304.5,475.5z"/>
					<path id="Spike_00000111175258037863882070000006061723647397937026_" class="st3" d="M321.6,442.9c-1.5,0.7-3.2,0.9-4.8,1.2
						c-4.1,0.7-8.2,1.2-12.4,1c-1.6-0.1-2.5-0.7-3-2.2c-0.7-2.1-0.6-4.3,0.2-6.3c0.6-1.7,1.3-2,3-1.7c2.5,0.4,4.8,1.3,7.1,2.3
						c3.2,1.4,6.2,2.9,9,5C321.1,442.3,321.4,442.5,321.6,442.9z"/>
					<path id="Spike" class="st3" d="M312.6,403.3c-1,1.1-1.9,1.9-2.9,2.7c-3.3,2.6-6.7,5.1-10.4,7c-1.9,1-3,0.8-4.5-0.8
						c-1.1-1.2-1.8-2.7-2-4.3c-0.1-1,0.2-1.8,1.2-2.3c2.7-1.2,5.5-1.7,8.3-2C305.6,403.2,309,403,312.6,403.3z"/>
					<path id="Spike_00000098943791795790263770000007251386862308892862_" class="st3" d="M287.4,373c-0.8,3.6-2.3,6.6-4,9.6
						c-1.1,1.9-2.3,3.7-3.9,5.2c-1.2,1.1-2.5,1.3-3.9,0.6c-1.8-0.9-3.2-2.2-4-4.1c-0.5-1.1-0.3-2.1,0.6-2.9c1.5-1.4,3.2-2.4,4.9-3.4
						c3-1.7,6-3.5,9.2-4.7C286.5,373.3,286.9,373.2,287.4,373z"/>
				</g>
				<g id="Teeth">
					<path id="Lower_Big_Teeth" class="st3" d="M251.4,422.8c1.2,4.9,1.2,9.7,0.9,14.5c-0.3,4.1-2.2,5.7-6.2,6.7
						c-4.4,1.2-8.8,0.8-13.1-0.3c-5.5-1.4-10.6-3.8-15.8-5.8c-2.5-1-5.1-2-7.8-2.5c-0.3-0.1-2.1-0.2-2.1-0.2
						c1.1-0.2,2.1-2.5,2.8-3.7c0.9-1.6,1.4-1.3,2-0.5c1,1.2,1.5,2,2.5,3.1c1.5,1.9,2.7,2.2,4.6-0.9c0.9-1.4,1.8-3,2.6-4.3
						c0.5-0.8,1.2-0.4,2,0.3c1.2,1.2,2.2,2.6,3.6,3.6c1.8,1.3,2.8,1.1,3.9-0.8c1.1-1.7,2.4-3.7,3.3-5.5c0.1-0.1,0.1-0.2,0.1-0.3
						c0.9-1.4,1.2-1.1,2-0.3c1.8,1.8,2.3,2.6,3.6,3.9c3.4,3.6,3.4,3,6-0.7c1.8-2.7,2.5-3.7,4.4-5.9
						C251,423.2,251.1,423.1,251.4,422.8z"/>
					<path id="Upper_Big_Teeth" class="st3" d="M225.2,421.2c1.3,0,2.6,0.1,3.8,0c2.8-0.2,5-1.6,6.5-4c0.7-1.1,1.4-2.1,2.5-2.9
						c3.5-2.7,7.6-1.1,10.1,1.7c1.1,1.3,1.8,2.8,2.5,4.4c0.2,0.4,0.1,0.7-0.2,1.1c-2,2.4-3.5,4.5-5.7,7.4c-0.7,1-1,1.9-1.8,1.3
						c-1.8-1.5-3.3-3.4-4.9-5.3c-1.8-2-2.8-1.7-3.9-0.2c-1,1.9-2.4,3.8-3.5,5.9c-1,2-1,1.9-2.7,0.6c-1.1-0.9-2.2-2.3-3.3-3.3
						c-2.1-2-2.5-1.7-3.8,0c-1,1.5-2.1,3.5-3.2,5.1c-0.5,0.7-1,1.1-1.5,0.7c-1.2-1.4-1.6-1.9-2.8-3.4c-0.4-0.5-0.6-0.8-1.5-1.3
						c0.3-0.2,1.9-1.3,3.3-3.9c1.6-2.6,3.8-3.8,6.7-3.7C223,421.3,224.1,421.2,225.2,421.2C225.2,421.2,225.2,421.2,225.2,421.2z"/>
					<path id="Small_Tooth" class="st3" d="M184.3,424.9c1.9,1.4,3.9,2.2,6.4,2.3c-1.1,0.3-2.4,3.2-3.2,4.8c-0.8,1.4-1.1,1.1-2,0.3
						C183.7,430.3,183.2,427.5,184.3,424.9z"/>
					<path id="Small_Tooth_00000176745456225691667590000008746361511290254734_" class="st3" d="M196.6,434.1
						c1.4-0.3,1.9-2.2,3.2-3.8c1-1.3,1.7-0.8,2.3,0.4c0.8,1.4,1.9,4,2.9,4.4c-0.5,0-0.3-0.1-1.5,0c-1,0.1-2,0.3-2.9,0.7
						c-0.3,0.1-0.5,0-0.8-0.1C198.9,435.1,197.7,434.5,196.6,434.1z"/>
					<path id="Small_Tooth_00000010275980468834045570000004816705062781485477_" class="st3" d="M192,427.3c2.7-0.3,5-1.1,7.1-2.6
						c0,0,0.1,0,0.1,0.1c0.5,0.9,1.3,2.2,1.9,3c-0.6,0.1-1.4,0.7-2,1.4c-0.6,0.7-1.3,2-1.9,2.8c-0.6,1-1.2,1.2-2.1-0.4
						C193.6,429.2,192.7,427.5,192,427.3z"/>
					<path id="Small_Tooth_00000161626082163409758430000011821844150332903344_" class="st3" d="M202.7,428.9
						c2.7,1.8,5.6,1.3,6.9,0.9c-0.4,0.3-1.4,2.2-2.1,3.3c-0.3,0.5-1,1.1-1.4,1.1c-0.5,0-0.9-0.7-1.3-1.3
						C204.2,431.6,203.3,429.5,202.7,428.9z"/>
					<path id="Small_Tooth_00000131366063733043193380000002377201516829066120_" class="st3" d="M194.8,433.5
						c-1.9-0.4-4.5-1-6.6-0.3c0.5-0.2,1.9-4.5,2.8-4.7C192.2,428,194.3,433.2,194.8,433.5z"/>
				</g>
				<g id="Eye">
					<path id="Eye_White" class="st3" d="M231.9,393.6c2.4,0,4.1,0.9,5.3,2.8c0.2,0.3,0.4,0.6-0.2,0.8c-4,1-6.7,3.7-9.2,6.8
						c-1,1.2-1.5,1.9-2.5,2.8c0.9-2.6-2.7-4.3-4.1-4.1c0.6-0.6,1.3-1.4,2.5-2.9c1-1.2,2-2.5,2.9-3.7c0.9-1.5,2.3-2,3.8-2.3
						C231,393.7,231.6,393.7,231.9,393.6z"/>
					<path id="Eye_White_Small" class="st3" d="M218.7,406.8c0.8,0,1.3,0.3,1.5,1.1c0.2,0.8-0.2,1.2-1,1c-0.3-0.1-0.6-0.1-0.8-0.2
						c-0.5-0.2-1.1-0.2-1-1C217.4,407.2,217.9,406.8,218.7,406.8z"/>
				</g>
			</g>
			<path id="Collar" class="st6" d="M270.8,379.5c-2,1.9-2.1,4-0.9,6.3c1.1,2.2,2.9,3.8,5.1,4.8c2.2,0.9,4.2,0.5,5.9-1.2
				c0.7-0.7,1.4-1.5,2-2.3c0.6-0.8,1.2-1.6,1.7-2.5c0.4-0.7,0.7-0.7,1.2-0.2c4.8,4.8,9.2,10,12.8,15.7c0.3,0.5,1,1,0.8,1.5
				c-0.2,0.5-1,0.3-1.5,0.5c-1.6,0.4-3.2,0.8-4.8,1.5c-1.8,0.8-2.8,2.4-2.5,4.4c0.3,1.8,0.9,3.5,2,4.9c1.8,2.4,4.4,4,8.1,1.7
				c1.2-0.7,2.4-1.5,3.6-2.2c0.6-0.4,0.9-0.4,1.3,0.4c2.8,6.3,5.2,12.8,6.7,19.6c0.2,0.7,0.4,1.4,0.6,2.1c0.1,0.5,0,0.8-0.7,0.6
				c-2.1-0.8-4.1-1.5-6.3-2.1c-3.7-1-5.7,0.4-6.7,4.1c-0.6,2.5-0.6,5,0.5,7.4c0.9,1.9,2.3,2.8,4.4,2.9c2.6,0,5.2,0.1,7.8-0.4
				c0.3-0.1,0.6,0,1-0.1c0.6-0.1,0.7,0.2,0.6,0.8c-0.9,4.8-2.8,9.1-5.9,12.9c-0.9,1.1-1.9,2.1-2.9,3.1c-0.7,0.6-1,0.4-1.3-0.3
				c-0.5-1.2-1.2-2.4-2.1-3.4c-1.6-1.9-2.9-2.3-5.2-1.4c-2.7,1-5,2.8-6.4,5.4c-1.5,2.8-1.3,4.5,1.3,6.9c0.7,0.7,0.7,0.8-0.2,1.2
				c-4.5,1.6-9.1,2.7-13.9,3.2c-1.6,0.1-3.1,0.2-4.7,0.2c-0.6,0-1-0.1-0.9-0.9c0-0.7,0-1.5-0.1-2.3c-0.4-2.5-0.9-3.1-4-4.4
				c1.3-0.2,2.4-0.5,3.6-0.6c6.1-1,11.8-2.9,16.7-6.9c3.9-3.1,6.1-7.2,6.5-12.1c0.3-3.6,0.2-7.3-1.2-10.7c-0.2-0.5-0.2-1-0.1-1.6
				c0.4-7.5-1.1-14.5-5.3-20.8c-0.6-1-1-2-1.2-3.1c-1.5-7.2-5.5-12.7-11.3-16.9c-3.7-2.7-7.1-5.5-9.5-9.5c-0.9-1.5-1.5-3-1.6-4.7
				c0-0.3-0.1-0.7,0.4-0.7C266.3,380.3,268.5,380.1,270.8,379.5z M254.8,474c0.5,0.1,0.6-0.1,0.7-0.6c0.3-1.8,1.3-3.1,2.8-4.1
				c0.9-0.6,1.9-0.8,2.9-1.4c-1-0.3-1.8,0-2.6,0.5c-1.1,0.7-2.3,1.2-3.5,1.5c-3.3,0.8-6.7,1.3-10.2,1.7
				C248.2,472.7,251.5,473.3,254.8,474z"/>
			<path id="Nose_Tip" class="st7" d="M198.8,417.6c0,0-7.2-0.6-7.7-8.3c0-0.8,7.3-5,14.8-0.3C199.4,412.3,198.8,417.6,198.8,417.6z
				"/>
		</g>
		<g id="BULLDOG">
			<g id="BULLDOG-Dark">
				<path id="S_00000004546339839368448630000007185927902318700204_" class="st8" d="M469.1,191.6c1.3-5.6,2.7-11.2,3.9-16.1
					c3.4-12.3,11.1-19.1,16.9-19.1c2.8,0,32.8,0,32.8,0l-5.1,25.4h-18.5l1.4-6.3h-9.5l-3.1,12.8h13.7c10.3,0.4,12.7,6.3,10.3,16.7
					c0,0-2.7,11.4-3.6,15.1c-2.9,12-9.3,17.6-16.7,17.5c-10.6,0.2-15.6,0-20.9,0c-5,0-8,0-11.7,0.1c0.8-3.4,5-21.9,5.9-25.6
					l17.3,0.1l-1.9,8.1H491l3.4-14.5c0,0-11,0.2-13.7,0.2C469.1,205.7,467.9,196.8,469.1,191.6z"/>
				<path id="G_00000103238432996447080360000018154697045117432737_" class="st8" d="M453.4,237.5c-12.3,0.2-28.1,0-33,0
					c-5.2,0-11.8-2.5-8.4-17.6c3.5-14,7.3-31.3,10.7-44.5c3.4-14,10.1-18.8,14.6-19.3c5.9-0.2,26.2,0.2,35.8,0.2
					c-4.6,18.2-6.3,23.9-6.3,23.9l-18-0.2l1.2-4.6h-9.5L430,220.1h9.7l3.4-15h-4.7l4.3-17.3l22.5,0.4L453.4,237.5z"/>
				<path id="O_00000088134212774854240650000013587612055927786681_" class="st8" d="M409.2,156.2c-9.6,0-20.3,0.2-23,0.2
					c-5.9,0.1-11,3.4-14.6,18.9c-3.4,13.2-7.2,30.6-10.7,44.6c-3.7,14.8,3.7,17.4,8.4,17.5c5.3,0.1,10.3,0.2,20.9,0
					c7.4,0.1,13.8-5.6,16.7-17.5c3.3-14.2,7.5-31.7,10.8-44.6C420.2,165.5,416.4,156.2,409.2,156.2z M388.5,220.1h-9.7l10.7-44.8
					h9.5L388.5,220.1z"/>
				<path id="D_00000006702405924172587300000017815303812820839838_" class="st8" d="M358.2,156.4c-9.7,0-35.1,0-38.1,0l-4.5,18.9
					h3.9l-10.7,44.8h-4.2l-3.6,17.4c0,0,27.2,0.2,37.9,0c7.5,0.1,13.9-4.9,16.8-17c3.4-14.3,7.8-32.1,10.8-45.1
					C368.8,165.9,365.4,156.4,358.2,156.4z M336,220.1h-9.7l10.7-44.8h9.5L336,220.1z"/>
				<path id="L_00000056386102673885029660000007111918231088763037_" class="st8" d="M267.5,156.4c3,0,27.8,0,27.8,0l-4.7,18.9H286
					l-9.9,44.8h6.9l2.7-13.5l17-0.2l-6.6,31h-46.8l3.6-17.4h5l9.9-44.8h-4.7L267.5,156.4z"/>
				<path id="L_00000034054033382589050580000004397263983453981603_" class="st8" d="M217.3,156.4c3,0,26.2,0,26.2,0l-3.9,18.9H235
					l-9.9,44.8h6.9l2.7-13.5l16.2-0.2l-6.6,31h-46.8l4.3-17.4h5l10.7-44.8h-4.7L217.3,156.4z"/>
				<path id="U_00000057116293265474259200000017225705484017856917_" class="st8" d="M157,156.4l-5.1,18.9h5
					c0,0-8.6,34.7-11.2,47.6c-1.2,5.9,0.2,14.6,6.7,14.6c6.6,0,19.6,0,26.1,0c10.8,0,13.9-13.9,13.9-13.9l11.7-48.2h4.1l4.3-18.9
					h-22.8l-15,63.7h-9.3l14.9-63.7H157L157,156.4z"/>
				<path id="B_00000025430119880610519190000016050450327695027076_" class="st8" d="M139,156.4c-13.8,0.2-39.4,0-39.4,0l-4.4,19h5
					l-10.6,44.8h-5.1L80,237.2c0,0,28.9,0.5,39.4,0.3c10.1,0.1,14.1-6.9,15.7-12.5c0.5-2.5,4-16.9,4.7-19.3
					c1.6-5.3,0.3-9.1-6.3-10.3c6.8,0.1,8.9-1.1,10.2-5.9c1.1-3.7,2.7-9.8,3.7-14.1C149.6,166.1,150.3,156.9,139,156.4z M117.8,220.1
					h-9.3l3.4-14.9l9.3-0.2L117.8,220.1z M124.9,189.6h-9.4l3.4-14.3h9.5L124.9,189.6z"/>
			</g>
			<g id="BULLDOG-Light">
				<path id="S" class="st9" d="M464.7,187.3c1.3-5.6,2.7-11.2,3.9-16.1c3.4-12.3,11.1-19.1,16.9-19.1c2.8,0,32.8,0,32.8,0
					l-5.1,25.4h-18.5l1.4-6.3h-9.5l-3.1,12.8h13.7c10.3,0.4,12.7,6.3,10.3,16.7c0,0-2.7,11.4-3.6,15.1c-2.9,12-9.3,17.6-16.7,17.5
					c-10.6,0.2-15.6,0-20.9,0c-5,0-9.2,0-12.9,0.1c0.8-3.4,5.2-21.9,6.1-25.6l18.2,0.1l-1.9,8.1h10.4l3.4-14.5c0,0-11,0.2-13.7,0.2
					C464.7,201.5,463.5,192.6,464.7,187.3z"/>
				<path id="G" class="st9" d="M449,233.3c-12.3,0.2-28.1,0-33,0c-5.2,0-11.8-2.5-8.4-17.6c3.5-14,7.3-31.3,10.7-44.5
					c3.4-14,10.1-18.8,14.6-19.3c5.9-0.2,26.2,0.2,35.8,0.2c-4.6,18.2-6.3,23.9-6.3,23.9l-17.9-0.2l1.2-4.6h-9.5l-10.7,44.8h9.7
					l3.4-15h-4.7l4.3-17.3l22.4,0.3L449,233.3z"/>
				<path id="O" class="st9" d="M404.8,152c-9.6,0-20.3,0.2-23,0.2c-5.9,0.1-11,3.4-14.6,18.9c-3.4,13.2-7.2,30.6-10.7,44.6
					c-3.7,14.8,3.7,17.4,8.4,17.5c5.3,0.1,10.3,0.2,20.9,0c7.4,0.1,13.8-5.6,16.7-17.5c3.3-14.2,7.5-31.7,10.8-44.6
					C415.8,161.2,412,152,404.8,152z M384.1,215.9h-9.7l10.7-44.8h9.5L384.1,215.9z"/>
				<path id="D" class="st9" d="M353.7,152.3c-9.7,0-35.1,0-38.1,0l-4.5,18.9h3.9l-10.7,44.8h-4.2l-3.7,17.5c0,0,27.4,0,38-0.1
					c7.5,0.1,13.9-4.9,16.8-17c3.4-14.3,7.9-32.1,10.9-45.1C364.4,161.7,361,152.3,353.7,152.3z M331.5,215.9h-9.7l10.7-44.8h9.5
					L331.5,215.9z"/>
				<path id="L" class="st9" d="M263.1,152.3c3,0,27.8,0,27.8,0l-4.7,18.9h-4.6l-9.9,44.8h6.9l2.7-13.5l17-0.2l-6.6,31h-46.9
					l3.7-17.4h5.1l9.9-44.8h-4.7L263.1,152.3z"/>
				<path id="L_00000005961750670012436270000000948459104063206293_" class="st9" d="M212.8,152.3c3,0,26.2,0,26.2,0l-3.9,18.9
					h-4.7l-10,44.8h6.9l2.7-13.5l16.2-0.2l-6.6,31H193l4.3-17.4h5l10.7-44.8h-4.7L212.8,152.3z"/>
				<path id="U" class="st9" d="M152.5,152.3l-5,18.9h5c0,0-8.6,34.7-11.2,47.6c-1.2,5.9,0.2,14.6,6.7,14.6c6.6,0,19.6,0,26.1,0
					c10.8,0,13.9-13.9,13.9-13.9l11.5-48.3h4.1l4.3-18.9h-22.8L170,215.9h-9.3l14.9-63.7H152.5z"/>
				<path id="B" class="st9" d="M134.5,152.2c-13.8,0.2-39.4,0-39.4,0l-4.4,19h5l-10.6,44.8h-5.1L75.6,233c0,0,28.9,0.5,39.4,0.3
					c10.1,0.1,14.1-6.9,15.7-12.5c0.5-2.5,4-16.9,4.7-19.3c1.6-5.3,0.3-9.1-6.3-10.3c6.8,0.1,8.9-1.1,10.2-5.9
					c1.1-3.7,2.7-9.8,3.7-14.1C145.2,161.8,145.9,152.7,134.5,152.2z M113.4,215.9h-9.3l3.4-14.9l9.3-0.2L113.4,215.9z M120.5,185.5
					h-9.4l3.4-14.3h9.5L120.5,185.5z"/>
			</g>
		</g>
		<g id="SOUTHERN-ILLINOIS">
			<g id="SOUTHERN-ILLINOIS-Light">
				<path id="S_00000061456737613292783060000007631627802091585956_" class="st9" d="M9.6,112.2h9.1v4.5h9.1v-9H16.8l-7.3-7.2V87.8
					l7.3-7.2h12.7l7.3,7.2v6.3h-9.1v-4.5h-9.1v9h10.7l7.4,7.2v12.7l-7.3,7.2H16.8l-7.3-7.2V112.2z"/>
				<path id="O_00000082348348457478873330000001152206705593646482_" class="st9" d="M48.8,125.8l-7.3-7.2V87.8l7.3-7.2h12.7
					l7.3,7.2v30.8l-7.3,7.2H48.8z M50.7,116.8h9.1V89.6h-9.1V116.8z"/>
				<path id="U_00000163771937773790351490000014298420105525415080_" class="st9" d="M73.6,80.6h17.5v9h-3.9v27.1h9.1V89.6h-3.9v-9
					h17.5v9h-4.5v29l-7.3,7.2H85.4l-7.3-7.2v-29h-4.5V80.6z"/>
				<path id="T" class="st9" d="M123.7,125.8v-9h4.5V89.6h-4.5v4.5h-9.1V80.6h36.3v13.6h-9.1v-4.5h-4.5v27.1h4.5v9H123.7z"/>
				<path id="H" class="st9" d="M155.8,125.8v-9h4.5V89.6h-4.5v-9h17.5v9h-3.9v9h9.1v-9h-3.9v-9H192v9h-4.5v27.1h4.5v9h-17.5v-9h3.9
					v-9h-9.1v9h3.9v9H155.8z"/>
				<path id="E" class="st9" d="M196.8,125.8v-9h4.5V89.6h-4.5v-9h31.7v13.6h-9.1v-4.5h-9.1v9h9.1v9h-9.1v9h9.1v-4.5h9.1v13.6H196.8
					z"/>
				<path id="R" class="st9" d="M233.4,125.8v-9h4.5V89.6h-4.5v-9h24.5l7.3,7.2v12.7l-2.7,2.7l2.7,2.7v10.9h4.5v9h-17.5v-9h3.9v-9
					H247v9h3.9v9H233.4z M247,98.7h9.1v-9H247V98.7z"/>
				<path id="N_00000076582429430832791350000016492979931968647576_" class="st9" d="M274.5,125.8v-9h4.5V89.6h-4.5v-9h13.6
					l13.6,25.9V89.6h-4.5v-9h18.1v9h-4.5v36.2h-9.1l-13.6-25.9v16.8h4.5v9H274.5z"/>
				<path id="I_00000124145951702192803370000016097984434435542417_" class="st9" d="M345.6,125.8v-9h4.5V89.6h-4.5v-9h17.5v9h-3.9
					v27.1h3.9v9H345.6z"/>
				<path id="L_00000168837226358898490660000003112684407354997171_" class="st9" d="M367.9,125.8v-9h4.5V89.6h-4.5v-9H386v9h-4.5
					v27.1h9.1v-4.5h9.1v13.6H367.9z"/>
				<path id="L_00000071553165221226566280000004164663330913927865_" class="st9" d="M404.5,125.8v-9h4.5V89.6h-4.5v-9h18.1v9h-4.5
					v27.1h9.1v-4.5h9.1v13.6H404.5z"/>
				<path id="I_00000061432928485073985170000017991228626614306964_" class="st9" d="M441,125.8v-9h4.5V89.6H441v-9h17.5v9h-3.9
					v27.1h3.9v9H441z"/>
				<path id="N" class="st9" d="M463.3,125.8v-9h4.5V89.6h-4.5v-9h13.6l13.6,25.9V89.6H486v-9h18.1v9h-4.5v36.2h-9.1l-13.6-25.9
					v16.8h4.5v9H463.3z"/>
				<path id="O_00000159463197833368920740000012394948003028079774_" class="st9" d="M516.2,125.8l-7.3-7.2V87.8l7.3-7.2h12.7
					l7.3,7.2v30.8l-7.3,7.2H516.2z M518,116.8h9.1V89.6H518V116.8z"/>
				<path id="I" class="st9" d="M540.9,125.8v-9h4.5V89.6h-4.5v-9h17.5v9h-3.9v27.1h3.9v9H540.9z"/>
				<path id="S_00000126302563591946401730000006566090529518458036_" class="st9" d="M563.2,112.2h9.1v4.5h9.1v-9h-10.9l-7.3-7.2
					V87.8l7.3-7.2h12.7l7.3,7.2v6.3h-9.1v-4.5h-9.1v9H583l7.4,7.2v12.7l-7.3,7.2h-12.7l-7.3-7.2V112.2z"/>
			</g>
			<g id="SOUTHERN-ILLINOIS-Dark">
				<g id="S_00000072270517158197975040000011732605077813281932_">
					<polygon class="st10" points="16,124.3 9.1,117.4 9.1,111.7 17.1,111.7 17.1,116.3 27.2,116.3 27.2,106.2 16,106.2 9.1,99.3 
						9.1,87 16,80.1 28.3,80.1 35.3,87 35.3,92.6 27.2,92.6 27.2,88.1 17.1,88.1 17.1,98.2 28.2,98.2 35.3,105.1 35.3,117.4 
						28.3,124.3 					"/>
					<path class="st5" d="M28.1,80.6l6.7,6.7v4.9h-7.1v-3.5v-1h-1h-9.1h-1v1v9v1h1H28l6.8,6.7v11.8l-6.7,6.7H16.2l-6.7-6.7v-4.9h7.1
						v3.5v1h1h9.1h1v-1v-9v-1h-1H16.2l-6.7-6.7V87.2l6.7-6.7H28.1 M28.5,79.6H15.8l-7.3,7.2v12.7l7.3,7.2h10.9v9h-9.1v-4.5H8.6v6.3
						l7.3,7.2h12.7l7.3-7.2v-12.7l-7.4-7.2H17.6v-9h9.1v4.5h9.1v-6.3L28.5,79.6L28.5,79.6z"/>
				</g>
				<g id="O_00000121981072709133365580000007957285878381042327_">
					<path class="st10" d="M48,124.3l-7-6.9V87l7-6.9h12.3l7,6.9v30.4l-7,6.9H48z M49.2,116.3h10.1V88.1H49.2V116.3z"/>
					<path class="st5" d="M60.1,80.6l6.7,6.7v29.9l-6.7,6.7H48.3l-6.7-6.7V87.2l6.7-6.7H60.1 M48.7,116.8h1h9.1h1v-1V88.6v-1h-1
						h-9.1h-1v1v27.1V116.8 M60.5,79.6H47.8l-7.3,7.2v30.8l7.3,7.2h12.7l7.3-7.2V86.8L60.5,79.6L60.5,79.6z M49.7,115.8V88.6h9.1
						v27.1H49.7L49.7,115.8z"/>
				</g>
				<g id="U_00000027600441887727018200000015921960747016353983_">
					<polygon class="st10" points="84.6,124.3 77.6,117.4 77.6,88.1 73.1,88.1 73.1,80.1 89.6,80.1 89.6,88.1 85.7,88.1 85.7,116.3 
						95.8,116.3 95.8,88.1 91.9,88.1 91.9,80.1 108.4,80.1 108.4,88.1 103.8,88.1 103.8,117.4 96.9,124.3 					"/>
					<path class="st5" d="M107.9,80.6v7h-3.5h-1v1v28.5l-6.7,6.7H84.8l-6.7-6.7V88.6v-1h-1h-3.5v-7h15.5v7h-2.9h-1v1v27.1v1h1h9.1h1
						v-1V88.6v-1h-1h-2.9v-7H107.9 M108.9,79.6H91.4v9h3.9v27.1h-9.1V88.6h3.9v-9H72.6v9h4.5v29l7.3,7.2h12.7l7.3-7.2v-29h4.5V79.6
						L108.9,79.6z"/>
				</g>
				<g id="T_00000152242918073407816680000005232568689727830436_">
					<polygon class="st10" points="123.2,124.3 123.2,116.3 127.8,116.3 127.8,88.1 122.2,88.1 122.2,92.6 114.2,92.6 114.2,80.1 
						149.4,80.1 149.4,92.6 141.4,92.6 141.4,88.1 135.8,88.1 135.8,116.3 140.4,116.3 140.4,124.3 					"/>
					<path class="st5" d="M148.9,80.6v11.6h-7.1v-3.5v-1h-1h-4.5h-1v1v27.1v1h1h3.5v7h-16.1v-7h3.5h1v-1V88.6v-1h-1h-4.5h-1v1v3.5
						h-7.1V80.6H148.9 M149.9,79.6h-36.3v13.6h9.1v-4.5h4.5v27.1h-4.5v9h18.1v-9h-4.5V88.6h4.5v4.5h9.1V79.6L149.9,79.6z"/>
				</g>
				<g id="H_00000063634993988308043660000006952726078261744526_">
					<polygon class="st10" points="174,124.3 174,116.3 177.9,116.3 177.9,106.2 167.9,106.2 167.9,116.3 171.7,116.3 171.7,124.3 
						155.3,124.3 155.3,116.3 159.8,116.3 159.8,88.1 155.3,88.1 155.3,80.1 171.7,80.1 171.7,88.1 167.9,88.1 167.9,98.2 
						177.9,98.2 177.9,88.1 174,88.1 174,80.1 190.5,80.1 190.5,88.1 186,88.1 186,116.3 190.5,116.3 190.5,124.3 					"/>
					<path class="st5" d="M190,80.6v7h-3.5h-1v1v27.1v1h1h3.5v7h-15.5v-7h2.9h1v-1v-9v-1h-1h-9.1h-1v1v9v1h1h2.9v7h-15.5v-7h3.5h1
						v-1V88.6v-1h-1h-3.5v-7h15.5v7h-2.9h-1v1v9v1h1h9.1h1v-1v-9v-1h-1h-2.9v-7H190 M191,79.6h-17.5v9h3.9v9h-9.1v-9h3.9v-9h-17.5v9
						h4.5v27.1h-4.5v9h17.5v-9h-3.9v-9h9.1v9h-3.9v9H191v-9h-4.5V88.6h4.5V79.6L191,79.6z"/>
				</g>
				<g id="E_00000182505635447144939940000009360629137735663017_">
					<polygon class="st10" points="196.3,124.3 196.3,116.3 200.9,116.3 200.9,88.1 196.3,88.1 196.3,80.1 227.1,80.1 227.1,92.6 
						219,92.6 219,88.1 208.9,88.1 208.9,98.2 218,98.2 218,106.2 208.9,106.2 208.9,116.3 219,116.3 219,111.7 227.1,111.7 
						227.1,124.3 					"/>
					<path class="st5" d="M226.6,80.6v11.6h-7.1v-3.5v-1h-1h-9.1h-1v1v9v1h1h8.1v7h-8.1h-1v1v9v1h1h9.1h1v-1v-3.5h7.1v11.6h-29.7v-7
						h3.5h1v-1V88.6v-1h-1h-3.5v-7H226.6 M227.6,79.6h-31.7v9h4.5v27.1h-4.5v9h31.7v-13.6h-9.1v4.5h-9.1v-9h9.1v-9h-9.1v-9h9.1v4.5
						h9.1V79.6L227.6,79.6z"/>
				</g>
				<g id="R_00000096744104249301169950000012100241336056292001_">
					<path class="st10" d="M251.7,124.3v-8h3.9v-10h-10.1v10h3.9v8h-16.5v-8h4.5V88.1h-4.5v-8h23.8l7,6.9v12.3l-2.9,2.9l2.9,2.9
						v11.2h4.5v8H251.7z M245.5,98.2h10.1v-10h-10.1V98.2z"/>
					<path class="st5" d="M256.4,80.6l6.7,6.7v11.8l-2.4,2.4l-0.7,0.7l0.7,0.7l2.4,2.4v10.4v1h1h3.5v7h-15.5v-7h2.9h1v-1v-9v-1h-1
						H246h-1v1v9v1h1h2.9v7h-15.5v-7h3.5h1v-1V88.6v-1h-1h-3.5v-7H256.4 M245,98.7h1h9.1h1v-1v-9v-1h-1H246h-1v1v9V98.7 M256.9,79.6
						h-24.5v9h4.5v27.1h-4.5v9h17.5v-9H246v-9h9.1v9h-3.9v9h17.5v-9h-4.5v-10.9l-2.7-2.7l2.7-2.7V86.8L256.9,79.6L256.9,79.6z
						 M246,97.7v-9h9.1v9H246L246,97.7z"/>
				</g>
				<g id="N_00000126305016348252302050000007163820324220484789_">
					<polygon class="st10" points="301,124.3 286.6,96.9 286.6,116.3 291.1,116.3 291.1,124.3 274,124.3 274,116.3 278.5,116.3 
						278.5,88.1 274,88.1 274,80.1 286.8,80.1 301.2,107.4 301.2,88.1 296.6,88.1 296.6,80.1 313.8,80.1 313.8,88.1 309.2,88.1 
						309.2,124.3 					"/>
					<path class="st5" d="M313.3,80.6v7h-3.5h-1v1v35.2h-7.5l-13.3-25.3l-1.9-3.6v4v16.8v1h1h3.5v7h-16.1v-7h3.5h1v-1V88.6v-1h-1
						h-3.5v-7h12l13.3,25.3l1.9,3.6v-4V88.6v-1h-1h-3.5v-7H313.3 M314.3,79.6h-18.1v9h4.5v16.8l-13.6-25.9h-13.6v9h4.5v27.1h-4.5v9
						h18.1v-9h-4.5V98.9l13.6,25.9h9.1V88.6h4.5V79.6L314.3,79.6z"/>
				</g>
				<g id="I_00000053528978728268147060000012395881796004208284_">
					<polygon class="st10" points="345.1,124.3 345.1,116.3 349.6,116.3 349.6,88.1 345.1,88.1 345.1,80.1 361.6,80.1 361.6,88.1 
						357.7,88.1 357.7,116.3 361.6,116.3 361.6,124.3 					"/>
					<path class="st5" d="M361.1,80.6v7h-2.9h-1v1v27.1v1h1h2.9v7h-15.5v-7h3.5h1v-1V88.6v-1h-1h-3.5v-7H361.1 M362.1,79.6h-17.5v9
						h4.5v27.1h-4.5v9h17.5v-9h-3.9V88.6h3.9V79.6L362.1,79.6z"/>
				</g>
				<g id="L_00000005268935538172605140000009181323869751794836_">
					<polygon class="st10" points="367.4,124.3 367.4,116.3 371.9,116.3 371.9,88.1 367.4,88.1 367.4,80.1 384.5,80.1 384.5,88.1 
						380,88.1 380,116.3 390.1,116.3 390.1,111.7 398.1,111.7 398.1,124.3 					"/>
					<path class="st5" d="M384,80.6v7h-3.5h-1v1v27.1v1h1h9.1h1v-1v-3.5h7.1v11.6h-29.7v-7h3.5h1v-1V88.6v-1h-1h-3.5v-7H384
						 M385,79.6h-18.1v9h4.5v27.1h-4.5v9h31.7v-13.6h-9.1v4.5h-9.1V88.6h4.5V79.6L385,79.6z"/>
				</g>
				<g id="L_00000094602624799378345450000015777852461369398421_">
					<polygon class="st10" points="404,124.3 404,116.3 408.5,116.3 408.5,88.1 404,88.1 404,80.1 421.1,80.1 421.1,88.1 
						416.6,88.1 416.6,116.3 426.6,116.3 426.6,111.7 434.7,111.7 434.7,124.3 					"/>
					<path class="st5" d="M420.6,80.6v7h-3.5h-1v1v27.1v1h1h9.1h1v-1v-3.5h7.1v11.6h-29.7v-7h3.5h1v-1V88.6v-1h-1h-3.5v-7H420.6
						 M421.6,79.6h-18.1v9h4.5v27.1h-4.5v9h31.7v-13.6h-9.1v4.5h-9.1V88.6h4.5V79.6L421.6,79.6z"/>
				</g>
				<g id="I_00000041985700764617757160000016385437988556378252_">
					<polygon class="st10" points="440.5,124.3 440.5,116.3 445,116.3 445,88.1 440.5,88.1 440.5,80.1 457,80.1 457,88.1 
						453.1,88.1 453.1,116.3 457,116.3 457,124.3 					"/>
					<path class="st5" d="M456.5,80.6v7h-2.9h-1v1v27.1v1h1h2.9v7H441v-7h3.5h1v-1V88.6v-1h-1H441v-7H456.5 M457.5,79.6H440v9h4.5
						v27.1H440v9h17.5v-9h-3.9V88.6h3.9V79.6L457.5,79.6z"/>
				</g>
				<g id="N_00000041982645704877710420000015895760988759433374_">
					<polygon class="st10" points="489.8,124.3 475.4,96.9 475.4,116.3 479.9,116.3 479.9,124.3 462.8,124.3 462.8,116.3 
						467.3,116.3 467.3,88.1 462.8,88.1 462.8,80.1 475.6,80.1 490,107.4 490,88.1 485.5,88.1 485.5,80.1 502.6,80.1 502.6,88.1 
						498.1,88.1 498.1,124.3 					"/>
					<path class="st5" d="M502.1,80.6v7h-3.5h-1v1v35.2h-7.5l-13.3-25.3l-1.9-3.6v4v16.8v1h1h3.5v7h-16.1v-7h3.5h1v-1V88.6v-1h-1
						h-3.5v-7h12l13.3,25.3l1.9,3.6v-4V88.6v-1h-1H486v-7H502.1 M503.1,79.6H485v9h4.5v16.8l-13.6-25.9h-13.6v9h4.5v27.1h-4.5v9
						h18.1v-9h-4.5V98.9l13.6,25.9h9.1V88.6h4.5V79.6L503.1,79.6z"/>
				</g>
				<g id="O_00000151520955083194654540000010240192673583032450_">
					<path class="st10" d="M515.4,124.3l-7-6.9V87l7-6.9h12.3l7,6.9v30.4l-7,6.9H515.4z M516.5,116.3h10.1V88.1h-10.1V116.3z"/>
					<path class="st5" d="M527.4,80.6l6.7,6.7v29.9l-6.7,6.7h-11.9l-6.7-6.7V87.2l6.7-6.7H527.4 M516,116.8h1h9.1h1v-1V88.6v-1h-1
						H517h-1v1v27.1V116.8 M527.9,79.6h-12.7l-7.3,7.2v30.8l7.3,7.2h12.7l7.3-7.2V86.8L527.9,79.6L527.9,79.6z M517,115.8V88.6h9.1
						v27.1H517L517,115.8z"/>
				</g>
				<g id="I_00000175283448815043543200000005049891580614345151_">
					<polygon class="st10" points="540.4,124.3 540.4,116.3 545,116.3 545,88.1 540.4,88.1 540.4,80.1 556.9,80.1 556.9,88.1 
						553,88.1 553,116.3 556.9,116.3 556.9,124.3 					"/>
					<path class="st5" d="M556.4,80.6v7h-2.9h-1v1v27.1v1h1h2.9v7h-15.5v-7h3.5h1v-1V88.6v-1h-1h-3.5v-7H556.4 M557.4,79.6h-17.5v9
						h4.5v27.1h-4.5v9h17.5v-9h-3.9V88.6h3.9V79.6L557.4,79.6z"/>
				</g>
				<g id="S_00000044864047450643916720000003766175470676254350_">
					<polygon class="st10" points="569.7,124.3 562.7,117.4 562.7,111.7 570.8,111.7 570.8,116.3 580.9,116.3 580.9,106.2 
						569.7,106.2 562.7,99.3 562.7,87 569.7,80.1 582,80.1 588.9,87 588.9,92.6 580.9,92.6 580.9,88.1 570.8,88.1 570.8,98.2 
						581.8,98.2 588.9,105.1 588.9,117.4 582,124.3 					"/>
					<path class="st5" d="M581.8,80.6l6.7,6.7v4.9h-7.1v-3.5v-1h-1h-9.1h-1v1v9v1h1h10.3l6.8,6.7v11.8l-6.7,6.7h-11.9l-6.7-6.7v-4.9
						h7.1v3.5v1h1h9.1h1v-1v-9v-1h-1h-10.5l-6.7-6.7V87.2l6.7-6.7H581.8 M582.2,79.6h-12.7l-7.3,7.2v12.7l7.3,7.2h10.9v9h-9.1v-4.5
						h-9.1v6.3l7.3,7.2h12.7l7.3-7.2v-12.7l-7.4-7.2h-10.7v-9h9.1v4.5h9.1v-6.3L582.2,79.6L582.2,79.6z"/>
				</g>
			</g>
		</g>
	</g>
</g>
</svg>
