<?xml version="1.0" encoding="utf-8"?>
<!-- Generator: Adobe Illustrator 26.5.0, SVG Export Plug-In . SVG Version: 6.00 Build 0)  -->
<svg version="1.1" id="Banner_00000002370928143762477440000003144886751426026925_"
	 xmlns="http://www.w3.org/2000/svg" xmlns:xlink="http://www.w3.org/1999/xlink" x="0px" y="0px" viewBox="0 0 5184 4037.1"
	 style="enable-background:new 0 0 5184 4037.1;" xml:space="preserve">
<style type="text/css">
	.st0{fill:none;}
	.st1{fill:#FFFFFF;stroke:#231F20;stroke-width:9;stroke-miterlimit:10;}
	.st2{fill:#231F20;}
	.st3{fill:#3A3B3A;stroke:#989898;stroke-miterlimit:10;}
	.st4{fill:#B0B0B0;stroke:#231F20;stroke-miterlimit:10;}
	.st5{fill:#010101;}
	.st6{fill:#989898;}
	.st7{fill:#FFFFFF;}
	.st8{fill:#333333;}
	.st9{fill:#191919;}
</style>
<rect class="st0" width="5184" height="4037.1"/>
<g id="Background_00000092454181532816580240000017887235835523703961_">
</g>
<g id="BD_Wrestling_Logo">
	<g id="Banner">
		<path id="Banner_Rim" class="st1" d="M236.5,2866.3l0-17.9c-0.7-405.2-0.7-1177.7,0-1355.1l0.1-17.7l17.3,3.7
			c790.3,167.9,1585.3,219.9,2267.2,220c359.7,0,687.8-14.5,967.3-34.1c458.3-32.1,837-81.2,1073.9-116.6
			c256.7-38.4,407-69.6,408.5-69.9l17.3-3.6v1389.1l-17.4-3.8c-1.5-0.3-151.7-33-408.5-73.1c-236.9-37.1-615.5-88.2-1073.8-121.7
			c-277.5-20.3-603.1-35.2-959.8-35.2c-683.5,0-1481.4,54.8-2274.5,232.1L236.5,2866.3z M265.1,1511.1
			c-0.6,202.8-0.6,922.3,0,1319.4c529.8-117.2,1105.1-190.3,1710.3-217.4c489.3-21.9,999.2-13.9,1515.4,23.8
			c459.3,33.5,838.7,84.9,1076.1,122c207.4,32.5,345.6,60.1,392.3,69.7V1510.2c-46.5,9.2-184.7,35.6-392.3,66.7
			c-237.4,35.5-616.8,84.7-1076.1,116.9c-516.2,36.2-1026,44.2-1515.4,23.6C1370.3,1691.9,795,1622.5,265.1,1511.1z"/>
		<g id="WRESTLING-CLUB">
			<g>
				<path class="st2" d="M374.9,1883.8c0-59.1,0-118.1,0-177.2c53,8.4,106,16.5,159.1,24.3c0,55.8,0,111.7,0,167.5
					c-13.3-1.2-26.5-2.3-39.8-3.5c6.8,85.5,13.6,170.4,20.5,254.8c19.7-84.3,39.4-166.9,59.1-247.7c19.7,84.3,39.4,166.8,59.2,247.7
					c6.8-80.9,13.7-161.2,20.5-241c-13.3-1.1-26.6-2.2-39.8-3.3c0-54.3,0-108.6,0-162.9c53.1,7.5,106.2,14.7,159.4,21.6
					c0,51.4,0,102.8,0,154.3c-13.3-1-26.6-2.1-39.9-3.1c-13.3,155.3-26.6,312.7-39.8,472.3c13.3-1.1,26.6-2.1,39.8-3.2
					c0,52.1,0,104.2,0,156.4c-51.2,6.8-102.5,13.8-153.6,21.2c0-54.9,0-109.9,0-164.8c11.4-1,22.8-2,34.1-2.9
					c-13.3-53.2-26.5-107.1-39.8-161.8c-13.3,55.4-26.5,111.6-39.8,168.6c11.4-1,22.7-2,34.1-3c0,55.2,0,110.3,0,165.5
					c-51.2,7.4-102.3,15.1-153.4,23c0-58.2,0-116.5,0-174.7c13.3-1.2,26.5-2.5,39.8-3.7c-13.3-171-26.5-344.5-39.8-520.4
					C401.3,1886.3,388.1,1885.1,374.9,1883.8z"/>
				<path class="st2" d="M815.3,2529.9c0-50.7,0-101.4,0-152.1c13.3-1,26.6-2,39.9-3c0-150.1,0-300.2,0-450.3c-13.3-1-26.6-2-39.9-3
					c0-50.7,0-101.4,0-152.1c71.8,9.1,143.6,17.6,215.5,25.6c21.3,40.2,42.6,79.6,63.9,118.2c0,64.9,0,129.8,0,194.7
					c-8,13.8-16,27.7-24,41.7c8,14,16,27.9,24,41.7c0,55.6,0,111.3,0,166.9c13.3-0.9,26.6-1.7,40-2.5c0,45.8,0,91.6,0,137.4
					c-51.4,5.3-102.7,10.9-154,16.8c0-48,0-96.1,0-144.1c11.4-0.8,22.8-1.6,34.2-2.3c0-47.5,0-95.1,0-142.6
					c-26.6,0.6-53.2,1.2-79.8,1.8c0,48.8,0,97.5,0,146.3c11.4-0.8,22.8-1.6,34.2-2.4c0,48.2,0,96.4,0,144.7
					C917.9,2517.2,866.6,2523.4,815.3,2529.9z M935,2076.5c26.6,0.6,53.2,1.2,79.8,1.8c0-47.5,0-95.1,0-142.6
					c-26.6-1.8-53.2-3.6-79.8-5.5C935,1979,935,2027.7,935,2076.5z"/>
				<path class="st2" d="M1177.1,2488.8c0-45.2,0-90.5,0-135.7c13.3-0.8,26.6-1.6,40-2.4c0-134.1,0-268.2,0-402.3
					c-13.3-0.8-26.6-1.6-40-2.4c0-45.2,0-90.5,0-135.7c93.3,9.4,186.6,17.8,279.9,25.3c0,62.8,0,125.5,0,188.3
					c-26.7-0.9-53.4-1.8-80-2.7c0-21.4,0-42.7,0-64.1c-26.7-1.4-53.3-2.8-80-4.3c0,43.7,0,87.4,0,131.1c26.7,0.5,53.3,1,80,1.4
					c0,42.7,0,85.5,0,128.2c-26.7,0.5-53.3,0.9-80,1.4c0,43.7,0,87.4,0,131.1c26.7-1.5,53.3-2.9,80-4.3c0-21.4,0-42.7,0-64.1
					c26.7-0.9,53.3-1.8,80-2.7c0,62.8,0,125.5,0,188.3C1363.7,2471,1270.4,2479.4,1177.1,2488.8z"/>
				<path class="st2" d="M1499.6,2273.8c26.7-0.8,53.4-1.6,80.1-2.4c0,20.3,0,40.6,0,60.9c26.7-1.2,53.4-2.3,80.1-3.3
					c0-39.9,0-79.7,0-119.6c-32,0.4-64.1,0.9-96.1,1.3c-21.4-32.3-42.7-65.1-64.1-98.4c0-58,0-115.9,0-173.9
					c21.3-32,42.7-63.5,64.1-94.5c37.4,2.7,74.7,5.3,112.1,7.7c21.4,33.2,42.7,65.8,64.1,98.1c0,27.4,0,54.9,0,82.3
					c-26.7-0.6-53.4-1.3-80.1-2c0-19.9,0-39.9,0-59.8c-26.7-1.1-53.4-2.2-80.1-3.3c0,40.6,0,81.2,0,121.8c31.6,0.5,63.3,0.9,95,1.3
					c21.7,32.1,43.5,63.7,65.2,94.9c0,54.9,0,109.7,0,164.6c-21.4,32.2-42.7,64.9-64.1,98.1c-37.4,2.4-74.8,5-112.1,7.7
					c-21.4-31-42.7-62.5-64.1-94.5C1499.6,2331.8,1499.6,2302.8,1499.6,2273.8z"/>
				<path class="st2" d="M1862.6,2436.6c0-38.3,0-76.5,0-114.8c13.4-0.4,26.7-0.8,40.1-1.2c0-114,0-228,0-342
					c-13.4-0.4-26.7-0.8-40.1-1.2c0,19.1,0,38.3,0,57.4c-26.7-0.6-53.4-1.1-80.1-1.8c0-58.3,0-116.6,0-174.8
					c106.8,6.1,213.7,11.1,320.7,14.8c0,55.3,0,110.6,0,165.9c-26.7-0.4-53.5-0.8-80.2-1.2c0-18.6,0-37.3,0-55.9
					c-13.4-0.3-26.7-0.7-40.1-1c0,112.5,0,225,0,337.5c13.4-0.3,26.7-0.7,40.1-1c0,37.3,0,74.6,0,111.8
					C1969.5,2431.4,1916,2433.8,1862.6,2436.6z"/>
				<path class="st2" d="M2145.7,2424.8c0-36.7,0-73.4,0-110.1c13.4-0.3,26.7-0.5,40.1-0.7c0-109.6,0-219.1,0-328.7
					c-13.4-0.2-26.7-0.5-40.1-0.7c0-36.7,0-73.4,0-110.1c53.5,1.7,106.9,3.1,160.4,4.2c0,36.1,0,72.2,0,108.4
					c-13.4-0.2-26.7-0.3-40.1-0.5c0,108.7,0,217.4,0,326.2c26.7-0.4,53.5-0.7,80.2-1c0-18,0-36,0-54c26.7-0.2,53.5-0.4,80.2-0.5
					c0,53.8,0,107.6,0,161.4C2332.9,2419.7,2239.3,2421.8,2145.7,2424.8z"/>
				<path class="st2" d="M2469.1,2418.1c0-35.8,0-71.6,0-107.4c13.4-0.1,26.7-0.1,40.1-0.2c0-107.3,0-214.5,0-321.8
					c-13.4-0.1-26.7-0.1-40.1-0.2c0-35.8,0-71.6,0-107.4c51.6,0.5,103.2,0.7,154.7,0.6c0,35.7,0,71.4,0,107.2c-11.5,0-22.9,0-34.4,0
					c0,107.2,0,214.3,0,321.5c11.5,0,22.9,0,34.4,0c0,35.7,0,71.4,0,107.2C2572.3,2417.5,2520.7,2417.6,2469.1,2418.1z"/>
				<path class="st2" d="M2666.5,2417.7c0-35.7,0-71.5,0-107.2c13.4,0,26.7,0.1,40.1,0.1c0-107.3,0-214.6,0-322
					c-13.4,0.1-26.7,0.1-40.1,0.1c0-35.7,0-71.5,0-107.2c40.1-0.2,80.2-0.5,120.3-1.1c40.1,102,80.2,204.4,120.3,307.9
					c0-67.2,0-134.3,0-201.5c-13.4,0.2-26.7,0.3-40.1,0.5c0-36.1,0-72.1,0-108.2c53.5-1,107-2.3,160.4-3.9c0,36.6,0,73.2,0,109.7
					c-13.4,0.2-26.7,0.5-40.1,0.7c0,145.7,0,291.4,0,437.1c-26.7-0.7-53.5-1.4-80.2-2c-40.1-104.2-80.2-207.2-120.3-309.7
					c0,66.6,0,133.3,0,199.9c13.4,0.1,26.7,0.2,40.1,0.4c0,36,0,71.9,0,107.9C2773.5,2418.5,2720,2417.9,2666.5,2417.7z"/>
				<path class="st2" d="M3134.3,2427.6c-21.4-30.5-42.8-60.6-64.2-90.5c0-125,0-250,0-374.9c21.4-29.9,42.8-60,64.2-90.5
					c37.4-1.4,74.8-3,112.3-4.7c21.4,29.2,42.8,58.6,64.1,88.4c0,26.7,0,53.3,0,80c-26.7,0.5-53.4,1-80.2,1.5c0-18.8,0-37.6,0-56.4
					c-26.7,0.7-53.5,1.4-80.2,2c0,111.4,0,222.9,0,334.3c26.7,0.6,53.5,1.3,80.2,2c0-37.6,0-75.2,0-112.8
					c-13.4-0.1-26.7-0.2-40.1-0.3c0-37.4,0-74.7,0-112.1c40.1-0.3,80.2-0.7,120.3-1.1c0,83.8,0,167.6,0,251.4
					c-21.4,29.7-42.8,59.2-64.1,88.4C3209.1,2430.6,3171.7,2429,3134.3,2427.6z"/>
				<path class="st2" d="M3643,2455.9c-21.4-34.2-42.7-67.9-64.1-101.1c0-136.8,0-273.5,0-410.3c21.4-33.2,42.7-66.9,64.1-101.1
					c37.4-2.7,74.7-5.6,112.1-8.7c21.3,31.9,42.7,64.2,64,97.1c0,29.9,0,59.8,0,89.7c-26.7,0.9-53.3,1.8-80,2.7
					c0-20.9,0-41.8,0-62.7c-26.7,1.3-53.4,2.5-80.1,3.7c0,123,0,246,0,368.9c26.7,1.2,53.4,2.4,80.1,3.7c0-20.9,0-41.8,0-62.7
					c26.7,0.9,53.4,1.7,80,2.7c0,29.9,0,59.8,0,89.7c-21.3,32.9-42.7,65.3-64,97.1C3717.7,2461.5,3680.4,2458.6,3643,2455.9z"/>
				<path class="st2" d="M3861.6,2473.7c0-43.2,0-86.4,0-129.6c13.3,0.7,26.7,1.4,40,2.2c0-131.1,0-262.1,0-393.2
					c-13.3,0.7-26.7,1.5-40,2.2c0-43.2,0-86.4,0-129.6c53.3-4.8,106.6-9.8,159.9-15.2c0,45.2,0,90.5,0,135.7
					c-13.3,0.8-26.6,1.6-40,2.4c0,134.1,0,268.2,0,402.3c26.6,1.6,53.3,3.2,79.9,4.8c0-22.9,0-45.8,0-68.7
					c26.6,1.1,53.3,2.2,79.9,3.4c0,70.4,0,140.7,0,211.1C4048.2,2491.2,3954.9,2482,3861.6,2473.7z"/>
				<path class="st2" d="M4183.8,1793.2c51.3-5.8,102.6-11.8,153.9-18.1c0,49.9,0,99.9,0,149.8c-11.4,0.8-22.8,1.7-34.2,2.5
					c0,148.2,0,296.3,0,444.5c26.6,1.9,53.2,3.9,79.8,5.9c0-152.1,0-304.2,0-456.3c-11.4,0.9-22.8,1.7-34.2,2.6
					c0-50.1,0-100.3,0-150.4c51.3-6.4,102.5-13,153.8-19.9c0,52.8,0,105.6,0,158.4c-13.3,1.1-26.6,2.1-39.9,3.2
					c0,166.6,0,333.3,0,499.9c-21.3,39.7-42.5,78.6-63.8,116.7c-37.2-4.7-74.4-9.3-111.7-13.8c-21.3-41.8-42.6-82.8-63.9-123
					c0-154,0-308,0-462.1c-13.3,0.9-26.6,1.8-39.9,2.7C4183.8,1888.2,4183.8,1840.7,4183.8,1793.2z"/>
				<path class="st2" d="M4545.3,2551.3c0-53.6,0-107.1,0-160.7c13.3,1.1,26.6,2.2,39.8,3.3c0-162.9,0-325.8,0-488.7
					c-13.3,1.1-26.5,2.2-39.8,3.3c0-53.6,0-107.1,0-160.7c71.7-9.9,143.3-20.4,214.9-31.4c21.2,42.9,42.4,86.9,63.6,131.8
					c0,82.7,0,165.4,0,248.1c-13.2,18-26.5,35.7-39.8,53.2c13.3,17.5,26.5,35.2,39.8,53.2c0,82.7,0,165.4,0,248.1
					c-21.2,45-42.4,88.9-63.6,131.8C4688.6,2571.7,4617,2561.2,4545.3,2551.3z M4664.7,2065.9c26.5-0.8,53.1-1.6,79.6-2.4
					c0-57.4,0-114.8,0-172.2c-26.5,2.4-53,4.8-79.6,7.1C4664.7,1954.2,4664.7,2010.1,4664.7,2065.9z M4664.7,2400.8
					c26.5,2.3,53.1,4.7,79.6,7.1c0-57.4,0-114.8,0-172.2c-26.5-0.8-53-1.6-79.6-2.4C4664.7,2289.2,4664.7,2345,4664.7,2400.8z"/>
			</g>
		</g>
	</g>
	<g id="Bulldogs_Text">
		<g id="Bulldogs_Text_Dark">
			<path id="S_00000004546339839368448630000007185927902318700204_" class="st3" d="M4050.1,1106.6c11.1-48.4,22.9-96.2,33.4-138.6
				c29.4-105.5,94.9-163.8,145.3-164.5c24.2,0,281.3,0,281.3,0l-43.8,218.2h-159l12.4-53.7h-81.1l-26.2,110.1h117.8
				c88.3,3.3,108.6,54.4,88.3,143.3c0,0-23.6,98.2-30.8,130c-24.9,102.8-79.8,151.2-143.3,150.6c-90.9,1.3-134.1,0-179.3,0
				c-43.2,0-68.7,0-100.1,0.7c7.2-29.2,42.5-188.4,50.4-220.2l148.5,0.7l-16.4,69.6h89.6l29.4-124.7c0,0-94.2,2-117.8,2
				C4050.1,1228,4039.6,1151.7,4050.1,1106.6z"/>
			<path id="G_00000103238432996447080360000018154697045117432737_" class="st3" d="M3915.3,1501.3c-105.3,1.3-241.4,0-283.3,0
				c-44.5,0-101.4-21.2-72-151.2c30.1-120.7,62.8-268.6,91.6-382.7c28.8-120.1,87-161.8,125.6-165.8c50.4-2,225.1,2,307.5,2
				c-39.3,156.5-53.7,205.6-53.7,205.6l-154.4-2l10.5-39.8H3806l-91.6,384.7h83.1l29.4-129.3h-40.6l37.3-148.6l193,3.3
				L3915.3,1501.3z"/>
			<path id="O_00000088134212774854240650000013587612055927786681_" class="st3" d="M3535.8,802.9c-82.4,0-174,2-197.6,2
				c-50.4,0.7-94.2,29.2-125,162.5c-28.8,113.4-61.5,263.3-91.6,383.4c-32.1,127.3,31.4,149.9,72,150.6c45.1,0.7,88.3,1.3,179.3,0
				c63.5,0.7,118.4-48.4,143.3-150.6c28.1-122,64.1-272.6,92.3-383.4C3630,882.5,3598,802.9,3535.8,802.9z M3358.5,1352.1h-83.1
				l91.6-384.7h81.1L3358.5,1352.1z"/>
			<path id="D_00000006702405924172587300000017815303812820839838_" class="st3" d="M3098.1,804.9c-83.1,0-301,0-326.5,0
				L2733,967.4h33.4l-91.6,384.7h-36l-30.8,149.2c0,0,233.6,1.3,325.2,0c64.1,0.7,119.1-42.4,143.9-145.9
				c28.8-122.7,66.7-275.9,92.9-388C3189.7,885.8,3160.3,804.9,3098.1,804.9z M2907.7,1352.1h-83.1l91.6-384.7h81.1L2907.7,1352.1z"
				/>
			<path id="L_00000056386102673885029660000007111918231088763037_" class="st3" d="M2320.1,804.9c25.5,0,238.2,0,238.2,0
				l-39.9,162.5h-39.3l-85.1,384.7h59.5l22.9-116.1l145.9-1.3l-56.9,266.6h-401.1l30.8-149.2h42.5l85.1-384.7h-39.9L2320.1,804.9z"
				/>
			<path id="L_00000034054033382589050580000004397263983453981603_" class="st3" d="M1889.6,804.9c25.5,0,225.1,0,225.1,0
				l-33.4,162.5h-39.9l-85.1,384.7h59.5l22.9-116.1l139.4-1.3l-56.9,266.6h-401.1l37.3-149.2h42.5l91.6-384.7H1851L1889.6,804.9z"/>
			<path id="U_00000057116293265474259200000017225705484017856917_" class="st3" d="M1372.1,804.9l-43.8,162.5h43.2
				c0,0-73.9,297.8-96.2,409.2c-10.5,51.1,2,125.4,57.6,125.4c56.3,0,168.2,0,223.8,0c92.9,0,119.1-119.4,119.1-119.4L1775.8,968
				h35.3l37.3-162.5h-195.6l-128.9,547.2H1444L1572,804.9H1372.1L1372.1,804.9z"/>
			<path id="B_00000025430119880610519190000016050450327695027076_" class="st3" d="M1217.7,804.2c-118.4,1.3-337.6,0-337.6,0
				l-37.9,163.2h43.2l-90.9,384.7h-43.8l-38.6,146.6c0,0,248,4,338.3,2.7c87,0.7,121-59,134.8-107.4c4.6-21.2,34.7-145.3,39.9-165.8
				c13.7-45.8,2.6-78.3-54.3-88.2c58.2,0.7,76.6-9.3,87.7-51.1c9.2-31.8,22.9-84.2,31.4-121.4
				C1309.3,887.8,1315.2,808.8,1217.7,804.2z M1036.4,1352.1h-79.8l28.8-128l79.8-1.3L1036.4,1352.1z M1097.3,1090.1h-80.5
				l29.4-122.7h81.1L1097.3,1090.1z"/>
		</g>
		<g id="Bulldogs_Text_Light_00000131368841772057814070000001757261180452183474_">
			<path id="S" class="st4" d="M4012.1,1070.2c11.1-48.4,22.9-96.2,33.4-138.6c29.4-105.5,94.9-163.8,145.3-164.5
				c24.2,0,281.3,0,281.3,0l-43.8,218.2h-159l12.4-53.7h-81.8l-26.2,110.1h117.8c88.3,3.3,108.6,54.4,88.3,143.3
				c0,0-23.6,98.2-30.8,130c-24.9,102.8-79.8,151.2-143.3,150.6c-90.9,1.3-134.1,0-179.3,0c-43.2,0-78.8,0-110.2,0.7
				c7.2-29.2,44.7-188.4,52.6-220.2l156.5,0.7l-16.4,69.6h89.6l29.4-124.7c0,0-94.2,2-117.8,2
				C4012.1,1192.2,4001.7,1115.3,4012.1,1070.2z"/>
			<path id="G" class="st4" d="M3877.4,1465.5c-105.3,1.3-241.4,0-283.3,0c-44.5,0-101.4-21.2-72-151.2
				c30.1-120.7,62.8-268.6,91.6-382.7c28.8-120.1,87-161.8,125.6-165.8c50.4-2,225.1,2,307.5,2c-39.3,156.5-53.7,205.6-53.7,205.6
				l-153.8-2l10.5-39.8h-81.1l-91.6,384.7h83.1l29.4-129.3h-40.6l37.3-148.6l192.4,2.7L3877.4,1465.5z"/>
			<path id="O" class="st4" d="M3497.9,767c-82.4,0-174,2-197.6,2c-50.4,0.7-94.2,29.2-125,162.5c-28.8,113.4-61.5,263.3-91.6,383.4
				c-32.1,127.3,31.4,149.9,72,150.6c45.1,0.7,88.3,1.3,179.3,0c63.5,0.7,118.4-48.4,143.3-150.6c28.1-122,64.1-272.6,92.3-383.4
				C3592.1,846,3560,767,3497.9,767z M3320.6,1316.2h-83.1l91.6-384.7h81.1L3320.6,1316.2z"/>
			<path id="D" class="st4" d="M3060.1,769c-83.1,0-301,0-326.5,0l-38.6,162.5h33.4l-91.6,384.7h-36l-31.8,150.1
				c0,0,234.7,0.4,326.3-0.9c64.1,0.7,119.1-42.4,143.9-145.9c28.8-122.7,67.4-275.9,93.6-388C3151.7,850,3122.3,769,3060.1,769z
				 M2869.7,1316.2h-83.1l91.6-384.7h81.1L2869.7,1316.2z"/>
			<path id="L" class="st4" d="M2282.2,769c25.5,0,238.2,0,238.2,0l-39.9,162.5h-39.3l-85.1,384.7h59.5l22.9-116.1l145.9-1.3
				l-56.9,266.6h-402.6l31.4-149.2h43.4l85.1-384.7h-39.9L2282.2,769z"/>
			<path id="L_00000005961750670012436270000000948459104063206293_" class="st4" d="M1851,769c25.5,0,225.1,0,225.1,0l-33.4,162.5
				h-39.9l-85.7,384.7h59.5l22.9-116.1l139.4-1.3l-56.9,266.6h-401.1l37.3-149.2h42.5l91.6-384.7h-39.9L1851,769z"/>
			<path id="U" class="st4" d="M1333.5,769l-43.2,162.5h43.2c0,0-73.9,297.8-96.2,409.2c-10.5,51.1,2,125.4,57.6,125.4
				c56.3,0,168.2,0,223.8,0c92.9,0,119.1-119.4,119.1-119.4l98.8-415.2h35.3l37.3-162.5h-195.6L1484,1316.2h-79.8L1531.7,769H1333.5
				z"/>
			<path id="B" class="st4" d="M1179.7,768.4c-118.4,1.3-337.6,0-337.6,0l-37.9,163.2h43.2l-90.9,384.7h-43.8l-38.6,146.6
				c0,0,248,4,338.3,2.7c87,0.7,121-59,134.8-107.4c4.6-21.2,34.7-145.3,39.9-165.8c13.7-45.8,2.6-78.3-54.3-88.2
				c58.2,0.7,76.6-9.3,87.7-51.1c9.2-31.8,22.9-84.2,31.4-121.4C1271.3,851.3,1277.2,773,1179.7,768.4z M998.5,1316.2h-79.8
				l28.8-128l79.8-1.3L998.5,1316.2z M1059.3,1054.2h-80.5l29.4-122.7h81.1L1059.3,1054.2z"/>
		</g>
	</g>
	<g id="BD-Body">
		<path id="Sillowette" class="st5" d="M4054.1,3707.9c-7.5-8.4-9.1-19.2-9.2-30.3c-0.2-29.2-7.3-56.9-18.7-83.4
			c-13.2-31-30.9-58.3-58.7-78.8c-22.4-16.5-31-42.9-39.3-68.5c-5.9-18.5-10.4-37.5-20-54.5c-33.1-58.9-80.9-102.4-139.3-134.1
			c-30-16.3-61-30.9-91.7-45.9c-14.3-6.9-24.9-16.5-31.8-31.5c-24.6-53.8-61.2-97.7-108-133.2c-15.8-12-32.6-22.4-49.7-33.4
			c10.8-10.2,23.6-10.7,36.4-10.9c21.3-0.2,42.6,3.2,64,0.7c35.7-4.1,52.3-37.5,34.1-68.9c-5.3-9.1-11.4-17.6-18.9-24.9
			c-50.7-49.4-110.8-71.7-181-62.3c-44.1,5.9-78,28.2-99.4,68.5c-7.5,14.2-7.4,14.3-21.4,7.6c-129.3-61.1-259.2-121.3-384.8-190.1
			c-3.3-1.8-6-3.9-8.4-6.9c-44.3-57.3-95.7-107.2-154.3-149.3c-120.5-86.5-252.8-126.9-400.9-102.6c-50.6,8.3-98.8,23.9-140.7,55.4
			c-2.6,2-5,1.7-7.6,1.3c-18.6-2.7-36.5,0.6-53.9,6.9c-41.4,15.1-72.2,42.6-92.6,82.2c-1.4,2.7-1.7,6.1-6.9,5.4
			c-18.2-2.4-36.5-2.1-54.8-1.1c-5.2,0.3-9.2-1-13.1-4.7c-36.4-34.7-79.9-45.6-128.4-38.6c-34.5,5-66.1,18.6-96.8,34.5
			c-24.5,12.7-47.4,27.9-65.2,49.8c-8.5,10.4-15.5,21.6-16.6,35.4c-1.8,23.9,14.4,41.1,41.9,46.1c11.6,2.1,23.4,1.5,36,2.4
			c-1.9,3.3-3.2,5.6-4.6,8c-11,19.4-20.3,39.7-23.3,61.9c-1.7,12.8-6.9,18.2-18.5,22.6c-35,13-59.2,37.2-67.7,75.2
			c-4,17.7-3.5,35.6-0.3,53.4c1.1,6.5-0.7,9.6-6.9,12.4c-38.5,17.5-58,53.2-51.6,95.4c1.8,12.2,2.6,23.3-2.8,34.7
			c-1.8,3.8-2.3,8.3-2.9,12.6c-3.2,24,5.3,44.2,20.3,62.2c7.8,9.3,7.7,9.1-1.7,17.1c-5.1,4.3-10.2,8.9-14.9,13.7
			c-40.1,41.2-43.6,103.7-7.6,147.2c5.6,6.8,5.8,11.2,1.1,17.9c-4.1,5.7-7.1,12.2-10,18.7c-37,84.4-42.9,171.7-21.1,260.7
			c8.3,34.1,23.7,65,55,84.3c4,2.5,1.8,5.2,1.3,8c-7.5,39.7-4.8,78.6,8.4,116.8c9.6,27.9,28.1,45.4,56.7,52
			c28,6.4,56.3,6.1,84.6,4.9c20.8-0.9,41-4.9,60.3-13.5c8.3-3.7,14.1-14.7,22.1-13.8c8.2,0.9,15.8,8.6,24.3,12.1
			c48.3,19.7,98.3,21.7,149.2,14.2c25.6-3.7,49.1-14.5,72.4-24.6c26.5-11.5,42.3-33,43-63.5c0.5-19.9-7.1-37.5-17.5-53.7
			c-33.1-51.6-78.1-88.9-134.3-111.4c-24.9-10-50.9-19.8-78.3-6.1c-0.8-13.9,0.4-27,5.4-39.6c4.9-12.5,13.9-19,27.1-19.8
			c15.5-0.9,30.3,2.2,45,6.8c42.8,13.3,83.7,32.1,126.2,46.2c51.6,17.2,103.9,31.3,158.2,36.2c58.4,5.3,116.3-0.4,173.7-11.9
			c34.6-7,68.7-16.3,102.3-27.9c0.6,1.3,0.9,1.6,0.8,1.9c-0.4,4.6-1.1,9.2-1.3,13.8c-2.2,36.9,9.3,67.6,40.8,88.3
			c20.7,13.6,44,17,68.3,16.2c21.3-0.7,41.7-8.4,64.3-1.3c23.9,7.6,46.6-3.6,66.6-18c3-2.1,5.2-4.4,9.7-2.3c9,4.2,18.8,5.4,28.6,4.5
			c6-0.5,8.9,0.4,7.6,7.7c-0.9,5.1-0.4,10.5,0,15.7c4.1,53.4,42,92.7,89.3,89.8c4.6-0.3,5.4,2.6,6.9,5.7
			c11.1,22.9,29.2,36.6,53.7,41.9c16,3.4,32.2,3.4,48.3,2.1c52.3-4.2,104.5-9.5,156.9-11.6c31.4-1.2,62.8-1.5,94.1,2.3
			c20,2.5,38.9,9.9,58.9,12.6c25.7,3.4,51.1,3.7,76-4.3c50-16.1,65.2-61.7,60.3-105.7c-3.9-35.2-23.5-60.8-52-80.1
			c-3.8-2.6-6.6-4-5-9.9c18.6-67.4,18.3-135.5,7.1-204c-2-12.1-4.2-24.3-6.6-38.3c24.9,17.5,48.3,32.9,72.4,47.4
			c38.9,23.5,79.7,39.4,125.9,38.8c36.1-0.5,71.9-3.5,107.4-9.3c3.1-0.5,6.3-2.6,8.6,1.9c9.8,19.1,19.7,38.1,29.9,57.8
			c-18.6,3.4-35.8,7.5-52.1,14.4c-2.9,1.2-5.3-0.2-8-0.8c-33.2-7.3-66.5-12.2-100.7-7.7c-38.2,4.9-65.2,26.1-72.6,61.5
			c-11.3,54.2-0.3,104.4,31.6,149.3c19.8,27.8,46.9,43.9,81.4,40.2c15.9-1.7,29.8-0.3,45.2,4.5c40.6,12.7,79.5,4.1,115.6-17.8
			c4.9-2.9,7.4-2.9,11.3,1.1c6.5,6.6,14.2,11.5,22.5,15.7c30.5,15.4,62.7,16.9,95.5,11c51.4-9.3,96.9-30.4,133-69.9
			C4079.3,3790.3,4079.7,3736.4,4054.1,3707.9z M2960.4,3621.7c-3,0.8-5.4,0.2-7.3-2.3c-1.3-1.7-2.7-3.4-3.9-5.1
			c-11.2-15.8-10.8-17.7,5.2-27.5c23.8-14.5,46.2-30.9,65.6-51.2c1-1,2.2-1.8,4.2-3.4c3.5,31.1,2.4,61.7,8.3,92.9
			C3008.4,3617.2,2984.6,3614.9,2960.4,3621.7z"/>
		<g id="Gray_Parts">
			<g id="Leg_and_Paw_Parts">
				<path id="Leg_and_Paw" class="st6" d="M1873.9,3717.4c0.5-0.4,1-0.7,1.3-1.1c17.6-25.4,27.7-29.3,57.4-22.2
					c41.6,10,75.8,33.1,106.6,62c18.4,17.3,35.1,36.2,45.6,59.7c13.6,30.4,1.9,57.1-29.2,67.6c-4.1,1.4-6.6,0.6-9-3.1
					c-23.7-37.1-52.9-69.3-85.9-98.1c-11.1-9.7-22.7-18.7-35.5-26c-3.2-1.8-6.5-3.3-10-4.5c-3.1-1.1-6.9-2.7-9.3,0.8
					c-2.5,3.7,0.8,6.5,3,8.7c10.3,10.1,20.6,20.2,31.2,30c30.9,28.8,58.1,60.7,79.9,97.3c3.3,5.6,3.5,8.2-3.5,9.6
					c-48.9,10.1-97.4,10.3-145.3-5.3c-19.3-6.3-35.4-16.9-47.6-34.1c-11.2-15.7-22.8-31.4-36.6-45c-2.1-2.1-4.5-5.9-7.3-4.3
					c-3.5,1.9-1.3,6-0.3,9c6.2,19.4,15,37.8,23.9,56.1c3.9,7.9,1.7,12-5.1,15.5c-12.4,6.4-25.7,9.7-39.4,11
					c-29.5,2.9-59,3.1-88.3-2.7c-19.2-3.8-32.4-14.8-38.6-34c-13.3-41.7-16.7-83.6,0.7-124.9c10.5-25,29.4-39.6,57.3-40.2
					c5.1-0.1,10.1-0.8,15.9-1.3c-21.3-17.9-54.3-16.8-76.5,2c-6.4,5.4-12.1,11.4-16.2,18.7c-2.9,5.1-5.2,5.3-9.5,1.6
					c-17.2-14.7-27.9-33.9-33.5-55.2c-23.8-90.1-18.2-177.9,23.4-262.1c5.8-11.6,6.1-11.5,18-6.5c17.2,7.2,35.3,9.6,53.6,9.7
					c5.9,0,8.4,1.5,10,7.4c21.2,81.8,98.8,139,173.5,146.3c12.3,1.2,24.4,0.3,36.4-1.4c2.8-0.4,5.1-0.8,7.3,1.9
					c6.2,7.6,12.7,14.9,19.4,22.6c-5.9,2.3-11.8,3.9-17.1,6.6c-16.4,8.3-25.1,22.9-29.9,40.2c-7.4,26.8-4.5,53.2,4.4,79.2
					C1870.2,3711.8,1871,3715.2,1873.9,3717.4z"/>
				<path id="Paw_Part" class="st6" d="M2649.5,3750c-23.8,3.5-46.1,3.3-66.6-8.6c-27.4-16-34.4-46.6-28.6-76.6
					c0.8-3.9,3-4.1,5.9-3.7c21.7,3.3,43.5,5.4,65.4,5.7c4.4,0.1,5.7,1.9,5.2,6.3C2627.9,3700.4,2633.5,3725.7,2649.5,3750z"/>
				<path id="Paw_Part_00000005254885933849666250000003107378698027715492_" class="st6" d="M3652.9,3659.7
					c-55.1,41.8-70.3,135.6-33.3,192.1c-16.1,2-29.6-3.2-41.3-13.1c-16.6-14.1-26.7-32.6-33.7-53.1c-8.5-25.1-12.8-50.8-9.4-77.4
					c3.7-29.5,17.7-45.1,46.5-50.4C3605,3653.4,3628.3,3655.3,3652.9,3659.7z"/>
				<path id="Paw_Part_00000147220389038550254280000011505495240346232962_" class="st6" d="M2768.1,3692.4
					c0.6-37.7,0.7-37.3,34.4-44.8c35.7-8,70-20.6,103.3-36c6.1-2.8,9.8-3.6,12,4.1c0.9,3.2,2.5,6.6,4.7,8.9
					c7.6,8.1,6.6,14.2-2.1,21.1c-9,7.2-14.1,17.7-17.4,28.8c-1.3,4.3-3.2,5.7-7.4,6.2c-31.3,4-55.1,20-71.3,47.3
					c-2.1,3.6-4.4,5.3-8.3,6.1c-7.9,1.6-15.8,1.9-23.6,0.8c-13.3-1.9-21.7-12.9-23.5-30.1
					C2768.2,3699.8,2768.2,3694.8,2768.1,3692.4z"/>
				<path id="Paw_Part_00000129177242370734486720000006181314005343418518_" class="st6" d="M2657.9,3686.3c0-19.5,0-19,18.4-20.3
					c20-1.4,40.1-3.1,60-5.8c7.1-0.9,6.7,1.6,6,6.7c-2.5,17.5-2.9,35,1.5,52.4c0.4,1.5,0.7,3,1.2,4.5c5,14.9,5,14.9-8.9,22
					c-36.7,18.6-73.1-3.5-77.6-47.3C2658.3,3694.2,2658.2,3689.8,2657.9,3686.3z"/>
			</g>
			<g id="Chest">
				<path id="Chest_Part" class="st6" d="M2290.7,3672.7c-50.1,0.9-98.3-9-146.1-22.1c-53.9-14.8-104.8-38.2-157.8-55.5
					c-25.4-8.3-45.3-23-63.9-41.2c-6.1-6-4.3-8.4,2.5-11.2c24.3-9.9,49.9-13.6,75.5-17.2c5.1-0.7,10.5-0.6,15.4-2
					c27.8-7.8,52.6,4.3,78.1,11.6c39.9,11.4,80.3,20.2,121.1,27.2c4.5,0.8,6.6,2.3,8.2,6.8c8.3,23.3,18.6,45.7,32,66.4
					C2265.2,3650.1,2274.7,3664.4,2290.7,3672.7z"/>
				<path id="Chest_Part_00000064354729281083990970000012564295147744032405_" class="st6" d="M2302.8,3673.4
					c30.4-20.7,33.8-54.3,44.1-85.1c41.6,24.1,85.7,42.1,133.7,56.5C2421.3,3661.8,2363.3,3671.4,2302.8,3673.4z"/>
			</g>
			<path id="Tail" class="st6" d="M3549.5,2976c-17.3-1.1-34.6-2.1-51.8,1.5c-12.9,2.8-24.2,8.4-32.8,18.6c-2.9,3.4-4.9,4-9.1,2
				c-36.2-17.5-72.5-34.9-109-52c-5.7-2.6-6.2-5.1-3.8-10.4c15.1-34.2,41.7-53.7,77.2-59.5c63.7-10.4,118.2,10,164.1,55.1
				c5.7,5.6,10.5,12.1,14.1,19.3c6.4,12.7,0.6,23.7-13.4,25.4c-6,0.7-12.2,0.8-18.2,0.8C3561.1,2976.8,3555.3,2976.3,3549.5,2976z"
				/>
			<path id="Body" class="st6" d="M4029.9,3722.4c-10.6-11.8-13.1-27.5-13.3-43.3c-0.4-32.8-10.1-63.2-25-92
				c-10.2-19.7-23.9-35.9-41.7-49.5c-26.2-20-38.3-49.7-48.1-80.3c-6-18.7-10.5-38-20.6-55.3c-27.6-47.5-66.3-83.8-112.6-111.6
				c-34.3-20.6-71-36.9-106.9-54.5c-17.2-8.4-31.5-20-39.5-38.2c-31.9-72-84.9-123.9-152.5-160.7c-60.7-33.1-124-60.6-186.4-90.2
				c-104.3-49.4-208.8-98.5-311.5-151.3c-7.1-3.7-14.3-7.4-21.4-11.1c-1.3,2.9,0,4,0.7,5.2c37.4,61.3,63.5,127.1,76.2,198.1
				c2.1,11.8,4.6,23.9,1.8,36.5c-4.7-2.1-5.2-6.1-6.4-9.4c-5.7-14.9-11.3-29.9-16.7-45c-48.9-136.1-124.5-253.2-236.9-344.5
				c-76.5-62.1-160.7-106.8-258.3-123.3c-64.6-10.9-128.7-9-192.1,8.3c-24.8,6.8-48.6,16.1-70.9,29c-1.8,1-9.3,2.1-2.5,6.8
				c15.9,10.9,31.8,21.8,47.9,32.4c15,9.9,31.3,14.4,49.5,12.4c16.4-1.8,32.9-1.9,49.3,0.9c26,4.4,39.5,24.1,34.8,50.1
				c-1.8,9.9-5.6,18.8-10.2,27.6c-1.3,2.5-5.4,4.7-2.9,7.9c3.1,3.9,6.1-0.2,8.7-1.6c19.8-10.1,39.2-21.4,61-26.8
				c19.5-4.9,28.1,3.5,24.2,23.3c-3.8,19.3-11.6,37.1-19.9,54.5c-2.6,5.4-2.2,8.5,2.1,12.5c51.9,48.6,95.3,104.1,132.2,165
				c2.5,4,5.1,5.2,9.6,4.8c13.1-1.1,26.1-2.4,39.2-2.5c16.1-0.1,32.4-0.8,48,4.6c9.7,3.4,12.4,11.8,7,20.7
				c-3.5,5.8-8.2,10.7-13.1,15.4c-12,11.4-24.8,22-38.4,31.4c-6.8,4.7-8,8.2-4.3,16.1c31.8,68.4,56,139.4,69.5,213.9
				c0.9,5.2,3,8.4,8,11.1c18,9.8,35.9,19.9,50.9,34.3c13.1,12.5,11.1,23.3-5.5,30.2c-13.9,5.7-28.5,8.8-43.3,11.1
				c-4.6,0.7-6.5,2.4-7.2,7.5c-9.2,69.6-41.7,126.3-93.8,171.9c-5.2,4.5-5.3,8.2-3.5,14.2c6.2,21.1,11.1,42.4,10,64.7
				c-0.9,17.4-9.4,23.6-26.1,19c-3.8-1-7.6-2.3-11.2-3.9c-20.1-8.3-38.8-19.4-56.8-31.5c-4.5-3-8.1-3.6-13.3-1.4
				c-28.2,11.9-57.4,20.4-87.1,27.1c-26.2,5.8-52.7,8.3-82,10.8c4.3,2.6,6,3.8,7.9,4.7c63.6,32.4,130.9,51.8,201.8,58
				c51.5,4.5,102.9,2.8,154.1-5.4c75.5-12,146.7-35.7,211.5-77.5c23.5-15.2,45.1-32.8,61-56.6c2.1-3.2,4.5-6.2,3.6-10.9
				c-3.4-17.6-7.9-34.7-14.6-51.4c-16.8-41.9-77.4-61.2-111.8-16c-2.6,3.4-5.6,6.6-8,10.1c-18.7,27.3-45,35.2-76.1,30.3
				c-21.7-3.4-37-16.2-48.7-34.3c-1.6-2.5-3.7-5.8-0.9-8.4c2.4-2.2,5.2,0.1,7.5,1.4c8.2,4.7,16.5,9.4,24.5,14.5
				c25.1,16.1,60.3,5,74.4-17.6c3.9-6.2,8.8-11.8,13.6-17.4c32.7-38,73-41.8,115.9-16.2c26.2,15.6,37.3,42.3,45,70.6
				c11.1,40.8,12.4,83,14.9,124.9c1.5,26.3,4.4,52.2,14,77.1c13.3,34.6,34.9,63.5,59.7,90.2c3.2,3.4,6.7,6.5,9.3,12.7
				c-3.1-1.3-4.4-1.7-5.7-2.4c-36.3-20.3-63.9-49.1-82.9-86.4c-1.7-3.3-3.3-6.4-6.9-8.2c-20.2-10.5-41.3-16.9-64.2-13.6
				c-19.2,2.8-35.4,10.9-45.9,28.4c-2.5,4.2-2.4,5.8,3,7.4c17.5,5.2,32.7,15,46.4,27c3.8,3.3,8.2,6.5,8.8,12.4
				c-3.2,1.9-5.9,0.7-8.8-0.3c-7.2-2.5-14.4-5-21.6-7.3c-23.4-7.3-47.3-10.2-71.2-3.5c-25.3,7.1-41.6,24.5-47.4,50.3
				c-6.3,27.7,0.3,52.7,20.3,73.3c7.7,8,17.5,12.2,28.2,14.2c5.3,1,8.5,0.3,8-6.8c-0.5-7,0.4-14.2,1.1-21.2
				c4.7-53.2,52.5-72.3,94.5-55.5c4.9,2,9.9,4,14.5,9.8c-7-0.7-12.3-1.6-17.7-1.6c-23.5-0.2-46.5,1.6-58.4,26.9
				c-13.4,28.4-8.6,55.4,8.2,80.6c6.4,9.6,16.8,14,27.9,16.2c16.3,3.3,32.8,2.2,49.2,0.8c54.4-4.6,108.7-10.1,163.3-11.5
				c41.5-1,82.7-0.3,123.3,11.5c22.3,6.5,45.4,8.4,68.8,5c29.2-4.2,48.9-20.3,54.9-46.8c8.2-36.2-2.5-65.6-31.4-88.5
				c-5-4-7-4-10.6,1.9c-12,19.6-27.6,36-46.2,49.5c-3.1,2.2-7,6.3-10.5,3.3c-3.8-3.2,0.1-7.4,2-10.7c3.6-6.4,7.6-12.7,11.6-18.9
				c23-35.9,36.1-75.4,41.8-117.5c8.9-66.2,2-131.3-13.9-195.7c-24.1-97.6-66.4-186.8-123.1-269.1c-3-4.4-6.4-8.6-6.9-15.1
				c5.1,1,8.1,3.4,11.2,5.9c14.6,11.9,26.3,26.6,37.5,41.7c43.7,58.5,74.5,123.7,97.1,193c1.5,4.7,3.1,8.9,7.5,12.1
				c28.7,21,57.6,41.6,88.2,59.6c23.2,13.6,46.4,27.4,73,33.2c29.3,6.4,58.8,5,88.3,2.8c25.2-1.8,50.3-5.3,75.1-10.2
				c7.2-1.4,11.3,0.7,14.9,7.8c16,32,32.7,63.5,49.1,95.3c6.7,13,6.6,13.1-8,13.2c-28.1,0.3-54.9,6.3-80.4,18.6
				c-53.3,25.8-70.5,75-65.2,128.1c2.5,25.4,12.5,47.2,36.7,57.9c36.8,16.3,72,9,105.7-10.6c4.1-2.4,3.1-5.1,1.4-8.5
				c-5.2-10.6-8.3-21.9-10.4-33.4c-10-54.3,12-94.2,61.8-111.7c10.7-3.7,21.6-6.5,33-6.1c2.1,0.1,4.8,0.4,5.3,2.7
				c0.6,2.6-2,3.5-3.9,4.3c-5.6,2.5-11.3,4.6-16.8,7.3c-30.7,15.3-51,38.4-53.7,74.7c-3.4,46,22.4,84.6,63.3,93.8
				c16.8,3.8,33.7,4.9,50.9,2.4c46.5-6.8,87.7-24.5,121.6-58.4C4046.8,3786.4,4051.8,3746.9,4029.9,3722.4z"/>
			<g id="Head">
				<path id="Chin" class="st6" d="M1937.7,3308.5c-51.6,6.9-104.5,6.2-152.5,32.4c-25.1,13.7-51,26.5-79.2,33
					c-23.7,5.5-47.4,6.5-71.5,1.3c-48.5-10.4-70.7-60.5-56.1-105c17.8-54.5,74.1-80.6,129.6-60.5c17,6.2,17,6.2,4.1,18.9
					c-25.9,25.7-37.4,51.1-41.6,93.1c5.2-6.6,7.8-13.6,11.1-20.1c8.9-17.3,17.9-34.5,29.7-49.9c16.9-22.1,39.2-33.5,66.9-34.5
					c33-1.2,64,7,94.1,19.5c42.5,17.7,84.9,36,128.7,49.9c46.8,14.8,94.8,19.5,143.3,6.8c11.2-2.9,21.4-8.3,32.5-13.6
					c1.2,25.8,3.5,50.6,9.2,75c8.3,35.8,21.4,69.6,42.9,99.4c5.6,7.7,3.3,9.5-4,12.4c-23.8,9.4-48.9,12.8-74,15.6
					c-50.3,5.5-100.7,9.5-151,15.2c-33.3,3.8-66.1,9.9-96.9,24.9c-30.8,14.9-62.4,11.3-93.2-0.8c-51.6-20.3-88.4-55.7-106.8-109.6
					c-2.5-7.3-1.6-10.1,6.6-11.5c12.9-2.2,25.6-6,37.3-11.9c5.9-3,9.6-1.7,14.4,2.3c27.4,22.2,57.9,36.1,96.3,34.2
					c-14-8-26.7-14-38.3-21.8c-12.2-8.2-23.9-17-34.8-27c-4.9-4.6-5.8-6.8,0.7-11.3c31.2-21.6,65.5-33.6,102.7-38.3
					c12.7-1.6,25.3-3.8,37-9.5c4.6-2.3,9.3-4.5,12.5-9C1937.6,3308.5,1937.6,3308.5,1937.7,3308.5z"/>
				<path id="Cheek" class="st6" d="M2332,3078.7c-8.6-23.5-24.1-40.6-37.9-59.3c5.8-1.4,9.5,2.4,12.9,4.4
					c60.1,36.6,117.5,76.6,162.1,132.5c26.7,33.4,45.8,70.5,50.6,114.1c7.2,66.1-17.2,114.1-75.5,145
					c-55,29.1-114.3,39.3-175.8,39.5c-5.8,0-7.9-3.7-10.6-7.2c-26.4-34.8-41.8-74.3-49-117.3c-6.1-35.9-5.2-71.9-1.3-108
					c5.6-52.4,3.7-104.3-14.1-154.5c-11-31-29.3-56.1-60-70c-32-14.5-65.5-7.3-89.2,18.8c-2.5,2.7-5.3,5.4-6.9,8.6
					c-15.4,31.5-42.1,39.3-74.1,37.5c-15.2-0.9-30.4-0.6-45.7,0.2c-24.8,1.4-43.5,12.3-57.2,32.9c-5.1,7.7-11.1,14.8-15.9,22.7
					c-21.6,35.5-64.4,29-85.8-0.1c-20.8-28.3-19.3-69.1,4.1-99c16.3-20.8,37.3-34.3,63.6-38.4c15.3-2.4,29.7,1.9,44.1,5.7
					c13.2,3.5,26.3,7.8,40,9.3c20.6,2.3,39.2-1.5,53.9-18.2c13.6-15.4,27.8-30.3,40.8-46.3c35.6-43.6,89.6-60,146.3-20.9
					c39.6,27.4,73.6,60.8,106.8,95.5c21,22,42.1,43.9,63.2,65.7C2323.8,3074.3,2326.2,3077.2,2332,3078.7z"/>
				<path id="Upper_Lip" class="st6" d="M1660.3,3114c-6,0.2-15.6-1.9-25.2-5.6c-19-7.2-28.8-20.3-28.3-41.3
					c0.6-24.1,10.5-42.7,30.8-55.5c3-1.9,4.8-2.9,6.8,1.4c15.9,34.3,44.2,52.9,78.8,63.3c4.4,1.3,5.8,11,1.6,15.6
					c-3.1,3.3-6.8,6.2-10.7,8.5C1698.8,3109.6,1682.2,3114.2,1660.3,3114z"/>
				<path id="Eye_Lid" class="st6" d="M2000.8,2825.8c15.6-17,29.6-32.4,49.2-41.1c14.8-6.6,29.7-6,44.5-1
					c8.9,3,13.9,10.7,17.2,19.3c8.4,21.5,6,42.3-4.1,62.6c-1.9,3.8-4.5,4.5-8.7,4.8c-10.7,0.7-17.8-1.7-23.3-12.9
					c-8.6-17.3-24.2-27.3-43.1-31.1C2022.7,2824.4,2012.7,2825.8,2000.8,2825.8z"/>
				<path id="Forehead" class="st6" d="M1958.3,2660.3c-17.8,15.2-31,30.8-40.6,49.3c-1.8,3.5-3.1,7.2-5.4,12.5
					c6.3-2.6,8.5-6.7,11.3-9.9c29.8-34.1,67.3-52,111.9-55.6c6.4-0.5,8.9,1.2,8.1,7.8c-0.4,3-0.1,6.2,0.6,9.2
					c1.6,6.6,3.6,13.1,5.6,20.3c4.4-5.9,4.8-12.5,6.6-18.5c15.3-50.7,47.7-86.2,95-107.5c32.4-14.5,63.6-9.6,92.8,10.3
					c12.9,8.8,25.5,18,38.7,26.3c18.7,11.8,39.1,16.2,61.2,14.2c14.2-1.3,28.6-2,42.9,0.6c12.8,2.4,16.4,8.2,12.8,21.1
					c-6.1,21.6-20.8,36.1-39.9,45.9c-30.8,15.8-62.6,18.1-95.5,6.3c-22-7.9-44.7-8.8-67.4-2.5c-3.7,1-7.7,2-10.3,6.8
					c5.8,2.8,11.9,2.2,17.6,2.3c19.4,0.3,35.6,9.7,52.2,18.2c2.8,1.4,3,3.4,3,6c-1.3,45.6,23.1,78.6,52.5,109
					c21.6,22.4,47.6,39.5,71.2,59.5c39.5,33.3,63.2,76.2,72,127.4c1,5.8,3.1,10.5,6.4,15c26.5,35.4,39.7,76,45.1,119.6
					c0.2,1.4-0.1,2.8-0.3,5.9c-19.9-28.3-42-52.5-66.5-74.4c-43.9-39.3-92.6-71.3-143.5-100.3c-16.7-9.5-33.2-19.7-51.1-26.9
					c-14.7-5.9-25.5-16.6-37-26.6c-13.2-11.5-26.7-22.5-41.2-32.3c-14.4-9.8-29.6-18.1-46.1-24.4c14.4-21,17.1-43.5,11.3-67.5
					c-8.4-35.1-31.3-48.8-67.7-45.8c-30,2.5-50.7,22.3-70.1,43.2c-25.4,27.3-44.8,59.4-69.3,87.4c-22.1,25.3-45.9,48.7-75.1,65.7
					c-9.6,5.6-20.3,2.3-30.2,4.8c-3.1,0.8-4.6-3.6-6.2-6.1c-20.1-31.6-22-72,11.2-106.5c14.7-15.3,31.5-28.3,44.4-45.3
					c8.7-11.5,16.7-23.3,19.8-37.9c-17.9,30.3-46.4,49.4-71.5,72.2c-10.7,9.7-20.5,20.3-27.9,32.9c-14,23.6-13.2,48.1-3.4,74.4
					c-41.2-13.2-81.3-15.4-121.5,3.2c-1.4-27.8,7.2-50.3,28.4-67.2c4.1-3.2,8.5-6,13-8.5c13.2-7.5,23-6,33.7,5
					c3.4,3.5,6.3,7.4,10.3,12.1c1.8-7.3,1.1-13.7,0.4-19.8c-5.2-50.8,12.7-93.5,45.6-130.3c35.2-39.3,81-60.4,130.3-74.7
					C1936,2663.8,1945.5,2660.3,1958.3,2660.3z"/>
				<path id="Ear" class="st6" d="M1951.6,2630.8c-20.3,5.1-38.8,9.6-56.8,16.2c-41.7,15.4-80,36.2-112,67.9c-2,2-3.9,4-6.8,4.5
					c-19.1,2.8-38.2,4.8-57.2,0.3c-16.4-3.9-19.9-13.4-10.7-28c8.7-13.8,20.6-24.4,33.9-33.2c36-23.9,74.6-42,117.4-48.6
					C1891.7,2604.8,1922.4,2610.2,1951.6,2630.8z"/>
			</g>
		</g>
		<g id="White_Parts">
			<g id="Spikes">
				<path id="Spike_00000041292950597516356200000002455401688892479400_" class="st7" d="M2334,3539.7
					c-1.5,32.4-8.2,63.6-21.1,93.4c-1.2,2.8-2.6,5.6-4.2,8.2c-9.2,15.5-13.8,16-25,1.5c-22.1-28.5-37.3-60.7-47-95.5
					c-4.6-16.6,0.3-29,15-37.9c20.4-12.4,42.3-15,65.1-8.1c11,3.3,16.4,11,16.4,22.7C2333,3529.3,2333.6,3534.5,2334,3539.7z"/>
				<path id="Spike_00000064318660959273555340000011029414718169988529_" class="st7" d="M2637.5,3547.3c0.4,10.8-0.7,12-10.4,7.2
					c-34.6-17-67.3-37.2-95.9-63.5c-12.2-11.1-13.1-20.2-4.7-34.3c9.8-16.2,23.5-28.2,40.6-35.9c16.3-7.3,21.9-5.6,32.4,9.1
					c11,15.4,18,32.8,23.8,50.7C2630.5,3502.3,2636.4,3524.3,2637.5,3547.3z"/>
				<path id="Spike_00000111175258037863882070000006061723647397937026_" class="st7" d="M2784.8,3267.1
					c-13.3,5.9-27.4,8.1-41.4,10.4c-35.2,5.8-70.6,10.1-106.4,8.7c-14.1-0.6-21.5-5.8-25.8-19.2c-5.8-18.3-5.1-36.6,1.7-54.4
					c5.4-14.2,11.3-17.3,26.1-14.9c21.2,3.4,41.1,10.8,60.7,19.4c27.1,11.9,53.5,25.3,77.6,42.8
					C2780,3261.9,2783.1,3263.4,2784.8,3267.1z"/>
				<path id="Spike" class="st7" d="M2707,2926.7c-8.2,9.7-16.6,16.3-24.9,22.9c-28.4,22.3-57.6,43.5-89.5,60.4
					c-16.6,8.8-26,6.9-38.7-7.2c-9.5-10.6-15.1-23.1-17-37.2c-1.1-8.7,1.5-15.3,10.3-19.4c22.8-10.5,47.1-14.3,71.5-17.3
					C2647.3,2925.3,2676.1,2924.1,2707,2926.7z"/>
				<path id="Spike_00000098943791795790263770000007251386862308892862_" class="st7" d="M2490.7,2666.2
					c-7.2,30.7-20.1,56.7-34.7,82.1c-9.3,16.3-19.8,31.8-33.3,45c-10.1,9.9-21.1,11.2-33.4,5.4c-15.8-7.5-27.4-19.2-34.7-35.2
					c-4.4-9.6-2.8-17.7,4.9-25.1c12.6-12,27.4-20.5,42.2-29c25.6-14.8,51.1-29.9,79-40C2483.5,2668.2,2486.4,2667.5,2490.7,2666.2z"
					/>
			</g>
			<g id="Teeth">
				<path id="Lower_Big_Teeth" class="st7" d="M2182.1,3093.8c10,42.3,10.6,83.4,7.5,125c-2.6,35-19.1,48.6-53.1,57.5
					c-37.4,9.9-75.1,6.8-112.2-2.4c-46.9-11.6-90.5-32.5-135.2-50.2c-21.8-8.6-43.7-17.1-66.9-21.3c-3-0.5-18.2-1.6-18.2-1.6
					c9.4-1.9,18.4-21.6,24.3-31.7c7.5-13.9,12-10.9,17.5-4.4c8.8,9.9,13.1,17.3,21,26.9c13.2,15.9,22.9,18.8,39.8-7.6
					c8.1-12.4,15.4-26,22.7-37.3c4.7-6.5,10.6-3.6,17,2.9c10.3,10.5,19.2,22.4,31.2,31.2c15,10.9,23.7,9.3,33.8-6.6
					c9.5-14.8,20.3-31.8,28.7-47.2c0.4-0.8,0.7-1.7,1.2-2.5c7.8-11.6,10.5-9.2,16.8-2.3c15.2,15.5,19.8,22.1,30.6,33.8
					c28.7,31.3,29.1,25.9,51.3-6c15.5-23.4,21.4-31.8,37.5-50.9C2178.7,3097.8,2179.9,3096.4,2182.1,3093.8z"/>
				<path id="Upper_Big_Teeth" class="st7" d="M1957.3,3080.1c11,0,22,0.7,32.9-0.1c24.1-1.8,42.5-13.7,55.5-34.3
					c5.9-9.4,12.4-18.3,21.3-25.1c30-22.8,65.3-9.4,86.4,14.5c9.6,10.9,15.4,24.3,21.3,37.5c1.6,3.5,1.2,6.2-1.3,9.2
					c-17,20.2-30.1,39-49.1,63.8c-6.3,8.8-8.5,16.2-15.7,11c-15.1-13.3-28.6-29-41.6-45.2c-15.1-17.6-24.3-14.4-33.5-2.1
					c-8.9,16.5-20.3,33-30.2,50.5c-8.5,16.9-8.6,16.6-23.1,5c-9.7-7.7-19.3-19.9-28.1-28.4c-18.2-17.6-21.5-14.6-32.6,0.4
					c-8.9,13-18.2,30.4-27.5,43.7c-4.2,5.8-8.3,9.1-12.6,5.9c-10.5-12.3-13.7-16.4-24-29.4c-3.5-4.2-5.5-7-12.7-11.4
					c2.9-1.4,16.1-11.3,28.7-33.4c13.4-22.5,32.5-32.3,57.8-31.4c9.4,0.3,18.9,0,28.3,0C1957.3,3080.5,1957.3,3080.3,1957.3,3080.1z
					"/>
				<path id="Small_Tooth" class="st7" d="M1606.9,3112.4c16,12.2,33.7,19.2,55,19.7c-9.8,2.3-20.4,27.8-27.5,41.1
					c-7.1,12.2-9.6,9.1-16.8,2.3C1601.5,3158.8,1597.5,3134.3,1606.9,3112.4z"/>
				<path id="Small_Tooth_00000176745456225691667590000008746361511290254734_" class="st7" d="M1712.1,3190.8
					c11.9-2.7,16.5-19.3,27.3-32.8c8.7-11.3,14.6-7.2,20.1,3.1c6.5,12.3,16.1,34.3,24.7,38.1c-4.4-0.3-2.8-0.6-13.2-0.1
					c-8.5,0.4-16.8,2.7-24.6,6.2c-2.7,1.2-4.6,0.4-6.7-1C1731.8,3199.5,1721.7,3194.7,1712.1,3190.8z"/>
				<path id="Small_Tooth_00000010275980468834045570000004816705062781485477_" class="st7" d="M1672.3,3132.6
					c23.3-2.3,43.1-9.5,60.7-22.5c0.4,0.3,0.7,0.4,0.8,0.6c4.3,7.4,10.9,19.2,16.6,25.8c-5.2,0.5-11.7,6-17.2,12.1
					c-5.3,5.9-11.2,17.2-16.3,24.4c-4.8,8.4-10,10.7-17.9-3.8C1686.8,3148.6,1679,3134.6,1672.3,3132.6z"/>
				<path id="Small_Tooth_00000161626082163409758430000011821844150332903344_" class="st7" d="M1764.6,3146.7
					c22.9,15.4,47.8,11.5,59.5,7.8c-3.5,2.2-12.2,18.8-17.8,28c-2.5,4-8.2,9.2-12,9.1c-4.1-0.1-7.7-6.4-10.8-11.3
					C1776.9,3169.4,1769.5,3151.4,1764.6,3146.7z"/>
				<path id="Small_Tooth_00000131366063733043193380000002377201516829066120_" class="st7" d="M1696.9,3186.2
					c-16.6-3.7-38.3-8.2-56.2-2.7c4.1-2.1,16.7-38.9,23.9-40.1C1674,3138.7,1692.8,3183.7,1696.9,3186.2z"/>
			</g>
			<g id="Eye">
				<path id="Eye_White" class="st7" d="M2014.7,2843.3c20.7,0,35.4,7.7,45.7,23.8c1.7,2.7,3.7,5.5-1.5,6.8
					c-34.2,8.5-57.8,31.6-78.6,58.5c-8.2,10.6-13.3,16.3-21.4,24.5c7.4-22-23.2-36.7-35.1-35.4c5.1-5.3,11.2-11.6,21.6-24.6
					c8.5-10.5,17.1-21.1,24.6-32.2c7.8-13.2,19.6-17.5,33-20.1C2007.4,2843.8,2012,2843.6,2014.7,2843.3z"/>
				<path id="Eye_White_Small" class="st7" d="M1901.8,2956.9c6.5,0.1,11.2,2.9,12.5,9.8c1.3,6.6-2.1,10-8.6,8.9
					c-2.4-0.4-4.8-0.8-7.1-1.6c-4-1.5-9.6-1.3-8.8-8.3C1890.5,2960,1894.7,2956.8,1901.8,2956.9z"/>
			</g>
		</g>
		<path id="Collar" class="st8" d="M2348.3,2722.1c-17.3,16.3-17.8,34.6-8,53.7c9.7,18.9,24.6,33,44.2,40.9
			c18.6,7.5,35.8,4.6,50.6-9.9c6.2-6,11.8-12.5,16.8-19.5c5.1-6.9,10.2-13.9,14.4-21.4c3.3-5.9,5.7-6.3,10.5-1.5
			c41.5,41,78.8,85.5,110.1,135.1c2.7,4.3,8.6,8.4,6.9,13.3c-1.6,4.4-8.6,2.9-13.1,4.1c-13.8,3.6-27.6,7.2-40.9,12.7
			c-15.6,6.5-23.8,20.9-21.3,37.7c2.3,15.6,7.6,29.7,17.1,42.3c15.8,20.8,37.5,34.5,69.2,14.8c10.4-6.4,21-12.5,31.2-19.1
			c5.2-3.3,7.9-3.6,10.9,3.1c24,54.4,44.6,110,57.7,168.2c1.4,6,3.5,11.8,4.7,17.8c0.9,4.5,0.2,7.1-5.7,4.8
			c-17.6-7.1-35.6-12.9-54-17.9c-31.9-8.6-49.2,3.8-57.1,35.4c-5.3,21.4-5,42.8,4.5,63.3c7.4,16,19.9,24.5,37.5,24.7
			c22.3,0.3,44.5,0.5,66.6-3.2c2.7-0.4,5.5-0.2,8.2-0.5c5.2-0.4,6,2,5.1,6.8c-7.7,41.4-24.2,78.6-50.9,111
			c-7.8,9.5-16.3,18.3-25.3,26.7c-5.7,5.3-8.2,3.7-10.9-2.5c-4.6-10.4-10.3-20.3-17.7-29c-13.9-16.3-24.5-19.8-44.3-12.3
			c-23.5,8.8-42.6,24.2-55,46.3c-13.2,23.7-10.9,39.1,10.8,58.9c6.1,5.6,6.2,7.1-2.1,10.2c-38.5,14.2-78,23.4-118.9,27.1
			c-13.4,1.2-26.8,1.4-40.2,1.9c-5.4,0.2-8.5-0.7-8.1-7.4c0.4-6.4-0.2-13-1.3-19.4c-3.6-21.5-7.9-26.2-34.1-38
			c11.1-2,20.9-3.9,30.8-5.6c52.2-8.8,101.4-25.1,143.7-58.9c33.3-26.7,52-61.6,55.5-104.1c2.6-31.2,1.6-62.3-10.3-92.1
			c-1.7-4.2-1.4-8.9-1.2-13.6c3.2-64.2-9.3-124.4-45.3-178.4c-5.6-8.4-8.6-17.2-10.6-27c-12.8-61.9-47.2-109-97.2-145.6
			c-31.4-22.9-61.2-47.7-81.8-81.7c-7.5-12.5-13.2-25.7-13.6-40.6c-0.1-2.8-0.5-6.1,3.7-5.9
			C2309.8,2728.5,2328.9,2727.3,2348.3,2722.1z M2211.7,3533.8c4.2,0.9,5.1-1.2,5.8-4.9c2.9-15.3,11.5-26.4,24.2-35
			c7.6-5.1,16.6-7.1,24.5-11.8c-8.4-2.8-15.2-0.2-22.1,4.3c-9.1,5.9-19.3,10.3-29.8,12.9c-28.6,7.1-57.7,10.7-87.1,14.7
			C2154.8,3522.9,2183.4,3527.6,2211.7,3533.8z"/>
		<path id="Nose_Tip" class="st9" d="M1730.7,3049.1c0,0-61.7-4.9-65.9-71.7c-0.4-6.7,63-43,127.3-3
			C1736.3,3003.9,1730.7,3049.1,1730.7,3049.1z"/>
	</g>
</g>
<g id="Southern_Illinois">
	<path id="S_00000061456737613292783060000007631627802091585956_" class="st2" d="M107.7,416.4h77.8v38.9h77.8v-77.8h-93.3
		l-62.2-62.2V206.4l62.2-62.2h108.9l62.2,62.2v54.4h-77.8v-38.9h-77.8v77.8h92.2l63.3,62.2v108.9L278.8,533H169.9l-62.2-62.2V416.4z
		"/>
	<path id="O_00000082348348457478873330000001152206705593646482_" class="st2" d="M444.6,533l-62.2-62.2V206.4l62.2-62.2h108.9
		l62.2,62.2v264.4L553.4,533H444.6z M460.1,455.2h77.8V221.9h-77.8V455.2z"/>
	<path id="U_00000163771937773790351490000014298420105525415080_" class="st2" d="M657,144.2h150v77.8h-33.3v233.3h77.8V221.9
		h-33.3v-77.8h150v77.8h-38.9v248.9L866.9,533H758.1l-62.2-62.2V221.9H657V144.2z"/>
	<path id="T" class="st2" d="M1087.1,533v-77.8h38.9V221.9h-38.9v38.9h-77.8V144.2h311.1v116.6h-77.8v-38.9h-38.9v233.3h38.9V533
		H1087.1z"/>
	<path id="H" class="st2" d="M1361.7,533v-77.8h38.9V221.9h-38.9v-77.8h150v77.8h-33.3v77.8h77.8v-77.8h-33.3v-77.8h150v77.8h-38.9
		v233.3h38.9V533h-150v-77.8h33.3v-77.8h-77.8v77.8h33.3V533H1361.7z"/>
	<path id="E" class="st2" d="M1714.1,533v-77.8h38.9V221.9h-38.9v-77.8h272.2v116.6h-77.8v-38.9h-77.8v77.8h77.8v77.8h-77.8v77.8
		h77.8v-38.9h77.8V533H1714.1z"/>
	<path id="R" class="st2" d="M2027.6,533v-77.8h38.9V221.9h-38.9v-77.8h210l62.2,62.2v108.9l-23.3,23.3l23.3,23.3v93.3h38.9V533
		h-150v-77.8h33.3v-77.8h-77.8v77.8h33.3V533H2027.6z M2144.3,299.7h77.8v-77.8h-77.8V299.7z"/>
	<path id="N_00000076582429430832791350000016492979931968647576_" class="st2" d="M2380,533v-77.8h38.9V221.9H2380v-77.8h116.6
		l116.6,222.2V221.9h-38.9v-77.8H2730v77.8h-38.9V533h-77.8l-116.6-222.2v144.4h38.9V533H2380z"/>
	<path id="I_00000124145951702192803370000016097984434435542417_" class="st2" d="M2990.4,533v-77.8h38.9V221.9h-38.9v-77.8h150
		v77.8H3107v233.3h33.3V533H2990.4z"/>
	<path id="L_00000168837226358898490660000003112684407354997171_" class="st2" d="M3181.7,533v-77.8h38.9V221.9h-38.9v-77.8h155.5
		v77.8h-38.9v233.3h77.8v-38.9h77.8V533H3181.7z"/>
	<path id="L_00000071553165221226566280000004164663330913927865_" class="st2" d="M3495.2,533v-77.8h38.9V221.9h-38.9v-77.8h155.5
		v77.8h-38.9v233.3h77.8v-38.9h77.8V533H3495.2z"/>
	<path id="I_00000061432928485073985170000017991228626614306964_" class="st2" d="M3808.7,533v-77.8h38.9V221.9h-38.9v-77.8h150
		v77.8h-33.3v233.3h33.3V533H3808.7z"/>
	<path id="N" class="st2" d="M4000,533v-77.8h38.9V221.9H4000v-77.8h116.6l116.6,222.2V221.9h-38.9v-77.8h155.5v77.8h-38.9V533
		h-77.8l-116.6-222.2v144.4h38.9V533H4000z"/>
	<path id="O_00000159463197833368920740000012394948003028079774_" class="st2" d="M4453.5,533l-62.2-62.2V206.4l62.2-62.2h108.9
		l62.2,62.2v264.4l-62.2,62.2H4453.5z M4469,455.2h77.8V221.9H4469V455.2z"/>
	<path id="I" class="st2" d="M4665.9,533v-77.8h38.9V221.9h-38.9v-77.8h150v77.8h-33.3v233.3h33.3V533H4665.9z"/>
	<path id="S_00000126302563591946401730000006566090529518458036_" class="st2" d="M4857.2,416.4h77.8v38.9h77.8v-77.8h-93.3
		l-62.2-62.2V206.4l62.2-62.2h108.9l62.2,62.2v54.4h-77.8v-38.9H4935v77.8h92.2l63.3,62.2v108.9l-62.2,62.2h-108.9l-62.2-62.2V416.4
		z"/>
</g>
</svg>
