<?xml version="1.0" encoding="utf-8"?>
<!-- Generator: Adobe Illustrator 26.5.0, SVG Export Plug-In . SVG Version: 6.00 Build 0)  -->
<svg version="1.1" id="Layer_1" xmlns="http://www.w3.org/2000/svg" xmlns:xlink="http://www.w3.org/1999/xlink" x="0px" y="0px"
	 viewBox="0 0 600 600" style="enable-background:new 0 0 600 600;" xml:space="preserve">
<style type="text/css">
	.st0{opacity:0;fill:none;}
	.st1{fill:#999999;}
	.st2{fill:#CCCCCC;}
	.st3{fill:#FFFFFF;}
	.st4{fill:#333333;}
</style>
<rect class="st0" width="600" height="600"/>
<g id="BD-Head-Right">
	<path id="Chin_1_" class="st1" d="M521.5,448.8c-6,5.8-11.6,12.1-18.9,16.5c-33.4,20.3-69.6,29-108.2,23.3
		c-30.6-4.5-60-13.5-85.2-32.7c-13.5-10.3-25-22.7-36.5-35.2c0,0,0,0,0,0c-3-5.8-8.4-10.3-10.4-17.5c20.6,2.2,40.4,4.3,60.2,0.8
		c-6.3-1.7-12.6-2.5-18.9-3.3c-12.9-1.7-26.3-1.4-38.4-6.7c-18.7-8.2-26.9-20.1-17.1-40.1c8.4-17.2,19.5-32.6,30.3-48.2
		c0.3-0.4,0.9-0.5,2.5-1.2c-5.3,16.3-5.1,31.9-1.9,47.9c-5.6-0.4-9.3-4.4-14.5-4.2c0,1.9,1,2.5,2.3,2.9l0,0c2.5,2.7,5.8,4,9,5.5
		c43.2,19.9,88,23.7,134.1,12.8c29.9-7.1,59.1-15.8,78.2-43.3c14.9,0.5,28.2-4.9,40.7-14.9c1.4,13.4-3.6,23.4-9.3,33.2l0,0
		c-9.2,12-21.2,20.9-32.9,30l0,0c-3.4,2.5-6,3.9-9.7,5.8l0,0c-8.8,4.7-17.6,9.4-26.4,14c28-6.5,50.5-23,73.3-40.2
		c5,11.6,10.7,22.5,12.4,35C539.3,410.8,534.3,430.8,521.5,448.8L521.5,448.8z"/>
	<path id="Cheek_1_" class="st1" d="M543.8,289c-0.3,1.2-0.4,2.7-1.1,3.7c-6.6,9-6.4,19.3-6.1,29.7c0.2,7-2.6,13.5-5.4,19.7
		c12.3,24.9,17.4,28,15.1,77c12.9-8.8,23.7-18.8,30.4-32.7c5.3-11,6.1-22,2.7-33.8c-5.8-19.7-15.9-37.3-26.4-54.7
		c-2.2-3.7-4.4-7.4-6.5-10.9C544.6,286.8,544.5,288.4,543.8,289L543.8,289z"/>
	<path id="Face_4_" class="st1" d="M492.4,278.4c-3.5,3.2-7,3-11,0.8c-10-5.4-20.9-6.7-31.7-6.8c-1.8,2.5,0.8,3.8,0.3,5.6
		c-4.3,4.1-17.1,2.5-22.5-2.8c-4.1-4-3.3-8.8,2.4-14.7c5.6-5.7,11.9-10.3,18.9-14l0,0c6.9-4.4,13.8-8.7,22.2-14
		c-10.2-0.5-18.9,1-27.6,1.7c-9.3,0.7-16.9,5.7-26,7.6c2.4-2.1,4.7-4.2,7.1-6.3c-0.5-0.7-1-1.4-1.5-2.1c-6.2,5.5-12.9,10-21.5,13.9
		c6.1,2.2,11.6,0.6,17.7,5.1c-21.7,1.7-40.5,7.5-59.1,16.3c1.6-3.9,1.8-4.1,8.2-6.7c3.2-1.3,6.4-2.7,9.4-4.5
		c-14.4,4.2-27.6,11.1-41.2,17.1c-0.3-0.3-0.7-0.7-1-1c2.5-2.6,12.1-8.5,14.4-10.4c1.1,0.5-14.8-5.8-24.8-15.9
		c-9.2-9.2-13.4-21.5,2.4-32.8c-1.3,3.6-2.2,6.1-3.2,8.6c-3.4,9.4-2,15.5,5.4,22.1c7.5,6.6,16.4,11.2,25.8,13.8
		c6.1,1.7,12-3,18.1-5.1c-12-2.2-23.7-10.8-29.7-16.9c-7.4-7.6-8.6-18.1-8.1-29c-13-1.2-25.5-0.4-38,1.7l0,0
		c12.2-6.5,25.6-5.7,38.9-6.7c-11.4-3.6-23.1-4.9-34.8-6.1c19.7-1.3,38.9,1.5,57.8,6.8c11,3.1,21.8,6.7,32.8,10l0.3-0.1l0.1-0.3
		c-15.2-9.7-31.8-16-48.9-21.3c-3.4-1.1-6.8-1.9-10.2-2.8l0,0c29,2.6,70.1,21.1,94.3,42.5c19.4-8.4,26.9-25.1,24.5-54.6
		c4,4.8,6,17,4.3,25.1c-1.8,8.8-4.7,17-11.4,23.6c8.7,3.5,17.9-0.7,21.1-9.2c3.6-9.4,7.4-18.6,13.3-26.8c2.9-4.1,6.2-7.7,13.8-9.5
		c-10.6,9.5-17.9,18.9-22.1,30.3c0.8,0.7,1.5,1.4,2.3,2.1c2.3-3,4.2-6.4,6.9-8.9c6.8-6.4,13.4-13.1,22.9-15.7
		c2.8-0.8,5.4-1.1,7.1,2.6c-4.4,0.6-9.9-1-11.3,5.2l0,0c4.5,1.6,6.2,5.2,6.6,9.7c0.5,6.3-0.7,12.4-2.9,18.3l0.1,0.3l0.3,0.1
		c7.6-7.2,14.7-14.9,20.2-23.9c1.6-2.6,1.7-5,0.3-7.7c-11-20.9-26.4-37.3-48.2-46.9c-11-4.9-21.9-10.2-33.6-13.7
		c9.5-0.1,18.6,2.4,28.1,5.3C455.5,113.1,336.1,74,296.8,80.2c-1.3,4-2.5,8.4-4.2,12.5c-1.7,4.1-3.4,8.3-7.2,12.4
		c0.5-4.1,0.7-7.2,1.2-10.4c6.9-44.3-31.4-65.3-64.7-62c-19.7,1.9-36.8,9.9-52.6,21.4c-7.1,5.2-14,10.6-21.8,15
		c6.9,0.7,13.2-2.2,19.7-2.8l0-0.1c-11.7,8.4-25.8,9.6-39.3,12.4c-3.3,0.7-6.7,1.3-9.8,2.5c-5.3,2-5.8,5.8-1.3,9.4
		c4.9,4,10.7,5.8,16.8,7c18.9,3.6,37.1,0,55.2-5.4c16.6-4.9,32.4-13.1,50-14.4c12.4-0.9,24.3,1.2,35,11.7c-5-2.6-8.3-4.6-11.9-6.1
		c-3.7-1.5-7.5-2.7-11.5-2.4c-1.1,1.2-0.1,2,0.2,2.8l0,0c6.2,3.4,9.5,8.6,9.3,15.7c-0.2,6.9-4.5,11-10.4,13.8
		c-8.5,4-16.5,9-26.1,10.3c4.9-2.3,16.3-8.9,16.6-8.9l0,0c-0.3,0-22.5-7.1-31.9-13.6l0,0c-2.7-2-5.4-4-8.3-6.2
		c-5.5,2-10.8,3.9-17.5,6.3c6.4,3.1,11.7,5.6,16,9.7c4.3,4,8.8,7.9,10,14.9c-4.6-2.6-7.4-6.6-12.2-8c-17,34.8-59.9,98.5-61,103.3
		c6.2-2.9,34.4-29.3,40.1-32.9l0,0c4.2-3.8,8.3-7.7,12.5-11.5l0.3-0.3c6.7-6.7,13.5-13.4,20.2-20.2c0,0,0,0,0,0
		c-8.9,16.7-22.1,29.6-36.1,41.8c-13,11.3-26.3,22.3-39.6,33.1c-8.3,6.8-15.5,14.5-22.1,22.8l0,0c-9.9,15.3-16.1,31.8-17.8,50
		c-1.9,19.9,3.3,38.4,10.4,56.5c23.1,58.8,63.1,81.2,121.7,101.7c27.8,9.7,56.6,13.4,85.8,15.5c3.3,0.2,6.7,0,11.9,0
		c-21.4-14.5-42.1-27.3-55.2-48.6"/>
	<path id="Face_1_" class="st1" d="M266.9,429.4c-6.7-9-12.5-18.4-15.9-29.2c-0.5-0.3-0.9-0.9-1.5-1.1c-16.1-6.2-18.4-18.8-13-34.2
		c4.5-12.6,12.3-23.3,19.7-34.3c0.3,0.3,0.7,0.7,1,1l0,0c-0.3-0.3-0.7-0.6-1-1c4.7-7.5,9.8-14.6,15.5-21.3c0.3,0.3,0.7,0.6,1,1l0,0
		c-0.3-0.3-0.7-0.6-1-1c4.3-5.4,8.6-10.8,12.9-16.2c0-0.4-0.2-0.6-0.5-0.5c-2.2,1.5-4.5,3-7.6,5.1c0.9-6.4,4.9-9.5,9.3-12
		c4.1-2.2,8.4-4.7,12.8-2.5c1.3,2.9-1.4,3.4-1.4,5.5c20.3,14.4,44,22.4,66.8,32.3c-5.1-5-10.6-9.4-15-15c-7.1-9.1-5.2-20.6,4.1-25.7
		l0,0c-8.1,12-7.2,18.7,4,28.3c7.5,8.2,53,31.7,81.6,33.5c25.6,1.6,54.8-13.8,56.2-51c0-0.6,0.3-1.2,0.8-3.3c3.8,12.9-1.2,23-5,33.3
		c4.8,2,8.7,0.1,12.4-1.6c17.8-8.6,28.6-23.2,34-41.8c1.9-6.8,0.4-13.9-2.9-20.2c-1.7-3.3-4.7-5.7-9.1-6c-9,11-19.6,20.2-32.4,26.8"
		/>
	<g id="Forehead_1_">
		<path id="forehead-accent_5_" d="M268.9,135c-1,0.7-2,1.3-2.9,2l0,0c-1.2,1-2.5,2.1-3.7,3.1c-7.8,6.2-15.8,12.3-20.4,21.5
			c-4.4,8.9-3.4,15.6,4.3,22c4.9,4.1,10.7,7.2,15.9,10.9c2.1,1.5,4.9,2.6,5.2,6.9c-6-0.7-10.5-3.6-14.9-6.5
			c-22.4-14.6-23.9-30.3-4.7-49.1l0,0c12.8-8.8,25.8-17.2,40.7-22.2l0,0C281.7,127.2,275.3,131.1,268.9,135L268.9,135z M252.4,192.1
			c-0.3-0.3-0.7-0.6-1-1c-0.3-0.3-0.6-0.6-1-1c-0.3-0.3-0.6-0.6-1-1l0,0c0.3,0.3,0.6,0.6,1,1c0.3,0.3,0.6,0.6,1,1
			C251.7,191.4,252.1,191.7,252.4,192.1L252.4,192.1z M245.6,187.3L245.6,187.3L245.6,187.3z M241.7,184.4L241.7,184.4L241.7,184.4z
			"/>
		<path id="forehead-accent_4_" d="M423.7,149.5c7.5,7.9,13.7,16.9,21.7,25c-1.4-7-2.8-14-4.2-21.1l0,0c3.9,10.5,6.7,21.1,5.9,32.5
			c-3-0.1-3.5-1.4-4-2.6l0,0c-8.2-12.9-16.6-25.6-27.2-36.8c0.3-0.3,0.7-0.7,1-1c0,0,0,0,0,0c-0.3,0.3-0.7,0.7-1,1
			c-6.3-6.5-13.3-12-21.1-16.6c-10.6-6.3-21.1-12.8-32.1-18.3l0,0C386.3,119.1,407.9,129.7,423.7,149.5L423.7,149.5z M431.4,161.1
			c-0.3-0.3-0.7-0.6-1-1l0,0C430.8,160.4,431.2,160.8,431.4,161.1L431.4,161.1z"/>
		<path id="forehead-accent_3_" d="M425.6,221.1L425.6,221.1c0.8,0.6,1.5,1.3,2.4,1.8c0.3,0.2,0.9,0,2.3,0
			c-2.9-6.3-31.8-34-42.9-42.1c-19.2-14-39.9-26-62.7-33.5c-2.1-0.7-4.3-1.2-6.5-1.7l0-0.1c20.2,7.8,39,18.2,56.6,30.7
			c4.1,2.9,8,5.9,12,8.9"/>
	</g>
	<g id="Ears_1_">
		<path id="ear_1_" class="st1" d="M418.9,88.7c-1.2,1.5-2.3,3-3.9,5.1c17.7,9.7,36.5,17.2,52.2,29.7l0,0c0.3,0.3,0.7,0.7,1,1l0,0
			c0.6,0.3,1.3,0.6,1.9,1l0,0c3.7,2.8,6.6,6.6,10.9,8.6c13.8-15.2,16.8-17,28.3-17c-4.1,2.9-9.7,2.8-11.8,7.7
			c11.8,4.5,39.1-2.2,46.2-11.8c4.7-6.4,10.4-13,6.4-22.6c-8,1.1-15.6,2.1-23.3,1.7c-15.9-0.8-30.5-6.6-45.6-10.6
			c-11.1-3-22.5-4.1-34-3.7C436.5,78.1,427.5,82.8,418.9,88.7C418.9,88.7,418.9,88.7,418.9,88.7z"/>
		<path id="ear-inner_1_" class="st2" d="M204.4,92.6c11.4,7.9,21.2,15.3,33.6,17.5c3.6,0.6,7.1-0.1,10.3-1.7
			c7.4-3.7,8.8-11.5,3.1-17.4c-6.4-6.7-13.6-10.5-23.2-6.6C221,87.3,213.4,89.5,204.4,92.6z"/>
	</g>
	<g id="Eyes_1_">
		<g id="iris_3_">
			<path id="iris_5_" class="st3" d="M368.3,213.8c2.6,12.6-1.4,16.8-18.8,19.6c4.4,6.4,15.7,7.3,22.7,1.9
				c6.7-5.2,7.2-13.1,1.2-19.8c-1.3-1.4-2.8-2.1-4.7-2.1C368.6,213.5,368.5,213.6,368.3,213.8z"/>
			<path id="iris_4_" class="st3" d="M482.5,211.1c-2.2,0.7-3.5,2.1-4.4,3.7c0.8,3,1.6,5.9,2.5,9c2.1,1.4,3.9,1.1,5-1.3
				C487.6,217.9,486.1,214.2,482.5,211.1z"/>
		</g>
		<path id="eye-accent_1_" d="M318.7,219c-16.1-6.4-32.4-4.5-48.7-2.6c5.6,0,11.2-0.2,16.8,0.1c5.6,0.3,11.1,1.2,18.9,2.1
			c-6.5,3.5-11.5,5.6-14.9,9.9c-3.6,4.5-4.5,9.2-1.4,16.3C290.6,224.9,306.6,224.6,318.7,219z"/>
		<path id="eye-white_7_" class="st3" d="M349.2,220.3c1.2,2.6,3.4,3.6,6,2.9c2.8-0.8,4.4-2.9,5-6C355,214,351.5,215.2,349.2,220.3
			L349.2,220.3z"/>
		<path id="eye-white_6_" class="st3" d="M363.7,245.5c12.8,4.8,25,2.4,36.9-3.3c5.5-2.6,10.8-5.5,15.5-9.6
			c-5.3-5.7-21.7-13.3-30-14c-0.1,0.4-0.4,0.9-0.4,1.3c1.9,15.7-2.8,21.7-18.9,24.3C365.8,244.5,364.8,245.1,363.7,245.5
			L363.7,245.5z"/>
		<path id="eye-white_5_" class="st3" d="M472.2,221.6c-1.2,0.5-1.8,0.6-2.3,1c-0.5,0.5-0.9,1.2-1.9,2.4
			C471.3,225.5,472.4,224.8,472.2,221.6z"/>
		<path id="eye-white_4_" class="st3" d="M490.3,226.1c7.7-2.5,8.6-8,10.1-12.7c2.1-6.4,0.1-11.3-6.2-14.4c-3.2,1.8-5.5,4.3-7.8,7.5
			C491.6,211.6,493.1,217.7,490.3,226.1z"/>
	</g>
	<g id="Mouth_1_">
		<g id="Gum_1_">
			<path class="st2" d="M317,307.7c2.1,5.7,6.4,9.9,10.5,14.6c3.3-1.8,6.4-3.4,10.8-5.8c-7.5-3.4-14.1-6.3-20.7-9.3
				C317.3,307.4,317.1,307.5,317,307.7z"/>
			<path class="st2" d="M286,306.1c1.4,0.6,2.7,1.1,4.2,1.8c2.9-3.3,5.7-6.4,8.6-9.7c-2.1-2.5-4.4-3.9-7.6-4.5
				C288.6,297.4,287.2,301.5,286,306.1z"/>
			<path class="st2" d="M355,323.9c3,4.3,5.1,9.3,9.3,13.3c1.9-2.4,3.6-4.4,5.6-6.9C364.9,327.4,360,325.4,355,323.9L355,323.9z"/>
			<path class="st2" d="M312.7,363.1c3,0.6,4.9,0.9,6.9,1.3c1.1-3.1-0.4-5.3-0.7-8.9C316.5,358.3,315,360.3,312.7,363.1z"/>
			<path class="st2" d="M383.9,367.4c-1.2-2.2-2.4-3.4-4.1-4.2c-1.9,0.9-2.7,2.4-3.1,4.7C379.2,368.9,381.5,369,383.9,367.4z"/>
			<path class="st2" d="M355.2,367.9c0-2.3-1.3-3.1-2.9-3.7c-1.6,0.5-2,1.8-2.2,3.2C351.7,368.9,353.3,368.7,355.2,367.9z"/>
		</g>
		<g id="Teeth_1_">
			<path id="tooth_19_" class="st3" d="M285.3,354.9c5.8,3.3,12.2,5.1,18.6,6.1c5.1,0.8,7.6-4.5,12.2-6.7
				c-10.3-12.9-20.2-25.2-28-41.1C283.6,328.1,280.1,341.1,285.3,354.9L285.3,354.9z"/>
			<path id="tooth_18_" class="st3" d="M316,347.1c1.7-9.3-1.9-18.5,5.6-25.8c-6.8-6.3-6.8-17.8-17.2-20.9
				c-10.4,4.9-12.6,10.8-7.6,20.6C301.7,330.4,307.9,338.7,316,347.1z"/>
			<path id="tooth_17_" class="st3" d="M349.4,362.5c-9.4-11.3-16.2-24.1-25-36.7c-7.2,13.9-1.8,26.5,0.3,39
				C334.8,369.5,343.7,368.8,349.4,362.5z"/>
			<path id="tooth_16_" class="st3" d="M354.2,359.5c0.2-9.3-0.7-16.6,3.3-22.8c-6.8-16-12-22.7-26.5-11.7
				C333.4,339.2,344.7,347.5,354.2,359.5z"/>
			<path id="tooth_15_" class="st3" d="M389.3,368.2c-0.7-11.3,1.7-20,6.8-28.4c-6.8-2.6-12.8-5.1-19-7.2c-2.8-1-5.1,0.7-6.8,2.8
				c-2.2,2.7-2.4,5.9-0.6,9C374.5,352.8,381.7,359.3,389.3,368.2z"/>
			<path id="tooth_14_" class="st3" d="M359.9,341.3c-2.3,17.1-2.3,21.8,0.2,26.9c10.6,2.1,13.2,1.1,17.6-7
				c-4.9-6-8.5-13.2-14.5-18.6C362.1,341.7,361.3,340.7,359.9,341.3L359.9,341.3z"/>
			<path id="tooth_13_" class="st3" d="M414,364.6c-4.6-7.8-9.2-15.6-13.9-23.4c-6.5,5.9-9.5,19.5-5.7,26.3
				C400.8,366.5,407.4,365.5,414,364.6L414,364.6z"/>
			<path id="tooth_12_" class="st3" d="M405.3,343c3.4,7.9,7.7,13.7,11.6,19.4c1.7,0.8,3,0.4,4.9-0.5c0.8-4.1,1.6-8.5,2.5-13.2
				C418,346.9,412.3,345.1,405.3,343z"/>
			<path id="tooth_11_" class="st3" d="M452.1,349.1c-4.9,0.6-8.8,0.3-12.5,2c-0.7,1.7,0,2.8,1.3,3.9
				C444.6,353.8,448.2,352.5,452.1,349.1z"/>
			<path id="tooth_10_" class="st3" d="M437.7,356.4c0.4-2.2-0.4-3.7-1.6-5.3c-2.5-0.7-5-1.7-8-1.1c-2,3-1.8,6.6-2.5,10.6
				C430.5,360.4,434.2,358.4,437.7,356.4z"/>
		</g>
	</g>
	<g id="Nose_1_">
		<path id="Nose-tip-accent_1_" class="st1" d="M433.4,263.9c-0.8,1.4-1.6,2.7-2.8,4.8c28.2-15,56.2-28.2,88.4-29.4
			c-1.1-4.7-4.6-5.3-8.1-5.7c-18.9-2.4-36,3-52.3,11.9C449.4,250.5,441,256.6,433.4,263.9L433.4,263.9z"/>
		<path id="Nose-accent_1_" d="M376.3,271.6c5.8-2.6,11.6-5.2,17.5-7.7l0,0c5.8,3.6,11.5,0.2,17.2-0.5c2.7-0.3,5.3-1,8-1.5
			c0.3-0.3,0.7-0.7,1-1l0,0c-0.3,0.3-0.7,0.7-1,1c-3.1,4.5-7.7,7.8-9.8,13.4c4.4-1.1,7.6-3.8,10.6-6.9c-1.5,0.5-2.9,1-4.4,1.5
			c-0.4,0.2-0.7,0.4-1.7,0.9c0.6-0.9,0.8-1.3,1.1-1.6c3-2.8,5.9-5.6,9.9-9.4c-7.7-1.2-13.7,1.2-20.1,0.4c4.8-1.6,9.6-3.2,14.4-4.8
			C403.2,257.2,388.4,260.8,376.3,271.6L376.3,271.6z"/>
	</g>
	<g id="Whiskers_1_">
		<path id="whisker_21_" d="M442.6,296.3c0.8,1.6,1.7,1.8,2.6,1.6c0.7-0.1,1.3-0.6,3.1-1.6C445.7,296.3,444.3,296.3,442.6,296.3z"/>
		<path id="whisker_20_" d="M408.6,306c0.1,2.1,0.8,2.6,2.5,1.9C411.5,306,410.6,305.7,408.6,306z"/>
		<path id="whisker_19_" d="M523.6,283.8c-0.5-0.5-1.1-1-2.3-2.1c0,2.6-1.9,5,2.3,4.1l0,0C523.6,285.2,523.6,284.5,523.6,283.8
			L523.6,283.8z"/>
		<path id="whisker_18_" d="M472,286.9c-0.8-0.4-1.3-0.6-2.3-1.1c0,0.9-0.3,1.6,0,1.9C470.7,288.8,471.1,287.8,472,286.9z"/>
		<path id="whisker_17_" d="M511.7,292c0.9-0.9,0.7-1.6-0.5-1.9c-1,0.5-0.9,1.1-0.4,1.9C511.1,292,511.4,292,511.7,292z"/>
		<path id="whisker_16_" d="M405.4,297.9c-0.3-0.3-0.6-0.6-0.8-0.9c-0.2,0.3-0.5,0.6-0.7,0.9c0.4,0.2,0.7,0.4,1.1,0.6
			C405.1,298.3,405.2,298.1,405.4,297.9z"/>
		<path id="whisker_15_" d="M446.6,320.9c0.6-1.2,0.1-1.7-1.1-1.7C445.1,320.3,445.3,320.9,446.6,320.9z"/>
		<path id="whisker_14_" d="M462.5,307.8c1.1,0.4,1.5,0.2,1.6-0.6C463.5,306.6,463.1,307,462.5,307.8z"/>
		<path id="whisker_13_" d="M420.9,302c-0.5-2.2-1.3-2.4-2.7-1.4C418.3,302.4,419.1,302.7,420.9,302z"/>
		<path id="whisker_12_" d="M314.9,259.9c-26.6-14.1-55.1-17.7-84.7-14.7C259.5,244,287.7,248.6,314.9,259.9z"/>
		<path id="whisker_11_" d="M243.8,289.7c11.2-6.7,22.4-13.2,35.3-16.4c5.4-1.3,11-1.2,17.5-1.2c-2.6-5-6.2-5.4-9.8-5.3
			c-13.7,0.2-24.9,6.6-35.1,15.1C248.9,284.3,246.5,287.1,243.8,289.7L243.8,289.7z"/>
	</g>
	<path id="Outline_1_" d="M583.4,326.7c1.8,3.7,3.6,7.5,5.3,11.3c4,8.7,4.3,18.3,6.3,27.5c0,1.9,0,3.9,0,5.8
		c-0.9,4.2-1.8,8.4-2.7,12.6c-4.4,20-17.5,33.4-33.8,44.3c-0.3,0-0.4,0.2-0.5,0.5c-4.1,2.5-8.3,5-12.4,7.5l0,0
		c-5.7,2.7-8.6,7.7-11.7,12.9c-14.7,24.6-38.1,36.7-64.7,43.9c-15.4,4.2-31.2,6.4-47.2,6.9c-3.5,0.1-7,0.6-11.6,1
		c4.2,11.7,8.2,23,12.8,35.8c-18.6-9.2-35.8-17.8-53-26.3c-12.6,5.1-24.9,10.2-38.6,12.8c-3,14.9-6,29.7-9,44.5
		c-0.7,3.6-1.1,7.3-1.6,10.9c-0.3,0-0.6,0-1,0c-6.1-13.4-12.2-26.9-18.5-40.2c-1.3-2.9-2.2-6.1-4.8-8.3c-22.5,2.3-44.9,3-69.2-0.8
		c-9.6,9.7-19.8,20.1-30,30.5c0-11.7,0-23.7,0-35.5c-5.8-3.3-11.4-6.4-17-9.6l0,0c-16.6-8.7-32.3-18.8-46.5-31l0,0
		c-2.7-2.2-5.4-4.5-8.3-6.8c-18.6,5.6-36.4,13.7-57.6,15.5c10.2-12.1,16.9-25,25.2-36.7l0.1-0.1c1.9-3.5,5-6.3,6.1-10.6
		c-10.5-16.5-20-33.7-28.6-51.4c-1.2-2.4-3.3-2.8-5.5-3.5c-18.7-5.7-37.3-11.3-55.9-17c-1.6-0.5-3.5-0.4-4.7-2.8
		c19.6-8.9,39-17.7,58.4-26.4c4.9-21.9,8.8-43.6,17.9-64c-12.9-15.1-28.7-27.2-41.3-42.3c0.3-0.8,0.6-1.6,1-2.3
		c22.7,1,45.3,1.9,68,2.9c3.2-5,6.3-9.7,9.4-14.6c-7.7-13.9-15.2-27.4-23.4-42.2c16.1,3.6,31,6.9,46,10.3c1.8-2.8,3.5-5.4,5.2-7.9
		c9.6-14.2,15.3-30.6,24.8-44.8l0,0.1c5.1-8.9,10.2-17.8,15.4-27.1c-5.8-3.5-11.8-5.4-18.4-5.3c-16.8,0.3-33.6,0.9-49.7-5
		c-7.1-2.6-15.2-5.2-15.4-14.5c-0.2-9.4,7.7-12.7,14.8-15.8c13.1-5.8,35-14.9,57.4-31.5c21.7-14.8,45.6-22,71.5-16.4
		c20.1,4.3,38,13.7,47,34.2c1.3,3.1,2.1,6.3,3.2,9.5c36,4.7,71.9,8.2,105.5,22.1c1.3-1.1,2.2-1.8,3-2.6c13.5-13.7,30-19.6,49-19.1
		c16,0.4,31,5.5,46.3,9.3c13.6,3.3,26.9,7.6,41.3,6.1c7.4-0.8,14.4,1.1,18.2,8.3c4,7.5,0.9,14.2-3.5,20.2
		c-11,15.1-26.9,21.5-44.7,24.1c-7.6,1.1-15.2,1.3-22.7,1.9c-0.9,4.6-0.4,5.8,4.6,8.1c17.3,8,30.9,20.3,41.9,35.6
		c2.8,3.9,5.3,8.1,4.4,12.9c-2.5,12.4-8.2,23.3-17.6,32l0,0c-0.9,1.4-0.6,2.6,0.9,3.1c4.9,1.5,6.5,5.4,6.9,9.9
		c10,4.9,16.7,12.4,17.6,23.4c0.6,6.6,2.8,12.1,5.8,17.7c2.1,4,4.3,7.9,6.5,11.8l0,0c1.9,2.9,3.8,5.7,5.7,8.6c0,0,0.2,0.2,0.3,0.2
		C571.9,309.4,577.6,318.1,583.4,326.7 M205.9,551.4L205.9,551.4C205.8,551.3,205.9,551.4,205.9,551.4z M254.2,88.6L254.2,88.6
		L254.2,88.6z M140.1,470.9c1,2.4,9.1,11.6,50.8,35.4c2.1,1.1,4.2,2.2,7.3,3.9c0.7-6.8,1.6-12.8,1.9-18.7c0.3-6.5,3.5-9.7,9.8-10.3
		c12.6-1.2,17.4-2.1,29.6,4l5,3.5c8,7,6.6,16.6-2.7,25.9l-0.8,1c-0.8,1.3-1.9,1.5-3.2,3.5c18.3,4.9,36.1,3.4,54,1.3
		c0.3-3.9-1.5-6.6-2.9-9.2c-2.8-5-1.1-8.8,3.3-10.9c12.3-5.9,24.9-5.7,37.4-0.2c3.8,1.7,3.7,5.7,4.4,9.7c12.8-3.3,25-6.9,36.3-13.8
		c-9.5-2.8-18.5-7-28.5-7.6c-31.6-1.8-63.5-0.5-94.8-7.1c-44-9.3-91.4-28.4-123.4-65.7l0,0c-17.1-17.6-27.4-38.7-33.7-62
		c-4-14.5-6-29.2-9.4-44.2c-2,10.2-4.1,20.3-6.1,30.4c2.1,3.3,6,4.9,6.7,9l0,0c8.3,11.2,10,23.6,5.9,36.6c-1.4,4.4-3,8.3-1,12.8l0,0
		c5.6,10.7,10.5,21.8,17.1,31.9c1.3,2,2.8,3.9,4.3,5.8l0,0c2.2-6.3,6.9-8.3,13-6.9c13.5,3,24.4,9.4,28.4,23.7
		C151.5,463.5,149.9,466.5,140.1,470.9 M468.2,124.5c0.6,0.3,1.3,0.6,1.9,1l0,0c3.7,2.8,6.6,6.6,10.9,8.6c13.8-15.2,16.8-17,28.3-17
		c-4.1,2.9-9.7,2.8-11.8,7.7c11.8,4.5,39.1-2.2,46.2-11.8c4.7-6.4,10.4-13,6.4-22.6c-8,1.1-15.6,2.1-23.3,1.7
		c-15.9-0.8-30.5-6.6-45.6-10.6c-11.1-2.9-22.5-4.1-34-3.7c-10.8,0.4-19.8,5.1-28.4,11c-0.3-0.3-0.7-0.7-1-1c0-0.4,0-0.7,0-1
		c0,0,0,0,0,0c0,0.3,0,0.6,0,1c0.3,0.3,0.7,0.7,1,1c-1.2,1.5-2.3,3-3.9,5.1c17.7,9.7,36.5,17.2,52.2,29.7 M251.4,86.7L251.4,86.7
		L251.4,86.7z M492.4,278.4c-3.5,3.2-7,3-11,0.8c-10-5.4-20.9-6.7-31.7-6.8c-1.8,2.5,0.8,3.8,0.3,5.6c-4.3,4.1-17.1,2.5-22.5-2.8
		c-4.1-4-3.3-8.8,2.4-14.7c5.6-5.7,11.9-10.3,18.9-14l0,0c6.9-4.4,13.8-8.7,22.2-14c-10.2-0.5-18.9,1-27.6,1.7
		c-9.3,0.7-16.9,5.7-26,7.6c2.4-2.1,4.7-4.2,7.1-6.3c-0.5-0.7-1-1.4-1.5-2.1c-6.2,5.5-12.9,10-21.5,13.9c6.1,2.2,11.6,0.6,17.7,5.1
		c-21.7,1.7-40.5,7.5-59.1,16.3c1.6-3.9,1.8-4.1,8.2-6.7c3.2-1.3,6.4-2.7,9.4-4.5c-14.4,4.2-27.6,11.1-41.2,17.1
		c-0.3-0.3-0.7-0.7-1-1c2.5-2.6,12.1-8.5,14.4-10.4c1.1,0.5-14.8-5.8-24.8-15.9c-9.2-9.2-13.4-21.5,2.4-32.8
		c-1.3,3.6-2.2,6.1-3.2,8.6c-3.4,9.4-2,15.5,5.4,22.1c7.5,6.6,16.4,11.2,25.8,13.8c6.1,1.7,12-3,18.1-5.1
		c-12-2.2-23.7-10.8-29.7-16.9c-7.4-7.6-8.6-18.1-8.1-29c-13-1.2-25.5-0.4-38,1.7l0,0c12.2-6.5,25.6-5.7,38.9-6.7
		c-11.4-3.6-23.1-4.9-34.8-6.1c19.7-1.3,38.9,1.5,57.8,6.8c11,3.1,21.8,6.7,32.8,10l0.3-0.1l0.1-0.3c-15.2-9.7-31.8-16-48.9-21.3
		c-3.4-1.1-6.8-1.9-10.2-2.8l0,0c29,2.6,70.1,21.1,94.3,42.5c19.4-8.4,26.9-25.1,24.5-54.6c4,4.8,6,17,4.3,25.1
		c-1.8,8.8-4.7,17-11.4,23.6c8.7,3.5,17.9-0.7,21.1-9.2c3.6-9.4,7.4-18.6,13.3-26.8c2.9-4.1,6.2-7.7,13.8-9.5
		c-10.6,9.5-17.9,18.9-22.1,30.3c0.8,0.7,1.5,1.4,2.3,2.1c2.3-3,4.2-6.4,6.9-8.9c6.8-6.4,13.4-13.1,22.9-15.7
		c2.8-0.8,5.4-1.1,7.1,2.6c-4.4,0.6-9.9-1-11.3,5.2l0,0c4.5,1.6,6.2,5.2,6.6,9.7c0.5,6.3-0.7,12.4-2.9,18.3l0.1,0.3l0.3,0.1
		c7.6-7.2,14.7-14.9,20.2-23.9c1.6-2.6,1.7-5,0.3-7.7c-11-20.9-26.4-37.3-48.2-46.9c-11-4.9-21.9-10.2-33.6-13.7
		c9.5-0.1,18.6,2.4,28.1,5.3C455.5,113.1,336.1,74,296.8,80.2c-1.3,4-2.5,8.4-4.2,12.5c-1.7,4.1-3.4,8.3-7.2,12.4
		c0.5-4.1,0.7-7.2,1.2-10.4c6.9-44.3-31.4-65.3-64.7-62c-19.7,1.9-36.8,9.9-52.6,21.4c-7.1,5.2-14,10.6-21.8,15
		c6.9,0.7,13.2-2.2,19.7-2.8l0-0.1c-11.7,8.4-25.8,9.6-39.3,12.4c-3.3,0.7-6.7,1.3-9.8,2.5c-5.3,2-5.8,5.8-1.3,9.4
		c4.9,4,10.7,5.8,16.8,7c18.9,3.6,37.1,0,55.2-5.4c16.6-4.9,32.4-13.1,50-14.4c12.4-0.9,24.3,1.2,35,11.7c-5-2.6-8.3-4.6-11.9-6.1
		c-3.7-1.5-7.5-2.7-11.5-2.4c-1.1,1.2-0.1,2,0.2,2.8l0,0c6.2,3.4,9.5,8.6,9.3,15.7c-0.2,6.9-4.5,11-10.4,13.8
		c-8.5,4-16.5,9-26.1,10.3c4.9-2.3,16.3-8.9,16.6-8.9l0,0c-0.3,0-22.5-7.1-31.9-13.6l0,0c-2.7-2-5.4-4-8.3-6.2
		c-5.5,2-10.8,3.9-17.5,6.3c6.4,3.1,11.7,5.6,16,9.7c4.3,4,8.8,7.9,10,14.9c-4.6-2.6-7.4-6.6-12.2-8c-17,34.8-59.9,98.5-61,103.3
		c6.2-2.9,34.4-29.3,40.1-32.9l0,0c4.2-3.8,8.3-7.7,12.5-11.5l0.3-0.3c6.7-6.7,13.5-13.4,20.2-20.2c0,0,0,0,0,0
		c-8.9,16.7-22.1,29.6-36.1,41.8c-13,11.3-26.3,22.3-39.6,33.1c-8.3,6.8-15.5,14.5-22.1,22.8l0,0c-9.9,15.2-16.1,31.8-17.8,50
		c-1.9,19.9,3.9,38.2,10.4,56.5c11.5,32.2,40.2,60.5,53.1,69.3c38.8,21.4,42.4,23.2,68.6,32.4c27.8,9.7,56.6,13.4,85.8,15.5
		c3.3,0.2,6.7,0,11.9,0c-21.4-14.5-42.1-27.3-55.2-48.6c0.3-0.3-12.5-18.4-15.9-29.2c-0.5-0.3-0.9-0.9-1.5-1.1
		c-16.1-6.2-18.4-18.8-13-34.2c4.5-12.6,12.3-23.3,19.7-34.3c0.3,0.3,0.7,0.7,1,1l0,0c-0.3-0.3-0.7-0.6-1-1
		c4.7-7.5,9.8-14.6,15.5-21.3c0.3,0.3,0.7,0.6,1,1l0,0c-0.3-0.3-0.7-0.6-1-1c4.3-5.4,8.6-10.8,12.9-16.2c0-0.4-0.2-0.6-0.5-0.5
		c-2.2,1.5-4.5,3-7.6,5.1c0.9-6.4,4.9-9.5,9.3-12c4.1-2.2,8.4-4.7,12.8-2.5c1.3,2.9-1.4,3.4-1.4,5.5c20.3,14.4,44,22.4,66.8,32.3
		c-5.1-5-10.6-9.4-15-15c-7.1-9.1-5.2-20.6,4.1-25.7l0,0c-8.1,12-7.2,18.7,4,28.3c7.5,8.2,53,31.7,81.6,33.5
		c25.6,1.6,54.8-13.8,56.2-51c0-0.6,0.3-1.2,0.8-3.3c3.8,12.9-1.2,23-5,33.3c4.8,2,8.7,0.1,12.4-1.6c17.8-8.6,28.6-23.2,34-41.8
		c1.9-6.8,0.4-13.9-2.9-20.2c-1.7-3.3-4.7-5.7-9.1-6C515.8,262.6,505.2,271.8,492.4,278.4 M272.7,420.6
		c11.4,12.5,22.9,24.8,36.5,35.2c25.3,19.3,54.7,28.2,85.2,32.7c38.6,5.7,74.8-3,108.2-23.3c7.3-4.4,12.8-10.7,18.9-16.5l0,0
		c12.8-18,17.8-37.9,14.8-59.9c-1.7-12.5-7.4-23.4-12.4-35c-22.9,17.1-45.3,33.6-73.3,40.2c8.8-4.7,17.6-9.4,26.5-14l0,0
		c3-2.4,6.1-4.5,9.7-5.8l0,0c11.8-9.2,23.8-18,33-30l0,0c5.8-9.8,10.7-19.8,9.3-33.2c-12.5,10-25.8,15.3-40.7,14.9
		c-19.1,27.5-48.2,36.3-78.2,43.3c-46.1,10.9-90.9,7.1-134.1-12.8c-3.2-1.5-6.6-2.7-9-5.5l0,0c-1.3-0.3-2.3-1-2.3-2.9
		c5.2-0.3,8.9,3.8,14.5,4.2c-3.3-16-3.4-31.6,1.9-47.9c-1.6,0.8-2.3,0.9-2.5,1.2c-10.8,15.6-21.9,31-30.3,48.2
		c-9.8,20-1.6,31.8,17.1,40c12.1,5.3,25.5,5,38.4,6.7c6.3,0.8,12.7,1.7,18.9,3.3c-19.8,3.5-39.6,1.4-60.2-0.8
		C264.3,410.3,269.7,414.8,272.7,420.6 M24.9,366.4c0.4,0.3,0.8,0.9,1.1,0.8c12.3-1.7,24.2,0.9,36,3.4c1.9,0.4,4.1,0.3,5.4-1.4
		c3.9-4.9,8.1-5.8,13.4-0.8c0.2-6-2.3-10.2-3.8-14.6l0,0c-1.8-2.5-3.5-4.9-5.4-7.5C54.8,350.3,40.4,359.8,24.9,366.4 M312.4,358.7
		L312.4,358.7L312.4,358.7z M345.2,354.8C345.2,354.8,345.3,354.8,345.2,354.8L345.2,354.8z M483.7,328.7L483.7,328.7L483.7,328.7z
		 M279.4,41.2L279.4,41.2L279.4,41.2z M183.6,37.3L183.6,37.3C183.6,37.3,183.6,37.3,183.6,37.3z M315.3,304.5L315.3,304.5
		L315.3,304.5z M143,215.4L143,215.4L143,215.4z M475,213.5L475,213.5L475,213.5z M533,125.4L533,125.4L533,125.4z M202.9,118.6
		L202.9,118.6L202.9,118.6z M361.7,338.4L361.7,338.4L361.7,338.4z M349.2,220.3c1.2,2.6,3.3,3.6,5.9,2.9c2.8-0.8,4.4-2.9,5-6
		C354.9,213.9,351.4,215.1,349.2,220.3L349.2,220.3z M355,323.8c3,4.3,5.1,9.3,9.3,13.3c1.9-2.4,3.6-4.4,5.6-6.9
		C364.8,327.4,360,325.4,355,323.8L355,323.8z M317,307.3l-0.1,0.4c2.1,5.7,6.4,9.9,10.4,14.6c3.3-1.8,6.4-3.4,10.8-5.8
		c-7.5-3.4-14.1-6.3-20.7-9.3L317,307.3z M92.3,266.6c-3.2-1.9-6.4-3.9-9.6-5.6c-3.8-2-6.8-4.7-9.2-8.3c-3.3-4.8-11-8.5-18.2-8.8
		c7.1,5.7,13.8,10.8,20.3,16.3c4.6,3.9,9.9,7.2,13.2,12.5l-0.3-0.4C90.8,271,91.1,269.4,92.3,266.6z M383,503.9
		c0.1,2.7,2.4,3.2,4.1,4.2c6.6,4.2,13.3,8.3,21.1,13.1c-1.7-8.1-5.6-13.8-7.6-19.1C393.5,497.9,388.4,501.6,383,503.9L383,503.9z
		 M368.3,213.7c2.6,12.6-1.4,16.8-18.8,19.6c4.4,6.4,15.7,7.3,22.7,1.9c6.8-5.2,7.2-13.1,1.2-19.8c-1.3-1.4-2.8-2.1-4.7-2.1
		C368.4,213.3,368.3,213.4,368.3,213.7z M139.7,446.8c-3.3,1.5-6.9,0.8-11.9-0.1c1.4,15-13.2,16.3-21.4,23.3c0.5,0.7,1,1.4,1.5,2
		c11.7-4.9,23.5-9.8,35.7-14.9c1-0.8,0.3-2.3,0.2-3.7l0,0C142.7,451.4,142.5,448.6,139.7,446.8z M414,364.5
		c-4.6-7.8-9.2-15.5-13.9-23.4c-6.5,5.9-9.5,19.5-5.7,26.3C400.7,366.5,407.4,365.5,414,364.5L414,364.5z M359.8,341.3
		c-2.3,17.1-2.3,21.8,0.2,26.9c10.6,2.1,13.2,1.1,17.6-7c-4.9-6-8.5-13.2-14.5-18.6C362.1,341.7,361.3,340.6,359.8,341.3
		L359.8,341.3z M400.5,242.2c5.5-2.6,10.8-5.5,15.5-9.6c-5.3-5.7-21.7-13.3-30-14c-0.1,0.4-0.4,0.9-0.4,1.3
		c1.9,15.7-2.8,21.7-18.9,24.3c-1.1,0.2-2.1,0.8-3.1,1.2l0,0C376.5,250.2,388.7,247.8,400.5,242.2z M433.4,263.8
		c-0.8,1.4-1.6,2.7-2.8,4.8c28.2-15,56.2-28.2,88.4-29.4c-1.1-4.7-4.5-5.3-8.1-5.7c-18.9-2.4-36,3-52.3,11.9
		C449.4,250.4,440.9,256.6,433.4,263.8L433.4,263.8z M303.9,360.9c5.1,0.8,7.6-4.5,12.2-6.7c-10.3-12.9-20.2-25.2-28-41.1
		c-4.5,15-8,28.1-2.8,41.8l0,0C291,358.1,297.4,359.9,303.9,360.9z M234.9,497.2c0.7-1.4,1.3-2.9,2.1-4.6
		c-9.4-6.7-19.4-7.9-30.7-5.4c-2.1,19.5-4.5,38.6-3.4,59.9c5.2-7.7,9.4-13.9,13.6-20l0,0c1.5-4.1,2.8-8,1.5-12.6
		c-1-3.6,0.7-6.4,4-8.4C226.5,503.4,231.4,501.3,234.9,497.2L234.9,497.2z M543.7,289c-0.4,1.2-0.4,2.7-1.1,3.7
		c-6.6,9-6.4,19.3-6.1,29.7c0.2,7.1-2.6,13.5-5.4,19.7c12.3,24.9,17.4,28,15.1,77c12.9-8.8,23.7-18.7,30.4-32.7
		c5.3-11,6.1-22,2.6-33.8c-5.8-19.7-16-37.2-26.4-54.7c-2.2-3.7-4.4-7.4-6.5-10.9C544.5,286.8,544.5,288.3,543.7,289L543.7,289z
		 M237.9,110.1c3.6,0.6,7.1-0.1,10.3-1.7c7.4-3.7,8.8-11.5,3.1-17.4c-6.4-6.7-13.6-10.5-23.2-6.6c-7.3,2.9-14.8,5.2-23.9,8.2
		C215.8,100.5,225.5,107.9,237.9,110.1z M103.2,473.3c1-6.6,6.2-8.2,10.9-10c6.4-2.5,10.6-6.5,11-13.8c0.2-4.2,3-4.9,6.5-4.3
		c2,0.4,4,1.5,6.1,0.3c-2.7-6.4-13.8-12.1-22.6-11.4c-10.7,15.4-21.7,31.1-32.6,46.8C89.3,477.7,95.8,476.2,103.2,473.3z
		 M321.6,321.2c-6.8-6.3-6.8-17.8-17.2-20.9c-10.4,4.9-12.6,10.7-7.5,20.6c4.8,9.4,11,17.7,19.1,26.1
		C317.7,337.7,314.1,328.5,321.6,321.2z M324.4,325.8c-7.2,13.9-1.8,26.5,0.3,39c10.1,4.7,19,3.9,24.7-2.3
		C339.9,351.2,333.2,338.3,324.4,325.8z M304.7,533.3c3.7,8,7.2,16.1,11.4,24c-2.7-13.3,5.8-28.4-7.1-38.6c0.8-8,9.6-10.2,5-17.3
		c-9.6-2.1-16,0.1-21.4,7.3C296.7,517.1,300.8,525.1,304.7,533.3z M357.4,336.6c-6.8-16-12-22.7-26.5-11.7
		c2.5,14.2,13.7,22.5,23.3,34.5C354.3,350.2,353.4,342.8,357.4,336.6z M396,339.8c-6.8-2.6-12.8-5.1-19-7.2
		c-2.8-0.9-5.1,0.7-6.8,2.8c-2.2,2.7-2.4,5.9-0.7,9c4.8,8.5,12.1,15,19.7,23.9C388.5,356.9,390.9,348.2,396,339.8z M93.9,263.9
		c2.4-6.2,8-11.6,10.5-19.2c-17.7-1.7-34.8-3.3-51.9-5c-0.3,0.6-0.5,1.2-0.8,1.7C69.5,241.9,79.1,257.2,93.9,263.9z M108.4,189.8
		c5.4,9,10.2,17.1,15.6,25.9c4.6-6.2,8.7-11.8,13.2-18.1C127.2,195,118.4,192.6,108.4,189.8z M500.3,213.4
		c2.1-6.4,0.1-11.3-6.2-14.4c-3.2,1.8-5.5,4.3-7.8,7.5c7.4,2.8,13.3,8.9,3.8,19.6C497.9,223.6,498.8,218.1,500.3,213.4z
		 M324.9,503.7c-2.3-1.6-4.4-2.5-7.3-1.5c0.8,5.8-3.2,9.6-6.4,14.6c3.9,6.9,9.6,13.5,7.8,22.7C321.6,527.5,321,515.3,324.9,503.7z
		 M40,372.4c13.8,3.1,27.8,4.8,41.2,9.6c2.7-7.5,1.1-11-6.3-14.7c-0.9,0.7-2.1,1.3-2.9,2.3c-4.6,5.3-10.1,6.2-16.6,3.9
		c-5.2-1.9-10.6-3.1-16.7-1.5C39.1,372,39.5,372.3,40,372.4z M416.9,362.4c1.7,0.8,3,0.5,4.9-0.5c0.8-4.1,1.6-8.5,2.5-13.2
		c-6.2-1.9-12-3.7-18.9-5.8C408.6,350.9,413,356.6,416.9,362.4z M230.4,504.1c-10.2,5.3-10.1,5.4-8,17c4.5-1.4,17.9-20.6,17-25.8
		C236.9,499.5,234,502.2,230.4,504.1z M290.1,307.8c2.9-3.3,5.7-6.4,8.6-9.7c-2.1-2.5-4.4-3.9-7.6-4.5c-2.6,3.7-4,7.9-5.2,12.4
		C287.4,306.6,288.7,307.2,290.1,307.8z M436.1,351.1c-2.5-0.7-5.1-1.7-8-1.1c-2,3.1-1.7,6.6-2.5,10.6c4.8-0.2,8.5-2.2,12.1-4.2
		C438.1,354.2,437.3,352.7,436.1,351.1z M479.3,215.4c-1.7,2-1.7,0.3-0.8,3.4c0.6,1.6,2.7,2.1,4.2,0.1c2.2-2.8,2-3.5-0.4-6.3
		C480,213.3,480.2,213.8,479.3,215.4z M319.5,364.4c1.1-3.1-0.4-5.3-0.8-8.9c-2.3,2.9-3.8,4.8-6.1,7.6
		C315.6,363.6,317.5,364,319.5,364.4z M439.6,351c-0.7,1.7,0,2.8,1.3,3.9c3.7-1.1,7.3-2.4,11.2-5.9
		C447.1,349.7,443.2,349.3,439.6,351z M379.8,363.2c-1.9,0.9-2.7,2.4-3.1,4.7c2.4,1,4.7,1,7.2-0.5
		C382.7,365.1,381.5,363.9,379.8,363.2z M352.3,364.1c-1.6,0.5-2,1.8-2.2,3.2c1.6,1.5,3.2,1.4,5.1,0.5
		C355.2,365.5,353.9,364.7,352.3,364.1z M470.1,223.4c-0.6,0.5-1.2,0.3-2.1,1.6c11.1,1.2,6.8,2.1,6.8-2c0-1.4,0-1.4,0-4.3
		C473.6,219.2,470.5,223,470.1,223.4z"/>
	<path id="collar_1_" class="st4" d="M85.9,398.5c-2-4.5-0.4-8.4,1-12.8c4-13,2.4-25.4-5.9-36.6l0,0c-0.7-4-4.6-5.6-6.7-9
		c2-10.1,4-20.2,6.1-30.4c3.4,15,5.5,29.8,9.4,44.2C95,382,118.4,413,130,423.5c32.8,31.8,72.9,48.8,117,58.1
		c31.3,6.6,63.2,5.3,94.8,7.1c10,0.6,18.9,4.8,28.5,7.6c-11.4,6.9-23.5,10.5-36.3,13.8c-0.7-4.1-0.6-8.1-4.4-9.7
		c-12.4-5.5-25.1-5.7-37.4,0.2c-4.4,2.1-6.1,5.9-3.3,10.9c1.4,2.6,3.2,5.2,2.9,9.2c-17.9,2.2-35.6,3.6-54-1.3
		c14.2-15.2,13.9-20.8,9.8-26.9l-3.1-3.5c-11.1-9.1-22.1-8.6-34.6-7.5c-6.3,0.6-9.5,3.8-9.8,10.3c-0.3,6-1.2,11.9-1.9,18.7
		c-3.1-1.7-5.2-2.8-7.3-3.9c-17.2-9.4-34-19.5-48.9-32.5l0,0c-0.6-1-1.3-2-1.9-3l0,0c9.9-4.5,11.4-7.5,8.4-18.1
		c-4-14.3-14.9-20.7-28.4-23.7c-6.1-1.4-10.8,0.6-13,6.9l0,0c-1.4-1.9-3-3.8-4.3-5.8C96.3,420.2,91.4,409.1,85.9,398.5L85.9,398.5z"
		/>
	<g id="Spikes_2_">
		<path id="spike_13_" class="st3" d="M216.5,527.2c1.5-4.1,2.8-8,1.5-12.6c-1-3.6,0.7-6.4,4-8.4c4.5-2.7,9.4-4.9,12.9-9.1l-0.1,0.1
			c0.7-1.4,1.3-2.9,2.1-4.6c-9.3-6.7-19.4-7.9-30.7-5.4c-2.1,19.5-4.5,38.6-3.4,59.9C208.2,539.5,212.4,533.3,216.5,527.2
			L216.5,527.2z"/>
		<path id="spike_12_" class="st3" d="M82.1,481c8.8-3.7,12.1-4.5,20.7-7.6c2.1-7.6,6.2-8.2,10.9-10c6.4-2.5,10.6-6.5,11-13.8
			c0.2-4.2,3-4.9,6.5-4.3c2,0.4,4,1.5,6.1,0.3c-2.7-6.4-13.8-12.1-22.6-11.4C103.9,449.6,93,465.3,82.1,481z"/>
		<path id="spike_11_" class="st3" d="M77.2,353.9c-1.8-2.5-3.5-4.9-5.4-7.5c-17,3.9-31.3,13.4-46.9,20l0,0c0.4,0.3,0.8,0.9,1.1,0.8
			c12.3-1.7,24.2,0.9,36,3.4c1.9,0.4,4.1,0.3,5.4-1.4c3.9-4.9,8.1-5.8,13.4-0.8C81.2,362.5,78.7,358.3,77.2,353.9L77.2,353.9z"/>
		<path id="spike_10_" class="st3" d="M292.6,508.8c4.1,8.3,8.3,16.3,12.1,24.5c3.7,8,7.2,16.1,11.4,24c-2.7-13.3,5.8-28.4-7.1-38.6
			c0.3-7.1,9.6-10.2,5-17.3C304.4,499.4,298.1,501.6,292.6,508.8z"/>
		<path id="spike_9_" class="st3" d="M51.7,241.5c17.8,0.5,27.4,15.7,42.1,22.4c3.8-6.3,7.8-11.9,10.6-19.2
			c-17.7-1.7-34.8-3.3-51.9-5C52.3,240.4,52,241,51.7,241.5z"/>
		<path id="spike_8_" class="st3" d="M383.1,503.9c0,2.7,2.4,3.2,4.1,4.3c6.6,4.2,13.3,8.2,21.1,13c-1.7-8.1-5.6-13.8-7.6-19.1
			C393.6,498,388.4,501.6,383.1,503.9L383.1,503.9z"/>
		<path id="spike_7_" class="st3" d="M137.3,197.7c-10-2.7-18.8-5.1-28.8-7.9c5.4,9,10.3,17.1,15.6,25.9
			C128.6,209.6,132.7,204,137.3,197.7z"/>
		<path id="spike-accent_9_" class="st2" d="M319.1,539.6c2.5-12,1.9-24.3,5.8-35.8c-2.3-1.6-4.4-2.5-7.3-1.5
			c0.8,5.8-3.2,9.7-6.4,14.6C315.2,523.7,320.8,530.4,319.1,539.6z"/>
		<path id="spike-accent_8_" class="st2" d="M38.7,371.9c0.4,0.2,0.8,0.4,1.3,0.5c13.8,3.1,27.8,4.8,41.2,9.6
			c2.7-7.5,1.1-11-6.3-14.7c-0.9,0.7-2.1,1.3-2.9,2.3c-4.6,5.3-10.1,6.2-16.6,3.9C50.2,371.6,44.8,370.3,38.7,371.9z"/>
		<path id="spike-accent_7_" class="st2" d="M88.8,272.6c2.3-1.1,2.7-3.4,3.5-6c-3.2-1.9-6.3-3.9-9.5-5.6c-3.8-2-6.8-4.7-9.2-8.3
			c-3.3-4.8-11-8.5-18.2-8.8c7.1,5.7,13.8,10.8,20.3,16.3C80.2,264,85.5,267.3,88.8,272.6L88.8,272.6z"/>
		<path id="spike-accent_6_" class="st2" d="M239.5,495.3c-2.5,4.2-5.4,6.9-9.1,8.8c-10.2,5.3-10.1,5.4-8,17
			C227,519.8,240.4,500.5,239.5,495.3z"/>
		<path id="spike-accent_5_" class="st2" d="M144,453.6c-1.2-2.2-1.5-5-4.2-6.8c-3.3,1.5-6.9,0.8-11.9-0.1
			c1.4,15-13.2,16.3-21.4,23.3c0.5,0.7,1,1.4,1.5,2c11.7-4.9,23.5-9.8,35.7-14.8C144.7,456.5,143.9,455,144,453.6L144,453.6z"/>
	</g>
</g>
</svg>
