<?xml version="1.0" encoding="utf-8"?>
<!-- Generator: Adobe Illustrator 26.5.0, SVG Export Plug-In . SVG Version: 6.00 Build 0)  -->
<svg version="1.1" id="BD-Banner-Logo" xmlns="http://www.w3.org/2000/svg" xmlns:xlink="http://www.w3.org/1999/xlink" x="0px"
	 y="0px" viewBox="0 0 1200 936" style="enable-background:new 0 0 1200 936;" xml:space="preserve">
<style type="text/css">
	.st0{opacity:0;fill:none;}
	.st1{fill:#010101;stroke:#010101;stroke-width:5;stroke-miterlimit:10;}
	.st2{fill:#B0B0B0;}
	.st3{fill:#FFFFFF;}
	.st4{fill:#010101;}
	.st5{fill:#989898;}
	.st6{fill:#333333;}
	.st7{fill:#191919;}
	.st8{fill:#3A3B3A;stroke:#989898;stroke-width:0.5;stroke-miterlimit:10;}
	.st9{fill:#B0B0B0;stroke:#231F20;stroke-width:4;stroke-miterlimit:10;}
	.st10{fill:#231F20;}
	.st11{fill:#3A3B3A;}
</style>
<rect id="Background" class="st0" width="1200" height="936"/>
<g id="Banner-Logo">
	<g id="BD_Wrestling_Logo">
		<g id="Banner">
			<path id="Banner-Background" class="st1" d="M67.4,359.2l-1.1,279.3c0,0,454.4-114.3,1069.2,0c0,0,0-185.4,0-280.7
				C525.5,468,67.4,359.2,67.4,359.2z"/>
			<path id="Banner-Rim" d="M50.1,659.5l0-4.1c-0.2-93.8-0.2-272.5,0-313.6l0-4.1l4,0.8c183.3,38.8,367.6,50.9,525.7,50.9
				c83.4,0,159.5-3.4,224.3-7.9c106.3-7.4,194.1-18.8,249-27c59.5-8.9,94.4-16.1,94.7-16.2l4-0.8V659l-4-0.9
				c-0.3-0.1-35.2-7.6-94.7-16.9c-54.9-8.6-142.7-20.4-249-28.2c-64.3-4.7-139.9-8.1-222.6-8.1c-158.5,0-343.5,12.7-527.4,53.7
				L50.1,659.5z M56.7,345.9c-0.1,46.9-0.1,213.4,0,305.3c122.9-27.1,256.3-44,396.6-50.3c113.5-5.1,231.7-3.2,351.4,5.5
				c106.5,7.8,194.5,19.6,249.5,28.2c48.1,7.5,80.1,13.9,91,16.1V345.7c-10.8,2.1-42.8,8.2-91,15.4c-55,8.2-143,19.6-249.5,27
				c-119.7,8.4-237.9,10.2-351.4,5.5C313,387.8,179.5,371.7,56.7,345.9z"/>
			<g id="WRESTLING-CLUB">
				<g>
					<g id="W-WRESTLING_00000105403131407550103640000001405465701796067470_">
						<path class="st2" d="M132.8,588.7c0-12.6,0-25.1,0-37.7c2.7-0.2,5.3-0.5,8-0.7c-3.2-12.7-6.4-25.6-9.5-38.7
							c-3.2,13.3-6.4,26.7-9.5,40.3c2.7-0.2,5.3-0.5,8-0.7c0,12.6,0,25.2,0,37.8c-11.7,1.7-23.4,3.4-35.1,5.2c0-13.3,0-26.6,0-39.9
							c3.1-0.3,6.2-0.6,9.2-0.9c-3.1-39.7-6.2-80-9.3-120.9c-3.1-0.3-6.1-0.6-9.2-0.9c0-13.5,0-27,0-40.5
							c12.1,1.9,24.3,3.8,36.4,5.5c0,12.8,0,25.5,0,38.3c-3.1-0.3-6.2-0.5-9.2-0.8c1.6,20.4,3.3,40.7,4.9,60.8
							c4.6-19.7,9.2-39,13.8-57.9c4.6,19.7,9.2,38.9,13.8,57.8c1.6-19.3,3.3-38.5,4.9-57.5c-3.1-0.3-6.2-0.5-9.3-0.8
							c0-12.4,0-24.8,0-37.2c12.1,1.7,24.3,3.3,36.5,4.9c0,11.8,0,23.5,0,35.3c-3.1-0.2-6.1-0.5-9.2-0.7
							c-3.1,36.1-6.2,72.7-9.3,109.7c3.1-0.3,6.2-0.5,9.3-0.7c0,11.9,0,23.8,0,35.7C156.2,585.5,144.5,587.1,132.8,588.7z"/>
						<path class="st3" d="M176.9,404.8c0,11.6,0,23.2,0,34.8c-2.9-0.2-5.8-0.5-8.7-0.7c-0.2,0-0.3,0-0.5,0c0,0.1,0,0.3,0,0.4
							c-3.1,36-6.2,72.4-9.2,109.3c0,0.2,0,0.3,0,0.5c0.2,0,0.4,0,0.5,0c2.9-0.2,5.8-0.5,8.7-0.7c0,11.8,0,23.5,0,35.3
							c-11.5,1.5-23.1,3.1-34.6,4.8c0-12.4,0-24.8,0-37.2c2.5-0.2,4.9-0.4,7.4-0.6c0.2,0,0.4,0,0.6-0.1c0-0.2-0.1-0.4-0.1-0.5
							c-3.1-12.3-6.2-24.8-9.2-37.4c-0.2-0.7-0.3-1.3-0.5-2c-0.2,0.7-0.3,1.3-0.5,2c-3.1,12.8-6.2,25.8-9.2,39
							c0,0.2-0.1,0.4-0.1,0.6c0.2,0,0.4,0,0.6-0.1c2.5-0.2,4.9-0.4,7.4-0.7c0,12.5,0,24.9,0,37.4c-11.5,1.7-23.1,3.4-34.6,5.2
							c0-13.1,0-26.3,0-39.4c2.9-0.3,5.8-0.5,8.7-0.8c0.2,0,0.4,0,0.5,0c0-0.2,0-0.3,0-0.5c-3.1-39.5-6.1-79.6-9.2-120.3
							c0-0.2,0-0.3,0-0.5c-0.2,0-0.3,0-0.5,0c-2.9-0.3-5.8-0.5-8.7-0.8c0-13.3,0-26.6,0-40c12,1.9,23.9,3.7,35.9,5.5
							c0,12.6,0,25.2,0,37.8c-2.9-0.3-5.8-0.5-8.7-0.8c-0.2,0-0.4,0-0.5,0c0,0.2,0,0.3,0,0.5c1.6,19.8,3.2,39.5,4.7,59
							c0.1,1.1,0.2,2.1,0.3,3.2c0.2-1,0.5-2.1,0.7-3.1c4.4-18.8,8.8-37.2,13.2-55.3c4.4,18.8,8.8,37.2,13.2,55.3c0.2,1,0.5,2,0.7,3
							c0.1-1,0.2-2,0.3-3c1.6-18.7,3.2-37.3,4.7-55.7c0-0.2,0-0.3,0-0.5c-0.2,0-0.4,0-0.5,0c-2.9-0.2-5.8-0.5-8.7-0.7
							c0-12.2,0-24.5,0-36.7C152.9,401.7,164.9,403.3,176.9,404.8 M177.4,404.5c-12.3-1.6-24.6-3.3-37-5c0,12.6,0,25.1,0,37.7
							c3.1,0.3,6.2,0.5,9.2,0.8c-1.6,18.5-3.2,37-4.7,55.8c-4.6-18.7-9.1-37.8-13.7-57.3c-4.6,18.7-9.1,37.8-13.7,57.3
							c-1.6-19.5-3.2-39.2-4.7-58.9c3.1,0.3,6.2,0.5,9.2,0.8c0-12.9,0-25.8,0-38.7c-12.3-1.8-24.6-3.7-36.9-5.6c0,13.7,0,27.3,0,41
							c3.1,0.3,6.1,0.6,9.2,0.9c3.1,40.7,6.1,80.8,9.2,120.4c-3.1,0.3-6.1,0.6-9.2,0.9c0,13.5,0,26.9,0,40.4
							c11.9-1.8,23.7-3.6,35.6-5.3c0-12.8,0-25.5,0-38.3c-2.6,0.2-5.3,0.5-7.9,0.7c3.1-13.2,6.2-26.2,9.2-39
							c3.1,12.6,6.2,25.1,9.2,37.4c-2.6,0.2-5.3,0.4-7.9,0.7c0,12.7,0,25.4,0,38.1c11.9-1.7,23.7-3.3,35.6-4.9c0-12.1,0-24.1,0-36.2
							c-3.1,0.2-6.2,0.5-9.2,0.7c3.1-36.9,6.2-73.3,9.2-109.3c3.1,0.2,6.2,0.5,9.2,0.7C177.4,428.2,177.4,416.4,177.4,404.5
							C177.4,404.5,177.4,404.5,177.4,404.5z"/>
					</g>
					<g id="R-WRESTLING_00000079471055522228661550000001474511344223804041_">
						<path class="st2" d="M225.8,576.8c0-11,0-21.9,0-32.9c2.6-0.2,5.3-0.4,7.9-0.5c0-11.1,0-22.2,0-33.4c-6.3,0.1-12.7,0.3-19,0.4
							c0,11.4,0,22.8,0,34.3c2.6-0.2,5.3-0.4,7.9-0.6c0,11,0,22,0,33.1c-11.7,1.4-23.5,2.8-35.2,4.2c0-11.6,0-23.2,0-34.7
							c3.1-0.2,6.2-0.5,9.2-0.7c0-34.8,0-69.7,0-104.5c-3.1-0.2-6.2-0.5-9.2-0.7c0-11.6,0-23.2,0-34.7c16.5,2.1,33,4,49.6,5.9
							c4.9,9.2,9.8,18.3,14.7,27.2c0,15,0,30,0,45c-1.9,3.2-3.7,6.4-5.6,9.7c1.9,3.3,3.7,6.5,5.6,9.7c0,12.9,0,25.8,0,38.8
							c3.1-0.2,6.2-0.4,9.3-0.6c0,10.5,0,20.9,0,31.4C249.3,574.2,237.6,575.4,225.8,576.8z M214.7,477c6.3,0.1,12.7,0.3,19,0.4
							c0-11.1,0-22.2,0-33.4c-6.3-0.4-12.7-0.9-19-1.3C214.7,454.1,214.7,465.5,214.7,477z"/>
						<path class="st3" d="M236.9,412c4.9,9.2,9.8,18.2,14.6,27c0,15,0,29.9,0,44.9c-1.8,3.2-3.7,6.4-5.5,9.6c0,0.1-0.1,0.1-0.1,0.2
							c0,0.1,0.1,0.1,0.1,0.2c1.8,3.2,3.7,6.4,5.5,9.6c0,12.8,0,25.7,0,38.5c0,0.1,0,0.3,0,0.4c0.2,0,0.3,0,0.5,0
							c2.9-0.2,5.8-0.4,8.8-0.6c0,10.3,0,20.7,0,31c-11.6,1.2-23.2,2.5-34.7,3.8c0-10.8,0-21.7,0-32.5c2.5-0.2,5-0.3,7.4-0.5
							c0.2,0,0.3,0,0.5,0c0-0.1,0-0.3,0-0.4c0-11,0-22,0-33c0-0.1,0-0.3,0-0.4c-0.2,0-0.3,0-0.5,0c-6.2,0.1-12.3,0.3-18.5,0.4
							c-0.2,0-0.3,0-0.5,0c0,0.1,0,0.3,0,0.4c0,11.3,0,22.6,0,33.9c0,0.1,0,0.3,0,0.4c0.2,0,0.3,0,0.5,0c2.5-0.2,5-0.4,7.4-0.5
							c0,10.9,0,21.8,0,32.7c-11.6,1.3-23.1,2.7-34.7,4.2c0-11.4,0-22.9,0-34.3c2.9-0.2,5.8-0.4,8.7-0.7c0.2,0,0.3,0,0.5,0
							c0-0.1,0-0.3,0-0.4c0-34.7,0-69.4,0-104.1c0-0.1,0-0.3,0-0.4c-0.2,0-0.3,0-0.5,0c-2.9-0.2-5.8-0.4-8.7-0.7
							c0-11.4,0-22.9,0-34.3C204.1,408.3,220.5,410.2,236.9,412 M214.5,477.2c0.2,0,0.3,0,0.5,0c6.2,0.1,12.3,0.3,18.5,0.4
							c0.2,0,0.3,0,0.5,0c0-0.1,0-0.3,0-0.4c0-11,0-22,0-33c0-0.1,0-0.3,0-0.4c-0.2,0-0.3,0-0.5,0c-6.2-0.4-12.3-0.8-18.5-1.3
							c-0.2,0-0.3,0-0.5,0c0,0.1,0,0.3,0,0.4c0,11.3,0,22.6,0,33.9C214.5,476.9,214.5,477,214.5,477.2 M237.2,411.6
							c-16.7-1.8-33.3-3.8-50-5.9c0,11.7,0,23.5,0,35.2c3.1,0.2,6.2,0.5,9.2,0.7c0,34.7,0,69.4,0,104.2c-3.1,0.2-6.2,0.5-9.2,0.7
							c0,11.7,0,23.5,0,35.2c11.9-1.5,23.8-2.9,35.7-4.3c0-11.2,0-22.3,0-33.5c-2.6,0.2-5.3,0.4-7.9,0.6c0-11.3,0-22.6,0-33.8
							c6.2-0.1,12.3-0.3,18.5-0.4c0,11,0,22,0,33c-2.6,0.2-5.3,0.4-7.9,0.5c0,11.1,0,22.2,0,33.3c11.9-1.4,23.8-2.7,35.7-3.9
							c0-10.6,0-21.2,0-31.8c-3.1,0.2-6.2,0.4-9.3,0.6c0-12.9,0-25.7,0-38.6c-1.9-3.2-3.7-6.4-5.6-9.7c1.9-3.2,3.7-6.5,5.6-9.6
							c0-15,0-30,0-45C247.1,430.1,242.1,420.9,237.2,411.6L237.2,411.6z M215,476.8c0-11.3,0-22.6,0-33.8
							c6.2,0.4,12.3,0.9,18.5,1.3c0,11,0,22,0,33C227.3,477,221.2,476.9,215,476.8L215,476.8z"/>
					</g>
					<g id="E-WRESTLING_00000083052730475264551720000018286407390616598934_">
						<path class="st2" d="M271.4,571.9c0-10.3,0-20.7,0-31c3.1-0.2,6.2-0.4,9.3-0.6c0-31.1,0-62.2,0-93.4c-3.1-0.2-6.2-0.4-9.3-0.6
							c0-10.3,0-20.7,0-31c21.5,2.1,42.9,4.1,64.4,5.8c0,14.4,0,28.8,0,43.2c-6-0.2-12-0.4-18.1-0.6c0-4.9,0-9.9,0-14.8
							c-6.4-0.3-12.7-0.7-19.1-1c0,10.2,0,20.5,0,30.7c6.2,0.1,12.4,0.2,18.5,0.3c0,9.8,0,19.5,0,29.3c-6.2,0.1-12.4,0.2-18.5,0.3
							c0,10.2,0,20.5,0,30.7c6.3-0.4,12.7-0.7,19.1-1c0-4.9,0-9.9,0-14.8c6-0.2,12-0.4,18.1-0.6c0,14.4,0,28.8,0,43.2
							C314.3,567.8,292.8,569.7,271.4,571.9z"/>
						<path class="st3" d="M335.6,421.4c0,14.3,0,28.6,0,42.9c-5.9-0.2-11.7-0.4-17.6-0.6c0-4.8,0-9.6,0-14.5c0-0.1,0-0.2,0-0.4
							c-0.2,0-0.3,0-0.5,0c-6.2-0.3-12.4-0.7-18.5-1c-0.2,0-0.3,0-0.5,0c0,0.1,0,0.2,0,0.4c0,10.1,0,20.2,0,30.3c0,0.1,0,0.2,0,0.4
							c0.2,0,0.3,0,0.5,0c6,0.1,12,0.2,18,0.3c0,9.6,0,19.3,0,28.9c-6,0.1-12,0.2-18,0.3c-0.2,0-0.3,0-0.5,0c0,0.1,0,0.2,0,0.4
							c0,10.1,0,20.2,0,30.3c0,0.1,0,0.2,0,0.4c0.2,0,0.3,0,0.5,0c6.2-0.3,12.4-0.7,18.5-1c0.2,0,0.3,0,0.5,0c0-0.1,0-0.2,0-0.4
							c0-4.8,0-9.6,0-14.5c5.9-0.2,11.7-0.4,17.6-0.6c0,14.3,0,28.6,0,42.9c-21.3,1.7-42.6,3.6-63.9,5.8c0-10.2,0-20.4,0-30.6
							c2.9-0.2,5.8-0.4,8.8-0.5c0.2,0,0.3,0,0.5,0c0-0.1,0-0.3,0-0.4c0-31,0-62,0-93c0-0.1,0-0.3,0-0.4c-0.2,0-0.3,0-0.5,0
							c-2.9-0.2-5.8-0.3-8.8-0.5c0-10.2,0-20.4,0-30.6C292.9,417.8,314.2,419.7,335.6,421.4 M336.1,421.1
							c-21.7-1.7-43.3-3.7-64.9-5.9c0,10.5,0,20.9,0,31.4c3.1,0.2,6.2,0.4,9.3,0.6c0,31,0,62,0,93c-3.1,0.2-6.2,0.4-9.3,0.6
							c0,10.5,0,20.9,0,31.4c21.6-2.2,43.3-4.1,64.9-5.9c0-14.5,0-29,0-43.5c-6.2,0.2-12.4,0.4-18.6,0.6c0,4.9,0,9.9,0,14.8
							c-6.2,0.3-12.4,0.7-18.5,1c0-10.1,0-20.2,0-30.3c6.2-0.1,12.4-0.2,18.5-0.3c0-9.9,0-19.8,0-29.6c-6.2-0.1-12.4-0.2-18.5-0.3
							c0-10.1,0-20.2,0-30.3c6.2,0.3,12.4,0.7,18.5,1c0,4.9,0,9.9,0,14.8c6.2,0.2,12.4,0.4,18.6,0.6
							C336.1,450.1,336.1,435.6,336.1,421.1L336.1,421.1z"/>
					</g>
					<g id="S-WRESTLING_00000124121102272440982380000001847723746834473905_">
						<path class="st2" d="M360.9,564.2c-4.9-7.1-9.8-14.4-14.8-21.7c0-6.6,0-13.3,0-19.9c6-0.2,12-0.4,18.1-0.5c0,4.7,0,9.4,0,14.1
							c6.4-0.3,12.7-0.5,19.1-0.8c0-9.3,0-18.6,0-28c-7.5,0.1-14.9,0.2-22.4,0.3c-4.9-7.4-9.8-15-14.8-22.6c0-13.4,0-26.7,0-40.1
							c4.9-7.3,9.8-14.6,14.8-21.7c8.6,0.6,17.1,1.2,25.7,1.8c4.9,7.6,9.8,15.1,14.8,22.5c0,6.3,0,12.5,0,18.8
							c-6-0.1-12.1-0.3-18.1-0.5c0-4.6,0-9.2,0-13.8c-6.4-0.3-12.7-0.5-19.1-0.8c0,9.5,0,19,0,28.5c7.4,0.1,14.7,0.2,22.1,0.3
							c5,7.4,10,14.6,15,21.8c0,12.7,0,25.3,0,38c-4.9,7.4-9.8,14.9-14.8,22.5C378,562.9,369.5,563.5,360.9,564.2z"/>
						<path class="st3" d="M386.4,425.1c4.9,7.6,9.8,15,14.7,22.4c0,6.2,0,12.4,0,18.6c-5.9-0.1-11.7-0.3-17.6-0.5c0-4.5,0-9,0-13.5
							c0-0.1,0-0.2,0-0.3c-0.2,0-0.3,0-0.5,0c-6.2-0.2-12.4-0.5-18.6-0.8c-0.2,0-0.3,0-0.5,0c0,0.1,0,0.2,0,0.3c0,9.4,0,18.8,0,28.2
							c0,0.1,0,0.2,0,0.3c0.2,0,0.3,0,0.5,0c7.2,0.1,14.5,0.2,21.7,0.3c5,7.3,10,14.5,14.9,21.7c0,12.6,0,25.3,0,37.9
							c-4.9,7.4-9.8,14.8-14.7,22.4c-8.5,0.5-16.9,1.1-25.4,1.7c-4.9-7.1-9.8-14.3-14.7-21.6c0-6.6,0-13.1,0-19.7
							c5.9-0.2,11.7-0.4,17.6-0.5c0,4.6,0,9.2,0,13.7c0,0.1,0,0.2,0,0.3c0.2,0,0.3,0,0.5,0c6.2-0.3,12.4-0.5,18.6-0.8
							c0.2,0,0.3,0,0.5,0c0-0.1,0-0.2,0-0.3c0-9.2,0-18.4,0-27.6c0-0.1,0-0.2,0-0.3c-0.2,0-0.3,0-0.5,0c-7.3,0.1-14.6,0.2-22,0.3
							c-4.9-7.4-9.8-14.9-14.7-22.5c0-13.3,0-26.7,0-40c4.9-7.3,9.8-14.5,14.7-21.6C369.5,424,378,424.6,386.4,425.1 M386.8,424.8
							c-8.7-0.6-17.3-1.2-26-1.8c-5,7.2-9.9,14.5-14.9,21.9c0,13.4,0,26.8,0,40.2c5,7.7,9.9,15.3,14.9,22.7
							c7.4-0.1,14.9-0.2,22.3-0.3c0,9.2,0,18.4,0,27.6c-6.2,0.2-12.4,0.5-18.6,0.8c0-4.7,0-9.4,0-14.1c-6.2,0.2-12.4,0.4-18.6,0.6
							c0,6.7,0,13.4,0,20.1c5,7.4,9.9,14.7,14.9,21.9c8.7-0.6,17.3-1.2,26-1.8c5-7.7,9.9-15.2,14.9-22.7c0-12.7,0-25.4,0-38
							c-5-7.2-10.1-14.5-15.1-21.9c-7.3-0.1-14.7-0.2-22-0.3c0-9.4,0-18.8,0-28.2c6.2,0.3,12.4,0.5,18.6,0.8c0,4.6,0,9.2,0,13.8
							c6.2,0.2,12.4,0.3,18.6,0.5c0-6.3,0-12.7,0-19C396.7,440,391.7,432.5,386.8,424.8C386.8,424.8,386.8,424.8,386.8,424.8z"/>
					</g>
					<g id="T-WRESTLING_00000084507766242613695280000012155052143731626419_">
						<path class="st2" d="M430.3,559.8c0-8.7,0-17.5,0-26.2c3.1-0.1,6.2-0.2,9.3-0.3c0-26.4,0-52.9,0-79.3
							c-3.3-0.1-6.5-0.2-9.8-0.3c0,4.4,0,8.8,0,13.3c-6-0.1-12.1-0.3-18.1-0.4c0-13.4,0-26.7,0-40.1c24.6,1.4,49.2,2.5,73.9,3.4
							c0,12.7,0,25.4,0,38c-6-0.1-12.1-0.2-18.1-0.3c0-4.3,0-8.6,0-12.9c-3.3-0.1-6.5-0.2-9.8-0.2c0,26.1,0,52.2,0,78.3
							c3.1-0.1,6.2-0.2,9.3-0.2c0,8.5,0,17,0,25.5C454.8,558.6,442.6,559.2,430.3,559.8z"/>
						<path class="st3" d="M485.4,430.1c0,12.6,0,25.2,0,37.7c-5.9-0.1-11.7-0.2-17.6-0.3c0-4.2,0-8.4,0-12.6c0-0.1,0-0.2,0-0.3
							c-0.2,0-0.3,0-0.5,0c-3.1-0.1-6.2-0.2-9.3-0.2c-0.2,0-0.3,0-0.5,0c0,0.1,0,0.2,0,0.3c0,26,0,52,0,78c0,0.1,0,0.2,0,0.3
							c0.2,0,0.3,0,0.5,0c2.9-0.1,5.9-0.2,8.8-0.2c0,8.4,0,16.8,0,25.2c-12.1,0.5-24.1,1-36.2,1.7c0-8.6,0-17.3,0-25.9
							c2.9-0.1,5.9-0.2,8.8-0.3c0.2,0,0.3,0,0.5,0c0-0.1,0-0.2,0-0.3c0-26.3,0-52.7,0-79c0-0.1,0-0.2,0-0.3c-0.2,0-0.3,0-0.5,0
							c-3.1-0.1-6.2-0.2-9.3-0.3c-0.2,0-0.3,0-0.5,0c0,0.1,0,0.2,0,0.3c0,4.3,0,8.6,0,12.9c-5.9-0.1-11.7-0.3-17.6-0.4
							c0-13.2,0-26.5,0-39.7C436.4,428.1,460.9,429.2,485.4,430.1 M485.9,429.8c-24.8-0.9-49.6-2-74.4-3.4c0,13.5,0,26.9,0,40.4
							c6.2,0.1,12.4,0.3,18.6,0.4c0-4.4,0-8.8,0-13.3c3.1,0.1,6.2,0.2,9.3,0.3c0,26.3,0,52.7,0,79c-3.1,0.1-6.2,0.2-9.3,0.3
							c0,8.8,0,17.7,0,26.5c12.4-0.6,24.8-1.2,37.2-1.7c0-8.6,0-17.2,0-25.8c-3.1,0.1-6.2,0.2-9.3,0.2c0-26,0-52,0-78
							c3.1,0.1,6.2,0.2,9.3,0.2c0,4.3,0,8.6,0,12.9c6.2,0.1,12.4,0.2,18.6,0.3C485.9,455.3,485.9,442.5,485.9,429.8L485.9,429.8z"/>
					</g>
					<g id="L-WRESTLING_00000044147187537069343980000006545166656406016185_">
						<path class="st2" d="M496,557.1c0-8.4,0-16.7,0-25.1c3.1-0.1,6.2-0.1,9.3-0.2c0-25.4,0-50.8,0-76.3c-3.1-0.1-6.2-0.1-9.3-0.2
							c0-8.4,0-16.7,0-25.1c12.2,0.4,24.5,0.7,36.7,1c0,8.2,0,16.5,0,24.7c-3.1,0-6.2-0.1-9.3-0.1c0,25.2,0,50.5,0,75.7
							c6.4-0.1,12.7-0.2,19.1-0.2c0-4.2,0-8.3,0-12.5c6,0,12.1-0.1,18.1-0.1c0,12.3,0,24.7,0,37C539.1,555.9,517.5,556.4,496,557.1z
							"/>
						<path class="st3" d="M532.4,431.4c0,8.1,0,16.3,0,24.4c-2.9,0-5.9-0.1-8.8-0.1c-0.2,0-0.3,0-0.5,0c0,0.1,0,0.2,0,0.3
							c0,25.1,0,50.3,0,75.4c0,0.1,0,0.2,0,0.3c0.2,0,0.3,0,0.5,0c6.2-0.1,12.4-0.2,18.6-0.2c0.2,0,0.3,0,0.5,0c0-0.1,0-0.2,0-0.3
							c0-4.1,0-8.1,0-12.2c5.9,0,11.7-0.1,17.6-0.1c0,12.2,0,24.5,0,36.7c-21.4,0.3-42.7,0.7-64.1,1.4c0-8.3,0-16.5,0-24.8
							c2.9-0.1,5.9-0.1,8.8-0.2c0.2,0,0.3,0,0.5,0c0-0.1,0-0.2,0-0.3c0-25.3,0-50.6,0-75.9c0-0.1,0-0.2,0-0.3c-0.2,0-0.3,0-0.5,0
							c-2.9-0.1-5.9-0.1-8.8-0.2c0-8.3,0-16.5,0-24.8C508.3,430.8,520.4,431.1,532.4,431.4 M532.9,431.1c-12.4-0.3-24.8-0.6-37.2-1
							c0,8.5,0,17,0,25.4c3.1,0.1,6.2,0.1,9.3,0.2c0,25.3,0,50.6,0,76c-3.1,0.1-6.2,0.1-9.3,0.2c0,8.5,0,17,0,25.4
							c21.7-0.7,43.4-1.2,65.1-1.4c0-12.4,0-24.9,0-37.3c-6.2,0-12.4,0.1-18.6,0.1c0,4.2,0,8.3,0,12.5c-6.2,0.1-12.4,0.1-18.6,0.2
							c0-25.1,0-50.2,0-75.4c3.1,0,6.2,0.1,9.3,0.1C532.9,447.8,532.9,439.4,532.9,431.1C532.9,431.1,532.9,431.1,532.9,431.1z"/>
					</g>
					<g id="I-WRESTLING_00000145755886272691555830000005600688135620141699_">
						<path class="st2" d="M571,555.6c0-8.2,0-16.3,0-24.5c3.1,0,6.2,0,9.3,0c0-24.9,0-49.8,0-74.7c-3.1,0-6.2,0-9.3,0
							c0-8.2,0-16.3,0-24.5c11.8,0.1,23.6,0.2,35.4,0.1c0,8.2,0,16.3,0,24.5c-2.7,0-5.3,0-8,0c0,24.9,0,49.7,0,74.6c2.7,0,5.3,0,8,0
							c0,8.2,0,16.3,0,24.5C594.6,555.4,582.8,555.5,571,555.6z"/>
						<path class="st3" d="M606.1,432.1c0,8.1,0,16.1,0,24.2c-2.5,0-5,0-7.5,0c-0.2,0-0.3,0-0.5,0c0,0.1,0,0.2,0,0.3
							c0,24.8,0,49.5,0,74.3c0,0.1,0,0.2,0,0.3c0.2,0,0.3,0,0.5,0c2.5,0,5,0,7.5,0c0,8.1,0,16.1,0,24.2c-11.6,0-23.3,0-34.9,0.1
							c0-8.1,0-16.1,0-24.2c2.9,0,5.9,0,8.8,0c0.2,0,0.3,0,0.5,0c0-0.1,0-0.2,0-0.3c0-24.8,0-49.6,0-74.4c0-0.1,0-0.2,0-0.3
							c-0.2,0-0.3,0-0.5,0c-2.9,0-5.9,0-8.8,0c0-8.1,0-16.1,0-24.2C582.9,432,594.5,432.1,606.1,432.1 M606.6,431.8
							c-12,0-23.9,0-35.9-0.1c0,8.3,0,16.5,0,24.8c3.1,0,6.2,0,9.3,0c0,24.8,0,49.6,0,74.4c-3.1,0-6.2,0-9.3,0c0,8.3,0,16.5,0,24.8
							c12-0.1,23.9-0.2,35.9-0.1c0-8.3,0-16.5,0-24.8c-2.7,0-5.3,0-8,0c0-24.8,0-49.5,0-74.3c2.7,0,5.3,0,8,0
							C606.6,448.3,606.6,440,606.6,431.8C606.6,431.8,606.6,431.8,606.6,431.8z"/>
					</g>
					<g id="N-WRESTLING_00000171708131914064902180000009241440912520308377_">
						<path class="st2" d="M672.5,556.2c-9.5-24.5-18.9-48.7-28.4-72.7c0,15.9,0,31.8,0,47.6c3.1,0,6.2,0.1,9.3,0.1
							c0,8.2,0,16.4,0,24.6c-12.2-0.2-24.5-0.3-36.7-0.4c0-8.2,0-16.3,0-24.5c3.1,0,6.2,0,9.3,0c0-24.9,0-49.8,0-74.7
							c-3.1,0-6.2,0-9.3,0c0-8.2,0-16.3,0-24.5c9.2,0,18.3-0.1,27.5-0.2c9.5,23.9,18.9,48,28.4,72.3c0-16,0-32,0-48
							c-3.1,0-6.2,0.1-9.3,0.1c0-8.2,0-16.5,0-24.7c12.2-0.2,24.5-0.5,36.7-0.9c0,8.3,0,16.7,0,25c-3.1,0.1-6.2,0.1-9.3,0.2
							c0,33.7,0,67.3,0,101C684.6,556.5,678.6,556.3,672.5,556.2z"/>
						<path class="st3" d="M699.7,430.6c0,8.2,0,16.5,0,24.7c-2.9,0.1-5.9,0.1-8.8,0.2c-0.2,0-0.3,0-0.5,0c0,0.1,0,0.2,0,0.3
							c0,33.6,0,67.1,0,100.7c-5.9-0.2-11.8-0.3-17.7-0.4c-9.3-24-18.5-47.7-27.8-71.3c-0.3-0.8-0.7-1.7-1-2.5c0,0.9,0,1.7,0,2.6
							c0,15.4,0,30.8,0,46.2c0,0.1,0,0.2,0,0.3c0.2,0,0.3,0,0.5,0c2.9,0,5.9,0,8.8,0.1c0,8.1,0,16.2,0,24.3
							c-12.1-0.2-24.1-0.3-36.2-0.4c0-8.1,0-16.1,0-24.2c2.9,0,5.9,0,8.8,0c0.2,0,0.3,0,0.5,0c0-0.1,0-0.2,0-0.3
							c0-24.8,0-49.6,0-74.4c0-0.1,0-0.2,0-0.3c-0.2,0-0.3,0-0.5,0c-2.9,0-5.9,0-8.8,0c0-8.1,0-16.1,0-24.2c9,0,18-0.1,27-0.2
							c9.3,23.5,18.5,47.1,27.8,70.9c0.3,0.8,0.7,1.7,1,2.5c0-0.9,0-1.7,0-2.6c0-15.5,0-31,0-46.6c0-0.1,0-0.2,0-0.3
							c-0.2,0-0.3,0-0.5,0c-2.9,0-5.9,0.1-8.8,0.1c0-8.1,0-16.3,0-24.4C675.6,431.3,687.6,431,699.7,430.6 M700.2,430.3
							c-12.4,0.4-24.8,0.7-37.2,0.9c0,8.3,0,16.7,0,25c3.1,0,6.2-0.1,9.3-0.1c0,15.5,0,31,0,46.6c-9.3-23.9-18.6-47.6-27.9-71.1
							c-9.3,0.1-18.6,0.2-27.9,0.2c0,8.3,0,16.5,0,24.8c3.1,0,6.2,0,9.3,0c0,24.8,0,49.6,0,74.4c-3.1,0-6.2,0-9.3,0
							c0,8.3,0,16.5,0,24.8c12.4,0.1,24.8,0.2,37.2,0.4c0-8.3,0-16.6,0-24.9c-3.1,0-6.2-0.1-9.3-0.1c0-15.4,0-30.8,0-46.2
							c9.3,23.7,18.6,47.5,27.9,71.6c6.2,0.1,12.4,0.3,18.6,0.5c0-33.7,0-67.3,0-101c3.1-0.1,6.2-0.1,9.3-0.2
							C700.2,447.2,700.2,438.7,700.2,430.3L700.2,430.3z"/>
					</g>
					<g id="G-WRESTLING_00000156550297291210693240000015672398255505087140_">
						<path class="st2" d="M725.1,557.8c-4.9-7-9.9-13.9-14.8-20.8c0-28.9,0-57.7,0-86.6c4.9-6.9,9.9-13.8,14.8-20.8
							c8.6-0.3,17.1-0.7,25.7-1.1c4.9,6.7,9.9,13.5,14.8,20.3c0,6.1,0,12.2,0,18.3c-6,0.1-12.1,0.2-18.1,0.3c0-4.3,0-8.7,0-13
							c-6.4,0.2-12.7,0.3-19.1,0.5c0,25.9,0,51.7,0,77.6c6.4,0.1,12.7,0.3,19.1,0.5c0-8.8,0-17.6,0-26.4c-3.1,0-6.2-0.1-9.3-0.1
							c0-8.5,0-17.1,0-25.6c9.1-0.1,18.3-0.2,27.4-0.2c0,19.3,0,38.6,0,57.9c-4.9,6.8-9.9,13.6-14.8,20.3
							C742.3,558.4,733.7,558.1,725.1,557.8z"/>
						<path class="st3" d="M750.7,428.7c4.9,6.7,9.8,13.4,14.7,20.2c0,6,0,12.1,0,18.1c-5.9,0.1-11.7,0.2-17.6,0.3
							c0-4.2,0-8.5,0-12.7c0-0.1,0-0.2,0-0.3c-0.2,0-0.3,0-0.5,0c-6.2,0.2-12.4,0.3-18.6,0.5c-0.2,0-0.3,0-0.5,0c0,0.1,0,0.2,0,0.3
							c0,25.7,0,51.5,0,77.2c0,0.1,0,0.2,0,0.3c0.2,0,0.3,0,0.5,0c6.2,0.1,12.4,0.3,18.6,0.5c0.2,0,0.3,0,0.5,0c0-0.1,0-0.2,0-0.3
							c0-8.7,0-17.4,0-26.1c0-0.1,0-0.2,0-0.3c-0.2,0-0.3,0-0.5,0c-2.9,0-5.9-0.1-8.8-0.1c0-8.4,0-16.9,0-25.3
							c9-0.1,17.9-0.2,26.9-0.2c0,19.2,0,38.5,0,57.7c-4.9,6.8-9.8,13.5-14.7,20.2c-8.5-0.4-16.9-0.7-25.4-1.1
							c-4.9-7-9.8-13.8-14.7-20.7c0-28.8,0-57.7,0-86.5c4.9-6.8,9.8-13.7,14.7-20.7C733.8,429.4,742.2,429.1,750.7,428.7 M751,428.4
							c-8.7,0.4-17.4,0.8-26,1.1c-5,7-9.9,14-14.9,20.9c0,28.9,0,57.8,0,86.6c5,6.9,9.9,13.9,14.9,20.9c8.7,0.3,17.4,0.7,26,1.1
							c5-6.7,9.9-13.5,14.9-20.4c0-19.4,0-38.7,0-58.1c-9.3,0.1-18.6,0.2-27.9,0.3c0,8.6,0,17.3,0,25.9c3.1,0,6.2,0.1,9.3,0.1
							c0,8.7,0,17.4,0,26.1c-6.2-0.2-12.4-0.3-18.6-0.5c0-25.8,0-51.5,0-77.3c6.2-0.1,12.4-0.3,18.6-0.5c0,4.3,0,8.7,0,13
							c6.2-0.1,12.4-0.2,18.6-0.4c0-6.2,0-12.3,0-18.5C760.9,441.9,756,435.1,751,428.4L751,428.4z"/>
					</g>
					<g id="C-WRESTLING_00000034076830727069794090000004609849096535787164_">
						<path class="st2" d="M843.1,564.3c-4.9-7.9-9.8-15.6-14.8-23.2c0-31.6,0-63.2,0-94.8c4.9-7.6,9.8-15.4,14.8-23.2
							c8.6-0.6,17.1-1.3,25.7-2c4.9,7.3,9.8,14.8,14.8,22.3c0,6.8,0,13.7,0,20.5c-6,0.2-12,0.4-18.1,0.6c0-4.8,0-9.7,0-14.5
							c-6.4,0.3-12.7,0.6-19.1,0.9c0,28.5,0,57.1,0,85.6c6.4,0.3,12.7,0.6,19.1,0.9c0-4.8,0-9.7,0-14.5c6,0.2,12,0.4,18.1,0.6
							c0,6.8,0,13.7,0,20.5c-4.9,7.6-9.8,15-14.8,22.3C860.2,565.6,851.7,564.9,843.1,564.3z"/>
						<path class="st3" d="M868.6,421.2c4.9,7.3,9.8,14.7,14.7,22.2c0,6.8,0,13.5,0,20.3c-5.9,0.2-11.7,0.4-17.6,0.6
							c0-4.7,0-9.4,0-14.2c0-0.1,0-0.2,0-0.4c-0.2,0-0.3,0-0.5,0c-6.2,0.3-12.4,0.6-18.6,0.9c-0.2,0-0.3,0-0.5,0c0,0.1,0,0.2,0,0.3
							c0,28.4,0,56.8,0,85.2c0,0.1,0,0.2,0,0.3c0.2,0,0.3,0,0.5,0c6.2,0.3,12.4,0.6,18.6,0.9c0.2,0,0.3,0,0.5,0c0-0.1,0-0.2,0-0.4
							c0-4.7,0-9.4,0-14.2c5.9,0.2,11.7,0.4,17.6,0.6c0,6.8,0,13.5,0,20.3c-4.9,7.5-9.8,14.9-14.7,22.2c-8.4-0.7-16.9-1.3-25.3-2
							c-4.9-7.8-9.8-15.5-14.7-23.1c0-31.6,0-63.2,0-94.7c4.9-7.6,9.8-15.3,14.7-23.1C851.7,422.6,860.2,421.9,868.6,421.2
							 M868.9,420.9c-8.7,0.7-17.3,1.4-26,2c-5,7.9-9.9,15.7-14.9,23.4c0,31.6,0,63.2,0,94.8c5,7.7,9.9,15.5,14.9,23.4
							c8.7,0.6,17.3,1.3,26,2c4.9-7.4,9.9-14.8,14.8-22.5c0-6.9,0-13.8,0-20.7c-6.2-0.2-12.4-0.4-18.6-0.6c0,4.8,0,9.7,0,14.5
							c-6.2-0.3-12.4-0.6-18.6-0.9c0-28.4,0-56.9,0-85.3c6.2-0.3,12.4-0.6,18.6-0.9c0,4.8,0,9.7,0,14.5c6.2-0.2,12.4-0.4,18.6-0.6
							c0-6.9,0-13.8,0-20.7C878.8,435.7,873.9,428.2,868.9,420.9L868.9,420.9z"/>
					</g>
					<g id="L-WRESTLING_00000028301275166363211610000005904884489873432506_">
						<path class="st2" d="M893.9,568.4c0-9.9,0-19.7,0-29.6c3.1,0.2,6.2,0.3,9.3,0.5c0-30.4,0-60.9,0-91.3
							c-3.1,0.2-6.2,0.3-9.3,0.5c0-9.9,0-19.7,0-29.6c12.2-1.1,24.4-2.2,36.6-3.5c0,10.3,0,20.7,0,31c-3.1,0.2-6.2,0.4-9.3,0.6
							c0,31.1,0,62.2,0,93.4c6.3,0.4,12.7,0.8,19,1.2c0-5.3,0-10.6,0-15.9c6,0.3,12,0.5,18,0.8c0,16.1,0,32.3,0,48.4
							C936.8,572.5,915.4,570.3,893.9,568.4z"/>
						<path class="st3" d="M930.2,415.7c0,10.2,0,20.4,0,30.6c-2.9,0.2-5.8,0.4-8.8,0.5c-0.2,0-0.3,0-0.5,0c0,0.1,0,0.3,0,0.4
							c0,31,0,62,0,93c0,0.1,0,0.3,0,0.4c0.2,0,0.3,0,0.5,0c6.2,0.4,12.4,0.7,18.5,1.1c0.2,0,0.3,0,0.5,0c0-0.1,0-0.3,0-0.4
							c0-5.2,0-10.3,0-15.5c5.8,0.2,11.7,0.5,17.5,0.8c0,16,0,32,0,48c-21.3-2.3-42.6-4.4-63.9-6.3c0-9.8,0-19.5,0-29.3
							c2.9,0.2,5.8,0.3,8.8,0.5c0.2,0,0.3,0,0.5,0c0-0.1,0-0.2,0-0.4c0-30.3,0-60.6,0-91c0-0.1,0-0.2,0-0.4c-0.2,0-0.3,0-0.5,0
							c-2.9,0.2-5.8,0.3-8.8,0.5c0-9.8,0-19.5,0-29.3C906.2,418,918.2,416.9,930.2,415.7 M930.7,415.2c-12.4,1.2-24.7,2.4-37.1,3.5
							c0,10,0,20,0,30c3.1-0.2,6.2-0.3,9.3-0.5c0,30.3,0,60.6,0,90.9c-3.1-0.2-6.2-0.3-9.3-0.5c0,10,0,20,0,30
							c21.6,1.9,43.3,4.1,64.9,6.4c0-16.3,0-32.5,0-48.8c-6.2-0.3-12.3-0.5-18.5-0.8c0,5.3,0,10.6,0,15.9
							c-6.2-0.4-12.4-0.8-18.5-1.1c0-31,0-62,0-93c3.1-0.2,6.2-0.4,9.3-0.6C930.7,436.2,930.7,425.7,930.7,415.2
							C930.7,415.2,930.7,415.2,930.7,415.2z"/>
					</g>
					<g id="U-WRESTLING_00000149352296924905950630000004116393248266439056_">
						<path class="st2" d="M992.6,578.7c-4.9-9.6-9.8-19-14.7-28.3c0-35.7,0-71.4,0-107.1c-3.1,0.2-6.2,0.4-9.3,0.6
							c0-10.9,0-21.7,0-32.6c11.7-1.3,23.5-2.7,35.2-4.1c0,11.4,0,22.8,0,34.2c-2.6,0.2-5.3,0.4-7.9,0.6c0,34.4,0,68.8,0,103.2
							c6.3,0.5,12.7,0.9,19,1.4c0-35.3,0-70.7,0-106c-2.6,0.2-5.3,0.4-7.9,0.6c0-11.5,0-22.9,0-34.4c11.7-1.5,23.4-3,35.2-4.5
							c0,12.1,0,24.1,0,36.2c-3.1,0.3-6.2,0.5-9.2,0.7c0,38.6,0,77.2,0,115.8c-4.9,9.1-9.8,18.1-14.7,26.8
							C1009.6,580.8,1001.1,579.7,992.6,578.7z"/>
						<path class="st3" d="M1041.8,402.6c0,11.9,0,23.8,0,35.7c-2.9,0.2-5.8,0.5-8.7,0.7c-0.2,0-0.3,0-0.5,0c0,0.1,0,0.3,0,0.4
							c0,38.5,0,77,0,115.5c-4.9,9.1-9.7,18-14.6,26.7c-8.4-1.1-16.8-2.1-25.3-3.1c-4.9-9.6-9.8-18.9-14.6-28.1
							c0-35.6,0-71.2,0-106.9c0-0.1,0-0.3,0-0.4c-0.2,0-0.3,0-0.5,0c-2.9,0.2-5.8,0.4-8.8,0.6c0-10.7,0-21.5,0-32.2
							c11.6-1.3,23.1-2.6,34.7-4.1c0,11.3,0,22.5,0,33.8c-2.5,0.2-5,0.4-7.4,0.5c-0.2,0-0.3,0-0.5,0c0,0.1,0,0.3,0,0.4
							c0,34.2,0,68.5,0,102.7c0,0.1,0,0.3,0,0.4c0.2,0,0.3,0,0.5,0c6.2,0.5,12.3,0.9,18.5,1.4c0.2,0,0.3,0,0.5,0c0-0.1,0-0.3,0-0.4
							c0-35.2,0-70.4,0-105.6c0-0.1,0-0.3,0-0.4c-0.2,0-0.3,0-0.5,0c-2.5,0.2-5,0.4-7.4,0.6c0-11.3,0-22.6,0-34
							C1018.7,405.6,1030.3,404.2,1041.8,402.6 M1042.3,402.1c-11.9,1.6-23.8,3.1-35.7,4.6c0,11.6,0,23.2,0,34.8
							c2.6-0.2,5.3-0.4,7.9-0.6c0,35.2,0,70.4,0,105.6c-6.2-0.5-12.3-0.9-18.5-1.4c0-34.3,0-68.5,0-102.8c2.6-0.2,5.3-0.4,7.9-0.6
							c0-11.6,0-23.1,0-34.7c-11.9,1.5-23.8,2.9-35.7,4.2c0,11,0,22,0,33c3.1-0.2,6.2-0.4,9.3-0.6c0,35.6,0,71.2,0,106.9
							c4.9,9.3,9.9,18.8,14.8,28.5c8.6,1,17.3,2.1,25.9,3.2c4.9-8.8,9.9-17.8,14.8-27c0-38.5,0-77.1,0-115.6
							c3.1-0.2,6.2-0.5,9.2-0.7C1042.3,426.5,1042.3,414.3,1042.3,402.1L1042.3,402.1z"/>
					</g>
					<g id="B-WRESTLING_00000176028493086106218700000004324049329304379286_">
						<path class="st2" d="M1052.4,586.4c0-12.2,0-24.5,0-36.7c3.1,0.3,6.2,0.5,9.2,0.8c0-37.9,0-75.7,0-113.6
							c-3.1,0.3-6.2,0.5-9.2,0.8c0-12.2,0-24.5,0-36.7c16.5-2.3,33-4.7,49.4-7.2c4.9,9.9,9.8,20,14.7,30.3c0,19.1,0,38.2,0,57.2
							c-3.1,4.2-6.2,8.3-9.3,12.4c3.1,4.1,6.2,8.2,9.3,12.4c0,19.1,0,38.2,0,57.2c-4.9,10.3-9.8,20.4-14.7,30.3
							C1085.4,591.1,1068.9,588.7,1052.4,586.4z M1079.6,552c6.3,0.6,12.6,1.1,18.9,1.7c0-13.5,0-26.9,0-40.4
							c-6.3-0.2-12.6-0.4-18.9-0.6C1079.6,525.9,1079.6,538.9,1079.6,552z M1079.6,474.5c6.3-0.2,12.6-0.4,18.9-0.6
							c0-13.5,0-26.9,0-40.4c-6.3,0.6-12.6,1.2-18.9,1.7C1079.6,448.4,1079.6,461.5,1079.6,474.5z"/>
						<path class="st3" d="M1101.7,394c4.9,9.8,9.7,19.8,14.6,30.1c0,19,0,38.1,0,57.1c-3,4.1-6.1,8.2-9.1,12.2
							c-0.1,0.1-0.2,0.2-0.2,0.3c0.1,0.1,0.2,0.2,0.2,0.3c3,4,6.1,8.1,9.1,12.2c0,19,0,38.1,0,57.1c-4.9,10.3-9.7,20.3-14.6,30.1
							c-16.3-2.5-32.7-4.9-49-7.1c0-12.1,0-24.2,0-36.3c2.9,0.2,5.8,0.5,8.7,0.7c0.2,0,0.3,0,0.5,0c0-0.2,0-0.3,0-0.5
							c0-37.7,0-75.4,0-113.1c0-0.2,0-0.3,0-0.5c-0.2,0-0.3,0-0.5,0c-2.9,0.2-5.8,0.5-8.7,0.7c0-12.1,0-24.2,0-36.3
							C1069,398.9,1085.3,396.5,1101.7,394 M1079.4,474.8c0.2,0,0.3,0,0.5,0c6.2-0.2,12.3-0.4,18.5-0.5c0.2,0,0.3,0,0.5,0
							c0-0.2,0-0.3,0-0.5c0-13.3,0-26.6,0-39.9c0-0.2,0-0.3,0-0.5c-0.2,0-0.3,0-0.5,0c-6.1,0.6-12.3,1.1-18.5,1.7
							c-0.2,0-0.3,0-0.5,0c0,0.2,0,0.3,0,0.5c0,12.9,0,25.8,0,38.7C1079.4,474.5,1079.4,474.6,1079.4,474.8 M1079.4,552.2
							c0.2,0,0.3,0,0.5,0c6.2,0.5,12.3,1.1,18.5,1.7c0.2,0,0.3,0,0.5,0c0-0.2,0-0.3,0-0.5c0-13.3,0-26.6,0-39.9c0-0.2,0-0.3,0-0.5
							c-0.2,0-0.3,0-0.5,0c-6.1-0.2-12.3-0.4-18.5-0.5c-0.2,0-0.3,0-0.5,0c0,0.2,0,0.3,0,0.5c0,12.9,0,25.8,0,38.7
							C1079.4,551.9,1079.4,552.1,1079.4,552.2 M1102,393.5c-16.6,2.6-33.2,5-49.8,7.3c0,12.4,0,24.8,0,37.2
							c3.1-0.3,6.2-0.5,9.2-0.8c0,37.7,0,75.4,0,113.1c-3.1-0.3-6.2-0.5-9.2-0.8c0,12.4,0,24.8,0,37.2c16.6,2.3,33.2,4.7,49.8,7.3
							c4.9-9.9,9.8-20.1,14.7-30.5c0-19.1,0-38.3,0-57.4c-3.1-4.2-6.1-8.3-9.2-12.3c3.1-4,6.1-8.1,9.2-12.3c0-19.1,0-38.3,0-57.4
							C1111.8,413.6,1106.9,403.4,1102,393.5L1102,393.5z M1079.9,474.3c0-12.9,0-25.8,0-38.7c6.2-0.5,12.3-1.1,18.5-1.7
							c0,13.3,0,26.6,0,39.9C1092.2,473.9,1086,474.1,1079.9,474.3L1079.9,474.3z M1079.9,551.8c0-12.9,0-25.8,0-38.7
							c6.2,0.2,12.3,0.4,18.5,0.6c0,13.3,0,26.6,0,39.9C1092.2,552.9,1086,552.3,1079.9,551.8
							C1079.9,551.8,1079.9,551.8,1079.9,551.8z"/>
					</g>
				</g>
			</g>
		</g>
		<g id="BD-Body">
			<path id="Sillowette" class="st4" d="M938.3,854.3c-1.7-1.9-2.1-4.4-2.1-7c0-6.7-1.7-13.2-4.3-19.3c-3.1-7.2-7.2-13.5-13.6-18.2
				c-5.2-3.8-7.2-9.9-9.1-15.9c-1.4-4.3-2.4-8.7-4.6-12.6c-7.7-13.6-18.8-23.7-32.3-31c-7-3.8-14.1-7.2-21.3-10.6
				c-3.3-1.6-5.8-3.8-7.4-7.3c-5.7-12.4-14.2-22.6-25-30.8c-3.7-2.8-7.6-5.2-11.5-7.7c2.5-2.4,5.5-2.5,8.4-2.5
				c4.9,0,9.9,0.7,14.8,0.2c8.3-0.9,12.1-8.7,7.9-15.9c-1.2-2.1-2.7-4.1-4.4-5.8c-11.8-11.4-25.7-16.6-42-14.4
				c-10.2,1.4-18.1,6.5-23.1,15.9c-1.7,3.3-1.7,3.3-5,1.8c-30-14.1-60.1-28.1-89.2-44c-0.8-0.4-1.4-0.9-1.9-1.6
				c-10.3-13.3-22.2-24.8-35.8-34.5c-27.9-20-58.6-29.4-93-23.7c-11.7,1.9-22.9,5.5-32.6,12.8c-0.6,0.5-1.2,0.4-1.8,0.3
				c-4.3-0.6-8.5,0.1-12.5,1.6c-9.6,3.5-16.7,9.9-21.5,19c-0.3,0.6-0.4,1.4-1.6,1.3c-4.2-0.6-8.5-0.5-12.7-0.2
				c-1.2,0.1-2.1-0.2-3-1.1c-8.4-8-18.5-10.5-29.8-8.9c-8,1.1-15.3,4.3-22.4,8c-5.7,2.9-11,6.5-15.1,11.5c-2,2.4-3.6,5-3.8,8.2
				c-0.4,5.5,3.3,9.5,9.7,10.7c2.7,0.5,5.4,0.3,8.3,0.6c-0.4,0.8-0.8,1.3-1.1,1.8c-2.6,4.5-4.7,9.2-5.4,14.3c-0.4,3-1.6,4.2-4.3,5.2
				c-8.1,3-13.7,8.6-15.7,17.4c-0.9,4.1-0.8,8.2-0.1,12.4c0.3,1.5-0.2,2.2-1.6,2.9c-8.9,4.1-13.5,12.3-12,22.1
				c0.4,2.8,0.6,5.4-0.6,8c-0.4,0.9-0.5,1.9-0.7,2.9c-0.8,5.6,1.2,10.2,4.7,14.4c1.8,2.2,1.8,2.1-0.4,4c-1.2,1-2.4,2.1-3.5,3.2
				c-9.3,9.5-10.1,24-1.8,34.1c1.3,1.6,1.4,2.6,0.2,4.1c-0.9,1.3-1.7,2.8-2.3,4.3c-8.6,19.5-9.9,39.7-4.9,60.3
				c1.9,7.9,5.5,15,12.8,19.5c0.9,0.6,0.4,1.2,0.3,1.9c-1.7,9.2-1.1,18.2,1.9,27c2.2,6.5,6.5,10.5,13.2,12
				c6.5,1.5,13.1,1.4,19.6,1.1c4.8-0.2,9.5-1.1,14-3.1c1.9-0.9,3.3-3.4,5.1-3.2c1.9,0.2,3.7,2,5.6,2.8c11.2,4.6,22.8,5,34.6,3.3
				c5.9-0.9,11.4-3.4,16.8-5.7c6.1-2.7,9.8-7.6,10-14.7c0.1-4.6-1.7-8.7-4.1-12.4c-7.7-11.9-18.1-20.6-31.2-25.8
				c-5.8-2.3-11.8-4.6-18.2-1.4c-0.2-3.2,0.1-6.3,1.2-9.2c1.1-2.9,3.2-4.4,6.3-4.6c3.6-0.2,7,0.5,10.4,1.6
				c9.9,3.1,19.4,7.4,29.3,10.7c12,4,24.1,7.2,36.7,8.4c13.6,1.2,27-0.1,40.3-2.8c8-1.6,15.9-3.8,23.7-6.4c0.1,0.3,0.2,0.4,0.2,0.4
				c-0.1,1.1-0.2,2.1-0.3,3.2c-0.5,8.5,2.1,15.6,9.5,20.4c4.8,3.2,10.2,3.9,15.8,3.7c4.9-0.2,9.7-1.9,14.9-0.3
				c5.5,1.7,10.8-0.8,15.4-4.2c0.7-0.5,1.2-1,2.2-0.5c2.1,1,4.4,1.2,6.6,1c1.4-0.1,2.1,0.1,1.8,1.8c-0.2,1.2-0.1,2.4,0,3.6
				c1,12.4,9.7,21.4,20.7,20.8c1.1-0.1,1.3,0.6,1.6,1.3c2.6,5.3,6.8,8.5,12.5,9.7c3.7,0.8,7.5,0.8,11.2,0.5
				c12.1-1,24.2-2.2,36.4-2.7c7.3-0.3,14.6-0.3,21.8,0.5c4.6,0.6,9,2.3,13.7,2.9c6,0.8,11.8,0.9,17.6-1c11.6-3.7,15.1-14.3,14-24.5
				c-0.9-8.2-5.5-14.1-12-18.5c-0.9-0.6-1.5-0.9-1.1-2.3c4.3-15.6,4.2-31.4,1.7-47.2c-0.5-2.8-1-5.6-1.5-8.9c5.8,4,11.2,7.6,16.8,11
				c9,5.4,18.5,9.1,29.2,9c8.4-0.1,16.7-0.8,24.9-2.1c0.7-0.1,1.5-0.6,2,0.4c2.3,4.4,4.6,8.8,6.9,13.4c-4.3,0.8-8.3,1.7-12.1,3.3
				c-0.7,0.3-1.2-0.1-1.8-0.2c-7.7-1.7-15.4-2.8-23.3-1.8c-8.9,1.1-15.1,6-16.8,14.2c-2.6,12.5-0.1,24.2,7.3,34.6
				c4.6,6.4,10.9,10.1,18.9,9.3c3.7-0.4,6.9-0.1,10.5,1c9.4,2.9,18.4,1,26.8-4.1c1.1-0.7,1.7-0.7,2.6,0.3c1.5,1.5,3.3,2.7,5.2,3.6
				c7.1,3.6,14.5,3.9,22.1,2.5c11.9-2.2,22.5-7,30.8-16.2C944.1,873.3,944.2,860.9,938.3,854.3z M684.7,834.3
				c-0.7,0.2-1.2,0-1.7-0.5c-0.3-0.4-0.6-0.8-0.9-1.2c-2.6-3.7-2.5-4.1,1.2-6.4c5.5-3.4,10.7-7.2,15.2-11.8c0.2-0.2,0.5-0.4,1-0.8
				c0.8,7.2,0.6,14.3,1.9,21.5C695.8,833.3,690.3,832.7,684.7,834.3z"/>
			<g id="Gray_Parts">
				<g id="Leg_and_Paw_Parts">
					<path id="Leg_and_Paw" class="st5" d="M432.7,856.5c0.1-0.1,0.2-0.2,0.3-0.3c4.1-5.9,6.4-6.8,13.3-5.1
						c9.6,2.3,17.6,7.7,24.7,14.4c4.3,4,8.1,8.4,10.6,13.8c3.1,7,0.4,13.2-6.8,15.6c-1,0.3-1.5,0.1-2.1-0.7
						c-5.5-8.6-12.3-16-19.9-22.7c-2.6-2.2-5.3-4.3-8.2-6c-0.7-0.4-1.5-0.8-2.3-1c-0.7-0.2-1.6-0.6-2.1,0.2c-0.6,0.9,0.2,1.5,0.7,2
						c2.4,2.3,4.8,4.7,7.2,6.9c7.2,6.7,13.5,14,18.5,22.5c0.8,1.3,0.8,1.9-0.8,2.2c-11.3,2.3-22.6,2.4-33.7-1.2
						c-4.5-1.5-8.2-3.9-11-7.9c-2.6-3.6-5.3-7.3-8.5-10.4c-0.5-0.5-1-1.4-1.7-1c-0.8,0.4-0.3,1.4-0.1,2.1c1.4,4.5,3.5,8.8,5.5,13
						c0.9,1.8,0.4,2.8-1.2,3.6c-2.9,1.5-6,2.2-9.1,2.6c-6.8,0.7-13.7,0.7-20.5-0.6c-4.4-0.9-7.5-3.4-8.9-7.9
						c-3.1-9.7-3.9-19.4,0.2-28.9c2.4-5.8,6.8-9.2,13.3-9.3c1.2,0,2.3-0.2,3.7-0.3c-5-4.1-12.6-3.9-17.7,0.5
						c-1.5,1.2-2.8,2.6-3.8,4.3c-0.7,1.2-1.2,1.2-2.2,0.4c-4-3.4-6.5-7.8-7.8-12.8c-5.5-20.9-4.2-41.2,5.4-60.7
						c1.3-2.7,1.4-2.7,4.2-1.5c4,1.7,8.2,2.2,12.4,2.3c1.4,0,2,0.3,2.3,1.7c4.9,18.9,22.9,32.2,40.2,33.8c2.8,0.3,5.6,0.1,8.5-0.3
						c0.7-0.1,1.2-0.2,1.7,0.4c1.4,1.8,3,3.4,4.5,5.2c-1.4,0.5-2.7,0.9-4,1.5c-3.8,1.9-5.8,5.3-6.9,9.3c-1.7,6.2-1,12.3,1,18.3
						C431.9,855.1,432,855.9,432.7,856.5z"/>
					<path id="Paw_Part" class="st5" d="M612.6,864c-5.5,0.8-10.7,0.8-15.4-2c-6.4-3.7-8-10.8-6.6-17.7c0.2-0.9,0.7-1,1.4-0.8
						c5,0.8,10.1,1.2,15.2,1.3c1,0,1.3,0.4,1.2,1.5C607.5,852.5,608.8,858.4,612.6,864z"/>
					<path id="Paw_Part_00000005254885933849666250000003107378698027715492_" class="st5" d="M845.2,843.1
						c-12.8,9.7-16.3,31.4-7.7,44.4c-3.7,0.5-6.9-0.7-9.6-3c-3.9-3.3-6.2-7.6-7.8-12.3c-2-5.8-3-11.7-2.2-17.9
						c0.9-6.8,4.1-10.4,10.8-11.7C834.1,841.6,839.5,842.1,845.2,843.1z"/>
					<path id="Paw_Part_00000147220389038550254280000011505495240346232962_" class="st5" d="M640.1,850.7c0.1-8.7,0.2-8.6,8-10.4
						c8.3-1.8,16.2-4.8,24-8.3c1.4-0.6,2.3-0.8,2.8,0.9c0.2,0.7,0.6,1.5,1.1,2.1c1.8,1.9,1.5,3.3-0.5,4.9c-2.1,1.7-3.3,4.1-4,6.7
						c-0.3,1-0.7,1.3-1.7,1.4c-7.3,0.9-12.8,4.6-16.5,11c-0.5,0.8-1,1.2-1.9,1.4c-1.8,0.4-3.7,0.4-5.5,0.2c-3.1-0.4-5-3-5.5-7
						C640.1,852.4,640.1,851.2,640.1,850.7z"/>
					<path id="Paw_Part_00000129177242370734486720000006181314005343418518_" class="st5" d="M614.5,849.3c0-4.5,0-4.4,4.3-4.7
						c4.6-0.3,9.3-0.7,13.9-1.3c1.7-0.2,1.6,0.4,1.4,1.5c-0.6,4.1-0.7,8.1,0.4,12.1c0.1,0.3,0.2,0.7,0.3,1c1.2,3.5,1.2,3.5-2.1,5.1
						c-8.5,4.3-16.9-0.8-18-10.9C614.6,851.1,614.6,850.1,614.5,849.3z"/>
				</g>
				<g id="Chest">
					<path id="Chest_Part" class="st5" d="M529.4,846.1c-11.6,0.2-22.8-2.1-33.9-5.1c-12.5-3.4-24.3-8.8-36.6-12.8
						c-5.9-1.9-10.5-5.3-14.8-9.5c-1.4-1.4-1-1.9,0.6-2.6c5.6-2.3,11.6-3.1,17.5-4c1.2-0.2,2.4-0.1,3.6-0.5c6.4-1.8,12.2,1,18.1,2.7
						c9.3,2.6,18.6,4.7,28.1,6.3c1,0.2,1.5,0.5,1.9,1.6c1.9,5.4,4.3,10.6,7.4,15.4C523.4,840.9,525.6,844.2,529.4,846.1z"/>
					<path id="Chest_Part_00000064354729281083990970000012564295147744032405_" class="st5" d="M532.2,846.3
						c7-4.8,7.8-12.6,10.2-19.7c9.7,5.6,19.9,9.7,31,13.1C559.6,843.6,546.2,845.8,532.2,846.3z"/>
				</g>
				<path id="Tail" class="st5" d="M821.3,684.9c-4-0.2-8-0.5-12,0.4c-3,0.6-5.6,1.9-7.6,4.3c-0.7,0.8-1.1,0.9-2.1,0.5
					c-8.4-4.1-16.8-8.1-25.3-12c-1.3-0.6-1.4-1.2-0.9-2.4c3.5-7.9,9.7-12.4,17.9-13.8c14.8-2.4,27.4,2.3,38.1,12.7
					c1.3,1.3,2.4,2.8,3.3,4.5c1.5,2.9,0.1,5.5-3.1,5.9c-1.4,0.2-2.8,0.2-4.2,0.2C823.9,685.1,822.6,685,821.3,684.9z"/>
				<path id="Body" class="st5" d="M932.7,857.6c-2.4-2.7-3-6.4-3.1-10c-0.1-7.6-2.3-14.6-5.8-21.3c-2.4-4.6-5.5-8.3-9.7-11.5
					c-6.1-4.6-8.9-11.5-11.2-18.6c-1.4-4.3-2.4-8.8-4.8-12.8c-6.4-11-15.4-19.4-26.1-25.8c-8-4.8-16.5-8.5-24.8-12.6
					c-4-2-7.3-4.6-9.2-8.8c-7.4-16.7-19.7-28.7-35.4-37.2c-14.1-7.7-28.8-14-43.2-20.9c-24.2-11.4-48.4-22.8-72.2-35
					c-1.7-0.8-3.3-1.7-5-2.6c-0.3,0.7,0,0.9,0.2,1.2c8.7,14.2,14.7,29.4,17.7,45.8c0.5,2.7,1.1,5.5,0.4,8.4
					c-1.1-0.5-1.2-1.4-1.5-2.2c-1.3-3.5-2.6-6.9-3.9-10.4c-11.3-31.5-28.9-58.6-54.9-79.7c-17.7-14.4-37.3-24.7-59.9-28.5
					c-15-2.5-29.8-2.1-44.5,1.9c-5.8,1.6-11.3,3.7-16.4,6.7c-0.4,0.2-2.2,0.5-0.6,1.6c3.7,2.5,7.4,5.1,11.1,7.5
					c3.5,2.3,7.3,3.3,11.5,2.9c3.8-0.4,7.6-0.4,11.4,0.2c6,1,9.2,5.6,8.1,11.6c-0.4,2.3-1.3,4.4-2.4,6.4c-0.3,0.6-1.2,1.1-0.7,1.8
					c0.7,0.9,1.4-0.1,2-0.4c4.6-2.3,9.1-5,14.1-6.2c4.5-1.1,6.5,0.8,5.6,5.4c-0.9,4.5-2.7,8.6-4.6,12.6c-0.6,1.2-0.5,2,0.5,2.9
					c12,11.2,22.1,24.1,30.7,38.2c0.6,0.9,1.2,1.2,2.2,1.1c3-0.3,6.1-0.6,9.1-0.6c3.7,0,7.5-0.2,11.1,1.1c2.2,0.8,2.9,2.7,1.6,4.8
					c-0.8,1.3-1.9,2.5-3,3.6c-2.8,2.6-5.8,5.1-8.9,7.3c-1.6,1.1-1.9,1.9-1,3.7c7.4,15.8,13,32.3,16.1,49.5c0.2,1.2,0.7,1.9,1.8,2.6
					c4.2,2.3,8.3,4.6,11.8,7.9c3,2.9,2.6,5.4-1.3,7c-3.2,1.3-6.6,2-10,2.6c-1.1,0.2-1.5,0.6-1.7,1.7c-2.1,16.1-9.7,29.2-21.7,39.8
					c-1.2,1.1-1.2,1.9-0.8,3.3c1.4,4.9,2.6,9.8,2.3,15c-0.2,4-2.2,5.5-6.1,4.4c-0.9-0.2-1.8-0.5-2.6-0.9c-4.7-1.9-9-4.5-13.2-7.3
					c-1-0.7-1.9-0.8-3.1-0.3c-6.5,2.7-13.3,4.7-20.2,6.3c-6.1,1.4-12.2,1.9-19,2.5c1,0.6,1.4,0.9,1.8,1.1
					c14.7,7.5,30.4,12,46.8,13.4c12,1,23.9,0.6,35.7-1.2c17.5-2.8,34-8.3,49-17.9c5.5-3.5,10.5-7.6,14.1-13.1c0.5-0.7,1-1.4,0.8-2.5
					c-0.8-4.1-1.8-8-3.4-11.9c-3.9-9.7-18-14.2-25.9-3.7c-0.6,0.8-1.3,1.5-1.9,2.3c-4.3,6.3-10.4,8.1-17.7,7
					c-5-0.8-8.6-3.8-11.3-7.9c-0.4-0.6-0.9-1.3-0.2-1.9c0.5-0.5,1.2,0,1.7,0.3c1.9,1.1,3.8,2.2,5.7,3.4c5.8,3.7,14,1.2,17.2-4.1
					c0.9-1.4,2-2.7,3.2-4c7.6-8.8,16.9-9.7,26.9-3.8c6.1,3.6,8.7,9.8,10.4,16.3c2.6,9.4,2.9,19.2,3.5,28.9c0.4,6.1,1,12.1,3.2,17.8
					c3.1,8,8.1,14.7,13.9,20.9c0.7,0.8,1.6,1.5,2.2,2.9c-0.7-0.3-1-0.4-1.3-0.6c-8.4-4.7-14.8-11.4-19.2-20
					c-0.4-0.8-0.8-1.5-1.6-1.9c-4.7-2.4-9.6-3.9-14.9-3.1c-4.4,0.6-8.2,2.5-10.7,6.6c-0.6,1-0.6,1.3,0.7,1.7
					c4.1,1.2,7.6,3.5,10.8,6.3c0.9,0.8,1.9,1.5,2,2.9c-0.7,0.4-1.4,0.2-2.1-0.1c-1.7-0.6-3.3-1.2-5-1.7c-5.4-1.7-11-2.3-16.5-0.8
					c-5.9,1.6-9.6,5.7-11,11.7c-1.5,6.4,0.1,12.2,4.7,17c1.8,1.8,4,2.8,6.5,3.3c1.2,0.2,2,0.1,1.8-1.6c-0.1-1.6,0.1-3.3,0.2-4.9
					c1.1-12.3,12.2-16.7,21.9-12.8c1.1,0.5,2.3,0.9,3.4,2.3c-1.6-0.2-2.9-0.4-4.1-0.4c-5.5-0.1-10.8,0.4-13.5,6.2
					c-3.1,6.6-2,12.8,1.9,18.6c1.5,2.2,3.9,3.2,6.5,3.7c3.8,0.8,7.6,0.5,11.4,0.2c12.6-1.1,25.2-2.3,37.9-2.7
					c9.6-0.2,19.2-0.1,28.6,2.7c5.2,1.5,10.5,1.9,16,1.2c6.8-1,11.3-4.7,12.7-10.8c1.9-8.4-0.6-15.2-7.3-20.5
					c-1.2-0.9-1.6-0.9-2.5,0.4c-2.8,4.5-6.4,8.3-10.7,11.5c-0.7,0.5-1.6,1.5-2.4,0.8c-0.9-0.8,0-1.7,0.5-2.5
					c0.8-1.5,1.8-2.9,2.7-4.4c5.3-8.3,8.4-17.4,9.7-27.2c2.1-15.3,0.5-30.4-3.2-45.3c-5.6-22.6-15.4-43.2-28.5-62.3
					c-0.7-1-1.5-2-1.6-3.5c1.2,0.2,1.9,0.8,2.6,1.4c3.4,2.8,6.1,6.2,8.7,9.6c10.1,13.5,17.3,28.6,22.5,44.7c0.4,1.1,0.7,2.1,1.7,2.8
					c6.7,4.9,13.4,9.6,20.5,13.8c5.4,3.2,10.8,6.3,16.9,7.7c6.8,1.5,13.6,1.1,20.5,0.7c5.9-0.4,11.7-1.2,17.4-2.4
					c1.7-0.3,2.6,0.2,3.5,1.8c3.7,7.4,7.6,14.7,11.4,22c1.6,3,1.5,3-1.8,3.1c-6.5,0.1-12.7,1.5-18.6,4.3
					c-12.3,6-16.4,17.3-15.1,29.6c0.6,5.9,2.9,10.9,8.5,13.4c8.5,3.8,16.7,2.1,24.5-2.4c0.9-0.5,0.7-1.2,0.3-2
					c-1.2-2.4-1.9-5.1-2.4-7.7c-2.3-12.6,2.8-21.8,14.3-25.8c2.5-0.9,5-1.5,7.7-1.4c0.5,0,1.1,0.1,1.2,0.6c0.1,0.6-0.5,0.8-0.9,1
					c-1.3,0.6-2.6,1.1-3.9,1.7c-7.1,3.6-11.8,8.9-12.4,17.3c-0.8,10.6,5.2,19.6,14.7,21.7c3.9,0.9,7.8,1.1,11.8,0.6
					c10.8-1.6,20.3-5.7,28.2-13.5C936.6,872.4,937.7,863.3,932.7,857.6z"/>
				<g id="Head">
					<path id="Chin" class="st5" d="M447.5,761.8c-12,1.6-24.2,1.4-35.4,7.5c-5.8,3.2-11.8,6.1-18.4,7.6c-5.5,1.3-11,1.5-16.6,0.3
						c-11.2-2.4-16.4-14-13-24.3c4.1-12.6,17.2-18.7,30-14c3.9,1.4,3.9,1.4,1,4.4c-6,5.9-8.7,11.8-9.6,21.5c1.2-1.5,1.8-3.1,2.6-4.7
						c2.1-4,4.2-8,6.9-11.5c3.9-5.1,9.1-7.7,15.5-8c7.6-0.3,14.8,1.6,21.8,4.5c9.9,4.1,19.7,8.3,29.8,11.6c10.9,3.4,22,4.5,33.2,1.6
						c2.6-0.7,5-1.9,7.5-3.1c0.3,6,0.8,11.7,2.1,17.3c1.9,8.3,5,16.1,9.9,23c1.3,1.8,0.8,2.2-0.9,2.9c-5.5,2.2-11.3,3-17.2,3.6
						c-11.7,1.3-23.4,2.2-35,3.5c-7.7,0.9-15.3,2.3-22.5,5.8c-7.1,3.5-14.5,2.6-21.6-0.2c-12-4.7-20.5-12.9-24.8-25.4
						c-0.6-1.7-0.4-2.3,1.5-2.7c3-0.5,5.9-1.4,8.7-2.7c1.4-0.7,2.2-0.4,3.4,0.5c6.4,5.1,13.4,8.4,22.3,7.9c-3.2-1.8-6.2-3.2-8.9-5.1
						c-2.8-1.9-5.6-3.9-8.1-6.3c-1.1-1.1-1.4-1.6,0.2-2.6c7.2-5,15.2-7.8,23.8-8.9c2.9-0.4,5.9-0.9,8.6-2.2
						C445.6,763.4,446.7,762.8,447.5,761.8C447.5,761.8,447.5,761.8,447.5,761.8z"/>
					<path id="Cheek" class="st5" d="M538.9,708.6c-2-5.4-5.6-9.4-8.8-13.7c1.4-0.3,2.2,0.5,3,1c13.9,8.5,27.2,17.7,37.6,30.7
						c6.2,7.7,10.6,16.3,11.7,26.4c1.7,15.3-4,26.4-17.5,33.5c-12.7,6.7-26.5,9.1-40.8,9.1c-1.3,0-1.8-0.9-2.5-1.7
						c-6.1-8-9.7-17.2-11.4-27.1c-1.4-8.3-1.2-16.6-0.3-25c1.3-12.1,0.9-24.1-3.3-35.8c-2.6-7.2-6.8-13-13.9-16.2
						c-7.4-3.3-15.2-1.7-20.7,4.4c-0.6,0.6-1.2,1.2-1.6,2c-3.6,7.3-9.8,9.1-17.2,8.7c-3.5-0.2-7.1-0.1-10.6,0.1
						c-5.7,0.3-10.1,2.8-13.3,7.6c-1.2,1.8-2.6,3.4-3.7,5.2c-5,8.2-14.9,6.7-19.9,0c-4.8-6.6-4.5-16,0.9-22.9
						c3.8-4.8,8.6-7.9,14.7-8.9c3.5-0.6,6.9,0.4,10.2,1.3c3.1,0.8,6.1,1.8,9.3,2.2c4.8,0.5,9.1-0.4,12.5-4.2c3.2-3.6,6.4-7,9.5-10.7
						c8.3-10.1,20.8-13.9,33.9-4.8c9.2,6.3,17.1,14.1,24.8,22.1c4.9,5.1,9.8,10.2,14.6,15.2C537,707.6,537.6,708.3,538.9,708.6z"/>
					<path id="Upper_Lip" class="st5" d="M383.2,716.8c-1.4,0-3.6-0.4-5.8-1.3c-4.4-1.7-6.7-4.7-6.6-9.6c0.1-5.6,2.4-9.9,7.1-12.8
						c0.7-0.4,1.1-0.7,1.6,0.3c3.7,7.9,10.3,12.2,18.3,14.7c1,0.3,1.3,2.5,0.4,3.6c-0.7,0.8-1.6,1.4-2.5,2
						C392.1,715.8,388.3,716.9,383.2,716.8z"/>
					<path id="Eye_Lid" class="st5" d="M462.1,650.1c3.6-3.9,6.9-7.5,11.4-9.5c3.4-1.5,6.9-1.4,10.3-0.2c2.1,0.7,3.2,2.5,4,4.5
						c2,5,1.4,9.8-0.9,14.5c-0.4,0.9-1.1,1-2,1.1c-2.5,0.2-4.1-0.4-5.4-3c-2-4-5.6-6.3-10-7.2C467.2,649.8,464.9,650.1,462.1,650.1z
						"/>
					<path id="Forehead" class="st5" d="M452.3,611.8c-4.1,3.5-7.2,7.1-9.4,11.4c-0.4,0.8-0.7,1.7-1.3,2.9c1.5-0.6,2-1.5,2.6-2.3
						c6.9-7.9,15.6-12,25.9-12.9c1.5-0.1,2.1,0.3,1.9,1.8c-0.1,0.7,0,1.4,0.1,2.1c0.4,1.5,0.8,3,1.3,4.7c1-1.4,1.1-2.9,1.5-4.3
						c3.6-11.7,11-20,22-24.9c7.5-3.4,14.8-2.2,21.5,2.4c3,2,5.9,4.2,9,6.1c4.3,2.7,9.1,3.8,14.2,3.3c3.3-0.3,6.6-0.5,9.9,0.1
						c3,0.5,3.8,1.9,3,4.9c-1.4,5-4.8,8.4-9.2,10.6c-7.1,3.7-14.5,4.2-22.1,1.4c-5.1-1.8-10.4-2-15.6-0.6c-0.9,0.2-1.8,0.5-2.4,1.6
						c1.3,0.6,2.8,0.5,4.1,0.5c4.5,0.1,8.3,2.2,12.1,4.2c0.6,0.3,0.7,0.8,0.7,1.4c-0.3,10.6,5.4,18.2,12.2,25.2
						c5,5.2,11,9.1,16.5,13.8c9.2,7.7,14.6,17.6,16.7,29.5c0.2,1.3,0.7,2.4,1.5,3.5c6.2,8.2,9.2,17.6,10.5,27.7c0,0.3,0,0.6-0.1,1.4
						c-4.6-6.6-9.7-12.1-15.4-17.2c-10.2-9.1-21.5-16.5-33.3-23.2c-3.9-2.2-7.7-4.6-11.8-6.2c-3.4-1.4-5.9-3.8-8.6-6.2
						c-3.1-2.7-6.2-5.2-9.6-7.5c-3.3-2.3-6.9-4.2-10.7-5.6c3.3-4.9,4-10.1,2.6-15.6c-1.9-8.1-7.3-11.3-15.7-10.6
						c-7,0.6-11.8,5.2-16.3,10c-5.9,6.3-10.4,13.7-16.1,20.2c-5.1,5.9-10.6,11.3-17.4,15.2c-2.2,1.3-4.7,0.5-7,1.1
						c-0.7,0.2-1.1-0.8-1.4-1.4c-4.7-7.3-5.1-16.7,2.6-24.7c3.4-3.5,7.3-6.5,10.3-10.5c2-2.7,3.9-5.4,4.6-8.8
						c-4.1,7-10.8,11.4-16.6,16.7c-2.5,2.3-4.8,4.7-6.5,7.6c-3.2,5.5-3.1,11.1-0.8,17.2c-9.5-3.1-18.8-3.6-28.2,0.7
						c-0.3-6.4,1.7-11.6,6.6-15.5c0.9-0.7,2-1.4,3-2c3.1-1.7,5.3-1.4,7.8,1.2c0.8,0.8,1.5,1.7,2.4,2.8c0.4-1.7,0.2-3.2,0.1-4.6
						c-1.2-11.8,2.9-21.6,10.6-30.1c8.2-9.1,18.8-14,30.2-17.3C447.1,612.6,449.3,611.8,452.3,611.8z"/>
					<path id="Ear" class="st5" d="M450.7,605c-4.7,1.2-9,2.2-13.2,3.8c-9.7,3.6-18.6,8.4-26,15.7c-0.5,0.5-0.9,0.9-1.6,1
						c-4.4,0.7-8.9,1.1-13.3,0.1c-3.8-0.9-4.6-3.1-2.5-6.5c2-3.2,4.8-5.6,7.9-7.7c8.4-5.5,17.3-9.7,27.2-11.2
						C436.8,599,444,600.2,450.7,605z"/>
				</g>
			</g>
			<g id="White_Parts">
				<g id="Spikes">
					<path id="Spike_00000041292950597516356200000002455401688892479400_" class="st3" d="M539.4,815.3c-0.3,7.5-1.9,14.7-4.9,21.6
						c-0.3,0.7-0.6,1.3-1,1.9c-2.1,3.6-3.2,3.7-5.8,0.4c-5.1-6.6-8.7-14-10.9-22.1c-1.1-3.8,0.1-6.7,3.5-8.8
						c4.7-2.9,9.8-3.5,15.1-1.9c2.6,0.8,3.8,2.5,3.8,5.3C539.2,812.9,539.3,814.1,539.4,815.3z"/>
					<path id="Spike_00000064318660959273555340000011029414718169988529_" class="st3" d="M609.8,817.1c0.1,2.5-0.2,2.8-2.4,1.7
						c-8-3.9-15.6-8.6-22.2-14.7c-2.8-2.6-3-4.7-1.1-7.9c2.3-3.8,5.4-6.5,9.4-8.3c3.8-1.7,5.1-1.3,7.5,2.1c2.5,3.6,4.2,7.6,5.5,11.7
						C608.2,806.7,609.5,811.8,609.8,817.1z"/>
					<path id="Spike_00000111175258037863882070000006061723647397937026_" class="st3" d="M643.9,752.3c-3.1,1.4-6.4,1.9-9.6,2.4
						c-8.2,1.3-16.4,2.3-24.7,2c-3.3-0.1-5-1.3-6-4.4c-1.3-4.2-1.2-8.5,0.4-12.6c1.3-3.3,2.6-4,6-3.5c4.9,0.8,9.5,2.5,14.1,4.5
						c6.3,2.8,12.4,5.8,18,9.9C642.8,751,643.5,751.4,643.9,752.3z"/>
					<path id="Spike" class="st3" d="M625.9,673.5c-1.9,2.2-3.8,3.8-5.8,5.3c-6.6,5.2-13.4,10.1-20.8,14c-3.9,2-6,1.6-9-1.7
						c-2.2-2.4-3.5-5.3-3.9-8.6c-0.3-2,0.3-3.5,2.4-4.5c5.3-2.4,10.9-3.3,16.6-4C612.1,673.2,618.7,672.9,625.9,673.5z"/>
					<path id="Spike_00000098943791795790263770000007251386862308892862_" class="st3" d="M575.8,613.2c-1.7,7.1-4.7,13.1-8,19
						c-2.2,3.8-4.6,7.4-7.7,10.4c-2.3,2.3-4.9,2.6-7.7,1.2c-3.7-1.7-6.3-4.4-8-8.1c-1-2.2-0.7-4.1,1.1-5.8c2.9-2.8,6.3-4.7,9.8-6.7
						c5.9-3.4,11.9-6.9,18.3-9.3C574.1,613.7,574.7,613.5,575.8,613.2z"/>
				</g>
				<g id="Teeth">
					<path id="Lower_Big_Teeth" class="st3" d="M504.2,712.2c2.3,9.8,2.5,19.3,1.7,28.9c-0.6,8.1-4.4,11.2-12.3,13.3
						c-8.7,2.3-17.4,1.6-26-0.6c-10.9-2.7-21-7.5-31.4-11.6c-5.1-2-10.1-4-15.5-4.9c-0.7-0.1-4.2-0.4-4.2-0.4c2.2-0.4,4.3-5,5.6-7.3
						c1.7-3.2,2.8-2.5,4.1-1c2.1,2.3,3,4,4.9,6.2c3.1,3.7,5.3,4.3,9.2-1.8c1.9-2.9,3.6-6,5.3-8.6c1.1-1.5,2.5-0.8,3.9,0.7
						c2.4,2.4,4.5,5.2,7.2,7.2c3.5,2.5,5.5,2.2,7.8-1.5c2.2-3.4,4.7-7.4,6.7-10.9c0.1-0.2,0.2-0.4,0.3-0.6c1.8-2.7,2.4-2.1,3.9-0.5
						c3.5,3.6,4.6,5.1,7.1,7.8c6.7,7.3,6.7,6,11.9-1.4c3.6-5.4,5-7.3,8.7-11.8C503.4,713.1,503.7,712.8,504.2,712.2z"/>
					<path id="Upper_Big_Teeth" class="st3" d="M452.1,709c2.5,0,5.1,0.2,7.6,0c5.6-0.4,9.9-3.2,12.9-7.9c1.4-2.2,2.9-4.2,4.9-5.8
						c6.9-5.3,15.1-2.2,20,3.4c2.2,2.5,3.6,5.6,4.9,8.7c0.4,0.8,0.3,1.4-0.3,2.1c-3.9,4.7-7,9-11.4,14.8c-1.5,2-2,3.7-3.6,2.5
						c-3.5-3.1-6.6-6.7-9.7-10.5c-3.5-4.1-5.6-3.3-7.8-0.5c-2.1,3.8-4.7,7.6-7,11.7c-2,3.9-2,3.8-5.4,1.2c-2.2-1.8-4.5-4.6-6.5-6.6
						c-4.2-4.1-5-3.4-7.6,0.1c-2.1,3-4.2,7-6.4,10.1c-1,1.3-1.9,2.1-2.9,1.4c-2.4-2.8-3.2-3.8-5.6-6.8c-0.8-1-1.3-1.6-2.9-2.6
						c0.7-0.3,3.7-2.6,6.7-7.7c3.1-5.2,7.5-7.5,13.4-7.3c2.2,0.1,4.4,0,6.6,0C452.1,709.1,452.1,709,452.1,709z"/>
					<path id="Small_Tooth" class="st3" d="M370.8,716.5c3.7,2.8,7.8,4.5,12.7,4.6c-2.3,0.5-4.7,6.4-6.4,9.5
						c-1.7,2.8-2.2,2.1-3.9,0.5C369.5,727.2,368.6,721.5,370.8,716.5z"/>
					<path id="Small_Tooth_00000176745456225691667590000008746361511290254734_" class="st3" d="M395.2,734.6
						c2.8-0.6,3.8-4.5,6.3-7.6c2-2.6,3.4-1.7,4.7,0.7c1.5,2.8,3.7,7.9,5.7,8.8c-1-0.1-0.6-0.1-3.1,0c-2,0.1-3.9,0.6-5.7,1.4
						c-0.6,0.3-1.1,0.1-1.6-0.2C399.8,736.6,397.4,735.5,395.2,734.6z"/>
					<path id="Small_Tooth_00000010275980468834045570000004816705062781485477_" class="st3" d="M386,721.1
						c5.4-0.5,10-2.2,14.1-5.2c0.1,0.1,0.2,0.1,0.2,0.1c1,1.7,2.5,4.4,3.8,6c-1.2,0.1-2.7,1.4-4,2.8c-1.2,1.4-2.6,4-3.8,5.7
						c-1.1,1.9-2.3,2.5-4.2-0.9C389.3,724.8,387.5,721.6,386,721.1z"/>
					<path id="Small_Tooth_00000161626082163409758430000011821844150332903344_" class="st3" d="M407.4,724.4
						c5.3,3.6,11.1,2.7,13.8,1.8c-0.8,0.5-2.8,4.3-4.1,6.5c-0.6,0.9-1.9,2.1-2.8,2.1c-1,0-1.8-1.5-2.5-2.6
						C410.2,729.6,408.5,725.5,407.4,724.4z"/>
					<path id="Small_Tooth_00000131366063733043193380000002377201516829066120_" class="st3" d="M391.7,733.5
						c-3.8-0.9-8.9-1.9-13-0.6c0.9-0.5,3.9-9,5.5-9.3C386.4,722.5,390.7,733,391.7,733.5z"/>
				</g>
				<g id="Eye">
					<path id="Eye_White" class="st3" d="M465.4,654.2c4.8,0,8.2,1.8,10.6,5.5c0.4,0.6,0.9,1.3-0.3,1.6c-7.9,2-13.4,7.3-18.2,13.5
						c-1.9,2.5-3.1,3.8-5,5.7c1.7-5.1-5.4-8.5-8.1-8.2c1.2-1.2,2.6-2.7,5-5.7c2-2.4,4-4.9,5.7-7.4c1.8-3,4.6-4.1,7.7-4.7
						C463.7,654.3,464.7,654.3,465.4,654.2z"/>
					<path id="Eye_White_Small" class="st3" d="M439.2,680.5c1.5,0,2.6,0.7,2.9,2.3c0.3,1.5-0.5,2.3-2,2c-0.6-0.1-1.1-0.2-1.6-0.4
						c-0.9-0.3-2.2-0.3-2-1.9C436.6,681.2,437.5,680.5,439.2,680.5z"/>
				</g>
			</g>
			<path id="Collar" class="st6" d="M542.7,626.1c-4,3.8-4.1,8-1.8,12.4c2.2,4.4,5.7,7.6,10.2,9.5c4.3,1.7,8.3,1.1,11.7-2.3
				c1.4-1.4,2.7-2.9,3.9-4.5c1.2-1.6,2.4-3.2,3.3-5c0.8-1.4,1.3-1.5,2.4-0.4c9.6,9.5,18.3,19.8,25.5,31.3c0.6,1,2,1.9,1.6,3.1
				c-0.4,1-2,0.7-3,0.9c-3.2,0.8-6.4,1.7-9.5,2.9c-3.6,1.5-5.5,4.8-4.9,8.7c0.5,3.6,1.8,6.9,4,9.8c3.7,4.8,8.7,8,16,3.4
				c2.4-1.5,4.9-2.9,7.2-4.4c1.2-0.8,1.8-0.8,2.5,0.7c5.6,12.6,10.3,25.4,13.4,38.9c0.3,1.4,0.8,2.7,1.1,4.1c0.2,1,0,1.6-1.3,1.1
				c-4.1-1.6-8.3-3-12.5-4.1c-7.4-2-11.4,0.9-13.2,8.2c-1.2,5-1.2,9.9,1,14.6c1.7,3.7,4.6,5.7,8.7,5.7c5.2,0.1,10.3,0.1,15.4-0.7
				c0.6-0.1,1.3-0.1,1.9-0.1c1.2-0.1,1.4,0.5,1.2,1.6c-1.8,9.6-5.6,18.2-11.8,25.7c-1.8,2.2-3.8,4.2-5.9,6.2
				c-1.3,1.2-1.9,0.9-2.5-0.6c-1.1-2.4-2.4-4.7-4.1-6.7c-3.2-3.8-5.7-4.6-10.3-2.9c-5.5,2-9.9,5.6-12.7,10.7
				c-3.1,5.5-2.5,9,2.5,13.6c1.4,1.3,1.4,1.7-0.5,2.4c-8.9,3.3-18.1,5.4-27.6,6.3c-3.1,0.3-6.2,0.3-9.3,0.4c-1.3,0-2-0.2-1.9-1.7
				c0.1-1.5-0.1-3-0.3-4.5c-0.8-5-1.8-6.1-7.9-8.8c2.6-0.5,4.9-0.9,7.1-1.3c12.1-2,23.5-5.8,33.3-13.6c7.7-6.2,12.1-14.2,12.9-24.1
				c0.6-7.2,0.4-14.4-2.4-21.3c-0.4-1-0.3-2.1-0.3-3.2c0.7-14.9-2.2-28.8-10.5-41.3c-1.3-1.9-2-4-2.5-6.2
				c-3-14.3-10.9-25.2-22.5-33.7c-7.3-5.3-14.2-11-19-18.9c-1.7-2.9-3.1-5.9-3.2-9.4c0-0.6-0.1-1.4,0.9-1.4
				C533.8,627.6,538.2,627.4,542.7,626.1z M511,814c1,0.2,1.2-0.3,1.3-1.1c0.7-3.5,2.7-6.1,5.6-8.1c1.8-1.2,3.9-1.6,5.7-2.7
				c-2-0.7-3.5,0-5.1,1c-2.1,1.4-4.5,2.4-6.9,3c-6.6,1.6-13.4,2.5-20.2,3.4C497.9,811.4,504.5,812.5,511,814z"/>
			<path id="Nose_Tip" class="st7" d="M399.5,701.8c0,0-14.3-1.1-15.3-16.6c-0.1-1.5,14.6-9.9,29.5-0.7
				C400.8,691.4,399.5,701.8,399.5,701.8z"/>
		</g>
		<g id="BULLDOG">
			<g id="BULLDOG-Dark">
				<path id="S_00000004546339839368448630000007185927902318700204_" class="st8" d="M937.3,252.3c2.6-11.2,5.3-22.3,7.7-32.1
					c6.8-24.4,22-37.9,33.7-38.1c5.6,0,65.2,0,65.2,0l-10.2,50.5H997l2.9-12.4H981l-6.1,25.5h27.3c20.5,0.8,25.2,12.6,20.5,33.2
					c0,0-5.5,22.7-7.1,30.1c-5.8,23.8-18.5,35-33.2,34.8c-21.1,0.3-31.1,0-41.6,0c-10,0-15.9,0-23.2,0.2c1.7-6.8,9.9-43.6,11.7-51
					l34.4,0.2l-3.8,16.1h20.8l6.8-28.9c0,0-21.8,0.5-27.3,0.5C937.3,280.4,934.9,262.8,937.3,252.3z"/>
				<path id="G_00000103238432996447080360000018154697045117432737_" class="st8" d="M906.1,343.7c-24.4,0.3-56,0-65.7,0
					c-10.3,0-23.5-4.9-16.7-35c7-27.9,14.6-62.2,21.2-88.6c6.7-27.8,20.2-37.4,29.1-38.4c11.7-0.5,52.2,0.5,71.3,0.5
					c-9.1,36.2-12.4,47.6-12.4,47.6l-35.8-0.5l2.4-9.2h-18.8l-21.2,89h19.3l6.8-29.9h-9.4l8.6-34.4l44.8,0.8L906.1,343.7z"/>
				<path id="O_00000088134212774854240650000013587612055927786681_" class="st8" d="M818.1,182c-19.1,0-40.4,0.5-45.8,0.5
					c-11.7,0.2-21.8,6.8-29,37.6c-6.7,26.2-14.3,60.9-21.2,88.7c-7.4,29.5,7.3,34.7,16.7,34.8c10.5,0.2,20.5,0.3,41.6,0
					c14.7,0.2,27.5-11.2,33.2-34.8c6.5-28.2,14.9-63.1,21.4-88.7C839.9,200.5,832.5,182,818.1,182z M777,309.1h-19.3l21.2-89h18.8
					L777,309.1z"/>
				<path id="D_00000006702405924172587300000017815303812820839838_" class="st8" d="M716.6,182.5c-19.3,0-69.8,0-75.7,0l-9,37.6
					h7.7l-21.2,89h-8.3l-7.1,34.5c0,0,54.2,0.3,75.4,0c14.9,0.2,27.6-9.8,33.4-33.8c6.7-28.4,15.5-63.8,21.5-89.8
					C737.8,201.2,731,182.5,716.6,182.5z M672.4,309.1h-19.3l21.2-89h18.8L672.4,309.1z"/>
				<path id="L_00000056386102673885029660000007111918231088763037_" class="st8" d="M536.2,182.5c5.9,0,55.2,0,55.2,0l-9.3,37.6
					h-9.1l-19.7,89h13.8l5.3-26.9l33.8-0.3l-13.2,61.7h-93l7.1-34.5h9.9l19.7-89h-9.3L536.2,182.5z"/>
				<path id="L_00000034054033382589050580000004397263983453981603_" class="st8" d="M436.4,182.5c5.9,0,52.2,0,52.2,0l-7.7,37.6
					h-9.3l-19.7,89h13.8l5.3-26.9l32.3-0.3l-13.2,61.7h-93l8.6-34.5h9.9l21.2-89h-9.4L436.4,182.5z"/>
				<path id="U_00000057116293265474259200000017225705484017856917_" class="st8" d="M316.4,182.5l-10.2,37.6h10
					c0,0-17.1,68.9-22.3,94.7c-2.4,11.8,0.5,29,13.4,29c13,0,39,0,51.9,0c21.5,0,27.6-27.6,27.6-27.6l23.2-95.9h8.2l8.6-37.6h-45.4
					l-29.9,126.6H333l29.7-126.8H316.4L316.4,182.5z"/>
				<path id="B_00000025430119880610519190000016050450327695027076_" class="st8" d="M280.5,182.3c-27.5,0.3-78.3,0-78.3,0
					l-8.8,37.8h10l-21.1,89h-10.2l-9,33.9c0,0,57.5,0.9,78.4,0.6c20.2,0.2,28.1-13.7,31.3-24.9c1.1-4.9,8-33.6,9.3-38.4
					c3.2-10.6,0.6-18.1-12.6-20.4c13.5,0.2,17.8-2.1,20.3-11.8c2.1-7.4,5.3-19.5,7.3-28.1C301.8,201.7,303.2,183.4,280.5,182.3z
					 M238.5,309.1H220l6.7-29.6l18.5-0.3L238.5,309.1z M252.6,248.5H234l6.8-28.4h18.8L252.6,248.5z"/>
			</g>
			<g id="BULLDOG-Light">
				<path id="S" class="st9" d="M928.5,243.9c2.6-11.2,5.3-22.3,7.7-32.1c6.8-24.4,22-37.9,33.7-38.1c5.6,0,65.2,0,65.2,0
					l-10.2,50.5h-36.9l2.9-12.4h-19l-6.1,25.5h27.3c20.5,0.8,25.2,12.6,20.5,33.2c0,0-5.5,22.7-7.1,30.1
					c-5.8,23.8-18.5,35-33.2,34.8c-21.1,0.3-31.1,0-41.6,0c-10,0-18.3,0-25.6,0.2c1.7-6.8,10.4-43.6,12.2-51l36.3,0.2l-3.8,16.1
					h20.8l6.8-28.9c0,0-21.8,0.5-27.3,0.5C928.5,272.1,926.1,254.3,928.5,243.9z"/>
				<path id="G" class="st9" d="M897.3,335.4c-24.4,0.3-56,0-65.7,0c-10.3,0-23.5-4.9-16.7-35c7-27.9,14.6-62.2,21.2-88.6
					c6.7-27.8,20.2-37.4,29.1-38.4c11.7-0.5,52.2,0.5,71.3,0.5c-9.1,36.2-12.4,47.6-12.4,47.6l-35.7-0.5l2.4-9.2h-18.8l-21.2,89
					h19.3l6.8-29.9h-9.4l8.6-34.4l44.6,0.6L897.3,335.4z"/>
				<path id="O" class="st9" d="M809.3,173.8c-19.1,0-40.4,0.5-45.8,0.5c-11.7,0.2-21.8,6.8-29,37.6c-6.7,26.2-14.3,60.9-21.2,88.7
					c-7.4,29.5,7.3,34.7,16.7,34.8c10.5,0.2,20.5,0.3,41.6,0c14.7,0.2,27.5-11.2,33.2-34.8c6.5-28.2,14.9-63.1,21.4-88.7
					C831.1,192,823.7,173.8,809.3,173.8z M768.2,300.8h-19.3l21.2-89H789L768.2,300.8z"/>
				<path id="D" class="st9" d="M707.8,174.2c-19.3,0-69.8,0-75.7,0l-9,37.6h7.7l-21.2,89h-8.3l-7.4,34.7c0,0,54.4,0.1,75.7-0.2
					c14.9,0.2,27.6-9.8,33.4-33.8c6.7-28.4,15.6-63.8,21.7-89.8C729,192.9,722.2,174.2,707.8,174.2z M663.6,300.8h-19.3l21.2-89
					h18.8L663.6,300.8z"/>
				<path id="L" class="st9" d="M527.4,174.2c5.9,0,55.2,0,55.2,0l-9.3,37.6h-9.1l-19.7,89h13.8l5.3-26.9l33.8-0.3l-13.2,61.7h-93.4
					l7.3-34.5h10.1l19.7-89h-9.3L527.4,174.2z"/>
				<path id="L_00000005961750670012436270000000948459104063206293_" class="st9" d="M427.4,174.2c5.9,0,52.2,0,52.2,0l-7.7,37.6
					h-9.3l-19.9,89h13.8l5.3-26.9l32.3-0.3L481,335.4h-93l8.6-34.5h9.9l21.2-89h-9.3L427.4,174.2z"/>
				<path id="U" class="st9" d="M307.4,174.2l-10,37.6h10c0,0-17.1,68.9-22.3,94.7c-2.4,11.8,0.5,29,13.4,29c13,0,39,0,51.9,0
					c21.5,0,27.6-27.6,27.6-27.6l22.9-96.1h8.2l8.6-37.6h-45.4l-30,126.6h-18.5l29.6-126.6H307.4z"/>
				<path id="B" class="st9" d="M271.7,174.1c-27.5,0.3-78.3,0-78.3,0l-8.8,37.8h10l-21.1,89h-10.2l-9,33.9c0,0,57.5,0.9,78.4,0.6
					c20.2,0.2,28.1-13.7,31.3-24.9c1.1-4.9,8-33.6,9.3-38.4c3.2-10.6,0.6-18.1-12.6-20.4c13.5,0.2,17.8-2.1,20.3-11.8
					c2.1-7.4,5.3-19.5,7.3-28.1C293,193.2,294.4,175.1,271.7,174.1z M229.7,300.8h-18.5l6.7-29.6l18.5-0.3L229.7,300.8z
					 M243.8,240.2h-18.7l6.8-28.4h18.8L243.8,240.2z"/>
			</g>
		</g>
		<g id="SOUTHERN-ILLINOIS">
			<g id="SOUTHERN-ILLINOIS-Light">
				<g id="S_00000061456737613292783060000007631627802091585956_">
					<polygon class="st2" points="38,120.6 24.2,106.8 24.2,95.6 40.2,95.6 40.2,104.6 60.2,104.6 60.2,84.6 38,84.6 24.2,70.8 
						24.2,46.4 38,32.6 62.4,32.6 76.3,46.4 76.3,57.6 60.2,57.6 60.2,48.6 40.2,48.6 40.2,68.6 62.2,68.6 76.3,82.4 76.3,106.8 
						62.4,120.6 					"/>
					<path class="st10" d="M62,33.6l13.3,13.2v9.8h-14v-7v-2h-2h-18h-2v2v18v2h2h20.6l13.5,13.2v23.5L62,119.6H38.4l-13.3-13.2v-9.8
						h14v7v2h2h18h2v-2v-18v-2h-2H38.4L25.2,70.4V46.8l13.3-13.2H62 M62.8,31.6H37.6L23.2,46v25.2l14.4,14.4h21.6v18h-18v-9h-18
						v12.6l14.4,14.4h25.2l14.4-14.4V82L62.6,67.6H41.2v-18h18v9h18V46L62.8,31.6L62.8,31.6z"/>
				</g>
				<g id="O_00000082348348457478873330000001152206705593646482_">
					<path class="st2" d="M101.7,120.6l-13.8-13.8V46.4l13.8-13.8h24.4l13.8,13.8v60.4l-13.8,13.8H101.7z M103.9,104.6h20v-56h-20
						V104.6z"/>
					<path class="st10" d="M125.7,33.6l13.3,13.2v59.5l-13.3,13.2h-23.6l-13.3-13.2V46.8l13.3-13.2H125.7 M102.9,105.6h2h18h2v-2
						v-54v-2h-2h-18h-2v2v54V105.6 M126.5,31.6h-25.2L86.9,46v61.2l14.4,14.4h25.2l14.4-14.4V46L126.5,31.6L126.5,31.6z
						 M104.9,103.6v-54h18v54H104.9L104.9,103.6z"/>
				</g>
				<g id="U_00000163771937773790351490000014298420105525415080_">
					<polygon class="st2" points="174.4,120.6 160.5,106.8 160.5,48.6 151.5,48.6 151.5,32.6 184.3,32.6 184.3,48.6 176.6,48.6 
						176.6,104.6 196.6,104.6 196.6,48.6 188.9,48.6 188.9,32.6 221.7,32.6 221.7,48.6 212.6,48.6 212.6,106.8 198.8,120.6 					"/>
					<path class="st10" d="M220.7,33.6v14h-7h-2v2v56.8l-13.3,13.2h-23.6l-13.3-13.2V49.6v-2h-2h-7v-14h30.8v14h-5.7h-2v2v54v2h2h18
						h2v-2v-54v-2h-2h-5.7v-14H220.7 M222.7,31.6h-34.8v18h7.7v54h-18v-54h7.7v-18h-34.8v18h9v57.6l14.4,14.4h25.2l14.4-14.4V49.6h9
						V31.6L222.7,31.6z"/>
				</g>
				<g id="T">
					<polygon class="st2" points="251.3,120.6 251.3,104.6 260.3,104.6 260.3,48.6 249.3,48.6 249.3,57.6 233.2,57.6 233.2,32.6 
						303.4,32.6 303.4,57.6 287.3,57.6 287.3,48.6 276.3,48.6 276.3,104.6 285.3,104.6 285.3,120.6 					"/>
					<path class="st10" d="M302.4,33.6v23h-14v-7v-2h-2h-9h-2v2v54v2h2h7v14h-32.1v-14h7h2v-2v-54v-2h-2h-9h-2v2v7h-14v-23H302.4
						 M304.4,31.6h-72.1v27h18v-9h9v54h-9v18h36.1v-18h-9v-54h9v9h18V31.6L304.4,31.6z"/>
				</g>
				<g id="H">
					<polygon class="st2" points="352.3,120.6 352.3,104.6 360,104.6 360,84.6 340,84.6 340,104.6 347.7,104.6 347.7,120.6 
						315,120.6 315,104.6 324,104.6 324,48.6 315,48.6 315,32.6 347.7,32.6 347.7,48.6 340,48.6 340,68.6 360,68.6 360,48.6 
						352.3,48.6 352.3,32.6 385.1,32.6 385.1,48.6 376.1,48.6 376.1,104.6 385.1,104.6 385.1,120.6 					"/>
					<path class="st10" d="M384.1,33.6v14h-7h-2v2v54v2h2h7v14h-30.8v-14h5.7h2v-2v-18v-2h-2h-18h-2v2v18v2h2h5.7v14H316v-14h7h2v-2
						v-54v-2h-2h-7v-14h30.8v14H341h-2v2v18v2h2h18h2v-2v-18v-2h-2h-5.7v-14H384.1 M386.1,31.6h-34.8v18h7.7v18h-18v-18h7.7v-18H314
						v18h9v54h-9v18h34.8v-18H341v-18h18v18h-7.7v18h34.8v-18h-9v-54h9V31.6L386.1,31.6z"/>
				</g>
				<g id="E">
					<polygon class="st2" points="396.7,120.6 396.7,104.6 405.7,104.6 405.7,48.6 396.7,48.6 396.7,32.6 457.8,32.6 457.8,57.6 
						441.8,57.6 441.8,48.6 421.7,48.6 421.7,68.6 439.8,68.6 439.8,84.6 421.7,84.6 421.7,104.6 441.8,104.6 441.8,95.6 
						457.8,95.6 457.8,120.6 					"/>
					<path class="st10" d="M456.8,33.6v23h-14v-7v-2h-2h-18h-2v2v18v2h2h16v14h-16h-2v2v18v2h2h18h2v-2v-7h14v23h-59.1v-14h7h2v-2
						v-54v-2h-2h-7v-14H456.8 M458.8,31.6h-63.1v18h9v54h-9v18h63.1v-27h-18v9h-18v-18h18v-18h-18v-18h18v9h18V31.6L458.8,31.6z"/>
				</g>
				<g id="R">
					<path class="st2" d="M506.7,120.6v-16h7.7v-20h-20v20h7.7v16h-32.8v-16h9v-56h-9v-16h47.3l13.8,13.8v24.4l-5.8,5.8l5.8,5.8
						v22.2h9v16H506.7z M494.4,68.6h20v-20h-20V68.6z"/>
					<path class="st10" d="M516.2,33.6l13.3,13.2v23.5l-4.8,4.8l-1.4,1.4l1.4,1.4l4.8,4.8v20.8v2h2h7v14h-30.8v-14h5.7h2v-2v-18v-2
						h-2h-18h-2v2v18v2h2h5.7v14h-30.8v-14h7h2v-2v-54v-2h-2h-7v-14H516.2 M493.4,69.6h2h18h2v-2v-18v-2h-2h-18h-2v2v18V69.6
						 M517.1,31.6h-48.7v18h9v54h-9v18h34.8v-18h-7.7v-18h18v18h-7.7v18h34.8v-18h-9V82l-5.4-5.4l5.4-5.4V46L517.1,31.6L517.1,31.6z
						 M495.4,67.6v-18h18v18H495.4L495.4,67.6z"/>
				</g>
				<g id="N_00000076582429430832791350000016492979931968647576_">
					<polygon class="st2" points="604.8,120.6 576.1,66.1 576.1,104.6 585.1,104.6 585.1,120.6 551.1,120.6 551.1,104.6 
						560.1,104.6 560.1,48.6 551.1,48.6 551.1,32.6 576.5,32.6 605.2,87.1 605.2,48.6 596.2,48.6 596.2,32.6 630.2,32.6 630.2,48.6 
						621.2,48.6 621.2,120.6 					"/>
					<path class="st10" d="M629.2,33.6v14h-7h-2v2v70h-14.8l-26.5-50.3l-3.8-7.2v8.1v33.4v2h2h7v14h-32.1v-14h7h2v-2v-54v-2h-2h-7
						v-14h23.8L602.4,84l3.8,7.2V83V49.6v-2h-2h-7v-14H629.2 M631.2,31.6h-36.1v18h9V83l-27-51.4h-27v18h9v54h-9v18h36.1v-18h-9
						V70.2l27,51.4h18v-72h9V31.6L631.2,31.6z"/>
				</g>
				<g id="I_00000124145951702192803370000016097984434435542417_">
					<polygon class="st2" points="692.6,120.6 692.6,104.6 701.6,104.6 701.6,48.6 692.6,48.6 692.6,32.6 725.4,32.6 725.4,48.6 
						717.7,48.6 717.7,104.6 725.4,104.6 725.4,120.6 					"/>
					<path class="st10" d="M724.4,33.6v14h-5.7h-2v2v54v2h2h5.7v14h-30.8v-14h7h2v-2v-54v-2h-2h-7v-14H724.4 M726.4,31.6h-34.8v18h9
						v54h-9v18h34.8v-18h-7.7v-54h7.7V31.6L726.4,31.6z"/>
				</g>
				<g id="L_00000168837226358898490660000003112684407354997171_">
					<polygon class="st2" points="737,120.6 737,104.6 746,104.6 746,48.6 737,48.6 737,32.6 771,32.6 771,48.6 762,48.6 762,104.6 
						782,104.6 782,95.6 798.1,95.6 798.1,120.6 					"/>
					<path class="st10" d="M770,33.6v14h-7h-2v2v54v2h2h18h2v-2v-7h14v23H738v-14h7h2v-2v-54v-2h-2h-7v-14H770 M772,31.6H736v18h9
						v54h-9v18h63.1v-27h-18v9h-18v-54h9V31.6L772,31.6z"/>
				</g>
				<g id="L_00000071553165221226566280000004164663330913927865_">
					<polygon class="st2" points="809.7,120.6 809.7,104.6 818.7,104.6 818.7,48.6 809.7,48.6 809.7,32.6 843.7,32.6 843.7,48.6 
						834.7,48.6 834.7,104.6 854.7,104.6 854.7,95.6 870.8,95.6 870.8,120.6 					"/>
					<path class="st10" d="M842.7,33.6v14h-7h-2v2v54v2h2h18h2v-2v-7h14v23h-59.1v-14h7h2v-2v-54v-2h-2h-7v-14H842.7 M844.7,31.6
						h-36.1v18h9v54h-9v18h63.1v-27h-18v9h-18v-54h9V31.6L844.7,31.6z"/>
				</g>
				<g id="I_00000061432928485073985170000017991228626614306964_">
					<polygon class="st2" points="882.4,120.6 882.4,104.6 891.4,104.6 891.4,48.6 882.4,48.6 882.4,32.6 915.1,32.6 915.1,48.6 
						907.4,48.6 907.4,104.6 915.1,104.6 915.1,120.6 					"/>
					<path class="st10" d="M914.1,33.6v14h-5.7h-2v2v54v2h2h5.7v14h-30.8v-14h7h2v-2v-54v-2h-2h-7v-14H914.1 M916.1,31.6h-34.8v18h9
						v54h-9v18h34.8v-18h-7.7v-54h7.7V31.6L916.1,31.6z"/>
				</g>
				<g id="N">
					<polygon class="st2" points="980.4,120.6 951.8,66.1 951.8,104.6 960.8,104.6 960.8,120.6 926.7,120.6 926.7,104.6 
						935.7,104.6 935.7,48.6 926.7,48.6 926.7,32.6 952.2,32.6 980.8,87.1 980.8,48.6 971.8,48.6 971.8,32.6 1005.9,32.6 
						1005.9,48.6 996.9,48.6 996.9,120.6 					"/>
					<path class="st10" d="M1004.9,33.6v14h-7h-2v2v70H981l-26.5-50.3l-3.8-7.2v8.1v33.4v2h2h7v14h-32.1v-14h7h2v-2v-54v-2h-2h-7
						v-14h23.8L978,84l3.8,7.2V83V49.6v-2h-2h-7v-14H1004.9 M1006.9,31.6h-36.1v18h9V83l-27-51.4h-27v18h9v54h-9v18h36.1v-18h-9
						V70.2l27,51.4h18v-72h9V31.6L1006.9,31.6z"/>
				</g>
				<g id="O_00000159463197833368920740000012394948003028079774_">
					<path class="st2" d="M1031.3,120.6l-13.8-13.8V46.4l13.8-13.8h24.4l13.8,13.8v60.4l-13.8,13.8H1031.3z M1033.5,104.6h20v-56
						h-20V104.6z"/>
					<path class="st10" d="M1055.3,33.6l13.3,13.2v59.5l-13.3,13.2h-23.6l-13.3-13.2V46.8l13.3-13.2H1055.3 M1032.5,105.6h2h18h2v-2
						v-54v-2h-2h-18h-2v2v54V105.6 M1056.1,31.6h-25.2L1016.5,46v61.2l14.4,14.4h25.2l14.4-14.4V46L1056.1,31.6L1056.1,31.6z
						 M1034.5,103.6v-54h18v54H1034.5L1034.5,103.6z"/>
				</g>
				<g id="I">
					<polygon class="st2" points="1081.1,120.6 1081.1,104.6 1090.1,104.6 1090.1,48.6 1081.1,48.6 1081.1,32.6 1113.9,32.6 
						1113.9,48.6 1106.2,48.6 1106.2,104.6 1113.9,104.6 1113.9,120.6 					"/>
					<path class="st10" d="M1112.9,33.6v14h-5.7h-2v2v54v2h2h5.7v14h-30.8v-14h7h2v-2v-54v-2h-2h-7v-14H1112.9 M1114.9,31.6h-34.8
						v18h9v54h-9v18h34.8v-18h-7.7v-54h7.7V31.6L1114.9,31.6z"/>
				</g>
				<g id="S_00000126302563591946401730000006566090529518458036_">
					<polygon class="st2" points="1139.3,120.6 1125.5,106.8 1125.5,95.6 1141.5,95.6 1141.5,104.6 1161.6,104.6 1161.6,84.6 
						1139.3,84.6 1125.5,70.8 1125.5,46.4 1139.3,32.6 1163.7,32.6 1177.6,46.4 1177.6,57.6 1161.6,57.6 1161.6,48.6 1141.5,48.6 
						1141.5,68.6 1163.5,68.6 1177.6,82.4 1177.6,106.8 1163.7,120.6 					"/>
					<path class="st10" d="M1163.3,33.6l13.3,13.2v9.8h-14v-7v-2h-2h-18h-2v2v18v2h2h20.6l13.5,13.2v23.5l-13.3,13.2h-23.6
						l-13.3-13.2v-9.8h14v7v2h2h18h2v-2v-18v-2h-2h-20.8l-13.3-13.2V46.8l13.3-13.2H1163.3 M1164.2,31.6h-25.2L1124.5,46v25.2
						l14.4,14.4h21.6v18h-18v-9h-18v12.6l14.4,14.4h25.2l14.4-14.4V82l-14.7-14.4h-21.4v-18h18v9h18V46L1164.2,31.6L1164.2,31.6z"/>
				</g>
			</g>
			<g id="SOUTHERN-ILLINOIS-Dark">
				<g id="S_00000072270517158197975040000011732605077813281932_">
					<polygon class="st11" points="36,118.6 22.2,104.8 22.2,93.6 38.2,93.6 38.2,102.6 58.2,102.6 58.2,82.6 36,82.6 22.2,68.8 
						22.2,44.4 36,30.6 60.4,30.6 74.3,44.4 74.3,55.6 58.2,55.6 58.2,46.6 38.2,46.6 38.2,66.6 60.2,66.6 74.3,80.4 74.3,104.8 
						60.4,118.6 					"/>
					<path class="st5" d="M60,31.6l13.3,13.2v9.8h-14v-7v-2h-2h-18h-2v2v18v2h2h20.6l13.5,13.2v23.5L60,117.6H36.4l-13.3-13.2v-9.8
						h14v7v2h2h18h2v-2v-18v-2h-2H36.4L23.2,68.4V44.8l13.3-13.2H60 M60.9,29.6H35.6L21.2,44v25.2l14.4,14.4h21.6v18h-18v-9h-18
						v12.6l14.4,14.4h25.2l14.4-14.4V80L60.6,65.6H39.2v-18h18v9h18V44L60.9,29.6L60.9,29.6z"/>
				</g>
				<g id="O_00000121981072709133365580000007957285878381042327_">
					<path class="st11" d="M99.7,118.6l-13.8-13.8V44.4l13.8-13.8h24.4L138,44.4v60.4l-13.8,13.8H99.7z M101.9,102.6h20v-56h-20
						V102.6z"/>
					<path class="st5" d="M123.7,31.6L137,44.8v59.5l-13.3,13.2h-23.6l-13.3-13.2V44.8l13.3-13.2H123.7 M100.9,103.6h2h18h2v-2v-54
						v-2h-2h-18h-2v2v54V103.6 M124.5,29.6H99.3L84.9,44v61.2l14.4,14.4h25.2l14.4-14.4V44L124.5,29.6L124.5,29.6z M102.9,101.6v-54
						h18v54H102.9L102.9,101.6z"/>
				</g>
				<g id="U_00000027600441887727018200000015921960747016353983_">
					<polygon class="st11" points="172.4,118.6 158.6,104.8 158.6,46.6 149.5,46.6 149.5,30.6 182.3,30.6 182.3,46.6 174.6,46.6 
						174.6,102.6 194.6,102.6 194.6,46.6 186.9,46.6 186.9,30.6 219.7,30.6 219.7,46.6 210.7,46.6 210.7,104.8 196.8,118.6 					"/>
					<path class="st5" d="M218.7,31.6v14h-7h-2v2v56.8l-13.3,13.2h-23.6l-13.3-13.2V47.6v-2h-2h-7v-14h30.8v14h-5.7h-2v2v54v2h2h18
						h2v-2v-54v-2h-2h-5.7v-14H218.7 M220.7,29.6h-34.8v18h7.7v54h-18v-54h7.7v-18h-34.8v18h9v57.6l14.4,14.4h25.2l14.4-14.4V47.6h9
						V29.6L220.7,29.6z"/>
				</g>
				<g id="T_00000152242918073407816680000005232568689727830436_">
					<polygon class="st11" points="249.3,118.6 249.3,102.6 258.3,102.6 258.3,46.6 247.3,46.6 247.3,55.6 231.3,55.6 231.3,30.6 
						301.4,30.6 301.4,55.6 285.4,55.6 285.4,46.6 274.3,46.6 274.3,102.6 283.4,102.6 283.4,118.6 					"/>
					<path class="st5" d="M300.4,31.6v23h-14v-7v-2h-2h-9h-2v2v54v2h2h7v14h-32.1v-14h7h2v-2v-54v-2h-2h-9h-2v2v7h-14v-23H300.4
						 M302.4,29.6h-72.1v27h18v-9h9v54h-9v18h36.1v-18h-9v-54h9v9h18V29.6L302.4,29.6z"/>
				</g>
				<g id="H_00000063634993988308043660000006952726078261744526_">
					<polygon class="st11" points="350.3,118.6 350.3,102.6 358,102.6 358,82.6 338,82.6 338,102.6 345.7,102.6 345.7,118.6 
						313,118.6 313,102.6 322,102.6 322,46.6 313,46.6 313,30.6 345.7,30.6 345.7,46.6 338,46.6 338,66.6 358,66.6 358,46.6 
						350.3,46.6 350.3,30.6 383.1,30.6 383.1,46.6 374.1,46.6 374.1,102.6 383.1,102.6 383.1,118.6 					"/>
					<path class="st5" d="M382.1,31.6v14h-7h-2v2v54v2h2h7v14h-30.8v-14h5.7h2v-2v-18v-2h-2h-18h-2v2v18v2h2h5.7v14H314v-14h7h2v-2
						v-54v-2h-2h-7v-14h30.8v14H339h-2v2v18v2h2h18h2v-2v-18v-2h-2h-5.7v-14H382.1 M384.1,29.6h-34.8v18h7.7v18h-18v-18h7.7v-18H312
						v18h9v54h-9v18h34.8v-18H339v-18h18v18h-7.7v18h34.8v-18h-9v-54h9V29.6L384.1,29.6z"/>
				</g>
				<g id="E_00000182505635447144939940000009360629137735663017_">
					<polygon class="st11" points="394.7,118.6 394.7,102.6 403.7,102.6 403.7,46.6 394.7,46.6 394.7,30.6 455.8,30.6 455.8,55.6 
						439.8,55.6 439.8,46.6 419.7,46.6 419.7,66.6 437.8,66.6 437.8,82.6 419.7,82.6 419.7,102.6 439.8,102.6 439.8,93.6 
						455.8,93.6 455.8,118.6 					"/>
					<path class="st5" d="M454.8,31.6v23h-14v-7v-2h-2h-18h-2v2v18v2h2h16v14h-16h-2v2v18v2h2h18h2v-2v-7h14v23h-59.1v-14h7h2v-2
						v-54v-2h-2h-7v-14H454.8 M456.8,29.6h-63.1v18h9v54h-9v18h63.1v-27h-18v9h-18v-18h18v-18h-18v-18h18v9h18V29.6L456.8,29.6z"/>
				</g>
				<g id="R_00000096744104249301169950000012100241336056292001_">
					<path class="st11" d="M504.7,118.6v-16h7.7v-20h-20v20h7.7v16h-32.8v-16h9v-56h-9v-16h47.3l13.8,13.8v24.4l-5.8,5.8l5.8,5.8
						v22.2h9v16H504.7z M492.4,66.6h20v-20h-20V66.6z"/>
					<path class="st5" d="M514.2,31.6l13.3,13.2v23.5l-4.8,4.8l-1.4,1.4l1.4,1.4l4.8,4.8v20.8v2h2h7v14h-30.8v-14h5.7h2v-2v-18v-2
						h-2h-18h-2v2v18v2h2h5.7v14h-30.8v-14h7h2v-2v-54v-2h-2h-7v-14H514.2 M491.4,67.6h2h18h2v-2v-18v-2h-2h-18h-2v2v18V67.6
						 M515.1,29.6h-48.7v18h9v54h-9v18h34.8v-18h-7.7v-18h18v18h-7.7v18h34.8v-18h-9V80l-5.4-5.4l5.4-5.4V44L515.1,29.6L515.1,29.6z
						 M493.4,65.6v-18h18v18H493.4L493.4,65.6z"/>
				</g>
				<g id="N_00000126305016348252302050000007163820324220484789_">
					<polygon class="st11" points="602.8,118.6 574.1,64.1 574.1,102.6 583.2,102.6 583.2,118.6 549.1,118.6 549.1,102.6 
						558.1,102.6 558.1,46.6 549.1,46.6 549.1,30.6 574.5,30.6 603.2,85.1 603.2,46.6 594.2,46.6 594.2,30.6 628.2,30.6 628.2,46.6 
						619.2,46.6 619.2,118.6 					"/>
					<path class="st5" d="M627.2,31.6v14h-7h-2v2v70h-14.8l-26.5-50.3l-3.8-7.2v8.1v33.4v2h2h7v14h-32.1v-14h7h2v-2v-54v-2h-2h-7
						v-14h23.8L600.4,82l3.8,7.2V81V47.6v-2h-2h-7v-14H627.2 M629.2,29.6h-36.1v18h9V81l-27-51.4h-27v18h9v54h-9v18h36.1v-18h-9
						V68.2l27,51.4h18v-72h9V29.6L629.2,29.6z"/>
				</g>
				<g id="I_00000053528978728268147060000012395881796004208284_">
					<polygon class="st11" points="690.6,118.6 690.6,102.6 699.6,102.6 699.6,46.6 690.6,46.6 690.6,30.6 723.4,30.6 723.4,46.6 
						715.7,46.6 715.7,102.6 723.4,102.6 723.4,118.6 					"/>
					<path class="st5" d="M722.4,31.6v14h-5.7h-2v2v54v2h2h5.7v14h-30.8v-14h7h2v-2v-54v-2h-2h-7v-14H722.4 M724.4,29.6h-34.8v18h9
						v54h-9v18h34.8v-18h-7.7v-54h7.7V29.6L724.4,29.6z"/>
				</g>
				<g id="L_00000005268935538172605140000009181323869751794836_">
					<polygon class="st11" points="735,118.6 735,102.6 744,102.6 744,46.6 735,46.6 735,30.6 769,30.6 769,46.6 760,46.6 
						760,102.6 780.1,102.6 780.1,93.6 796.1,93.6 796.1,118.6 					"/>
					<path class="st5" d="M768,31.6v14h-7h-2v2v54v2h2h18h2v-2v-7h14v23H736v-14h7h2v-2v-54v-2h-2h-7v-14H768 M770,29.6H734v18h9v54
						h-9v18h63.1v-27h-18v9h-18v-54h9V29.6L770,29.6z"/>
				</g>
				<g id="L_00000094602624799378345450000015777852461369398421_">
					<polygon class="st11" points="807.7,118.6 807.7,102.6 816.7,102.6 816.7,46.6 807.7,46.6 807.7,30.6 841.7,30.6 841.7,46.6 
						832.7,46.6 832.7,102.6 852.8,102.6 852.8,93.6 868.8,93.6 868.8,118.6 					"/>
					<path class="st5" d="M840.7,31.6v14h-7h-2v2v54v2h2h18h2v-2v-7h14v23h-59.1v-14h7h2v-2v-54v-2h-2h-7v-14H840.7 M842.7,29.6
						h-36.1v18h9v54h-9v18h63.1v-27h-18v9h-18v-54h9V29.6L842.7,29.6z"/>
				</g>
				<g id="I_00000041985700764617757160000016385437988556378252_">
					<polygon class="st11" points="880.4,118.6 880.4,102.6 889.4,102.6 889.4,46.6 880.4,46.6 880.4,30.6 913.1,30.6 913.1,46.6 
						905.4,46.6 905.4,102.6 913.1,102.6 913.1,118.6 					"/>
					<path class="st5" d="M912.1,31.6v14h-5.7h-2v2v54v2h2h5.7v14h-30.8v-14h7h2v-2v-54v-2h-2h-7v-14H912.1 M914.1,29.6h-34.8v18h9
						v54h-9v18h34.8v-18h-7.7v-54h7.7V29.6L914.1,29.6z"/>
				</g>
				<g id="N_00000041982645704877710420000015895760988759433374_">
					<polygon class="st11" points="978.4,118.6 949.8,64.1 949.8,102.6 958.8,102.6 958.8,118.6 924.7,118.6 924.7,102.6 
						933.7,102.6 933.7,46.6 924.7,46.6 924.7,30.6 950.2,30.6 978.8,85.1 978.8,46.6 969.8,46.6 969.8,30.6 1003.9,30.6 
						1003.9,46.6 994.9,46.6 994.9,118.6 					"/>
					<path class="st5" d="M1002.9,31.6v14h-7h-2v2v70H979l-26.5-50.3l-3.8-7.2v8.1v33.4v2h2h7v14h-32.1v-14h7h2v-2v-54v-2h-2h-7v-14
						h23.8L976.1,82l3.8,7.2V81V47.6v-2h-2h-7v-14H1002.9 M1004.9,29.6h-36.1v18h9V81l-27-51.4h-27v18h9v54h-9v18h36.1v-18h-9V68.2
						l27,51.4h18v-72h9V29.6L1004.9,29.6z"/>
				</g>
				<g id="O_00000151520955083194654540000010240192673583032450_">
					<path class="st11" d="M1029.3,118.6l-13.8-13.8V44.4l13.8-13.8h24.4l13.8,13.8v60.4l-13.8,13.8H1029.3z M1031.5,102.6h20v-56
						h-20V102.6z"/>
					<path class="st5" d="M1053.3,31.6l13.3,13.2v59.5l-13.3,13.2h-23.6l-13.3-13.2V44.8l13.3-13.2H1053.3 M1030.5,103.6h2h18h2v-2
						v-54v-2h-2h-18h-2v2v54V103.6 M1054.1,29.6h-25.2L1014.5,44v61.2l14.4,14.4h25.2l14.4-14.4V44L1054.1,29.6L1054.1,29.6z
						 M1032.5,101.6v-54h18v54H1032.5L1032.5,101.6z"/>
				</g>
				<g id="I_00000175283448815043543200000005049891580614345151_">
					<polygon class="st11" points="1079.1,118.6 1079.1,102.6 1088.2,102.6 1088.2,46.6 1079.1,46.6 1079.1,30.6 1111.9,30.6 
						1111.9,46.6 1104.2,46.6 1104.2,102.6 1111.9,102.6 1111.9,118.6 					"/>
					<path class="st5" d="M1110.9,31.6v14h-5.7h-2v2v54v2h2h5.7v14h-30.8v-14h7h2v-2v-54v-2h-2h-7v-14H1110.9 M1112.9,29.6h-34.8v18
						h9v54h-9v18h34.8v-18h-7.7v-54h7.7V29.6L1112.9,29.6z"/>
				</g>
				<g id="S_00000044864047450643916720000003766175470676254350_">
					<polygon class="st11" points="1137.3,118.6 1123.5,104.8 1123.5,93.6 1139.5,93.6 1139.5,102.6 1159.6,102.6 1159.6,82.6 
						1137.3,82.6 1123.5,68.8 1123.5,44.4 1137.3,30.6 1161.8,30.6 1175.6,44.4 1175.6,55.6 1159.6,55.6 1159.6,46.6 1139.5,46.6 
						1139.5,66.6 1161.5,66.6 1175.6,80.4 1175.6,104.8 1161.8,118.6 					"/>
					<path class="st5" d="M1161.3,31.6l13.3,13.2v9.8h-14v-7v-2h-2h-18h-2v2v18v2h2h20.6l13.5,13.2v23.5l-13.3,13.2h-23.6
						l-13.3-13.2v-9.8h14v7v2h2h18h2v-2v-18v-2h-2h-20.8l-13.3-13.2V44.8l13.3-13.2H1161.3 M1162.2,29.6h-25.2L1122.5,44v25.2
						l14.4,14.4h21.6v18h-18v-9h-18v12.6l14.4,14.4h25.2l14.4-14.4V80l-14.7-14.4h-21.4v-18h18v9h18V44L1162.2,29.6L1162.2,29.6z"/>
				</g>
			</g>
		</g>
	</g>
</g>
</svg>
