<?xml version="1.0" encoding="utf-8"?>
<!-- Generator: Adobe Illustrator 26.5.0, SVG Export Plug-In . SVG Version: 6.00 Build 0)  -->
<svg version="1.1" id="Layer_1" xmlns="http://www.w3.org/2000/svg" xmlns:xlink="http://www.w3.org/1999/xlink" x="0px" y="0px"
	 viewBox="0 0 601 601" style="enable-background:new 0 0 601 601;" xml:space="preserve">
<style type="text/css">
	.st0{opacity:0;fill-rule:evenodd;clip-rule:evenodd;fill:none;}
	.st1{fill-rule:evenodd;clip-rule:evenodd;stroke:#000000;stroke-miterlimit:10;}
	.st2{fill-rule:evenodd;clip-rule:evenodd;fill:#999999;}
	.st3{fill-rule:evenodd;clip-rule:evenodd;fill:#333333;}
	.st4{fill-rule:evenodd;clip-rule:evenodd;fill:#FFFFFF;}
	.st5{fill-rule:evenodd;clip-rule:evenodd;fill:#CCCCCC;}
	.st6{fill-rule:evenodd;clip-rule:evenodd;}
</style>
<rect x="0.5" y="0.5" class="st0" width="600" height="600"/>
<g id="BD-Head">
	<path id="Sillowette" class="st1" d="M595.5,207.9c-0.6,7.8-6.5,13.1-15,14.1c-4.9,0.6-9.9,0.7-14.9,1.2c-0.9,0.1-2.2,0.9-2.4,1.7
		c-1.2,4.5-4,7.7-7.6,10.5c-3,2.4-6,4.7-8.9,7.3c-6.3,5.8-6.8,12.1-1.4,18.7c1.8,2.2,3.7,4.4,5.6,6.5c6.5,6.9,9.7,15,9.9,24.4
		c0,1.1,0.7,2.6,1.5,3.4c9.4,7.8,15.8,17.8,19.5,29.3c9.5,29.5,5.2,57.3-11.1,83.3c-3.8,6-6.3,12.4-7.8,19.3
		c-3,13.7-2.8,27.6-2.9,41.5c-0.1,20.4-8.4,36.7-25.5,47.7c-25.6,16.5-53.4,24.6-84.1,20.3c-15-2.1-28.6-7.1-38.6-19.3
		c-0.1-0.1-0.3-0.1-0.7-0.1c0,1,0,1.9,0,2.8c0.5,12.9-1.7,25.4-5.1,37.7c-1.1,4-4.1,5.5-8,3.9c-2.8-1.2-5.5-2.7-8.1-4.3
		c-11-7.1-19-16.8-25.2-28.2c-0.5-0.8-1.5-2-2.2-1.9c-3.3,0.2-6.7,0.6-10,1.2c-0.9,0.2-2.1,1.2-2.4,2.1c-1.7,4.9-2.9,9.9-4.6,14.8
		c-3.7,10.6-8,20.9-15.2,29.8c-3.8,4.7-6.9,4.9-11.4,0.9c-9.9-8.9-16.9-19.7-22.1-31.8c-0.7-1.6-1.3-2.5-3.2-2.4
		c-14,0.6-27.9-1-41.7-3.6c-1.7-0.3-2.6,0.1-3.5,1.5c-6.2,10.1-14.3,18.4-23.9,25.3c-4.2,3-7.3,2.4-10.1-2
		c-5.8-9-9.8-18.8-12.5-29.2c-0.3-1.2-0.6-2.3-0.9-3.5c-6.6,0.9-12.8,1.9-19.1,2.7c-9.4,1.2-18.7,1.4-27.9-1.1
		c-11.8-3.3-20.4-11-27.9-20.2c-9.9-12.2-17.6-25.8-25-39.5c-1.1-2.1-2.2-2.4-4.5-2c-9.5,1.6-19,3.2-28.6,4.3
		c-5.5,0.6-7.1-1.4-5.6-6.6c2.1-7,4.6-14,7.3-20.8c1.8-4.6,4.3-8.9,6.1-12.7c-6.2-6.4-12.4-12.3-17.9-18.8
		c-9.6-11.3-18-23.4-22.7-37.7c-0.2-0.7-1.4-1.4-2.2-1.7c-6.7-1.9-13.5-3.5-20.1-5.7c-4.6-1.6-5.2-3.9-3-8.3
		c4.1-8.1,9.4-15.3,15.5-22c1.2-1.3,1.4-2.5,1.1-4.3c-1.4-6.8-3.2-13.7-3.4-20.6c-0.5-14.2-0.2-28.5-0.1-42.8c0-2-0.5-3.2-2-4.6
		c-4.6-4.1-9.3-8.3-13.4-13C4,251,5,247.9,10.2,245.2c5-2.6,10-5.2,15.1-7.7c1.8-0.9,2.9-2,3.4-4.1c1.8-7.3,3.7-14.7,6-21.9
		c6.1-19.3,14.2-37.6,25.5-54.4c2.3-3.4,2.7-6.2,1.7-10.1c-2.3-8.9-4-17.9-5.8-26.9c-0.8-4-0.4-4.6,3.6-4.3
		c7.2,0.5,14.4,0.8,21.4,2.1c6.7,1.2,12.3,0.7,16.8-4.9c0.7-0.9,1.7-1.5,2.6-2.3c11.8-10.1,24.1-19.6,38.7-25.5
		c4.3-1.7,5.5-4.3,6-8.5c0.9-7.4,2.4-14.7,3.9-22c0.7-3.5,2.4-4.4,5.9-3.6c3.1,0.8,6.3,1.7,9.2,3.1c4.8,2.3,9.3,5.1,14.2,7.9
		c0.2-1,0.4-2.1,0.7-3.1c1.1-5.3,1.9-10.8,3.5-16c4.9-16,17-23.8,33.4-20.9c7.6,1.3,15.2,4,22.3,7.1c10.7,4.6,21,10.2,31.6,15.1
		c9.8,4.5,20.2,6.8,31,5.2c12.8-1.9,25.4-0.9,37.8,2.8c14,4.2,26.8,11,39.4,17.9c14.1,7.8,28.9,13.2,45,14.7
		c17.5,1.7,32.7,7.7,44.9,21.1c5.5,6,13.3,8.1,21.4,7c8.2-1.1,16.4-2.9,24.4-5.1c14.2-3.9,26.7-1.5,37.7,8.3
		c1.5,1.3,3.1,2.6,4.6,3.9c5.1,4.5,8,10.2,8.8,16.9c0.4,3.3,0.6,6.7,0.6,10c0.1,14.6,4.9,27,16.5,36.4c4.8,3.9,8.9,8.5,11.4,14.2
		C594.7,200.9,595.7,204.6,595.5,207.9z"/>
	<g id="Gray_Fur">
		<path id="Chin" class="st2" d="M493.3,339.2c0.5,0.4,0.9,0.9,1.4,1.3c17.8,13.9,26.1,32.1,24.3,54.7
			c-1.7,21.5-12.2,38.5-27.4,53.1c-12.5,12.1-27.2,21-43.1,28c-12,5.3-24.3,6.2-36.5,0.9c-5.3-2.3-10.5-5.2-15.5-8.1
			c-9.2-5.4-18.8-9.6-29.6-8.5c-13.2,1.4-26.4,3.4-39.5,5.5c-16.3,2.6-32.5,6.1-48.9,8.3c-13.1,1.7-26,0.3-38.1-5.9
			c-2.8-1.4-4.8-3.4-5.9-6.3c-3.9-10.5-8.2-20.8-11.7-31.4c-5.1-15.3-7.9-31.1-8.1-47.3c-0.2-13.5,2.2-26.7,6.4-39.5
			c7.9-24.6,22.4-44.6,42.3-60.9c12.1-9.8,25.4-17.1,40.7-20.1c20-4,39.7-1.9,59,4c28.1,8.5,56.6,13.9,86,15.1
			c17.5,0.7,34.6,4,51.2,9.8c8.5,3,16.2,7.2,22,14.5c6.3,7.9,8.7,16.7,7,26.6c-0.9,5.1-3.6,7.3-8.8,7.3c-3.9,0-7.8-0.5-11.7-0.8
			c-5.1-0.4-10.3-0.7-15.4-1C493.5,338.6,493.4,338.9,493.3,339.2z M454.9,320.7c-18.6-13.1-39.3-18.9-62-17.5
			c-7,0.4-13.9,1.5-20.4,4.4c-1.9,0.8-3.6,2-5.4,3.5c33.4-1.7,65.1,4.1,95.2,18.6c0.3-0.3,0.5-0.6,0.8-0.9
			C460.4,326.1,458,322.9,454.9,320.7z"/>
		<path id="Forehead" class="st2" d="M125.5,271.7c0-1,0-2.1,0-3.1c0.8-14.2,3.1-28.1,7.6-41.7c7-20.9,18.8-38.8,34.7-54.1
			c1.4-1.4,2.4-1.6,4,0c2.4,2.4,5,4.5,7.7,6.4c1.7,1.2,3.7,2,5.8,3.1c0-0.7,0.1-0.8,0-0.9c-0.4-1.1-0.8-2.1-1.2-3.2
			c-5.1-13.6-6.3-27.3-1.9-41.3c2.8-8.8,8.5-15.8,14.5-22.5c14.6-16.1,32-28.1,53.3-33.7c12.5-3.3,24.6-2.3,35.8,4.9
			c0.8,0.5,1.6,0.9,2.8,1.6c-0.6-5.4-2.6-9.5-5.3-13.4c-2-3-2-3,1.2-4.9c0.4-0.2,0.9-0.4,1.3-0.7c13.8-7.4,28.3-8,43.2-4.8
			c15.5,3.4,29.7,10.3,43.9,17.2c12.8,6.2,25.5,12.7,39.4,16c6.8,1.7,13.9,2.4,20.9,3.4c11.4,1.5,20.1,7.9,28.1,15.4
			c10.8,10,19.4,21.7,26.8,34.4c1.6,2.7,1.6,4.5-0.2,6.8c-2.1,2.9-3.7,6-4.1,9.5c4.4-0.5,8.5-1.3,12.7-1.3
			c11.1-0.2,21.4,2.9,29.1,11.1c8.5,9,15.4,19.2,20,30.8c3.1,7.7,4.3,15.5,0.2,23.3c-3.8,7.3-10.1,12.4-15.8,18
			c-0.5,0.5-2,0.4-2.8,0.1c-3.4-1.3-6.6-2.9-10-4.1c-4.8-1.7-9.8-3-14.9-4.6c2.8-3,5.7-5.5,7.8-8.6c2.1-3.1,3.5-6.6,5.4-10.2
			c4.8,1.9,7.2,6.5,10.6,10.5c0.3-0.9,0.6-1.4,0.8-2.1c2.6-10.5-4.5-26.6-14.4-33.2c-1.6-1.1-2.6-1.1-4.3,0
			c-17.5,11.4-37,15.5-57.6,15.2c-8.4-0.1-16.7-1.6-25-2.6c-3.8-0.5-3.8-0.6-2.7-4.1c1.9-5.7,1-11-1.7-16.5
			c-0.8,2.8-1.4,5.4-2.3,7.8c-2.6,7.3-7.4,10.8-15.2,10.6c-2.9-0.1-5.8-0.8-8.8-1.1c-2.5-0.3-2.5-1.4-1.4-3.2
			c3.1-5.3,3.4-11.1,2-16.9c-0.6-2.4-1.9-4.5-3.1-7.5c-0.6,1.6-0.9,2.2-1,2.8c-2.1,11.6-10.4,16-20.8,16.2
			c-11.1,0.2-21.1-3.5-30.3-9.2c-17.8-11-32.2-25.9-45.4-42c-5-6.1-10-12.3-15.2-18.2c-1-1.1-3.1-1.9-4.5-1.7
			c-19.1,2.4-35,10.7-46.2,26.7c-2.3,3.3-3.6,7.4-5.4,11.1c0.3,0.2,0.6,0.4,0.9,0.6c5.6-4.8,11.3-9.3,18.9-10.3
			c0.1,0.6,0.2,0.9,0.2,1.1c-0.1,0.8-0.2,1.5-0.3,2.3c-1.7,8.1-1.1,16,2.1,23.6c3.9,9.4,10.7,16.4,18,23.1c2,1.8,4,3.7,6.6,6.2
			c-7.2,0-13.1,1.8-18.6,4.8c-3,1.7-6,3.4-9,5.1c-4.4,2.5-9,4.5-14.1,4.4c-7.2-0.1-14.5-0.8-21.7-1.5c-17.3-1.6-33.2,2.1-46.3,13.7
			c-8,7.1-14.7,15.6-22,23.4c-4,4.2-8,8.4-12,12.6C126.1,272.1,125.8,271.9,125.5,271.7z M447,158.1c-4,0.9-6.8,0.1-10.2-2.2
			c-10.4-6.9-22-7.5-33.9-5.3c-3.2,0.6-6.3,1.5-9.4,2.5c-2.2,0.8-2.8,0.2-3.5-2c-2.4-8.2-6.4-15.7-14.8-18.8
			c-5.3-2-8.7-5.9-12.8-9.1c-10-7.8-21.2-9.1-33.3-6.2c2.7,0.4,5.5,0.8,8.2,1.2c10,1.7,18.6,6.3,25.8,13.3c2.8,2.7,5.7,4.7,9,6.6
			c7.4,4.1,10.7,11.6,13.9,19c1,2.3,1.7,4.7,2.6,7.3c1-0.4,1.8-0.8,2.6-1.2c16-7.3,31.9-7.4,47.9,0c1.1,0.5,2.6,0.7,3.7,0.4
			c6.6-2.5,12.7-2.1,18.4,2.4c0.1,0.1,0.4,0,0.8-0.1C459.2,159.4,452.1,157,447,158.1z"/>
		<g id="Ears">
			<path id="Ear_1_" class="st2" d="M222.8,55.9c4.6,4.4,4.2,10.6,4.9,16.2c6.5-1.6,12.8-3.1,18.9-4.8c6-1.7,12-3.6,18-5.7
				c1.9-0.7,3.5-2.1,5.6-3.5c-1-0.5-1.3-0.8-1.8-0.9c-9.5-2-17.9-6.5-26.2-11.3c-8.1-4.6-16.7-8-26-9.3
				c-11.7-1.6-20.5,3.9-23.6,15.4c-2.2,8.3-3.8,16.8-5.8,25.1c-2.1,8.4-5.1,16.4-10.6,23.3c-6.2,7.9-14.5,12.6-23.6,16.2
				c-5.7,2.3-11.4,4.4-17.1,6.6c-0.8,0.3-1.6,0.7-2.3,1.1c-2.4,1.2-3.9,3.1-3.9,5.9c0,2.9,1.3,4.9,3.9,6.2c6,3,12.5,3.3,19,3
				c3.3-0.1,6.7-0.5,10-0.9c3.8-0.5,6.7-2.5,8.1-6c6.4-16.2,17.9-28.3,31-39.1c4.3-3.5,8.8-6.8,13.1-10.2c2.3-1.8,4.1-4,4.6-7
				C220.3,69.4,221.6,62.7,222.8,55.9z"/>
			<path id="Ear" class="st2" d="M479.5,123.8c0.8,1.3,1.3,2.1,1.8,2.9c5.4,8.3,10.9,16.6,16.1,25.1c1.6,2.5,3.3,3.4,6.1,2.9
				c5.9-1,5.8-1,7.1-7.4c1.4-7.4,4.6-13.6,12.3-16.3c0.4-0.1,0.9-0.2,1.8-0.5c-1.4,2.8-2.9,5.1-3.6,7.5c-1.2,4.2-2.2,8.5-2.5,12.8
				c-0.4,4.6,1.4,8.5,5.1,11.9c12,10.9,20.8,24.2,28.2,38.4c3.3,6.2,6.9,10,14.4,8.6c3.5-0.7,7.1-0.4,10.5-1.2
				c4.3-0.9,5.2-2.9,2.6-6.5c-4.3-5.9-9-11.6-13.6-17.4c-4.5-5.7-8.9-11.5-11.1-18.6c-1.5-4.9-2-9.7-1.1-14.7
				c3.3-17.7-8.2-29.5-19.2-33.6c-5.2-1.9-10.6-1.3-15.8-0.1c-8.8,2-17.6,4.3-26.6,6C488.2,124.4,484.1,123.8,479.5,123.8z"/>
		</g>
		<path id="Neck" class="st2" d="M297.5,483.4c2.1,1,4,2.3,6.2,3c9.8,3.5,20.1,4.7,30.4,5.6c18.1,1.6,36.3,2,54.4-0.5
			c5.8-0.8,11.5-2.4,17.6-3.7c-0.6-1-0.6-1.4-0.8-1.5c-6.3-3.3-12.8-6.5-19-10c-10.4-5.9-21.5-6.5-32.9-4.3
			c-9,1.7-17.8,4.4-26.8,6.1c-8.9,1.7-17.9,2.8-26.9,4.2c-0.6,0.1-1.2,0.2-1.9,0.3C297.7,482.9,297.6,483.2,297.5,483.4z"/>
		<g id="Cheeks">
			<path id="Cheek" class="st2" d="M362.4,217.8c-0.4,0.8-0.6,1.3-0.9,1.6c-3.4,5.2-3.2,10.4,0.2,15.5c1.1,1.6,2,2,4,1.4
				c6.3-2,12-1.1,16.4,4.3c2.2,2.7,4.4,5.6,6.2,8.6c2.9,4.9,5.5,10,8.6,15.7c-2.2-0.3-3.6-0.3-5-0.7c-1.9-0.4-3.7-1-5.5-1.6
				c-26.2-9.3-53.1-13.9-81-12.2c-1.5,0.1-3.7-1.2-4.7-2.5c-4.7-6.1-7.2-13.2-8.9-20.6c-0.3-1.2-0.5-2.3-1-4.1c-2.7,2.3-4.9,4.1-7,6
				c-8.7,8.4-13.1,18.4-9.9,30.6c0.7,2.6,0.1,3.7-2.2,4.9c-17.3,9.4-31.5,22.3-43.5,37.8c-15.1,19.4-26.9,40.7-35.4,63.7
				c-2.7,7.2-4.6,14.6-6.8,21.9c0.3,0.1,0.6,0.2,0.8,0.3c0.4-0.8,0.8-1.7,1.3-2.5c5.3-8.6,10.6-17.3,15.9-25.8
				c0.7-1.1,1.9-1.9,3.1-3.2c0.1,1,0.3,1.3,0.2,1.6c-0.2,0.7-0.4,1.5-0.6,2.2c-4.1,13.7-5.3,27.8-4.3,42c1.4,19.1,6.2,37.3,13.3,55
				c4.5,11.3,9.7,22.3,14.6,33.3c2.9,6.5,2.1,12-3.2,16.6c-3.2,2.8-6.9,5.2-10.7,7c-15.3,6.9-31.5,9-48.2,8.7
				c-7-0.1-13.4-1.9-19-6.2c-8.6-6.5-16.1-14.2-22.2-23.1c-16.6-24.2-30.2-50.1-41.2-77.3c-7.4-18.3-12-37.1-11-57
				c1.4-28.4,13.8-49.9,38.9-63.7c2.9-1.6,6.2-2.7,9.3-4c0.1,0.3,0.3,0.6,0.4,0.8c-2.2,5.8-8.9,7.1-12.5,11.6c0.5,0.2,0.7,0.3,1,0.3
				c6.6-0.9,12.5-3.1,16.4-8.8c6.6-9.5,13.1-19.1,19.6-28.7c7.8-11.6,17.2-21.5,30.6-26.3c22.6-8,45.6-8.2,68.6-1.8
				c0.9,0.3,1.9,0.5,2.8,0.8c0.2-0.3,0.4-0.5,0.6-0.8c-2.8-3.1-5.5-6.1-8.6-9.5C280.6,211.7,320.9,211.1,362.4,217.8z M325.8,230.1
				c2.2,0.1,4.5-2.2,4.5-4.3c0-2.1-2.1-4.3-4.2-4.4c-2.2-0.1-4.5,2.1-4.5,4.3C321.7,227.9,323.7,230,325.8,230.1z M306.2,239.3
				c-0.1,2.3,1.8,4.8,3.5,4.9c2,0.1,4.5-2.3,4.5-4.4c0-2.1-1.5-3.2-4.9-3.2C307.9,236.6,306.2,236.9,306.2,239.3z M338.6,238.3
				c-0.4,1.6,2.6,4.4,3.8,3.7c1.1-0.7,2.2-2.4,2.1-3.7c-0.1-1.5-1.3-2.9-2.1-4.3c-0.5,0-1,0-1.4,0
				C340.2,235.4,339,236.7,338.6,238.3z"/>
			<path id="Cheek_1_" class="st2" d="M547.3,297.3c12,9.4,19.3,21.9,23.3,36.4c6,21.9,4.6,43-8.1,62.6c-4.8,7.3-8.8,15-11,23.6
				c-3.5,13.5-3.2,27.3-3.2,41.1c0,6.3,0.7,12.9-0.9,18.8c-3.9,14.6-13.4,25.1-26.9,31.9c-21.1,10.6-43.4,14.7-66.9,12.4
				c-9.5-0.9-18.6-3.4-26.5-9.4c-1.2-0.9-2.2-2.1-3.6-3.4c1-0.4,1.3-0.6,1.7-0.7c12-3.6,20.9-11.3,28.2-21.2
				c2.9-3.9,5.8-7.8,10.2-10.3c2.9-1.6,5.7-3.5,8.6-5.2c17.6-10.7,33.4-23.3,44.9-40.7c0.4-0.6,1-0.9,1.5-1.4
				c-0.7,13.9-6.9,25.7-12.2,38c11.1-7.6,17.3-18.7,21.9-30.8c11-29.5,12.2-58.5-5.9-86.2c0.6-0.3,1.1-0.5,1.6-0.7
				c9.8-2.5,14.8-9.3,15.7-18.9c1.4-15.2-3.7-28.4-13.8-39.8c-1.3-1.5-2-2.8-2-4.8c-0.1-7.5-2.1-14.4-6.2-20.6
				c-3.6-5.4-8.4-9.5-14.6-12.3c-0.5,7.6-1.4,14.9-4.6,21.6c-3.4-1.2-6.4-2.3-9.4-3.1c-13.8-3.7-27.9-4.6-42-6.2
				c-5-0.6-9.9-1.3-14.9-2c0-0.2,0-0.5,0-0.7c6.5-4.4,12.9-8.8,19.7-13.4c1.4,2.1,2.9,4.2,4.4,6.4c5.6-2.4,7.4-7.8,5.9-17.3
				c1,0,1.9-0.1,2.8,0c11.7,1.4,23.5,2.4,35,4.5c17.6,3.1,31.1,12.8,41.1,27.5c3.2,4.7,5.2,9.9,5.5,15.8c-4.3,0-8.3,0-12.1,0
				C538.8,291.8,543.3,294.2,547.3,297.3z M483.4,247.2c-0.9,0.1-2.2,1.6-2.6,2.7c-0.5,1.7,1.5,3.9,3.1,3.5c1.1-0.3,2.1-1.4,2.7-1.9
				C486.5,248.6,485.4,247.1,483.4,247.2z M488.3,264.2c-0.1,1.9,1.3,3.3,3.3,3c1.1-0.2,2.8-1.9,2.7-2.4c-0.4-1.3-1.7-2.2-3.2-3.9
				C489.8,262.4,488.4,263.2,488.3,264.2z"/>
		</g>
	</g>
	<g id="Collar_5_">
		<g id="Collar_6_">
			<path id="Collar_1_" class="st3" d="M40.1,234c3.4-0.7,6.7-1.5,10.1-2c5.4-0.8,10.8-1.5,16.3-1.9c6.9-0.5,9.7,1.4,11.6,8
				c3.9,13.2,4.1,26.3-1.4,39.1c-4.8,11.1-8.9,13-20.2,8.8c-6.2-2.3-12-5.8-18-8.8c-1.2-0.6-2.3-1.4-3.9-2.4
				c-1.9,19.7-3.4,38.8,1.6,58.3c2.3-1.7,4.2-3.3,6.2-4.7c3.5-2.4,6.9-4.9,10.6-6.8c7.2-3.8,12.3-3.6,21.5,0.2
				c0.6-0.7,1.2-1.5,1.8-2.3c4.1-5.4,8.2-10.8,12.1-16.4c1.1-1.6,2-3.9,1.9-5.8c-2.5-47.1,12.3-88.7,39.4-126.6
				c4-5.6,8.5-10.9,12.7-16.3c0.7-0.9,1.4-1.9,1.6-3c0.1-0.7-0.7-2-1.4-2.2c-5.1-1.5-10.3-2.7-15.7-4.1c-0.3,2.4-0.5,5-1,7.4
				c-3.7,18.4-15.8,28.7-33.3,33.3c-8.8,2.3-12.2,0.5-16.8-7.4c-2.4-4.1-4.7-8.3-7.1-12.5C59.2,175.8,39.5,222.6,40.1,234z"/>
			<path id="Collar_3_" class="st3" d="M245.7,485c3.8,5.8,6.6,12,11.1,16.4c3.6,3.6,9.1,5.5,14,7.4c16.5,6.3,33.7,8.6,51.2,9.1
				c29.1,0.8,57.7-2.6,85.6-11.4c9.4-3,18.6-6.6,26.9-12c0.9-0.6,1.8-1.3,3.4-2.5c-3.1-0.2-5.3-0.3-7.5-0.5
				c-3.8-0.3-7.6-0.8-11.4-1.1c-1.5-0.1-3.1,0-4.4,0.5c-27.4,11-55.9,14.1-85.1,12.2c-27.7-1.8-54.5-8-80.4-17.9
				c-0.5-0.2-1.1-0.4-1.6-0.5C247.2,484.6,247,484.7,245.7,485z"/>
			<path id="Collar_4_" class="st3" d="M247.4,509.6c2.6,6.4,5,12.4,7.6,18.3c0.4,0.8,1.7,1.6,2.7,1.7c7.7,0.9,15.4,1.7,23.1,2.2
				c4.4,0.3,8.8,0.1,13.6,0.1c-1.2-4.4,0.5-7,5.1-8.1C281.1,521.9,263.9,517.2,247.4,509.6z"/>
			<path id="Collar_2_" class="st3" d="M47.6,378.2c5.4,17.6,15.6,31.4,27.8,43.9c0.3-0.1,0.6-0.3,0.9-0.4c-0.9-3.2-1.8-6.3-2.5-9.5
				c-2.5-10.7-4.8-21.4-7.3-32.1c-0.2-0.7-1.2-1.8-1.8-1.8C59.2,378.1,53.8,378.2,47.6,378.2z"/>
			<path id="Collar" class="st3" d="M104.3,124.3c3.9,4.6,9,6.3,14.4,7.3c1.7,0.3,2.5-0.9,2.4-2.4c-0.3-6.5,3.3-10.6,8.5-13.6
				c3.5-2,7.2-3.6,10.7-5.4c5.4-2.7,6.5-7.3,3-12.9C128.5,103.7,116,113.1,104.3,124.3z"/>
			<path id="Collar_7_" class="st3" d="M103.6,287.8c3.5-2.3,7.2-4.2,10.3-7c1.4-1.3,1.7-4.2,1.7-6.4c0.3-19.9,4-39.2,11.6-57.6
				c8.4-20.3,20.2-38.4,36.9-53c3.7-3.2,3.1-9.6-1.3-13.9c-25.8,20.9-42.9,47.8-52.6,79.3c-5.8,18.8-10.5,37.9-8,57.8
				C102.7,287.3,103.2,287.6,103.6,287.8z"/>
		</g>
		<g id="Spikes">
			<path id="Spike" class="st4" d="M96.1,176.4c-5.3-8.1-10.4-16.1-13.2-26c2.9,2.4,5.1,4.3,7.5,6.1c5.5,4.2,11.4,7.7,18.2,9.4
				c1.8,0.5,3.1,0.3,4.3-1.5c3.3-5,5.1-10.4,5.9-16.3c0.3-2.6-0.6-4.3-2.8-5.7c-8.6-5.6-18.1-9-27.9-11.7c-6.7-1.9-13.5-3.3-20.3-5
				c-0.6-0.1-1.3-0.1-2.5-0.2c1.1,4.3,2.1,8.4,3.3,12.4c3.7,12.3,8.7,24.1,15.6,35C87.7,178.6,89.1,179.1,96.1,176.4z"/>
			<path id="Spike_1_" class="st4" d="M16.3,252.9c4.7,3.7,8.8,7.8,13.7,10.7c8.4,5.1,17.2,9.4,25.9,14.1c1.1,0.6,2.3,0.9,3.5,1.3
				c5.5,1.7,8.4-0.1,9.7-5.8c-9.7-1.1-18.4-4.6-26.6-10.8c5,0.3,9.3,1.2,13.6,0.8c4.8-0.4,9.5-1.9,14.2-3c1.6-0.4,2.4-1.4,2.1-3.2
				c-0.9-5-1.5-10.2-2.7-15.1c-0.8-3.3-3.2-4.7-6.6-4.2c-15.6,2.2-30.6,6.4-44.7,13.8C17.8,251.6,17.4,252,16.3,252.9z"/>
			<path id="Spike_2_" class="st4" d="M65.2,369.4c0-1.8,0-3.4,0-5.2c-7-0.5-13.9-1-20.8-1.4c-0.1-0.3-0.2-0.7-0.3-1
				c3.6-1.6,7.1-3.3,10.8-4.6c2.9-1.1,6.1-1.5,9.1-2.5c0.8-0.3,1.8-1.3,2-2.1c1.7-7.3,3.2-14.7,4.6-22.1c0.1-0.7-0.4-1.8-1-2.3
				c-2.8-2.1-6-2.2-9.3-1.5c-5.6,1.2-10.2,4.3-14.5,7.8c-9.3,7.6-17.1,16.6-23.4,27c-0.5,0.8-0.9,1.7-1.4,2.5
				C25.4,366.7,56,370.5,65.2,369.4z"/>
			<path id="Spike_3_" class="st4" d="M310.9,530.5c-6.7,1.6-6.8,1.6-4.7,7.7c3.2,9.4,7.7,18.1,14.6,25.4c0.7,0.7,1.4,1.3,2,2
				c1.5,1.8,2.8,1.3,3.8-0.5c2.2-4,4.7-7.9,6.3-12.2c2.8-7.3,5.1-14.8,7.9-22.9c-4.4-0.7-8-1.3-11.6-1.8c-0.8-0.1-1.5,0-2.3,0
				c-8.3,0.2-6.4-0.7-7.3,7.2c-0.3,2.4-0.1,4.8-0.1,7.2c0,2.3,0,4.6,0,7.6C314.3,544.2,312.7,537.4,310.9,530.5z"/>
			<path id="Spike_4_" class="st4" d="M238.6,511.8c-4.6,3.9-8.5,7.1-12.3,10.4c-0.5,0.5-0.5,1.5-0.7,2.4c-0.7,2.8-1.3,5.7-2,8.5
				c-0.3,0-0.6,0-0.9-0.1c-0.3-2.4-0.7-4.7-1-7.2c-2.4,1.1-4.7,2-6.9,3.2c-0.5,0.3-1.1,1.2-1,1.7c1.3,8.2,4.3,15.8,8.6,23.8
				c4.8-4.7,9.6-8.7,13.5-13.4c3.1-3.8,5.4-8.3,7.5-12.7c0.8-1.7,0.7-4.4,0-6.3C242.2,518.5,240.3,515.2,238.6,511.8z"/>
			<path id="Spike_5_" class="st4" d="M401.1,517.9c-5.4,1.6-10.5,3.1-16,4.8c0.9,2.8,1.7,5.5,2.5,8.1c-0.2,0.2-0.3,0.3-0.5,0.5
				c-1.6-1.4-3.5-2.6-4.6-4.4c-1.6-2.4-3.4-2.9-6-2c-0.7,0.2-1.5,0.4-2.2,0.6c1.1,7.5,16.2,23.5,24.1,25.4
				C402.3,540.2,401.7,529.2,401.1,517.9z"/>
			<path id="Spike_6_" class="st4" d="M155.8,100.7c5.1-1.2,5.7-2.1,5.1-6.7c-0.5-3.5-0.8-7.1-1.2-10.6c0.3-0.1,0.6-0.1,0.9-0.2
				c1.8,3.4,3.7,6.8,5.6,10.4c0.5-0.3,1.1-0.5,1.4-0.8c3.8-4.2,6.5-8.9,7.5-14.6c0.4-2.2-0.1-3.8-1.8-5.3c-4.9-4.1-9.9-7.7-16.6-9.6
				C152.9,75.7,154.4,88.1,155.8,100.7z"/>
			<path id="Spike_7_" class="st4" d="M70.5,467.2c6.7,0.4,22.2-2.5,26.8-5c-1.2-1.8-2.2-4.4-3.8-5c-1.7-0.6-4.1,1-6.1,1.6
				c-0.1-0.2-0.3-0.4-0.4-0.6c1.7-1.6,3.3-3.1,5.2-4.9c-2.3-5.2-4.6-10.6-7.3-16.5C78.9,446.7,73.5,456.3,70.5,467.2z"/>
		</g>
	</g>
	<g id="Teeth">
		<path id="Tooth_1_" class="st4" d="M287.2,234.4c-7,5.7-9.7,16.6-6,23.6c4.8-2.1,9.6-4.3,14.7-6.6
			C290.9,246.9,288.9,240.9,287.2,234.4z"/>
		<path id="Tooth" class="st4" d="M508.6,269.9c-1,3.2-2,6.2-2.8,9.2c-0.1,0.5,0.3,1.5,0.8,1.8c3,1.9,6.1,3.7,9.3,5.6
			C517,280.8,513.7,273.2,508.6,269.9z"/>
	</g>
	<g id="Eyes">
		<g id="Iris_Colored">
			<path id="Eye_Iris" class="st5" d="M457.9,224c-1.6-0.1-3.1-0.1-4.6-0.2c-1.1,3.7,0.7,8,4.2,10.5c4.3,3.1,11.2,2.9,16.3-0.4
				c3.6-2.4,5-5.8,4-10.4c-1.6,0.1-3.3,0.2-4.9,0.4c-1.7,5.8-4.3,8.1-8.4,7.8C461,231.4,458.7,228.8,457.9,224z"/>
			<path id="Eye_Iris_1_" class="st5" d="M299.7,172.2c-1.2-1.3-2.8-3-4.4-4.7c-6.7,4.8-9.4,14.8-6.3,22.6
				c3,7.5,10.7,11.5,19.8,10.1c6.7-1,12.3-4,15.8-10.5c-2.3-1.4-4.3-2.7-6.4-3.9c-6.5,8.1-13.4,10.4-19.1,6.5
				c-3.5-2.4-5.3-5.9-4.3-9.9C295.7,179,297.9,175.8,299.7,172.2z"/>
		</g>
		<g id="Eye_White_4_">
			<path id="Eye_Inner" class="st4" d="M304.3,182.8c1.7-0.1,3.1-1,3.1-3.1c0-2.1-1.4-3.2-3.3-3.2c-2,0-3.2,1.3-3.1,3.3
				C301,181.7,302.1,182.7,304.3,182.8z"/>
			<path id="Eye_Inner_1_" class="st4" d="M464.8,224.1c-1.6,0-3.2,0-4.8,0c-0.2,0.3-0.3,0.5-0.5,0.8c0.9,0.7,1.8,1.8,2.7,1.8
				c1.1,0,2.1-1.1,3.2-1.6C465.1,224.8,464.9,224.5,464.8,224.1z"/>
			<path id="Eye_White_3_" class="st4" d="M329.3,192.1c-0.8,5.4-3.6,9-8,12.4c11.6,2.2,22.6,2.4,33.7,0.9c0.1-0.3,0.1-0.6,0.2-0.8
				C346.7,200.5,338.2,196.4,329.3,192.1z"/>
			<path id="Eye_White_1_" class="st4" d="M439.5,221.5c1.9,4.7,5.1,6.8,9.4,7.9c0-2.1,0-3.8,0-5.8
				C445.9,222.9,443,222.3,439.5,221.5z"/>
			<path id="Eye_White" class="st4" d="M480,235.5c6.8,2.3,14.1,3.1,20.8-1.6c6.1-4.2,7.9-10.6,8-17.4c-7.1,1.8-13.9,3.6-20.8,5.4
				c-0.8,0.2-1.8,0-2.5,0.4c-0.8,0.5-1.8,1.3-2.1,2.1C482.2,227.9,481.2,231.5,480,235.5z"/>
			<path id="Eye_White_2_" class="st4" d="M289.2,205.9c-12.6-12-13.8-29.6-1.4-43.1c-6.9-8.2-14.9-14.2-26.4-13.5
				c-3.6,0.2-6.1,1.5-7.6,5c-2.6,5.9-3.4,12.1-1.3,18.2c4.5,13.6,13.3,24,25.8,31C281.4,205,284.8,206.1,289.2,205.9z"/>
		</g>
	</g>
	<path id="Nose_Highlight" class="st4" d="M388.1,225.8c16.7-1.5,31.9,3.5,47,10.7c-0.5-3.9-2.4-6.4-5.3-7.7
		c-5-2.2-10.2-4.4-15.5-5.9c-6.1-1.7-12.3-2.8-18.5-3.9C390.2,217.9,387.7,220.1,388.1,225.8z"/>
	<path id="Chin_Line" class="st6" d="M463.1,328.8c-2.7-2.8-5.1-6-8.2-8.2c-18.6-13.1-39.3-18.9-62-17.5c-7,0.4-13.9,1.5-20.4,4.4
		c-1.9,0.8-3.6,2-5.4,3.5c33.4-1.7,65.1,4.1,95.2,18.6C462.6,329.5,462.8,329.2,463.1,328.8z"/>
	<path id="Forehead_Wrinkle" class="st6" d="M462,165.8c-2.9-6.4-9.9-8.9-15-7.8c-4,0.9-6.8,0.1-10.2-2.2c-10.4-6.9-22-7.5-33.9-5.3
		c-3.2,0.6-6.3,1.5-9.4,2.5c-2.2,0.8-2.8,0.2-3.5-2c-2.4-8.2-6.4-15.7-14.8-18.8c-5.3-2-8.7-5.9-12.8-9.1c-10-7.8-21.2-9.1-33.3-6.2
		c2.7,0.4,5.5,0.8,8.2,1.2c10,1.7,18.6,6.3,25.8,13.3c2.8,2.7,5.7,4.7,9,6.6c7.4,4.1,10.7,11.6,13.9,19c1,2.3,1.7,4.7,2.6,7.3
		c1-0.4,1.8-0.8,2.6-1.2c16-7.3,31.9-7.4,47.9,0c1.1,0.5,2.6,0.7,3.7,0.4c6.6-2.5,12.7-2.1,18.4,2.4
		C461.3,166,461.6,165.9,462,165.8z"/>
	<g id="Whiskers">
		<path id="Wisker_4_" class="st6" d="M321.7,225.7c0,2.2,2,4.3,4.1,4.4c2.2,0.1,4.5-2.2,4.5-4.3c0-2.1-2.1-4.3-4.2-4.4
			C323.9,221.3,321.7,223.4,321.7,225.7z"/>
		<path id="Wisker_3_" class="st6" d="M309.2,236.6c-1.4,0-3,0.4-3.1,2.7c-0.1,2.3,1.8,4.8,3.5,4.9c2,0.1,4.5-2.3,4.5-4.4
			C314.2,237.6,312.7,236.5,309.2,236.6z"/>
		<path id="Wisker_2_" class="st6" d="M341.1,234c-0.8,1.4-2.1,2.7-2.4,4.3c-0.4,1.6,2.6,4.4,3.8,3.7c1.1-0.7,2.2-2.4,2.1-3.7
			c-0.1-1.5-1.3-2.9-2.1-4.3C342,234,341.5,234,341.1,234z"/>
		<path id="Wisker" class="st6" d="M486.7,251.5c-0.2-2.9-1.3-4.5-3.3-4.4c-0.9,0.1-2.2,1.6-2.6,2.7c-0.5,1.7,1.5,3.9,3.1,3.5
			C485.1,253.1,486,252,486.7,251.5z"/>
		<path id="Wisker_1_" class="st6" d="M491.1,260.9c-1.3,1.5-2.7,2.3-2.8,3.2c-0.1,1.9,1.3,3.3,3.3,3c1.1-0.2,2.8-1.9,2.7-2.4
			C493.8,263.5,492.5,262.5,491.1,260.9z"/>
	</g>
</g>
</svg>
