<?xml version="1.0" encoding="utf-8"?>
<!-- Generator: Adobe Illustrator 26.5.0, SVG Export Plug-In . SVG Version: 6.00 Build 0)  -->
<svg version="1.1" id="BD-Head-Master" xmlns="http://www.w3.org/2000/svg" xmlns:xlink="http://www.w3.org/1999/xlink" x="0px"
	 y="0px" viewBox="0 0 600 600" style="enable-background:new 0 0 600 600;" xml:space="preserve">
<style type="text/css">
	.st0{fill:none;}
	.st1{fill:#999999;}
	.st2{fill:#FDFDFD;}
	.st3{fill:#333333;}
	.st4{fill:#191919;}
</style>
<rect id="_x31_200x1200_Background" class="st0" width="600" height="600"/>
<g id="BD-Head">
	<path id="Sillowette" d="M207.4,68.1c-9.2-0.1-21,4.7-21,14.3c0,4.1,1.2,14.2,8.9,25.2c-5.9,1.5-52.6-27.9-49-12.2
		c4.6,20,6.6,22.7,12.9,37.6c-8.3,8.3-23.7,22.3-30.1,29.9c-11.8,14-25.2,33.6-35.3,48.7c-16.3,0.3-29-0.7-43.3,1.9
		c-14.8,2.6,8.3,20.6,24.7,34.2c-2.6,5.8-7.8,18.2-10.8,25.5c-11,26.7-16.7,47.7-22.8,77.2c-10.5,6-23.9,15-31,21
		c-13.1,11,8.9,13,32.2,18.2c1.8,12.5,3.5,22.3,11,36.2c11.7,22,22.5,31.8,34.5,41.7C85,473.5,80,497,81,510.4
		c0,14.2,16.8,3.7,50.2-16.8c16.8,7.8,53.4,17.5,89.1,17.2c2.1,12.5,5.2,29.5,18.7,46.7c11.5,14.7,32.1-22.3,43.1-51.3
		c35.1-8.6,49.3-11.5,55.9-13.1c16.5-4.1,32-5.8,47.9-3.5c35.4,5.1,51,22.8,78.8,14.1c42.6-13.4,54.6-31.2,68-65.5
		c32.2-3.6,39-8.2,48.5-17.5c18.5-18.1,15-48.5-3.5-67.2c-2.2-2.2-4.5-4.3-6.9-6.2c-4.4-3.6-4.4-3.5-0.8-7.8
		c7-8.2,10.9-17.4,9.4-28.4c-0.2-2-0.5-4-1.3-5.8c-2.5-5.2-2.2-10.3-1.3-15.9c3-19.3-6.1-35.6-23.9-43.6c-2.9-1.3-3.8-2.7-3.2-5.7
		c1.5-8.1,1.7-16.3-0.2-24.4c-4-17.4-15.2-28.4-31.3-34.3c-5.4-2-7.8-4.4-8.5-10.3c-1.4-10.1-5.6-19.4-10.8-28.3
		c-0.6-1.1-1.2-2.1-2.1-3.6c5.9-0.4,11.3-0.1,16.6-1.1c12.8-2.2,20.2-10.2,19.4-21.1c-0.5-6.3-3.8-11.4-7.7-16.2
		c-8.2-9.9-18.9-17-30.2-22.8c-14.2-7.2-28.9-13.5-44.9-15.8c-22.5-3.2-42.6,1.8-59.5,17.6c-1.8,1.7-3.7,2.3-6.1,2.2
		c-8.5-0.4-17-0.7-25.4,0.5c-2.4,0.3-2.5-1.2-3.2-2.5c-9.5-18-23.7-30.7-42.9-37.5c-8-2.9-16.4-4.4-25-3.2
		c-1.2,0.2-21,6.2-27.4,12.5C238.4,74.4,217.2,68.2,207.4,68.1z"/>
	<g id="Gray_Parts">
		<g id="Head">
			<path id="Chin" class="st1" d="M411.8,394.3c1.5,2,3.6,3,5.8,4.1c5.4,2.6,11.3,3.6,17.1,4.4c17.2,2.1,33.1,7.6,47.6,17.5
				c3,2.1,2.6,3.1,0.4,5.1c-5,4.6-10.5,8.6-16.1,12.4c-5.4,3.6-11.2,6.4-17.8,10c17.8,0.9,31.9-5.5,44.6-15.6c2.2-1.8,4-2.4,6.7-1
				c5.5,2.7,11.4,4.5,17.3,5.5c3.8,0.6,4.2,1.9,3,5.2c-8.5,24.6-25.5,40.8-49.5,50c-14.2,5.5-29,7.2-43.2,0.4
				c-14.3-6.9-29.5-9.6-44.9-11.4c-23.3-2.6-46.6-4.4-69.9-7c-11.6-1.2-23.2-2.9-34.3-7.1c-3.4-1.3-4.5-2.1-1.9-5.6
				c10-13.6,16-29,19.9-45.5c2.6-11.1,3.7-22.5,4.2-34.2c5.1,2.4,9.9,4.9,15,6.2c22.5,5.8,44.7,3.6,66.4-3.1
				c20.3-6.4,39.9-14.8,59.6-22.8c14-5.7,28.3-9.5,43.6-9c12.8,0.5,23.1,5.7,31,15.8c5.5,7,9.7,14.9,13.8,22.8
				c1.5,3,2.8,6.2,5.2,9.2c-2-19.2-7.2-30.8-19.2-42.5c-6-5.8-6-5.8,1.9-8.6c25.7-9.2,51.8,2.8,60,27.6c6.8,20.3-3.5,43.2-26,48
				c-11.2,2.4-22.2,1.9-33.2-0.6c-13-3-25.1-8.9-36.7-15.1c-22.2-12-46.8-11.7-70.6-14.9C411.8,394.3,411.8,394.3,411.8,394.3z"/>
			<path id="Cheek" class="st1" d="M234.1,286.1c9.8-10,19.6-20,29.2-30c15.4-15.9,31.1-31.1,49.5-43.6
				c26.2-17.9,51.2-10.4,67.8,9.6c6,7.3,12.5,14.1,18.9,21.1c6.9,7.6,15.5,9.4,25,8.3c6.3-0.7,12.4-2.6,18.5-4.2
				c6.6-1.8,13.4-3.7,20.4-2.6c12.2,1.9,21.9,8.1,29.5,17.5c10.9,13.6,11.5,32.3,1.9,45.2c-9.9,13.3-29.7,16.3-39.8,0
				c-2.2-3.6-5-6.9-7.4-10.4c-6.4-9.4-15-14.4-26.5-15c-7-0.4-14.1-0.5-21.1-0.1c-14.8,0.9-27.1-2.8-34.3-17.1c-0.8-1.5-2-2.7-3.2-4
				c-11-11.9-26.5-15.2-41.3-8.6c-14.2,6.4-22.7,17.8-27.8,32c-8.2,23-9.1,46.6-6.5,70.6c1.8,16.5,2.2,33-0.6,49.4
				c-3.4,19.6-10.5,37.7-22.7,53.6c-1.2,1.6-2.2,3.3-4.9,3.3c-28.4-0.1-55.9-4.8-81.4-18c-27-14.1-38.4-36-35-66.2
				c2.2-19.9,11.1-36.9,23.4-52.1c20.7-25.5,47.3-43.9,75.1-60.5c1.6-1,3.2-2.6,5.9-2c-6.4,8.5-13.6,16.4-17.6,27.1
				C231.8,288.6,232.9,287.3,234.1,286.1z"/>
			<path id="Upper_Lip" class="st1" d="M515.3,299.3c-1.8-1-3.5-2.4-5-3.9c-2-2.1-1.3-6.5,0.8-7.1c16-4.8,29.2-13.2,36.5-29
				c1-2,1.8-1.5,3.2-0.6c9.4,5.9,14,14.4,14.2,25.4c0.2,9.5-4.3,15.5-13.1,18.9c-4.5,1.6-8.9,2.6-11.7,2.5
				C530.1,305.5,522.5,303.4,515.3,299.3z"/>
			<path id="Eye_Lid" class="st1" d="M367.9,174c-8.8,1.8-16,6.4-20,14.2c-2.6,5.1-5.9,6.2-10.8,5.9c-2-0.1-3.1-0.4-4-2.2
				c-4.6-9.2-5.8-18.8-1.9-28.6c1.5-3.9,3.9-7.4,8-8.8c6.9-2.3,13.8-2.6,20.6,0.4c9,4,15.5,11,22.8,18.8
				C377,173.8,372.4,173.1,367.9,174z"/>
			<path id="Forehead" class="st1" d="M417,100.9c22.9,6.5,44,16.2,60.4,34.2c15.2,16.8,23.5,36.3,21.1,59.5
				c-0.3,2.8-0.6,5.7,0.2,9.1c1.9-2.1,3.2-3.9,4.8-5.6c5-5.1,9.5-5.7,15.6-2.3c2.1,1.1,4.2,2.4,6,3.9c9.8,7.8,13.8,18,13.2,30.7
				c-18.7-8.5-37.2-7.5-56.3-1.4c4.5-12.1,4.9-23.2-1.5-34c-3.5-5.8-8-10.6-13-15c-11.6-10.4-24.9-19.1-33.1-33
				c1.5,6.7,5.1,12.1,9.2,17.4c6,7.8,13.8,13.8,20.6,20.7c15.4,15.8,14.5,34.2,5.2,48.7c-0.8,1.1-1.5,3.1-2.9,2.8
				c-4.6-1.1-9.5,0.4-14-2.2c-13.5-7.8-24.5-18.5-34.8-30.1c-11.4-12.8-20.4-27.5-32.1-39.9c-9-9.6-18.6-18.6-32.5-19.8
				c-16.9-1.4-27.5,4.9-31.4,20.9c-2.6,10.9-1.5,21.2,5.2,30.9c-7.6,2.9-14.7,6.7-21.4,11.1c-6.7,4.4-13,9.5-19.1,14.8
				c-5.3,4.6-10.4,9.4-17.1,12.1c-8.2,3.3-15.9,7.9-23.6,12.2c-23.6,13.2-46.1,27.9-66.4,45.8c-11.4,10-21.6,21-30.8,34
				c-0.1-1.5-0.2-2.1-0.1-2.7c2.5-20,8.6-38.5,20.9-54.6c1.6-2,2.5-4.2,3-6.9c4.1-23.4,15.1-43,33.4-58.2
				c10.9-9.1,22.9-16.9,33-27.1c13.6-13.9,25-28.9,24.4-49.8c0-1.2,0.1-2.1,1.4-2.8c7.7-3.9,15.1-8.2,24.1-8.3
				c2.6-0.1,5.5,0.2,8.1-1.1c-1.2-2.2-3-2.7-4.8-3.1c-10.5-2.8-21-2.4-31.2,1.2c-15.2,5.4-29.9,4.3-44.2-2.8
				c-8.9-4.5-15.6-11.1-18.4-21c-1.7-5.9-0.1-8.6,5.9-9.6c6.6-1.2,13.2-0.9,19.9-0.3c10.2,0.9,19.7-1.1,28.4-6.5
				c6.1-3.8,11.9-8,17.9-12c13.5-9.1,28-11.4,43-4.7c22,9.7,36.9,25.9,44,49.1c0.9,2.8,1,5.8,3,8.4c1-3.3,1.9-6.2,2.6-9.3
				c0.3-1.3,0.5-2.8,0.3-4.2c-0.4-3.1,0.8-3.8,3.8-3.6c20.6,1.6,38,9.8,51.9,25.4c1.3,1.4,2.4,3.3,5.2,4.5c-1-2.4-1.6-4.2-2.5-5.7
				c-4.5-8.4-10.5-15.6-18.8-22.5C408.1,98.1,412.5,99.7,417,100.9z"/>
			<path id="Ear" class="st1" d="M448,75.1c19.9,3.1,37.7,11.3,54.4,22.2c6.2,4.1,11.7,8.8,15.7,15.2c4.2,6.7,2.7,11-5,12.8
				c-8.8,2.1-17.7,1.2-26.5-0.1c-1.4-0.2-2.2-1.2-3.1-2.1c-14.8-14.5-32.5-24-51.9-31c-8.4-3.1-17-5.1-26.3-7.4
				C418.9,75.2,433,72.8,448,75.1z"/>
		</g>
	</g>
	<g id="White_Parts">
		<g id="Spikes">
			<path id="Spike_00000041292950597516356200000002455401688892479400_" class="st2" d="M228.6,492.9c0-5.4,2.5-8.9,7.6-10.4
				c10.6-3.1,20.7-2,30.1,3.7c6.8,4.1,9,9.8,7,17.4c-4.5,15.9-11.5,30.6-21.8,43.6c-5.2,6.6-7.4,6.4-11.6-0.7
				c-0.7-1.2-1.4-2.5-1.9-3.8c-6-13.6-9.1-27.8-9.8-42.6C228.4,497.6,228.6,495.2,228.6,492.9z"/>
			<path id="Spike_00000064318660959273555340000011029414718169988529_" class="st2" d="M94.1,473c2.7-8.1,5.9-16.1,11.1-23.1
				c4.8-6.7,7.5-7.5,15-4.1c7.9,3.5,14.3,9,18.9,16.4c3.9,6.5,3.4,10.6-2.1,15.7c-13.2,12-28.4,21.2-44.4,29c-4.4,2.1-5,1.6-4.8-3.3
				C88.1,493,90.8,482.9,94.1,473z"/>
			<path id="Spike_00000111175258037863882070000006061723647397937026_" class="st2" d="M22.8,372.1c11.1-8,23.4-14.1,36-19.6
				c9.1-4,18.3-7.3,28.1-8.9c6.8-1,9.6,0.3,12.1,6.9c3.2,8.1,3.4,16.5,0.8,24.9c-1.9,6.1-5.4,8.5-11.9,8.8c-16.6,0.6-33-1.3-49.2-4
				c-6.5-1-13-2-19.1-4.8C20.1,373.8,21.5,373,22.8,372.1z"/>
			<path id="Spike" class="st2" d="M96.3,220.9c11.3,1.4,22.6,3.1,33.2,7.9c4.1,1.9,5.3,4.9,4.8,8.9c-0.9,6.4-3.4,12.1-7.8,17
				c-5.9,6.5-10.2,7.4-18,3.3c-14.8-7.8-28.3-17.4-41.5-27.6c-3.9-3-7.8-6.1-11.5-10.4C69.7,218.6,83,219.2,96.3,220.9z"/>
			<path id="Spike_00000098943791795790263770000007251386862308892862_" class="st2" d="M160.2,102.2c12.9,4.7,24.8,11.5,36.6,18.3
				c6.9,3.9,13.7,7.8,19.6,13.2c3.6,3.4,4.3,7.1,2.2,11.4c-3.4,7.4-8.8,12.7-16.1,16.1c-5.7,2.6-10.8,2.1-15.5-2.4
				c-6.2-6.1-11.1-13.1-15.4-20.6c-6.8-11.6-12.8-23.5-16.1-37.5C157.6,101.4,158.9,101.8,160.2,102.2z"/>
		</g>
		<g id="Teeth">
			<path id="Lower_Big_Teeth" class="st2" d="M300.6,298.6c7.5,8.7,10.2,12.5,17.4,23.2c10.3,14.5,10.5,17,23.8,2.8
				c5-5.4,7.1-8.4,14.1-15.5c2.9-3.1,4.1-4.2,7.8,1c0.2,0.4,0.4,0.8,0.5,1.1c3.9,7,8.9,14.8,13.3,21.5c4.7,7.3,8.7,8,15.6,3
				c5.5-4,9.7-9.5,14.5-14.2c3-3,5.7-4.3,7.9-1.3c3.4,5.1,6.8,11.4,10.5,17c7.9,12,12.4,10.8,18.5,3.5c3.7-4.4,5.6-7.8,9.8-12.3
				c2.5-3,4.6-4.4,8.1,2c2.8,4.6,6.9,13.6,11.2,14.5c0,0-7,0.5-8.5,0.8c-10.8,1.9-20.9,5.8-31,9.7c-20.7,8.1-41,17.6-62.6,23
				c-17.2,4.2-34.6,5.6-52,1.1c-15.7-4.1-23.4-10.3-24.6-26.3c-1.5-19-1.1-37.8,3.5-57.1C299.5,297.4,300.1,298,300.6,298.6z"/>
			<path id="Upper_Big_Teeth" class="st2" d="M402.6,290.2c4.4,0,8.8,0.1,13.1,0c11.8-0.4,20.6,4.1,26.8,14.4
				c5.8,10.1,12,14.6,13.3,15.2c-3.4,2-4.2,3.3-5.9,5.2c-4.8,6-6.2,7.9-11.1,13.5c-2,1.5-3.9,0-5.8-2.7c-4.3-6.1-8.6-14-12.8-20
				c-5.2-6.9-6.7-8.2-15.1-0.1c-4.1,3.9-8.5,9.5-13,13c-6.7,5.3-6.8,5.5-10.7-2.3c-4.6-8-9.9-15.5-14-23c-4.2-5.6-8.5-7.1-15.5,1
				c-6,7.4-12.3,14.6-19.3,20.6c-3.4,2.4-4.4-1-7.3-5c-8.8-11.3-14.9-19.9-22.8-29.1c-1.1-1.4-1.4-2.6-0.6-4.2
				c2.7-6,5.4-12.1,9.9-17.1c9.8-10.9,26.1-17.1,40-6.6c4.1,3.1,7.1,7.1,9.9,11.5c6,9.4,14.5,14.9,25.7,15.6c5,0.4,10.1,0,15.2,0
				C402.6,290,402.6,290.1,402.6,290.2z"/>
			<path id="Small_Tooth" class="st2" d="M560,333.5c-3.3,3.1-4.5,4.5-7.8-1c-3.2-6-8.2-17.7-12.8-18.8c9.8-0.2,18.1-3.5,25.5-9
				C569.3,314.7,567.5,325.9,560,333.5z"/>
			<path id="Small_Tooth_00000176745456225691667590000008746361511290254734_" class="st2" d="M503.5,346.8c-1,0.6-1.9,1-3.1,0.5
				c-3.6-1.6-7.5-2.6-11.4-2.9c-4.9-0.2-4.1-0.1-6.1,0c4-1.8,8.4-11.8,11.4-17.5c2.5-4.8,5.3-6.6,9.4-1.5c5,6.2,7.1,13.8,12.6,15
				C511.8,342.4,507.1,344.5,503.5,346.8z"/>
			<path id="Small_Tooth_00000010275980468834045570000004816705062781485477_" class="st2" d="M522.3,330.7c-3.7,6.6-6,5.6-8.3,1.8
				c-2.4-3.3-5-8.5-7.5-11.1c-2.5-2.8-5.6-5.3-8-5.5c2.6-3,5.7-8.4,7.7-11.8c0-0.1,0.2-0.1,0.4-0.3c8.1,6,17.3,9.2,28.1,10.3
				C531.6,314.9,528,321.2,522.3,330.7z"/>
			<path id="Small_Tooth_00000161626082163409758430000011821844150332903344_" class="st2" d="M483.1,335.7c-1.4,2.2-3.1,5.1-5,5.2
				c-1.8,0-4.4-2.3-5.5-4.1c-2.6-4.2-6.6-11.9-8.2-12.8c5.5,1.7,17,3.5,27.5-3.5C489.6,322.5,486.2,330.8,483.1,335.7z"/>
			<path id="Small_Tooth_00000131366063733043193380000002377201516829066120_" class="st2" d="M538.2,318.9
				c3.3,0.5,9.2,17.4,11,18.4c-8.3-2.5-18.3-0.5-26,1.2C525.2,337.3,533.9,316.8,538.2,318.9z"/>
		</g>
		<g id="Eye">
			<path id="Eye_White" class="st2" d="M381.5,182.4c6.2,1.2,11.6,3.2,15.3,9.2c3.5,5.1,7.5,9.9,11.4,14.7c4.9,5.9,7.6,8.8,10,11.2
				c-5.5-0.6-19.7,6.1-16.3,16.1c-3.8-3.8-6.1-6.4-9.9-11.2c-9.6-12.3-20.6-22.9-36.5-26.8c-2.4-0.6-1.5-1.9-0.7-3.1
				c4.8-7.4,11.6-10.9,21.1-10.9C377.3,181.9,379.5,181.9,381.5,182.4z"/>
			<path id="Eye_White_Small" class="st2" d="M434,237.6c0.4,3.1-2.2,3.1-4,3.8c-1,0.4-2.2,0.6-3.3,0.8c-3,0.6-4.5-1.1-4-4.1
				c0.6-3.1,2.8-4.4,5.8-4.4C431.6,233.6,433.6,235.1,434,237.6z"/>
		</g>
	</g>
	<path id="Collar" class="st3" d="M248.2,128.9c1.9-0.1,1.8,1.4,1.7,2.7c-0.1,6.9-2.8,12.9-6.3,18.6c-9.6,15.6-23.4,26.9-37.9,37.3
		c-23.1,16.7-39.1,38.2-45,66.6c-0.9,4.4-2.4,8.5-4.9,12.3c-16.7,24.6-22.5,52.1-21,81.5c0.1,2.1,0.2,4.3-0.6,6.2
		c-5.5,13.6-5.9,27.9-4.8,42.1c1.6,19.5,10.3,35.4,25.8,47.6c19.6,15.5,42.3,22.9,66.6,27c4.6,0.8,9.1,1.6,14.3,2.5
		c-12.1,5.4-14.1,7.5-15.8,17.4c-0.5,2.9-0.8,5.9-0.6,8.9c0.2,3.1-1.2,3.5-3.8,3.4c-6.2-0.2-12.4-0.3-18.6-0.9
		c-18.9-1.7-37.2-5.9-55.1-12.4c-3.9-1.4-3.8-2.1-0.9-4.6c10.1-9,11.1-16.1,5-26.9c-5.7-10.1-14.6-17.1-25.4-21.2
		c-9.2-3.4-14.1-1.9-20.6,5.6c-3.4,4-6.1,8.5-8.2,13.2c-1.2,2.9-2.4,3.6-5.1,1.1c-4.2-3.8-8.1-7.9-11.7-12.2
		c-12.3-14.8-20-31.9-23.5-50.8c-0.4-2.1,0-3.3,2.3-3.1c1.2,0.1,2.5,0,3.8,0.2c10.2,1.6,20.5,1.5,30.8,1.5c8.2-0.1,13.9-4,17.3-11.3
		c4.4-9.4,4.6-19.1,2.1-29c-3.6-14.5-11.7-20.1-26.4-16.2c-8.6,2.2-16.8,5-25,8.2c-2.8,1.1-3-0.1-2.7-2.1c0.6-2.8,1.5-5.4,2.2-8.1
		c6.1-26.6,15.6-52,26.8-76.9c1.3-3.1,2.7-2.9,5.1-1.4c4.8,3,9.7,5.8,14.4,8.7c14.7,9,24.8,2.8,32.1-6.8c4.4-5.8,6.9-12.2,7.9-19.4
		c1.1-7.7-2.6-14.2-9.9-17.2c-6.2-2.5-12.5-4.2-18.9-5.8c-2.1-0.6-5.3,0.1-6.1-1.9c-0.8-2.2,1.9-4.1,3.2-6.1
		c14.5-22.6,31.8-43,51-61.8c2.2-2.2,3.4-2,4.9,0.7c1.9,3.4,4.3,6.6,6.6,9.8c2.4,3.1,4.9,6.1,7.8,8.9c6.9,6.6,14.9,7.9,23.4,4.6
		c9.1-3.6,15.9-10.1,20.4-18.7c4.6-8.8,4.3-17.1-3.7-24.6C230.6,128.8,239.4,129.2,248.2,128.9z M324,488.2
		c-13.6-1.9-27.1-3.5-40.4-6.8c-4.9-1.2-9.5-3.1-13.8-5.9c-3.2-2-6.3-3.2-10.2-2c3.6,2.1,7.8,3,11.4,5.4c5.9,3.9,9.9,9,11.2,16
		c0.3,1.6,0.8,2.6,2.6,2.2C297.9,494.5,311.1,492.3,324,488.2z"/>
	<path id="Nose_Tip" class="st4" d="M507.6,275.8c0,0,28.6-2.2,30.6-32.8c0.2-3.1-29.2-19.6-59-1.4
		C505,255.1,507.6,275.8,507.6,275.8z"/>
</g>
</svg>
