<?xml version="1.0" encoding="utf-8"?>
<!-- Generator: Adobe Illustrator 26.5.0, SVG Export Plug-In . SVG Version: 6.00 Build 0)  -->
<svg version="1.1" id="Banner_00000002370928143762477440000003144886751426026925_"
	 xmlns="http://www.w3.org/2000/svg" xmlns:xlink="http://www.w3.org/1999/xlink" x="0px" y="0px" viewBox="0 0 600 600"
	 style="enable-background:new 0 0 600 600;" xml:space="preserve">
<style type="text/css">
	.st0{fill:#231F20;stroke:#FFFFFF;stroke-miterlimit:10;}
	.st1{fill:#FFFFFF;}
	.st2{fill:#231F20;}
	.st3{fill:#989898;}
	.st4{fill:#58595B;}
	.st5{fill:#191919;}
	.st6{fill:#3A3B3A;stroke:#989898;stroke-width:0.75;stroke-miterlimit:10;}
	.st7{fill:#B0B0B0;stroke:#231F20;stroke-miterlimit:10;}
	.st8{fill:#FFFFFF;stroke:#939598;stroke-width:0.25;stroke-miterlimit:10;}
</style>
<rect width="600" height="600"/>
<g id="BD_Wrestling_Logo">
	<g id="Banner">
		<path id="White_Banner_Rim" class="st0" d="M25,394.4v-2c-0.1-46-0.1-133.7,0-153.9v-2l2,0.4c92,19.1,184.5,25,263.9,25
			c41.9,0,80.1-1.6,112.6-3.9c53.4-3.7,97.4-9.2,125-13.2c29.9-4.4,47.4-7.9,47.5-7.9l2-0.4v157.7l-2-0.4c-0.2,0-17.7-3.7-47.5-8.3
			c-27.6-4.2-71.6-10-125-13.8c-32.3-2.3-70.2-4-111.7-4c-79.6,0-172.4,6.2-264.8,26.4L25,394.4z M28.3,240.5
			c-0.1,23-0.1,104.7,0,149.8C90,377,157,368.7,227.4,365.6c57-2.5,116.3-1.6,176.4,2.7c53.5,3.8,97.6,9.6,125.3,13.9
			c24.1,3.7,40.2,6.8,45.7,7.9V240.4c-5.4,1-21.5,4-45.7,7.6c-27.6,4-71.8,9.6-125.3,13.3c-60.1,4.1-119.4,5-176.4,2.7
			C157,261,90,253.1,28.3,240.5z"/>
		<g id="WRESTLING_CLUB">
			<g>
				<path class="st1" d="M41.1,282c0-6.9,0-13.8,0-20.6c6.2,1,12.3,1.9,18.5,2.8c0,6.5,0,13,0,19.5c-1.5-0.1-3.1-0.3-4.6-0.4
					c0.8,10,1.6,19.8,2.4,29.7c2.3-9.8,4.6-19.4,6.9-28.8c2.3,9.8,4.6,19.4,6.9,28.8c0.8-9.4,1.6-18.8,2.4-28.1
					c-1.5-0.1-3.1-0.3-4.6-0.4c0-6.3,0-12.6,0-19c6.2,0.9,12.4,1.7,18.6,2.5c0,6,0,12,0,18c-1.5-0.1-3.1-0.2-4.6-0.4
					c-1.5,18.1-3.1,36.4-4.6,55c1.5-0.1,3.1-0.2,4.6-0.4c0,6.1,0,12.1,0,18.2c-6,0.8-11.9,1.6-17.9,2.5c0-6.4,0-12.8,0-19.2
					c1.3-0.1,2.6-0.2,4-0.3c-1.5-6.2-3.1-12.5-4.6-18.8c-1.5,6.5-3.1,13-4.6,19.6c1.3-0.1,2.6-0.2,4-0.3c0,6.4,0,12.8,0,19.3
					c-6,0.9-11.9,1.8-17.9,2.7c0-6.8,0-13.6,0-20.3c1.5-0.1,3.1-0.3,4.6-0.4c-1.5-19.9-3.1-40.1-4.6-60.6
					C44.2,282.3,42.6,282.1,41.1,282z"/>
				<path class="st1" d="M92.4,357.2c0-5.9,0-11.8,0-17.7c1.5-0.1,3.1-0.2,4.6-0.3c0-17.5,0-34.9,0-52.4c-1.5-0.1-3.1-0.2-4.6-0.3
					c0-5.9,0-11.8,0-17.7c8.4,1.1,16.7,2,25.1,3c2.5,4.7,5,9.3,7.4,13.8c0,7.6,0,15.1,0,22.7c-0.9,1.6-1.9,3.2-2.8,4.9
					c0.9,1.6,1.9,3.2,2.8,4.9c0,6.5,0,13,0,19.4c1.6-0.1,3.1-0.2,4.7-0.3c0,5.3,0,10.7,0,16c-6,0.6-12,1.3-17.9,2
					c0-5.6,0-11.2,0-16.8c1.3-0.1,2.7-0.2,4-0.3c0-5.5,0-11.1,0-16.6c-3.1,0.1-6.2,0.1-9.3,0.2c0,5.7,0,11.3,0,17
					c1.3-0.1,2.7-0.2,4-0.3c0,5.6,0,11.2,0,16.8C104.3,355.7,98.3,356.4,92.4,357.2z M106.3,304.4c3.1,0.1,6.2,0.1,9.3,0.2
					c0-5.5,0-11.1,0-16.6c-3.1-0.2-6.2-0.4-9.3-0.6C106.3,293.1,106.3,298.7,106.3,304.4z"/>
				<path class="st1" d="M134.5,352.4c0-5.3,0-10.5,0-15.8c1.6-0.1,3.1-0.2,4.7-0.3c0-15.6,0-31.2,0-46.8c-1.6-0.1-3.1-0.2-4.7-0.3
					c0-5.3,0-10.5,0-15.8c10.9,1.1,21.7,2.1,32.6,3c0,7.3,0,14.6,0,21.9c-3.1-0.1-6.2-0.2-9.3-0.3c0-2.5,0-5,0-7.5
					c-3.1-0.2-6.2-0.3-9.3-0.5c0,5.1,0,10.2,0,15.3c3.1,0.1,6.2,0.1,9.3,0.2c0,5,0,9.9,0,14.9c-3.1,0.1-6.2,0.1-9.3,0.2
					c0,5.1,0,10.2,0,15.3c3.1-0.2,6.2-0.3,9.3-0.5c0-2.5,0-5,0-7.5c3.1-0.1,6.2-0.2,9.3-0.3c0,7.3,0,14.6,0,21.9
					C156.2,350.3,145.3,351.3,134.5,352.4z"/>
				<path class="st1" d="M172,327.4c3.1-0.1,6.2-0.2,9.3-0.3c0,2.4,0,4.7,0,7.1c3.1-0.1,6.2-0.3,9.3-0.4c0-4.6,0-9.3,0-13.9
					c-3.7,0-7.5,0.1-11.2,0.2c-2.5-3.8-5-7.6-7.5-11.5c0-6.7,0-13.5,0-20.2c2.5-3.7,5-7.4,7.5-11c4.3,0.3,8.7,0.6,13.1,0.9
					c2.5,3.9,5,7.7,7.5,11.4c0,3.2,0,6.4,0,9.6c-3.1-0.1-6.2-0.2-9.3-0.2c0-2.3,0-4.6,0-7c-3.1-0.1-6.2-0.3-9.3-0.4
					c0,4.7,0,9.5,0,14.2c3.7,0.1,7.4,0.1,11.1,0.2c2.5,3.7,5.1,7.4,7.6,11c0,6.4,0,12.8,0,19.2c-2.5,3.8-5,7.6-7.5,11.4
					c-4.4,0.3-8.7,0.6-13.1,0.9c-2.5-3.6-5-7.3-7.5-11C172,334.1,172,330.7,172,327.4z"/>
				<path class="st1" d="M214.3,346.3c0-4.5,0-8.9,0-13.4c1.6,0,3.1-0.1,4.7-0.1c0-13.3,0-26.5,0-39.8c-1.6,0-3.1-0.1-4.7-0.1
					c0,2.2,0,4.5,0,6.7c-3.1-0.1-6.2-0.1-9.3-0.2c0-6.8,0-13.6,0-20.4c12.4,0.7,24.9,1.3,37.3,1.7c0,6.4,0,12.9,0,19.3
					c-3.1,0-6.2-0.1-9.3-0.1c0-2.2,0-4.3,0-6.5c-1.6,0-3.1-0.1-4.7-0.1c0,13.1,0,26.2,0,39.3c1.6,0,3.1-0.1,4.7-0.1
					c0,4.3,0,8.7,0,13C226.7,345.7,220.5,346,214.3,346.3z"/>
				<path class="st1" d="M247.2,344.9c0-4.3,0-8.5,0-12.8c1.6,0,3.1-0.1,4.7-0.1c0-12.8,0-25.5,0-38.3c-1.6,0-3.1-0.1-4.7-0.1
					c0-4.3,0-8.5,0-12.8c6.2,0.2,12.4,0.4,18.7,0.5c0,4.2,0,8.4,0,12.6c-1.6,0-3.1,0-4.7-0.1c0,12.7,0,25.3,0,38
					c3.1,0,6.2-0.1,9.3-0.1c0-2.1,0-4.2,0-6.3c3.1,0,6.2,0,9.3-0.1c0,6.3,0,12.5,0,18.8C269,344.4,258.1,344.6,247.2,344.9z"/>
				<path class="st1" d="M284.9,344.2c0-4.2,0-8.3,0-12.5c1.6,0,3.1,0,4.7,0c0-12.5,0-25,0-37.5c-1.6,0-3.1,0-4.7,0
					c0-4.2,0-8.3,0-12.5c6,0.1,12,0.1,18,0.1c0,4.2,0,8.3,0,12.5c-1.3,0-2.7,0-4,0c0,12.5,0,24.9,0,37.4c1.3,0,2.7,0,4,0
					c0,4.2,0,8.3,0,12.5C296.9,344.1,290.9,344.1,284.9,344.2z"/>
				<path class="st1" d="M307.8,344.1c0-4.2,0-8.3,0-12.5c1.6,0,3.1,0,4.7,0c0-12.5,0-25,0-37.5c-1.6,0-3.1,0-4.7,0
					c0-4.2,0-8.3,0-12.5c4.7,0,9.3-0.1,14-0.1c4.7,11.9,9.3,23.8,14,35.8c0-7.8,0-15.6,0-23.5c-1.6,0-3.1,0-4.7,0.1
					c0-4.2,0-8.4,0-12.6c6.2-0.1,12.4-0.3,18.7-0.5c0,4.3,0,8.5,0,12.8c-1.6,0-3.1,0.1-4.7,0.1c0,17,0,33.9,0,50.9
					c-3.1-0.1-6.2-0.2-9.3-0.2c-4.7-12.1-9.3-24.1-14-36c0,7.8,0,15.5,0,23.3c1.6,0,3.1,0,4.7,0c0,4.2,0,8.4,0,12.6
					C320.3,344.2,314.1,344.1,307.8,344.1z"/>
				<path class="st1" d="M362.3,345.3c-2.5-3.5-5-7.1-7.5-10.5c0-14.5,0-29.1,0-43.6c2.5-3.5,5-7,7.5-10.5c4.4-0.2,8.7-0.3,13.1-0.5
					c2.5,3.4,5,6.8,7.5,10.3c0,3.1,0,6.2,0,9.3c-3.1,0.1-6.2,0.1-9.3,0.2c0-2.2,0-4.4,0-6.6c-3.1,0.1-6.2,0.2-9.3,0.2
					c0,13,0,25.9,0,38.9c3.1,0.1,6.2,0.2,9.3,0.2c0-4.4,0-8.8,0-13.1c-1.6,0-3.1,0-4.7,0c0-4.3,0-8.7,0-13c4.7,0,9.3-0.1,14-0.1
					c0,9.8,0,19.5,0,29.3c-2.5,3.5-5,6.9-7.5,10.3C371,345.6,366.6,345.4,362.3,345.3z"/>
				<path class="st1" d="M421.5,348.6c-2.5-4-5-7.9-7.5-11.8c0-15.9,0-31.8,0-47.8c2.5-3.9,5-7.8,7.5-11.8c4.3-0.3,8.7-0.7,13-1
					c2.5,3.7,5,7.5,7.5,11.3c0,3.5,0,7,0,10.4c-3.1,0.1-6.2,0.2-9.3,0.3c0-2.4,0-4.9,0-7.3c-3.1,0.1-6.2,0.3-9.3,0.4
					c0,14.3,0,28.6,0,42.9c3.1,0.1,6.2,0.3,9.3,0.4c0-2.4,0-4.9,0-7.3c3.1,0.1,6.2,0.2,9.3,0.3c0,3.5,0,7,0,10.4
					c-2.5,3.8-5,7.6-7.5,11.3C430.2,349.2,425.9,348.9,421.5,348.6z"/>
				<path class="st1" d="M447,350.6c0-5,0-10.1,0-15.1c1.6,0.1,3.1,0.2,4.7,0.3c0-15.3,0-30.5,0-45.8c-1.6,0.1-3.1,0.2-4.7,0.3
					c0-5,0-10.1,0-15.1c6.2-0.6,12.4-1.1,18.6-1.8c0,5.3,0,10.5,0,15.8c-1.6,0.1-3.1,0.2-4.7,0.3c0,15.6,0,31.2,0,46.8
					c3.1,0.2,6.2,0.4,9.3,0.6c0-2.7,0-5.3,0-8c3.1,0.1,6.2,0.3,9.3,0.4c0,8.2,0,16.4,0,24.6C468.7,352.7,457.8,351.6,447,350.6z"/>
				<path class="st1" d="M484.5,271.4c6-0.7,11.9-1.4,17.9-2.1c0,5.8,0,11.6,0,17.4c-1.3,0.1-2.7,0.2-4,0.3c0,17.2,0,34.5,0,51.7
					c3.1,0.2,6.2,0.5,9.3,0.7c0-17.7,0-35.4,0-53.1c-1.3,0.1-2.7,0.2-4,0.3c0-5.8,0-11.7,0-17.5c6-0.7,11.9-1.5,17.9-2.3
					c0,6.1,0,12.3,0,18.4c-1.5,0.1-3.1,0.2-4.6,0.4c0,19.4,0,38.8,0,58.2c-2.5,4.6-4.9,9.2-7.4,13.6c-4.3-0.6-8.7-1.1-13-1.6
					c-2.5-4.9-5-9.6-7.4-14.3c0-17.9,0-35.9,0-53.8c-1.5,0.1-3.1,0.2-4.6,0.3C484.5,282.5,484.5,277,484.5,271.4z"/>
				<path class="st1" d="M526.5,359.7c0-6.2,0-12.5,0-18.7c1.5,0.1,3.1,0.3,4.6,0.4c0-19,0-37.9,0-56.9c-1.5,0.1-3.1,0.3-4.6,0.4
					c0-6.2,0-12.5,0-18.7c8.3-1.2,16.7-2.4,25-3.7c2.5,5,4.9,10.1,7.4,15.3c0,9.6,0,19.2,0,28.9c-1.5,2.1-3.1,4.2-4.6,6.2
					c1.5,2,3.1,4.1,4.6,6.2c0,9.6,0,19.2,0,28.9c-2.5,5.2-4.9,10.3-7.4,15.3C543.2,362,534.9,360.8,526.5,359.7z M540.4,303.2
					c3.1-0.1,6.2-0.2,9.3-0.3c0-6.7,0-13.4,0-20c-3.1,0.3-6.2,0.6-9.3,0.8C540.4,290.2,540.4,296.7,540.4,303.2z M540.4,342.2
					c3.1,0.3,6.2,0.5,9.3,0.8c0-6.7,0-13.4,0-20c-3.1-0.1-6.2-0.2-9.3-0.3C540.4,329.2,540.4,335.7,540.4,342.2z"/>
			</g>
		</g>
	</g>
	<g id="BD-Body">
		<path id="Outline" class="st2" d="M469.4,494.3c-0.9-1-1.1-2.2-1.1-3.5c0-3.4-0.9-6.6-2.2-9.7c-1.5-3.6-3.6-6.8-6.8-9.2
			c-2.6-1.9-3.6-5-4.6-8c-0.7-2.1-1.2-4.4-2.3-6.3c-3.9-6.9-9.4-11.9-16.2-15.6c-3.5-1.9-7.1-3.6-10.7-5.3c-1.7-0.8-2.9-1.9-3.7-3.7
			c-2.9-6.3-7.1-11.4-12.6-15.5c-1.8-1.4-3.8-2.6-5.8-3.9c1.3-1.2,2.7-1.2,4.2-1.3c2.5,0,5,0.4,7.4,0.1c4.2-0.5,6.1-4.4,4-8
			c-0.6-1.1-1.3-2-2.2-2.9c-5.9-5.7-12.9-8.3-21.1-7.2c-5.1,0.7-9.1,3.3-11.6,8c-0.9,1.7-0.9,1.7-2.5,0.9
			c-14.9-7.2-30-14.2-44.6-22.2c-0.4-0.2-0.7-0.4-1-0.8c-5.2-6.7-11.1-12.5-18-17.4c-14-10.1-29.4-14.8-46.7-11.9
			c-5.9,1-11.5,2.8-16.4,6.5c-0.3,0.2-0.6,0.2-0.9,0.2c-2.2-0.3-4.2,0.1-6.3,0.8c-4.8,1.8-8.4,5-10.8,9.6c-0.2,0.3-0.2,0.7-0.8,0.6
			c-2.1-0.3-4.2-0.2-6.4-0.1c-0.6,0-1.1-0.1-1.5-0.6c-4.2-4-9.3-5.3-14.9-4.5c-4,0.6-7.7,2.2-11.3,4c-2.9,1.5-5.5,3.3-7.6,5.8
			c-1,1.2-1.8,2.5-1.9,4.1c-0.2,2.8,1.7,4.8,4.9,5.4c1.4,0.2,2.7,0.2,4.2,0.3c-0.2,0.4-0.4,0.7-0.5,0.9c-1.3,2.3-2.4,4.6-2.7,7.2
			c-0.2,1.5-0.8,2.1-2.2,2.6c-4.1,1.5-6.9,4.3-7.9,8.8c-0.5,2.1-0.4,4.1,0,6.2c0.1,0.8-0.1,1.1-0.8,1.4c-4.5,2-6.8,6.2-6,11.1
			c0.2,1.4,0.3,2.7-0.3,4c-0.2,0.4-0.3,1-0.3,1.5c-0.4,2.8,0.6,5.1,2.4,7.2c0.9,1.1,0.9,1.1-0.2,2c-0.6,0.5-1.2,1-1.7,1.6
			c-4.7,4.8-5.1,12.1-0.9,17.1c0.7,0.8,0.7,1.3,0.1,2.1c-0.5,0.7-0.8,1.4-1.2,2.2c-4.3,9.8-5,20-2.5,30.4c1,4,2.8,7.6,6.4,9.8
			c0.5,0.3,0.2,0.6,0.1,0.9c-0.9,4.6-0.6,9.2,1,13.6c1.1,3.2,3.3,5.3,6.6,6.1c3.3,0.7,6.6,0.7,9.9,0.6c2.4-0.1,4.8-0.6,7-1.6
			c1-0.4,1.6-1.7,2.6-1.6c1,0.1,1.8,1,2.8,1.4c5.6,2.3,11.4,2.5,17.4,1.7c3-0.4,5.7-1.7,8.4-2.9c3.1-1.3,4.9-3.8,5-7.4
			c0.1-2.3-0.8-4.4-2-6.3c-3.8-6-9.1-10.3-15.6-13c-2.9-1.2-5.9-2.3-9.1-0.7c-0.1-1.6,0.1-3.1,0.6-4.6c0.6-1.5,1.6-2.2,3.2-2.3
			c1.8-0.1,3.5,0.3,5.2,0.8c5,1.6,9.7,3.7,14.7,5.4c6,2,12.1,3.6,18.4,4.2c6.8,0.6,13.5,0,20.2-1.4c4-0.8,8-1.9,11.9-3.2
			c0.1,0.2,0.1,0.2,0.1,0.2c-0.1,0.5-0.1,1.1-0.2,1.6c-0.3,4.3,1.1,7.9,4.8,10.3c2.4,1.6,5.1,2,7.9,1.9c2.5-0.1,4.9-1,7.5-0.1
			c2.8,0.9,5.4-0.4,7.8-2.1c0.3-0.2,0.6-0.5,1.1-0.3c1,0.5,2.2,0.6,3.3,0.5c0.7-0.1,1,0,0.9,0.9c-0.1,0.6,0,1.2,0,1.8
			c0.5,6.2,4.9,10.8,10.4,10.5c0.5,0,0.6,0.3,0.8,0.7c1.3,2.7,3.4,4.3,6.3,4.9c1.9,0.4,3.7,0.4,5.6,0.2c6.1-0.5,12.2-1.1,18.3-1.3
			c3.7-0.1,7.3-0.2,11,0.3c2.3,0.3,4.5,1.2,6.9,1.5c3,0.4,5.9,0.4,8.8-0.5c5.8-1.9,7.6-7.2,7-12.3c-0.5-4.1-2.7-7.1-6-9.3
			c-0.4-0.3-0.8-0.5-0.6-1.2c2.2-7.8,2.1-15.8,0.8-23.7c-0.2-1.4-0.5-2.8-0.8-4.5c2.9,2,5.6,3.8,8.4,5.5c4.5,2.7,9.3,4.6,14.7,4.5
			c4.2-0.1,8.4-0.4,12.5-1.1c0.4-0.1,0.7-0.3,1,0.2c1.1,2.2,2.3,4.4,3.5,6.7c-2.2,0.4-4.2,0.9-6.1,1.7c-0.3,0.1-0.6,0-0.9-0.1
			c-3.9-0.8-7.7-1.4-11.7-0.9c-4.4,0.6-7.6,3-8.4,7.2c-1.3,6.3,0,12.2,3.7,17.4c2.3,3.2,5.5,5.1,9.5,4.7c1.9-0.2,3.5,0,5.3,0.5
			c4.7,1.5,9.3,0.5,13.5-2.1c0.6-0.3,0.9-0.3,1.3,0.1c0.8,0.8,1.7,1.3,2.6,1.8c3.6,1.8,7.3,2,11.1,1.3c6-1.1,11.3-3.5,15.5-8.1
			C472.3,503.9,472.3,497.6,469.4,494.3z M342.1,484.3c-0.3,0.1-0.6,0-0.8-0.3c-0.2-0.2-0.3-0.4-0.5-0.6c-1.3-1.8-1.3-2.1,0.6-3.2
			c2.8-1.7,5.4-3.6,7.6-6c0.1-0.1,0.3-0.2,0.5-0.4c0.4,3.6,0.3,7.2,1,10.8C347.6,483.7,344.9,483.5,342.1,484.3z"/>
		<g id="Gray-Parts">
			<g id="Leg-and-Paw">
				<path id="Leg-and-Paw-1" class="st3" d="M215.6,495.4c0.1,0,0.1-0.1,0.2-0.1c2.1-3,3.2-3.4,6.7-2.6c4.8,1.2,8.8,3.9,12.4,7.2
					c2.1,2,4.1,4.2,5.3,6.9c1.6,3.5,0.2,6.6-3.4,7.9c-0.5,0.2-0.8,0.1-1-0.4c-2.8-4.3-6.2-8.1-10-11.4c-1.3-1.1-2.6-2.2-4.1-3
					c-0.4-0.2-0.8-0.4-1.2-0.5s-0.8-0.3-1.1,0.1s0.1,0.8,0.4,1c1.2,1.2,2.4,2.3,3.6,3.5c3.6,3.4,6.8,7.1,9.3,11.3
					c0.4,0.6,0.4,1-0.4,1.1c-5.7,1.2-11.3,1.2-16.9-0.6c-2.2-0.7-4.1-2-5.5-4c-1.3-1.8-2.7-3.7-4.3-5.2c-0.2-0.2-0.5-0.7-0.9-0.5
					s-0.2,0.7,0,1.1c0.7,2.3,1.7,4.4,2.8,6.5c0.5,0.9,0.2,1.4-0.6,1.8c-1.4,0.7-3,1.1-4.6,1.3c-3.4,0.3-6.9,0.4-10.3-0.3
					c-2.2-0.4-3.8-1.7-4.5-4c-1.5-4.9-1.9-9.7,0.1-14.5c1.2-2.9,3.4-4.6,6.7-4.7c0.6,0,1.2-0.1,1.8-0.2c-2.5-2.1-6.3-2-8.9,0.2
					c-0.7,0.6-1.4,1.3-1.9,2.2c-0.3,0.6-0.6,0.6-1.1,0.2c-2-1.7-3.2-3.9-3.9-6.4c-2.8-10.5-2.1-20.7,2.7-30.5
					c0.7-1.4,0.7-1.3,2.1-0.8c2,0.8,4.1,1.1,6.2,1.1c0.7,0,1,0.2,1.2,0.9c2.5,9.5,11.5,16.2,20.2,17c1.4,0.1,2.8,0,4.2-0.2
					c0.3,0,0.6-0.1,0.8,0.2c0.7,0.9,1.5,1.7,2.3,2.6c-0.7,0.3-1.4,0.5-2,0.8c-1.9,1-2.9,2.7-3.5,4.7c-0.9,3.1-0.5,6.2,0.5,9.2
					C215.2,494.7,215.2,495.2,215.6,495.4z"/>
				<path id="Paw-4" class="st3" d="M305.9,499.2c-2.8,0.4-5.4,0.4-7.8-1c-3.2-1.9-4-5.4-3.3-8.9c0.1-0.5,0.3-0.5,0.7-0.4
					c2.5,0.4,5.1,0.6,7.6,0.7c0.5,0,0.7,0.2,0.6,0.7C303.3,493.4,304,496.4,305.9,499.2z"/>
				<path id="Paw-3" class="st3" d="M422.7,488.7c-6.4,4.9-8.2,15.8-3.9,22.4c-1.9,0.2-3.4-0.4-4.8-1.5c-1.9-1.6-3.1-3.8-3.9-6.2
					c-1-2.9-1.5-5.9-1.1-9c0.4-3.4,2.1-5.2,5.4-5.9C417.1,488,419.8,488.2,422.7,488.7z"/>
				<path id="Paw-2" class="st3" d="M319.7,492.5c0.1-4.4,0.1-4.3,4-5.2c4.2-0.9,8.2-2.4,12-4.2c0.7-0.3,1.1-0.4,1.4,0.5
					c0.1,0.4,0.3,0.8,0.5,1c0.9,0.9,0.8,1.6-0.2,2.5c-1.1,0.8-1.6,2.1-2,3.3c-0.1,0.5-0.4,0.7-0.9,0.7c-3.6,0.5-6.4,2.3-8.3,5.5
					c-0.2,0.4-0.5,0.6-1,0.7c-0.9,0.2-1.8,0.2-2.7,0.1c-1.5-0.2-2.5-1.5-2.7-3.5C319.7,493.4,319.7,492.8,319.7,492.5z"/>
				<path id="Paw-1" class="st3" d="M306.8,491.8c0-2.3,0-2.2,2.1-2.4c2.3-0.2,4.7-0.4,7-0.7c0.8-0.1,0.8,0.2,0.7,0.8
					c-0.3,2-0.3,4.1,0.2,6.1c0,0.2,0.1,0.3,0.1,0.5c0.6,1.7,0.6,1.7-1,2.6c-4.3,2.2-8.5-0.4-9-5.5
					C306.9,492.7,306.9,492.2,306.8,491.8z"/>
			</g>
			<g id="Chest">
				<path id="Chest2" class="st3" d="M264.1,490.2c-5.8,0.1-11.4-1.1-17-2.6c-6.3-1.7-12.2-4.4-18.4-6.5c-3-1-5.3-2.7-7.4-4.8
					c-0.7-0.7-0.5-1,0.3-1.3c2.8-1.2,5.8-1.6,8.8-2c0.6-0.1,1.2-0.1,1.8-0.2c3.2-0.9,6.1,0.5,9.1,1.3c4.6,1.3,9.3,2.3,14.1,3.2
					c0.5,0.1,0.8,0.3,1,0.8c1,2.7,2.2,5.3,3.7,7.7C261.1,487.6,262.2,489.2,264.1,490.2z"/>
				<path id="Chest-1" class="st3" d="M265.5,490.3c3.5-2.4,3.9-6.3,5.1-9.9c4.8,2.8,10,4.9,15.6,6.6
					C279.3,488.9,272.6,490,265.5,490.3z"/>
			</g>
			<path id="Tail" class="st3" d="M410.6,409.1c-2-0.1-4-0.2-6,0.2c-1.5,0.3-2.8,1-3.8,2.2c-0.3,0.4-0.6,0.5-1.1,0.2
				c-4.2-2-8.4-4.1-12.7-6c-0.7-0.3-0.7-0.6-0.4-1.2c1.8-4,4.9-6.3,9-6.9c7.4-1.2,13.8,1.2,19.1,6.4c0.7,0.7,1.2,1.4,1.6,2.2
				c0.7,1.5,0.1,2.8-1.6,3c-0.7,0.1-1.4,0.1-2.1,0.1C412,409.2,411.3,409.1,410.6,409.1z"/>
			<path id="Body" class="st3" d="M466.5,496c-1.2-1.4-1.5-3.2-1.5-5c0-3.8-1.2-7.4-2.9-10.7c-1.2-2.3-2.8-4.2-4.9-5.8
				c-3-2.3-4.5-5.8-5.6-9.3c-0.7-2.2-1.2-4.4-2.4-6.4c-3.2-5.5-7.7-9.8-13.1-13c-4-2.4-8.3-4.3-12.4-6.3c-2-1-3.7-2.3-4.6-4.4
				c-3.7-8.4-9.9-14.4-17.7-18.7c-7.1-3.8-14.4-7.1-21.7-10.5c-12.1-5.8-24.3-11.5-36.3-17.6c-0.8-0.4-1.7-0.9-2.5-1.3
				c-0.1,0.3,0,0.5,0.1,0.6c4.3,7.1,7.4,14.8,8.9,23.1c0.2,1.4,0.5,2.8,0.2,4.2c-0.5-0.2-0.6-0.7-0.7-1.1c-0.7-1.7-1.3-3.5-1.9-5.2
				c-5.7-15.8-14.5-29.5-27.6-40.1c-8.9-7.2-18.7-12.4-30.1-14.3c-7.5-1.3-15-1-22.4,1c-2.9,0.8-5.7,1.9-8.3,3.4
				c-0.2,0.1-1.1,0.2-0.3,0.8c1.8,1.3,3.7,2.5,5.6,3.8c1.7,1.1,3.6,1.7,5.8,1.4c1.9-0.2,3.8-0.2,5.7,0.1c3,0.5,4.6,2.8,4,5.8
				c-0.2,1.2-0.7,2.2-1.2,3.2c-0.1,0.3-0.6,0.5-0.3,0.9c0.4,0.5,0.7,0,1-0.2c2.3-1.2,4.6-2.5,7.1-3.1c2.3-0.6,3.3,0.4,2.8,2.7
				c-0.4,2.2-1.3,4.3-2.3,6.3c-0.3,0.6-0.3,1,0.2,1.5c6,5.7,11.1,12.1,15.4,19.2c0.3,0.5,0.6,0.6,1.1,0.6c1.5-0.1,3-0.3,4.6-0.3
				c1.9,0,3.8-0.1,5.6,0.5c1.1,0.4,1.4,1.4,0.8,2.4c-0.4,0.7-1,1.2-1.5,1.8c-1.4,1.3-2.9,2.6-4.5,3.7c-0.8,0.5-0.9,1-0.5,1.9
				c3.7,8,6.5,16.2,8.1,24.9c0.1,0.6,0.4,1,0.9,1.3c2.1,1.1,4.2,2.3,5.9,4c1.5,1.5,1.3,2.7-0.6,3.5c-1.6,0.7-3.3,1-5,1.3
				c-0.5,0.1-0.8,0.3-0.8,0.9c-1.1,8.1-4.9,14.7-10.9,20c-0.6,0.5-0.6,1-0.4,1.7c0.7,2.5,1.3,4.9,1.2,7.5c-0.1,2-1.1,2.8-3,2.2
				c-0.4-0.1-0.9-0.3-1.3-0.4c-2.3-1-4.5-2.3-6.6-3.7c-0.5-0.4-0.9-0.4-1.5-0.2c-3.3,1.4-6.7,2.4-10.1,3.2c-3,0.7-6.1,1-9.5,1.3
				c0.5,0.3,0.7,0.4,0.9,0.6c7.4,3.8,15.2,6,23.5,6.8c6,0.5,12,0.3,17.9-0.6c8.8-1.4,17.1-4.2,24.6-9c2.7-1.8,5.3-3.8,7.1-6.6
				c0.2-0.4,0.5-0.7,0.4-1.3c-0.4-2-0.9-4-1.7-6c-2-4.9-9-7.1-13-1.9c-0.3,0.4-0.7,0.8-0.9,1.2c-2.2,3.2-5.2,4.1-8.9,3.5
				c-2.5-0.4-4.3-1.9-5.7-4c-0.2-0.3-0.4-0.7-0.1-1s0.6,0,0.9,0.2c1,0.5,1.9,1.1,2.8,1.7c2.9,1.9,7,0.6,8.7-2c0.5-0.7,1-1.4,1.6-2
				c3.8-4.4,8.5-4.9,13.5-1.9c3,1.8,4.3,4.9,5.2,8.2c1.3,4.8,1.4,9.7,1.7,14.5c0.2,3.1,0.5,6.1,1.6,9c1.6,4,4.1,7.4,7,10.5
				c0.4,0.4,0.8,0.8,1.1,1.5c-0.4-0.1-0.5-0.2-0.7-0.3c-4.2-2.4-7.4-5.7-9.7-10.1c-0.2-0.4-0.4-0.7-0.8-1c-2.4-1.2-4.8-2-7.5-1.6
				c-2.2,0.3-4.1,1.3-5.3,3.3c-0.3,0.5-0.3,0.7,0.3,0.9c2,0.6,3.8,1.8,5.4,3.1c0.4,0.4,1,0.8,1,1.4c-0.4,0.2-0.7,0.1-1,0
				c-0.8-0.3-1.7-0.6-2.5-0.8c-2.7-0.8-5.5-1.2-8.3-0.4c-2.9,0.8-4.8,2.9-5.5,5.9c-0.7,3.2,0,6.1,2.4,8.5c0.9,0.9,2,1.4,3.3,1.7
				c0.6,0.1,1,0,0.9-0.8s0-1.7,0.1-2.5c0.6-6.2,6.1-8.4,11-6.5c0.6,0.2,1.2,0.5,1.7,1.1c-0.8-0.1-1.4-0.2-2.1-0.2
				c-2.7,0-5.4,0.2-6.8,3.1c-1.6,3.3-1,6.4,1,9.4c0.7,1.1,2,1.6,3.2,1.9c1.9,0.4,3.8,0.3,5.7,0.1c6.3-0.5,12.7-1.2,19-1.3
				c4.8-0.1,9.6,0,14.3,1.3c2.6,0.8,5.3,1,8,0.6c3.4-0.5,5.7-2.4,6.4-5.4c1-4.2-0.3-7.6-3.7-10.3c-0.6-0.5-0.8-0.5-1.2,0.2
				c-1.4,2.3-3.2,4.2-5.4,5.8c-0.4,0.3-0.8,0.7-1.2,0.4c-0.4-0.4,0-0.9,0.2-1.2c0.4-0.7,0.9-1.5,1.3-2.2c2.7-4.2,4.2-8.8,4.9-13.7
				c1-7.7,0.2-15.3-1.6-22.8c-2.8-11.4-7.7-21.7-14.3-31.3c-0.3-0.5-0.7-1-0.8-1.8c0.6,0.1,0.9,0.4,1.3,0.7c1.7,1.4,3.1,3.1,4.4,4.8
				c5.1,6.8,8.7,14.4,11.3,22.5c0.2,0.6,0.4,1,0.9,1.4c3.3,2.4,6.7,4.8,10.3,6.9c2.7,1.6,5.4,3.2,8.5,3.9c3.4,0.7,6.8,0.6,10.3,0.3
				c2.9-0.2,5.9-0.6,8.7-1.2c0.8-0.2,1.3,0.1,1.7,0.9c1.9,3.7,3.8,7.4,5.7,11.1c0.8,1.5,0.8,1.5-0.9,1.5c-3.3,0-6.4,0.7-9.4,2.2
				c-6.2,3-8.2,8.7-7.6,14.9c0.3,3,1.5,5.5,4.3,6.7c4.3,1.9,8.4,1,12.3-1.2c0.5-0.3,0.4-0.6,0.2-1c-0.6-1.2-1-2.5-1.2-3.9
				c-1.2-6.3,1.4-11,7.2-13c1.2-0.4,2.5-0.8,3.8-0.7c0.2,0,0.6,0,0.6,0.3c0.1,0.3-0.2,0.4-0.5,0.5c-0.6,0.3-1.3,0.5-2,0.8
				c-3.6,1.8-5.9,4.5-6.2,8.7c-0.4,5.3,2.6,9.9,7.4,10.9c2,0.4,3.9,0.6,5.9,0.3c5.4-0.8,10.2-2.8,14.2-6.8
				C468.5,503.4,469.1,498.8,466.5,496z"/>
			<g id="Head">
				<path id="Chin" class="st3" d="M223,447.8c-6,0.8-12.2,0.7-17.7,3.8c-2.9,1.6-5.9,3.1-9.2,3.8c-2.8,0.6-5.5,0.8-8.3,0.2
					c-5.6-1.2-8.2-7-6.5-12.2c2.1-6.3,8.6-9.4,15.1-7c2,0.7,2,0.7,0.5,2.2c-3,3-4.4,5.9-4.8,10.8c0.6-0.8,0.9-1.6,1.3-2.3
					c1-2,2.1-4,3.5-5.8c2-2.6,4.6-3.9,7.8-4c3.8-0.1,7.4,0.8,11,2.3c4.9,2.1,9.9,4.2,15,5.8c5.4,1.7,11,2.3,16.7,0.8
					c1.3-0.3,2.5-1,3.8-1.6c0.1,3,0.4,5.9,1.1,8.7c1,4.2,2.5,8.1,5,11.6c0.6,0.9,0.4,1.1-0.5,1.4c-2.8,1.1-5.7,1.5-8.6,1.8
					c-5.9,0.6-11.7,1.1-17.6,1.8c-3.9,0.4-7.7,1.2-11.3,2.9c-3.6,1.7-7.3,1.3-10.9-0.1c-6-2.4-10.3-6.5-12.4-12.8
					c-0.3-0.9-0.2-1.2,0.8-1.3c1.5-0.3,3-0.7,4.3-1.4c0.7-0.3,1.1-0.2,1.7,0.3c3.2,2.6,6.7,4.2,11.2,4c-1.6-0.9-3.1-1.6-4.5-2.5
					c-1.4-1-2.8-2-4-3.1c-0.6-0.5-0.7-0.8,0.1-1.3c3.6-2.5,7.6-3.9,12-4.5c1.5-0.2,3-0.4,4.3-1.1C222.1,448.6,222.6,448.3,223,447.8
					L223,447.8z"/>
				<path id="Cheek" class="st3" d="M268.9,421.1c-1-2.7-2.8-4.7-4.4-6.9c0.7-0.2,1.1,0.3,1.5,0.5c7,4.3,13.7,8.9,18.9,15.4
					c3.1,3.9,5.3,8.2,5.9,13.3c0.8,7.7-2,13.3-8.8,16.9c-6.4,3.4-13.3,4.6-20.5,4.6c-0.7,0-0.9-0.4-1.2-0.8c-3.1-4-4.9-8.7-5.7-13.7
					c-0.7-4.2-0.6-8.4-0.2-12.6c0.7-6.1,0.4-12.1-1.6-18c-1.3-3.6-3.4-6.5-7-8.1c-3.7-1.7-7.6-0.9-10.4,2.2c-0.3,0.3-0.6,0.6-0.8,1
					c-1.8,3.7-4.9,4.6-8.6,4.4c-1.8-0.1-3.5-0.1-5.3,0c-2.9,0.2-5.1,1.4-6.7,3.8c-0.6,0.9-1.3,1.7-1.8,2.6c-2.5,4.1-7.5,3.4-10,0
					c-2.4-3.3-2.2-8,0.5-11.5c1.9-2.4,4.3-4,7.4-4.5c1.8-0.3,3.5,0.2,5.1,0.7c1.5,0.4,3.1,0.9,4.7,1.1c2.4,0.3,4.6-0.2,6.3-2.1
					c1.6-1.8,3.2-3.5,4.7-5.4c4.1-5.1,10.4-7,17-2.4c4.6,3.2,8.6,7.1,12.4,11.1c2.4,2.6,4.9,5.1,7.4,7.7
					C268,420.5,268.2,420.9,268.9,421.1z"/>
				<path id="Upper-Lip" class="st3" d="M190.7,425.2c-0.7,0-1.8-0.2-2.9-0.6c-2.2-0.8-3.4-2.4-3.3-4.8c0.1-2.8,1.2-5,3.6-6.5
					c0.3-0.2,0.6-0.3,0.8,0.2c1.9,4,5.1,6.2,9.2,7.4c0.5,0.2,0.7,1.3,0.2,1.8c-0.4,0.4-0.8,0.7-1.2,1
					C195.2,424.7,193.3,425.2,190.7,425.2z"/>
				<path id="Eye-Lid" class="st3" d="M230.4,391.6c1.8-2,3.4-3.8,5.7-4.8c1.7-0.8,3.5-0.7,5.2-0.1c1,0.4,1.6,1.2,2,2.2
					c1,2.5,0.7,4.9-0.5,7.3c-0.2,0.4-0.5,0.5-1,0.6c-1.2,0.1-2.1-0.2-2.7-1.5c-1-2-2.8-3.2-5-3.6
					C232.9,391.5,231.7,391.6,230.4,391.6z"/>
				<path id="Forehead" class="st3" d="M225.4,372.4c-2.1,1.8-3.6,3.6-4.7,5.7c-0.2,0.4-0.4,0.8-0.6,1.5c0.7-0.3,1-0.8,1.3-1.2
					c3.5-4,7.8-6.1,13-6.5c0.7-0.1,1,0.1,0.9,0.9c0,0.3,0,0.7,0.1,1.1c0.2,0.8,0.4,1.5,0.7,2.4c0.5-0.7,0.6-1.5,0.8-2.2
					c1.8-5.9,5.5-10,11.1-12.5c3.8-1.7,7.4-1.1,10.8,1.2c1.5,1,3,2.1,4.5,3.1c2.2,1.4,4.6,1.9,7.1,1.7c1.7-0.2,3.3-0.2,5,0.1
					c1.5,0.3,1.9,1,1.5,2.5c-0.7,2.5-2.4,4.2-4.6,5.3c-3.6,1.8-7.3,2.1-11.1,0.7c-2.6-0.9-5.2-1-7.8-0.3c-0.4,0.1-0.9,0.2-1.2,0.8
					c0.7,0.3,1.4,0.3,2,0.3c2.3,0,4.1,1.1,6.1,2.1c0.3,0.2,0.4,0.4,0.3,0.7c-0.1,5.3,2.7,9.1,6.1,12.7c2.5,2.6,5.5,4.6,8.3,6.9
					c4.6,3.9,7.4,8.9,8.4,14.8c0.1,0.7,0.4,1.2,0.7,1.7c3.1,4.1,4.6,8.8,5.2,13.9c0,0.2,0,0.3,0,0.7c-2.3-3.3-4.9-6.1-7.7-8.7
					c-5.1-4.6-10.8-8.3-16.7-11.7c-1.9-1.1-3.9-2.3-5.9-3.1c-1.7-0.7-3-1.9-4.3-3.1c-1.5-1.3-3.1-2.6-4.8-3.8
					c-1.7-1.1-3.4-2.1-5.4-2.8c1.7-2.4,2-5.1,1.3-7.9c-1-4.1-3.6-5.7-7.9-5.3c-3.5,0.3-5.9,2.6-8.2,5c-3,3.2-5.2,6.9-8.1,10.2
					c-2.6,2.9-5.3,5.7-8.7,7.7c-1.1,0.7-2.4,0.3-3.5,0.6c-0.4,0.1-0.5-0.4-0.7-0.7c-2.3-3.7-2.6-8.4,1.3-12.4
					c1.7-1.8,3.7-3.3,5.2-5.3c1-1.3,1.9-2.7,2.3-4.4c-2.1,3.5-5.4,5.8-8.3,8.4c-1.2,1.1-2.4,2.4-3.3,3.8c-1.6,2.7-1.5,5.6-0.4,8.7
					c-4.8-1.5-9.5-1.8-14.1,0.4c-0.2-3.2,0.8-5.9,3.3-7.8c0.5-0.4,1-0.7,1.5-1c1.5-0.9,2.7-0.7,3.9,0.6c0.4,0.4,0.7,0.9,1.2,1.4
					c0.2-0.9,0.1-1.6,0-2.3c-0.6-5.9,1.5-10.9,5.3-15.2c4.1-4.6,9.4-7,15.2-8.7C222.8,372.8,223.9,372.4,225.4,372.4z"/>
				<path id="Ear" class="st3" d="M224.6,368.9c-2.4,0.6-4.5,1.1-6.6,1.9c-4.8,1.8-9.3,4.2-13,7.9c-0.2,0.2-0.4,0.5-0.8,0.5
					c-2.2,0.3-4.4,0.6-6.7,0c-1.9-0.5-2.3-1.6-1.2-3.3c1-1.6,2.4-2.8,3.9-3.9c4.2-2.8,8.7-4.9,13.7-5.7
					C217.7,365.9,221.2,366.5,224.6,368.9z"/>
			</g>
		</g>
		<g id="White-Parts">
			<g id="Spikes">
				<path id="Spike-5" class="st1" d="M269.1,474.7c-0.2,3.8-1,7.4-2.5,10.9c-0.1,0.3-0.3,0.6-0.5,1c-1.1,1.8-1.6,1.9-2.9,0.2
					c-2.6-3.3-4.3-7.1-5.5-11.1c-0.5-1.9,0-3.4,1.7-4.4c2.4-1.4,4.9-1.7,7.6-0.9c1.3,0.4,1.9,1.3,1.9,2.6
					C269,473.5,269.1,474.1,269.1,474.7z"/>
				<path id="Spike-4" class="st1" d="M304.5,475.6c0.1,1.3-0.1,1.4-1.2,0.8c-4-2-7.8-4.3-11.2-7.4c-1.4-1.3-1.5-2.4-0.5-4
					c1.1-1.9,2.7-3.3,4.7-4.2c1.9-0.8,2.6-0.6,3.8,1.1c1.3,1.8,2.1,3.8,2.8,5.9C303.7,470.4,304.3,472.9,304.5,475.6z"/>
				<path id="Spike-3" class="st1" d="M321.6,443c-1.5,0.7-3.2,0.9-4.8,1.2c-4.1,0.7-8.2,1.2-12.4,1c-1.6-0.1-2.5-0.7-3-2.2
					c-0.7-2.1-0.6-4.3,0.2-6.3c0.6-1.7,1.3-2,3-1.7c2.5,0.4,4.8,1.3,7.1,2.3c3.2,1.4,6.2,2.9,9,5C321.1,442.4,321.4,442.6,321.6,443
					z"/>
				<path id="Spike-2" class="st1" d="M312.6,403.4c-1,1.1-1.9,1.9-2.9,2.7c-3.3,2.6-6.7,5.1-10.4,7c-1.9,1-3,0.8-4.5-0.8
					c-1.1-1.2-1.8-2.7-2-4.3c-0.1-1,0.2-1.8,1.2-2.3c2.7-1.2,5.5-1.7,8.3-2C305.6,403.2,309,403.1,312.6,403.4z"/>
				<path id="Spike-1" class="st1" d="M287.4,373c-0.8,3.6-2.3,6.6-4,9.6c-1.1,1.9-2.3,3.7-3.9,5.2c-1.2,1.1-2.5,1.3-3.9,0.6
					c-1.8-0.9-3.2-2.2-4-4.1c-0.5-1.1-0.3-2.1,0.6-2.9c1.5-1.4,3.2-2.4,4.9-3.4c3-1.7,6-3.5,9.2-4.7
					C286.5,373.3,286.9,373.2,287.4,373z"/>
			</g>
			<g id="Teeth">
				<path id="Tooth-7" class="st1" d="M251.5,422.8c1.2,4.9,1.2,9.7,0.9,14.5c-0.3,4.1-2.2,5.7-6.2,6.7c-4.4,1.2-8.7,0.8-13.1-0.3
					c-5.5-1.4-10.5-3.8-15.7-5.8c-2.5-1-5.1-2-7.8-2.5c-0.3-0.1-2.1-0.2-2.1-0.2c1.1-0.2,2.1-2.5,2.8-3.7c0.9-1.6,1.4-1.3,2-0.5
					c1,1.2,1.5,2,2.4,3.1c1.5,1.9,2.7,2.2,4.6-0.9c0.9-1.4,1.8-3,2.6-4.3c0.5-0.8,1.2-0.4,2,0.3c1.2,1.2,2.2,2.6,3.6,3.6
					c1.7,1.3,2.8,1.1,3.9-0.8c1.1-1.7,2.4-3.7,3.3-5.5c0.1-0.1,0.1-0.2,0.1-0.3c0.9-1.4,1.2-1.1,2-0.3c1.8,1.8,2.3,2.6,3.6,3.9
					c3.3,3.6,3.4,3,6-0.7c1.8-2.7,2.5-3.7,4.4-5.9C251.1,423.3,251.2,423.1,251.5,422.8z"/>
				<path id="Tooth-6" class="st1" d="M225.3,421.2c1.3,0,2.6,0.1,3.8,0c2.8-0.2,4.9-1.6,6.5-4c0.7-1.1,1.4-2.1,2.5-2.9
					c3.5-2.7,7.6-1.1,10.1,1.7c1.1,1.3,1.8,2.8,2.5,4.4c0.2,0.4,0.1,0.7-0.2,1.1c-2,2.4-3.5,4.5-5.7,7.4c-0.7,1-1,1.9-1.8,1.3
					c-1.8-1.5-3.3-3.4-4.8-5.3c-1.8-2-2.8-1.7-3.9-0.2c-1,1.9-2.4,3.8-3.5,5.9c-1,2-1,1.9-2.7,0.6c-1.1-0.9-2.2-2.3-3.3-3.3
					c-2.1-2-2.5-1.7-3.8,0c-1,1.5-2.1,3.5-3.2,5.1c-0.5,0.7-1,1.1-1.5,0.7c-1.2-1.4-1.6-1.9-2.8-3.4c-0.4-0.5-0.6-0.8-1.5-1.3
					c0.3-0.2,1.9-1.3,3.3-3.9c1.6-2.6,3.8-3.8,6.7-3.7C223.1,421.3,224.2,421.3,225.3,421.2C225.3,421.3,225.3,421.2,225.3,421.2z"
					/>
				<path id="Tooth-5" class="st1" d="M184.5,425c1.9,1.4,3.9,2.2,6.4,2.3c-1.1,0.3-2.4,3.2-3.2,4.8c-0.8,1.4-1.1,1.1-2,0.3
					C183.9,430.4,183.4,427.5,184.5,425z"/>
				<path id="Tooth-4" class="st1" d="M196.7,434.1c1.4-0.3,1.9-2.2,3.2-3.8c1-1.3,1.7-0.8,2.3,0.4c0.8,1.4,1.9,4,2.9,4.4
					c-0.5,0-0.3-0.1-1.5,0c-1,0.1-2,0.3-2.9,0.7c-0.3,0.1-0.5,0-0.8-0.1C199,435.1,197.9,434.6,196.7,434.1z"/>
				<path id="Tooth-3" class="st1" d="M192.1,427.3c2.7-0.3,5-1.1,7.1-2.6c0,0,0.1,0,0.1,0.1c0.5,0.9,1.3,2.2,1.9,3
					c-0.6,0.1-1.4,0.7-2,1.4c-0.6,0.7-1.3,2-1.9,2.8c-0.6,1-1.2,1.2-2.1-0.4C193.8,429.2,192.9,427.6,192.1,427.3z"/>
				<path id="Tooth-2" class="st1" d="M202.9,429c2.7,1.8,5.6,1.3,6.9,0.9c-0.4,0.3-1.4,2.2-2.1,3.3c-0.3,0.5-0.9,1.1-1.4,1.1
					s-0.9-0.7-1.3-1.3C204.3,431.6,203.4,429.5,202.9,429z"/>
				<path id="Tooth-1" class="st1" d="M195,433.6c-1.9-0.4-4.5-1-6.5-0.3c0.5-0.2,1.9-4.5,2.8-4.7C192.3,428,194.5,433.3,195,433.6z
					"/>
			</g>
			<g id="Eye">
				<path id="Eye-White" class="st1" d="M232,393.7c2.4,0,4.1,0.9,5.3,2.8c0.2,0.3,0.4,0.6-0.2,0.8c-4,1-6.7,3.7-9.2,6.8
					c-1,1.2-1.5,1.9-2.5,2.8c0.9-2.6-2.7-4.3-4.1-4.1c0.6-0.6,1.3-1.4,2.5-2.9c1-1.2,2-2.5,2.9-3.7c0.9-1.5,2.3-2,3.8-2.3
					C231.1,393.7,231.7,393.7,232,393.7z"/>
				<path id="Eye-White-Small" class="st1" d="M218.8,406.9c0.8,0,1.3,0.3,1.5,1.1c0.2,0.8-0.2,1.2-1,1c-0.3-0.1-0.6-0.1-0.8-0.2
					c-0.5-0.2-1.1-0.2-1-1C217.5,407.2,218,406.9,218.8,406.9z"/>
			</g>
		</g>
		<path id="Collar" class="st4" d="M270.8,379.5c-2,1.9-2.1,4-0.9,6.3c1.1,2.2,2.9,3.8,5.1,4.8c2.2,0.9,4.2,0.5,5.9-1.2
			c0.7-0.7,1.4-1.5,2-2.3s1.2-1.6,1.7-2.5c0.4-0.7,0.7-0.7,1.2-0.2c4.8,4.8,9.2,10,12.8,15.7c0.3,0.5,1,1,0.8,1.5s-1,0.3-1.5,0.5
			c-1.6,0.4-3.2,0.8-4.8,1.5c-1.8,0.8-2.8,2.4-2.5,4.4c0.3,1.8,0.9,3.5,2,4.9c1.8,2.4,4.4,4,8,1.7c1.2-0.7,2.4-1.5,3.6-2.2
			c0.6-0.4,0.9-0.4,1.3,0.4c2.8,6.3,5.2,12.8,6.7,19.6c0.2,0.7,0.4,1.4,0.5,2.1c0.1,0.5,0,0.8-0.7,0.6c-2.1-0.8-4.1-1.5-6.3-2.1
			c-3.7-1-5.7,0.4-6.6,4.1c-0.6,2.5-0.6,5,0.5,7.4c0.9,1.9,2.3,2.8,4.4,2.9c2.6,0,5.2,0.1,7.8-0.4c0.3-0.1,0.6,0,1-0.1
			c0.6-0.1,0.7,0.2,0.6,0.8c-0.9,4.8-2.8,9.1-5.9,12.9c-0.9,1.1-1.9,2.1-2.9,3.1c-0.7,0.6-1,0.4-1.3-0.3c-0.5-1.2-1.2-2.4-2.1-3.4
			c-1.6-1.9-2.9-2.3-5.2-1.4c-2.7,1-5,2.8-6.4,5.4c-1.5,2.8-1.3,4.5,1.3,6.9c0.7,0.7,0.7,0.8-0.2,1.2c-4.5,1.6-9.1,2.7-13.8,3.2
			c-1.6,0.1-3.1,0.2-4.7,0.2c-0.6,0-1-0.1-0.9-0.9c0-0.7,0-1.5-0.1-2.3c-0.4-2.5-0.9-3.1-4-4.4c1.3-0.2,2.4-0.5,3.6-0.6
			c6.1-1,11.8-2.9,16.7-6.9c3.9-3.1,6.1-7.2,6.5-12.1c0.3-3.6,0.2-7.3-1.2-10.7c-0.2-0.5-0.2-1-0.1-1.6c0.4-7.5-1.1-14.5-5.3-20.8
			c-0.6-1-1-2-1.2-3.1c-1.5-7.2-5.5-12.7-11.3-16.9c-3.7-2.7-7.1-5.6-9.5-9.5c-0.9-1.5-1.5-3-1.6-4.7c0-0.3-0.1-0.7,0.4-0.7
			C266.3,380.3,268.5,380.2,270.8,379.5z M254.9,474c0.5,0.1,0.6-0.1,0.7-0.6c0.3-1.8,1.3-3.1,2.8-4.1c0.9-0.6,1.9-0.8,2.8-1.4
			c-1-0.3-1.8,0-2.6,0.5c-1.1,0.7-2.3,1.2-3.5,1.5c-3.3,0.8-6.7,1.3-10.1,1.7C248.3,472.8,251.6,473.3,254.9,474z"/>
		<path id="Nose-Tip" class="st5" d="M198.9,417.6c0,0-7.2-0.6-7.7-8.4c0-0.8,7.3-5,14.8-0.3C199.6,412.4,198.9,417.6,198.9,417.6z"
			/>
	</g>
	<g id="BULLDOGS">
		<g id="BULLDOGS-Dark">
			<path id="S_00000004546339839368448630000007185927902318700204_" class="st6" d="M468.9,191.5c1.3-5.6,2.7-11.2,3.9-16.1
				c3.4-12.3,11-19.1,16.9-19.1c2.8,0,32.7,0,32.7,0l-5.1,25.4h-18.5l1.4-6.3h-9.4l-3,12.8h13.7c10.3,0.4,12.6,6.3,10.3,16.7
				c0,0-2.7,11.4-3.6,15.1c-2.9,12-9.3,17.6-16.7,17.5c-10.6,0.2-15.6,0-20.9,0c-5,0-8,0-11.7,0.1c0.8-3.4,5-21.9,5.9-25.6l17.3,0.1
				l-1.9,8.1h10.4l3.4-14.5c0,0-11,0.2-13.7,0.2C468.9,205.6,467.7,196.8,468.9,191.5z"/>
			<path id="G_00000103238432996447080360000018154697045117432737_" class="st6" d="M453.2,237.4c-12.3,0.2-28.1,0-33,0
				c-5.2,0-11.8-2.5-8.4-17.6c3.5-14.1,7.3-31.3,10.7-44.5c3.4-14,10.1-18.8,14.6-19.3c5.9-0.2,26.2,0.2,35.8,0.2
				c-4.6,18.2-6.2,23.9-6.2,23.9l-18-0.2l1.2-4.6h-9.4l-10.7,44.8h9.7l3.4-15.1h-4.7l4.3-17.3l22.5,0.4L453.2,237.4z"/>
			<path id="O_00000088134212774854240650000013587612055927786681_" class="st6" d="M409,156.2c-9.6,0-20.3,0.2-23,0.2
				c-5.9,0.1-11,3.4-14.5,18.9c-3.4,13.2-7.2,30.7-10.7,44.6c-3.7,14.8,3.7,17.4,8.4,17.5c5.3,0.1,10.3,0.2,20.9,0
				c7.4,0.1,13.8-5.6,16.7-17.5c3.3-14.2,7.5-31.7,10.7-44.6C420,165.4,416.3,156.2,409,156.2z M388.4,220.1h-9.7l10.7-44.8h9.4
				L388.4,220.1z"/>
			<path id="D_00000006702405924172587300000017815303812820839838_" class="st6" d="M358.1,156.4c-9.7,0-35,0-38,0l-4.5,18.9h3.9
				l-10.7,44.8h-4.2l-3.6,17.4c0,0,27.2,0.2,37.9,0c7.5,0.1,13.9-4.9,16.8-17c3.4-14.3,7.8-32.1,10.8-45.2
				C368.7,165.8,365.3,156.4,358.1,156.4z M335.9,220.1h-9.7l10.7-44.8h9.4L335.9,220.1z"/>
			<path id="L_00000056386102673885029660000007111918231088763037_" class="st6" d="M267.5,156.4c3,0,27.7,0,27.7,0l-4.6,18.9H286
				l-9.9,44.8h6.9l2.7-13.5l17-0.2l-6.6,31h-46.7L253,220h5l9.9-44.8h-4.6L267.5,156.4z"/>
			<path id="L_00000034054033382589050580000004397263983453981603_" class="st6" d="M217.4,156.4c3,0,26.2,0,26.2,0l-3.9,18.9h-4.6
				l-9.9,44.8h6.9l2.7-13.5l16.2-0.2l-6.6,31h-46.7L202,220h5l10.7-44.8H213L217.4,156.4z"/>
			<path id="U_00000057116293265474259200000017225705484017856917_" class="st6" d="M157.2,156.4l-5.1,18.9h5
				c0,0-8.6,34.7-11.2,47.6c-1.2,5.9,0.2,14.6,6.7,14.6s19.6,0,26,0c10.8,0,13.9-13.9,13.9-13.9l11.7-48.3h4.1l4.3-18.9h-22.8
				l-15,63.7h-9.3l14.9-63.8L157.2,156.4L157.2,156.4z"/>
			<path id="B_00000025430119880610519190000016050450327695027076_" class="st6" d="M139.2,156.3c-13.8,0.2-39.3,0-39.3,0l-4.4,19
				h5l-10.6,44.8h-5.1l-4.5,17.1c0,0,28.9,0.5,39.4,0.3c10.1,0.1,14.1-6.9,15.7-12.5c0.5-2.5,4-16.9,4.6-19.3
				c1.6-5.3,0.3-9.1-6.3-10.3c6.8,0.1,8.9-1.1,10.2-5.9c1.1-3.7,2.7-9.8,3.7-14.1C149.9,166,150.5,156.8,139.2,156.3z M118.1,220.1
				h-9.3l3.4-14.9l9.3-0.2L118.1,220.1z M125.2,189.6h-9.4l3.4-14.3h9.4L125.2,189.6z"/>
		</g>
		<g id="BULLDOGS-Light">
			<path id="S" class="st7" d="M464.5,187.3c1.3-5.6,2.7-11.2,3.9-16.1c3.4-12.3,11-19.1,16.9-19.1c2.8,0,32.7,0,32.7,0l-5.1,25.4
				h-18.5l1.4-6.3h-9.5l-3,12.8H497c10.3,0.4,12.6,6.3,10.3,16.7c0,0-2.7,11.4-3.6,15.1c-2.9,12-9.3,17.6-16.7,17.5
				c-10.6,0.2-15.6,0-20.9,0c-5,0-9.2,0-12.8,0.1c0.8-3.4,5.2-21.9,6.1-25.6l18.2,0.1l-1.9,8.1h10.4l3.4-14.5c0,0-11,0.2-13.7,0.2
				C464.5,201.5,463.3,192.5,464.5,187.3z"/>
			<path id="G" class="st7" d="M448.8,233.3c-12.3,0.2-28.1,0-33,0c-5.2,0-11.8-2.5-8.4-17.6c3.5-14.1,7.3-31.3,10.7-44.5
				c3.4-14,10.1-18.8,14.6-19.3c5.9-0.2,26.2,0.2,35.8,0.2c-4.6,18.2-6.2,23.9-6.2,23.9l-17.9-0.2l1.2-4.6h-9.4L425.5,216h9.7
				l3.4-15.1h-4.7l4.3-17.3l22.4,0.3L448.8,233.3z"/>
			<path id="O" class="st7" d="M404.6,152c-9.6,0-20.3,0.2-23,0.2c-5.9,0.1-11,3.4-14.5,18.9c-3.4,13.2-7.2,30.7-10.7,44.6
				c-3.7,14.8,3.7,17.4,8.4,17.5c5.3,0.1,10.3,0.2,20.9,0c7.4,0.1,13.8-5.6,16.7-17.5c3.3-14.2,7.5-31.7,10.7-44.6
				C415.6,161.2,411.9,152,404.6,152z M384,215.9h-9.7l10.7-44.8h9.4L384,215.9z"/>
			<path id="D" class="st7" d="M353.7,152.2c-9.7,0-35,0-38,0l-4.5,18.9h3.9l-10.7,44.8h-4.2l-3.7,17.5c0,0,27.3,0,38-0.1
				c7.5,0.1,13.9-4.9,16.8-17c3.4-14.3,7.8-32.1,10.9-45.2C364.3,161.6,360.9,152.2,353.7,152.2z M331.5,215.9h-9.7l10.7-44.8h9.4
				L331.5,215.9z"/>
			<path id="L" class="st7" d="M263.1,152.2c3,0,27.7,0,27.7,0l-4.6,18.9h-4.6l-9.9,44.8h6.9l2.7-13.5l17-0.2l-6.6,31h-46.9
				l3.7-17.4h5.1l9.9-44.8h-4.6L263.1,152.2z"/>
			<path id="L_00000005961750670012436270000000948459104063206293_" class="st7" d="M212.9,152.2c3,0,26.2,0,26.2,0l-3.9,18.9h-4.6
				l-10,44.8h6.9l2.7-13.5l16.2-0.2l-6.6,31h-46.7l4.3-17.4h5l10.7-44.8h-4.6L212.9,152.2z"/>
			<path id="U" class="st7" d="M152.7,152.2l-5,18.9h5c0,0-8.6,34.7-11.2,47.6c-1.2,5.9,0.2,14.6,6.7,14.6s19.6,0,26,0
				c10.8,0,13.9-13.9,13.9-13.9l11.5-48.3h4.1l4.3-18.9h-22.8l-15.1,63.7h-9.3l14.9-63.7H152.7z"/>
			<path id="B" class="st7" d="M134.8,152.1c-13.8,0.2-39.3,0-39.3,0l-4.4,19h5l-10.6,44.8h-5.1L75.9,233c0,0,28.9,0.5,39.4,0.3
				c10.1,0.1,14.1-6.9,15.7-12.5c0.5-2.5,4-16.9,4.6-19.3c1.6-5.3,0.3-9.1-6.3-10.3c6.8,0.1,8.9-1.1,10.2-5.9
				c1.1-3.7,2.7-9.8,3.7-14.1C145.4,161.8,146.1,152.7,134.8,152.1z M113.7,215.9h-9.3l3.4-14.9l9.3-0.2L113.7,215.9z M120.8,185.4
				h-9.4l3.4-14.3h9.4L120.8,185.4z"/>
		</g>
	</g>
	<g id="SOUTHERN-ILLINOIS">
		<path id="S2-SOUTHERNILLINOIS" class="st8" d="M10,111.2h9.1v4.5h9.1v-9.1h-11L10,99.4V86.7l7.2-7.2h12.7l7.2,7.2V93H28v-4.5h-9.1
			v9.1h10.7l7.4,7.2v12.7l-7.2,7.2H17.2l-7.2-7.2C10,117.5,10,111.2,10,111.2z"/>
		<path id="O2-SOUTHERNILLINOIS" class="st8" d="M49.2,124.7l-7.2-7.2V86.7l7.2-7.2h12.7l7.2,7.2v30.8l-7.2,7.2H49.2z M51,115.7h9.1
			V88.5H51V115.7z"/>
		<path id="U-SOUTHERNILLINOIS" class="st8" d="M73.9,79.5h17.5v9.1h-3.9v27.2h9.1V88.5h-3.9v-9.1h17.5v9.1h-4.5v29l-7.2,7.2H85.7
			l-7.2-7.2v-29H74L73.9,79.5L73.9,79.5z"/>
		<path id="T-SOUTHERNILLINOIS" class="st8" d="M124,124.7v-9.1h4.5V88.5H124V93h-9V79.5h36.2v13.6h-9.1v-4.5h-4.5v27.2h4.5v9.1H124
			V124.7z"/>
		<path id="H-SOUTHERNILLINOIS" class="st8" d="M156,124.7v-9.1h4.5V88.5H156v-9.1h17.5v9.1h-3.9v9.1h9.1v-9.1h-3.9v-9.1h17.5v9.1
			h-4.5v27.2h4.5v9.1h-17.5v-9.1h3.9v-9.1h-9.1v9.1h3.9v9.1L156,124.7L156,124.7z"/>
		<path id="E-SOUTHERNILLINOIS" class="st8" d="M197,124.7v-9.1h4.5V88.5H197v-9.1h31.7V93h-9.1v-4.5h-9.1v9.1h9.1v9.1h-9.1v9.1h9.1
			v-4.5h9.1v13.6H197V124.7z"/>
		<path id="R-SOUTHERNILLINOIS" class="st8" d="M233.5,124.7v-9.1h4.5V88.5h-4.5v-9.1h24.4l7.2,7.2v12.7l-2.7,2.7l2.7,2.7v10.9h4.5
			v9.1h-17.5v-9.1h3.9v-9.1h-9.1v9.1h3.9v9.1C250.8,124.7,233.5,124.7,233.5,124.7z M247.1,97.6h9.1v-9.1h-9.1V97.6z"/>
		<path id="N2-SOUTHERNILLINOIS" class="st8" d="M274.5,124.7v-9.1h4.5V88.5h-4.5v-9.1h13.6l13.6,25.9V88.5h-4.5v-9.1h18.1v9.1h-4.5
			v36.2h-9.1l-13.6-25.9v16.8h4.5v9.1C292.6,124.7,274.5,124.7,274.5,124.7z"/>
		<path id="I3-SOUTHERNILLINOIS" class="st8" d="M345.5,124.7v-9.1h4.5V88.5h-4.5v-9.1H363v9.1h-3.9v27.2h3.9v9.1L345.5,124.7
			L345.5,124.7z"/>
		<path id="L-SOUTHERNILLINOIS" class="st8" d="M367.8,124.7v-9.1h4.5V88.5h-4.5v-9.1h18.1v9.1h-4.5v27.2h9.1v-4.5h9.1v13.6
			L367.8,124.7L367.8,124.7z"/>
		<path id="L-SOUTHERNILLINOIS_00000180327677329662313850000015415238339770089643_" class="st8" d="M404.3,124.7v-9.1h4.5V88.5
			h-4.5v-9.1h18.1v9.1h-4.5v27.2h9.1v-4.5h9.1v13.6L404.3,124.7L404.3,124.7z"/>
		<path id="I2-SOUTHERNILLINOIS" class="st8" d="M440.8,124.7v-9.1h4.5V88.5h-4.5v-9.1h17.5v9.1h-3.9v27.2h3.9v9.1L440.8,124.7
			L440.8,124.7z"/>
		<path id="N1-SOUTHERNILLINOIS" class="st8" d="M463.1,124.7v-9.1h4.5V88.5h-4.5v-9.1h13.6l13.6,25.9V88.5h-4.5v-9.1h18.1v9.1h-4.5
			v36.2h-9.1l-13.6-25.9v16.8h4.5v9.1C481.2,124.7,463.1,124.7,463.1,124.7z"/>
		<path id="O1-SOUTHERNILLINOIS" class="st8" d="M515.9,124.7l-7.2-7.2V86.7l7.2-7.2h12.7l7.2,7.2v30.8l-7.2,7.2H515.9z
			 M517.7,115.7h9.1V88.5h-9.1V115.7z"/>
		<path id="I1-SOUTHERNILLINOIS" class="st8" d="M540.6,124.7v-9.1h4.5V88.5h-4.5v-9.1H558v9.1h-3.9v27.2h3.9v9.1L540.6,124.7
			L540.6,124.7z"/>
		<path id="S1-SOUTHERNILLINOIS" class="st8" d="M562.8,111.2h9.1v4.5h9.1v-9.1h-10.9l-7.2-7.2V86.7l7.2-7.2h12.7l7.2,7.2V93h-9.1
			v-4.5h-9.1v9.1h10.7l7.4,7.2v12.7l-7.2,7.2H570l-7.2-7.2V111.2z"/>
	</g>
</g>
</svg>
