<?xml version="1.0" encoding="utf-8"?>
<!-- Generator: Adobe Illustrator 26.5.0, SVG Export Plug-In . SVG Version: 6.00 Build 0)  -->
<svg version="1.1" id="BD-Banner-Logo" xmlns="http://www.w3.org/2000/svg" xmlns:xlink="http://www.w3.org/1999/xlink" x="0px"
	 y="0px" viewBox="0 0 5184 4036" style="enable-background:new 0 0 5184 4036;" xml:space="preserve">
<style type="text/css">
	.st0{opacity:0;fill:none;}
	.st1{fill:#010101;stroke:#010101;stroke-width:5;stroke-miterlimit:10;}
	.st2{fill:#B0B0B0;}
	.st3{fill:#FFFFFF;}
	.st4{fill:#010101;}
	.st5{fill:#989898;}
	.st6{fill:#333333;}
	.st7{fill:#191919;}
	.st8{fill:#3A3B3A;stroke:#989898;stroke-width:12;stroke-miterlimit:10;}
	.st9{fill:#B0B0B0;stroke:#231F20;stroke-width:10;stroke-miterlimit:10;}
	.st10{fill:#231F20;}
	.st11{fill:#3A3B3A;}
</style>
<rect id="Background" class="st0" width="5184" height="4036"/>
<g id="Banner-Logo">
	<g id="BD_Wrestling_Logo">
		<g id="Banner">
			<path id="Banner-Background" class="st1" d="M291.3,1547.8l-4.9,1207.1c0,0,1963.2-494.1,4618.8,0c0,0,0-801,0-1213
				C2270.1,2018,291.3,1547.8,291.3,1547.8z"/>
			<path id="Banner-Rim" d="M216.2,2845.5l0-17.9c-0.7-405.2-0.7-1177.6,0-1354.9l0.1-17.6l17.3,3.7
				c791.6,167.9,1588.1,219.9,2271.1,219.9c360.3,0,689-14.5,969-34.1c459.1-32.1,838.4-81.1,1075.7-116.6
				c257.2-38.4,407.7-69.6,409.2-69.9l17.3-3.6v1389l-17.4-3.8c-1.5-0.3-152-33-409.2-73.1c-237.3-37.1-616.6-88.2-1075.7-121.7
				c-278-20.3-604.2-35.2-961.5-35.2c-684.7,0-1483.9,54.8-2278.5,232L216.2,2845.5z M244.9,1490.5c-0.6,202.8-0.6,922.2,0,1319.3
				c530.8-117.2,1107.1-190.3,1713.3-217.4c490.2-21.9,1000.9-13.9,1518.1,23.8c460.1,33.5,840.1,84.9,1078,122
				c207.8,32.4,346.2,60,392.9,69.7V1489.6c-46.5,9.2-185,35.6-393,66.7c-237.8,35.5-617.9,84.7-1077.9,116.9
				c-517.1,36.2-1027.8,44.1-1518,23.6C1352,1671.3,775.7,1601.9,244.9,1490.5z"/>
			<g id="WRESTLING-CLUB">
				<g>
					<g id="W-WRESTLING_00000011710794131376597880000003441501701215573431_">
						<path class="st2" d="M577.6,2535.6c0-51.7,0-103.5,0-155.2c11.8-1,23.6-2.1,35.4-3.1c-15.4-61.3-30.7-123.6-46.1-186.9
							c-15.4,64-30.7,129-46.1,195c11.8-1.1,23.6-2.1,35.4-3.2c0,52.1,0,104.3,0,156.4c-47.9,6.9-95.9,14-143.8,21.3
							c0-54.8,0-109.7,0-164.5c13.4-1.3,26.8-2.5,40.2-3.8c-13.5-173.9-27.1-350.2-40.6-529.2c-13.2-1.2-26.3-2.5-39.5-3.8
							c0-55.6,0-111.2,0-166.9c49.8,7.8,99.6,15.3,149.4,22.5c0,52.8,0,105.5,0,158.3c-13.4-1.2-26.8-2.4-40.3-3.7
							c7.8,98.1,15.6,195.5,23.5,292c20.5-88,41.1-174.1,61.6-258.4c20.5,87.5,41.1,173.2,61.7,257c7.8-92.6,15.7-184.5,23.5-275.7
							c-13.4-1.1-26.9-2.3-40.3-3.4c0-51.1,0-102.3,0-153.4c49.9,6.9,99.8,13.6,149.7,20c0,48.6,0,97.2,0,145.8
							c-13.2-1-26.4-2.1-39.6-3.2c-13.6,158.4-27.1,319-40.7,481.8c13.4-1.1,26.9-2.2,40.3-3.3c0,49.2,0,98.5,0,147.7
							C673.5,2522.2,625.5,2528.8,577.6,2535.6z"/>
						<path class="st3" d="M756.5,1750.8c0,45.8,0,91.5,0,137.3c-10-0.8-20-1.6-30-2.4c-3.1-0.3-6.2-0.5-9.2-0.8
							c-0.2,2.7-0.5,5.4-0.7,8.1c-13.3,155.8-26.6,313.7-39.9,473.7c-0.3,3.2-0.5,6.5-0.8,9.7c3.6-0.3,7.2-0.6,10.7-0.9
							c10-0.8,20-1.7,30-2.5c0,46.4,0,92.8,0,139.1c-44.7,5.8-89.3,11.8-134,18.1c0-48.6,0-97.1,0-145.7c8.1-0.7,16.2-1.4,24.2-2.1
							c4.2-0.4,8.3-0.7,12.5-1.1c-0.9-3.6-1.8-7.3-2.7-10.9c-13.3-53-26.6-106.7-39.9-161.2c-3.2-13.3-6.5-26.6-9.7-39.9
							c-3.2,13.4-6.5,26.9-9.7,40.5c-13.3,55.6-26.6,112-39.9,169.1c-0.9,3.9-1.8,7.9-2.7,11.8c4.2-0.4,8.3-0.8,12.5-1.1
							c8.1-0.7,16.1-1.5,24.2-2.2c0,49.1,0,98.2,0,147.3c-44.6,6.3-89.2,12.9-133.8,19.6c0-51.5,0-102.9,0-154.4
							c10-1,19.9-1.9,29.9-2.9c3.6-0.3,7.1-0.7,10.7-1c-0.3-3.4-0.5-6.9-0.8-10.3c-13.3-170.4-26.6-343.2-39.8-518.5
							c-0.2-3.1-0.5-6.1-0.7-9.2c-3.1-0.3-6.1-0.6-9.2-0.9c-10-1-19.9-1.9-29.9-2.9c0-52.2,0-104.4,0-156.6
							c46.5,7.2,93,14.1,139.5,20.8c0,49.7,0,99.4,0,149.1c-10-0.9-19.9-1.8-29.9-2.8c-3.6-0.3-7.2-0.7-10.7-1
							c0.3,3.5,0.6,7,0.8,10.4c6.8,85.8,13.7,171,20.5,255.6c1.7,21.2,3.4,42.3,5.1,63.4c4.8-20.8,9.7-41.5,14.5-62
							c16.5-70.2,33-139.3,49.5-207.1c16.5,70.2,33,139.2,49.5,207c4.8,19.9,9.7,39.6,14.5,59.3c1.7-20.2,3.4-40.4,5.1-60.6
							c6.8-80.6,13.7-160.6,20.5-240.1c0.3-3.2,0.6-6.4,0.8-9.7c-3.6-0.3-7.2-0.6-10.8-0.9c-10-0.9-20-1.7-29.9-2.6c0-48,0-96,0-144
							C663.3,1738.8,709.9,1744.9,756.5,1750.8 M766.4,1743.4c-53.2-6.9-106.5-14.1-159.6-21.6c0,54.3,0,108.6,0,162.9
							c13.3,1.1,26.6,2.2,39.9,3.3c-6.8,79.7-13.7,160.1-20.5,240.9c-19.8-80.9-39.5-163.4-59.3-247.7
							c-19.7,80.9-39.5,163.4-59.2,247.7c-6.8-84.3-13.7-169.2-20.5-254.7c13.3,1.2,26.6,2.4,39.9,3.5c0-55.8,0-111.6,0-167.4
							c-53.2-7.8-106.3-15.9-159.4-24.3c0,59.1,0,118.1,0,177.2c13.3,1.3,26.5,2.5,39.8,3.7c13.3,175.9,26.6,349.3,39.8,520.3
							c-13.3,1.2-26.6,2.4-39.8,3.7c0,58.2,0,116.4,0,174.7c51.2-8,102.4-15.6,153.7-23c0-55.2,0-110.3,0-165.5
							c-11.4,1-22.8,2-34.2,3c13.3-57,26.6-113.2,39.9-168.6c13.3,54.7,26.6,108.6,39.9,161.7c-11.4,1-22.8,1.9-34.2,2.9
							c0,54.9,0,109.9,0,164.8c51.3-7.4,102.6-14.4,153.9-21.2c0-52.1,0-104.2,0-156.3c-13.3,1.1-26.6,2.1-39.9,3.2
							c13.3-159.5,26.6-316.9,39.9-472.1c13.3,1.1,26.6,2.1,39.9,3.1C766.4,1846.2,766.4,1794.8,766.4,1743.4L766.4,1743.4z"/>
					</g>
					<g id="R-WRESTLING_00000177481538221591426100000008190003754061677501_">
						<path class="st2" d="M979.5,2484.5c0-45.2,0-90.5,0-135.7c11.4-0.8,22.9-1.6,34.3-2.4c0-50.1,0-100.2,0-150.3
							c-30,0.6-60,1.3-90,2c0,51.6,0,103.1,0,154.7c11.4-0.8,22.8-1.6,34.3-2.5c0,45.5,0,91.1,0,136.6
							c-48.1,5.5-96.1,11.2-144.2,17.2c0-47.7,0-95.5,0-143.2c13.3-1,26.6-2,40-3c0-152.6,0-305.2,0-457.8c-13.3-1-26.6-2-40-3
							c0-47.7,0-95.5,0-143.2c69.2,8.6,138.4,16.7,207.7,24.4c20.7,39.1,41.5,77.4,62.2,115c0,64.4,0,128.8,0,193.2
							c-8.2,14.1-16.3,28.3-24.5,42.6c8.2,14.3,16.3,28.5,24.5,42.6c0,56.7,0,113.4,0,170.1c13.3-0.9,26.7-1.7,40-2.6
							c0,43.3,0,86.5,0,129.8C1075.7,2473.8,1027.5,2479,979.5,2484.5z M923.8,2059.9c30,0.7,60,1.3,90,2c0-50.1,0-100.2,0-150.3
							c-30-2-60-4.2-90-6.3C923.8,1956.7,923.8,2008.3,923.8,2059.9z"/>
						<path class="st3" d="M1018.3,1781.8c20.2,38,40.3,75.2,60.5,111.8c0,63.9,0,127.9,0,191.8c-7.7,13.3-15.4,26.7-23.1,40.3
							c-0.6,1.1-1.2,2.2-1.9,3.3c0.6,1.1,1.2,2.2,1.9,3.3c7.7,13.5,15.4,26.9,23.1,40.3c0,55.2,0,110.4,0,165.6c0,2.6,0,5.2,0,7.9
							c3.3-0.2,6.7-0.4,10-0.7c10-0.7,20-1.3,30-2c0,40.7,0,81.5,0,122.2c-44.8,4.6-89.6,9.3-134.3,14.3c0-42.5,0-84.9,0-127.4
							c8.1-0.6,16.2-1.1,24.3-1.7c3.3-0.2,6.7-0.5,10-0.7c0-2.7,0-5.3,0-8c0-47.4,0-94.7,0-142.1c0-2.7,0-5.3,0-8
							c-3.3,0.1-6.7,0.1-10,0.2c-26.7,0.5-53.3,1.1-80,1.6c-3.3,0.1-6.7,0.1-10,0.2c0,2.8,0,5.5,0,8.3c0,48.9,0,97.8,0,146.7
							c0,2.8,0,5.5,0,8.3c3.3-0.2,6.7-0.5,10-0.7c8.1-0.6,16.2-1.2,24.3-1.8c0,42.9,0,85.8,0,128.7c-44.8,5.1-89.5,10.4-134.2,15.9
							c0-44.8,0-89.6,0-134.4c10-0.8,20-1.6,30-2.3c3.3-0.3,6.6-0.5,10-0.8c0-2.8,0-5.6,0-8.4c0-149.6,0-299.1,0-448.7
							c0-2.8,0-5.6,0-8.4c-3.3-0.3-6.6-0.5-10-0.8c-10-0.8-20-1.5-30-2.3c0-44.8,0-89.6,0-134.4
							C885.3,1766.8,951.8,1774.5,1018.3,1781.8 M918.8,2063.9c3.3,0.1,6.7,0.1,10,0.2c26.7,0.6,53.3,1.1,80,1.6
							c3.3,0.1,6.7,0.1,10,0.2c0-2.7,0-5.3,0-8c0-47.4,0-94.7,0-142.1c0-2.7,0-5.3,0-8c-3.3-0.2-6.7-0.5-10-0.7
							c-26.7-1.9-53.3-3.8-80-5.7c-3.3-0.2-6.7-0.5-10-0.7c0,2.8,0,5.5,0,8.3c0,48.9,0,97.8,0,146.7
							C918.8,2058.4,918.8,2061.1,918.8,2063.9 M1024.8,1774.5c-72-8-144-16.5-215.9-25.6c0,50.7,0,101.4,0,152c13.3,1,26.6,2,40,3
							c0,150,0,300.1,0,450.1c-13.3,1-26.6,2-40,3c0,50.7,0,101.4,0,152c51.4-6.5,102.7-12.7,154.2-18.6c0-48.2,0-96.4,0-144.6
							c-11.4,0.8-22.8,1.6-34.3,2.4c0-48.7,0-97.5,0-146.2c26.7-0.6,53.3-1.2,80-1.8c0,47.5,0,95,0,142.5
							c-11.4,0.8-22.9,1.5-34.3,2.3c0,48,0,96,0,144.1c51.4-5.9,102.9-11.5,154.3-16.8c0-45.8,0-91.6,0-137.3
							c-13.3,0.8-26.7,1.7-40,2.5c0-55.6,0-111.2,0-166.8c-8-13.8-16-27.7-24-41.7c8-14,16-27.9,24-41.7c0-64.9,0-129.7,0-194.6
							C1067.4,1854,1046.1,1814.6,1024.8,1774.5L1024.8,1774.5z M928.8,2055.8c0-48.7,0-97.5,0-146.2c26.7,1.9,53.3,3.7,80,5.5
							c0,47.5,0,95,0,142.5C982.1,2057.1,955.4,2056.5,928.8,2055.8L928.8,2055.8z"/>
					</g>
					<g id="E-WRESTLING_00000013905996361422301380000010544487800842367159_">
						<path class="st2" d="M1176.3,2463.6c0-42.6,0-85.2,0-127.7c13.3-0.8,26.7-1.6,40-2.4c0-136.3,0-272.7,0-409
							c-13.3-0.8-26.7-1.6-40-2.4c0-42.6,0-85.2,0-127.7c90.1,8.9,180.2,17,270.4,24.2c0,60.4,0,120.9,0,181.3
							c-23.4-0.8-46.8-1.6-70.2-2.4c0-21.3,0-42.6,0-64c-30.1-1.6-60.1-3.2-90.1-4.9c0,46.2,0,92.4,0,138.6
							c26.7,0.5,53.4,0.9,80.1,1.4c0,40.3,0,80.7,0,121c-26.7,0.4-53.4,0.9-80.1,1.4c0,46.2,0,92.4,0,138.6
							c30-1.7,60.1-3.3,90.1-4.9c0-21.3,0-42.6,0-64c23.4-0.8,46.8-1.6,70.2-2.4c0,60.4,0,120.9,0,181.3
							C1356.6,2446.6,1266.4,2454.7,1176.3,2463.6z"/>
						<path class="st3" d="M1441.8,1821.6c0,58.1,0,116.3,0,174.4c-20.1-0.7-40.1-1.4-60.2-2.1c0-18.9,0-37.8,0-56.7
							c0-2.4,0-4.8,0-7.2c-3.3-0.2-6.7-0.4-10-0.5c-26.7-1.4-53.4-2.9-80.1-4.4c-3.3-0.2-6.7-0.4-10-0.6c0,2.5,0,4.9,0,7.4
							c0,43.8,0,87.6,0,131.3c0,2.5,0,4.9,0,7.4c3.3,0.1,6.7,0.1,10,0.2c23.4,0.4,46.8,0.8,70.1,1.1c0,38,0,76,0,114
							c-23.4,0.4-46.8,0.7-70.1,1.1c-3.3,0.1-6.7,0.1-10,0.2c0,2.5,0,4.9,0,7.4c0,43.8,0,87.6,0,131.3c0,2.5,0,4.9,0,7.4
							c3.3-0.2,6.7-0.4,10-0.6c26.7-1.5,53.4-3,80.1-4.4c3.3-0.2,6.7-0.4,10-0.5c0-2.4,0-4.8,0-7.2c0-18.9,0-37.8,0-56.7
							c20-0.7,40.1-1.4,60.2-2.1c0,58.1,0,116.3,0,174.4c-86.9,6.9-173.7,14.6-260.4,23c0-40,0-80,0-119.9c10-0.6,20-1.2,30-1.8
							c3.3-0.2,6.7-0.4,10-0.6c0-2.5,0-5,0-7.5c0-133.6,0-267.2,0-400.8c0-2.5,0-5,0-7.5c-3.3-0.2-6.7-0.4-10-0.6
							c-10-0.6-20-1.2-30-1.8c0-40,0-80,0-119.9C1268.1,1807.1,1354.9,1814.7,1441.8,1821.6 M1451.8,1815.4
							c-93.5-7.5-187-16-280.4-25.4c0,45.2,0,90.4,0,135.6c13.3,0.8,26.7,1.6,40,2.4c0,134,0,268,0,402c-13.3,0.8-26.7,1.6-40,2.4
							c0,45.2,0,90.4,0,135.6c93.4-9.4,186.9-17.9,280.4-25.4c0-62.7,0-125.4,0-188.1c-26.7,0.9-53.4,1.8-80.2,2.7
							c0,21.4,0,42.7,0,64.1c-26.7,1.4-53.4,2.8-80.1,4.3c0-43.7,0-87.3,0-131c26.7-0.5,53.4-1,80.1-1.4c0-42.7,0-85.4,0-128.1
							c-26.7-0.5-53.4-0.9-80.1-1.4c0-43.7,0-87.3,0-131c26.7,1.5,53.4,2.9,80.1,4.3c0,21.4,0,42.7,0,64.1
							c26.7,0.9,53.4,1.8,80.2,2.7C1451.8,1940.8,1451.8,1878.1,1451.8,1815.4C1451.8,1815.4,1451.8,1815.4,1451.8,1815.4z"/>
					</g>
					<g id="S-WRESTLING_00000021090939466396608060000010756622664188447621_">
						<path class="st2" d="M1561.8,2430.6c-20.8-30.2-41.6-60.7-62.4-91.8c0-27.5,0-55,0-82.5c23.4-0.7,46.8-1.5,70.2-2.2
							c0,20.3,0,40.6,0,60.9c30.1-1.3,60.2-2.6,90.2-3.8c0-42,0-84.1,0-126.1c-32.7,0.4-65.4,0.8-98,1.3
							c-20.8-31.4-41.6-63.2-62.4-95.5c0-57.3,0-114.7,0-172c20.8-31,41.6-61.6,62.4-91.8c35.3,2.5,70.6,4.9,105.9,7.2
							c20.8,32.2,41.6,64,62.4,95.3c0,26.1,0,52.2,0,78.3c-23.4-0.6-46.8-1.2-70.2-1.8c0-19.9,0-39.8,0-59.7
							c-30.1-1.2-60.2-2.5-90.2-3.8c0,42.9,0,85.8,0,128.7c32.3,0.4,64.6,0.9,96.9,1.3c21.2,31.2,42.4,61.9,63.6,92.2
							c0,54.4,0,108.8,0,163.1c-20.8,31.3-41.6,63.1-62.4,95.3C1632.3,2425.7,1597,2428.1,1561.8,2430.6z"/>
						<path class="st3" d="M1664.4,1837.6c20.2,31.3,40.4,62.2,60.6,92.7c0,24.8,0,49.5,0,74.3c-20.1-0.5-40.1-1.1-60.2-1.6
							c0-17.6,0-35.3,0-52.9c0-2.2,0-4.5,0-6.7c-3.3-0.1-6.7-0.3-10-0.4c-26.7-1.1-53.5-2.3-80.2-3.4c-3.3-0.1-6.7-0.3-10-0.5
							c0,2.3,0,4.6,0,6.9c0,40.7,0,81.3,0,122c0,2.3,0,4.6,0,6.9c3.3,0,6.7,0.1,10,0.1c29.6,0.4,59.1,0.7,88.7,1.1
							c20.6,30.3,41.2,60.2,61.7,89.7c0,54,0,107.9,0,161.9c-20.2,30.5-40.4,61.4-60.6,92.7c-33.1,2.1-66.3,4.4-99.4,6.7
							c-20.2-29.3-40.4-59-60.6-89.1c0-26.1,0-52.1,0-78.2c20.1-0.7,40.1-1.3,60.2-1.9c0,18,0,36.1,0,54.1c0,2.3,0,4.6,0,6.9
							c3.3-0.2,6.7-0.3,10-0.5c26.7-1.2,53.5-2.3,80.2-3.4c3.3-0.1,6.7-0.3,10-0.4c0-2.2,0-4.5,0-6.7c0-39.7,0-79.5,0-119.2
							c0-2.2,0-4.5,0-6.7c-3.3,0-6.7,0.1-10,0.1c-29.9,0.4-59.9,0.7-89.8,1.1c-20.2-30.5-40.4-61.4-60.6-92.7
							c0-56.8,0-113.5,0-170.3c20.2-30.1,40.4-59.8,60.6-89.1C1598.1,1833.3,1631.3,1835.5,1664.4,1837.6 M1670.9,1831.3
							c-37.4-2.4-74.9-5-112.3-7.8c-21.4,31-42.8,62.5-64.2,94.4c0,57.9,0,115.8,0,173.7c21.4,33.3,42.8,66,64.2,98.3
							c32.1-0.5,64.2-0.9,96.3-1.3c0,39.8,0,79.6,0,119.5c-26.7,1.1-53.5,2.2-80.2,3.3c0-20.3,0-40.6,0-60.8
							c-26.7,0.8-53.5,1.6-80.2,2.4c0,29,0,57.9,0,86.9c21.4,32,42.8,63.4,64.2,94.4c37.4-2.7,74.9-5.3,112.3-7.8
							c21.4-33.1,42.8-65.8,64.2-98c0-54.8,0-109.6,0-164.4c-21.8-31.2-43.6-62.7-65.4-94.8c-31.7-0.4-63.4-0.8-95.1-1.3
							c0-40.6,0-81.1,0-121.7c26.7,1.2,53.5,2.3,80.2,3.3c0,19.9,0,39.8,0,59.7c26.7,0.7,53.5,1.4,80.3,2c0-27.4,0-54.8,0-82.2
							C1713.6,1897.1,1692.2,1864.5,1670.9,1831.3L1670.9,1831.3z"/>
					</g>
					<g id="T-WRESTLING_00000127022048488429300040000007975487935378554557_">
						<path class="st2" d="M1863,2412.1c0-36,0-72.1,0-108.1c13.4-0.4,26.8-0.8,40.1-1.2c0-115.9,0-231.8,0-347.7
							c-16.7-0.5-33.4-1-50.2-1.5c0,19.1,0,38.3,0,57.4c-23.4-0.5-46.8-1-70.3-1.6c0-56,0-111.9,0-167.9
							c103.7,5.9,207.4,10.6,311.2,14.2c0,53.2,0,106.4,0,159.6c-23.4-0.3-46.9-0.7-70.3-1.1c0-18.6,0-37.2,0-55.8
							c-16.7-0.4-33.5-0.8-50.2-1.3c0,114.6,0,229.2,0,343.7c13.4-0.4,26.8-0.7,40.2-1c0,35.2,0,70.3,0,105.5
							C1963.4,2407.3,1913.2,2409.6,1863,2412.1z"/>
						<path class="st3" d="M2088.9,1858.6c0,51.2,0,102.3,0,153.5c-20.1-0.3-40.2-0.6-60.3-1c0-16.5,0-33,0-49.5c0-2.1,0-4.2,0-6.3
							c-3.3-0.1-6.7-0.2-10-0.3c-13.4-0.3-26.8-0.7-40.2-1c-3.3-0.1-6.7-0.2-10-0.3c0,2.1,0,4.2,0,6.4c0,112.6,0,225.1,0,337.7
							c0,2.1,0,4.2,0,6.4c3.3-0.1,6.7-0.2,10-0.3c10-0.3,20.1-0.5,30.1-0.8c0,33.1,0,66.2,0,99.2c-46.9,1.9-93.7,4-140.6,6.4
							c0-33.8,0-67.7,0-101.5c10-0.3,20.1-0.6,30.1-0.9c3.3-0.1,6.7-0.2,10-0.3c0-2.1,0-4.3,0-6.4c0-113.7,0-227.3,0-341
							c0-2.1,0-4.3,0-6.4c-3.3-0.1-6.7-0.2-10-0.3c-13.4-0.4-26.8-0.8-40.1-1.3c-3.3-0.1-6.7-0.2-10-0.3c0,2.2,0,4.3,0,6.5
							c0,17,0,34,0,51c-20.1-0.4-40.2-0.9-60.2-1.4c0-53.7,0-107.5,0-161.2C1888.1,1850.6,1988.5,1855.1,2088.9,1858.6
							 M2098.9,1852.7c-107.1-3.7-214.2-8.7-321.2-14.8c0,58.2,0,116.4,0,174.6c26.8,0.6,53.5,1.2,80.3,1.8c0-19.1,0-38.2,0-57.3
							c13.4,0.4,26.8,0.8,40.1,1.2c0,113.9,0,227.7,0,341.6c-13.4,0.4-26.8,0.8-40.1,1.2c0,38.2,0,76.4,0,114.7
							c53.5-2.8,107.1-5.3,160.6-7.4c0-37.2,0-74.5,0-111.7c-13.4,0.3-26.8,0.7-40.2,1c0-112.4,0-224.8,0-337.1
							c13.4,0.3,26.8,0.7,40.2,1c0,18.6,0,37.2,0,55.9c26.8,0.4,53.5,0.8,80.3,1.2C2098.9,1963.2,2098.9,1908,2098.9,1852.7
							L2098.9,1852.7z"/>
					</g>
					<g id="L-WRESTLING_00000065075093990740086820000002263662342918389178_">
						<path class="st2" d="M2146.6,2400.5c0-34.6,0-69.1,0-103.7c13.4-0.3,26.8-0.5,40.2-0.7c0-111.4,0-222.9,0-334.3
							c-13.4-0.2-26.8-0.5-40.2-0.7c0-34.6,0-69.1,0-103.7c50.2,1.6,100.4,2.9,150.7,3.9c0,34.1,0,68.1,0,102.2
							c-13.4-0.2-26.8-0.4-40.2-0.5c0,110.7,0,221.4,0,332c30.1-0.4,60.3-0.8,90.4-1.1c0-18,0-36,0-53.9c23.4-0.2,46.9-0.3,70.3-0.4
							c0,51.7,0,103.4,0,155.1C2327.4,2395.7,2237,2397.7,2146.6,2400.5z"/>
						<path class="st3" d="M2292.3,1864.3c0,32,0,64.1,0,96.1c-10.1-0.1-20.1-0.3-30.2-0.4c-3.3,0-6.7-0.1-10-0.1c0,2,0,4.1,0,6.1
							c0,108.7,0,217.4,0,326c0,2,0,4.1,0,6.1c3.3-0.1,6.7-0.1,10-0.1c26.8-0.4,53.6-0.7,80.4-1c3.3,0,6.7-0.1,10-0.1
							c0-2,0-4.1,0-6.1c0-15.9,0-31.9,0-47.8c20.1-0.1,40.2-0.3,60.3-0.4c0,49.7,0,99.4,0,149.1c-87.1,1.1-174.1,3-261.2,5.6
							c0-32.5,0-64.9,0-97.4c10-0.2,20.1-0.4,30.1-0.6c3.3-0.1,6.7-0.1,10-0.2c0-2.1,0-4.1,0-6.2c0-109.3,0-218.6,0-327.9
							c0-2.1,0-4.1,0-6.2c-3.3-0.1-6.7-0.1-10-0.2c-10-0.2-20.1-0.4-30.1-0.6c0-32.5,0-64.9,0-97.4
							C2198.5,1862.1,2245.4,1863.3,2292.3,1864.3 M2302.3,1858.4c-53.6-1.1-107.1-2.5-160.7-4.2c0,36.6,0,73.3,0,109.9
							c13.4,0.3,26.8,0.5,40.2,0.7c0,109.4,0,218.9,0,328.3c-13.4,0.2-26.8,0.5-40.2,0.7c0,36.6,0,73.3,0,109.9
							c93.7-3,187.5-5.1,281.2-6.2c0-53.7,0-107.4,0-161.2c-26.8,0.1-53.6,0.3-80.4,0.5c0,18,0,36,0,54c-26.8,0.3-53.6,0.6-80.4,1
							c0-108.6,0-217.2,0-325.8c13.4,0.2,26.8,0.4,40.2,0.5C2302.3,1930.5,2302.3,1894.4,2302.3,1858.4L2302.3,1858.4z"/>
					</g>
					<g id="I-WRESTLING_00000119815108080217848200000016230274980479270547_">
						<path class="st2" d="M2470.6,2394c0-33.7,0-67.5,0-101.2c13.4-0.1,26.8-0.1,40.2-0.2c0-109.1,0-218.3,0-327.4
							c-13.4,0-26.8-0.1-40.2-0.2c0-33.7,0-67.5,0-101.2c48.3,0.4,96.6,0.6,145,0.5c0,33.7,0,67.3,0,101c-11.5,0-23,0-34.4,0
							c0,109,0,218.1,0,327.1c11.5,0,23,0,34.4,0c0,33.7,0,67.3,0,101C2567.2,2393.4,2518.9,2393.6,2470.6,2394z"/>
						<path class="st3" d="M2610.5,1867.4c0,31.6,0,63.3,0,94.9c-8.1,0-16.3,0-24.4,0c-3.3,0-6.7,0-10,0c0,2,0,4,0,6
							c0,107,0,214.1,0,321.1c0,2,0,4,0,6c3.3,0,6.7,0,10,0c8.1,0,16.3,0,24.4,0c0,31.6,0,63.3,0,94.9c-45,0-90,0.1-134.9,0.5
							c0-31.7,0-63.4,0-95.1c10.1-0.1,20.1-0.1,30.2-0.1c3.3,0,6.7,0,10,0c0-2,0-4,0-6c0-107.1,0-214.2,0-321.3c0-2,0-4,0-6
							c-3.3,0-6.7,0-10,0c-10.1,0-20.1-0.1-30.2-0.1c0-31.7,0-63.4,0-95.1C2520.6,1867.3,2565.6,1867.5,2610.5,1867.4
							 M2620.6,1861.4c-51.7,0.1-103.3-0.1-155-0.6c0,35.8,0,71.5,0,107.3c13.4,0.1,26.8,0.1,40.2,0.2c0,107.1,0,214.3,0,321.4
							c-13.4,0.1-26.8,0.1-40.2,0.2c0,35.8,0,71.5,0,107.3c51.7-0.5,103.3-0.7,155-0.6c0-35.7,0-71.4,0-107c-11.5,0-23,0-34.4,0
							c0-107,0-214,0-321.1c11.5,0,23,0,34.4,0C2620.6,1932.7,2620.6,1897,2620.6,1861.4L2620.6,1861.4z"/>
					</g>
					<g id="N-WRESTLING_00000118363171874802102840000012023463803164794546_">
						<path class="st2" d="M2908.3,2396.9c-43.2-111.9-86.3-222.4-129.5-332.2c0,76.2,0,152.4,0,228.6c13.4,0.1,26.8,0.2,40.2,0.3
							c0,33.9,0,67.8,0,101.6c-50.2-0.8-100.5-1.3-150.7-1.5c0-33.7,0-67.4,0-101c13.4,0,26.8,0.1,40.2,0.2c0-109.2,0-218.4,0-327.6
							c-13.4,0.1-26.8,0.1-40.2,0.2c0-33.7,0-67.4,0-101c37.2-0.2,74.4-0.5,111.6-1c43.2,109.5,86.4,219.4,129.5,330.5
							c0-76.8,0-153.7,0-230.5c-13.4,0.2-26.8,0.3-40.2,0.5c0-34,0-68,0-102c50.2-1,100.5-2.2,150.7-3.6c0,34.5,0,68.9,0,103.4
							c-13.4,0.2-26.8,0.5-40.2,0.7c0,145.5,0,290.9,0,436.4C2955.9,2397.9,2932.1,2397.4,2908.3,2396.9z"/>
						<path class="st3" d="M3014.9,1861.4c0,32.4,0,64.7,0,97.1c-10,0.2-20.1,0.4-30.1,0.5c-3.3,0.1-6.7,0.1-10,0.2
							c0,2.1,0,4.1,0,6.2c0,143.3,0,286.7,0,430c-20.8-0.5-41.6-1-62.4-1.5c-39.6-102.6-79.1-204-118.7-304.8
							c-6.6-16.8-13.2-33.6-19.8-50.4c0,17.3,0,34.5,0,51.8c0,66.5,0,133.1,0,199.6c0,2,0,4,0,6.1c3.3,0,6.7,0.1,10,0.1
							c10.1,0.1,20.1,0.2,30.2,0.3c0,31.8,0,63.7,0,95.5c-46.9-0.7-93.8-1.2-140.7-1.4c0-31.7,0-63.3,0-95c10.1,0,20.1,0.1,30.2,0.1
							c3.3,0,6.7,0,10,0c0-2,0-4,0-6.1c0-107.2,0-214.4,0-321.6c0-2,0-4,0-6.1c-3.3,0-6.7,0-10,0c-10.1,0-20.1,0.1-30.2,0.1
							c0-31.7,0-63.3,0-95c34.2-0.2,68.4-0.5,102.6-0.9c39.6,100.3,79.1,201,118.7,302.7c6.6,16.9,13.2,33.9,19.8,50.9
							c0-17.4,0-34.9,0-52.3c0-67.1,0-134.3,0-201.4c0-2,0-4.1,0-6.1c-3.3,0-6.7,0.1-10,0.1c-10.1,0.1-20.1,0.3-30.2,0.4
							c0-32,0-63.9,0-95.9C2921.1,1863.9,2968,1862.8,3014.9,1861.4 M3024.9,1854.9c-53.6,1.6-107.1,2.9-160.7,3.9c0,36,0,72,0,108
							c13.4-0.2,26.8-0.3,40.2-0.5c0,67.1,0,134.2,0,201.2c-40.2-103.3-80.4-205.6-120.5-307.5c-40.2,0.5-80.4,0.9-120.5,1.1
							c0,35.7,0,71.4,0,107.1c13.4,0,26.8-0.1,40.2-0.1c0,107.2,0,214.4,0,321.5c-13.4-0.1-26.8-0.1-40.2-0.1c0,35.7,0,71.4,0,107.1
							c53.6,0.3,107.2,0.8,160.7,1.7c0-35.9,0-71.8,0-107.8c-13.4-0.1-26.8-0.2-40.2-0.4c0-66.6,0-133.1,0-199.7
							c40.2,102.3,80.4,205.2,120.5,309.3c26.8,0.6,53.6,1.2,80.3,2c0-145.5,0-291,0-436.6c13.4-0.2,26.8-0.5,40.2-0.7
							C3024.9,1928,3024.9,1891.5,3024.9,1854.9L3024.9,1854.9z"/>
					</g>
					<g id="G-WRESTLING_00000163031457323109729990000003623991723595966091_">
						<path class="st2" d="M3135.1,2403.6c-20.8-29.6-41.7-58.9-62.5-87.9c0-124.5,0-248.9,0-373.4c20.8-29,41.7-58.3,62.5-87.9
							c35.3-1.3,70.7-2.8,106-4.4c20.8,28.3,41.6,56.9,62.5,85.8c0,25.3,0,50.6,0,75.9c-23.4,0.5-46.9,0.9-70.3,1.4
							c0-18.8,0-37.6,0-56.4c-30.1,0.8-60.2,1.6-90.3,2.3c0,113.3,0,226.6,0,339.9c30.1,0.7,60.2,1.5,90.3,2.3
							c0-39.7,0-79.4,0-119.1c-13.4-0.1-26.8-0.2-40.2-0.3c0-35.2,0-70.5,0-105.7c36.8-0.3,73.6-0.6,110.4-1c0,82.3,0,164.7,0,247
							c-20.8,28.9-41.6,57.5-62.5,85.8C3205.8,2406.3,3170.4,2404.9,3135.1,2403.6z"/>
						<path class="st3" d="M3237.8,1853.3c20.2,27.5,40.5,55.3,60.7,83.3c0,24,0,48,0,71.9c-20.1,0.4-40.2,0.8-60.3,1.2
							c0-16.7,0-33.4,0-50c0-2.1,0-4.2,0-6.4c-3.3,0.1-6.7,0.2-10,0.3c-26.8,0.7-53.5,1.4-80.3,2.1c-3.3,0.1-6.7,0.2-10,0.2
							c0,2.1,0,4.2,0,6.3c0,111.1,0,222.3,0,333.4c0,2.1,0,4.2,0,6.3c3.3,0.1,6.7,0.2,10,0.2c26.8,0.6,53.5,1.3,80.3,2.1
							c3.3,0.1,6.7,0.2,10,0.3c0-2.1,0-4.2,0-6.4c0-37.6,0-75.2,0-112.8c0-2.1,0-4.2,0-6.4c-3.3,0-6.7-0.1-10-0.1
							c-10-0.1-20.1-0.2-30.1-0.2c0-33.2,0-66.3,0-99.5c33.5-0.3,67-0.5,100.4-0.8c0,81,0,161.9,0,242.9
							c-20.2,28-40.5,55.8-60.7,83.3c-33.2-1.5-66.3-2.8-99.5-4c-20.2-28.8-40.5-57.2-60.7-85.5c0-124.1,0-248.2,0-372.3
							c20.2-28.2,40.5-56.7,60.7-85.5C3171.5,1856.1,3204.7,1854.7,3237.8,1853.3 M3244.3,1846.6c-37.5,1.7-75,3.3-112.4,4.7
							c-21.4,30.4-42.8,60.5-64.3,90.4c0,124.8,0,249.7,0,374.5c21.4,29.9,42.8,60,64.3,90.4c37.5,1.4,75,3,112.4,4.7
							c21.4-29.1,42.8-58.5,64.2-88.2c0-83.7,0-167.4,0-251.1c-40.1,0.4-80.3,0.8-120.5,1.1c0,37.3,0,74.6,0,111.9
							c13.4,0.1,26.8,0.2,40.2,0.3c0,37.5,0,75.1,0,112.6c-26.8-0.7-53.5-1.4-80.3-2c0-111.3,0-222.6,0-333.9
							c26.8-0.6,53.5-1.3,80.3-2c0,18.8,0,37.5,0,56.3c26.8-0.5,53.5-1,80.3-1.5c0-26.6,0-53.3,0-79.9
							C3287.1,1905.2,3265.7,1875.8,3244.3,1846.6L3244.3,1846.6z"/>
					</g>
					<g id="C-WRESTLING_00000145757504143222445410000001099816116484353721_">
						<path class="st2" d="M3644.7,2431.7c-20.8-33.3-41.6-66-62.4-98.3c0-136.3,0-272.6,0-408.9c20.8-32.3,41.6-65,62.4-98.3
							c35.3-2.6,70.5-5.3,105.8-8.1c20.8,30.9,41.6,62.4,62.4,94.3c0,28.4,0,56.7,0,85.1c-23.4,0.8-46.8,1.6-70.2,2.4
							c0-20.9,0-41.8,0-62.8c-30.1,1.5-60.1,2.9-90.2,4.3c0,125,0,250,0,375.1c30.1,1.4,60.1,2.8,90.2,4.3c0-20.9,0-41.8,0-62.8
							c23.4,0.8,46.8,1.6,70.2,2.4c0,28.4,0,56.7,0,85.1c-20.8,31.9-41.6,63.4-62.4,94.3C3715.3,2437,3680,2434.3,3644.7,2431.7z"/>
						<path class="st3" d="M3747.3,1821.9c20.2,30.1,40.4,60.6,60.6,91.6c0,26.9,0,53.7,0,80.6c-20,0.7-40.1,1.4-60.2,2.1
							c0-18.6,0-37.2,0-55.7c0-2.4,0-4.7,0-7.1c-3.3,0.2-6.7,0.3-10,0.5c-26.7,1.3-53.5,2.6-80.2,3.9c-3.3,0.2-6.7,0.3-10,0.5
							c0,2.3,0,4.6,0,6.9c0,122.6,0,245.1,0,367.7c0,2.3,0,4.6,0,6.9c3.3,0.2,6.7,0.3,10,0.5c26.7,1.2,53.5,2.5,80.2,3.9
							c3.3,0.2,6.7,0.3,10,0.5c0-2.4,0-4.7,0-7.1c0-18.6,0-37.2,0-55.7c20.1,0.7,40.1,1.4,60.2,2.1c0,26.9,0,53.7,0,80.6
							c-20.2,31-40.4,61.5-60.6,91.6c-33.1-2.6-66.2-5.1-99.4-7.5c-20.2-32.3-40.4-64.2-60.6-95.6c0-136,0-271.9,0-407.9
							c20.2-31.4,40.4-63.2,60.6-95.6C3681.1,1827,3714.2,1824.5,3747.3,1821.9 M3753.8,1814.3c-37.4,3.1-74.8,6-112.3,8.7
							c-21.4,34.2-42.8,67.9-64.2,101c0,136.6,0,273.3,0,409.9c21.4,33.2,42.8,66.8,64.2,101c37.4,2.8,74.9,5.7,112.3,8.7
							c21.4-31.8,42.8-64.2,64.1-97c0-29.9,0-59.7,0-89.6c-26.7-0.9-53.4-1.8-80.2-2.7c0,20.9,0,41.8,0,62.7
							c-26.7-1.3-53.5-2.5-80.2-3.7c0-122.9,0-245.7,0-368.6c26.7-1.2,53.5-2.4,80.2-3.7c0,20.9,0,41.8,0,62.7
							c26.7-0.9,53.4-1.7,80.2-2.7c0-29.9,0-59.7,0-89.6C3796.5,1878.4,3775.1,1846.1,3753.8,1814.3L3753.8,1814.3z"/>
					</g>
					<g id="L-WRESTLING_00000163765595139754179590000011495960356806152580_">
						<path class="st2" d="M3865.5,2449.5c0-40.8,0-81.6,0-122.4c13.4,0.7,26.7,1.5,40.1,2.2c0-133.6,0-267.2,0-400.9
							c-13.4,0.8-26.7,1.5-40.1,2.2c0-40.8,0-81.6,0-122.4c50.1-4.4,100.2-9.1,150.2-14.1c0,42.6,0,85.2,0,127.7
							c-13.3,0.8-26.7,1.6-40,2.4c0,136.3,0,272.7,0,409c30,1.8,60,3.6,90.1,5.5c0-22.9,0-45.8,0-68.7c23.4,1,46.7,2,70,3.1
							c0,67.6,0,135.1,0,202.7C4045.7,2466.3,3955.6,2457.5,3865.5,2449.5z"/>
						<path class="st3" d="M4010.7,1798.6c0,40,0,80,0,119.9c-10,0.6-20,1.2-30,1.8c-3.3,0.2-6.7,0.4-10,0.6c0,2.5,0,5,0,7.5
							c0,133.6,0,267.2,0,400.8c0,2.5,0,5,0,7.5c3.3,0.2,6.7,0.4,10,0.6c26.7,1.6,53.4,3.3,80.1,5c3.3,0.2,6.7,0.4,10,0.6
							c0-2.6,0-5.2,0-7.8c0-20.3,0-40.7,0-61c20,0.9,40,1.8,60.1,2.7c0,64.8,0,129.6,0,194.5c-86.7-9.2-173.5-17.6-260.3-25.2
							c0-38.4,0-76.8,0-115.2c10,0.6,20,1.1,30.1,1.7c3.3,0.2,6.7,0.4,10,0.6c0-2.5,0-4.9,0-7.4c0-131.3,0-262.7,0-394
							c0-2.5,0-4.9,0-7.4c-3.3,0.2-6.7,0.4-10,0.6c-10,0.6-20,1.1-30.1,1.7c0-38.4,0-76.8,0-115.2
							C3917.2,1807.5,3964,1803.2,4010.7,1798.6 M4020.7,1790c-53.4,5.4-106.8,10.4-160.2,15.2c0,43.2,0,86.3,0,129.5
							c13.4-0.7,26.7-1.4,40.1-2.2c0,131,0,261.9,0,392.9c-13.4-0.7-26.7-1.5-40.1-2.2c0,43.2,0,86.3,0,129.5
							c93.5,8.3,186.9,17.6,280.3,27.8c0-70.3,0-140.6,0-210.9c-26.7-1.2-53.4-2.3-80-3.4c0,22.9,0,45.7,0,68.6
							c-26.7-1.7-53.4-3.3-80.1-4.8c0-134,0-268,0-402c13.3-0.8,26.7-1.6,40-2.4C4020.7,1880.4,4020.7,1835.2,4020.7,1790
							C4020.7,1790,4020.7,1790,4020.7,1790z"/>
					</g>
					<g id="U-WRESTLING_00000173121412563663920180000003129377677354123197_">
						<path class="st2" d="M4290.4,2493.5c-20.7-40.7-41.5-80.6-62.2-119.7c0-155.3,0-310.5,0-465.8c-13.3,0.9-26.7,1.9-40,2.8
							c0-44.9,0-89.8,0-134.7c48.1-5.3,96.2-10.9,144.2-16.8c0,47,0,94.1,0,141.1c-11.4,0.9-22.8,1.7-34.3,2.5
							c0,150.6,0,301.3,0,451.9c30,2.2,59.9,4.5,89.9,6.8c0-155.2,0-310.3,0-465.5c-11.4,0.9-22.8,1.8-34.2,2.6
							c0-47.4,0-94.7,0-142.1c48-5.9,96.1-12.1,144.1-18.5c0,49.7,0,99.4,0,149.1c-13.3,1.1-26.6,2.2-39.9,3.3
							c0,167.5,0,334.9,0,502.4c-20.7,38.6-41.4,76.3-62.1,113.3C4360.7,2501.9,4325.6,2497.6,4290.4,2493.5z"/>
						<path class="st3" d="M4492.9,1743.4c0,46.7,0,93.3,0,140c-10,0.8-20,1.7-29.9,2.5c-3.3,0.3-6.6,0.5-10,0.8c0,2.9,0,5.9,0,8.8
							c0,165.4,0,330.8,0,496.2c-20.1,37.4-40.2,74.1-60.4,110c-33-4.1-66-8.1-99-12c-20.1-39.6-40.3-78.3-60.4-116.4
							c0-153.8,0-307.7,0-461.5c0-2.7,0-5.4,0-8.2c-3.3,0.2-6.7,0.5-10,0.7c-10,0.7-20,1.4-30,2.1c0-42.3,0-84.5,0-126.8
							c44.8-4.9,89.5-10.1,134.2-15.4c0,44.1,0,88.3,0,132.4c-8.1,0.6-16.2,1.2-24.3,1.8c-3.3,0.2-6.7,0.5-10,0.7c0,2.8,0,5.6,0,8.3
							c0,147.6,0,295.2,0,442.8c0,2.8,0,5.6,0,8.3c3.3,0.2,6.7,0.5,10,0.7c26.6,2,53.3,4.1,79.9,6.1c3.3,0.3,6.6,0.5,10,0.8
							c0-2.9,0-5.7,0-8.6c0-152.5,0-305.1,0-457.6c0-2.9,0-5.7,0-8.6c-3.3,0.3-6.6,0.5-10,0.8c-8.1,0.6-16.2,1.3-24.3,1.9
							c0-44.6,0-89.2,0-133.8C4403.6,1754.9,4448.3,1749.3,4492.9,1743.4 M4502.9,1733.2c-51.3,6.9-102.7,13.6-154,20
							c0,50.1,0,100.2,0,150.3c11.4-0.8,22.8-1.7,34.2-2.6c0,152,0,304.1,0,456.1c-26.6-2-53.3-4-79.9-5.9c0-148.1,0-296.2,0-444.3
							c11.4-0.8,22.8-1.7,34.3-2.5c0-49.9,0-99.8,0-149.8c-51.4,6.3-102.8,12.4-154.2,18.1c0,47.5,0,95,0,142.5
							c13.3-0.9,26.7-1.8,40-2.7c0,153.9,0,307.9,0,461.8c21.3,40.2,42.6,81.1,64,123c37.3,4.5,74.6,9.1,111.9,13.8
							c21.3-38,42.6-76.9,63.9-116.6c0-166.6,0-333.2,0-499.8c13.3-1.1,26.6-2.1,39.9-3.2
							C4502.9,1838.7,4502.9,1785.9,4502.9,1733.2L4502.9,1733.2z"/>
					</g>
					<g id="B-WRESTLING_00000065781659100775192760000001501803177567624323_">
						<path class="st2" d="M4550.3,2526.6c0-50.6,0-101.2,0-151.8c13.3,1.1,26.6,2.3,39.9,3.4c0-166.2,0-332.4,0-498.6
							c-13.3,1.1-26.6,2.3-39.9,3.4c0-50.6,0-101.2,0-151.8c69.1-9.5,138.1-19.4,207.1-29.9c20.7,41.7,41.3,84.4,62,128
							c0,81.6,0,163.2,0,244.9c-13.7,18.5-27.4,36.7-41.1,54.7c13.7,18,27.4,36.2,41.1,54.7c0,81.6,0,163.2,0,244.9
							c-20.6,43.6-41.3,86.3-62,128C4688.4,2546.1,4619.4,2536.1,4550.3,2526.6z M4660,2384.4c29.9,2.7,59.8,5.4,89.7,8.2
							c0-60.8,0-121.5,0-182.3c-29.9-0.9-59.8-1.7-89.7-2.5C4660,2266.7,4660,2325.5,4660,2384.4z M4660,2050.1
							c29.9-0.8,59.8-1.7,89.7-2.5c0-60.8,0-121.5,0-182.3c-29.9,2.8-59.8,5.5-89.7,8.2C4660,1932.4,4660,1991.2,4660,2050.1z"/>
						<path class="st3" d="M4754.2,1706.7c20.1,40.5,40.1,81.9,60.2,124.3c0,80.6,0,161.1,0,241.7c-12.6,17-25.2,33.8-37.8,50.4
							c-1.5,2-3,3.9-4.5,5.9c1.5,2,3,3.9,4.5,5.9c12.6,16.6,25.2,33.4,37.8,50.4c0,80.6,0,161.1,0,241.7
							c-20.1,42.3-40.1,83.7-60.2,124.3c-66.3-9.9-132.6-19.4-198.9-28.4c0-47.7,0-95.3,0-143c10,0.9,20,1.7,29.9,2.6
							c3.3,0.3,6.6,0.6,10,0.9c0-3.1,0-6.1,0-9.2c0-163.4,0-326.8,0-490.2c0-3.1,0-6.1,0-9.2c-3.3,0.3-6.6,0.6-10,0.9
							c-10,0.9-20,1.7-29.9,2.6c0-47.7,0-95.3,0-143C4621.6,1726.1,4687.9,1716.6,4754.2,1706.7 M4655,2054.9
							c3.3-0.1,6.6-0.2,10-0.3c26.6-0.7,53.1-1.4,79.7-2.1c3.3-0.1,6.6-0.2,9.9-0.3c0-3.3,0-6.5,0-9.8c0-57.6,0-115.2,0-172.8
							c0-3.3,0-6.5,0-9.8c-3.3,0.3-6.6,0.6-9.9,0.9c-26.6,2.5-53.1,5-79.7,7.4c-3.3,0.3-6.6,0.6-10,0.9c0,3.1,0,6.3,0,9.4
							c0,55.6,0,111.2,0,166.9C4655,2048.6,4655,2051.8,4655,2054.9 M4655,2388.6c3.3,0.3,6.6,0.6,10,0.9
							c26.6,2.4,53.1,4.9,79.7,7.4c3.3,0.3,6.6,0.6,9.9,0.9c0-3.3,0-6.5,0-9.8c0-57.6,0-115.2,0-172.8c0-3.3,0-6.5,0-9.8
							c-3.3-0.1-6.6-0.2-9.9-0.3c-26.6-0.7-53.1-1.4-79.7-2.1c-3.3-0.1-6.6-0.2-10-0.3c0,3.1,0,6.3,0,9.4c0,55.6,0,111.2,0,166.9
							C4655,2382.4,4655,2385.5,4655,2388.6 M4760.6,1696c-71.7,11-143.5,21.5-215.3,31.4c0,53.5,0,107.1,0,160.6
							c13.3-1.1,26.6-2.2,39.9-3.3c0,162.9,0,325.7,0,488.6c-13.3-1.1-26.6-2.2-39.9-3.3c0,53.5,0,107.1,0,160.6
							c71.8,9.9,143.6,20.4,215.3,31.4c21.2-42.9,42.5-86.8,63.7-131.8c0-82.7,0-165.4,0-248c-13.3-18-26.5-35.7-39.8-53.2
							c13.3-17.5,26.5-35.2,39.8-53.1c0-82.7,0-165.4,0-248C4803.1,1782.8,4781.9,1738.9,4760.6,1696L4760.6,1696z M4665,2045.2
							c0-55.8,0-111.6,0-167.4c26.6-2.3,53.1-4.7,79.7-7.2c0,57.4,0,114.8,0,172.2C4718.1,2043.6,4691.6,2044.4,4665,2045.2
							L4665,2045.2z M4665,2380.1c0-55.8,0-111.6,0-167.4c26.6,0.8,53.1,1.6,79.7,2.4c0,57.4,0,114.8,0,172.2
							C4718.1,2384.8,4691.6,2382.4,4665,2380.1L4665,2380.1z"/>
					</g>
				</g>
			</g>
		</g>
		<g id="BD-Body">
			<path id="Sillowette" class="st4" d="M4053.3,3687.1c-7.5-8.4-9.2-19.2-9.2-30.3c-0.2-29.2-7.3-56.9-18.7-83.4
				c-13.3-31-31-58.3-58.8-78.8c-22.5-16.5-31.1-42.9-39.4-68.5c-5.9-18.5-10.4-37.5-20-54.5c-33.2-58.9-81.1-102.3-139.5-134.1
				c-30.1-16.3-61.1-30.9-91.9-45.9c-14.3-6.9-25-16.5-31.8-31.5c-24.6-53.8-61.3-97.7-108.2-133.2c-15.8-12-32.6-22.4-49.8-33.4
				c10.8-10.2,23.7-10.7,36.5-10.9c21.4-0.2,42.7,3.2,64.1,0.7c35.8-4.1,52.4-37.5,34.1-68.8c-5.3-9.1-11.4-17.6-19-24.9
				c-50.8-49.4-111-71.7-181.3-62.2c-44.2,5.9-78.2,28.2-99.6,68.5c-7.5,14.2-7.4,14.3-21.5,7.6
				c-129.6-61.1-259.6-121.3-385.5-190.1c-3.3-1.8-6.1-3.9-8.4-6.9c-44.4-57.3-95.9-107.2-154.6-149.2
				c-120.7-86.5-253.3-126.9-401.6-102.6c-50.7,8.3-99,23.9-140.9,55.4c-2.6,2-5,1.7-7.6,1.3c-18.6-2.7-36.6,0.6-53.9,6.9
				c-41.4,15.1-72.3,42.6-92.7,82.2c-1.4,2.7-1.7,6.1-6.9,5.4c-18.2-2.4-36.6-2.1-54.9-1.1c-5.2,0.3-9.2-1-13.2-4.7
				c-36.4-34.6-80-45.6-128.6-38.6c-34.5,5-66.2,18.6-97,34.5c-24.6,12.7-47.5,27.9-65.3,49.8c-8.5,10.4-15.6,21.6-16.6,35.4
				c-1.8,23.9,14.4,41.1,41.9,46.1c11.6,2.1,23.4,1.5,36.1,2.4c-1.9,3.3-3.2,5.6-4.6,8c-11,19.4-20.4,39.7-23.3,61.9
				c-1.7,12.8-6.9,18.2-18.5,22.6c-35.1,13-59.3,37.2-67.8,75.2c-4,17.7-3.5,35.6-0.3,53.4c1.1,6.5-0.7,9.6-7,12.4
				c-38.6,17.5-58.1,53.1-51.7,95.4c1.8,12.2,2.6,23.3-2.8,34.7c-1.8,3.8-2.3,8.3-2.9,12.6c-3.3,24,5.3,44.2,20.3,62.2
				c7.8,9.3,7.8,9.1-1.7,17.1c-5.2,4.3-10.2,8.9-14.9,13.7c-40.2,41.2-43.7,103.7-7.6,147.2c5.6,6.8,5.8,11.2,1.1,17.9
				c-4.1,5.7-7.1,12.2-10,18.7c-37.1,84.4-43,171.7-21.2,260.7c8.3,34.1,23.8,65,55.1,84.3c4,2.5,1.8,5.2,1.3,8
				c-7.5,39.7-4.8,78.6,8.4,116.8c9.6,27.9,28.1,45.4,56.8,52c28,6.4,56.4,6.1,84.8,4.9c20.9-0.9,41.1-4.9,60.4-13.5
				c8.4-3.7,14.1-14.7,22.1-13.8c8.2,0.9,15.8,8.6,24.3,12.1c48.4,19.7,98.5,21.7,149.5,14.2c25.6-3.7,49.1-14.5,72.5-24.6
				c26.6-11.5,42.4-33,43.1-63.5c0.5-19.9-7.1-37.5-17.6-53.7c-33.1-51.6-78.2-88.8-134.6-111.4c-25-10-51-19.8-78.4-6.1
				c-0.8-13.9,0.4-27,5.4-39.6c4.9-12.5,13.9-19,27.2-19.8c15.5-0.9,30.4,2.2,45,6.7c42.9,13.3,83.8,32.1,126.4,46.2
				c51.7,17.2,104.1,31.3,158.5,36.2c58.5,5.3,116.5-0.4,174-11.9c34.7-7,68.8-16.3,102.5-27.9c0.6,1.3,0.9,1.6,0.8,1.9
				c-0.4,4.6-1.1,9.2-1.3,13.8c-2.2,36.9,9.3,67.6,40.9,88.3c20.7,13.6,44.1,17,68.4,16.2c21.4-0.7,41.8-8.4,64.4-1.3
				c24,7.6,46.6-3.6,66.7-17.9c3-2.1,5.2-4.4,9.7-2.3c9,4.2,18.8,5.4,28.7,4.5c6-0.5,8.9,0.4,7.6,7.7c-0.9,5.1-0.4,10.5,0,15.7
				c4.1,53.4,42.1,92.7,89.5,89.8c4.6-0.3,5.5,2.6,6.9,5.7c11.1,22.9,29.2,36.6,53.8,41.9c16,3.4,32.3,3.4,48.4,2.1
				c52.4-4.2,104.7-9.5,157.2-11.6c31.5-1.2,62.9-1.5,94.2,2.3c20,2.5,39,9.9,59,12.6c25.7,3.4,51.2,3.7,76.1-4.3
				c50.1-16.1,65.3-61.7,60.4-105.7c-3.9-35.2-23.6-60.8-52.1-80.1c-3.8-2.6-6.6-4-5-9.9c18.6-67.4,18.3-135.5,7.1-204
				c-2-12.1-4.2-24.3-6.6-38.3c24.9,17.5,48.4,32.9,72.5,47.4c38.9,23.5,79.9,39.4,126.1,38.7c36.1-0.5,72-3.5,107.6-9.3
				c3.1-0.5,6.3-2.6,8.7,1.9c9.8,19.1,19.7,38.1,30,57.8c-18.6,3.4-35.8,7.5-52.2,14.4c-2.9,1.2-5.4-0.2-8-0.8
				c-33.3-7.3-66.6-12.2-100.8-7.7c-38.3,4.9-65.3,26-72.7,61.5c-11.4,54.2-0.3,104.4,31.7,149.3c19.8,27.8,46.9,43.9,81.6,40.2
				c16-1.7,29.8-0.3,45.3,4.5c40.7,12.7,79.7,4.1,115.8-17.8c4.9-2.9,7.4-2.9,11.3,1.1c6.5,6.6,14.3,11.5,22.5,15.7
				c30.6,15.4,62.8,16.9,95.7,11c51.5-9.3,97.1-30.4,133.2-69.9C4078.6,3769.5,4078.9,3715.6,4053.3,3687.1z M2957.7,3600.9
				c-3,0.8-5.4,0.2-7.3-2.3c-1.3-1.7-2.7-3.4-3.9-5.1c-11.2-15.8-10.8-17.7,5.2-27.5c23.8-14.5,46.3-30.9,65.7-51.2
				c1-1,2.2-1.8,4.3-3.4c3.5,31.1,2.4,61.7,8.4,92.9C3005.8,3596.4,2981.9,3594,2957.7,3600.9z"/>
			<g id="Gray_Parts">
				<g id="Leg_and_Paw_Parts">
					<path id="Leg_and_Paw" class="st5" d="M1869.3,3696.6c0.5-0.4,1-0.7,1.3-1.1c17.7-25.4,27.8-29.3,57.5-22.2
						c41.6,10,75.9,33.1,106.8,62c18.5,17.3,35.2,36.2,45.7,59.7c13.6,30.4,1.9,57.1-29.3,67.5c-4.2,1.4-6.6,0.6-9-3.1
						c-23.8-37.1-53-69.3-86-98.1c-11.1-9.7-22.8-18.7-35.6-26c-3.2-1.8-6.5-3.3-10-4.5c-3.1-1.1-6.9-2.7-9.3,0.8
						c-2.5,3.7,0.8,6.5,3,8.7c10.3,10.1,20.7,20.2,31.2,30c31,28.8,58.2,60.7,80,97.2c3.3,5.6,3.5,8.2-3.5,9.6
						c-49,10.1-97.6,10.3-145.6-5.3c-19.3-6.3-35.5-16.9-47.7-34.1c-11.2-15.7-22.8-31.4-36.7-45c-2.1-2.1-4.5-5.9-7.4-4.3
						c-3.5,1.9-1.3,6-0.3,9c6.2,19.4,15,37.8,24,56c3.9,7.9,1.7,12-5.1,15.5c-12.4,6.4-25.7,9.7-39.4,11
						c-29.6,2.9-59.1,3.1-88.5-2.7c-19.2-3.8-32.5-14.8-38.6-34c-13.3-41.7-16.7-83.6,0.7-124.9c10.6-25,29.5-39.6,57.4-40.2
						c5.1-0.1,10.1-0.8,15.9-1.3c-21.4-17.9-54.4-16.8-76.6,2c-6.4,5.4-12.2,11.4-16.3,18.7c-2.9,5.1-5.2,5.3-9.5,1.6
						c-17.3-14.7-27.9-33.9-33.6-55.2c-23.9-90.1-18.3-177.9,23.4-262.1c5.8-11.6,6.1-11.5,18.1-6.5c17.2,7.2,35.3,9.6,53.7,9.7
						c5.9,0,8.4,1.5,10,7.4c21.3,81.7,99,139,173.8,146.3c12.3,1.2,24.4,0.3,36.5-1.4c2.8-0.4,5.1-0.8,7.3,1.9
						c6.2,7.6,12.8,14.9,19.4,22.6c-5.9,2.3-11.8,3.9-17.1,6.6c-16.5,8.3-25.1,22.9-29.9,40.2c-7.4,26.8-4.5,53.2,4.4,79.2
						C1865.6,3690.9,1866.4,3694.4,1869.3,3696.6z"/>
					<path id="Paw_Part" class="st5" d="M2646.3,3729.2c-23.9,3.5-46.1,3.3-66.7-8.6c-27.5-16-34.5-46.6-28.6-76.6
						c0.8-3.9,3-4.1,5.9-3.7c21.7,3.3,43.5,5.4,65.5,5.7c4.5,0.1,5.7,1.9,5.2,6.3C2624.6,3679.6,2630.2,3704.9,2646.3,3729.2z"/>
					<path id="Paw_Part_00000005254885933849666250000003107378698027715492_" class="st5" d="M3651.5,3638.8
						c-55.2,41.8-70.4,135.6-33.3,192c-16.1,2-29.6-3.2-41.4-13.1c-16.6-14.1-26.8-32.6-33.7-53.1c-8.5-25.1-12.8-50.8-9.5-77.4
						c3.7-29.5,17.8-45.1,46.6-50.4C3603.5,3632.6,3626.7,3634.4,3651.5,3638.8z"/>
					<path id="Paw_Part_00000147220389038550254280000011505495240346232962_" class="st5" d="M2765,3671.5
						c0.6-37.7,0.7-37.3,34.4-44.8c35.8-8,70.2-20.6,103.5-36c6.1-2.8,9.8-3.6,12,4.1c0.9,3.2,2.5,6.6,4.7,8.9
						c7.7,8.1,6.6,14.2-2.1,21.1c-9.1,7.1-14.1,17.7-17.4,28.8c-1.3,4.3-3.2,5.7-7.4,6.2c-31.4,4-55.2,20-71.4,47.3
						c-2.1,3.6-4.4,5.3-8.3,6.1c-7.9,1.6-15.8,1.9-23.7,0.8c-13.3-1.9-21.8-12.9-23.5-30.1C2765.1,3678.9,2765.1,3674,2765,3671.5z"
						/>
					<path id="Paw_Part_00000129177242370734486720000006181314005343418518_" class="st5" d="M2654.7,3665.5c0-19.5,0-19,18.5-20.3
						c20.1-1.4,40.2-3.1,60.1-5.8c7.2-0.9,6.7,1.6,6,6.7c-2.5,17.5-2.9,35,1.5,52.4c0.4,1.5,0.7,3,1.2,4.5c5,14.9,5,14.9-8.9,22
						c-36.8,18.6-73.2-3.5-77.7-47.3C2655.1,3673.3,2654.9,3669,2654.7,3665.5z"/>
				</g>
				<g id="Chest">
					<path id="Chest_Part" class="st5" d="M2286.9,3651.9c-50.2,0.9-98.5-9-146.4-22.1c-54-14.8-105-38.2-158-55.5
						c-25.4-8.3-45.4-23-64-41.2c-6.1-6-4.3-8.4,2.5-11.2c24.3-9.9,50-13.6,75.6-17.2c5.1-0.7,10.5-0.6,15.4-2
						c27.8-7.8,52.7,4.3,78.2,11.6c40,11.4,80.5,20.2,121.4,27.2c4.5,0.8,6.6,2.3,8.3,6.8c8.3,23.3,18.6,45.7,32,66.4
						C2261.3,3629.3,2270.8,3643.6,2286.9,3651.9z"/>
					<path id="Chest_Part_00000064354729281083990970000012564295147744032405_" class="st5" d="M2299,3652.6
						c30.4-20.7,33.8-54.3,44.2-85.1c41.7,24.1,85.9,42.1,134,56.4C2417.7,3641,2359.6,3650.6,2299,3652.6z"/>
				</g>
				<path id="Tail" class="st5" d="M3547.9,2955.3c-17.4-1.1-34.7-2.1-51.9,1.5c-13,2.8-24.2,8.4-32.8,18.6c-2.9,3.4-4.9,4-9.1,2
					c-36.3-17.5-72.7-34.9-109.2-52c-5.7-2.6-6.2-5.1-3.8-10.4c15.1-34.2,41.8-53.7,77.4-59.5c63.8-10.4,118.4,10,164.4,55.1
					c5.7,5.6,10.5,12.1,14.1,19.3c6.4,12.7,0.6,23.7-13.4,25.4c-6,0.7-12.2,0.8-18.3,0.8C3559.4,2956.1,3553.6,2955.6,3547.9,2955.3
					z"/>
				<path id="Body" class="st5" d="M4029.1,3701.5c-10.6-11.8-13.1-27.5-13.3-43.3c-0.4-32.8-10.1-63.1-25-92
					c-10.2-19.7-23.9-35.9-41.8-49.5c-26.2-20-38.3-49.7-48.2-80.3c-6.1-18.7-10.5-38-20.6-55.3c-27.7-47.5-66.4-83.8-112.8-111.6
					c-34.4-20.6-71.1-36.9-107.1-54.5c-17.2-8.4-31.5-20-39.6-38.2c-32-72-85-123.8-152.7-160.7c-60.8-33.1-124.2-60.6-186.7-90.2
					c-104.5-49.4-209.1-98.5-312-151.2c-7.2-3.7-14.3-7.4-21.4-11.1c-1.3,2.9,0,4,0.7,5.2c37.4,61.3,63.6,127,76.3,198.1
					c2.1,11.8,4.7,23.9,1.8,36.5c-4.7-2.1-5.2-6.1-6.4-9.4c-5.7-14.9-11.3-29.9-16.8-45c-49-136.1-124.7-253.2-237.3-344.5
					c-76.6-62.1-161-106.8-258.7-123.2c-64.7-10.9-128.9-9-192.4,8.3c-24.8,6.8-48.7,16.1-71,29c-1.8,1-9.3,2.1-2.5,6.8
					c15.9,10.9,31.8,21.8,48,32.4c15,9.9,31.4,14.4,49.6,12.4c16.4-1.8,32.9-1.9,49.3,0.9c26,4.4,39.6,24.1,34.9,50.1
					c-1.8,9.9-5.6,18.8-10.2,27.6c-1.3,2.5-5.4,4.7-2.9,7.9c3.1,3.9,6.1-0.2,8.7-1.6c19.9-10.1,39.3-21.4,61.1-26.8
					c19.6-4.9,28.1,3.5,24.2,23.3c-3.8,19.3-11.6,37.1-20,54.5c-2.6,5.4-2.3,8.5,2.1,12.5c51.9,48.5,95.5,104.1,132.5,164.9
					c2.5,4,5.2,5.2,9.6,4.8c13.1-1.1,26.2-2.4,39.3-2.5c16.1-0.1,32.5-0.8,48.1,4.6c9.7,3.4,12.4,11.8,7,20.7
					c-3.5,5.8-8.2,10.7-13.2,15.4c-12.1,11.4-24.8,22-38.5,31.4c-6.8,4.7-8,8.2-4.3,16.1c31.9,68.4,56.1,139.4,69.6,213.9
					c0.9,5.2,3,8.4,8,11.1c18,9.8,35.9,19.9,51,34.3c13.1,12.5,11.1,23.3-5.5,30.2c-13.9,5.7-28.6,8.8-43.4,11.1
					c-4.6,0.7-6.5,2.4-7.2,7.5c-9.2,69.6-41.8,126.3-93.9,171.8c-5.2,4.5-5.3,8.2-3.5,14.2c6.2,21.1,11.1,42.4,10,64.7
					c-0.9,17.4-9.4,23.6-26.1,19c-3.8-1-7.6-2.3-11.3-3.9c-20.2-8.3-38.9-19.4-56.9-31.5c-4.5-3-8.1-3.6-13.3-1.4
					c-28.2,11.9-57.5,20.4-87.3,27.1c-26.2,5.8-52.8,8.3-82.1,10.8c4.3,2.6,6,3.8,7.9,4.7c63.7,32.4,131.1,51.8,202.1,58
					c51.6,4.5,103.1,2.8,154.4-5.4c75.6-12,147-35.7,211.9-77.5c23.6-15.2,45.2-32.8,61.1-56.5c2.1-3.2,4.5-6.2,3.6-10.9
					c-3.4-17.6-7.9-34.7-14.6-51.4c-16.8-41.9-77.6-61.2-112-16c-2.6,3.4-5.6,6.6-8,10.1c-18.8,27.3-45.1,35.2-76.3,30.3
					c-21.7-3.4-37.1-16.2-48.8-34.3c-1.6-2.5-3.7-5.8-0.9-8.4c2.4-2.2,5.2,0.1,7.5,1.4c8.2,4.7,16.5,9.4,24.5,14.5
					c25.1,16.1,60.4,5,74.5-17.6c3.9-6.2,8.9-11.8,13.7-17.4c32.8-38,73.1-41.8,116.1-16.2c26.2,15.6,37.4,42.3,45.1,70.6
					c11.1,40.8,12.4,83,14.9,124.9c1.6,26.3,4.4,52.2,14,77.1c13.4,34.6,35,63.5,59.9,90.2c3.2,3.4,6.8,6.5,9.4,12.7
					c-3.1-1.3-4.4-1.7-5.7-2.4c-36.3-20.3-64-49.1-83.1-86.4c-1.7-3.3-3.3-6.4-6.9-8.2c-20.2-10.5-41.3-16.9-64.3-13.6
					c-19.2,2.8-35.5,10.9-46,28.4c-2.5,4.2-2.4,5.8,3,7.4c17.5,5.2,32.7,15,46.5,27c3.8,3.3,8.2,6.5,8.8,12.4
					c-3.2,1.9-6,0.7-8.9-0.3c-7.2-2.5-14.4-5-21.7-7.3c-23.5-7.3-47.4-10.2-71.3-3.5c-25.3,7.1-41.6,24.5-47.5,50.3
					c-6.3,27.7,0.3,52.7,20.4,73.3c7.7,8,17.5,12.2,28.2,14.2c5.3,1,8.5,0.3,8-6.8c-0.5-7,0.4-14.2,1.1-21.2
					c4.7-53.2,52.6-72.3,94.6-55.5c4.9,2,9.9,4,14.5,9.8c-7-0.7-12.4-1.6-17.7-1.6c-23.6-0.2-46.6,1.6-58.5,26.9
					c-13.4,28.4-8.6,55.4,8.2,80.6c6.4,9.6,16.8,14,27.9,16.2c16.4,3.3,32.8,2.2,49.3,0.8c54.5-4.6,108.9-10.1,163.6-11.5
					c41.6-1,82.9-0.3,123.5,11.5c22.3,6.5,45.5,8.4,68.9,5c29.2-4.2,49-20.3,55-46.8c8.2-36.2-2.5-65.6-31.5-88.5c-5-4-7-4-10.6,1.9
					c-12,19.6-27.7,36-46.3,49.5c-3.1,2.2-7,6.3-10.5,3.3c-3.8-3.2,0.1-7.4,2-10.7c3.6-6.4,7.6-12.7,11.6-18.9
					c23-35.9,36.2-75.4,41.9-117.5c9-66.2,2-131.3-13.9-195.7c-24.2-97.6-66.5-186.8-123.3-269.1c-3-4.4-6.4-8.6-6.9-15.1
					c5.1,1,8.1,3.4,11.2,5.9c14.6,11.9,26.3,26.6,37.6,41.6c43.8,58.5,74.6,123.6,97.3,193c1.6,4.7,3.1,8.9,7.5,12.1
					c28.7,21,57.7,41.6,88.4,59.6c23.2,13.6,46.5,27.4,73.2,33.2c29.3,6.4,58.9,5,88.5,2.8c25.3-1.8,50.4-5.3,75.3-10.2
					c7.2-1.4,11.3,0.7,14.9,7.8c16,32,32.8,63.5,49.2,95.2c6.7,13,6.6,13-8,13.2c-28.2,0.3-55,6.3-80.5,18.6
					c-53.4,25.8-70.7,75-65.3,128.1c2.5,25.4,12.6,47.2,36.7,57.9c36.8,16.3,72.1,9,105.9-10.6c4.1-2.4,3.1-5.1,1.4-8.5
					c-5.2-10.6-8.3-21.9-10.4-33.4c-10.1-54.3,12-94.2,61.9-111.7c10.7-3.7,21.6-6.5,33.1-6.1c2.1,0.1,4.8,0.4,5.3,2.7
					c0.6,2.6-2.1,3.5-3.9,4.3c-5.6,2.5-11.4,4.6-16.8,7.3c-30.8,15.3-51.1,38.4-53.8,74.7c-3.4,46,22.5,84.6,63.4,93.8
					c16.8,3.8,33.8,4.9,51,2.4c46.6-6.8,87.9-24.5,121.9-58.4C4046,3765.5,4051,3726,4029.1,3701.5z"/>
				<g id="Head">
					<path id="Chin" class="st5" d="M1933.2,3287.8c-51.7,6.9-104.7,6.2-152.7,32.4c-25.1,13.7-51.1,26.5-79.3,33
						c-23.8,5.5-47.5,6.5-71.7,1.3c-48.6-10.4-70.8-60.5-56.2-104.9c17.9-54.5,74.2-80.6,129.8-60.5c17,6.2,17,6.2,4.1,18.9
						c-26,25.7-37.4,51.1-41.6,93.1c5.2-6.6,7.8-13.6,11.1-20.1c8.9-17.3,17.9-34.5,29.8-49.9c16.9-22.1,39.3-33.5,67-34.5
						c33-1.2,64.1,7,94.3,19.5c42.6,17.7,85,36,128.9,49.9c46.9,14.8,95,19.5,143.6,6.8c11.2-2.9,21.4-8.3,32.6-13.6
						c1.2,25.8,3.5,50.6,9.2,74.9c8.3,35.8,21.5,69.6,43,99.4c5.6,7.7,3.3,9.5-4,12.4c-23.9,9.4-49,12.8-74.1,15.6
						c-50.4,5.5-100.9,9.5-151.3,15.2c-33.3,3.8-66.2,9.9-97.1,24.9c-30.8,14.9-62.5,11.3-93.4-0.8
						c-51.7-20.3-88.5-55.7-106.9-109.6c-2.5-7.3-1.6-10.1,6.6-11.5c12.9-2.2,25.6-6,37.4-11.9c5.9-3,9.6-1.7,14.5,2.3
						c27.5,22.2,58,36.1,96.5,34.2c-14-8-26.7-14-38.4-21.8c-12.2-8.2-24-17-34.8-27c-4.9-4.6-5.9-6.8,0.7-11.3
						c31.2-21.5,65.6-33.6,102.9-38.3c12.7-1.6,25.4-3.8,37.1-9.5c4.6-2.3,9.4-4.5,12.5-9
						C1933.1,3287.7,1933.2,3287.7,1933.2,3287.8z"/>
					<path id="Cheek" class="st5" d="M2328.2,3057.9c-8.6-23.5-24.1-40.6-38-59.3c5.9-1.4,9.5,2.4,12.9,4.4
						c60.2,36.6,117.7,76.6,162.4,132.5c26.7,33.4,45.9,70.5,50.7,114.1c7.2,66.1-17.2,114.1-75.7,144.9
						c-55.1,29.1-114.5,39.3-176.1,39.5c-5.8,0-7.9-3.7-10.6-7.2c-26.5-34.8-41.8-74.3-49.1-117.3c-6.1-35.9-5.2-71.9-1.3-108
						c5.6-52.4,3.7-104.3-14.2-154.5c-11-31-29.4-56.1-60.1-70c-32-14.5-65.6-7.3-89.3,18.8c-2.5,2.7-5.3,5.4-6.9,8.6
						c-15.5,31.5-42.2,39.3-74.2,37.5c-15.2-0.9-30.5-0.6-45.8,0.2c-24.8,1.4-43.6,12.3-57.3,32.9c-5.1,7.7-11.1,14.8-15.9,22.7
						c-21.6,35.5-64.5,29-85.9-0.1c-20.8-28.3-19.3-69.1,4.1-99c16.3-20.8,37.3-34.3,63.7-38.4c15.3-2.4,29.7,1.9,44.1,5.7
						c13.3,3.5,26.4,7.8,40,9.3c20.7,2.3,39.2-1.5,54-18.2c13.7-15.4,27.8-30.3,40.8-46.3c35.6-43.6,89.7-60,146.5-20.9
						c39.7,27.4,73.8,60.8,107,95.4c21,22,42.1,43.9,63.3,65.7C2320,3053.5,2322.4,3056.5,2328.2,3057.9z"/>
					<path id="Upper_Lip" class="st5" d="M1655.3,3093.3c-6,0.2-15.7-1.9-25.2-5.6c-19-7.2-28.9-20.3-28.3-41.3
						c0.6-24.1,10.5-42.6,30.8-55.5c3-1.9,4.8-2.9,6.8,1.4c15.9,34.3,44.3,52.9,78.9,63.3c4.4,1.3,5.8,11,1.6,15.6
						c-3.1,3.3-6.8,6.2-10.7,8.5C1693.9,3088.8,1677.3,3093.4,1655.3,3093.3z"/>
					<path id="Eye_Lid" class="st5" d="M1996.4,2805.1c15.6-17,29.7-32.4,49.3-41.1c14.8-6.6,29.7-6,44.5-1c9,3,13.9,10.7,17.3,19.3
						c8.4,21.5,6,42.3-4.1,62.5c-1.9,3.8-4.5,4.5-8.7,4.8c-10.8,0.7-17.8-1.7-23.4-12.9c-8.6-17.3-24.3-27.3-43.2-31.1
						C2018.4,2803.6,2008.3,2805,1996.4,2805.1z"/>
					<path id="Forehead" class="st5" d="M1953.8,2639.6c-17.8,15.2-31,30.8-40.6,49.3c-1.8,3.5-3.1,7.2-5.4,12.5
						c6.3-2.6,8.5-6.7,11.3-9.9c29.9-34.1,67.4-52,112.1-55.6c6.4-0.5,8.9,1.2,8.1,7.8c-0.4,3-0.1,6.2,0.6,9.2
						c1.6,6.6,3.6,13.1,5.6,20.3c4.4-5.9,4.8-12.5,6.6-18.5c15.4-50.7,47.7-86.2,95.2-107.5c32.5-14.5,63.7-9.6,92.9,10.3
						c12.9,8.8,25.6,18,38.8,26.3c18.7,11.8,39.2,16.2,61.3,14.2c14.3-1.3,28.7-2,42.9,0.6c12.9,2.4,16.4,8.2,12.8,21.1
						c-6.1,21.6-20.8,36.1-39.9,45.9c-30.8,15.8-62.7,18.1-95.6,6.3c-22-7.9-44.7-8.8-67.5-2.5c-3.8,1-7.7,2-10.4,6.8
						c5.8,2.8,11.9,2.2,17.6,2.3c19.5,0.3,35.7,9.7,52.3,18.2c2.8,1.4,3.1,3.4,3,6c-1.3,45.6,23.2,78.6,52.6,109
						c21.7,22.4,47.7,39.5,71.3,59.5c39.6,33.3,63.3,76.2,72.1,127.4c1,5.8,3.1,10.5,6.4,14.9c26.6,35.4,39.8,76,45.2,119.6
						c0.2,1.4-0.1,2.8-0.3,5.9c-19.9-28.3-42.1-52.4-66.6-74.3c-43.9-39.3-92.8-71.3-143.7-100.3c-16.8-9.5-33.3-19.7-51.2-26.9
						c-14.7-5.9-25.5-16.6-37-26.6c-13.2-11.5-26.8-22.5-41.3-32.3c-14.4-9.8-29.7-18.1-46.2-24.4c14.5-21,17.1-43.5,11.4-67.5
						c-8.4-35.1-31.3-48.7-67.8-45.8c-30.1,2.5-50.8,22.3-70.3,43.2c-25.4,27.3-44.9,59.4-69.4,87.4c-22.2,25.3-46,48.7-75.2,65.7
						c-9.6,5.6-20.3,2.3-30.3,4.8c-3.1,0.8-4.6-3.6-6.2-6.1c-20.1-31.6-22-72,11.2-106.5c14.7-15.3,31.6-28.3,44.5-45.3
						c8.7-11.5,16.7-23.3,19.9-37.9c-17.9,30.3-46.5,49.4-71.6,72.2c-10.7,9.7-20.5,20.3-28,32.9c-14,23.6-13.3,48.1-3.4,74.4
						c-41.3-13.2-81.4-15.4-121.8,3.2c-1.4-27.8,7.2-50.3,28.4-67.2c4.1-3.2,8.6-6,13.1-8.5c13.2-7.5,23-6,33.7,5
						c3.4,3.5,6.3,7.4,10.3,12.1c1.8-7.3,1.1-13.7,0.4-19.8c-5.2-50.8,12.7-93.5,45.6-130.2c35.2-39.3,81.1-60.4,130.5-74.7
						C1931.5,2643,1941.1,2639.6,1953.8,2639.6z"/>
					<path id="Ear" class="st5" d="M1947.2,2610.1c-20.3,5.1-38.9,9.6-56.9,16.2c-41.7,15.4-80.2,36.2-112.2,67.9
						c-2,2-3.9,4-6.8,4.5c-19.1,2.8-38.3,4.8-57.3,0.3c-16.5-3.9-19.9-13.4-10.7-28c8.7-13.8,20.6-24.4,34-33.2
						c36.1-23.9,74.7-42,117.6-48.6C1887.2,2584.1,1917.9,2589.5,1947.2,2610.1z"/>
				</g>
			</g>
			<g id="White_Parts">
				<g id="Spikes">
					<path id="Spike_00000041292950597516356200000002455401688892479400_" class="st3" d="M2330.2,3518.9
						c-1.5,32.4-8.2,63.6-21.2,93.3c-1.2,2.8-2.6,5.6-4.2,8.2c-9.2,15.5-13.9,16-25.1,1.5c-22.1-28.5-37.4-60.7-47.1-95.5
						c-4.6-16.6,0.3-29,15-37.9c20.4-12.4,42.3-15,65.2-8.1c11,3.3,16.4,11,16.4,22.7C2329.3,3508.5,2329.9,3513.7,2330.2,3518.9z"
						/>
					<path id="Spike_00000064318660959273555340000011029414718169988529_" class="st3" d="M2634.3,3526.5c0.4,10.8-0.7,12-10.4,7.2
						c-34.7-17-67.4-37.2-96.1-63.5c-12.2-11.1-13.2-20.2-4.7-34.3c9.8-16.2,23.5-28.2,40.7-35.9c16.3-7.3,22-5.6,32.5,9.1
						c11,15.4,18.1,32.8,23.9,50.7C2627.2,3481.5,2633.1,3503.5,2634.3,3526.5z"/>
					<path id="Spike_00000111175258037863882070000006061723647397937026_" class="st3" d="M2781.8,3246.3
						c-13.3,5.9-27.4,8.1-41.4,10.4c-35.3,5.8-70.7,10.1-106.5,8.7c-14.1-0.6-21.5-5.8-25.8-19.2c-5.8-18.3-5.1-36.6,1.7-54.4
						c5.4-14.2,11.3-17.3,26.1-14.9c21.2,3.4,41.2,10.8,60.8,19.4c27.2,11.9,53.6,25.3,77.7,42.8
						C2777,3241.1,2780.1,3242.6,2781.8,3246.3z"/>
					<path id="Spike" class="st3" d="M2703.9,2906c-8.2,9.7-16.6,16.3-25,22.9c-28.5,22.3-57.7,43.5-89.7,60.4
						c-16.7,8.8-26,6.9-38.8-7.2c-9.5-10.6-15.2-23.1-17-37.2c-1.2-8.7,1.5-15.3,10.3-19.4c22.8-10.5,47.1-14.3,71.6-17.3
						C2644.1,2904.6,2672.9,2903.4,2703.9,2906z"/>
					<path id="Spike_00000098943791795790263770000007251386862308892862_" class="st3" d="M2487.2,2645.4
						c-7.2,30.7-20.2,56.7-34.7,82.1c-9.4,16.3-19.8,31.8-33.4,45c-10.1,9.9-21.2,11.2-33.5,5.4c-15.8-7.5-27.4-19.1-34.7-35.2
						c-4.4-9.6-2.8-17.7,4.9-25.1c12.6-12,27.4-20.5,42.2-29c25.7-14.8,51.2-29.9,79.2-40C2480,2647.5,2482.9,2646.8,2487.2,2645.4z
						"/>
				</g>
				<g id="Teeth">
					<path id="Lower_Big_Teeth" class="st3" d="M2178.1,3073c10.1,42.3,10.6,83.3,7.5,125c-2.6,35-19.1,48.6-53.1,57.5
						c-37.5,9.9-75.2,6.8-112.4-2.4c-46.9-11.6-90.7-32.5-135.5-50.2c-21.9-8.6-43.7-17.1-67-21.3c-3-0.5-18.3-1.6-18.3-1.6
						c9.4-1.9,18.4-21.6,24.3-31.7c7.5-13.9,12-10.9,17.5-4.4c8.9,9.9,13.1,17.3,21.1,26.9c13.2,15.9,23,18.8,39.9-7.6
						c8.1-12.4,15.4-26,22.7-37.3c4.7-6.5,10.6-3.6,17,2.9c10.3,10.5,19.2,22.4,31.3,31.2c15,10.9,23.7,9.3,33.9-6.6
						c9.5-14.8,20.4-31.8,28.8-47.2c0.4-0.8,0.7-1.7,1.2-2.5c7.8-11.6,10.5-9.2,16.8-2.3c15.2,15.5,19.8,22.1,30.6,33.8
						c28.8,31.3,29.1,25.9,51.4-6c15.5-23.4,21.5-31.8,37.6-50.8C2174.7,3077,2175.8,3075.7,2178.1,3073z"/>
					<path id="Upper_Big_Teeth" class="st3" d="M1952.9,3059.3c11,0,22,0.7,32.9-0.1c24.1-1.8,42.6-13.7,55.6-34.3
						c5.9-9.4,12.4-18.3,21.4-25.1c30-22.8,65.4-9.4,86.6,14.5c9.7,10.9,15.5,24.3,21.3,37.5c1.6,3.5,1.2,6.2-1.3,9.2
						c-17,20.2-30.2,39-49.2,63.8c-6.3,8.8-8.5,16.2-15.8,11c-15.1-13.3-28.7-29-41.7-45.2c-15.1-17.6-24.4-14.4-33.6-2.1
						c-8.9,16.5-20.3,33-30.3,50.5c-8.5,16.9-8.6,16.6-23.2,5c-9.7-7.7-19.3-19.9-28.2-28.4c-18.2-17.6-21.5-14.6-32.7,0.4
						c-8.9,13-18.2,30.4-27.6,43.7c-4.2,5.8-8.3,9.1-12.6,5.9c-10.5-12.3-13.8-16.4-24.1-29.4c-3.5-4.2-5.5-7-12.7-11.4
						c2.9-1.4,16.2-11.3,28.8-33.4c13.4-22.5,32.5-32.3,57.9-31.4c9.5,0.3,18.9,0,28.4,0C1952.9,3059.7,1952.9,3059.5,1952.9,3059.3
						z"/>
					<path id="Small_Tooth" class="st3" d="M1601.9,3091.7c16,12.2,33.8,19.2,55.1,19.7c-9.8,2.3-20.5,27.8-27.5,41.1
						c-7.1,12.2-9.6,9.1-16.8,2.3C1596.4,3138,1592.5,3113.5,1601.9,3091.7z"/>
					<path id="Small_Tooth_00000176745456225691667590000008746361511290254734_" class="st3" d="M1707.2,3170
						c11.9-2.7,16.5-19.3,27.4-32.8c8.8-11.3,14.7-7.2,20.2,3.1c6.5,12.3,16.1,34.3,24.7,38.1c-4.4-0.3-2.8-0.6-13.3-0.1
						c-8.5,0.4-16.8,2.7-24.7,6.2c-2.7,1.2-4.6,0.4-6.8-1C1727,3178.7,1716.9,3174,1707.2,3170z"/>
					<path id="Small_Tooth_00000010275980468834045570000004816705062781485477_" class="st3" d="M1667.4,3111.8
						c23.4-2.3,43.2-9.5,60.8-22.5c0.4,0.3,0.7,0.4,0.8,0.6c4.3,7.4,10.9,19.2,16.6,25.8c-5.2,0.5-11.7,6-17.3,12.1
						c-5.3,5.9-11.2,17.2-16.3,24.4c-4.8,8.4-10.1,10.7-17.9-3.8C1681.9,3127.9,1674.1,3113.8,1667.4,3111.8z"/>
					<path id="Small_Tooth_00000161626082163409758430000011821844150332903344_" class="st3" d="M1759.9,3125.9
						c22.9,15.4,47.8,11.5,59.6,7.8c-3.5,2.2-12.2,18.8-17.8,28c-2.5,4-8.2,9.2-12,9.1c-4.1-0.1-7.7-6.4-10.8-11.3
						C1772.2,3148.6,1764.7,3130.6,1759.9,3125.9z"/>
					<path id="Small_Tooth_00000131366063733043193380000002377201516829066120_" class="st3" d="M1692.1,3165.5
						c-16.6-3.7-38.4-8.2-56.3-2.7c4.1-2.1,16.7-38.9,23.9-40.1C1669.1,3118,1687.9,3162.9,1692.1,3165.5z"/>
				</g>
				<g id="Eye">
					<path id="Eye_White" class="st3" d="M2010.3,2822.6c20.7,0,35.5,7.7,45.8,23.8c1.7,2.7,3.7,5.5-1.5,6.8
						c-34.2,8.5-57.9,31.6-78.8,58.5c-8.2,10.6-13.3,16.3-21.4,24.5c7.4-22-23.2-36.7-35.2-35.4c5.1-5.3,11.2-11.6,21.7-24.6
						c8.5-10.5,17.1-21.1,24.6-32.2c7.8-13.2,19.7-17.5,33.1-20.1C2003.1,2823,2007.7,2822.9,2010.3,2822.6z"/>
					<path id="Eye_White_Small" class="st3" d="M1897.3,2936.2c6.6,0.1,11.2,2.9,12.5,9.8c1.3,6.6-2.1,10-8.6,8.9
						c-2.4-0.4-4.8-0.8-7.1-1.6c-4-1.5-9.6-1.3-8.8-8.3C1886,2939.2,1890.2,2936,1897.3,2936.2z"/>
				</g>
			</g>
			<path id="Collar" class="st6" d="M2344.5,2701.3c-17.3,16.3-17.8,34.6-8,53.7c9.7,18.9,24.6,33,44.2,40.9
				c18.6,7.5,35.8,4.6,50.7-9.9c6.2-6,11.8-12.5,16.9-19.5c5.1-6.9,10.2-13.9,14.4-21.4c3.3-5.9,5.7-6.3,10.5-1.5
				c41.6,41,79,85.5,110.3,135.1c2.7,4.3,8.7,8.4,6.9,13.3c-1.6,4.4-8.6,2.9-13.1,4.1c-13.9,3.6-27.6,7.2-40.9,12.7
				c-15.6,6.5-23.8,20.9-21.3,37.7c2.3,15.6,7.6,29.7,17.1,42.3c15.8,20.8,37.6,34.5,69.3,14.8c10.4-6.4,21-12.5,31.3-19.1
				c5.2-3.3,7.9-3.6,10.9,3.1c24,54.4,44.6,109.9,57.8,168.1c1.4,6,3.5,11.8,4.7,17.8c0.9,4.5,0.2,7.1-5.7,4.8
				c-17.7-7.1-35.7-12.9-54.1-17.9c-32-8.6-49.3,3.8-57.2,35.4c-5.3,21.4-5,42.8,4.5,63.3c7.4,16,20,24.5,37.6,24.7
				c22.3,0.3,44.6,0.5,66.7-3.2c2.7-0.4,5.5-0.2,8.2-0.5c5.3-0.4,6,2,5.1,6.8c-7.7,41.4-24.2,78.6-50.9,111
				c-7.8,9.5-16.3,18.3-25.3,26.7c-5.8,5.3-8.2,3.7-10.9-2.5c-4.6-10.4-10.3-20.3-17.7-29c-13.9-16.3-24.6-19.7-44.4-12.3
				c-23.6,8.8-42.7,24.2-55,46.3c-13.2,23.7-11,39,10.8,58.9c6.1,5.6,6.2,7.1-2.1,10.2c-38.6,14.2-78.1,23.3-119.1,27.1
				c-13.4,1.2-26.8,1.4-40.2,1.9c-5.4,0.2-8.5-0.7-8.1-7.4c0.4-6.4-0.2-13-1.3-19.4c-3.6-21.5-7.9-26.2-34.2-38
				c11.1-2,21-3.9,30.9-5.6c52.3-8.8,101.6-25.1,143.9-58.9c33.4-26.7,52.1-61.6,55.6-104.1c2.6-31.2,1.6-62.3-10.3-92.1
				c-1.7-4.2-1.4-8.9-1.2-13.6c3.2-64.2-9.4-124.4-45.4-178.3c-5.6-8.4-8.6-17.2-10.6-27c-12.8-61.9-47.2-109-97.3-145.6
				c-31.4-22.9-61.3-47.7-81.9-81.7c-7.6-12.5-13.2-25.7-13.6-40.6c-0.1-2.8-0.5-6.1,3.7-5.9
				C2306,2707.8,2325.1,2706.6,2344.5,2701.3z M2207.7,3512.9c4.2,0.9,5.1-1.2,5.8-4.9c2.9-15.3,11.5-26.4,24.2-35
				c7.6-5.1,16.7-7.1,24.5-11.8c-8.4-2.8-15.2-0.2-22.1,4.3c-9.1,5.9-19.4,10.3-29.8,12.9c-28.6,7.1-57.8,10.7-87.3,14.7
				C2150.8,3502.1,2179.4,3506.8,2207.7,3512.9z"/>
			<path id="Nose_Tip" class="st7" d="M1725.9,3028.3c0,0-61.8-4.9-66-71.7c-0.4-6.7,63.1-43,127.5-3
				C1731.5,2983.2,1725.9,3028.3,1725.9,3028.3z"/>
		</g>
		<g id="BULLDOG">
			<g id="BULLDOG-Dark">
				<path id="S_00000004546339839368448630000007185927902318700204_" class="st8" d="M4049.3,1086.1
					c11.1-48.4,22.9-96.2,33.4-138.6c29.5-105.4,95-163.8,145.5-164.5c24.3,0,281.8,0,281.8,0l-43.9,218.2h-159.3l12.5-53.7H4238
					l-26.2,110.1h118c88.5,3.3,108.8,54.4,88.5,143.3c0,0-23.6,98.2-30.8,130c-24.9,102.8-80,151.2-143.5,150.5
					c-91.1,1.3-134.4,0-179.6,0c-43.3,0-68.8,0-100.3,0.7c7.2-29.2,42.6-188.4,50.5-220.2l148.8,0.7l-16.4,69.6h89.8l29.5-124.7
					c0,0-94.4,2-118,2C4049.3,1207.4,4038.8,1131.2,4049.3,1086.1z"/>
				<path id="G_00000103238432996447080360000018154697045117432737_" class="st8" d="M3914.3,1480.7c-105.5,1.3-241.9,0-283.8,0
					c-44.6,0-101.6-21.2-72.1-151.2c30.1-120.7,62.9-268.6,91.8-382.7C3679,826.8,3737.3,785,3776,781c50.5-2,225.5,2,308,2
					c-39.3,156.5-53.7,205.6-53.7,205.6l-154.7-2l10.5-39.8h-81.3l-91.8,384.7h83.2l29.5-129.3h-40.6l37.4-148.6l193.3,3.3
					L3914.3,1480.7z"/>
				<path id="O_00000088134212774854240650000013587612055927786681_" class="st8" d="M3534.1,782.3c-82.6,0-174.3,2-197.9,2
					c-50.5,0.7-94.4,29.2-125.2,162.5c-28.8,113.4-61.6,263.3-91.8,383.3c-32.1,127.3,31.5,149.9,72.1,150.5
					c45.2,0.7,88.5,1.3,179.6,0c63.6,0.7,118.6-48.4,143.5-150.5c28.2-122,64.2-272.6,92.4-383.3
					C3628.5,861.9,3596.4,782.3,3534.1,782.3z M3356.5,1331.5h-83.2l91.8-384.7h81.3L3356.5,1331.5z"/>
				<path id="D_00000006702405924172587300000017815303812820839838_" class="st8" d="M3095.6,784.3c-83.2,0-301.5,0-327.1,0
					l-38.7,162.5h33.4l-91.8,384.7h-36l-30.8,149.2c0,0,234,1.3,325.7,0c64.2,0.7,119.3-42.4,144.2-145.9
					c28.8-122.7,66.9-275.9,93.1-388C3187.4,865.2,3157.9,784.3,3095.6,784.3z M2904.9,1331.5h-83.2l91.8-384.7h81.3L2904.9,1331.5z
					"/>
				<path id="L_00000056386102673885029660000007111918231088763037_" class="st8" d="M2316.3,784.3c25.6,0,238.6,0,238.6,0
					l-40,162.5h-39.3l-85.2,384.7h59.6l22.9-116.1l146.2-1.3l-57,266.6h-401.8l30.8-149.2h42.6l85.2-384.7h-40L2316.3,784.3z"/>
				<path id="L_00000034054033382589050580000004397263983453981603_" class="st8" d="M1885.1,784.3c25.6,0,225.5,0,225.5,0
					l-33.4,162.5h-40l-85.2,384.7h59.6l22.9-116.1l139.6-1.3l-57,266.6h-401.8l37.4-149.2h42.6l91.8-384.7h-40.6L1885.1,784.3z"/>
				<path id="U_00000057116293265474259200000017225705484017856917_" class="st8" d="M1366.6,784.3l-43.9,162.5h43.3
					c0,0-74.1,297.8-96.3,409.2c-10.5,51.1,2,125.3,57.7,125.3c56.4,0,168.4,0,224.2,0c93.1,0,119.3-119.4,119.3-119.4L1771,947.5
					h35.4l37.4-162.5h-196l-129.1,547.1h-80l128.2-547.8H1366.6L1366.6,784.3z"/>
				<path id="B_00000025430119880610519190000016050450327695027076_" class="st8" d="M1212,783.6c-118.6,1.3-338.2,0-338.2,0
					l-38,163.1H879l-91.1,384.7H744L705.3,1478c0,0,248.4,4,338.9,2.7c87.2,0.7,121.3-59,135-107.4c4.6-21.2,34.7-145.2,40-165.8
					c13.8-45.8,2.6-78.3-54.4-88.2c58.3,0.7,76.7-9.3,87.8-51.1c9.2-31.8,22.9-84.2,31.5-121.4
					C1303.7,867.2,1309.6,788.3,1212,783.6z M1030.4,1331.5h-80l28.8-128l80-1.3L1030.4,1331.5z M1091.4,1069.5h-80.6l29.5-122.7
					h81.3L1091.4,1069.5z"/>
			</g>
			<g id="BULLDOG-Light">
				<path id="S" class="st9" d="M4011.3,1049.6c11.1-48.4,22.9-96.2,33.4-138.6c29.5-105.4,95-163.8,145.5-164.5
					c24.3,0,281.8,0,281.8,0l-43.9,218.2h-159.3l12.5-53.7h-81.9l-26.2,110.1h118c88.5,3.3,108.8,54.4,88.5,143.3
					c0,0-23.6,98.2-30.8,130c-24.9,102.8-80,151.2-143.5,150.5c-91.1,1.3-134.4,0-179.6,0c-43.3,0-79,0-110.4,0.7
					c7.2-29.2,44.8-188.4,52.7-220.2l156.7,0.7l-16.4,69.6h89.8l29.5-124.7c0,0-94.4,2-118,2
					C4011.3,1171.6,4000.8,1094.7,4011.3,1049.6z"/>
				<path id="G" class="st9" d="M3876.3,1444.9c-105.5,1.3-241.9,0-283.8,0c-44.6,0-101.6-21.2-72.1-151.2
					c30.1-120.7,62.9-268.6,91.8-382.7c28.8-120,87.2-161.8,125.8-165.8c50.5-2,225.5,2,308,2c-39.3,156.5-53.7,205.6-53.7,205.6
					l-154-2l10.5-39.8h-81.3l-91.8,384.7h83.2l29.5-129.3h-40.6l37.4-148.6l192.7,2.7L3876.3,1444.9z"/>
				<path id="O" class="st9" d="M3496.1,746.5c-82.6,0-174.3,2-197.9,2c-50.5,0.7-94.4,29.2-125.2,162.5
					c-28.8,113.4-61.6,263.3-91.8,383.3c-32.1,127.3,31.5,149.9,72.1,150.5c45.2,0.7,88.5,1.3,179.6,0
					c63.6,0.7,118.6-48.4,143.5-150.5c28.2-122,64.2-272.6,92.4-383.3C3590.5,825.4,3558.4,746.5,3496.1,746.5z M3318.5,1295.6
					h-83.2L3327,911h81.3L3318.5,1295.6z"/>
				<path id="D" class="st9" d="M3057.6,748.5c-83.2,0-301.5,0-327.1,0L2691.9,911h33.4l-91.8,384.7h-36l-31.9,150.1
					c0,0,235.1,0.4,326.8-0.9c64.2,0.7,119.3-42.4,144.2-145.9c28.8-122.7,67.5-275.9,93.7-388
					C3149.4,829.4,3119.9,748.5,3057.6,748.5z M2866.9,1295.6h-83.2l91.8-384.7h81.3L2866.9,1295.6z"/>
				<path id="L" class="st9" d="M2278.3,748.5c25.6,0,238.6,0,238.6,0l-40,162.5h-39.3l-85.2,384.7h59.6l22.9-116.1l146.2-1.3
					l-57,266.6h-403.3l31.5-149.2h43.5L2281,911h-40L2278.3,748.5z"/>
				<path id="L_00000005961750670012436270000000948459104063206293_" class="st9" d="M1846.4,748.5c25.6,0,225.5,0,225.5,0
					L2038.4,911h-40l-85.9,384.7h59.6l22.9-116.1l139.6-1.3l-57,266.6H1676l37.4-149.2h42.6l91.8-384.7h-40L1846.4,748.5z"/>
				<path id="U" class="st9" d="M1328,748.5L1284.7,911h43.3c0,0-74.1,297.8-96.3,409.2c-10.5,51.1,2,125.3,57.7,125.3
					c56.4,0,168.4,0,224.2,0c93.1,0,119.3-119.4,119.3-119.4l99-415.2h35.4l37.4-162.5h-196l-129.8,547.1h-80l127.8-547.1H1328z"/>
				<path id="B" class="st9" d="M1173.9,747.8c-118.6,1.3-338.2,0-338.2,0l-38,163.1H841l-91.1,384.7H706l-38.7,146.6
					c0,0,248.4,4,338.9,2.7c87.2,0.7,121.3-59,135-107.4c4.6-21.2,34.7-145.2,40-165.8c13.8-45.8,2.6-78.3-54.4-88.2
					c58.3,0.7,76.7-9.3,87.8-51.1c9.2-31.8,22.9-84.2,31.5-121.4C1265.7,830.7,1271.6,752.5,1173.9,747.8z M992.4,1295.6h-80
					l28.8-128l80-1.3L992.4,1295.6z M1053.3,1033.7h-80.6l29.5-122.7h81.3L1053.3,1033.7z"/>
			</g>
		</g>
		<g id="SOUTHERN-ILLINOIS">
			<g id="SOUTHERN-ILLINOIS-Light">
				<g id="S_00000061456737613292783060000007631627802091585956_">
					<polygon class="st2" points="163.2,519.1 102.1,458 102.1,406.4 176,406.4 176,445.3 257.9,445.3 257.9,363.6 163.2,363.6 
						102.1,302.5 102.1,195.3 163.2,134.3 270.6,134.3 331.8,195.3 331.8,246.9 257.9,246.9 257.9,208 176,208 176,289.8 
						269.5,289.8 331.8,350.8 331.8,458 270.6,519.1 					"/>
					<path class="st10" d="M269.8,136.3l60,59.9v48.8h-69.9V210v-4h-4H178h-4v4v77.8v4h4h90.7l61.1,59.9v105.5l-60,59.9H164.1
						l-60-59.9v-48.8H174v34.9v4h4h77.9h4v-4v-77.8v-4h-4h-91.8l-60-59.9V196.1l60-59.9H269.8 M271.5,132.3H162.4l-62.3,62.2v108.9
						l62.3,62.2h93.5v77.8H178v-38.9h-77.9v54.4l62.3,62.2h109.1l62.3-62.2V350l-63.4-62.2H178V210h77.9v38.9h77.9v-54.4
						L271.5,132.3L271.5,132.3z"/>
				</g>
				<g id="O_00000082348348457478873330000001152206705593646482_">
					<path class="st2" d="M438.3,519.1l-61.1-61V195.3l61.1-61h107.4l61.1,61V458l-61.1,61H438.3z M451.1,445.3H533V208h-81.9V445.3
						z"/>
					<path class="st10" d="M544.9,136.3l60,59.9v261.1l-60,59.9H439.2l-60-59.9V196.1l60-59.9H544.9 M449.1,447.3h4H531h4v-4V210v-4
						h-4h-77.9h-4v4v233.3V447.3 M546.6,132.3H437.5l-62.3,62.2v264.4l62.3,62.2h109.1l62.3-62.2V194.5L546.6,132.3L546.6,132.3z
						 M453.1,443.3V210H531v233.3H453.1L453.1,443.3z"/>
				</g>
				<g id="U_00000163771937773790351490000014298420105525415080_">
					<polygon class="st2" points="752.4,519.1 691.2,458 691.2,208 652.3,208 652.3,134.3 798.5,134.3 798.5,208 765.1,208 
						765.1,445.3 847,445.3 847,208 813.7,208 813.7,134.3 959.9,134.3 959.9,208 920.9,208 920.9,458 859.8,519.1 					"/>
					<path class="st10" d="M957.9,136.3V206h-35h-4v4v247.2l-60,59.9H753.2l-60-59.9V210v-4h-4h-35v-69.8h142.2V206h-29.4h-4v4
						v233.3v4h4H845h4v-4V210v-4h-4h-29.4v-69.8H957.9 M961.9,132.3H811.7V210H845v233.3h-77.9V210h33.4v-77.8H650.3V210h39v248.8
						l62.3,62.2h109.1l62.3-62.2V210h39V132.3L961.9,132.3z"/>
				</g>
				<g id="T">
					<polygon class="st2" points="1083.2,519.1 1083.2,445.3 1122.1,445.3 1122.1,208 1079.2,208 1079.2,246.9 1005.3,246.9 
						1005.3,134.3 1312.9,134.3 1312.9,246.9 1239,246.9 1239,208 1196,208 1196,445.3 1235,445.3 1235,519.1 					"/>
					<path class="st10" d="M1310.9,136.3v108.6H1241V210v-4h-4h-39h-4v4v233.3v4h4h35v69.8h-147.8v-69.8h35h4v-4V210v-4h-4h-39h-4v4
						v34.9h-69.9V136.3H1310.9 M1314.9,132.3h-311.6v116.6h77.9V210h39v233.3h-39v77.8H1237v-77.8h-39V210h39v38.9h77.9V132.3
						L1314.9,132.3z"/>
				</g>
				<g id="H">
					<polygon class="st2" points="1519.7,519.1 1519.7,445.3 1553,445.3 1553,363.6 1471.1,363.6 1471.1,445.3 1504.5,445.3 
						1504.5,519.1 1358.3,519.1 1358.3,445.3 1397.2,445.3 1397.2,208 1358.3,208 1358.3,134.3 1504.5,134.3 1504.5,208 1471.1,208 
						1471.1,289.8 1553,289.8 1553,208 1519.7,208 1519.7,134.3 1665.9,134.3 1665.9,208 1626.9,208 1626.9,445.3 1665.9,445.3 
						1665.9,519.1 					"/>
					<path class="st10" d="M1663.9,136.3V206h-35h-4v4v233.3v4h4h35v69.8h-142.2v-69.8h29.4h4v-4v-77.8v-4h-4h-77.9h-4v4v77.8v4h4
						h29.4v69.8h-142.2v-69.8h35h4v-4V210v-4h-4h-35v-69.8h142.2V206h-29.4h-4v4v77.8v4h4h77.9h4v-4V210v-4h-4h-29.4v-69.8H1663.9
						 M1667.9,132.3h-150.2V210h33.4v77.8h-77.9V210h33.4v-77.8h-150.2V210h39v233.3h-39v77.8h150.2v-77.8h-33.4v-77.8h77.9v77.8
						h-33.4v77.8h150.2v-77.8h-39V210h39V132.3L1667.9,132.3z"/>
				</g>
				<g id="E">
					<polygon class="st2" points="1711.3,519.1 1711.3,445.3 1750.2,445.3 1750.2,208 1711.3,208 1711.3,134.3 1979.9,134.3 
						1979.9,246.9 1906,246.9 1906,208 1824.1,208 1824.1,289.8 1902,289.8 1902,363.6 1824.1,363.6 1824.1,445.3 1906,445.3 
						1906,406.4 1979.9,406.4 1979.9,519.1 					"/>
					<path class="st10" d="M1977.9,136.3v108.6H1908V210v-4h-4h-77.9h-4v4v77.8v4h4h73.9v69.8h-73.9h-4v4v77.8v4h4h77.9h4v-4v-34.9
						h69.9v108.6h-264.7v-69.8h35h4v-4V210v-4h-4h-35v-69.8H1977.9 M1981.9,132.3h-272.7V210h39v233.3h-39v77.8h272.7V404.4H1904
						v38.9h-77.9v-77.8h77.9v-77.8h-77.9V210h77.9v38.9h77.9V132.3L1981.9,132.3z"/>
				</g>
				<g id="R">
					<path class="st2" d="M2186.7,519.1v-73.8h33.4v-81.8h-81.9v81.8h33.4v73.8h-146.2v-73.8h39V208h-39v-73.8h207.5l61.1,61v107.2
						l-24.2,24.2l24.2,24.2v94.5h39v73.8H2186.7z M2138.2,289.8h81.9V208h-81.9V289.8z"/>
					<path class="st10" d="M2232,136.3l60,59.9v105.5l-22.2,22.2l-2.8,2.8l2.8,2.8l22.2,22.2v91.7v4h4h35v69.8h-142.2v-69.8h29.4h4
						v-4v-77.8v-4h-4h-77.9h-4v4v77.8v4h4h29.4v69.8h-142.2v-69.8h35h4v-4V210v-4h-4h-35v-69.8H2232 M2136.2,291.8h4h77.9h4v-4V210
						v-4h-4h-77.9h-4v4v77.8V291.8 M2233.7,132.3h-210.3V210h39v233.3h-39v77.8h150.2v-77.8h-33.4v-77.8h77.9v77.8h-33.4v77.8h150.2
						v-77.8h-39V350l-23.4-23.3l23.4-23.3V194.5L2233.7,132.3L2233.7,132.3z M2140.2,287.8V210h77.9v77.8H2140.2L2140.2,287.8z"/>
				</g>
				<g id="N_00000076582429430832791350000016492979931968647576_">
					<polygon class="st2" points="2611.2,519.1 2491.2,290.8 2491.2,445.3 2530.1,445.3 2530.1,519.1 2378.3,519.1 2378.3,445.3 
						2417.3,445.3 2417.3,208 2378.3,208 2378.3,134.3 2492,134.3 2612,362.5 2612,208 2573.1,208 2573.1,134.3 2724.9,134.3 
						2724.9,208 2685.9,208 2685.9,519.1 					"/>
					<path class="st10" d="M2722.9,136.3V206h-35h-4v4v307h-71.5l-115.7-220l-7.5-14.3v16.2v144.4v4h4h35v69.8h-147.8v-69.8h35h4v-4
						V210v-4h-4h-35v-69.8h110.4l115.7,220l7.5,14.3v-16.2V210v-4h-4h-35v-69.8H2722.9 M2726.9,132.3h-155.8V210h39v144.4
						l-116.9-222.2h-116.9V210h39v233.3h-39v77.8h155.8v-77.8h-39V298.9L2610,521.1h77.9V210h39V132.3L2726.9,132.3z"/>
				</g>
				<g id="I_00000124145951702192803370000016097984434435542417_">
					<polygon class="st2" points="2989.7,519.1 2989.7,445.3 3028.7,445.3 3028.7,208 2989.7,208 2989.7,134.3 3136,134.3 3136,208 
						3102.6,208 3102.6,445.3 3136,445.3 3136,519.1 					"/>
					<path class="st10" d="M3134,136.3V206h-29.4h-4v4v233.3v4h4h29.4v69.8h-142.2v-69.8h35h4v-4V210v-4h-4h-35v-69.8H3134
						 M3138,132.3h-150.2V210h39v233.3h-39v77.8H3138v-77.8h-33.4V210h33.4V132.3L3138,132.3z"/>
				</g>
				<g id="L_00000168837226358898490660000003112684407354997171_">
					<polygon class="st2" points="3181.4,519.1 3181.4,445.3 3220.3,445.3 3220.3,208 3181.4,208 3181.4,134.3 3333.2,134.3 
						3333.2,208 3294.2,208 3294.2,445.3 3376.1,445.3 3376.1,406.4 3450,406.4 3450,519.1 					"/>
					<path class="st10" d="M3331.2,136.3V206h-35h-4v4v233.3v4h4h77.9h4v-4v-34.9h69.9v108.6h-264.7v-69.8h35h4v-4V210v-4h-4h-35
						v-69.8H3331.2 M3335.2,132.3h-155.8V210h39v233.3h-39v77.8H3452V404.4h-77.9v38.9h-77.9V210h39V132.3L3335.2,132.3z"/>
				</g>
				<g id="L_00000071553165221226566280000004164663330913927865_">
					<polygon class="st2" points="3495.4,519.1 3495.4,445.3 3534.4,445.3 3534.4,208 3495.4,208 3495.4,134.3 3647.2,134.3 
						3647.2,208 3608.3,208 3608.3,445.3 3690.2,445.3 3690.2,406.4 3764.1,406.4 3764.1,519.1 					"/>
					<path class="st10" d="M3645.2,136.3V206h-34.9h-4v4v233.3v4h4h77.9h4v-4v-34.9h69.9v108.6h-264.7v-69.8h35h4v-4V210v-4h-4h-35
						v-69.8H3645.2 M3649.2,132.3h-155.8V210h39v233.3h-39v77.8h272.7V404.4h-77.9v38.9h-77.9V210h38.9V132.3L3649.2,132.3z"/>
				</g>
				<g id="I_00000061432928485073985170000017991228626614306964_">
					<polygon class="st2" points="3809.5,519.1 3809.5,445.3 3848.4,445.3 3848.4,208 3809.5,208 3809.5,134.3 3955.7,134.3 
						3955.7,208 3922.3,208 3922.3,445.3 3955.7,445.3 3955.7,519.1 					"/>
					<path class="st10" d="M3953.7,136.3V206h-29.4h-4v4v233.3v4h4h29.4v69.8h-142.2v-69.8h35h4v-4V210v-4h-4h-35v-69.8H3953.7
						 M3957.7,132.3h-150.2V210h39v233.3h-39v77.8h150.2v-77.8h-33.4V210h33.4V132.3L3957.7,132.3z"/>
				</g>
				<g id="N">
					<polygon class="st2" points="4234,519.1 4114,290.8 4114,445.3 4152.9,445.3 4152.9,519.1 4001.1,519.1 4001.1,445.3 
						4040.1,445.3 4040.1,208 4001.1,208 4001.1,134.3 4114.8,134.3 4234.8,362.5 4234.8,208 4195.9,208 4195.9,134.3 4347.7,134.3 
						4347.7,208 4308.7,208 4308.7,519.1 					"/>
					<path class="st10" d="M4345.7,136.3V206h-34.9h-4v4v307h-71.5l-115.7-220l-7.5-14.3v16.2v144.4v4h4h35v69.8h-147.8v-69.8h35h4
						v-4V210v-4h-4h-35v-69.8h110.4l115.7,220l7.5,14.3v-16.2V210v-4h-4h-35v-69.8H4345.7 M4349.7,132.3h-155.8V210h39v144.4
						L4116,132.3h-116.9V210h39v233.3h-39v77.8h155.8v-77.8h-39V298.9l116.9,222.2h77.9V210h38.9V132.3L4349.7,132.3z"/>
				</g>
				<g id="O_00000159463197833368920740000012394948003028079774_">
					<path class="st2" d="M4454.2,519.1l-61.1-61V195.3l61.1-61h107.4l61.1,61V458l-61.1,61H4454.2z M4467,445.3h81.9V208H4467
						V445.3z"/>
					<path class="st10" d="M4560.8,136.3l60,59.9v261.1l-60,59.9H4455l-60-59.9V196.1l60-59.9H4560.8 M4465,447.3h4h77.9h4v-4V210
						v-4h-4H4469h-4v4v233.3V447.3 M4562.4,132.3h-109.1l-62.3,62.2v264.4l62.3,62.2h109.1l62.3-62.2V194.5L4562.4,132.3
						L4562.4,132.3z M4469,443.3V210h77.9v233.3H4469L4469,443.3z"/>
				</g>
				<g id="I">
					<polygon class="st2" points="4668.2,519.1 4668.2,445.3 4707.1,445.3 4707.1,208 4668.2,208 4668.2,134.3 4814.4,134.3 
						4814.4,208 4781,208 4781,445.3 4814.4,445.3 4814.4,519.1 					"/>
					<path class="st10" d="M4812.4,136.3V206H4783h-4v4v233.3v4h4h29.4v69.8h-142.2v-69.8h35h4v-4V210v-4h-4h-35v-69.8H4812.4
						 M4816.4,132.3h-150.2V210h39v233.3h-39v77.8h150.2v-77.8H4783V210h33.4V132.3L4816.4,132.3z"/>
				</g>
				<g id="S_00000126302563591946401730000006566090529518458036_">
					<polygon class="st2" points="4920.9,519.1 4859.8,458 4859.8,406.4 4933.7,406.4 4933.7,445.3 5015.6,445.3 5015.6,363.6 
						4920.9,363.6 4859.8,302.5 4859.8,195.3 4920.9,134.3 5028.4,134.3 5089.5,195.3 5089.5,246.9 5015.6,246.9 5015.6,208 
						4933.7,208 4933.7,289.8 5027.2,289.8 5089.5,350.8 5089.5,458 5028.4,519.1 					"/>
					<path class="st10" d="M5027.5,136.3l60,59.9v48.8h-69.9V210v-4h-4h-77.9h-4v4v77.8v4h4h90.7l61.1,59.9v105.5l-60,59.9h-105.8
						l-60-59.9v-48.8h69.9v34.9v4h4h77.9h4v-4v-77.8v-4h-4h-91.8l-60-59.9V196.1l60-59.9H5027.5 M5029.2,132.3h-109.1l-62.3,62.2
						v108.9l62.3,62.2h93.5v77.8h-77.9v-38.9h-77.9v54.4l62.3,62.2h109.1l62.3-62.2V350l-63.4-62.2h-92.4V210h77.9v38.9h77.9v-54.4
						L5029.2,132.3L5029.2,132.3z"/>
				</g>
			</g>
			<g id="SOUTHERN-ILLINOIS-Dark">
				<g id="S_00000072270517158197975040000011732605077813281932_">
					<polygon class="st11" points="154.9,510 94,449.2 94,398.3 166.9,398.3 166.9,437.2 249.8,437.2 249.8,354.5 154.9,354.5 
						94,293.7 94,186.9 154.9,126.2 261.8,126.2 322.7,186.9 322.7,237.8 249.8,237.8 249.8,198.9 166.9,198.9 166.9,281.7 
						260.7,281.7 322.7,342.5 322.7,449.2 261.8,510 					"/>
					<path class="st5" d="M260.8,128.7l59.4,59.3v47.4h-67.9v-33.9v-5h-5h-77.9h-5v5v77.8v5h5h90.3l60.5,59.3v104.7l-59.4,59.3
						H155.9l-59.4-59.3v-47.4h67.9v33.9v5h5h77.9h5v-5V357v-5h-5h-91.4l-59.4-59.3V188l59.4-59.3H260.8 M262.9,123.7H153.8
						l-62.3,62.2v108.9l62.3,62.2h93.5v77.8h-77.9v-38.9H91.5v54.4l62.3,62.2h109.1l62.3-62.2V341.4l-63.4-62.2h-92.4v-77.8h77.9
						v38.9h77.9v-54.4L262.9,123.7L262.9,123.7z"/>
				</g>
				<g id="O_00000121981072709133365580000007957285878381042327_">
					<path class="st11" d="M430,510l-60.9-60.7V186.9l60.9-60.7h107l60.9,60.7v262.3L536.9,510H430z M442,437.2h82.9V198.9H442
						V437.2z"/>
					<path class="st5" d="M535.9,128.7l59.4,59.3v260.2l-59.4,59.3H431l-59.4-59.3V188l59.4-59.3H535.9 M439.5,439.7h5h77.9h5v-5
						V201.4v-5h-5h-77.9h-5v5v233.3V439.7 M538,123.7H428.9l-62.3,62.2v264.4l62.3,62.2H538l62.3-62.2V185.9L538,123.7L538,123.7z
						 M444.5,434.7V201.4h77.9v233.3H444.5L444.5,434.7z"/>
				</g>
				<g id="U_00000027600441887727018200000015921960747016353983_">
					<polygon class="st11" points="744,510 683.1,449.2 683.1,198.9 644.2,198.9 644.2,126.2 789.4,126.2 789.4,198.9 756,198.9 
						756,437.2 838.9,437.2 838.9,198.9 805.6,198.9 805.6,126.2 950.8,126.2 950.8,198.9 911.8,198.9 911.8,449.2 851,510 					"/>
					<path class="st5" d="M948.3,128.7v67.8h-34h-5v5v246.8L850,507.5H745l-59.4-59.3V201.4v-5h-5h-34v-67.8h140.2v67.8h-28.4h-5v5
						v233.3v5h5h77.9h5v-5V201.4v-5h-5h-28.4v-67.8H948.3 M953.3,123.7H803.1v77.8h33.4v233.3h-77.9V201.4h33.4v-77.8H641.7v77.8h39
						v248.8l62.3,62.2H852l62.3-62.2V201.4h39V123.7L953.3,123.7z"/>
				</g>
				<g id="T_00000152242918073407816680000005232568689727830436_">
					<polygon class="st11" points="1075.1,510 1075.1,437.2 1114,437.2 1114,198.9 1070.1,198.9 1070.1,237.8 997.2,237.8 
						997.2,126.2 1303.8,126.2 1303.8,237.8 1230.9,237.8 1230.9,198.9 1186.9,198.9 1186.9,437.2 1225.9,437.2 1225.9,510 					"/>
					<path class="st5" d="M1301.3,128.7v106.6h-67.9v-33.9v-5h-5h-39h-5v5v233.3v5h5h34v67.8h-145.8v-67.8h34h5v-5V201.4v-5h-5h-39
						h-5v5v33.9h-67.9V128.7H1301.3 M1306.3,123.7H994.7v116.6h77.9v-38.9h39v233.3h-39v77.8h155.8v-77.8h-39V201.4h39v38.9h77.9
						V123.7L1306.3,123.7z"/>
				</g>
				<g id="H_00000063634993988308043660000006952726078261744526_">
					<polygon class="st11" points="1511.6,510 1511.6,437.2 1544.9,437.2 1544.9,354.5 1462,354.5 1462,437.2 1495.4,437.2 
						1495.4,510 1350.2,510 1350.2,437.2 1389.1,437.2 1389.1,198.9 1350.2,198.9 1350.2,126.2 1495.4,126.2 1495.4,198.9 
						1462,198.9 1462,281.7 1544.9,281.7 1544.9,198.9 1511.6,198.9 1511.6,126.2 1656.8,126.2 1656.8,198.9 1617.8,198.9 
						1617.8,437.2 1656.8,437.2 1656.8,510 					"/>
					<path class="st5" d="M1654.3,128.7v67.8h-34h-5v5v233.3v5h5h34v67.8h-140.2v-67.8h28.4h5v-5V357v-5h-5h-77.9h-5v5v77.8v5h5
						h28.4v67.8h-140.2v-67.8h34h5v-5V201.4v-5h-5h-34v-67.8h140.2v67.8h-28.4h-5v5v77.8v5h5h77.9h5v-5v-77.8v-5h-5h-28.4v-67.8
						H1654.3 M1659.3,123.7h-150.2v77.8h33.4v77.8h-77.9v-77.8h33.4v-77.8h-150.2v77.8h39v233.3h-39v77.8h150.2v-77.8h-33.4V357
						h77.9v77.8h-33.4v77.8h150.2v-77.8h-39V201.4h39V123.7L1659.3,123.7z"/>
				</g>
				<g id="E_00000182505635447144939940000009360629137735663017_">
					<polygon class="st11" points="1703.2,510 1703.2,437.2 1742.1,437.2 1742.1,198.9 1703.2,198.9 1703.2,126.2 1970.8,126.2 
						1970.8,237.8 1897.9,237.8 1897.9,198.9 1815,198.9 1815,281.7 1892.9,281.7 1892.9,354.5 1815,354.5 1815,437.2 1897.9,437.2 
						1897.9,398.3 1970.8,398.3 1970.8,510 					"/>
					<path class="st5" d="M1968.3,128.7v106.6h-67.9v-33.9v-5h-5h-77.9h-5v5v77.8v5h5h72.9V352h-72.9h-5v5v77.8v5h5h77.9h5v-5v-33.9
						h67.9v106.6h-262.7v-67.8h34h5v-5V201.4v-5h-5h-34v-67.8H1968.3 M1973.3,123.7h-272.7v77.8h39v233.3h-39v77.8h272.7V395.8
						h-77.9v38.9h-77.9V357h77.9v-77.8h-77.9v-77.8h77.9v38.9h77.9V123.7L1973.3,123.7z"/>
				</g>
				<g id="R_00000096744104249301169950000012100241336056292001_">
					<path class="st11" d="M2178.6,510v-72.8h33.4v-82.8h-82.9v82.8h33.4V510h-145.2v-72.8h39V198.9h-39v-72.8H2224l60.9,60.7v106.8
						l-24.4,24.4l24.4,24.4v94.8h39V510H2178.6z M2129.1,281.7h82.9v-82.8h-82.9V281.7z"/>
					<path class="st5" d="M2223,128.7l59.4,59.3v104.7l-21.9,21.9l-3.5,3.5l3.5,3.5l21.9,21.9v91.2v5h5h34v67.8h-140.2v-67.8h28.4h5
						v-5V357v-5h-5h-77.9h-5v5v77.8v5h5h28.4v67.8h-140.2v-67.8h34h5v-5V201.4v-5h-5h-34v-67.8H2223 M2126.6,284.2h5h77.9h5v-5
						v-77.8v-5h-5h-77.9h-5v5v77.8V284.2 M2225.1,123.7h-210.3v77.8h39v233.3h-39v77.8H2165v-77.8h-33.4V357h77.9v77.8h-33.4v77.8
						h150.2v-77.8h-39v-93.3l-23.4-23.3l23.4-23.3V185.9L2225.1,123.7L2225.1,123.7z M2131.6,279.2v-77.8h77.9v77.8H2131.6
						L2131.6,279.2z"/>
				</g>
				<g id="N_00000126305016348252302050000007163820324220484789_">
					<polygon class="st11" points="2603,510 2482.1,280.2 2482.1,437.2 2521,437.2 2521,510 2370.2,510 2370.2,437.2 2409.2,437.2 
						2409.2,198.9 2370.2,198.9 2370.2,126.2 2483.1,126.2 2603.9,356 2603.9,198.9 2565,198.9 2565,126.2 2715.8,126.2 
						2715.8,198.9 2676.8,198.9 2676.8,510 					"/>
					<path class="st5" d="M2713.3,128.7v67.8h-34h-5v5v306h-69.9L2489,288l-9.4-17.9v20.2v144.4v5h5h34v67.8h-145.8v-67.8h34h5v-5
						V201.4v-5h-5h-34v-67.8h108.8L2597,348.2l9.4,17.9v-20.2V201.4v-5h-5h-34v-67.8H2713.3 M2718.3,123.7h-155.8v77.8h39v144.4
						l-116.9-222.2h-116.9v77.8h39v233.3h-39v77.8h155.8v-77.8h-39V290.3l116.9,222.2h77.9v-311h39V123.7L2718.3,123.7z"/>
				</g>
				<g id="I_00000053528978728268147060000012395881796004208284_">
					<polygon class="st11" points="2981.7,510 2981.7,437.2 3020.6,437.2 3020.6,198.9 2981.7,198.9 2981.7,126.2 3126.9,126.2 
						3126.9,198.9 3093.5,198.9 3093.5,437.2 3126.9,437.2 3126.9,510 					"/>
					<path class="st5" d="M3124.4,128.7v67.8H3096h-5v5v233.3v5h5h28.4v67.8h-140.2v-67.8h34h5v-5V201.4v-5h-5h-34v-67.8H3124.4
						 M3129.4,123.7h-150.2v77.8h39v233.3h-39v77.8h150.2v-77.8H3096V201.4h33.4V123.7L3129.4,123.7z"/>
				</g>
				<g id="L_00000005268935538172605140000009181323869751794836_">
					<polygon class="st11" points="3173.3,510 3173.3,437.2 3212.2,437.2 3212.2,198.9 3173.3,198.9 3173.3,126.2 3324.1,126.2 
						3324.1,198.9 3285.1,198.9 3285.1,437.2 3368,437.2 3368,398.3 3440.9,398.3 3440.9,510 					"/>
					<path class="st5" d="M3321.6,128.7v67.8h-33.9h-5v5v233.3v5h5h77.9h5v-5v-33.9h67.9v106.6h-262.7v-67.8h34h5v-5V201.4v-5h-5
						h-34v-67.8H3321.6 M3326.6,123.7h-155.8v77.8h39v233.3h-39v77.8h272.7V395.8h-77.9v38.9h-77.9V201.4h38.9V123.7L3326.6,123.7z"
						/>
				</g>
				<g id="L_00000094602624799378345450000015777852461369398421_">
					<polygon class="st11" points="3487.3,510 3487.3,437.2 3526.3,437.2 3526.3,198.9 3487.3,198.9 3487.3,126.2 3638.1,126.2 
						3638.1,198.9 3599.2,198.9 3599.2,437.2 3682.1,437.2 3682.1,398.3 3755,398.3 3755,510 					"/>
					<path class="st5" d="M3635.6,128.7v67.8h-33.9h-5v5v233.3v5h5h77.9h5v-5v-33.9h67.9v106.6h-262.7v-67.8h34h5v-5V201.4v-5h-5
						h-34v-67.8H3635.6 M3640.6,123.7h-155.8v77.8h39v233.3h-39v77.8h272.7V395.8h-77.9v38.9h-77.9V201.4h38.9V123.7L3640.6,123.7z"
						/>
				</g>
				<g id="I_00000041985700764617757160000016385437988556378252_">
					<polygon class="st11" points="3801.4,510 3801.4,437.2 3840.3,437.2 3840.3,198.9 3801.4,198.9 3801.4,126.2 3946.6,126.2 
						3946.6,198.9 3913.2,198.9 3913.2,437.2 3946.6,437.2 3946.6,510 					"/>
					<path class="st5" d="M3944.1,128.7v67.8h-28.4h-5v5v233.3v5h5h28.4v67.8h-140.2v-67.8h34h5v-5V201.4v-5h-5h-34v-67.8H3944.1
						 M3949.1,123.7h-150.2v77.8h39v233.3h-39v77.8h150.2v-77.8h-33.4V201.4h33.4V123.7L3949.1,123.7z"/>
				</g>
				<g id="N_00000041982645704877710420000015895760988759433374_">
					<polygon class="st11" points="4225.7,510 4104.9,280.2 4104.9,437.2 4143.8,437.2 4143.8,510 3993,510 3993,437.2 4032,437.2 
						4032,198.9 3993,198.9 3993,126.2 4105.9,126.2 4226.7,356 4226.7,198.9 4187.8,198.9 4187.8,126.2 4338.6,126.2 4338.6,198.9 
						4299.6,198.9 4299.6,510 					"/>
					<path class="st5" d="M4336.1,128.7v67.8h-33.9h-5v5v306h-69.9L4111.8,288l-9.4-17.9v20.2v144.4v5h5h34v67.8h-145.8v-67.8h34h5
						v-5V201.4v-5h-5h-34v-67.8h108.8l115.4,219.5l9.4,17.9v-20.2V201.4v-5h-5h-34v-67.8H4336.1 M4341.1,123.7h-155.8v77.8h39v144.4
						l-116.9-222.2h-116.9v77.8h39v233.3h-39v77.8h155.8v-77.8h-39V290.3l116.9,222.2h77.9v-311h38.9V123.7L4341.1,123.7z"/>
				</g>
				<g id="O_00000151520955083194654540000010240192673583032450_">
					<path class="st11" d="M4445.8,510l-60.9-60.7V186.9l60.9-60.7h107l60.9,60.7v262.3l-60.9,60.7H4445.8z M4457.9,437.2h82.9
						V198.9h-82.9V437.2z"/>
					<path class="st5" d="M4551.8,128.7l59.4,59.3v260.2l-59.4,59.3h-104.9l-59.4-59.3V188l59.4-59.3H4551.8 M4455.4,439.7h5h77.9h5
						v-5V201.4v-5h-5h-77.9h-5v5v233.3V439.7 M4553.9,123.7h-109.1l-62.3,62.2v264.4l62.3,62.2h109.1l62.3-62.2V185.9L4553.9,123.7
						L4553.9,123.7z M4460.4,434.7V201.4h77.9v233.3H4460.4L4460.4,434.7z"/>
				</g>
				<g id="I_00000175283448815043543200000005049891580614345151_">
					<polygon class="st11" points="4660.1,510 4660.1,437.2 4699,437.2 4699,198.9 4660.1,198.9 4660.1,126.2 4805.3,126.2 
						4805.3,198.9 4771.9,198.9 4771.9,437.2 4805.3,437.2 4805.3,510 					"/>
					<path class="st5" d="M4802.8,128.7v67.8h-28.4h-5v5v233.3v5h5h28.4v67.8h-140.2v-67.8h34h5v-5V201.4v-5h-5h-34v-67.8H4802.8
						 M4807.8,123.7h-150.2v77.8h39v233.3h-39v77.8h150.2v-77.8h-33.4V201.4h33.4V123.7L4807.8,123.7z"/>
				</g>
				<g id="S_00000044864047450643916720000003766175470676254350_">
					<polygon class="st11" points="4912.6,510 4851.7,449.2 4851.7,398.3 4924.6,398.3 4924.6,437.2 5007.5,437.2 5007.5,354.5 
						4912.6,354.5 4851.7,293.7 4851.7,186.9 4912.6,126.2 5019.6,126.2 5080.4,186.9 5080.4,237.8 5007.5,237.8 5007.5,198.9 
						4924.6,198.9 4924.6,281.7 5018.5,281.7 5080.4,342.5 5080.4,449.2 5019.6,510 					"/>
					<path class="st5" d="M5018.5,128.7l59.4,59.3v47.4H5010v-33.9v-5h-5h-77.9h-5v5v77.8v5h5h90.3l60.5,59.3v104.7l-59.4,59.3
						h-104.9l-59.4-59.3v-47.4h67.9v33.9v5h5h77.9h5v-5V357v-5h-5h-91.4l-59.4-59.3V188l59.4-59.3H5018.5 M5020.6,123.7h-109.1
						l-62.3,62.2v108.9l62.3,62.2h93.5v77.8h-77.9v-38.9h-77.9v54.4l62.3,62.2h109.1l62.3-62.2V341.4l-63.4-62.2h-92.4v-77.8h77.9
						v38.9h77.9v-54.4L5020.6,123.7L5020.6,123.7z"/>
				</g>
			</g>
		</g>
	</g>
</g>
</svg>
