<?xml version="1.0" encoding="UTF-8"?>
<svg id="Layer_1" data-name="Layer 1" xmlns="http://www.w3.org/2000/svg" viewBox="0 0 1200 1200">
  <defs>
    <style>
      .cls-1 {
        fill: #fff;
      }

      .cls-2 {
        fill: #3cf;
      }

      .cls-3 {
        fill: none;
        opacity: 0;
      }

      .cls-4 {
        fill: #231f20;
      }
    </style>
  </defs>
  <rect id="Background" class="cls-3" width="1200" height="1200"/>
  <g id="Back">
    <g id="Name-List">
      <path class="cls-1" d="m424.603,702.357h-8.899v-30.533c0-1.607.185-3.85.554-6.723l-7.989,31.601h-4.706l-8.029-31.601c.369,2.926.554,5.168.554,6.723v30.533h-8.898v-61.896h8.74l9.729,34.211c.105.37.185,1.306.237,2.809,0-.658.079-1.596.237-2.809l9.729-34.211h8.741v61.896Z"/>
      <path class="cls-1" d="m463.362,702.357h-9.176l-1.859-11.746h-11.588l-1.859,11.746h-9.136v-.158l11.983-61.817h9.729l11.905,61.976Zm-12.34-19.695l-4.509-27.924-4.549,27.924h9.058Z"/>
      <path class="cls-1" d="m499.155,696.702c0,3.771-1.885,5.655-5.655,5.655h-19.459c-3.665,0-5.498-1.885-5.498-5.655v-50.546c0-3.797,1.872-5.695,5.616-5.695h19.341c3.771,0,5.655,1.898,5.655,5.695v13.21h-9.294v-10.956h-12.063v45.998h12.063v-17.323h-6.882v-7.87h16.176v27.487Z"/>
      <path class="cls-1" d="m537.164,696.702c0,3.771-1.886,5.655-5.656,5.655h-19.459c-3.665,0-5.497-1.885-5.497-5.655v-50.546c0-3.797,1.872-5.695,5.616-5.695h19.34c3.771,0,5.656,1.898,5.656,5.695v13.21h-9.295v-10.956h-12.062v45.998h12.062v-17.323h-6.882v-7.87h16.177v27.487Z"/>
      <path class="cls-1" d="m553.973,702.357h-9.255v-61.896h9.255v61.896Z"/>
      <path class="cls-1" d="m587.235,702.357h-25.669v-61.896h25.432v8.188h-16.177v18.074h13.922v8.029h-13.922v19.419h16.414v8.187Z"/>
      <path class="cls-1" d="m641.934,702.357h-9.65l-10.204-28.753v-5.577h9.097v-19.617h-11.667v53.947h-9.255v-61.896h24.561c3.718,0,5.577,1.898,5.577,5.695v22.504c0,2.611-.884,4.299-2.65,5.062-.949.396-2.953.594-6.012.594l10.204,28.041Z"/>
      <path class="cls-1" d="m678.795,696.702c0,3.771-1.872,5.655-5.616,5.655h-20.092c-3.665,0-5.497-1.885-5.497-5.655v-50.546c0-3.797,1.832-5.695,5.497-5.695h20.092c3.744,0,5.616,1.898,5.616,5.695v50.546Zm-9.255-2.294v-45.998h-12.695v45.998h12.695Z"/>
      <path class="cls-1" d="m717.356,640.816l-8.187,25.867c-1.002,2.557-2.36,6.868-4.073,12.933v22.741h-9.295v-22.741c-.422-2.057-1.028-4.231-1.819-6.526-1.397-3.928-2.149-6.064-2.254-6.406l-8.147-25.867c-.026-.025-.026-.145,0-.355h9.531l7.396,26.895,7.355-26.895h9.492v.355Z"/>
      <path class="cls-1" d="m414.991,793.902c0,3.771-1.898,5.656-5.695,5.656h-17.561c-3.718,0-5.576-1.885-5.576-5.656v-15.227h9.215v12.933h10.362v-53.947h9.255v56.241Z"/>
      <path class="cls-1" d="m453.712,799.559h-9.176l-1.859-11.747h-11.588l-1.859,11.747h-9.136v-.158l11.983-61.818h9.729l11.905,61.977Zm-12.34-19.697l-4.509-27.922-4.549,27.922h9.058Z"/>
      <path class="cls-1" d="m490.02,738.018l-8.188,25.865c-1.002,2.559-2.359,6.869-4.073,12.934v22.742h-9.295v-22.742c-.422-2.057-1.028-4.232-1.819-6.525-1.397-3.93-2.149-6.064-2.254-6.408l-8.147-25.865c-.026-.026-.026-.145,0-.356h9.531l7.396,26.895,7.356-26.895h9.492v.356Z"/>
      <path class="cls-1" d="m519.089,799.559h-24.323v-61.897h9.255v53.631h15.068v8.267Z"/>
      <path class="cls-1" d="m550.255,799.559h-25.668v-61.897h25.431v8.187h-16.176v18.075h13.922v8.028h-13.922v19.42h16.413v8.188Z"/>
      <path class="cls-1" d="m582.252,799.559h-25.669v-61.897h25.432v8.187h-16.177v18.075h13.922v8.028h-13.922v19.42h16.414v8.188Z"/>
      <path class="cls-1" d="m635.646,793.902c0,3.771-1.886,5.656-5.656,5.656h-24.719v-61.897h24.561c3.665,0,5.498,1.898,5.498,5.695v15.938c0,2.11-.659,3.744-1.978,4.904-.185.158-1.794,1.174-4.825,3.046,3.138,1.925,4.799,2.979,4.983,3.164,1.424,1.239,2.136,2.94,2.136,5.103v18.391Zm-9.532-33.46v-14.989h-11.588v18.153h7.119l4.469-3.164Zm.237,31.324v-17.64l-4.548-3.006h-7.277v20.646h11.825Z"/>
      <path class="cls-1" d="m668.591,799.559h-25.668v-61.897h25.431v8.187h-16.176v18.075h13.922v8.028h-13.922v19.42h16.413v8.188Z"/>
      <path class="cls-1" d="m699.243,799.559h-24.324v-61.897h9.255v53.631h15.069v8.267Z"/>
      <path class="cls-1" d="m731.635,745.848h-10.204v53.711h-9.215v-53.711h-10.204v-8.187h29.623v8.187Z"/>
      <path class="cls-1" d="m767.548,793.902c0,3.771-1.873,5.656-5.617,5.656h-20.092c-3.665,0-5.497-1.885-5.497-5.656v-50.546c0-3.797,1.832-5.695,5.497-5.695h20.092c3.744,0,5.617,1.898,5.617,5.695v50.546Zm-9.256-2.294v-45.997h-12.695v45.997h12.695Z"/>
      <path class="cls-1" d="m806.347,799.559h-8.108l-14.831-38.958c.395,1.898.593,3.388.593,4.47v34.488h-9.018v-61.897h8.108l14.831,38.167c-.396-1.898-.593-3.389-.593-4.47v-33.697h9.018v61.897Z"/>
      <path class="cls-1" d="m424.603,896.758h-8.899v-30.533c0-1.607.185-3.85.554-6.724l-7.989,31.601h-4.706l-8.029-31.601c.369,2.927.554,5.168.554,6.724v30.533h-8.898v-61.896h8.74l9.729,34.211c.105.369.185,1.305.237,2.809,0-.659.079-1.596.237-2.809l9.729-34.211h8.741v61.896Z"/>
      <path class="cls-1" d="m463.362,896.758h-9.176l-1.859-11.746h-11.588l-1.859,11.746h-9.136v-.158l11.983-61.818h9.729l11.905,61.977Zm-12.34-19.696l-4.509-27.923-4.549,27.923h9.058Z"/>
      <path class="cls-1" d="m499.749,896.758h-10.204l-11.747-27.606v27.606h-9.255v-61.896h9.255v26.182l10.283-26.182h10.125v.435l-12.577,29.386,14.12,32.076Z"/>
      <path class="cls-1" d="m529.135,896.758h-25.668v-61.896h25.431v8.187h-16.176v18.075h13.922v8.028h-13.922v19.419h16.413v8.188Z"/>
      <path class="cls-1" d="m566.827,896.758h-8.108l-14.831-38.957c.396,1.898.593,3.388.593,4.469v34.488h-9.018v-61.896h8.108l14.831,38.166c-.396-1.898-.593-3.388-.593-4.469v-33.697h9.018v61.896Z"/>
      <path class="cls-1" d="m600.524,896.758h-28.438v-4.943l17.323-48.608h-15.938v-8.345h26.974v5.339l-17.284,48.212h17.363v8.346Z"/>
      <path class="cls-1" d="m615.276,896.758h-9.255v-61.896h9.255v61.896Z"/>
      <path class="cls-1" d="m648.539,896.758h-25.669v-61.896h25.432v8.187h-16.177v18.075h13.922v8.028h-13.922v19.419h16.414v8.188Z"/>
      <path class="cls-1" d="m695.881,896.758h-24.323v-61.896h9.255v53.631h15.068v8.266Z"/>
      <path class="cls-1" d="m710.792,896.758h-9.255v-61.896h9.255v61.896Z"/>
      <path class="cls-1" d="m744.054,896.758h-25.669v-61.896h25.431v8.187h-16.176v18.075h13.922v8.028h-13.922v19.419h16.414v8.188Z"/>
      <path class="cls-1" d="m775.654,843.048h-16.018v18.312h13.685v8.029h-13.685v27.369h-9.255v-61.896h25.272v8.187Z"/>
      <path class="cls-1" d="m806.584,896.758h-25.669v-61.896h25.431v8.187h-16.176v18.075h13.922v8.028h-13.922v19.419h16.414v8.188Z"/>
      <path class="cls-1" d="m844.593,896.758h-9.65l-10.205-28.754v-5.576h9.098v-19.617h-11.668v53.947h-9.255v-61.896h24.562c3.717,0,5.576,1.898,5.576,5.695v22.504c0,2.61-.884,4.298-2.65,5.062-.949.396-2.953.594-6.012.594l10.205,28.041Z"/>
      <path class="cls-1" d="m412.855,993.958h-25.668v-61.897h25.431v8.188h-16.176v18.074h13.922v8.029h-13.922v19.42h16.413v8.187Z"/>
      <path class="cls-1" d="m456.599,993.958h-8.898v-30.533c0-1.608.184-3.85.554-6.724l-7.989,31.602h-4.707l-8.028-31.602c.369,2.927.554,5.168.554,6.724v30.533h-8.899v-61.897h8.741l9.729,34.212c.104.37.184,1.306.237,2.808,0-.658.079-1.595.237-2.808l9.729-34.212h8.74v61.897Z"/>
      <path class="cls-1" d="m501.41,993.958h-8.899v-30.533c0-1.608.185-3.85.554-6.724l-7.989,31.602h-4.706l-8.029-31.602c.369,2.927.554,5.168.554,6.724v30.533h-8.898v-61.897h8.74l9.729,34.212c.105.37.185,1.306.237,2.808,0-.658.079-1.595.237-2.808l9.729-34.212h8.741v61.897Z"/>
      <path class="cls-1" d="m540.17,993.958h-9.176l-1.859-11.747h-11.588l-1.859,11.747h-9.136v-.158l11.983-61.817h9.729l11.905,61.976Zm-12.34-19.696l-4.509-27.923-4.549,27.923h9.058Z"/>
      <path class="cls-1" d="m593.722,993.958h-9.65l-10.204-28.753v-5.577h9.097v-19.617h-11.668v53.947h-9.255v-61.897h24.562c3.718,0,5.576,1.898,5.576,5.695v22.505c0,2.61-.884,4.298-2.649,5.062-.949.396-2.953.593-6.012.593l10.204,28.042Z"/>
      <path class="cls-1" d="m630.583,988.303c0,3.771-1.873,5.655-5.616,5.655h-20.092c-3.665,0-5.498-1.885-5.498-5.655v-50.547c0-3.797,1.833-5.695,5.498-5.695h20.092c3.743,0,5.616,1.898,5.616,5.695v50.547Zm-9.255-2.295v-45.997h-12.696v45.997h12.696Z"/>
      <path class="cls-1" d="m669.145,932.417l-8.187,25.866c-1.003,2.558-2.36,6.869-4.074,12.934v22.741h-9.294v-22.741c-.422-2.057-1.028-4.232-1.819-6.526-1.398-3.929-2.149-6.064-2.255-6.407l-8.147-25.866c-.026-.026-.026-.145,0-.356h9.532l7.396,26.895,7.356-26.895h9.492v.356Z"/>
    </g>
    <g id="Paws">
      <g id="Paw-Left">
        <path class="cls-1" d="m282.735,410.028c1.742.471,5.379,3.776,5.379,23.113,0,2.518.078,4.915.153,7.234.387,11.965.054,16.343-5.205,18.475-1.497.607-2.888.915-4.134.915-1.476,0-2.799-.436-4.044-1.331-7.173-5.163-10.951-11.78-10.928-19.136.069-21.384,15.222-29.091,18.778-29.27m28.938.893c2.806,0,6.189,1.778,9.281,4.878,6.317,6.334,10.224,16.528,10.197,26.604-.005,1.841-1.384,8.351-7.442,13.911-1.023.918-4.738,3.224-7.441,3.224-.716,0-1.086-.168-1.302-.294-7.522-4.397-7.817-14.2-7.473-23.864.033-.931.063-1.794.077-2.572.04-2.339.002-4.638-.036-6.862-.084-4.966-.164-9.656.713-12.593.556-1.861,1.086-2.29,2.988-2.417.146-.01.293-.015.44-.015m39.397,43.141c1.162.218,5.119,2.305,9.559,7.946,4.472,5.682,7.137,12.059,7.31,17.498.074,2.328-1.559,12.156-7.578,17.24-1.582,1.336-7.005,3.723-12.182,3.723-1.417,0-2.669-.184-3.721-.545-5.079-1.748-8.364-5.855-9.074-8.214-2.184-7.253-.673-11.711,1.239-17.356l.176-.521c5.056-14.958,12.313-19.304,14.271-19.771m-105.646.961c.437.083,6.351,1.534,15.963,17.97,1.512,2.585,1.759,5.385.756,8.561-2.334,7.39-10.447,13.968-12.341,14.865-1.615.601-3.36.919-5.051.919-2.818,0-4.826-.852-5.689-1.581-5.652-4.774-5.362-13.228-5.266-16.006l.01-.297c.191-5.982,2.071-12.419,5.159-17.662,2.864-4.861,5.603-6.666,6.459-6.77m52.95,24.834c5.856,0,13.815,4.751,15.77,9.414.632,1.507,1.178,3.03,1.706,4.503,3.196,8.91,6.5,18.122,27.725,24.884,3.223,1.027,5.036,3.018,5.878,6.455.827,3.379.57,7.951-.726,12.875-1.909,7.255-8.295,9.658-13.317,10.397-1.435.211-2.87.314-4.388.314-4.343,0-8.751-.876-13.418-1.804-5.475-1.088-11.68-2.322-18.904-2.372h-.39c-6.787-.002-11.399,1.277-15.86,2.513-5.424,1.503-11.033,3.058-22.355,3.058h-.428c-6.708-.024-12.279-4.958-15.284-13.537-2.45-6.991,2.554-17.926,7.923-20.351,13.181-5.954,18.016-12.301,21.216-16.5,1.104-1.45,2.148-3.027,3.254-4.696,4.859-7.34,9.884-14.929,21.409-15.151l.188-.002m-15.519-75.831c-6.299,0-24.818,9.95-24.899,35.253-.027,8.517,3.864,17.144,13.422,24.025,1.671,1.203,4.165,2.462,7.549,2.462,1.857,0,3.983-.379,6.388-1.354,11.531-4.676,8.798-16.767,8.798-31.269,0-10.618-.704-27.226-10.437-29.048-.243-.046-.518-.069-.821-.069h0Zm28.818.896c-.281,0-.56.009-.839.028-11.571.772-9.032,14.303-9.265,27.755-.135,7.793-2.069,24.45,10.368,31.72,1.361.796,2.84,1.114,4.33,1.114,5.07,0,10.278-3.684,11.494-4.8,7.418-6.808,9.381-15.069,9.389-18.319.056-20.291-13.357-37.498-25.477-37.498h0Zm39.325,43.124c-3.588,0-13.64,5.396-19.883,23.866-2.088,6.177-4.292,12.176-1.477,21.528,1.36,4.516,6.233,9.875,12.867,12.157,1.781.613,3.712.872,5.673.872,6.519,0,13.361-2.865,16.054-5.139,8.111-6.851,9.8-18.996,9.703-22.015-.483-15.168-15.357-31.159-22.887-31.269-.017,0-.034,0-.051,0h0Zm-105.558.974c-.025,0-.049,0-.073,0-7.53.11-17.075,15.074-17.558,30.243-.096,3.019-.729,14.226,7.382,21.077,2.191,1.851,5.673,2.997,9.561,2.997,2.326,0,4.798-.41,7.225-1.326,4.133-1.559,23.135-17.436,14.59-32.048-10.039-17.166-17.553-20.944-21.127-20.944h0Zm52.932,24.837c-.101,0-.202,0-.302.003-17.713.341-23.586,14.684-29.32,22.21-2.953,3.877-7.141,9.351-18.913,14.668-8.392,3.791-14.523,18.076-11.116,27.803,3.797,10.837,11.391,17.519,20.926,17.552.151,0,.3,0,.449,0,21.72,0,24.681-5.573,38.214-5.573.115,0,.232,0,.349.001,12.747.089,22.043,4.176,32.362,4.176,1.718,0,3.466-.113,5.26-.377,6.1-.897,15.473-4.263,18.247-14.806,2.742-10.423,2.305-22.93-9.133-26.574-21.77-6.935-21.242-15.312-25.719-25.99-3.028-7.222-13.399-13.094-21.305-13.094h0Z"/>
      </g>
      <g id="Paw-Right">
        <path class="cls-1" d="m917.265,410.028c3.557.179,18.709,7.885,18.778,29.27.024,7.355-3.755,13.973-10.927,19.136-1.245.896-2.567,1.332-4.044,1.332-1.246,0-2.637-.308-4.134-.915-5.259-2.132-5.592-6.51-5.205-18.475.075-2.318.153-4.715.153-7.234,0-19.336,3.637-22.642,5.379-23.113m-28.938.893c.147,0,.294.005.44.015,1.901.127,2.432.556,2.988,2.417.877,2.937.797,7.627.713,12.593-.038,2.224-.077,4.523-.036,6.862.013.778.044,1.641.077,2.572.343,9.664.049,19.467-7.473,23.864-.216.126-.586.294-1.302.294-2.703,0-6.418-2.306-7.437-3.22-6.062-5.564-7.442-12.073-7.447-13.915-.028-10.076,3.879-20.27,10.196-26.604,3.092-3.1,6.475-4.878,9.282-4.878m-39.405,43.139c1.947.457,9.216,4.795,14.278,19.773l.176.521c1.912,5.645,3.423,10.103,1.239,17.356-.71,2.358-3.995,6.466-9.074,8.214-1.052.362-2.304.546-3.722.546-5.177,0-10.6-2.387-12.182-3.723-6.019-5.084-7.652-14.913-7.578-17.24.173-5.439,2.838-11.816,7.31-17.498,4.458-5.663,8.428-7.744,9.552-7.948m105.652.963c.864.108,3.6,1.914,6.46,6.769,3.088,5.242,4.969,11.68,5.159,17.662l.01.297c.095,2.778.385,11.232-5.266,16.006-.863.729-2.871,1.581-5.689,1.581-1.691,0-3.437-.317-5.051-.918-1.893-.896-10.007-7.475-12.341-14.865-1.003-3.176-.756-5.977.756-8.561,9.604-16.422,15.516-17.884,15.962-17.969m-52.947,24.834h0l.187.002c11.524.222,16.549,7.811,21.408,15.151,1.105,1.669,2.149,3.246,3.254,4.696,3.2,4.2,8.035,10.547,21.216,16.5,5.369,2.425,10.372,13.359,7.923,20.351-3.006,8.579-8.577,13.513-15.285,13.536h-.427c-11.324,0-16.933-1.554-22.358-3.057-4.46-1.236-9.071-2.514-15.857-2.514h-.391c-7.222.052-13.428,1.285-18.903,2.374-4.667.928-9.075,1.804-13.418,1.804-1.518,0-2.953-.103-4.387-.314-5.022-.738-11.408-3.142-13.317-10.397-1.296-4.924-1.553-9.497-.726-12.875.842-3.437,2.655-5.428,5.878-6.455,21.225-6.762,24.529-15.974,27.725-24.884.528-1.473,1.074-2.995,1.706-4.503,1.955-4.663,9.915-9.414,15.772-9.414m15.517-75.831c-.303,0-.578.023-.821.069-9.732,1.822-10.437,18.43-10.437,29.048,0,14.502-2.733,26.593,8.798,31.269,2.405.975,4.531,1.354,6.388,1.354,3.385,0,5.878-1.259,7.549-2.462,9.558-6.88,13.45-15.507,13.422-24.025-.082-25.302-18.599-35.253-24.899-35.253h0Zm-28.818.896c-12.121,0-25.533,17.206-25.478,37.498.009,3.25,1.971,11.51,9.39,18.319,1.216,1.116,6.425,4.8,11.494,4.8,1.491,0,2.969-.318,4.33-1.114,12.437-7.27,10.503-23.927,10.368-31.72-.233-13.452,2.306-26.983-9.265-27.755-.278-.019-.559-.028-.839-.028h0Zm-39.325,43.124c-.017,0-.034,0-.051,0-7.53.11-22.404,16.1-22.887,31.269-.096,3.019,1.593,15.164,9.703,22.015,2.692,2.274,9.535,5.139,16.054,5.139,1.962,0,3.892-.259,5.673-.872,6.635-2.283,11.508-7.642,12.867-12.157,2.816-9.351.611-15.351-1.477-21.528-6.242-18.469-16.294-23.866-19.883-23.866h0Zm105.558.974c-3.573,0-11.087,3.777-21.127,20.944-8.545,14.612,10.457,30.49,14.59,32.048,2.427.915,4.899,1.326,7.225,1.326,3.888,0,7.37-1.146,9.561-2.997,8.111-6.851,7.478-18.058,7.381-21.077-.483-15.168-10.028-30.133-17.558-30.243-.024,0-.048,0-.073,0h0Zm-52.932,24.837c-7.905,0-18.277,5.872-21.305,13.094-4.477,10.677-3.949,19.055-25.719,25.99-11.439,3.644-11.876,16.151-9.133,26.574,2.774,10.543,12.146,13.909,18.246,14.806,1.796.264,3.542.377,5.26.377,10.318,0,19.616-4.087,32.362-4.176.117,0,.233-.001.349-.001,13.532,0,16.492,5.573,38.214,5.573.148,0,.299,0,.449,0,9.535-.033,17.129-6.715,20.926-17.552,3.408-9.727-2.723-24.012-11.115-27.803-11.772-5.317-15.96-10.792-18.913-14.668-5.734-7.526-11.606-21.869-29.32-22.21-.1-.002-.201-.003-.302-.003h0Z"/>
      </g>
    </g>
    <g id="_2023" data-name=" 2023">
      <path class="cls-2" d="m501.569,447.264c0,4.795-1.652,10.105-4.956,15.936l-41.782,72.973h46.543v19.919h-73.75v-14.089l51.499-90.561v-28.082h-27.693v28.276h-22.251v-33.814c0-9.198,4.631-13.798,13.895-13.798h44.6c9.263,0,13.895,4.6,13.895,13.798v29.442Z"/>
      <path class="cls-2" d="m592.518,542.197c0,9.265-4.567,13.895-13.701,13.895h-47.418c-9.005,0-13.506-4.63-13.506-13.895v-124.181c0-9.328,4.599-13.992,13.798-13.992h47.126c9.134,0,13.701,4.664,13.701,13.992v124.181Zm-22.251-5.636v-113.006h-30.025v113.006h30.025Z"/>
      <path class="cls-2" d="m682.204,447.264c0,4.795-1.652,10.105-4.956,15.936l-41.782,72.973h46.543v19.919h-73.75v-14.089l51.499-90.561v-28.082h-27.693v28.276h-22.251v-33.814c0-9.198,4.63-13.798,13.895-13.798h44.6c9.263,0,13.895,4.6,13.895,13.798v29.442Z"/>
      <path class="cls-2" d="m772.376,542.197c0,9.265-4.567,13.895-13.701,13.895h-46.641c-9.005,0-13.506-4.63-13.506-13.895v-35.078h22.349v29.442h29.248v-38.187l-27.887-19.142v-4.761l27.887-18.851v-32.065h-29.248v27.693h-22.349v-33.231c0-9.328,4.599-13.992,13.798-13.992h46.349c9.134,0,13.701,4.664,13.701,13.992v35.758c0,6.024-2.526,10.688-7.579,13.992l-14.089,9.134,14.284,8.939c4.922,3.046,7.385,7.612,7.385,13.701v42.657Z"/>
    </g>
    <g id="Girls-State">
      <g>
        <g>
          <path class="cls-1" d="m199.916,321.397c-7.295,0-14.098-1.817-20.217-5.401-6.032-3.619-10.918-8.505-14.532-14.528-3.589-6.129-5.406-12.931-5.406-20.227v-15.379l-6.692-6.75,6.692-6.75v-23.382c0-7.315,1.818-14.1,5.403-20.167,3.616-6.082,8.505-10.971,14.532-14.532,6.088-3.62,12.893-5.457,20.221-5.457,10.727,0,20.821,4.186,28.422,11.787,7.567,7.625,11.733,17.698,11.733,28.368v4.169h-28.104v-4.169c0-3.289-1.185-6.142-3.521-8.478-2.405-2.405-5.196-3.574-8.531-3.574s-6.207,1.2-8.524,3.567c-2.343,2.343-3.528,5.196-3.528,8.485v23.382l6.692,6.75-6.692,6.75v15.379c0,3.321,1.154,6.114,3.528,8.539,2.329,2.329,5.199,3.513,8.524,3.513s6.195-1.185,8.531-3.521c2.367-2.417,3.521-5.21,3.521-8.531v-2.491h-6.123v-22.034h34.227v24.525c0,7.328-1.836,14.132-5.458,20.223-3.56,6.024-8.448,10.913-14.528,14.528-6.069,3.586-12.854,5.404-20.169,5.404Z"/>
          <path class="cls-4" d="m199.916,189.826c10.796,0,20.571,4.351,27.715,11.494,7.09,7.144,11.44,16.865,11.44,27.661v3.169h-26.104v-3.169c0-3.599-1.289-6.66-3.813-9.185-2.578-2.578-5.64-3.867-9.238-3.867s-6.714,1.289-9.238,3.867c-2.524,2.524-3.813,5.586-3.813,9.185v23.794l6.284,6.338-6.284,6.338v15.791c0,3.599,1.289,6.66,3.813,9.238,2.524,2.524,5.64,3.813,9.238,3.813s6.714-1.289,9.238-3.813c2.524-2.578,3.813-5.64,3.813-9.238v-3.491h-6.123v-20.034h32.227v23.525c0,7.197-1.772,13.75-5.317,19.712-3.491,5.908-8.218,10.635-14.18,14.18-5.908,3.491-12.461,5.264-19.658,5.264s-13.75-1.772-19.712-5.264c-5.908-3.545-10.635-8.271-14.18-14.18-3.491-5.962-5.264-12.515-5.264-19.712v-15.791l-6.284-6.338,6.284-6.338v-23.794c0-7.197,1.772-13.75,5.264-19.658,3.545-5.962,8.271-10.688,14.18-14.18,5.962-3.545,12.515-5.317,19.712-5.317m0-2c-7.511,0-14.487,1.884-20.734,5.598-6.168,3.645-11.175,8.651-14.877,14.877-3.68,6.228-5.545,13.184-5.545,20.68v22.97l-5.704,5.753-1.396,1.408,1.396,1.408,5.704,5.753v14.968c0,7.475,1.863,14.447,5.538,20.723,3.71,6.183,8.711,11.185,14.877,14.884,6.293,3.686,13.266,5.549,20.741,5.549s14.453-1.865,20.676-5.542c6.23-3.704,11.237-8.711,14.884-14.884,3.712-6.243,5.596-13.219,5.596-20.729v-25.525h-36.227v24.034h6.123v1.491c0,3.047-1.061,5.611-3.242,7.839-2.127,2.127-4.759,3.213-7.809,3.213s-5.682-1.086-7.824-3.228c-2.167-2.213-3.228-4.778-3.228-7.824v-14.968l5.704-5.753,1.396-1.408-1.396-1.408-5.704-5.753v-22.97c0-3.057,1.056-5.598,3.228-7.77,2.137-2.182,4.765-3.281,7.824-3.281s5.616,1.073,7.824,3.281c2.172,2.172,3.228,4.714,3.228,7.77v5.169h30.104v-5.169c0-10.936-4.269-21.26-12.021-29.07-7.795-7.795-18.14-12.085-29.134-12.085h0Z"/>
        </g>
        <g>
          <polygon class="cls-1" points="253.804 318.819 253.804 265.541 247.435 259.113 253.804 252.686 253.804 191.404 280.887 191.404 280.887 252.847 287.096 259.113 280.887 265.379 280.887 318.819 253.804 318.819"/>
          <path class="cls-4" d="m279.887,192.404v60.854l5.801,5.854-5.801,5.854v52.852h-25.083v-52.69l-5.962-6.016,5.962-6.016v-60.693h25.083m2-2h-29.083v61.87l-5.382,5.431-1.395,1.408,1.395,1.408,5.382,5.431v53.867h29.083v-54.029l5.221-5.27,1.395-1.408-1.395-1.408-5.221-5.27v-62.031h0Z"/>
        </g>
        <g>
          <path class="cls-1" d="m351.125,318.819l-20.088-50.166h-3.318v50.166h-27.083v-53.064l-6.585-6.642,6.585-6.642v-61.067l42.841-.002c9.114,0,17.765,3.674,24.359,10.345,6.586,6.664,10.155,15.348,10.049,24.453v4.876c0,7.331-2.022,14.234-6.01,20.517-3.822,6.02-8.842,10.626-14.933,13.704l21.42,53.523h-27.237Zm-10.065-77.249c1.532,0,2.962-.544,4.374-1.664,1.618-1.264,2.912-2.929,3.85-4.954,1.024-2.101,1.519-4.031,1.519-5.917v-1.396c0-2.504-.888-4.609-2.715-6.437-1.827-1.827-3.932-2.715-6.437-2.715h-13.932v23.083h13.341Z"/>
          <path class="cls-4" d="m343.477,192.402c18.259-.001,33.621,15.488,33.408,33.786v4.888c0,7.144-1.934,13.804-5.854,19.98s-9.023,10.742-15.361,13.75l21.216,53.013h-25.083l-20.088-50.166h-4.995v50.166h-25.083v-52.476l-6.177-6.23,6.177-6.23v-60.479h41.465c.125-.001.252-.002.377-.002m-16.758,50.168h14.341c1.772,0,3.438-.645,4.995-1.88,1.719-1.343,3.115-3.115,4.136-5.317,1.074-2.202,1.611-4.297,1.611-6.338v-1.396c0-2.793-1.021-5.156-3.008-7.144s-4.351-3.008-7.144-3.008h-14.932v25.083m16.761-52.168v2-2h-.003l-.4.002h-41.441s-2,0-2,0v61.655l-5.597,5.646-1.396,1.408,1.396,1.408,5.597,5.646v53.652h29.083v-50.166h1.642l19.585,48.909.503,1.257h29.391l-1.098-2.743-20.535-51.311c5.888-3.152,10.763-7.732,14.512-13.637,4.091-6.445,6.166-13.528,6.166-21.052v-4.888c.109-9.351-3.562-18.29-10.338-25.145-6.783-6.862-15.685-10.641-25.067-10.641h0Zm-14.761,29.085h12.932c2.225,0,4.1.792,5.729,2.422,1.63,1.63,2.422,3.504,2.422,5.729v1.396c0,1.731-.461,3.518-1.409,5.461-.888,1.915-2.083,3.457-3.569,4.618-1.239.983-2.466,1.456-3.764,1.456h-12.341v-21.083h0Z"/>
        </g>
        <g>
          <polygon class="cls-1" points="391.779 318.819 391.779 265.65 385.242 259.113 391.779 252.576 391.779 191.404 418.862 191.404 418.862 252.417 425.501 259.113 418.862 265.809 418.862 291.736 462.261 291.736 462.261 318.819 391.779 318.819"/>
          <path class="cls-4" d="m417.862,192.404v60.425l6.23,6.284-6.23,6.284v27.339h43.398v25.083h-68.481v-52.583l-6.123-6.123,6.123-6.123v-60.586h25.083m2-2h-29.083v61.757l-5.537,5.537-1.414,1.414,1.414,1.414,5.537,5.537v53.755h72.481v-29.083h-43.398v-24.516l5.651-5.699,1.396-1.408-1.396-1.408-5.651-5.699v-61.601h0Z"/>
        </g>
        <g>
          <path class="cls-1" d="m511.912,320.811c-1.429,0-2.894-.076-4.351-.225-7.424-.704-14.278-3.334-20.364-7.816-5.928-4.61-10.317-10.481-13.067-17.465-2.755-7.054-3.515-14.371-2.257-21.75l.142-.832h.844c8.422,0,17.131,0,25.667-.054l1.095-.007-.092,1.091c-.357,4.236-.44,8.688,1.36,12.545,1.654,3.062,4.177,5.045,7.685,6.011,1.146.312,2.287.47,3.386.47,2.179,0,4.318-.627,6.357-1.864,2.78-2.054,4.454-4.897,4.897-8.402.454-3.581-.43-6.759-2.628-9.446-1.959-1.953-4.294-3.544-6.873-4.656-1.521-.729-2.832-1.326-4.036-1.838l-34.423-6.896,6.908-7.024c-1.42-1.177-2.756-2.538-4.061-4.132-4.835-6.279-7.109-13.204-6.778-20.605.383-7.382,2.659-14.341,6.766-20.693,4.155-6.396,9.618-11.303,16.24-14.586,5.445-2.506,11.196-3.771,17.119-3.771.808,0,1.631.023,2.449.069,6.766.379,13.175,2.398,19.051,6,5.713,3.646,10.291,8.556,13.62,14.604,3.307,6.007,5.011,12.491,5.065,19.273l.008,1.008h-27.985l-.02-.98c-.049-2.534-.851-4.87-2.383-6.945-1.534-2.147-3.448-3.592-5.861-4.429-1.206-.394-2.463-.596-3.718-.596-1.207,0-2.441.187-3.669.556-2.423.742-4.464,2.13-6.06,4.125-2.04,2.94-2.759,6.125-2.158,9.683.244,1.512.84,3.01,1.726,4.338,1.61,2.436,4.06,4.402,7.946,6.377,4.13,2.008,7.997,3.645,11.806,4.998,2.755,1.026,5.481,2.117,8.116,3.246.973.432,1.967.874,2.954,1.367l23.131,7.026-7.172,7.232c2.445,4.872,3.604,10.14,3.446,15.668-.219,7.489-2.386,14.509-6.44,20.866-4.1,6.371-9.564,11.279-16.244,14.592-5.449,2.57-11.21,3.868-17.142,3.868Z"/>
          <path class="cls-4" d="m511.447,189.866c.793,0,1.59.023,2.393.068,6.714.376,12.891,2.363,18.584,5.854,5.64,3.599,10.044,8.379,13.267,14.233s4.888,12.139,4.941,18.799h-25.996c-.054-2.739-.913-5.264-2.578-7.52-1.611-2.256-3.706-3.867-6.338-4.78-1.337-.437-2.688-.651-4.046-.651-1.315,0-2.636.201-3.957.598-2.632.806-4.834,2.31-6.553,4.458-2.202,3.169-3.008,6.66-2.363,10.474.269,1.665.913,3.276,1.88,4.727,1.987,3.008,5.049,5.049,8.325,6.714,3.867,1.88,7.842,3.599,11.924,5.049,2.739,1.021,5.425,2.095,8.057,3.223.967.43,1.934.859,2.9,1.343h-.054l21.753,6.606-6.499,6.553-.054-.054c2.632,4.941,3.867,10.259,3.706,15.898-.215,7.358-2.31,14.126-6.284,20.356-3.975,6.177-9.238,10.957-15.845,14.233-5.322,2.509-10.888,3.764-16.698,3.764-1.402,0-2.819-.073-4.25-.219-7.358-.698-13.965-3.276-19.873-7.627-5.801-4.512-10.044-10.205-12.729-17.026-2.686-6.875-3.438-13.965-2.202-21.216,8.54,0,17.134,0,25.674-.054-.376,4.458-.43,9.023,1.45,13.052,1.826,3.384,4.619,5.532,8.325,6.553,1.246.338,2.462.505,3.651.505,2.399,0,4.685-.68,6.876-2.009,3.062-2.256,4.888-5.317,5.371-9.131s-.43-7.251-2.847-10.205c-2.095-2.095-4.512-3.76-7.251-4.941-1.343-.645-2.739-1.289-4.136-1.88l-32.71-6.553,6.392-6.499c-1.772-1.343-3.33-2.9-4.78-4.673-4.673-6.069-6.875-12.729-6.553-19.927.376-7.251,2.578-13.965,6.606-20.195,4.082-6.284,9.346-11.011,15.845-14.233,5.338-2.456,10.885-3.667,16.675-3.667m0-2c-6.068,0-11.96,1.295-17.511,3.85l-.026.012-.026.013c-6.785,3.365-12.381,8.39-16.633,14.936-4.205,6.504-6.535,13.629-6.927,21.181-.343,7.657,2.001,14.802,6.965,21.25l.018.023.019.023c1.092,1.334,2.207,2.511,3.374,3.558l-4.863,4.945-2.593,2.637,3.626.726,32.509,6.513c1.164.496,2.43,1.074,3.864,1.762l.036.017.037.016c2.432,1.049,4.637,2.545,6.557,4.448,2,2.482,2.768,5.3,2.348,8.611-.405,3.193-1.919,5.789-4.501,7.719-1.882,1.125-3.767,1.673-5.762,1.673-1.01,0-2.063-.146-3.127-.435-3.204-.882-5.517-2.689-7.061-5.521-1.675-3.633-1.589-7.906-1.245-11.985l.184-2.182-2.19.014c-8.534.054-17.241.054-25.661.054h-1.688l-.284,1.664c-1.288,7.561-.511,15.057,2.311,22.279,2.818,7.158,7.314,13.172,13.365,17.877l.021.016.021.016c6.235,4.591,13.256,7.285,20.87,8.008,1.477.151,2.975.228,4.439.228,6.08,0,11.985-1.331,17.55-3.955,6.88-3.411,12.477-8.439,16.674-14.96,4.158-6.518,6.377-13.709,6.601-21.38.156-5.454-.932-10.66-3.235-15.499l5.503-5.548,2.338-2.357-3.177-.965-21.455-6.516c-.984-.49-1.965-.925-2.913-1.347-2.674-1.146-5.415-2.242-8.171-3.269-3.802-1.351-7.635-2.974-11.748-4.973-3.692-1.877-6.024-3.737-7.531-6.018-.811-1.217-1.354-2.578-1.574-3.943-.554-3.28.098-6.206,1.993-8.958,1.462-1.807,3.323-3.066,5.534-3.743,1.125-.337,2.263-.51,3.371-.51,1.15,0,2.302.186,3.425.553,2.176.755,3.931,2.081,5.331,4.042,1.424,1.93,2.16,4.074,2.206,6.396l.038,1.961h29.974l-.016-2.016c-.056-6.95-1.802-13.594-5.189-19.747-3.411-6.196-8.102-11.228-13.943-14.955-6.048-3.709-12.615-5.777-19.548-6.165-.836-.047-1.679-.071-2.504-.071h0Z"/>
        </g>
        <g>
          <path class="cls-1" d="m660.627,320.811c-1.43,0-2.894-.076-4.352-.225-7.424-.704-14.277-3.334-20.364-7.816-5.928-4.61-10.317-10.481-13.067-17.465-2.755-7.054-3.515-14.371-2.257-21.75l.142-.832h.844c8.422,0,17.131,0,25.668-.054l1.095-.007-.093,1.091c-.356,4.236-.439,8.688,1.36,12.545,1.654,3.062,4.177,5.045,7.685,6.011,1.146.312,2.286.47,3.386.47,2.179,0,4.318-.627,6.357-1.864,2.78-2.054,4.453-4.897,4.897-8.402.454-3.581-.431-6.759-2.629-9.446-1.959-1.953-4.294-3.544-6.873-4.656-1.521-.729-2.831-1.326-4.036-1.838l-34.423-6.896,6.908-7.024c-1.421-1.177-2.757-2.538-4.062-4.132-4.835-6.279-7.108-13.204-6.777-20.605.383-7.382,2.659-14.341,6.766-20.693,4.154-6.396,9.618-11.303,16.24-14.586,5.445-2.506,11.196-3.771,17.119-3.771.808,0,1.631.023,2.449.069,6.766.379,13.175,2.398,19.05,6,5.714,3.646,10.291,8.556,13.62,14.604,3.307,6.007,5.011,12.491,5.065,19.273l.008,1.008h-27.984l-.02-.98c-.05-2.534-.852-4.87-2.383-6.945-1.534-2.147-3.448-3.592-5.861-4.429-1.206-.394-2.463-.596-3.718-.596-1.206,0-2.441.187-3.67.556-2.423.742-4.463,2.13-6.059,4.125-2.041,2.94-2.76,6.125-2.158,9.683.244,1.512.84,3.01,1.726,4.338,1.609,2.436,4.06,4.402,7.946,6.377,4.13,2.008,7.997,3.645,11.806,4.998,2.756,1.026,5.481,2.117,8.115,3.246.974.432,1.967.874,2.954,1.367l23.131,7.026-7.172,7.232c2.444,4.872,3.604,10.14,3.446,15.668-.219,7.489-2.386,14.509-6.441,20.866-4.099,6.371-9.563,11.279-16.243,14.592-5.449,2.57-11.211,3.868-17.142,3.868Z"/>
          <path class="cls-4" d="m660.161,189.866c.793,0,1.59.023,2.393.068,6.714.376,12.891,2.363,18.584,5.854,5.64,3.599,10.044,8.379,13.267,14.233s4.888,12.139,4.941,18.799h-25.996c-.054-2.739-.913-5.264-2.578-7.52-1.611-2.256-3.706-3.867-6.338-4.78-1.337-.437-2.688-.651-4.046-.651-1.315,0-2.636.201-3.957.598-2.632.806-4.834,2.31-6.553,4.458-2.202,3.169-3.008,6.66-2.363,10.474.269,1.665.913,3.276,1.88,4.727,1.987,3.008,5.049,5.049,8.325,6.714,3.867,1.88,7.842,3.599,11.924,5.049,2.739,1.021,5.425,2.095,8.057,3.223.967.43,1.934.859,2.9,1.343h-.054l21.753,6.606-6.499,6.553-.054-.054c2.632,4.941,3.867,10.259,3.706,15.898-.215,7.358-2.31,14.126-6.284,20.356-3.975,6.177-9.238,10.957-15.845,14.233-5.322,2.509-10.888,3.764-16.698,3.764-1.402,0-2.819-.073-4.25-.219-7.358-.698-13.965-3.276-19.873-7.627-5.801-4.512-10.044-10.205-12.729-17.026-2.686-6.875-3.438-13.965-2.202-21.216,8.54,0,17.134,0,25.674-.054-.376,4.458-.43,9.023,1.45,13.052,1.826,3.384,4.619,5.532,8.325,6.553,1.246.338,2.462.505,3.651.505,2.399,0,4.685-.68,6.876-2.009,3.062-2.256,4.888-5.317,5.371-9.131s-.43-7.251-2.847-10.205c-2.095-2.095-4.512-3.76-7.251-4.941-1.343-.645-2.739-1.289-4.136-1.88l-32.71-6.553,6.392-6.499c-1.772-1.343-3.33-2.9-4.78-4.673-4.673-6.069-6.875-12.729-6.553-19.927.376-7.251,2.578-13.965,6.606-20.195,4.082-6.284,9.346-11.011,15.845-14.233,5.338-2.456,10.885-3.667,16.675-3.667m0-2c-6.068,0-11.96,1.295-17.511,3.85l-.026.012-.026.013c-6.785,3.365-12.381,8.39-16.633,14.936-4.205,6.504-6.535,13.629-6.927,21.181-.343,7.657,2.001,14.802,6.965,21.25l.018.023.019.023c1.092,1.334,2.207,2.511,3.374,3.558l-4.863,4.945-2.593,2.637,3.626.726,32.509,6.513c1.164.496,2.43,1.074,3.864,1.762l.036.017.037.016c2.432,1.049,4.637,2.545,6.557,4.448,2,2.482,2.768,5.3,2.348,8.611-.405,3.193-1.919,5.789-4.501,7.719-1.882,1.125-3.767,1.673-5.762,1.673-1.01,0-2.063-.146-3.127-.435-3.204-.882-5.517-2.689-7.061-5.521-1.675-3.633-1.589-7.906-1.245-11.985l.184-2.182-2.19.014c-8.534.054-17.241.054-25.661.054h-1.688l-.284,1.664c-1.288,7.561-.511,15.057,2.311,22.279,2.818,7.158,7.314,13.172,13.365,17.877l.021.016.021.016c6.235,4.591,13.256,7.285,20.87,8.008,1.477.151,2.975.228,4.439.228,6.08,0,11.985-1.331,17.55-3.955,6.88-3.411,12.477-8.439,16.674-14.96,4.158-6.518,6.377-13.709,6.601-21.38.156-5.454-.932-10.66-3.235-15.499l5.503-5.548,2.338-2.357-3.177-.965-21.455-6.516c-.984-.49-1.965-.925-2.913-1.347-2.674-1.146-5.415-2.242-8.171-3.269-3.802-1.351-7.635-2.974-11.748-4.973-3.692-1.877-6.024-3.737-7.531-6.018-.811-1.217-1.354-2.578-1.574-3.943-.554-3.28.098-6.206,1.993-8.958,1.462-1.807,3.323-3.066,5.534-3.743,1.125-.337,2.263-.51,3.371-.51,1.15,0,2.302.186,3.425.553,2.176.755,3.931,2.081,5.331,4.042,1.424,1.93,2.16,4.074,2.206,6.396l.038,1.961h29.974l-.016-2.016c-.056-6.95-1.802-13.594-5.189-19.747-3.411-6.196-8.102-11.228-13.943-14.955-6.048-3.709-12.615-5.777-19.548-6.165-.836-.047-1.679-.071-2.504-.071h0Z"/>
        </g>
        <g>
          <polygon class="cls-1" points="734.248 318.819 734.248 265.863 727.556 259.113 734.248 252.364 734.248 218.487 706.372 218.487 706.372 191.404 789.207 191.404 789.207 218.487 761.331 218.487 761.331 252.471 767.916 259.113 761.331 265.755 761.331 318.819 734.248 318.819"/>
          <path class="cls-4" d="m788.207,192.404v25.083h-27.876v35.396l6.177,6.23-6.177,6.23v52.476h-25.083v-52.368l-6.284-6.338,6.284-6.338v-35.288h-27.876v-25.083h80.835m2-2h-84.835v29.083h27.876v32.465l-5.704,5.753-1.396,1.408,1.396,1.408,5.704,5.753v53.545h29.083v-53.652l5.597-5.646,1.396-1.408-1.396-1.408-5.597-5.646v-32.572h27.876v-29.083h0Z"/>
        </g>
        <g>
          <path class="cls-1" d="m852.312,318.819l-5.64-25.352h-32.61l-5.64,25.352h-27.179l14.524-55.756-3.892-3.949,6.733-6.85,15.865-60.86h31.73l16.025,61.342,6.307,6.365-3.678,3.737,14.632,55.972h-27.18Zm-10.519-47.063l-11.451-46.481-11.402,46.481h22.854Z"/>
          <path class="cls-4" d="m845.433,192.404l15.898,60.854,5.801,5.854-3.384,3.438,14.448,55.269h-25.083l-5.64-25.352h-34.214l-5.64,25.352h-25.083l14.341-55.054-3.599-3.652,6.23-6.338,15.737-60.371h30.186m-27.769,80.352h25.405l-12.729-51.67-12.676,51.67m29.313-82.352h-33.276l-.39,1.495-15.603,59.854-5.856,5.957-1.38,1.404,1.382,1.402,2.802,2.843-14.055,53.955-.652,2.504h29.275l.348-1.566,5.291-23.786h31.006l5.291,23.786.348,1.566h29.277l-.655-2.506-14.161-54.169,2.587-2.628,1.386-1.408-1.39-1.403-5.422-5.473-15.763-60.334-.39-1.495h0Zm-26.763,80.352l10.13-41.292,10.173,41.292h-20.303Z"/>
        </g>
        <g>
          <polygon class="cls-1" points="899.403 318.819 899.403 265.863 892.711 259.113 899.403 252.364 899.403 218.487 871.527 218.487 871.527 191.404 954.362 191.404 954.362 218.487 926.486 218.487 926.486 252.471 933.071 259.113 926.486 265.755 926.486 318.819 899.403 318.819"/>
          <path class="cls-4" d="m953.362,192.404v25.083h-27.876v35.396l6.177,6.23-6.177,6.23v52.476h-25.083v-52.368l-6.284-6.338,6.284-6.338v-35.288h-27.876v-25.083h80.835m2-2h-84.835v29.083h27.876v32.465l-5.704,5.753-1.396,1.408,1.396,1.408,5.704,5.753v53.545h29.083v-53.652l5.597-5.646,1.396-1.408-1.396-1.408-5.597-5.646v-32.572h27.876v-29.083h0Z"/>
        </g>
        <g>
          <polygon class="cls-1" points="967.317 318.819 967.317 265.863 960.625 259.113 967.317 252.364 967.317 191.404 1037.853 191.404 1037.853 218.487 994.4 218.487 994.4 241.57 1027.164 241.57 1027.164 268.653 994.4 268.653 994.4 291.736 1037.853 291.736 1037.853 318.819 967.317 318.819"/>
          <path class="cls-4" d="m1036.853,192.404v25.083h-43.452v25.083h32.764v25.083h-32.764v25.083h43.452v25.083h-68.535v-52.368l-6.284-6.338,6.284-6.338v-60.371h68.535m2-2h-72.535v61.548l-5.704,5.753-1.396,1.408,1.396,1.408,5.704,5.753v53.545h72.535v-29.083h-43.452v-21.083h32.764v-29.083h-32.764v-21.083h43.452v-29.083h0Z"/>
        </g>
      </g>
    </g>
  </g>
</svg>