<?xml version="1.0" encoding="UTF-8"?>
<svg id="Layer_1" data-name="Layer 1" xmlns="http://www.w3.org/2000/svg" viewBox="0 0 1200 1200">
  <defs>
    <style>
      .cls-1 {
        fill: #fff;
      }

      .cls-2 {
        fill: #828792;
      }

      .cls-3 {
        fill: #a5dce8;
      }

      .cls-4 {
        fill: #bcbec0;
      }

      .cls-5 {
        fill: none;
        opacity: 0;
      }
    </style>
  </defs>
  <rect id="Background" class="cls-5" width="1200" height="1200"/>
  <g id="Name_List" data-name="Name List">
    <g>
      <path class="cls-4" d="m345.72935,445.56615c0,2.69531-.80127,4.80957-2.40234,6.34277-1.60156,1.53369-3.76025,2.2998-6.47461,2.2998h-13.97461v-45.84961h13.97461c2.71436,0,4.87305.77637,6.47461,2.3291,1.60107,1.55273,2.40234,3.67676,2.40234,6.37207v28.50586Zm-6.88477-1.14258v-26.33789c0-2.55859-1.33789-3.83789-4.01367-3.83789h-5.09766v34.07227h4.92188c2.79297,0,4.18945-1.29883,4.18945-3.89648Z"/>
      <path class="cls-4" d="m374.2645,454.20872h-6.79688l-1.37695-8.70117h-8.58398l-1.37695,8.70117h-6.76758v-.11719l8.87695-45.79102h7.20703l8.81836,45.9082Zm-9.14062-14.58984l-3.33984-20.68359-3.36914,20.68359h6.70898Z"/>
      <path class="cls-4" d="m400.95396,454.20872h-7.41211l-5.03906-16.14258-5.06836,16.14258h-7.29492v-.23438l8.55469-23.23242c-5.37158-14.84326-8.04688-22.30469-8.02734-22.38281h7.32422l4.57031,14.94141,4.59961-14.94141h7.26562v.26367l-8.02734,21.94336,8.55469,23.64258Z"/>
      <path class="cls-4" d="m434.87974,454.20872h-18.01758v-45.84961h6.85547v39.72656h11.16211v6.12305Z"/>
      <path class="cls-4" d="m445.92466,454.20872h-6.85547v-45.84961h6.85547v45.84961Z"/>
      <path class="cls-4" d="m469.56724,454.20872h-18.01758v-45.84961h6.85547v39.72656h11.16211v6.12305Z"/>
      <path class="cls-4" d="m491.65708,454.20872h-18.01758v-45.84961h6.85547v39.72656h11.16211v6.12305Z"/>
      <path class="cls-4" d="m502.702,454.20872h-6.85547v-45.84961h6.85547v45.84961Z"/>
      <path class="cls-4" d="m530.29966,450.01927c0,2.79346-1.38721,4.18945-4.16016,4.18945h-13.79883c-2.75391,0-4.13086-1.396-4.13086-4.18945v-10.92773h6.85547v9.3457h8.37891v-8.99414l-13.74023-13.00781c-.99609-.95654-1.49414-2.17773-1.49414-3.66211v-10.19531c0-2.8125,1.37695-4.21875,4.13086-4.21875h13.79883c2.77295,0,4.16016,1.38721,4.16016,4.16016v10.25391h-6.85547v-8.64258h-8.37891v8.29102l13.74023,12.94922c.99609.9375,1.49414,2.17822,1.49414,3.7207v10.92773Z"/>
      <path class="cls-4" d="m850.22739,445.56615h-3.48633v8.64258h-6.5332v-8.64258h-15.05859v-4.07227l11.39648-33.13477h6.97266v.26367l-10.69336,31.11328h7.38281v-13.79883h6.5332v13.79883h3.48633v5.83008Z"/>
      <path class="cls-4" d="m876.68247,450.01927c0,2.79346-1.37695,4.18945-4.13086,4.18945h-14.29688c-2.71484,0-4.07227-1.396-4.07227-4.18945v-37.44141c0-2.8125,1.38672-4.21875,4.16016-4.21875h14.20898c2.75391,0,4.13086,1.40625,4.13086,4.21875v37.44141Zm-6.70898-1.69922v-34.07227h-9.05273v34.07227h9.05273Z"/>
      <path class="cls-4" d="m343.47349,512.01927c0,2.79346-1.40625,4.18945-4.21875,4.18945h-13.00781c-2.75391,0-4.13086-1.396-4.13086-4.18945v-11.2793h6.82617v9.58008h7.67578v-39.96094h6.85547v41.66016Z"/>
      <path class="cls-4" d="m372.15513,516.20872h-6.79688l-1.37695-8.70117h-8.58398l-1.37695,8.70117h-6.76758v-.11719l8.87695-45.79102h7.20703l8.81836,45.9082Zm-9.14062-14.58984l-3.33984-20.68359-3.36914,20.68359h6.70898Z"/>
      <path class="cls-4" d="m397.96567,512.01927c0,2.79346-1.38721,4.18945-4.16016,4.18945h-13.79883c-2.75391,0-4.13086-1.396-4.13086-4.18945v-10.92773h6.85547v9.3457h8.37891v-8.99414l-13.74023-13.00781c-.99609-.95654-1.49414-2.17773-1.49414-3.66211v-10.19531c0-2.8125,1.37695-4.21875,4.13086-4.21875h13.79883c2.77295,0,4.16016,1.38721,4.16016,4.16016v10.25391h-6.85547v-8.64258h-8.37891v8.29102l13.74023,12.94922c.99609.9375,1.49414,2.17822,1.49414,3.7207v10.92773Z"/>
      <path class="cls-4" d="m422.42857,516.20872h-19.01367v-45.84961h18.83789v6.06445h-11.98242v13.38867h10.3125v5.94727h-10.3125v14.38477h12.1582v6.06445Z"/>
      <path class="cls-4" d="m461.97935,512.01927c0,2.79346-1.39648,4.18945-4.18945,4.18945h-18.31055v-45.84961h18.19336c2.71436,0,4.07227,1.40625,4.07227,4.21875v11.80664c0,1.56299-.48828,2.77344-1.46484,3.63281-.13672.11719-1.32861.86914-3.57422,2.25586,2.32422,1.42578,3.55469,2.20752,3.69141,2.34375,1.05469.91846,1.58203,2.17822,1.58203,3.7793v13.62305Zm-7.06055-24.78516v-11.10352h-8.58398v13.44727h5.27344l3.31055-2.34375Zm.17578,23.20312v-13.06641l-3.36914-2.22656h-5.39062v15.29297h8.75977Z"/>
      <path class="cls-4" d="m486.38364,516.20872h-19.01367v-45.84961h18.83789v6.06445h-11.98242v13.38867h10.3125v5.94727h-10.3125v14.38477h12.1582v6.06445Z"/>
      <path class="cls-4" d="m509.08872,516.20872h-18.01758v-45.84961h6.85547v39.72656h11.16211v6.12305Z"/>
      <path class="cls-4" d="m533.08286,476.42357h-7.55859v39.78516h-6.82617v-39.78516h-7.55859v-6.06445h21.94336v6.06445Z"/>
      <path class="cls-4" d="m559.68442,512.01927c0,2.79346-1.38721,4.18945-4.16016,4.18945h-14.88281c-2.71484,0-4.07227-1.396-4.07227-4.18945v-37.44141c0-2.8125,1.35742-4.21875,4.07227-4.21875h14.88281c2.77295,0,4.16016,1.40625,4.16016,4.21875v37.44141Zm-6.85547-1.69922v-34.07227h-9.4043v34.07227h9.4043Z"/>
      <path class="cls-4" d="m588.42466,516.20872h-6.00586l-10.98633-28.85742c.29297,1.40625.43945,2.50977.43945,3.31055v25.54688h-6.67969v-45.84961h6.00586l10.98633,28.27148c-.29297-1.40625-.43945-2.50928-.43945-3.31055v-24.96094h6.67969v45.84961Z"/>
      <path class="cls-4" d="m850.22739,507.56615h-3.48633v8.64258h-6.5332v-8.64258h-15.05859v-4.07227l11.39648-33.13477h6.97266v.26367l-10.69336,31.11328h7.38281v-13.79883h6.5332v13.79883h3.48633v5.83008Z"/>
      <path class="cls-4" d="m876.3895,512.01927c0,2.79346-1.37695,4.18945-4.13086,4.18945h-13.91602c-2.77344,0-4.16016-1.396-4.16016-4.18945v-37.44141c0-2.8125,1.35742-4.21875,4.07227-4.21875h13.88672c2.75391,0,4.13086,1.40625,4.13086,4.21875v9.69727h-6.73828v-8.02734h-8.61328v13.79883h11.33789c2.75391,0,4.13086,1.37695,4.13086,4.13086v17.8418Zm-6.70898-1.69922v-14.44336h-8.75977v14.44336h8.75977Z"/>
      <path class="cls-4" d="m342.79966,538.42357h-7.55859v39.78516h-6.82617v-39.78516h-7.55859v-6.06445h21.94336v6.06445Z"/>
      <path class="cls-4" d="m369.34263,578.20872h-6.91406v-20.56641h-9.28711v20.56641h-6.85547v-45.84961h6.85547v18.89648h9.28711v-18.89648h6.91406v45.84961Z"/>
      <path class="cls-4" d="m397.90708,574.01927c0,2.79297-1.38721,4.18945-4.16016,4.18945h-14.88281c-2.71484,0-4.07227-1.39648-4.07227-4.18945v-37.44141c0-2.8125,1.35742-4.21875,4.07227-4.21875h14.88281c2.77295,0,4.16016,1.40625,4.16016,4.21875v37.44141Zm-6.85547-1.69922v-34.07227h-9.4043v34.07227h9.4043Z"/>
      <path class="cls-4" d="m431.12974,578.20872h-6.5918v-22.61719c0-1.19141.13623-2.85156.41016-4.98047l-5.91797,23.4082h-3.48633l-5.94727-23.4082c.27344,2.16797.41016,3.82812.41016,4.98047v22.61719h-6.5918v-45.84961h6.47461l7.20703,25.3418c.07764.27344.13623.9668.17578,2.08008,0-.48828.05859-1.18164.17578-2.08008l7.20703-25.3418h6.47461v45.84961Z"/>
      <path class="cls-4" d="m459.84067,578.20872h-6.79688l-1.37695-8.70117h-8.58398l-1.37695,8.70117h-6.76758v-.11719l8.87695-45.79102h7.20703l8.81836,45.9082Zm-9.14062-14.58984l-3.33984-20.68359-3.36914,20.68359h6.70898Z"/>
      <path class="cls-4" d="m485.65122,574.01927c0,2.79297-1.38721,4.18945-4.16016,4.18945h-13.79883c-2.75391,0-4.13086-1.39648-4.13086-4.18945v-10.92773h6.85547v9.3457h8.37891v-8.99414l-13.74023-13.00781c-.99609-.95703-1.49414-2.17773-1.49414-3.66211v-10.19531c0-2.8125,1.37695-4.21875,4.13086-4.21875h13.79883c2.77295,0,4.16016,1.38721,4.16016,4.16016v10.25391h-6.85547v-8.64258h-8.37891v8.29102l13.74023,12.94922c.99609.9375,1.49414,2.17773,1.49414,3.7207v10.92773Z"/>
      <path class="cls-4" d="m526.93052,578.20872h-7.14844l-7.55859-21.29883v-4.13086h6.73828v-14.53125h-8.64258v39.96094h-6.85547v-45.84961h18.19336c2.75391,0,4.13086,1.40625,4.13086,4.21875v16.66992c0,1.93359-.65479,3.18359-1.96289,3.75-.70312.29297-2.1875.43945-4.45312.43945l7.55859,20.77148Z"/>
      <path class="cls-4" d="m550.13364,578.20872h-19.01367v-45.84961h18.83789v6.06445h-11.98242v13.38867h10.3125v5.94727h-10.3125v14.38477h12.1582v6.06445Z"/>
      <path class="cls-4" d="m561.7938,578.20872h-6.85547v-45.84961h6.85547v45.84961Z"/>
      <path class="cls-4" d="m589.39146,574.01927c0,2.79297-1.38721,4.18945-4.16016,4.18945h-13.79883c-2.75391,0-4.13086-1.39648-4.13086-4.18945v-10.92773h6.85547v9.3457h8.37891v-8.99414l-13.74023-13.00781c-.99609-.95703-1.49414-2.17773-1.49414-3.66211v-10.19531c0-2.8125,1.37695-4.21875,4.13086-4.21875h13.79883c2.77295,0,4.16016,1.38721,4.16016,4.16016v10.25391h-6.85547v-8.64258h-8.37891v8.29102l13.74023,12.94922c.99609.9375,1.49414,2.17773,1.49414,3.7207v10.92773Z"/>
      <path class="cls-4" d="m850.22739,569.56615h-3.48633v8.64258h-6.5332v-8.64258h-15.05859v-4.07227l11.39648-33.13477h6.97266v.26367l-10.69336,31.11328h7.38281v-13.79883h6.5332v13.79883h3.48633v5.83008Z"/>
      <path class="cls-4" d="m876.3895,574.01927c0,2.79297-1.37695,4.18945-4.13086,4.18945h-13.91602c-2.77344,0-4.16016-1.39648-4.16016-4.18945v-37.44141c0-2.8125,1.35742-4.21875,4.07227-4.21875h13.88672c2.75391,0,4.13086,1.40625,4.13086,4.21875v9.69727h-6.73828v-8.02734h-8.61328v13.79883h11.33789c2.75391,0,4.13086,1.37695,4.13086,4.13086v17.8418Zm-6.70898-1.69922v-14.44336h-8.75977v14.44336h8.75977Z"/>
      <path class="cls-4" d="m342.79966,600.42357h-7.55859v39.78516h-6.82617v-39.78516h-7.55859v-6.06445h21.94336v6.06445Z"/>
      <path class="cls-4" d="m369.75278,640.20872h-7.14844l-7.55859-21.29883v-4.13086h6.73828v-14.53125h-8.64258v39.96094h-6.85547v-45.84961h18.19336c2.75391,0,4.13086,1.40625,4.13086,4.21875v16.66992c0,1.93359-.65479,3.18359-1.96289,3.75-.70312.29297-2.1875.43945-4.45312.43945l7.55859,20.77148Z"/>
      <path class="cls-4" d="m380.91489,640.20872h-6.85547v-45.84961h6.85547v45.84961Z"/>
      <path class="cls-4" d="m408.51255,636.01927c0,2.79297-1.38721,4.18945-4.16016,4.18945h-13.79883c-2.75391,0-4.13086-1.39648-4.13086-4.18945v-10.92773h6.85547v9.3457h8.37891v-8.99414l-13.74023-13.00781c-.99609-.95703-1.49414-2.17773-1.49414-3.66211v-10.19531c0-2.8125,1.37695-4.21875,4.13086-4.21875h13.79883c2.77295,0,4.16016,1.38672,4.16016,4.16016v10.25391h-6.85547v-8.64258h-8.37891v8.29102l13.74023,12.94922c.99609.9375,1.49414,2.17773,1.49414,3.7207v10.92773Z"/>
      <path class="cls-4" d="m433.88364,600.42357h-7.55859v39.78516h-6.82617v-39.78516h-7.55859v-6.06445h21.94336v6.06445Z"/>
      <path class="cls-4" d="m456.38364,640.20872h-19.01367v-45.84961h18.83789v6.06445h-11.98242v13.38867h10.3125v5.94727h-10.3125v14.38477h12.1582v6.06445Z"/>
      <path class="cls-4" d="m484.30357,640.20872h-6.00586l-10.98633-28.85742c.29297,1.40625.43945,2.50977.43945,3.31055v25.54688h-6.67969v-45.84961h6.00586l10.98633,28.27148c-.29297-1.40625-.43945-2.50977-.43945-3.31055v-24.96094h6.67969v45.84961Z"/>
      <path class="cls-4" d="m524.14732,636.01927c0,2.79297-1.38721,4.18945-4.16016,4.18945h-13.79883c-2.75391,0-4.13086-1.39648-4.13086-4.18945v-10.92773h6.85547v9.3457h8.37891v-8.99414l-13.74023-13.00781c-.99609-.95703-1.49414-2.17773-1.49414-3.66211v-10.19531c0-2.8125,1.37695-4.21875,4.13086-4.21875h13.79883c2.77295,0,4.16016,1.38672,4.16016,4.16016v10.25391h-6.85547v-8.64258h-8.37891v8.29102l13.74023,12.94922c.99609.9375,1.49414,2.17773,1.49414,3.7207v10.92773Z"/>
      <path class="cls-4" d="m549.51841,600.42357h-7.55859v39.78516h-6.82617v-39.78516h-7.55859v-6.06445h21.94336v6.06445Z"/>
      <path class="cls-4" d="m576.11997,636.01927c0,2.79297-1.38721,4.18945-4.16016,4.18945h-14.88281c-2.71484,0-4.07227-1.39648-4.07227-4.18945v-37.44141c0-2.8125,1.35742-4.21875,4.07227-4.21875h14.88281c2.77295,0,4.16016,1.40625,4.16016,4.21875v37.44141Zm-6.85547-1.69922v-34.07227h-9.4043v34.07227h9.4043Z"/>
      <path class="cls-4" d="m599.64536,640.20872h-18.01758v-45.84961h6.85547v39.72656h11.16211v6.12305Z"/>
      <path class="cls-4" d="m623.6395,600.42357h-7.55859v39.78516h-6.82617v-39.78516h-7.55859v-6.06445h21.94336v6.06445Z"/>
      <path class="cls-4" d="m646.1395,640.20872h-19.01367v-45.84961h18.83789v6.06445h-11.98242v13.38867h10.3125v5.94727h-10.3125v14.38477h12.1582v6.06445Z"/>
      <path class="cls-4" d="m850.22739,631.56615h-3.48633v8.64258h-6.5332v-8.64258h-15.05859v-4.07227l11.39648-33.13477h6.97266v.26367l-10.69336,31.11328h7.38281v-13.79883h6.5332v13.79883h3.48633v5.83008Z"/>
      <path class="cls-4" d="m876.33091,636.01927c0,2.79297-1.37695,4.18945-4.13086,4.18945h-13.79883c-2.77344,0-4.16016-1.39648-4.16016-4.18945v-9.72656h6.73828v8.02734h8.55469v-13.79883h-11.39648c-2.71484,0-4.07227-1.37695-4.07227-4.13086v-17.8125c0-2.8125,1.35742-4.21875,4.07227-4.21875h14.00391c2.79297,0,4.18945,1.40625,4.18945,4.21875v37.44141Zm-6.79688-21.29883v-14.47266h-8.75977v14.47266h8.75977Z"/>
      <path class="cls-4" d="m345.72935,693.56615c0,2.69531-.80127,4.80957-2.40234,6.34277-1.60156,1.5332-3.76025,2.2998-6.47461,2.2998h-13.97461v-45.84961h13.97461c2.71436,0,4.87305.77637,6.47461,2.3291,1.60107,1.55273,2.40234,3.67676,2.40234,6.37207v28.50586Zm-6.88477-1.14258v-26.33789c0-2.55859-1.33789-3.83789-4.01367-3.83789h-5.09766v34.07227h4.92188c2.79297,0,4.18945-1.29883,4.18945-3.89648Z"/>
      <path class="cls-4" d="m370.04575,702.20872h-19.01367v-45.84961h18.83789v6.06445h-11.98242v13.38867h10.3125v5.94727h-10.3125v14.38477h12.1582v6.06445Z"/>
      <path class="cls-4" d="m397.40903,698.01927c0,2.79297-1.39648,4.18945-4.18945,4.18945h-14.41406c-2.71484,0-4.07227-1.39648-4.07227-4.18945v-37.44141c0-2.8125,1.38672-4.21875,4.16016-4.21875h14.32617c2.79297,0,4.18945,1.40625,4.18945,4.21875v9.78516h-6.88477v-8.11523h-8.93555v34.07227h8.93555v-12.83203h-5.09766v-5.83008h11.98242v20.36133Z"/>
      <path class="cls-4" d="m426.11997,702.20872h-6.79688l-1.37695-8.70117h-8.58398l-1.37695,8.70117h-6.76758v-.11719l8.87695-45.79102h7.20703l8.81836,45.9082Zm-9.14062-14.58984l-3.33984-20.68359-3.36914,20.68359h6.70898Z"/>
      <path class="cls-4" d="m453.19028,702.20872h-6.00586l-10.98633-28.85742c.29297,1.40625.43945,2.50977.43945,3.31055v25.54688h-6.67969v-45.84961h6.00586l10.98633,28.27148c-.29297-1.40625-.43945-2.50977-.43945-3.31055v-24.96094h6.67969v45.84961Z"/>
      <path class="cls-4" d="m493.03403,698.01927c0,2.79297-1.38721,4.18945-4.16016,4.18945h-13.79883c-2.75391,0-4.13086-1.39648-4.13086-4.18945v-10.92773h6.85547v9.3457h8.37891v-8.99414l-13.74023-13.00781c-.99609-.95703-1.49414-2.17773-1.49414-3.66211v-10.19531c0-2.8125,1.37695-4.21875,4.13086-4.21875h13.79883c2.77295,0,4.16016,1.38672,4.16016,4.16016v10.25391h-6.85547v-8.64258h-8.37891v8.29102l13.74023,12.94922c.99609.9375,1.49414,2.17773,1.49414,3.7207v10.92773Z"/>
      <path class="cls-4" d="m518.40513,662.42357h-7.55859v39.78516h-6.82617v-39.78516h-7.55859v-6.06445h21.94336v6.06445Z"/>
      <path class="cls-4" d="m544.83091,698.01927c0,2.79297-1.40625,4.18945-4.21875,4.18945h-14.56055c-2.77344,0-4.16016-1.39648-4.16016-4.18945v-41.66016h6.85547v39.96094h9.22852v-39.96094h6.85547v41.66016Z"/>
      <path class="cls-4" d="m568.3563,702.20872h-18.01758v-45.84961h6.85547v39.72656h11.16211v6.12305Z"/>
      <path class="cls-4" d="m594.98716,698.01927c0,2.79297-1.39648,4.18945-4.18945,4.18945h-14.29688c-2.71484,0-4.07227-1.39648-4.07227-4.18945v-37.44141c0-2.8125,1.35742-4.21875,4.07227-4.21875h14.29688c2.79297,0,4.18945,1.40625,4.18945,4.21875v10.72266h-6.82617v-9.05273h-8.87695v34.07227h8.87695v-9.63867h6.82617v11.33789Z"/>
      <path class="cls-4" d="m619.39146,702.20872h-19.01367v-45.84961h18.83789v6.06445h-11.98242v13.38867h10.3125v5.94727h-10.3125v14.38477h12.1582v6.06445Z"/>
      <path class="cls-4" d="m848.79185,698.01927c0,2.79297-1.38672,4.18945-4.16016,4.18945h-13.74023c-2.71484,0-4.07227-1.39648-4.07227-4.18945v-10.57617h6.73828v8.87695h8.49609v-17.63672h-15.23438l.73242-22.32422h20.91797v6.00586h-14.56055l-.43945,10.42969h11.16211c2.77344,0,4.16016,1.38672,4.16016,4.16016v21.06445Z"/>
      <path class="cls-4" d="m875.65708,669.39622c0,1.44531-.49805,3.04688-1.49414,4.80469l-12.59766,22.00195h14.0332v6.00586h-22.23633v-4.24805l15.52734-27.30469v-8.4668h-8.34961v8.52539h-6.70898v-10.19531c0-2.77344,1.39648-4.16016,4.18945-4.16016h13.44727c2.79297,0,4.18945,1.38672,4.18945,4.16016v8.87695Z"/>
      <path class="cls-4" d="m341.89146,764.20872h-19.01367v-45.84961h18.83789v6.06445h-11.98242v13.38867h10.3125v5.94727h-10.3125v14.38477h12.1582v6.06445Z"/>
      <path class="cls-4" d="m369.81138,764.20872h-6.79688l-1.37695-8.70117h-8.58398l-1.37695,8.70117h-6.76758v-.11719l8.87695-45.79102h7.20703l8.81836,45.9082Zm-9.14062-14.58984l-3.33984-20.68359-3.36914,20.68359h6.70898Z"/>
      <path class="cls-4" d="m395.62192,760.01927c0,2.79297-1.38721,4.18945-4.16016,4.18945h-13.79883c-2.75391,0-4.13086-1.39648-4.13086-4.18945v-10.92773h6.85547v9.3457h8.37891v-8.99414l-13.74023-13.00781c-.99609-.95703-1.49414-2.17773-1.49414-3.66211v-10.19531c0-2.8125,1.37695-4.21875,4.13086-4.21875h13.79883c2.77295,0,4.16016,1.38672,4.16016,4.16016v10.25391h-6.85547v-8.64258h-8.37891v8.29102l13.74023,12.94922c.99609.9375,1.49414,2.17773,1.49414,3.7207v10.92773Z"/>
      <path class="cls-4" d="m420.99302,724.42357h-7.55859v39.78516h-6.82617v-39.78516h-7.55859v-6.06445h21.94336v6.06445Z"/>
      <path class="cls-4" d="m447.59458,760.01927c0,2.79297-1.38721,4.18945-4.16016,4.18945h-14.88281c-2.71484,0-4.07227-1.39648-4.07227-4.18945v-37.44141c0-2.8125,1.35742-4.21875,4.07227-4.21875h14.88281c2.77295,0,4.16016,1.40625,4.16016,4.21875v37.44141Zm-6.85547-1.69922v-34.07227h-9.4043v34.07227h9.4043Z"/>
      <path class="cls-4" d="m476.33482,764.20872h-6.00586l-10.98633-28.85742c.29297,1.40625.43945,2.50977.43945,3.31055v25.54688h-6.67969v-45.84961h6.00586l10.98633,28.27148c-.29297-1.40625-.43945-2.50977-.43945-3.31055v-24.96094h6.67969v45.84961Z"/>
      <path class="cls-4" d="m516.17857,760.01927c0,2.79297-1.38721,4.18945-4.16016,4.18945h-13.79883c-2.75391,0-4.13086-1.39648-4.13086-4.18945v-10.92773h6.85547v9.3457h8.37891v-8.99414l-13.74023-13.00781c-.99609-.95703-1.49414-2.17773-1.49414-3.66211v-10.19531c0-2.8125,1.37695-4.21875,4.13086-4.21875h13.79883c2.77295,0,4.16016,1.38672,4.16016,4.16016v10.25391h-6.85547v-8.64258h-8.37891v8.29102l13.74023,12.94922c.99609.9375,1.49414,2.17773,1.49414,3.7207v10.92773Z"/>
      <path class="cls-4" d="m544.68442,764.20872h-6.91406v-20.56641h-9.28711v20.56641h-6.85547v-45.84961h6.85547v18.89648h9.28711v-18.89648h6.91406v45.84961Z"/>
      <path class="cls-4" d="m557.1063,764.20872h-6.85547v-45.84961h6.85547v45.84961Z"/>
      <path class="cls-4" d="m585.96372,764.20872h-6.00586l-10.98633-28.85742c.29297,1.40625.43945,2.50977.43945,3.31055v25.54688h-6.67969v-45.84961h6.00586l10.98633,28.27148c-.29297-1.40625-.43945-2.50977-.43945-3.31055v-24.96094h6.67969v45.84961Z"/>
      <path class="cls-4" d="m614.70396,764.20872h-6.00586l-10.98633-28.85742c.29297,1.40625.43945,2.50977.43945,3.31055v25.54688h-6.67969v-45.84961h6.00586l10.98633,28.27148c-.29297-1.40625-.43945-2.50977-.43945-3.31055v-24.96094h6.67969v45.84961Z"/>
      <path class="cls-4" d="m848.79185,760.01927c0,2.79297-1.38672,4.18945-4.16016,4.18945h-13.74023c-2.71484,0-4.07227-1.39648-4.07227-4.18945v-10.57617h6.73828v8.87695h8.49609v-17.63672h-15.23438l.73242-22.32422h20.91797v6.00586h-14.56055l-.43945,10.42969h11.16211c2.77344,0,4.16016,1.38672,4.16016,4.16016v21.06445Z"/>
      <path class="cls-4" d="m875.65708,731.39622c0,1.44531-.49805,3.04688-1.49414,4.80469l-12.59766,22.00195h14.0332v6.00586h-22.23633v-4.24805l15.52734-27.30469v-8.4668h-8.34961v8.52539h-6.70898v-10.19531c0-2.77344,1.39648-4.16016,4.18945-4.16016h13.44727c2.79297,0,4.18945,1.38672,4.18945,4.16016v8.87695Z"/>
      <path class="cls-4" d="m345.43638,822.01927c0,2.79297-1.39648,4.18945-4.18945,4.18945h-14.29688c-2.71484,0-4.07227-1.39648-4.07227-4.18945v-37.44141c0-2.8125,1.35742-4.21875,4.07227-4.21875h14.29688c2.79297,0,4.18945,1.40625,4.18945,4.21875v10.72266h-6.82617v-9.05273h-8.87695v34.07227h8.87695v-9.63867h6.82617v11.33789Z"/>
      <path class="cls-4" d="m374.05942,826.20872h-6.79688l-1.37695-8.70117h-8.58398l-1.37695,8.70117h-6.76758v-.11719l8.87695-45.79102h7.20703l8.81836,45.9082Zm-9.14062-14.58984l-3.33984-20.68359-3.36914,20.68359h6.70898Z"/>
      <path class="cls-4" d="m395.91489,826.20872h-18.01758v-45.84961h6.85547v39.72656h11.16211v6.12305Z"/>
      <path class="cls-4" d="m422.80942,780.35911l-8.78906,45.9082h-6.82617l-8.75977-45.9082h6.88477l5.12695,31.43555c.03906.89844.09766,2.20703.17578,3.92578-.01953-.89844.03906-2.20703.17578-3.92578l5.15625-31.43555h6.85547Z"/>
      <path class="cls-4" d="m433.64927,826.20872h-6.85547v-45.84961h6.85547v45.84961Z"/>
      <path class="cls-4" d="m462.50669,826.20872h-6.00586l-10.98633-28.85742c.29297,1.40625.43945,2.50977.43945,3.31055v25.54688h-6.67969v-45.84961h6.00586l10.98633,28.27148c-.29297-1.40625-.43945-2.50977-.43945-3.31055v-24.96094h6.67969v45.84961Z"/>
      <path class="cls-4" d="m502.87778,822.01927c0,2.79297-1.39648,4.18945-4.18945,4.18945h-18.31055v-45.84961h18.19336c2.71436,0,4.07227,1.40625,4.07227,4.21875v11.80664c0,1.5625-.48828,2.77344-1.46484,3.63281-.13672.11719-1.32861.86914-3.57422,2.25586,2.32422,1.42578,3.55469,2.20703,3.69141,2.34375,1.05469.91797,1.58203,2.17773,1.58203,3.7793v13.62305Zm-7.06055-24.78516v-11.10352h-8.58398v13.44727h5.27344l3.31055-2.34375Zm.17578,23.20312v-13.06641l-3.36914-2.22656h-5.39062v15.29297h8.75977Z"/>
      <path class="cls-4" d="m527.28208,826.20872h-19.01367v-45.84961h18.83789v6.06445h-11.98242v13.38867h10.3125v5.94727h-10.3125v14.38477h12.1582v6.06445Z"/>
      <path class="cls-4" d="m555.43638,826.20872h-7.14844l-7.55859-21.29883v-4.13086h6.73828v-14.53125h-8.64258v39.96094h-6.85547v-45.84961h18.19336c2.75391,0,4.13086,1.40625,4.13086,4.21875v16.66992c0,1.93359-.65479,3.18359-1.96289,3.75-.70312.29297-2.1875.43945-4.45312.43945l7.55859,20.77148Z"/>
      <path class="cls-4" d="m582.30161,822.01927c0,2.79297-1.39648,4.18945-4.18945,4.18945h-14.41406c-2.71484,0-4.07227-1.39648-4.07227-4.18945v-37.44141c0-2.8125,1.38672-4.21875,4.16016-4.21875h14.32617c2.79297,0,4.18945,1.40625,4.18945,4.21875v9.78516h-6.88477v-8.11523h-8.93555v34.07227h8.93555v-12.83203h-5.09766v-5.83008h11.98242v20.36133Z"/>
      <path class="cls-4" d="m848.79185,822.01927c0,2.79297-1.38672,4.18945-4.16016,4.18945h-13.74023c-2.71484,0-4.07227-1.39648-4.07227-4.18945v-10.57617h6.73828v8.87695h8.49609v-17.63672h-15.23438l.73242-22.32422h20.91797v6.00586h-14.56055l-.43945,10.42969h11.16211c2.77344,0,4.16016,1.38672,4.16016,4.16016v21.06445Z"/>
      <path class="cls-4" d="m876.74107,822.01927c0,2.79297-1.37695,4.18945-4.13086,4.18945h-14.47266c-2.71484,0-4.07227-1.39648-4.07227-4.18945v-13.33008c0-1.69922.56641-2.99805,1.69922-3.89648,1.34766-.78125,2.70508-1.5625,4.07227-2.34375l-3.92578-2.28516c-1.19141-.9375-1.78711-2.19727-1.78711-3.7793v-11.80664c0-2.8125,1.38672-4.21875,4.16016-4.21875h14.26758c2.71484,0,4.07227,1.40625,4.07227,4.21875v11.80664c0,1.60156-.58594,2.86133-1.75781,3.7793l-3.92578,2.28516c1.34766.78125,2.70508,1.5625,4.07227,2.34375,1.15234.89844,1.72852,2.19727,1.72852,3.89648v13.33008Zm-6.82617-1.58203v-12.71484l-4.51172-2.57812-4.54102,2.57812v12.71484h9.05273Zm-.05859-23.32031v-10.98633h-8.87695v10.98633l4.42383,2.63672,4.45312-2.63672Z"/>
      <path class="cls-4" d="m345.93442,888.20872h-6.91406v-20.56641h-9.28711v20.56641h-6.85547v-45.84961h6.85547v18.89648h9.28711v-18.89648h6.91406v45.84961Z"/>
      <path class="cls-4" d="m374.3231,884.01927c0,2.79297-1.40625,4.18945-4.21875,4.18945h-14.56055c-2.77344,0-4.16016-1.39648-4.16016-4.18945v-41.66016h6.85547v39.96094h9.22852v-39.96094h6.85547v41.66016Z"/>
      <path class="cls-4" d="m402.68247,879.56615c0,2.69531-.80127,4.80957-2.40234,6.34277-1.60156,1.5332-3.76025,2.2998-6.47461,2.2998h-13.97461v-45.84961h13.97461c2.71436,0,4.87305.77637,6.47461,2.3291,1.60107,1.55273,2.40234,3.67676,2.40234,6.37207v28.50586Zm-6.88477-1.14258v-26.33789c0-2.55859-1.33789-3.83789-4.01367-3.83789h-5.09766v34.07227h4.92188c2.79297,0,4.18945-1.29883,4.18945-3.89648Z"/>
      <path class="cls-4" d="m429.95786,884.01927c0,2.79297-1.38721,4.18945-4.16016,4.18945h-13.79883c-2.75391,0-4.13086-1.39648-4.13086-4.18945v-10.92773h6.85547v9.3457h8.37891v-8.99414l-13.74023-13.00781c-.99609-.95703-1.49414-2.17773-1.49414-3.66211v-10.19531c0-2.8125,1.37695-4.21875,4.13086-4.21875h13.79883c2.77295,0,4.16016,1.38672,4.16016,4.16016v10.25391h-6.85547v-8.64258h-8.37891v8.29102l13.74023,12.94922c.99609.9375,1.49414,2.17773,1.49414,3.7207v10.92773Z"/>
      <path class="cls-4" d="m458.52232,884.01927c0,2.79297-1.38721,4.18945-4.16016,4.18945h-14.88281c-2.71484,0-4.07227-1.39648-4.07227-4.18945v-37.44141c0-2.8125,1.35742-4.21875,4.07227-4.21875h14.88281c2.77295,0,4.16016,1.40625,4.16016,4.21875v37.44141Zm-6.85547-1.69922v-34.07227h-9.4043v34.07227h9.4043Z"/>
      <path class="cls-4" d="m487.26255,888.20872h-6.00586l-10.98633-28.85742c.29297,1.40625.43945,2.50977.43945,3.31055v25.54688h-6.67969v-45.84961h6.00586l10.98633,28.27148c-.29297-1.40625-.43945-2.50977-.43945-3.31055v-24.96094h6.67969v45.84961Z"/>
      <path class="cls-4" d="m528.24888,884.01927c0,2.79297-1.38721,4.18945-4.16016,4.18945h-14.88281c-2.71484,0-4.07227-1.39648-4.07227-4.18945v-37.44141c0-2.8125,1.35742-4.21875,4.07227-4.21875h14.88281c2.77295,0,4.16016,1.40625,4.16016,4.21875v37.44141Zm-6.85547-1.69922v-34.07227h-9.4043v34.07227h9.4043Z"/>
      <path class="cls-4" d="m556.81333,888.20872h-6.91406v-20.56641h-9.28711v20.56641h-6.85547v-45.84961h6.85547v18.89648h9.28711v-18.89648h6.91406v45.84961Z"/>
      <path class="cls-4" d="m580.28013,888.20872h-18.01758v-45.84961h6.85547v39.72656h11.16211v6.12305Z"/>
      <path class="cls-4" d="m603.36607,888.20872h-19.01367v-45.84961h18.83789v6.06445h-11.98242v13.38867h10.3125v5.94727h-10.3125v14.38477h12.1582v6.06445Z"/>
      <path class="cls-4" d="m631.28599,888.20872h-6.00586l-10.98633-28.85742c.29297,1.40625.43945,2.50977.43945,3.31055v25.54688h-6.67969v-45.84961h6.00586l10.98633,28.27148c-.29297-1.40625-.43945-2.50977-.43945-3.31055v-24.96094h6.67969v45.84961Z"/>
      <path class="cls-4" d="m659.64536,879.56615c0,2.69531-.80078,4.80957-2.40234,6.34277s-3.75977,2.2998-6.47461,2.2998h-13.97461v-45.84961h13.97461c2.71484,0,4.87305.77637,6.47461,2.3291s2.40234,3.67676,2.40234,6.37207v28.50586Zm-6.88477-1.14258v-26.33789c0-2.55859-1.33789-3.83789-4.01367-3.83789h-5.09766v34.07227h4.92188c2.79297,0,4.18945-1.29883,4.18945-3.89648Z"/>
      <path class="cls-4" d="m688.06333,884.01927c0,2.79297-1.38672,4.18945-4.16016,4.18945h-14.88281c-2.71484,0-4.07227-1.39648-4.07227-4.18945v-37.44141c0-2.8125,1.35742-4.21875,4.07227-4.21875h14.88281c2.77344,0,4.16016,1.40625,4.16016,4.21875v37.44141Zm-6.85547-1.69922v-34.07227h-9.4043v34.07227h9.4043Z"/>
      <path class="cls-4" d="m717.03794,888.20872h-7.14844l-7.55859-21.29883v-4.13086h6.73828v-14.53125h-8.64258v39.96094h-6.85547v-45.84961h18.19336c2.75391,0,4.13086,1.40625,4.13086,4.21875v16.66992c0,1.93359-.6543,3.18359-1.96289,3.75-.70312.29297-2.1875.43945-4.45312.43945l7.55859,20.77148Z"/>
      <path class="cls-4" d="m739.9481,848.42357h-11.86523v13.56445h10.13672v5.94727h-10.13672v20.27344h-6.85547v-45.84961h18.7207v6.06445Z"/>
      <path class="cls-4" d="m849.08482,884.01927c0,2.79297-1.37695,4.18945-4.13086,4.18945h-13.91602c-2.77344,0-4.16016-1.39648-4.16016-4.18945v-37.44141c0-2.8125,1.35742-4.21875,4.07227-4.21875h13.88672c2.75391,0,4.13086,1.40625,4.13086,4.21875v9.69727h-6.73828v-8.02734h-8.61328v13.79883h11.33789c2.75391,0,4.13086,1.37695,4.13086,4.13086v17.8418Zm-6.70898-1.69922v-14.44336h-8.75977v14.44336h8.75977Z"/>
      <path class="cls-4" d="m876.06724,855.39622c0,1.44531-.49805,3.04688-1.49414,4.80469l-12.59766,22.00195h14.0332v6.00586h-22.23633v-4.24805l15.52734-27.30469v-8.4668h-8.34961v8.52539h-6.70898v-10.19531c0-2.77344,1.39648-4.16016,4.18945-4.16016h13.44727c2.79297,0,4.18945,1.38672,4.18945,4.16016v8.87695Z"/>
      <path class="cls-4" d="m345.02622,929.32005c0,2.85156-1.39648,4.27734-4.18945,4.27734h-11.10352v16.61133h-6.85547v-45.84961h17.95898c2.79297,0,4.18945,1.40625,4.18945,4.21875v20.74219Zm-6.91406-1.61133v-17.46094h-8.37891v17.46094h8.37891Z"/>
      <path class="cls-4" d="m373.12192,950.20872h-6.79688l-1.37695-8.70117h-8.58398l-1.37695,8.70117h-6.76758v-.11719l8.87695-45.79102h7.20703l8.81836,45.9082Zm-9.14062-14.58984l-3.33984-20.68359-3.36914,20.68359h6.70898Z"/>
      <path class="cls-4" d="m399.81138,950.20872h-7.41211l-5.03906-16.14258-5.06836,16.14258h-7.29492v-.23438l8.55469-23.23242c-5.37158-14.84375-8.04688-22.30469-8.02734-22.38281h7.32422l4.57031,14.94141,4.59961-14.94141h7.26562v.26367l-8.02734,21.94336,8.55469,23.64258Z"/>
      <path class="cls-4" d="m423.27817,910.42357h-7.55859v39.78516h-6.82617v-39.78516h-7.55859v-6.06445h21.94336v6.06445Z"/>
      <path class="cls-4" d="m449.87974,946.01927c0,2.79297-1.38721,4.18945-4.16016,4.18945h-14.88281c-2.71484,0-4.07227-1.39648-4.07227-4.18945v-37.44141c0-2.8125,1.35742-4.21875,4.07227-4.21875h14.88281c2.77295,0,4.16016,1.40625,4.16016,4.21875v37.44141Zm-6.85547-1.69922v-34.07227h-9.4043v34.07227h9.4043Z"/>
      <path class="cls-4" d="m478.61997,950.20872h-6.00586l-10.98633-28.85742c.29297,1.40625.43945,2.50977.43945,3.31055v25.54688h-6.67969v-45.84961h6.00586l10.98633,28.27148c-.29297-1.40625-.43945-2.50977-.43945-3.31055v-24.96094h6.67969v45.84961Z"/>
      <path class="cls-4" d="m519.54771,950.20872h-6.91406v-20.56641h-9.28711v20.56641h-6.85547v-45.84961h6.85547v18.89648h9.28711v-18.89648h6.91406v45.84961Z"/>
      <path class="cls-4" d="m548.11216,946.01927c0,2.79297-1.38721,4.18945-4.16016,4.18945h-14.88281c-2.71484,0-4.07227-1.39648-4.07227-4.18945v-37.44141c0-2.8125,1.35742-4.21875,4.07227-4.21875h14.88281c2.77295,0,4.16016,1.40625,4.16016,4.21875v37.44141Zm-6.85547-1.69922v-34.07227h-9.4043v34.07227h9.4043Z"/>
      <path class="cls-4" d="m572.34067,910.42357h-11.86523v13.56445h10.13672v5.94727h-10.13672v20.27344h-6.85547v-45.84961h18.7207v6.06445Z"/>
      <path class="cls-4" d="m594.95786,910.42357h-11.86523v13.56445h10.13672v5.94727h-10.13672v20.27344h-6.85547v-45.84961h18.7207v6.06445Z"/>
      <path class="cls-4" d="m626.56919,950.20872h-6.5918v-22.61719c0-1.19141.13672-2.85156.41016-4.98047l-5.91797,23.4082h-3.48633l-5.94727-23.4082c.27344,2.16797.41016,3.82812.41016,4.98047v22.61719h-6.5918v-45.84961h6.47461l7.20703,25.3418c.07812.27344.13672.9668.17578,2.08008,0-.48828.05859-1.18164.17578-2.08008l7.20703-25.3418h6.47461v45.84961Z"/>
      <path class="cls-4" d="m655.28013,950.20872h-6.79688l-1.37695-8.70117h-8.58398l-1.37695,8.70117h-6.76758v-.11719l8.87695-45.79102h7.20703l8.81836,45.9082Zm-9.14062-14.58984l-3.33984-20.68359-3.36914,20.68359h6.70898Z"/>
      <path class="cls-4" d="m682.35044,950.20872h-6.00586l-10.98633-28.85742c.29297,1.40625.43945,2.50977.43945,3.31055v25.54688h-6.67969v-45.84961h6.00586l10.98633,28.27148c-.29297-1.40625-.43945-2.50977-.43945-3.31055v-24.96094h6.67969v45.84961Z"/>
      <path class="cls-4" d="m849.08482,946.01927c0,2.79297-1.37695,4.18945-4.13086,4.18945h-13.91602c-2.77344,0-4.16016-1.39648-4.16016-4.18945v-37.44141c0-2.8125,1.35742-4.21875,4.07227-4.21875h13.88672c2.75391,0,4.13086,1.40625,4.13086,4.21875v9.69727h-6.73828v-8.02734h-8.61328v13.79883h11.33789c2.75391,0,4.13086,1.37695,4.13086,4.13086v17.8418Zm-6.70898-1.69922v-14.44336h-8.75977v14.44336h8.75977Z"/>
      <path class="cls-4" d="m876.74107,946.01927c0,2.79297-1.37695,4.18945-4.13086,4.18945h-13.91602c-2.77344,0-4.16016-1.39648-4.16016-4.18945v-37.44141c0-2.8125,1.35742-4.21875,4.07227-4.21875h13.88672c2.75391,0,4.13086,1.40625,4.13086,4.21875v9.69727h-6.73828v-8.02734h-8.61328v13.79883h11.33789c2.75391,0,4.13086,1.37695,4.13086,4.13086v17.8418Zm-6.70898-1.69922v-14.44336h-8.75977v14.44336h8.75977Z"/>
      <path class="cls-4" d="m345.43638,1008.01927c0,2.79297-1.39648,4.18945-4.18945,4.18945h-14.29688c-2.71484,0-4.07227-1.39648-4.07227-4.18945v-37.44141c0-2.8125,1.35742-4.21875,4.07227-4.21875h14.29688c2.79297,0,4.18945,1.40625,4.18945,4.21875v10.72266h-6.82617v-9.05273h-8.87695v34.07227h8.87695v-9.63867h6.82617v11.33789Z"/>
      <path class="cls-4" d="m373.88364,1012.20872h-6.91406v-20.56641h-9.28711v20.56641h-6.85547v-45.84961h6.85547v18.89648h9.28711v-18.89648h6.91406v45.84961Z"/>
      <path class="cls-4" d="m402.56528,1012.20872h-6.79688l-1.37695-8.70117h-8.58398l-1.37695,8.70117h-6.76758v-.11719l8.87695-45.79102h7.20703l8.81836,45.9082Zm-9.14062-14.58984l-3.33984-20.68359-3.36914,20.68359h6.70898Z"/>
      <path class="cls-4" d="m428.37583,1008.01927c0,2.79297-1.38721,4.18945-4.16016,4.18945h-13.79883c-2.75391,0-4.13086-1.39648-4.13086-4.18945v-10.92773h6.85547v9.3457h8.37891v-8.99414l-13.74023-13.00781c-.99609-.95703-1.49414-2.17773-1.49414-3.66211v-10.19531c0-2.8125,1.37695-4.21875,4.13086-4.21875h13.79883c2.77295,0,4.16016,1.38672,4.16016,4.16016v10.25391h-6.85547v-8.64258h-8.37891v8.29102l13.74023,12.94922c.99609.9375,1.49414,2.17773,1.49414,3.7207v10.92773Z"/>
      <path class="cls-4" d="m452.83872,1012.20872h-19.01367v-45.84961h18.83789v6.06445h-11.98242v13.38867h10.3125v5.94727h-10.3125v14.38477h12.1582v6.06445Z"/>
      <path class="cls-4" d="m488.90317,1012.20872h-19.01367v-45.84961h18.83789v6.06445h-11.98242v13.38867h10.3125v5.94727h-10.3125v14.38477h12.1582v6.06445Z"/>
      <path class="cls-4" d="m516.44224,1003.56615c0,2.69531-.80127,4.80957-2.40234,6.34277-1.60156,1.5332-3.76025,2.2998-6.47461,2.2998h-13.97461v-45.84961h13.97461c2.71436,0,4.87305.77637,6.47461,2.3291,1.60107,1.55273,2.40234,3.67676,2.40234,6.37207v28.50586Zm-6.88477-1.14258v-26.33789c0-2.55859-1.33789-3.83789-4.01367-3.83789h-5.09766v34.07227h4.92188c2.79297,0,4.18945-1.29883,4.18945-3.89648Z"/>
      <path class="cls-4" d="m544.42075,1008.01927c0,2.79297-1.39648,4.18945-4.18945,4.18945h-14.41406c-2.71484,0-4.07227-1.39648-4.07227-4.18945v-37.44141c0-2.8125,1.38672-4.21875,4.16016-4.21875h14.32617c2.79297,0,4.18945,1.40625,4.18945,4.21875v9.78516h-6.88477v-8.11523h-8.93555v34.07227h8.93555v-12.83203h-5.09766v-5.83008h11.98242v20.36133Z"/>
      <path class="cls-4" d="m573.13169,1012.20872h-6.79688l-1.37695-8.70117h-8.58398l-1.37695,8.70117h-6.76758v-.11719l8.87695-45.79102h7.20703l8.81836,45.9082Zm-9.14062-14.58984l-3.33984-20.68359-3.36914,20.68359h6.70898Z"/>
      <path class="cls-4" d="m600.43638,1012.20872h-7.14844l-7.55859-21.29883v-4.13086h6.73828v-14.53125h-8.64258v39.96094h-6.85547v-45.84961h18.19336c2.75391,0,4.13086,1.40625,4.13086,4.21875v16.66992c0,1.93359-.65479,3.18359-1.96289,3.75-.70312.29297-2.1875.43945-4.45312.43945l7.55859,20.77148Z"/>
      <path class="cls-4" d="m848.55747,970.75365l-10.57617,41.45508h-7.03125l10.2832-39.96094h-8.75977v6.70898h-6.62109v-12.59766h22.70508v4.39453Z"/>
      <path class="cls-4" d="m875.24692,1008.01927c0,2.79297-1.37695,4.18945-4.13086,4.18945h-14.29688c-2.71484,0-4.07227-1.39648-4.07227-4.18945v-37.44141c0-2.8125,1.38672-4.21875,4.16016-4.21875h14.20898c2.75391,0,4.13086,1.40625,4.13086,4.21875v37.44141Zm-6.70898-1.69922v-34.07227h-9.05273v34.07227h9.05273Z"/>
      <path class="cls-4" d="m356.71567,1028.35911l-6.70898,45.9082h-6.70898l-4.10156-25.98633c-.03955-.9375-.11719-2.33398-.23438-4.18945,0,.9375-.07812,2.33398-.23438,4.18945l-4.07227,25.98633h-6.73828l-6.70898-45.9082h6.94336l3.54492,27.1875c.05859.9375.13623,2.33398.23438,4.18945.01904-.9375.10693-2.33398.26367-4.18945l3.95508-27.1875h5.625l3.95508,27.1875c.05859.9375.14648,2.33398.26367,4.18945.01904-.9375.09766-2.33398.23438-4.18945l3.54492-27.1875h6.94336Z"/>
      <path class="cls-4" d="m383.61021,1028.62279l-6.06445,19.16016c-.74268,1.89453-1.74805,5.08789-3.01758,9.58008v16.8457h-6.88477v-16.8457c-.3125-1.52344-.76172-3.13477-1.34766-4.83398-1.03564-2.91016-1.59229-4.49219-1.66992-4.74609l-6.03516-19.16016c-.01953-.01953-.01953-.10742,0-.26367h7.06055l5.47852,19.92188,5.44922-19.92188h7.03125v.26367Z"/>
      <path class="cls-4" d="m410.35825,1074.20872h-6.79688l-1.37695-8.70117h-8.58398l-1.37695,8.70117h-6.76758v-.11719l8.87695-45.79102h7.20703l8.81836,45.9082Zm-9.14062-14.58984l-3.33984-20.68359-3.36914,20.68359h6.70898Z"/>
      <path class="cls-4" d="m434.11802,1034.42357h-7.55859v39.78516h-6.82617v-39.78516h-7.55859v-6.06445h21.94336v6.06445Z"/>
      <path class="cls-4" d="m457.52622,1034.42357h-7.55859v39.78516h-6.82617v-39.78516h-7.55859v-6.06445h21.94336v6.06445Z"/>
      <path class="cls-4" d="m495.87583,1070.01927c0,2.79297-1.39648,4.18945-4.18945,4.18945h-18.31055v-45.84961h18.19336c2.71436,0,4.07227,1.40625,4.07227,4.21875v11.80664c0,1.5625-.48828,2.77344-1.46484,3.63281-.13672.11719-1.32861.86914-3.57422,2.25586,2.32422,1.42578,3.55469,2.20703,3.69141,2.34375,1.05469.91797,1.58203,2.17773,1.58203,3.7793v13.62305Zm-7.06055-24.78516v-11.10352h-8.58398v13.44727h5.27344l3.31055-2.34375Zm.17578,23.20312v-13.06641l-3.36914-2.22656h-5.39062v15.29297h8.75977Z"/>
      <path class="cls-4" d="m524.20591,1070.01927c0,2.79297-1.40625,4.18945-4.21875,4.18945h-14.56055c-2.77344,0-4.16016-1.39648-4.16016-4.18945v-41.66016h6.85547v39.96094h9.22852v-39.96094h6.85547v41.66016Z"/>
      <path class="cls-4" d="m551.68638,1070.01927c0,2.79297-1.38721,4.18945-4.16016,4.18945h-13.79883c-2.75391,0-4.13086-1.39648-4.13086-4.18945v-10.92773h6.85547v9.3457h8.37891v-8.99414l-13.74023-13.00781c-.99609-.95703-1.49414-2.17773-1.49414-3.66211v-10.19531c0-2.8125,1.37695-4.21875,4.13086-4.21875h13.79883c2.77295,0,4.16016,1.38672,4.16016,4.16016v10.25391h-6.85547v-8.64258h-8.37891v8.29102l13.74023,12.94922c.99609.9375,1.49414,2.17773,1.49414,3.7207v10.92773Z"/>
      <path class="cls-4" d="m580.19224,1074.20872h-6.91406v-20.56641h-9.28711v20.56641h-6.85547v-45.84961h6.85547v18.89648h9.28711v-18.89648h6.91406v45.84961Z"/>
      <path class="cls-4" d="m848.55747,1032.75365l-10.57617,41.45508h-7.03125l10.2832-39.96094h-8.75977v6.70898h-6.62109v-12.59766h22.70508v4.39453Z"/>
      <path class="cls-4" d="m875.24692,1070.01927c0,2.79297-1.37695,4.18945-4.13086,4.18945h-14.29688c-2.71484,0-4.07227-1.39648-4.07227-4.18945v-37.44141c0-2.8125,1.38672-4.21875,4.16016-4.21875h14.20898c2.75391,0,4.13086,1.40625,4.13086,4.21875v37.44141Zm-6.70898-1.69922v-34.07227h-9.05273v34.07227h9.05273Z"/>
      <path class="cls-4" d="m345.43638,1132.01927c0,2.79297-1.39648,4.18945-4.18945,4.18945h-14.29688c-2.71484,0-4.07227-1.39648-4.07227-4.18945v-37.44141c0-2.8125,1.35742-4.21875,4.07227-4.21875h14.29688c2.79297,0,4.18945,1.40625,4.18945,4.21875v10.72266h-6.82617v-9.05273h-8.87695v34.07227h8.87695v-9.63867h6.82617v11.33789Z"/>
      <path class="cls-4" d="m373.94224,1132.01927c0,2.79297-1.38721,4.18945-4.16016,4.18945h-14.88281c-2.71484,0-4.07227-1.39648-4.07227-4.18945v-37.44141c0-2.8125,1.35742-4.21875,4.07227-4.21875h14.88281c2.77295,0,4.16016,1.40625,4.16016,4.21875v37.44141Zm-6.85547-1.69922v-34.07227h-9.4043v34.07227h9.4043Z"/>
      <path class="cls-4" d="m397.46763,1136.20872h-18.01758v-45.84961h6.85547v39.72656h11.16211v6.12305Z"/>
      <path class="cls-4" d="m420.55357,1136.20872h-19.01367v-45.84961h18.83789v6.06445h-11.98242v13.38867h10.3125v5.94727h-10.3125v14.38477h12.1582v6.06445Z"/>
      <path class="cls-4" d="m460.45591,1127.56615c0,2.69531-.80127,4.80957-2.40234,6.34277-1.60156,1.5332-3.76025,2.2998-6.47461,2.2998h-13.97461v-45.84961h13.97461c2.71436,0,4.87305.77637,6.47461,2.3291,1.60107,1.55273,2.40234,3.67676,2.40234,6.37207v28.50586Zm-6.88477-1.14258v-26.33789c0-2.55859-1.33789-3.83789-4.01367-3.83789h-5.09766v34.07227h4.92188c2.79297,0,4.18945-1.29883,4.18945-3.89648Z"/>
      <path class="cls-4" d="m472.7313,1136.20872h-6.85547v-45.84961h6.85547v45.84961Z"/>
      <path class="cls-4" d="m496.37388,1136.20872h-18.01758v-45.84961h6.85547v39.72656h11.16211v6.12305Z"/>
      <path class="cls-4" d="m518.46372,1136.20872h-18.01758v-45.84961h6.85547v39.72656h11.16211v6.12305Z"/>
      <path class="cls-4" d="m545.65122,1132.01927c0,2.79297-1.38721,4.18945-4.16016,4.18945h-14.88281c-2.71484,0-4.07227-1.39648-4.07227-4.18945v-37.44141c0-2.8125,1.35742-4.21875,4.07227-4.21875h14.88281c2.77295,0,4.16016,1.40625,4.16016,4.21875v37.44141Zm-6.85547-1.69922v-34.07227h-9.4043v34.07227h9.4043Z"/>
      <path class="cls-4" d="m574.39146,1136.20872h-6.00586l-10.98633-28.85742c.29297,1.40625.43945,2.50977.43945,3.31055v25.54688h-6.67969v-45.84961h6.00586l10.98633,28.27148c-.29297-1.40625-.43945-2.50977-.43945-3.31055v-24.96094h6.67969v45.84961Z"/>
      <path class="cls-4" d="m849.49497,1132.01927c0,2.79297-1.37695,4.18945-4.13086,4.18945h-14.47266c-2.71484,0-4.07227-1.39648-4.07227-4.18945v-13.33008c0-1.69922.56641-2.99805,1.69922-3.89648,1.34766-.78125,2.70508-1.5625,4.07227-2.34375l-3.92578-2.28516c-1.19141-.9375-1.78711-2.19727-1.78711-3.7793v-11.80664c0-2.8125,1.38672-4.21875,4.16016-4.21875h14.26758c2.71484,0,4.07227,1.40625,4.07227,4.21875v11.80664c0,1.60156-.58594,2.86133-1.75781,3.7793l-3.92578,2.28516c1.34766.78125,2.70508,1.5625,4.07227,2.34375,1.15234.89844,1.72852,2.19727,1.72852,3.89648v13.33008Zm-6.82617-1.58203v-12.71484l-4.51172-2.57812-4.54102,2.57812v12.71484h9.05273Zm-.05859-23.32031v-10.98633h-8.87695v10.98633l4.42383,2.63672,4.45312-2.63672Z"/>
      <path class="cls-4" d="m877.29771,1132.01927c0,2.79297-1.37695,4.18945-4.13086,4.18945h-14.0625c-2.71484,0-4.07227-1.39648-4.07227-4.18945v-10.57617h6.73828v8.87695h8.81836v-11.51367l-8.4082-5.77148v-1.43555l8.4082-5.68359v-9.66797h-8.81836v8.34961h-6.73828v-10.01953c0-2.8125,1.38672-4.21875,4.16016-4.21875h13.97461c2.75391,0,4.13086,1.40625,4.13086,4.21875v10.78125c0,1.81641-.76172,3.22266-2.28516,4.21875l-4.24805,2.75391,4.30664,2.69531c1.48438.91797,2.22656,2.29492,2.22656,4.13086v12.86133Z"/>
    </g>
  </g>
  <g id="Paws">
    <g id="Paw-Left">
      <path class="cls-2" d="m282.73533,217.99898c1.74164.47066,5.379,3.77612,5.37894,23.11346,0,2.51849.07755,4.91547.15259,7.23349.3873,11.96547.05365,16.34264-5.20514,18.47504-1.49686.60701-2.88763.91476-4.1337.91476-1.47629,0-2.79898-.43553-4.04361-1.33147-7.17255-5.16319-10.95126-11.78023-10.92755-19.13567.06888-21.38354,15.22177-29.09081,18.77847-29.26962m28.93823.89259c2.80643,0,6.18918,1.77806,9.28091,4.87827,6.31708,6.33437,10.22418,16.52834,10.19659,26.60373-.00507,1.84151-1.38394,8.35054-7.44238,13.9109-1.02286.91754-4.73828,3.22374-7.44119,3.22374-.71625,0-1.08618-.16783-1.30215-.29407-7.52225-4.3972-7.81659-14.20004-7.47336-23.8638.03308-.93094.06332-1.7939.07681-2.57217.04047-2.33896.00153-4.63823-.03613-6.8618-.08411-4.96576-.16354-9.65613.71326-12.5929.55573-1.86127,1.08627-2.29053,2.98785-2.41737.1463-.00977.29263-.01453.43979-.01453m39.39737,43.14076c1.16199.21797,5.1188,2.30455,9.55933,7.94583,4.47226,5.68161,7.1366,12.05937,7.30988,17.498.07416,2.32758-1.55911,12.15584-7.57816,17.24007-1.5817,1.33607-7.00519,3.72267-12.18185,3.72267-1.41736,0-2.66943-.18353-3.72144-.54547-5.07938-1.74763-8.36417-5.85516-9.07428-8.21362-2.18369-7.25284-.67322-11.71124,1.23911-17.35577l.17636-.52097c5.05566-14.95787,12.31293-19.30414,14.27106-19.77074m-105.64578.96059c.43697.08313,6.35138,1.53423,15.96298,17.96968,1.5116,2.58481,1.75888,5.38527.75592,8.56148-2.33353,7.38983-10.44667,13.96782-12.34061,14.86496-1.61472.60104-3.35991.91853-5.05125.91853-2.81781,0-4.82574-.85156-5.68907-1.58084-5.65167-4.77393-5.36157-13.22789-5.26627-16.00592l.00996-.29674c.19057-5.98184,2.071-12.41924,5.15913-17.66161,2.86353-4.86111,5.60335-6.666,6.4592-6.76955m52.94989,24.83424c5.85641.00058,13.81476,4.75116,15.76965,9.4138.63202,1.50743,1.17819,3.03014,1.70636,4.50273,3.19562,8.90955,6.50006,18.12241,27.72473,24.88394,3.22333,1.02682,5.03616,3.01767,5.87793,6.45517.82739,3.3788.56964,7.95135-.72586,12.8754-1.90881,7.25522-8.29541,9.65842-13.31689,10.39691-1.43481.211-2.87.31357-4.3876.31357-4.34274,0-8.75076-.87625-13.4176-1.80392-5.47495-1.08829-11.68039-2.32184-18.90353-2.37234l-.38989-.00137c-6.7868-.00027-11.39914,1.2782-15.85962,2.51453-5.42416,1.50348-11.03299,3.05811-22.35489,3.05811l-.42792-.00076c-6.70758-.02344-12.27852-4.95718-15.28435-13.5361-2.44963-6.99152,2.55431-17.92581,7.92281-20.3506,13.18106-5.95354,18.01636-12.30054,21.21597-16.50047,1.10446-1.44977,2.14847-3.0266,3.25372-4.696,4.85938-7.33954,9.88416-14.92897,21.40921-15.1508l.18777-.00177m-15.51907-75.83138c-6.29874,0-24.81754,9.94995-24.89908,35.25348-.02744,8.51733,3.86435,17.1443,13.42215,24.02454,1.67117,1.20299,4.16489,2.46194,7.54898,2.46194,1.85745,0,3.98257-.37895,6.3884-1.35451,11.53088-4.6757,8.79785-16.7672,8.79785-31.2688.00003-10.61777-.70441-27.2263-10.43689-29.04807-.24301-.0455-.5184-.06859-.82141-.06859h0Zm28.8176.8958c-.28082,0-.56003.00919-.83926.02782-11.5708.77194-9.03189,14.30347-9.26462,27.75497-.13483,7.79286-2.06885,24.44975,10.36771,31.71967,1.36102.79559,2.8399,1.11415,4.33008,1.11415,5.06952,0,10.27811-3.68349,11.49411-4.79953,7.41803-6.80812,9.38055-15.0685,9.38947-18.31859.05557-20.29118-13.35733-37.49849-25.47748-37.49849h0Zm39.32529,43.12428c-3.58807,0-13.64035,5.39604-19.88306,23.866-2.08774,6.1768-4.29218,12.17633-1.47659,21.52774,1.35962,4.51573,6.23254,9.8746,12.86746,12.15739,1.78058.61263,3.71243.87192,5.67346.87192,6.51865,0,13.36115-2.86473,16.05359-5.13905,8.11069-6.85103,9.79956-18.9957,9.70337-22.0148-.48328-15.16837-15.35718-31.15903-22.88724-31.26883-.01663-.00024-.03406-.00037-.05099-.00037h0Zm-105.5582.97397c-.0246,0-.04868.00018-.07291.00053-7.53009.1098-17.07463,15.07426-17.55789,30.24263-.09621,3.01913-.72917,14.2263,7.3815,21.07733,2.19116,1.85089,5.67328,2.99722,9.56082,2.99722,2.32646,0,4.79779-.41034,7.22545-1.32582,4.133-1.55856,23.13484-17.43649,14.58983-32.04807-10.03894-17.16618-17.55327-20.94383-21.1268-20.94383h0Zm52.93243,24.83734c-.10068.00002-.20215.00098-.302.0029-17.71329.34093-23.58597,14.68356-29.31952,22.20963-2.95346,3.8768-7.14127,9.35144-18.91301,14.6684-8.39241,3.79063-14.52347,18.07594-11.11551,27.80266,3.79697,10.83691,11.39081,17.51877,20.92586,17.55212.15121.00052.29953.00076.44894.00076,21.72,0,24.68054-5.57312,38.21423-5.5726.1149,0,.23245.00043.34891.00122,12.74716.08917,22.04333,4.17642,32.36237,4.17642,1.71765,0,3.46573-.11346,5.26053-.37741,6.1004-.89713,15.47269-4.26352,18.24649-14.80643,2.74225-10.42294,2.30527-22.93018-9.13339-26.57414-21.76965-6.93513-21.24225-15.31244-25.71896-25.9897-3.02795-7.22197-13.39948-13.09444-21.30493-13.09383h0Z"/>
    </g>
    <g id="Paw-Right">
      <path class="cls-2" d="m917.26469,217.99898c3.5567.1786,18.70953,7.88522,18.7785,29.26959.02362,7.3555-3.75507,13.9725-10.92761,19.1357-1.24457.89594-2.56726,1.33147-4.04358,1.33147-1.24609,0-2.63684-.30775-4.13379-.91476-5.25873-2.1324-5.59241-6.50957-5.20508-18.47504.07501-2.31802.15259-4.715.15259-7.23349,0-19.33612,3.63696-22.64243,5.37897-23.11346m-28.93823.89259c.14685,0,.29407.00481.43982.01453,1.90155.12685,2.43207.55611,2.98779,2.41737.87683,2.9368.79742,7.62717.71332,12.59293-.03766,2.22357-.0766,4.52284-.03613,6.86177.01343.77827.0437,1.64124.07678,2.57217.3432,9.66373.04889,19.46657-7.47333,23.86377-.216.12622-.586.2941-1.30219.2941-2.70282,0-6.41821-2.30614-7.43707-3.22-6.06256-5.5641-7.44147-12.07314-7.44653-13.91457-.02753-10.07581,3.87927-20.26978,10.19592-26.60378,3.0918-3.10023,6.47479-4.8783,9.28162-4.8783m-39.40485,43.13898c1.94666.45705,9.21619,4.79501,14.2785,19.77255l.17627.5208c1.91241,5.64458,3.42291,10.10301,1.2392,17.35587-.71008,2.35851-3.99487,6.46603-9.07422,8.21364-1.05212.36197-2.3042.5455-3.7215.5455-5.17664,0-10.60016-2.3866-12.18182-3.72263-6.0191-5.0843-7.65234-14.91254-7.57819-17.24014.17328-5.4386,2.83759-11.81636,7.30988-17.49797,4.4577-5.66315,8.42798-7.74396,9.55188-7.94762m105.6521.96257c.86377.10782,3.60028,1.91422,6.46033,6.76929,3.08813,5.24237,4.96857,11.67979,5.15918,17.6617l.00995.29674c.09534,2.77803.38538,11.23196-5.26636,16.00594-.86328.72923-2.87122,1.5808-5.68896,1.5808-1.69128,0-3.43652-.3175-5.05109-.91844-1.89331-.8965-10.00714-7.47479-12.34082-14.8651-1.00293-3.17616-.75568-5.97662.75592-8.56143,9.60388-16.42221,15.5163-17.88417,15.96185-17.96948m-52.94666,24.83405h-.00012l.18652.0018c11.52429.2218,16.54913,7.8112,21.40845,15.15074,1.10535,1.6694,2.14935,3.24626,3.25378,4.696,3.19958,4.19997,8.03497,10.547,21.216,16.5005,5.36847,2.42479,10.37238,13.35909,7.92279,20.35057-3.00586,8.57895-8.57684,13.5127-15.28479,13.53613l-.42755.00076c-11.32416,0-16.93317-1.55472-22.35754-3.0582-4.45966-1.23615-9.07117-2.51434-15.85669-2.51443l-.39087.00137c-7.22192.05051-13.42761,1.28406-18.90283,2.37234-4.66699.92767-9.07526,1.80392-13.41754,1.80392-1.51776,0-2.95294-.10257-4.38757-.31357-5.02155-.73849-11.40808-3.14169-13.31689-10.39691-1.29553-4.92404-1.55334-9.49663-.72589-12.87544.84174-3.43745,2.65454-5.4283,5.87793-6.45515,21.22461-6.76151,24.52911-15.97437,27.72473-24.88394.52814-1.47256,1.07434-2.99527,1.70636-4.50273,1.95496-4.6628,9.91449-9.41367,15.77173-9.41377m15.51697-75.83138c-.30347,0-.57806.02303-.82141.06859-9.73248,1.82176-10.43689,18.4303-10.43689,29.04807,0,14.5016-2.73303,26.59309,8.79785,31.2688,2.4054.97539,4.53119,1.35451,6.38843,1.35451,3.38458,0,5.87769-1.25885,7.54895-2.46194,9.5578-6.88023,13.44958-15.5072,13.42218-24.02454-.08154-25.30191-18.59924-35.25348-24.89911-35.25348h0Zm-28.81757.8958c-12.12073,0-25.53308,17.20604-25.47748,37.49849.00891,3.25009,1.97144,11.51047,9.38947,18.31859,1.21588,1.11595,6.42499,4.79953,11.49408,4.79953,1.4906,0,2.96869-.31834,4.33008-1.11415,12.43658-7.26991,10.50256-23.9268,10.36774-31.71967-.23273-13.45151,2.30615-26.98303-9.26465-27.75497-.2785-.01857-.5592-.02782-.83923-.02782h0Zm-39.32526,43.12428c-.01721,0-.03418.00012-.05103.00037-7.53009.1098-22.40399,16.10046-22.88727,31.26883-.09619,3.0191,1.59271,15.16377,9.70337,22.0148,2.69226,2.27414,9.5354,5.13905,16.05359,5.13905,1.96155,0,3.8924-.25912,5.67346-.87192,6.63495-2.28279,11.50787-7.64166,12.86749-12.15739,2.81555-9.35141.61115-15.35094-1.47662-21.52774-6.24231-18.46881-16.29443-23.866-19.883-23.866h0Zm105.55811.97397c-3.57318,0-11.08722,3.7766-21.12677,20.94383-8.54498,14.61157,10.45685,30.4895,14.58984,32.04807,2.42725.91533,4.89929,1.32582,7.22546,1.32582,3.888,0,7.36945-1.14615,9.56079-2.99722,8.11072-6.85103,7.47772-18.0582,7.38153-21.07733-.48328-15.16837-10.02777-30.13283-17.55792-30.24263-.02399-.00035-.04852-.00053-.07294-.00053h0Zm-52.93237,24.83734c-7.90527.00012-18.27722,5.8723-21.30493,13.09383-4.47668,10.67726-3.94934,19.05457-25.71899,25.9897-11.43866,3.64397-11.87561,16.1512-9.13336,26.57414,2.7738,10.54291,12.14606,13.9093,18.24646,14.80643,1.79559.26404,3.54218.37741,5.2605.37741,10.31818,0,19.61615-4.08725,32.36243-4.17642.11731-.00082.23315-.00122.34888-.00122,13.53241.00018,16.49194,5.5726,38.21423,5.5726.14807,0,.29907-.00024.44891-.00076,9.5351-.03336,17.12891-6.71521,20.9259-17.55212,3.40796-9.72672-2.72308-24.01202-11.11548-27.80266-11.77179-5.31696-15.95959-10.7916-18.91302-14.6684-5.73358-7.52606-11.60626-21.8687-29.31952-22.20963-.10034-.00194-.20087-.0029-.302-.0029h0Z"/>
    </g>
  </g>
  <g id="_2023" data-name="2023">
    <path id="_2" data-name="2" class="cls-3" d="m501.56885,255.23553c0,4.79468-1.65186,10.10547-4.95557,15.93555l-41.78223,72.97314h46.54346v19.91943h-73.75049v-14.08936l51.49902-90.56055v-28.08154h-27.69287v28.27588h-22.25146v-33.81445c0-9.19751,4.63062-13.79785,13.89502-13.79785h44.6001c9.26294,0,13.89502,4.60034,13.89502,13.79785v29.44189Z"/>
    <path id="_0" data-name="0" class="cls-3" d="m592.51807,350.16864c0,9.26465-4.56689,13.89502-13.70068,13.89502h-47.41797c-9.00464,0-13.50635-4.63037-13.50635-13.89502v-124.18066c0-9.32812,4.59888-13.99219,13.79785-13.99219h47.12646c9.13379,0,13.70068,4.66406,13.70068,13.99219v124.18066Zm-22.25146-5.63574v-113.00635h-30.0249v113.00635h30.0249Z"/>
    <path id="_2-2" data-name="2" class="cls-3" d="m682.2041,255.23553c0,4.79468-1.65186,10.10547-4.95557,15.93555l-41.78223,72.97314h46.54346v19.91943h-73.75049v-14.08936l51.49902-90.56055v-28.08154h-27.69287v28.27588h-22.25146v-33.81445c0-9.19751,4.63037-13.79785,13.89502-13.79785h44.6001c9.2627,0,13.89502,4.60034,13.89502,13.79785v29.44189Z"/>
    <path id="_3" data-name="3" class="cls-3" d="m772.37598,350.16864c0,9.26465-4.56689,13.89502-13.70068,13.89502h-46.64062c-9.00488,0-13.50635-4.63037-13.50635-13.89502v-35.07764h22.34863v29.44189h29.24756v-38.18701l-27.88721-19.14209v-4.76123l27.88721-18.85059v-32.06543h-29.24756v27.69287h-22.34863v-33.23145c0-9.32812,4.59863-13.99219,13.79785-13.99219h46.34912c9.13379,0,13.70068,4.66406,13.70068,13.99219v35.75781c0,6.02441-2.52637,10.68848-7.5791,13.99219l-14.08936,9.13379,14.28369,8.93945c4.92236,3.0459,7.38477,7.6123,7.38477,13.70068v42.65674Z"/>
  </g>
  <g id="Bantam-State">
    <g>
      <g>
        <path id="B-OUTLINE" class="cls-1" d="m234.82996,50.29931c14.28404-.00168,26.23846,14.63388,26.0322,31.98949v1.96142c0,7.59424-2.0752,14.63526-5.60254,20.31836,5.93457,6.68896,9.5459,16.14404,9.5459,26.65528v5.28076c0,5.7837-1.16211,11.01416-3.48633,15.7417-2.2832,4.72754-5.39552,8.49952-9.29688,11.31592-3.90137,2.76612-8.21779,4.17432-12.94922,4.17432h-36.35742v-49.03566l-4.85645-5.93456,4.85645-5.93458v-56.52928h31.75c.12077-.0021.24384-.00316.36429-.00317m-12.73245,44.36155h10.75c2.40723,0,4.44043-1.00584,6.10059-3.01756,1.70216-2.06202,2.53221-4.52638,2.53221-7.39308v-1.10644c0-2.56494-.74706-4.77784-2.28319-6.58838-1.49414-1.86084-3.32031-2.76612-5.43652-2.76612h-11.66309v20.87158m1.32812,49.58888h12.20216c2.3662,0,4.35837-1.00586,5.97655-3.01758,1.66014-2.01172,2.49023-4.42578,2.49023-7.24218v-2.76612c0-3.6211-1.03711-6.68896-3.15428-9.2539-2.11623-2.56494-4.64845-3.82228-7.59474-3.82228h-9.91992v26.10206m11.40675-95.95044v2l-.0004-2h-.00227c-.13193.00002-.26663.00118-.3988.00348l-31.71524-.0003h-2v57.81525l-4.40424,5.38199-1.03653,1.26662,1.03653,1.26662,4.40424,5.38197v50.32163h38.35742c5.10854,0,9.85448-1.52842,14.106-4.5428,4.18964-3.02442,7.52962-7.08458,9.94106-12.07766,2.44336-4.96974,3.68536-10.5629,3.68536-16.61148v-5.28076c0-10.20147-3.22012-19.67906-9.09665-26.86373,3.37582-5.94875,5.15329-12.86835,5.15329-20.1099v-1.96142c.11832-9.94308-3.54782-19.4381-10.05855-26.02666-5.07426-5.13492-11.45656-7.96284-17.97122-7.96284h0Zm-10.73488,27.48998h9.66309c1.53944,0,2.77139.64132,3.87701,2.0183l.01694.0211.01753.02064c1.21675,1.43412,1.80823,3.16594,1.80823,5.29446v1.10644c0,2.42692-.67859,4.42874-2.0746,6.11988-1.27214,1.54152-2.76308,2.29076-4.5582,2.29076h-8.75v-16.87158h0Zm1.32812,44.3584h7.91992c2.35405,0,4.33369,1.01242,6.05203,3.0951,1.81488,2.19872,2.69699,4.80924,2.69699,7.98108v2.76612c0,2.35912-.66495,4.31166-2.03279,5.9692-1.26219,1.5689-2.66609,2.29056-4.43399,2.29056h-10.20216v-22.10206h0Z"/>
        <path id="A-OUTLINE" class="cls-1" d="m317.56919,50.30248l12.28516,56.98194,4.48242,5.48192-2.61426,3.21876,11.16406,51.75146h-19.38184l-4.3584-23.73828h-26.4375l-4.3584,23.73828h-19.38184l11.08105-51.5503-2.78027-3.41992,4.81445-5.93456,12.16016-56.5293h23.3252m-21.45703,75.23828h19.63086l-9.83594-48.38184-9.79492,48.38184m23.07178-77.23828h-26.55548l-.33975,1.5794-12.05951,56.06149-4.51297,5.56295-1.02328,1.26134,1.02457,1.2603,2.17526,2.6757-10.87949,50.61259-.52026,2.42032h23.52365l.3009-1.63884,4.0575-22.09944h23.10504l4.0575,22.09944.3009,1.63884h23.52551l-.52243-2.42174-10.96173-50.81358,2.00937-2.47401,1.02753-1.26514-1.03168-1.26176-4.17725-5.1087-12.18356-56.51066-.34033-1.5785h0Zm-20.62628,75.23828l7.35355-36.32269,7.38431,36.32269h-14.73785Z"/>
        <path id="N-OUTLINE" class="cls-1" d="m410.09556,50.30248v56.73046l4.69043,5.7334-4.69043,5.7334v49.23682h-19.38184l-19.38281-65.1294v65.1294h-19.38184v-49.08594l-.04199.0503-4.85547-5.93458,4.85547-5.93456.04199.05028v-56.57958h19.38184l19.38281,65.1294V50.30248h19.38184m2-2h-23.38184v53.39744l-15.46591-51.96792-.42542-1.42952h-22.87332v57.76406l-4.44537,5.43334-1.03619,1.26646,1.03619,1.26646,4.44537,5.43336v50.2704h23.38184v-53.39744l15.46588,51.96792.42545,1.42952h22.87332v-50.52297l4.2384-5.18087,1.03601-1.26638-1.03601-1.26638-4.2384-5.18087v-58.01661h0Z"/>
        <path id="T-OUTLINE" class="cls-1" d="m481.41196,50.30248v23.48682h-21.54004v33.14306l4.77246,5.83398-4.77246,5.834v49.13622h-19.38281v-49.03564l-4.85547-5.93458,4.85547-5.93456v-33.04248h-21.54004v-23.48682h62.46289m2-2h-66.46289v27.48682h21.54004v30.32857l-4.40338,5.38201-1.03619,1.26646,1.03619,1.26646,4.40338,5.38203v50.32173h23.38281v-50.42239l4.32047-5.28149,1.03592-1.26634-1.03592-1.26634-4.32047-5.28147v-30.42923h21.54004v-27.48682h0Z"/>
        <path id="A-OUTLINE-2" data-name="A-OUTLINE" class="cls-1" d="m523.09165,50.30248l12.28516,56.98194,4.48242,5.48192-2.61426,3.21876,11.16406,51.75146h-19.38184l-4.3584-23.73828h-26.4375l-4.3584,23.73828h-19.38184l11.08105-51.5503-2.78027-3.41992,4.81445-5.93456,12.16016-56.5293h23.3252m-21.45703,75.23828h19.63086l-9.83594-48.38184-9.79492,48.38184m23.07178-77.23828h-26.55548l-.33975,1.5794-12.05951,56.06149-4.51297,5.56295-1.02328,1.26134,1.02457,1.2603,2.17526,2.6757-10.87949,50.61259-.52026,2.42032h23.52365l.3009-1.63884,4.0575-22.09944h23.10507l4.0575,22.09944.3009,1.63884h23.52551l-.52246-2.42174-10.96173-50.81358,2.0094-2.47401,1.02753-1.26514-1.03174-1.26176-4.17725-5.1087-12.18353-56.51066-.34033-1.5785h0Zm-20.62628,75.23828l7.35355-36.32269,7.38431,36.32269h-14.73785Z"/>
        <path id="M-OUTLINE" class="cls-1" d="m638.65317,50.30248v56.93164l4.52344,5.53222-4.52344,5.48194v49.48828h-19.38281v-58.74218l-14.19434,58.74218h-14.23535l-14.19434-58.74218v58.74218h-19.38281v-49.23682l-4.68945-5.7334,4.68945-5.7334v-56.73046h19.38281l21.33301,88.06298,21.29102-88.06298h19.38281m2-2h-22.95691l-.36987,1.53-19.34894,80.03023-19.38733-80.03111-.37042-1.52912h-22.95618v58.01672l-4.23755,5.18092-1.03564,1.26622,1.03564,1.26622,4.23755,5.18092v50.52308h23.38281v-43.95032l10.25031,42.42007.36975,1.53024h17.38391l.36975-1.53024,10.25031-42.42007v43.95032h23.38281v-50.76966l4.06604-4.92767,1.04559-1.2671-1.03986-1.27178-4.07178-4.97981v-58.21807h0Z"/>
        <path id="S-OUTLINE" class="cls-1" d="m717.0554,47.92535c.61292,0,1.2287.02123,1.84875.06364,5.1875.35206,9.96094,2.2129,14.36035,5.48194,4.35742,3.36962,7.76074,7.8457,10.25098,13.32764,2.49023,5.48192,3.77734,11.3662,3.81836,17.60254h-20.08789c-.04102-2.56496-.70508-4.92872-1.99219-7.04102-1.24512-2.1123-2.86328-3.6211-4.89746-4.47608-1.03296-.40882-2.07684-.60994-3.12604-.60995-1.01587,0-2.03668.18854-3.05756.55965-2.03418.7544-3.73535,2.1626-5.06348,4.17432-1.70215,2.96728-2.32422,6.23634-1.82617,9.80714.20703,1.55908.70508,3.06786,1.45215,4.42578,1.53613,2.8164,3.90137,4.72754,6.43359,6.28662,2.98828,1.76024,6.05957,3.36962,9.21387,4.72754,2.11621.95556,4.19141,1.96142,6.22559,3.01758.74707.40234,1.49414.80468,2.24121,1.25732h-.04199l16.80957,6.18604-5.02246,6.13574-.04199-.0503c2.03418,4.62696,2.98828,9.60596,2.86426,14.88672-.16602,6.89014-1.78418,13.22706-4.85645,19.06104-3.07031,5.78368-7.1377,10.25976-12.24316,13.32764-4.11188,2.34975-8.41284,3.52468-12.9024,3.52468-1.08374,0-2.17834-.06844-3.28412-.20536-5.68555-.6538-10.79102-3.06786-15.35645-7.1416-4.48242-4.2246-7.76074-9.55566-9.83594-15.94286-2.0752-6.4375-2.65625-13.07618-1.70215-19.86572,6.59961,0,13.24023,0,19.83887-.0503-.29004,4.17432-.33203,8.44922,1.12109,12.2212,1.41113,3.16844,3.56934,5.18016,6.43262,6.13574.96271.31664,1.90277.47314,2.82141.47314,1.85382,0,3.62085-.63712,5.31335-1.88134,2.36621-2.11232,3.77734-4.97902,4.15039-8.54982.37402-3.5708-.33203-6.78954-2.19922-9.55566-1.61914-1.96142-3.48633-3.5205-5.60352-4.62696-1.03711-.6035-2.11621-1.20702-3.19531-1.76024l-25.27637-6.13574,4.93945-6.08546c-1.37012-1.25732-2.57324-2.71582-3.69434-4.37548-3.61035-5.68312-5.3125-11.91944-5.06348-18.6587.29102-6.78954,1.99219-13.07616,5.10547-18.91016,3.1543-5.88428,7.22168-10.31006,12.24316-13.32762,4.12531-2.30015,8.4115-3.43328,12.88562-3.43328m0-2c-4.80933,0-9.47241,1.2403-13.85962,3.68646l-.02832.01582-.02783.01672c-5.3045,3.18764-9.67017,7.93056-12.97571,14.097-3.24274,6.07648-5.03906,12.72676-5.34094,19.76942-.26337,7.12646,1.54468,13.78982,5.37347,19.81678l.01514.02376.01569.02332c.86072,1.27411,1.74036,2.39658,2.66266,3.3953l-3.80328,4.6857-1.99463,2.45738,3.07568.7466,25.04401,6.07933c.87421.45352,1.82343.97897,2.89355,1.6017l.03931.02286.04028.02106c1.81793.95007,3.47443,2.31312,4.92499,4.05236,1.5293,2.30657,2.13983,5.0477,1.81494,8.14938-.31335,2.9998-1.46472,5.42233-3.42273,7.20269-1.34021.96669-2.6665,1.43681-4.05188,1.43681-.70496,0-1.44397-.1255-2.19653-.37302-2.33978-.78088-4.04694-2.41847-5.20959-5.00282-1.30762-3.43332-1.24121-7.46666-.97382-11.31562l.14972-2.15502-2.16016.01646c-6.591.05024-13.31805.05024-19.82361.05024h-1.73859l-.24194,1.72168c-.98956,7.04182-.39099,14.0257,1.77911,20.75766,2.17981,6.7091,5.66754,12.3548,10.36774,16.7847l.01984.01868.02039.01814c4.90289,4.37492,10.44073,6.9441,16.45953,7.63622,1.16443.14426,2.35205.21846,3.51257.21846,4.82111,0,9.49597-1.27454,13.89471-3.78822,5.38928-3.23785,9.75623-7.98318,13.0174-14.12632,3.20575-6.08742,4.91699-12.79782,5.08929-19.95064.12006-5.11206-.72968-9.99303-2.52734-14.52999l4.27576-5.22353,1.7793-2.17364-2.63617-.97012-16.52295-6.08057c-.75592-.45378-1.50366-.85649-2.22772-1.24645-2.08417-1.08238-4.21191-2.11372-6.35138-3.07978-2.92462-1.25938-5.86517-2.76856-9.02185-4.628-2.7821-1.7134-4.54822-3.42236-5.69287-5.52102-.63062-1.1463-1.0531-2.43438-1.22534-3.73138-.43518-3.12014.07153-5.89524,1.54706-8.49385,1.08752-1.62769,2.45172-2.7544,4.05542-3.34915.78973-.28706,1.58856-.43486,2.36212-.43484.79858,0,1.60272.158,2.39001.4696,1.57043.66054,2.8623,1.85378,3.91052,3.63202,1.10803,1.81878,1.68005,3.84834,1.71539,6.05738l.03149,1.96804h24.06934l-.01324-2.01316c-.0426-6.47504-1.38745-12.67126-3.99738-18.41656-2.64545-5.82362-6.29541-10.5617-10.84845-14.08258-4.77301-3.54714-9.96033-5.52278-15.44836-5.89522-.66144-.04526-1.32935-.06824-1.98419-.06824h0Z"/>
        <path id="T-OUTLINE-2" data-name="T-OUTLINE" class="cls-1" d="m813.46079,50.30248v23.48682h-21.54102v33.14306l4.77344,5.83398-4.77344,5.834v49.13622h-19.38281v-49.03564l-4.85547-5.93458,4.85547-5.93456v-33.04248h-21.54004v-23.48682h62.46387m2-2h-66.46387v27.48682h21.54004v30.32857l-4.40338,5.38201-1.03619,1.26646,1.03619,1.26646,4.40338,5.38203v50.32174h23.38281v-50.42227l4.32135-5.28145,1.03625-1.2665-1.03625-1.2665-4.32135-5.28144v-30.4291h21.54102v-27.48682h0Z"/>
        <path id="A-OUTLINE-3" data-name="A-OUTLINE" class="cls-1" d="m855.14048,50.30248l12.28516,56.98194,4.48242,5.48192-2.61426,3.21876,11.16504,51.75146h-19.38281l-4.35742-23.73828h-26.43848l-4.3584,23.73828h-19.38184l11.08105-51.5503-2.78027-3.41992,4.81445-5.93456,12.16113-56.5293h23.32422m-21.45703,75.23828h19.63086l-9.83594-48.38184-9.79492,48.38184m23.07178-77.23828h-26.55444l-.33978,1.57936-12.06049,56.06149-4.513,5.56299-1.02332,1.26134,1.0246,1.2603,2.17523,2.6757-10.87946,50.61259-.52026,2.42032h23.52362l.3009-1.63884,4.0575-22.09944h23.10596l4.05658,22.09936.30084,1.63892h23.52661l-.52246-2.42178-10.96271-50.81356,2.0094-2.47398,1.02753-1.26514-1.03174-1.26176-4.17725-5.1087-12.18353-56.51066-.34033-1.5785h0Zm-20.62628,75.23828l7.35352-36.3227,7.38434,36.3227h-14.73785Z"/>
        <path id="T-OUTLINE-3" data-name="T-OUTLINE" class="cls-1" d="m936.00181,50.30248v23.48682h-21.54004v33.14306l4.77246,5.83398-4.77246,5.834v49.13622h-19.38184v-49.03564l-4.85645-5.93458,4.85645-5.93456v-33.04248h-21.54102v-23.48682h62.46289m2-2h-66.46289v27.48682h21.54102v30.32844l-4.40424,5.38198-1.03656,1.26662,1.03656,1.26662,4.40424,5.38199v50.32161h23.38184v-50.42239l4.3205-5.28149,1.03589-1.26634-1.03589-1.26634-4.3205-5.28147v-30.42923h21.54004v-27.48682h0Z"/>
        <path id="E-OUTLINE" class="cls-1" d="m997.98032,50.30248v23.48682h-33.57715v23.48682h25.31738v23.4868h-25.31738v23.48682h33.57715v23.48682h-52.95898v-49.03564l-4.85645-5.93458,4.85645-5.93456v-56.5293h52.95898m2-2h-56.95898v57.81527l-4.40424,5.38198-1.03656,1.26662,1.03656,1.26662,4.40424,5.38199v50.32161h56.95898v-27.48682h-33.57715v-19.48682h25.31738v-27.4868h-25.31738v-19.48682h33.57715v-27.48682h0Z"/>
      </g>
      <g id="Bantam_State_Gray" data-name="Bantam State Gray">
        <path id="B" class="cls-2" d="m202.71567,167.73656v-49.03564l-4.85645-5.93457,4.85645-5.93457v-56.5293h31.75c14.44336-.25146,26.60449,14.48438,26.39648,31.98633v1.96143c0,7.59424-2.0752,14.63525-5.60254,20.31836,5.93457,6.68896,9.5459,16.14404,9.5459,26.65527v5.28076c0,5.78369-1.16211,11.01416-3.48633,15.7417-2.2832,4.72754-5.39551,8.49951-9.29688,11.31592-3.90137,2.76611-8.21777,4.17432-12.94922,4.17432h-36.35742Zm19.38184-93.94727v20.87158h10.75c2.40723,0,4.44043-1.00586,6.10059-3.01758,1.70215-2.06201,2.53223-4.52637,2.53223-7.39307v-1.10645c0-2.56494-.74707-4.77783-2.2832-6.58838-1.49414-1.86084-3.32031-2.76611-5.43652-2.76611h-11.66309Zm21.99707,57.43457c0-3.62109-1.03711-6.68896-3.1543-9.25391-2.11621-2.56494-4.64844-3.82227-7.59473-3.82227h-9.91992v26.10205h12.20215c2.36621,0,4.3584-1.00586,5.97656-3.01758,1.66016-2.01172,2.49023-4.42578,2.49023-7.24219v-2.76611Z"/>
        <path id="A" class="cls-2" d="m334.33677,112.76634l-2.61426,3.21875,11.16406,51.75146h-19.38184l-4.3584-23.73828h-26.4375l-4.3584,23.73828h-19.38184l11.08105-51.55029-2.78027-3.41992,4.81445-5.93457,12.16016-56.5293h23.3252l12.28516,56.98193,4.48242,5.48193Zm-38.22461,12.77441h19.63086l-9.83594-48.38184-9.79492,48.38184Z"/>
        <path id="N" class="cls-2" d="m351.94907,118.65062l-.04199.05029-4.85547-5.93457,4.85547-5.93457.04199.05029v-56.57959h19.38184l19.38281,65.12939V50.30247h19.38184v56.73047l4.69043,5.7334-4.69043,5.7334v49.23682h-19.38184l-19.38281-65.12939v65.12939h-19.38184v-49.08594Z"/>
        <path id="T" class="cls-2" d="m440.48911,106.83177v-33.04248h-21.54004v-23.48682h62.46289v23.48682h-21.54004v33.14307l4.77246,5.83398-4.77246,5.83398v49.13623h-19.38281v-49.03564l-4.85547-5.93457,4.85547-5.93457Z"/>
        <path id="A-2" data-name="A" class="cls-2" d="m539.85923,112.76634l-2.61426,3.21875,11.16406,51.75146h-19.38184l-4.3584-23.73828h-26.4375l-4.3584,23.73828h-19.38184l11.08105-51.55029-2.78027-3.41992,4.81445-5.93457,12.16016-56.5293h23.3252l12.28516,56.98193,4.48242,5.48193Zm-38.22461,12.77441h19.63086l-9.83594-48.38184-9.79492,48.38184Z"/>
        <path id="M" class="cls-2" d="m619.27036,167.73656v-58.74219l-14.19434,58.74219h-14.23535l-14.19434-58.74219v58.74219h-19.38281v-49.23682l-4.68945-5.7334,4.68945-5.7334v-56.73047h19.38281l21.33301,88.06299,21.29102-88.06299h19.38281v56.93164l4.52344,5.53223-4.52344,5.48193v49.48828h-19.38281Z"/>
        <path id="S" class="cls-2" d="m707.07505,126.39574c-.29004,4.17432-.33203,8.44922,1.12109,12.22119,1.41113,3.16846,3.56934,5.18018,6.43262,6.13574,2.90527.95557,5.60352.45264,8.13477-1.4082,2.36621-2.1123,3.77734-4.979,4.15039-8.5498.37402-3.5708-.33203-6.78955-2.19922-9.55566-1.61914-1.96143-3.48633-3.52051-5.60352-4.62695-1.03711-.60352-2.11621-1.20703-3.19531-1.76025l-25.27637-6.13574,4.93945-6.08545c-1.37012-1.25732-2.57324-2.71582-3.69434-4.37549-3.61035-5.68311-5.3125-11.91943-5.06348-18.65869.29102-6.78955,1.99219-13.07617,5.10547-18.91016,3.1543-5.88428,7.22168-10.31006,12.24316-13.32764,4.69043-2.61523,9.58789-3.72168,14.73438-3.36963,5.1875.35205,9.96094,2.21289,14.36035,5.48193,4.35742,3.36963,7.76074,7.8457,10.25098,13.32764s3.77734,11.36621,3.81836,17.60254h-20.08789c-.04102-2.56494-.70508-4.92871-1.99219-7.04102-1.24512-2.1123-2.86328-3.62109-4.89746-4.47607-2.0332-.80469-4.1084-.80469-6.18359-.05029-2.03418.75439-3.73535,2.1626-5.06348,4.17432-1.70215,2.96729-2.32422,6.23633-1.82617,9.80713.20703,1.55908.70508,3.06787,1.45215,4.42578,1.53613,2.81641,3.90137,4.72754,6.43359,6.28662,2.98828,1.76025,6.05957,3.36963,9.21387,4.72754,2.11621.95557,4.19141,1.96143,6.22559,3.01758.74707.40234,1.49414.80469,2.24121,1.25732h-.04199l16.80957,6.18604-5.02246,6.13574-.04199-.05029c2.03418,4.62695,2.98828,9.60596,2.86426,14.88672-.16602,6.89014-1.78418,13.22705-4.85645,19.06104-3.07031,5.78369-7.1377,10.25977-12.24316,13.32764-5.10449,2.91699-10.5,4.02344-16.18652,3.31934-5.68555-.65381-10.79102-3.06787-15.35645-7.1416-4.48242-4.22461-7.76074-9.55566-9.83594-15.94287-2.0752-6.4375-2.65625-13.07617-1.70215-19.86572,6.59961,0,13.24023,0,19.83887-.05029Z"/>
        <path id="T-2" data-name="T" class="cls-2" d="m772.53696,106.83177v-33.04248h-21.54004v-23.48682h62.46387v23.48682h-21.54102v33.14307l4.77344,5.83398-4.77344,5.83398v49.13623h-19.38281v-49.03564l-4.85547-5.93457,4.85547-5.93457Z"/>
        <path id="A-3" data-name="A" class="cls-2" d="m871.90806,112.76634l-2.61426,3.21875,11.16504,51.75146h-19.38281l-4.35742-23.73828h-26.43848l-4.3584,23.73828h-19.38184l11.08105-51.55029-2.78027-3.41992,4.81445-5.93457,12.16113-56.5293h23.32422l12.28516,56.98193,4.48242,5.48193Zm-38.22461,12.77441h19.63086l-9.83594-48.38184-9.79492,48.38184Z"/>
        <path id="T-3" data-name="T" class="cls-2" d="m895.07993,106.83177v-33.04248h-21.54102v-23.48682h62.46289v23.48682h-21.54004v33.14307l4.77246,5.83398-4.77246,5.83398v49.13623h-19.38184v-49.03564l-4.85645-5.93457,4.85645-5.93457Z"/>
        <path id="E" class="cls-2" d="m945.02134,120.76292v-2.06201l-4.85645-5.93457,4.85645-5.93457v-56.5293h52.95898v23.48682h-33.57715v23.48682h25.31738v23.48682h-25.31738v23.48682h33.57715v23.48682h-52.95898v-46.97363Z"/>
      </g>
    </g>
  </g>
</svg>