<?xml version="1.0" encoding="UTF-8"?>
<svg id="Layer_1" data-name="Layer 1" xmlns="http://www.w3.org/2000/svg" viewBox="0 0 1200 1200">
  <defs>
    <style>
      .cls-1 {
        stroke: #231f20;
        stroke-width: 2px;
      }

      .cls-1, .cls-2, .cls-3 {
        stroke-miterlimit: 10;
      }

      .cls-1, .cls-2, .cls-4 {
        fill: #58595b;
      }

      .cls-2 {
        stroke: #414042;
      }

      .cls-5 {
        fill: #6d6e71;
      }

      .cls-6 {
        fill: none;
        opacity: 0;
      }

      .cls-7 {
        fill: #231f20;
      }

      .cls-3 {
        fill: #a5dce8;
        stroke: #58595b;
        stroke-width: 3px;
      }

      .cls-8 {
        fill: #414042;
      }
    </style>
  </defs>
  <rect id="Background" class="cls-6" width="1200" height="1200"/>
  <g id="Names-Lists">
    <g id="Novice">
      <g>
        <path class="cls-8" d="m150.812,688.694c0,2.234-1.117,3.352-3.352,3.352h-11.438c-2.172,0-3.258-1.117-3.258-3.352v-29.953c0-2.25,1.086-3.375,3.258-3.375h11.438c2.234,0,3.352,1.125,3.352,3.375v8.578h-5.461v-7.242h-7.102v27.258h7.102v-7.711h5.461v9.07Z"/>
        <path class="cls-8" d="m173.616,688.694c0,2.234-1.109,3.352-3.328,3.352h-11.906c-2.172,0-3.258-1.117-3.258-3.352v-29.953c0-2.25,1.086-3.375,3.258-3.375h11.906c2.219,0,3.328,1.125,3.328,3.375v29.953Zm-5.484-1.359v-27.258h-7.523v27.258h7.523Z"/>
        <path class="cls-8" d="m196.023,688.694c0,2.234-1.117,3.352-3.352,3.352h-14.648v-36.68h14.555c2.172,0,3.258,1.125,3.258,3.375v9.445c0,1.25-.391,2.219-1.172,2.906-.109.094-1.062.695-2.859,1.805,1.859,1.141,2.844,1.766,2.953,1.875.844.734,1.266,1.742,1.266,3.023v10.898Zm-5.648-19.828v-8.883h-6.867v10.758h4.219l2.648-1.875Zm.141,18.562v-10.453l-2.695-1.781h-4.312v12.234h7.008Z"/>
        <path class="cls-8" d="m215.546,692.046h-15.211v-36.68h15.07v4.852h-9.586v10.711h8.25v4.758h-8.25v11.508h9.727v4.852Z"/>
        <path class="cls-8" d="m237.741,655.577l-4.852,15.328c-.594,1.516-1.398,4.07-2.414,7.664v13.477h-5.508v-13.477c-.25-1.219-.609-2.508-1.078-3.867-.828-2.328-1.273-3.594-1.336-3.797l-4.828-15.328c-.016-.016-.016-.086,0-.211h5.648l4.383,15.938,4.359-15.938h5.625v.211Z"/>
        <path class="cls-8" d="m268.023,688.694c0,2.234-1.109,3.352-3.328,3.352h-11.039c-2.203,0-3.305-1.117-3.305-3.352v-8.742h5.484v7.477h6.703v-7.195l-10.992-10.406c-.797-.766-1.195-1.742-1.195-2.93v-8.156c0-2.25,1.102-3.375,3.305-3.375h11.039c2.219,0,3.328,1.109,3.328,3.328v8.203h-5.484v-6.914h-6.703v6.633l10.992,10.359c.797.75,1.195,1.742,1.195,2.977v8.742Z"/>
        <path class="cls-8" d="m288.32,660.218h-6.047v31.828h-5.461v-31.828h-6.047v-4.852h17.555v4.852Z"/>
        <path class="cls-8" d="m309.46,688.694c0,2.234-1.125,3.352-3.375,3.352h-11.648c-2.219,0-3.328-1.117-3.328-3.352v-33.328h5.484v31.969h7.383v-31.969h5.484v33.328Z"/>
        <path class="cls-8" d="m328.281,692.046h-14.414v-36.68h5.484v31.781h8.93v4.898Z"/>
        <path class="cls-8" d="m349.585,688.694c0,2.234-1.117,3.352-3.352,3.352h-11.438c-2.172,0-3.258-1.117-3.258-3.352v-29.953c0-2.25,1.086-3.375,3.258-3.375h11.438c2.234,0,3.352,1.125,3.352,3.375v8.578h-5.461v-7.242h-7.102v27.258h7.102v-7.711h5.461v9.07Z"/>
        <path class="cls-8" d="m369.109,692.046h-15.211v-36.68h15.07v4.852h-9.586v10.711h8.25v4.758h-8.25v11.508h9.727v4.852Z"/>
        <path class="cls-8" d="m510.531,688.694c0,2.234-1.102,3.352-3.305,3.352h-11.133c-2.219,0-3.328-1.117-3.328-3.352v-29.953c0-2.25,1.086-3.375,3.258-3.375h11.109c2.203,0,3.305,1.125,3.305,3.375v7.758h-5.391v-6.422h-6.891v11.039h9.07c2.203,0,3.305,1.102,3.305,3.305v14.273Zm-5.367-1.359v-11.555h-7.008v11.555h7.008Z"/>
        <path class="cls-8" d="m532.89,688.694c0,2.234-1.102,3.352-3.305,3.352h-11.438c-2.172,0-3.258-1.117-3.258-3.352v-29.953c0-2.25,1.109-3.375,3.328-3.375h11.367c2.203,0,3.305,1.125,3.305,3.375v29.953Zm-5.367-1.359v-27.258h-7.242v27.258h7.242Z"/>
        <path class="cls-8" d="m147.976,749.646h-15.211v-36.68h15.07v4.852h-9.586v10.711h8.25v4.758h-8.25v11.508h9.727v4.852Z"/>
        <path class="cls-8" d="m166.14,749.646h-14.414v-36.68h5.484v31.781h8.93v4.898Z"/>
        <path class="cls-8" d="m174.976,749.646h-5.484v-36.68h5.484v36.68Z"/>
        <path class="cls-8" d="m206.945,746.294c0,2.234-1.109,3.352-3.328,3.352h-11.039c-2.203,0-3.305-1.117-3.305-3.352v-8.742h5.484v7.477h6.703v-7.195l-10.992-10.406c-.797-.766-1.195-1.742-1.195-2.93v-8.156c0-2.25,1.102-3.375,3.305-3.375h11.039c2.219,0,3.328,1.109,3.328,3.328v8.203h-5.484v-6.914h-6.703v6.633l10.992,10.359c.797.75,1.195,1.742,1.195,2.977v8.742Z"/>
        <path class="cls-8" d="m229.351,746.294c0,2.234-1.117,3.352-3.352,3.352h-11.438c-2.172,0-3.258-1.117-3.258-3.352v-29.953c0-2.25,1.086-3.375,3.258-3.375h11.438c2.234,0,3.352,1.125,3.352,3.375v8.578h-5.461v-7.242h-7.102v27.258h7.102v-7.711h5.461v9.07Z"/>
        <path class="cls-8" d="m252.109,749.646h-5.531v-16.453h-7.43v16.453h-5.484v-36.68h5.484v15.117h7.43v-15.117h5.531v36.68Z"/>
        <path class="cls-8" d="m275.054,749.646h-5.438l-1.102-6.961h-6.867l-1.102,6.961h-5.414v-.094l7.102-36.633h5.766l7.055,36.727Zm-7.312-11.672l-2.672-16.547-2.695,16.547h5.367Z"/>
        <path class="cls-8" d="m293.335,749.646h-15.211v-36.68h15.07v4.852h-9.586v10.711h8.25v4.758h-8.25v11.508h9.727v4.852Z"/>
        <path class="cls-8" d="m312.062,717.818h-9.492v10.852h8.109v4.758h-8.109v16.219h-5.484v-36.68h14.977v4.852Z"/>
        <path class="cls-8" d="m330.39,749.646h-15.211v-36.68h15.07v4.852h-9.586v10.711h8.25v4.758h-8.25v11.508h9.727v4.852Z"/>
        <path class="cls-8" d="m352.913,749.646h-5.719l-6.047-17.039v-3.305h5.391v-11.625h-6.914v31.969h-5.484v-36.68h14.555c2.203,0,3.305,1.125,3.305,3.375v13.336c0,1.547-.523,2.547-1.57,3-.562.234-1.75.352-3.562.352l6.047,16.617Z"/>
        <path class="cls-8" d="m510.531,746.294c0,2.234-1.102,3.352-3.305,3.352h-11.133c-2.219,0-3.328-1.117-3.328-3.352v-29.953c0-2.25,1.086-3.375,3.258-3.375h11.109c2.203,0,3.305,1.125,3.305,3.375v7.758h-5.391v-6.422h-6.891v11.039h9.07c2.203,0,3.305,1.102,3.305,3.305v14.273Zm-5.367-1.359v-11.555h-7.008v11.555h7.008Z"/>
        <path class="cls-8" d="m533.57,742.732h-2.789v6.914h-5.227v-6.914h-12.047v-3.258l9.117-26.508h5.578v.211l-8.555,24.891h5.906v-11.039h5.227v11.039h2.789v4.664Z"/>
        <path class="cls-8" d="m151.351,807.246h-5.438l-1.102-6.961h-6.867l-1.102,6.961h-5.414v-.094l7.102-36.633h5.766l7.055,36.727Zm-7.312-11.672l-2.672-16.547-2.695,16.547h5.367Z"/>
        <path class="cls-8" d="m173.195,807.246h-5.719l-6.047-17.039v-3.305h5.391v-11.625h-6.914v31.969h-5.484v-36.68h14.555c2.203,0,3.305,1.125,3.305,3.375v13.336c0,1.547-.523,2.547-1.57,3-.562.234-1.75.352-3.562.352l6.047,16.617Z"/>
        <path class="cls-8" d="m198.718,807.246h-5.273v-18.094c0-.953.109-2.281.328-3.984l-4.734,18.727h-2.789l-4.758-18.727c.219,1.734.328,3.062.328,3.984v18.094h-5.273v-36.68h5.18l5.766,20.273c.062.219.109.773.141,1.664,0-.391.047-.945.141-1.664l5.766-20.273h5.18v36.68Z"/>
        <path class="cls-8" d="m208.679,807.246h-5.484v-36.68h5.484v36.68Z"/>
        <path class="cls-8" d="m231.765,807.246h-4.805l-8.789-23.086c.234,1.125.352,2.008.352,2.648v20.438h-5.344v-36.68h4.805l8.789,22.617c-.234-1.125-.352-2.008-.352-2.648v-19.969h5.344v36.68Z"/>
        <path class="cls-8" d="m264.554,803.894c0,2.234-1.109,3.352-3.328,3.352h-11.906c-2.172,0-3.258-1.117-3.258-3.352v-29.953c0-2.25,1.086-3.375,3.258-3.375h11.906c2.219,0,3.328,1.125,3.328,3.375v29.953Zm-5.484-1.359v-27.258h-7.523v27.258h7.523Z"/>
        <path class="cls-8" d="m273.859,770.566l-1.055,11.484h-3.258l-1.055-11.484h5.367Z"/>
        <path class="cls-8" d="m295.937,803.894c0,2.234-1.117,3.352-3.352,3.352h-11.531c-2.172,0-3.258-1.117-3.258-3.352v-29.953c0-2.25,1.109-3.375,3.328-3.375h11.461c2.234,0,3.352,1.125,3.352,3.375v7.828h-5.508v-6.492h-7.148v27.258h7.148v-10.266h-4.078v-4.664h9.586v16.289Z"/>
        <path class="cls-8" d="m318.671,803.894c0,2.234-1.125,3.352-3.375,3.352h-11.648c-2.219,0-3.328-1.117-3.328-3.352v-33.328h5.484v31.969h7.383v-31.969h5.484v33.328Z"/>
        <path class="cls-8" d="m328.656,807.246h-5.484v-36.68h5.484v36.68Z"/>
        <path class="cls-8" d="m351.741,807.246h-4.805l-8.789-23.086c.234,1.125.352,2.008.352,2.648v20.438h-5.344v-36.68h4.805l8.789,22.617c-.234-1.125-.352-2.008-.352-2.648v-19.969h5.344v36.68Z"/>
        <path class="cls-8" d="m510.531,803.894c0,2.234-1.102,3.352-3.305,3.352h-11.133c-2.219,0-3.328-1.117-3.328-3.352v-29.953c0-2.25,1.086-3.375,3.258-3.375h11.109c2.203,0,3.305,1.125,3.305,3.375v7.758h-5.391v-6.422h-6.891v11.039h9.07c2.203,0,3.305,1.102,3.305,3.305v14.273Zm-5.367-1.359v-11.555h-7.008v11.555h7.008Z"/>
        <path class="cls-8" d="m532.609,803.894c0,2.234-1.102,3.352-3.305,3.352h-11.039c-2.219,0-3.328-1.117-3.328-3.352v-7.781h5.391v6.422h6.844v-11.039h-9.117c-2.172,0-3.258-1.102-3.258-3.305v-14.25c0-2.25,1.086-3.375,3.258-3.375h11.203c2.234,0,3.352,1.125,3.352,3.375v29.953Zm-5.438-17.039v-11.578h-7.008v11.578h7.008Z"/>
        <path class="cls-8" d="m147.976,864.845h-15.211v-36.68h15.07v4.852h-9.586v10.711h8.25v4.758h-8.25v11.508h9.727v4.852Z"/>
        <path class="cls-8" d="m166.14,864.845h-14.414v-36.68h5.484v31.781h8.93v4.898Z"/>
        <path class="cls-8" d="m174.976,864.845h-5.484v-36.68h5.484v36.68Z"/>
        <path class="cls-8" d="m210.343,864.892h-.375l-2.461-1.875c-.438,1.219-1.43,1.828-2.977,1.828h-11.906c-2.172,0-3.258-1.117-3.258-3.352v-29.953c0-2.25,1.109-3.375,3.328-3.375h11.836c2.219,0,3.328,1.125,3.328,3.375v26.531l2.484,1.781v5.039Zm-7.969-4.758v-1.289l-3.211-2.438v-4.992h.328l2.883,2.156v-20.695h-7.523v27.258h7.523Z"/>
        <path class="cls-8" d="m231.343,861.494c0,2.234-1.125,3.352-3.375,3.352h-11.648c-2.219,0-3.328-1.117-3.328-3.352v-33.328h5.484v31.969h7.383v-31.969h5.484v33.328Z"/>
        <path class="cls-8" d="m254.335,864.845h-5.438l-1.102-6.961h-6.867l-1.102,6.961h-5.414v-.094l7.102-36.633h5.766l7.055,36.727Zm-7.312-11.672l-2.672-16.547-2.695,16.547h5.367Z"/>
        <path class="cls-8" d="m276.179,864.845h-5.719l-6.047-17.039v-3.305h5.391v-11.625h-6.914v31.969h-5.484v-36.68h14.555c2.203,0,3.305,1.125,3.305,3.375v13.336c0,1.547-.523,2.547-1.57,3-.562.234-1.75.352-3.562.352l6.047,16.617Z"/>
        <path class="cls-8" d="m295.468,833.017h-6.047v31.828h-5.461v-31.828h-6.047v-4.852h17.555v4.852Z"/>
        <path class="cls-8" d="m313.82,864.845h-16.852v-2.93l10.266-28.805h-9.445v-4.945h15.984v3.164l-10.242,28.57h10.289v4.945Z"/>
        <path class="cls-8" d="m510.484,861.494c0,2.234-1.102,3.352-3.305,3.352h-11.039c-2.219,0-3.328-1.117-3.328-3.352v-7.781h5.391v6.422h6.844v-11.039h-9.117c-2.172,0-3.258-1.102-3.258-3.305v-14.25c0-2.25,1.086-3.375,3.258-3.375h11.203c2.234,0,3.352,1.125,3.352,3.375v29.953Zm-5.438-17.039v-11.578h-7.008v11.578h7.008Z"/>
        <path class="cls-8" d="m532.702,861.494c0,2.234-1.102,3.352-3.305,3.352h-11.25c-2.172,0-3.258-1.117-3.258-3.352v-8.461h5.391v7.102h7.055v-9.211l-6.727-4.617v-1.148l6.727-4.547v-7.734h-7.055v6.68h-5.391v-8.016c0-2.25,1.109-3.375,3.328-3.375h11.18c2.203,0,3.305,1.125,3.305,3.375v8.625c0,1.453-.609,2.578-1.828,3.375l-3.398,2.203,3.445,2.156c1.188.734,1.781,1.836,1.781,3.305v10.289Z"/>
        <path class="cls-8" d="m151.351,922.446h-4.805l-8.789-23.086c.234,1.125.352,2.008.352,2.648v20.438h-5.344v-36.68h4.805l8.789,22.617c-.234-1.125-.352-2.008-.352-2.648v-19.969h5.344v36.68Z"/>
        <path class="cls-8" d="m174.343,922.446h-5.438l-1.102-6.961h-6.867l-1.102,6.961h-5.414v-.094l7.102-36.633h5.766l7.055,36.727Zm-7.312-11.672l-2.672-16.547-2.695,16.547h5.367Z"/>
        <path class="cls-8" d="m193.351,890.618h-6.047v31.828h-5.461v-31.828h-6.047v-4.852h17.555v4.852Z"/>
        <path class="cls-8" d="m214.585,922.446h-5.531v-16.453h-7.43v16.453h-5.484v-36.68h5.484v15.117h7.43v-15.117h5.531v36.68Z"/>
        <path class="cls-8" d="m237.531,922.446h-5.438l-1.102-6.961h-6.867l-1.102,6.961h-5.414v-.094l7.102-36.633h5.766l7.055,36.727Zm-7.312-11.672l-2.672-16.547-2.695,16.547h5.367Z"/>
        <path class="cls-8" d="m259.187,922.446h-4.805l-8.789-23.086c.234,1.125.352,2.008.352,2.648v20.438h-5.344v-36.68h4.805l8.789,22.617c-.234-1.125-.352-2.008-.352-2.648v-19.969h5.344v36.68Z"/>
        <path class="cls-8" d="m292.257,922.446h-5.719l-6.047-17.039v-3.305h5.391v-11.625h-6.914v31.969h-5.484v-36.68h14.555c2.203,0,3.305,1.125,3.305,3.375v13.336c0,1.547-.523,2.547-1.57,3-.562.234-1.75.352-3.562.352l6.047,16.617Z"/>
        <path class="cls-8" d="m314.195,922.446h-5.438l-1.102-6.961h-6.867l-1.102,6.961h-5.414v-.094l7.102-36.633h5.766l7.055,36.727Zm-7.312-11.672l-2.672-16.547-2.695,16.547h5.367Z"/>
        <path class="cls-8" d="m335.265,919.094c0,2.234-1.117,3.352-3.352,3.352h-14.648v-36.68h14.555c2.172,0,3.258,1.125,3.258,3.375v9.445c0,1.25-.391,2.219-1.172,2.906-.109.094-1.062.695-2.859,1.805,1.859,1.141,2.844,1.766,2.953,1.875.844.734,1.266,1.742,1.266,3.023v10.898Zm-5.648-19.828v-8.883h-6.867v10.758h4.219l2.648-1.875Zm.141,18.562v-10.453l-2.695-1.781h-4.312v12.234h7.008Z"/>
        <path class="cls-8" d="m358.163,922.446h-5.438l-1.102-6.961h-6.867l-1.102,6.961h-5.414v-.094l7.102-36.633h5.766l7.055,36.727Zm-7.312-11.672l-2.672-16.547-2.695,16.547h5.367Z"/>
        <path class="cls-8" d="m379.82,922.446h-4.805l-8.789-23.086c.234,1.125.352,2.008.352,2.648v20.438h-5.344v-36.68h4.805l8.789,22.617c-.234-1.125-.352-2.008-.352-2.648v-19.969h5.344v36.68Z"/>
        <path class="cls-8" d="m499.398,922.446h-5.391v-25.875h-2.109v-.727l2.836-10.078h4.664v36.68Z"/>
        <path class="cls-8" d="m522.038,919.094c0,2.234-1.102,3.352-3.305,3.352h-11.438c-2.172,0-3.258-1.117-3.258-3.352v-29.953c0-2.25,1.109-3.375,3.328-3.375h11.367c2.203,0,3.305,1.125,3.305,3.375v29.953Zm-5.367-1.359v-27.258h-7.242v27.258h7.242Z"/>
        <path class="cls-8" d="m544.445,919.094c0,2.234-1.102,3.352-3.305,3.352h-11.438c-2.172,0-3.258-1.117-3.258-3.352v-29.953c0-2.25,1.109-3.375,3.328-3.375h11.367c2.203,0,3.305,1.125,3.305,3.375v29.953Zm-5.367-1.359v-27.258h-7.242v27.258h7.242Z"/>
        <path class="cls-8" d="m151.046,973.132c0,2.156-.641,3.848-1.922,5.074s-3.008,1.84-5.18,1.84h-11.18v-36.68h11.18c2.172,0,3.898.621,5.18,1.863s1.922,2.941,1.922,5.098v22.805Zm-5.508-.914v-21.07c0-2.047-1.07-3.07-3.211-3.07h-4.078v27.258h3.938c2.234,0,3.352-1.039,3.352-3.117Z"/>
        <path class="cls-8" d="m173.874,980.046h-5.438l-1.102-6.961h-6.867l-1.102,6.961h-5.414v-.094l7.102-36.633h5.766l7.055,36.727Zm-7.312-11.672l-2.672-16.547-2.695,16.547h5.367Z"/>
        <path class="cls-8" d="m195.531,980.046h-4.805l-8.789-23.086c.234,1.125.352,2.008.352,2.648v20.438h-5.344v-36.68h4.805l8.789,22.617c-.234-1.125-.352-2.008-.352-2.648v-19.969h5.344v36.68Z"/>
        <path class="cls-8" d="m218.523,980.046h-4.805l-8.789-23.086c.234,1.125.352,2.008.352,2.648v20.438h-5.344v-36.68h4.805l8.789,22.617c-.234-1.125-.352-2.008-.352-2.648v-19.969h5.344v36.68Z"/>
        <path class="cls-8" d="m241.374,943.577l-4.852,15.328c-.594,1.516-1.398,4.07-2.414,7.664v13.477h-5.508v-13.477c-.25-1.219-.609-2.508-1.078-3.867-.828-2.328-1.273-3.594-1.336-3.797l-4.828-15.328c-.016-.016-.016-.086,0-.211h5.648l4.383,15.938,4.359-15.938h5.625v.211Z"/>
        <path class="cls-8" d="m270.554,976.694c0,2.234-1.125,3.352-3.375,3.352h-10.406c-2.203,0-3.305-1.117-3.305-3.352v-9.023h5.461v7.664h6.141v-31.969h5.484v33.328Z"/>
        <path class="cls-8" d="m293.499,980.046h-5.438l-1.102-6.961h-6.867l-1.102,6.961h-5.414v-.094l7.102-36.633h5.766l7.055,36.727Zm-7.312-11.672l-2.672-16.547-2.695,16.547h5.367Z"/>
        <path class="cls-8" d="m314.616,976.694c0,2.234-1.117,3.352-3.352,3.352h-11.438c-2.172,0-3.258-1.117-3.258-3.352v-29.953c0-2.25,1.086-3.375,3.258-3.375h11.438c2.234,0,3.352,1.125,3.352,3.375v8.578h-5.461v-7.242h-7.102v27.258h7.102v-7.711h5.461v9.07Z"/>
        <path class="cls-8" d="m337.421,980.046h-6.047l-6.961-16.359v16.359h-5.484v-36.68h5.484v15.516l6.094-15.516h6v.258l-7.453,17.414,8.367,19.008Z"/>
        <path class="cls-8" d="m357.202,976.694c0,2.234-1.109,3.352-3.328,3.352h-11.039c-2.203,0-3.305-1.117-3.305-3.352v-8.742h5.484v7.477h6.703v-7.195l-10.992-10.406c-.797-.766-1.195-1.742-1.195-2.93v-8.156c0-2.25,1.102-3.375,3.305-3.375h11.039c2.219,0,3.328,1.109,3.328,3.328v8.203h-5.484v-6.914h-6.703v6.633l10.992,10.359c.797.75,1.195,1.742,1.195,2.977v8.742Z"/>
        <path class="cls-8" d="m380.054,976.694c0,2.234-1.109,3.352-3.328,3.352h-11.906c-2.172,0-3.258-1.117-3.258-3.352v-29.953c0-2.25,1.086-3.375,3.258-3.375h11.906c2.219,0,3.328,1.125,3.328,3.375v29.953Zm-5.484-1.359v-27.258h-7.523v27.258h7.523Z"/>
        <path class="cls-8" d="m403.046,980.046h-4.805l-8.789-23.086c.234,1.125.352,2.008.352,2.648v20.438h-5.344v-36.68h4.805l8.789,22.617c-.234-1.125-.352-2.008-.352-2.648v-19.969h5.344v36.68Z"/>
        <path class="cls-8" d="m499.398,980.046h-5.391v-25.875h-2.109v-.727l2.836-10.078h4.664v36.68Z"/>
        <path class="cls-8" d="m521.57,976.694c0,2.234-1.109,3.352-3.328,3.352h-10.992c-2.172,0-3.258-1.117-3.258-3.352v-8.461h5.391v7.102h6.797v-14.109h-12.188l.586-17.859h16.734v4.805h-11.648l-.352,8.344h8.93c2.219,0,3.328,1.109,3.328,3.328v16.852Z"/>
        <path class="cls-8" d="m544.515,973.132h-2.789v6.914h-5.227v-6.914h-12.047v-3.258l9.117-26.508h5.578v.211l-8.555,24.891h5.906v-11.039h5.227v11.039h2.789v4.664Z"/>
        <path class="cls-8" d="m151.046,1030.731c0,2.156-.641,3.848-1.922,5.074s-3.008,1.84-5.18,1.84h-11.18v-36.68h11.18c2.172,0,3.898.621,5.18,1.863s1.922,2.941,1.922,5.098v22.805Zm-5.508-.914v-21.07c0-2.047-1.07-3.07-3.211-3.07h-4.078v27.258h3.938c2.234,0,3.352-1.039,3.352-3.117Z"/>
        <path class="cls-8" d="m173.781,1034.294c0,2.234-1.109,3.352-3.328,3.352h-11.906c-2.172,0-3.258-1.117-3.258-3.352v-29.953c0-2.25,1.086-3.375,3.258-3.375h11.906c2.219,0,3.328,1.125,3.328,3.375v29.953Zm-5.484-1.359v-27.258h-7.523v27.258h7.523Z"/>
        <path class="cls-8" d="m196.773,1037.645h-4.805l-8.789-23.086c.234,1.125.352,2.008.352,2.648v20.438h-5.344v-36.68h4.805l8.789,22.617c-.234-1.125-.352-2.008-.352-2.648v-19.969h5.344v36.68Z"/>
        <path class="cls-8" d="m219.765,1037.645h-4.805l-8.789-23.086c.234,1.125.352,2.008.352,2.648v20.438h-5.344v-36.68h4.805l8.789,22.617c-.234-1.125-.352-2.008-.352-2.648v-19.969h5.344v36.68Z"/>
        <path class="cls-8" d="m229.749,1037.645h-5.484v-36.68h5.484v36.68Z"/>
        <path class="cls-8" d="m249.46,1037.645h-15.211v-36.68h15.07v4.852h-9.586v10.711h8.25v4.758h-8.25v11.508h9.727v4.852Z"/>
        <path class="cls-8" d="m281.593,1034.294c0,2.234-1.109,3.352-3.328,3.352h-11.906c-2.172,0-3.258-1.117-3.258-3.352v-29.953c0-2.25,1.086-3.375,3.258-3.375h11.906c2.219,0,3.328,1.125,3.328,3.375v29.953Zm-5.484-1.359v-27.258h-7.523v27.258h7.523Z"/>
        <path class="cls-8" d="m300.413,1037.645h-14.414v-36.68h5.484v31.781h8.93v4.898Z"/>
        <path class="cls-8" d="m325.843,1037.645h-5.273v-18.094c0-.953.109-2.281.328-3.984l-4.734,18.727h-2.789l-4.758-18.727c.219,1.734.328,3.062.328,3.984v18.094h-5.273v-36.68h5.18l5.766,20.273c.062.219.109.773.141,1.664,0-.391.047-.945.141-1.664l5.766-20.273h5.18v36.68Z"/>
        <path class="cls-8" d="m347.804,1034.294c0,2.234-1.109,3.352-3.328,3.352h-11.039c-2.203,0-3.305-1.117-3.305-3.352v-8.742h5.484v7.477h6.703v-7.195l-10.992-10.406c-.797-.766-1.195-1.742-1.195-2.93v-8.156c0-2.25,1.102-3.375,3.305-3.375h11.039c2.219,0,3.328,1.109,3.328,3.328v8.203h-5.484v-6.914h-6.703v6.633l10.992,10.359c.797.75,1.195,1.742,1.195,2.977v8.742Z"/>
        <path class="cls-8" d="m368.101,1005.817h-6.047v31.828h-5.461v-31.828h-6.047v-4.852h17.555v4.852Z"/>
        <path class="cls-8" d="m386.101,1037.645h-15.211v-36.68h15.07v4.852h-9.586v10.711h8.25v4.758h-8.25v11.508h9.727v4.852Z"/>
        <path class="cls-8" d="m408.437,1037.645h-5.438l-1.102-6.961h-6.867l-1.102,6.961h-5.414v-.094l7.102-36.633h5.766l7.055,36.727Zm-7.312-11.672l-2.672-16.547-2.695,16.547h5.367Z"/>
        <path class="cls-8" d="m429.788,1030.731c0,2.156-.641,3.848-1.922,5.074s-3.008,1.84-5.18,1.84h-11.18v-36.68h11.18c2.172,0,3.898.621,5.18,1.863s1.922,2.941,1.922,5.098v22.805Zm-5.508-.914v-21.07c0-2.047-1.07-3.07-3.211-3.07h-4.078v27.258h3.938c2.234,0,3.352-1.039,3.352-3.117Z"/>
        <path class="cls-8" d="m509.991,1011.395c0,1.156-.398,2.438-1.195,3.844l-10.078,17.602h11.227v4.805h-17.789v-3.398l12.422-21.844v-6.773h-6.68v6.82h-5.367v-8.156c0-2.219,1.117-3.328,3.352-3.328h10.758c2.234,0,3.352,1.109,3.352,3.328v7.102Z"/>
        <path class="cls-8" d="m520.562,1037.645h-5.391v-25.875h-2.109v-.727l2.836-10.078h4.664v36.68Z"/>
        <path class="cls-8" d="m542.734,1034.294c0,2.234-1.109,3.352-3.328,3.352h-10.992c-2.172,0-3.258-1.117-3.258-3.352v-8.461h5.391v7.102h6.797v-14.109h-12.188l.586-17.859h16.734v4.805h-11.648l-.352,8.344h8.93c2.219,0,3.328,1.109,3.328,3.328v16.852Z"/>
      </g>
      <g id="Novice-2" data-name="Novice">
        <path class="cls-2" d="m279.459,621.603h-5.605l-10.254-26.934c.273,1.312.41,2.343.41,3.09v23.844h-6.234v-42.793h5.605l10.254,26.387c-.273-1.312-.41-2.342-.41-3.09v-23.297h6.234v42.793Z"/>
        <path class="cls-2" d="m301.709,618.185c0,2.279-1.158,3.418-3.473,3.418h-11.211c-2.352,0-3.527-1.139-3.527-3.418v-20.781c0-2.278,1.176-3.418,3.527-3.418h11.211c2.315,0,3.473,1.14,3.473,3.418v20.781Zm-6.125-1.777v-17.199h-5.934v17.199h5.934Z"/>
        <path class="cls-2" d="m324.684,593.986l-7.055,27.672h-5.988l-7.055-27.672h6.426l3.637,18.156,3.637-18.156h6.398Z"/>
        <path class="cls-2" d="m334.105,590.021h-6.262v-6.453h6.262v6.453Zm-.055,31.582h-6.152v-27.617h6.152v27.617Z"/>
        <path class="cls-2" d="m355.709,618.185c0,2.279-1.158,3.418-3.473,3.418h-10.855c-2.352,0-3.527-1.139-3.527-3.418v-20.781c0-2.278,1.176-3.418,3.527-3.418h10.855c2.314,0,3.473,1.14,3.473,3.418v6.562h-6.098v-4.758h-5.605v17.199h5.605v-5.277h6.098v7.055Z"/>
        <path class="cls-2" d="m377.293,618.185c0,2.279-1.176,3.418-3.527,3.418h-10.801c-2.352,0-3.527-1.139-3.527-3.418v-20.781c0-2.278,1.176-3.418,3.527-3.418h10.801c2.352,0,3.527,1.14,3.527,3.418v10.145l-1.723,1.723h-10.145v7.738h5.879v-4.594h5.988v5.77Zm-5.988-12.988v-6.617h-5.879v6.617h5.879Z"/>
      </g>
    </g>
    <g id="Seniors">
      <g>
        <path class="cls-8" d="m649.352,660.248h-5.273v-18.094c0-.953.109-2.281.328-3.984l-4.734,18.727h-2.789l-4.758-18.727c.219,1.734.328,3.062.328,3.984v18.094h-5.273v-36.68h5.18l5.766,20.273c.062.219.109.773.141,1.664,0-.391.047-.945.141-1.664l5.766-20.273h5.18v36.68Z"/>
        <path class="cls-8" d="m672.321,660.248h-5.438l-1.102-6.961h-6.867l-1.102,6.961h-5.414v-.094l7.102-36.633h5.766l7.055,36.727Zm-7.312-11.672l-2.672-16.547-2.695,16.547h5.367Z"/>
        <path class="cls-8" d="m691.329,628.42h-6.047v31.828h-5.461v-31.828h-6.047v-4.852h17.555v4.852Z"/>
        <path class="cls-8" d="m710.055,628.42h-6.047v31.828h-5.461v-31.828h-6.047v-4.852h17.555v4.852Z"/>
        <path class="cls-8" d="m731.29,660.248h-5.531v-16.453h-7.43v16.453h-5.484v-36.68h5.484v15.117h7.43v-15.117h5.531v36.68Z"/>
        <path class="cls-8" d="m750.86,660.248h-15.211v-36.68h15.07v4.852h-9.586v10.711h8.25v4.758h-8.25v11.508h9.727v4.852Z"/>
        <path class="cls-8" d="m781.68,623.568l-5.367,36.727h-5.367l-3.281-20.789c-.031-.75-.094-1.867-.188-3.352,0,.75-.062,1.867-.188,3.352l-3.258,20.789h-5.391l-5.367-36.727h5.555l2.836,21.75c.047.75.109,1.867.188,3.352.016-.75.086-1.867.211-3.352l3.164-21.75h4.5l3.164,21.75c.047.75.117,1.867.211,3.352.016-.75.078-1.867.188-3.352l2.836-21.75h5.555Z"/>
        <path class="cls-8" d="m812.923,653.334c0,2.156-.641,3.848-1.922,5.074s-3.008,1.84-5.18,1.84h-11.18v-36.68h11.18c2.172,0,3.898.621,5.18,1.863s1.922,2.941,1.922,5.098v22.805Zm-5.508-.914v-21.07c0-2.047-1.07-3.07-3.211-3.07h-4.078v27.258h3.938c2.234,0,3.352-1.039,3.352-3.117Z"/>
        <path class="cls-8" d="m832.376,660.248h-15.211v-36.68h15.07v4.852h-9.586v10.711h8.25v4.758h-8.25v11.508h9.727v4.852Z"/>
        <path class="cls-8" d="m854.477,656.896c0,2.234-1.125,3.352-3.375,3.352h-11.648c-2.219,0-3.328-1.117-3.328-3.352v-33.328h5.484v31.969h7.383v-31.969h5.484v33.328Z"/>
        <path class="cls-8" d="m874.821,628.42h-6.047v31.828h-5.461v-31.828h-6.047v-4.852h17.555v4.852Z"/>
        <path class="cls-8" d="m895.657,656.896c0,2.234-1.117,3.352-3.352,3.352h-11.438c-2.172,0-3.258-1.117-3.258-3.352v-29.953c0-2.25,1.086-3.375,3.258-3.375h11.438c2.234,0,3.352,1.125,3.352,3.375v8.578h-5.461v-7.242h-7.102v27.258h7.102v-7.711h5.461v9.07Z"/>
        <path class="cls-8" d="m918.415,660.248h-5.531v-16.453h-7.43v16.453h-5.484v-36.68h5.484v15.117h7.43v-15.117h5.531v36.68Z"/>
        <path class="cls-8" d="m1041.274,656.896c0,2.234-1.102,3.352-3.305,3.352h-11.578c-2.172,0-3.258-1.117-3.258-3.352v-10.664c0-1.359.453-2.398,1.359-3.117,1.078-.625,2.164-1.25,3.258-1.875l-3.141-1.828c-.953-.75-1.43-1.758-1.43-3.023v-9.445c0-2.25,1.109-3.375,3.328-3.375h11.414c2.172,0,3.258,1.125,3.258,3.375v9.445c0,1.281-.469,2.289-1.406,3.023l-3.141,1.828c1.078.625,2.164,1.25,3.258,1.875.922.719,1.383,1.758,1.383,3.117v10.664Zm-5.461-1.266v-10.172l-3.609-2.062-3.633,2.062v10.172h7.242Zm-.047-18.656v-8.789h-7.102v8.789l3.539,2.109,3.562-2.109Z"/>
        <path class="cls-8" d="m1064.384,653.334h-2.789v6.914h-5.227v-6.914h-12.047v-3.258l9.117-26.508h5.578v.211l-8.555,24.891h5.906v-11.039h5.227v11.039h2.789v4.664Z"/>
        <path class="cls-8" d="m641.594,717.847h-14.414v-36.68h5.484v31.781h8.93v4.898Z"/>
        <path class="cls-8" d="m663.204,714.496c0,2.234-1.125,3.352-3.375,3.352h-11.648c-2.219,0-3.328-1.117-3.328-3.352v-33.328h5.484v31.969h7.383v-31.969h5.484v33.328Z"/>
        <path class="cls-8" d="m686.102,717.847h-6.047l-6.961-16.359v16.359h-5.484v-36.68h5.484v15.516l6.094-15.516h6v.258l-7.453,17.414,8.367,19.008Z"/>
        <path class="cls-8" d="m706.891,717.847h-5.438l-1.102-6.961h-6.867l-1.102,6.961h-5.414v-.094l7.102-36.633h5.766l7.055,36.727Zm-7.312-11.672l-2.672-16.547-2.695,16.547h5.367Z"/>
        <path class="cls-8" d="m727.54,714.496c0,2.234-1.109,3.352-3.328,3.352h-11.039c-2.203,0-3.305-1.117-3.305-3.352v-8.742h5.484v7.477h6.703v-7.195l-10.992-10.406c-.797-.766-1.195-1.742-1.195-2.93v-8.156c0-2.25,1.102-3.375,3.305-3.375h11.039c2.219,0,3.328,1.109,3.328,3.328v8.203h-5.484v-6.914h-6.703v6.633l10.992,10.359c.797.75,1.195,1.742,1.195,2.977v8.742Z"/>
        <path class="cls-8" d="m762.766,717.894h-.375l-2.461-1.875c-.438,1.219-1.43,1.828-2.977,1.828h-11.906c-2.172,0-3.258-1.117-3.258-3.352v-29.953c0-2.25,1.109-3.375,3.328-3.375h11.836c2.219,0,3.328,1.125,3.328,3.375v26.531l2.484,1.781v5.039Zm-7.969-4.758v-1.289l-3.211-2.438v-4.992h.328l2.883,2.156v-20.695h-7.523v27.258h7.523Z"/>
        <path class="cls-8" d="m783.766,714.496c0,2.234-1.125,3.352-3.375,3.352h-11.648c-2.219,0-3.328-1.117-3.328-3.352v-33.328h5.484v31.969h7.383v-31.969h5.484v33.328Z"/>
        <path class="cls-8" d="m806.759,717.847h-5.438l-1.102-6.961h-6.867l-1.102,6.961h-5.414v-.094l7.102-36.633h5.766l7.055,36.727Zm-7.312-11.672l-2.672-16.547-2.695,16.547h5.367Z"/>
        <path class="cls-8" d="m828.602,717.847h-5.719l-6.047-17.039v-3.305h5.391v-11.625h-6.914v31.969h-5.484v-36.68h14.555c2.203,0,3.305,1.125,3.305,3.375v13.336c0,1.547-.523,2.547-1.57,3-.562.234-1.75.352-3.562.352l6.047,16.617Z"/>
        <path class="cls-8" d="m847.891,686.019h-6.047v31.828h-5.461v-31.828h-6.047v-4.852h17.555v4.852Z"/>
        <path class="cls-8" d="m866.243,717.847h-16.852v-2.93l10.266-28.805h-9.445v-4.945h15.984v3.164l-10.242,28.57h10.289v4.945Z"/>
        <path class="cls-8" d="m1040.899,714.496c0,2.234-1.102,3.352-3.305,3.352h-11.039c-2.219,0-3.328-1.117-3.328-3.352v-7.781h5.391v6.422h6.844v-11.039h-9.117c-2.172,0-3.258-1.102-3.258-3.305v-14.25c0-2.25,1.086-3.375,3.258-3.375h11.203c2.234,0,3.352,1.125,3.352,3.375v29.953Zm-5.438-17.039v-11.578h-7.008v11.578h7.008Z"/>
        <path class="cls-8" d="m1063.305,714.496c0,2.234-1.102,3.352-3.305,3.352h-11.438c-2.172,0-3.258-1.117-3.258-3.352v-29.953c0-2.25,1.109-3.375,3.328-3.375h11.367c2.203,0,3.305,1.125,3.305,3.375v29.953Zm-5.367-1.359v-27.258h-7.242v27.258h7.242Z"/>
        <path class="cls-8" d="m643.657,772.096c0,2.234-1.125,3.352-3.375,3.352h-10.406c-2.203,0-3.305-1.117-3.305-3.352v-9.023h5.461v7.664h6.141v-31.969h5.484v33.328Z"/>
        <path class="cls-8" d="m666.602,775.448h-5.438l-1.102-6.961h-6.867l-1.102,6.961h-5.414v-.094l7.102-36.633h5.766l7.055,36.727Zm-7.312-11.672l-2.672-16.547-2.695,16.547h5.367Z"/>
        <path class="cls-8" d="m687.719,772.096c0,2.234-1.117,3.352-3.352,3.352h-11.438c-2.172,0-3.258-1.117-3.258-3.352v-29.953c0-2.25,1.086-3.375,3.258-3.375h11.438c2.234,0,3.352,1.125,3.352,3.375v8.578h-5.461v-7.242h-7.102v27.258h7.102v-7.711h5.461v9.07Z"/>
        <path class="cls-8" d="m710.524,775.448h-6.047l-6.961-16.359v16.359h-5.484v-36.68h5.484v15.516l6.094-15.516h6v.258l-7.453,17.414,8.367,19.008Z"/>
        <path class="cls-8" d="m730.305,772.096c0,2.234-1.109,3.352-3.328,3.352h-11.039c-2.203,0-3.305-1.117-3.305-3.352v-8.742h5.484v7.477h6.703v-7.195l-10.992-10.406c-.797-.766-1.195-1.742-1.195-2.93v-8.156c0-2.25,1.102-3.375,3.305-3.375h11.039c2.219,0,3.328,1.109,3.328,3.328v8.203h-5.484v-6.914h-6.703v6.633l10.992,10.359c.797.75,1.195,1.742,1.195,2.977v8.742Z"/>
        <path class="cls-8" d="m753.157,772.096c0,2.234-1.109,3.352-3.328,3.352h-11.906c-2.172,0-3.258-1.117-3.258-3.352v-29.953c0-2.25,1.086-3.375,3.258-3.375h11.906c2.219,0,3.328,1.125,3.328,3.375v29.953Zm-5.484-1.359v-27.258h-7.523v27.258h7.523Z"/>
        <path class="cls-8" d="m776.149,775.448h-4.805l-8.789-23.086c.234,1.125.352,2.008.352,2.648v20.438h-5.344v-36.68h4.805l8.789,22.617c-.234-1.125-.352-2.008-.352-2.648v-19.969h5.344v36.68Z"/>
        <path class="cls-8" d="m808.024,772.096c0,2.234-1.109,3.352-3.328,3.352h-11.039c-2.203,0-3.305-1.117-3.305-3.352v-8.742h5.484v7.477h6.703v-7.195l-10.992-10.406c-.797-.766-1.195-1.742-1.195-2.93v-8.156c0-2.25,1.102-3.375,3.305-3.375h11.039c2.219,0,3.328,1.109,3.328,3.328v8.203h-5.484v-6.914h-6.703v6.633l10.992,10.359c.797.75,1.195,1.742,1.195,2.977v8.742Z"/>
        <path class="cls-8" d="m830.43,772.096c0,2.234-1.117,3.352-3.352,3.352h-11.438c-2.172,0-3.258-1.117-3.258-3.352v-29.953c0-2.25,1.086-3.375,3.258-3.375h11.438c2.234,0,3.352,1.125,3.352,3.375v8.578h-5.461v-7.242h-7.102v27.258h7.102v-7.711h5.461v9.07Z"/>
        <path class="cls-8" d="m853.188,775.448h-5.531v-16.453h-7.43v16.453h-5.484v-36.68h5.484v15.117h7.43v-15.117h5.531v36.68Z"/>
        <path class="cls-8" d="m876.134,775.448h-5.438l-1.102-6.961h-6.867l-1.102,6.961h-5.414v-.094l7.102-36.633h5.766l7.055,36.727Zm-7.312-11.672l-2.672-16.547-2.695,16.547h5.367Z"/>
        <path class="cls-8" d="m897.485,768.534c0,2.156-.641,3.848-1.922,5.074s-3.008,1.84-5.18,1.84h-11.18v-36.68h11.18c2.172,0,3.898.621,5.18,1.863s1.922,2.941,1.922,5.098v22.805Zm-5.508-.914v-21.07c0-2.047-1.07-3.07-3.211-3.07h-4.078v27.258h3.938c2.234,0,3.352-1.039,3.352-3.117Z"/>
        <path class="cls-8" d="m916.938,775.448h-15.211v-36.68h15.07v4.852h-9.586v10.711h8.25v4.758h-8.25v11.508h9.727v4.852Z"/>
        <path class="cls-8" d="m938.829,772.096c0,2.234-1.117,3.352-3.352,3.352h-11.531c-2.172,0-3.258-1.117-3.258-3.352v-29.953c0-2.25,1.109-3.375,3.328-3.375h11.461c2.234,0,3.352,1.125,3.352,3.375v7.828h-5.508v-6.492h-7.148v27.258h7.148v-10.266h-4.078v-4.664h9.586v16.289Z"/>
        <path class="cls-8" d="m961.352,772.096c0,2.234-1.117,3.352-3.352,3.352h-11.531c-2.172,0-3.258-1.117-3.258-3.352v-29.953c0-2.25,1.109-3.375,3.328-3.375h11.461c2.234,0,3.352,1.125,3.352,3.375v7.828h-5.508v-6.492h-7.148v27.258h7.148v-10.266h-4.078v-4.664h9.586v16.289Z"/>
        <path class="cls-8" d="m1040.899,772.096c0,2.234-1.102,3.352-3.305,3.352h-11.039c-2.219,0-3.328-1.117-3.328-3.352v-7.781h5.391v6.422h6.844v-11.039h-9.117c-2.172,0-3.258-1.102-3.258-3.305v-14.25c0-2.25,1.086-3.375,3.258-3.375h11.203c2.234,0,3.352,1.125,3.352,3.375v29.953Zm-5.438-17.039v-11.578h-7.008v11.578h7.008Z"/>
        <path class="cls-8" d="m1063.071,772.096c0,2.234-1.102,3.352-3.305,3.352h-11.133c-2.219,0-3.328-1.117-3.328-3.352v-29.953c0-2.25,1.086-3.375,3.258-3.375h11.109c2.203,0,3.305,1.125,3.305,3.375v7.758h-5.391v-6.422h-6.891v11.039h9.07c2.203,0,3.305,1.102,3.305,3.305v14.273Zm-5.367-1.359v-11.555h-7.008v11.555h7.008Z"/>
        <path class="cls-8" d="m645.673,833.048h-6.047l-6.961-16.359v16.359h-5.484v-36.68h5.484v15.516l6.094-15.516h6v.258l-7.453,17.414,8.367,19.008Z"/>
        <path class="cls-8" d="m653.454,833.048h-5.484v-36.68h5.484v36.68Z"/>
        <path class="cls-8" d="m672.368,833.048h-14.414v-36.68h5.484v31.781h8.93v4.898Z"/>
        <path class="cls-8" d="m690.04,833.048h-14.414v-36.68h5.484v31.781h8.93v4.898Z"/>
        <path class="cls-8" d="m698.876,833.048h-5.484v-36.68h5.484v36.68Z"/>
        <path class="cls-8" d="m721.962,833.048h-5.438l-1.102-6.961h-6.867l-1.102,6.961h-5.414v-.094l7.102-36.633h5.766l7.055,36.727Zm-7.312-11.672l-2.672-16.547-2.695,16.547h5.367Z"/>
        <path class="cls-8" d="m743.618,833.048h-4.805l-8.789-23.086c.234,1.125.352,2.008.352,2.648v20.438h-5.344v-36.68h4.805l8.789,22.617c-.234-1.125-.352-2.008-.352-2.648v-19.969h5.344v36.68Z"/>
        <path class="cls-8" d="m776.688,833.048h-5.719l-6.047-17.039v-3.305h5.391v-11.625h-6.914v31.969h-5.484v-36.68h14.555c2.203,0,3.305,1.125,3.305,3.375v13.336c0,1.547-.523,2.547-1.57,3-.562.234-1.75.352-3.562.352l6.047,16.617Z"/>
        <path class="cls-8" d="m798.626,833.048h-5.438l-1.102-6.961h-6.867l-1.102,6.961h-5.414v-.094l7.102-36.633h5.766l7.055,36.727Zm-7.312-11.672l-2.672-16.547-2.695,16.547h5.367Z"/>
        <path class="cls-8" d="m820.048,829.696c0,2.234-1.125,3.352-3.375,3.352h-11.648c-2.219,0-3.328-1.117-3.328-3.352v-33.328h5.484v31.969h7.383v-31.969h5.484v33.328Z"/>
        <path class="cls-8" d="m842.501,829.696c0,2.234-1.117,3.352-3.352,3.352h-11.438c-2.172,0-3.258-1.117-3.258-3.352v-29.953c0-2.25,1.086-3.375,3.258-3.375h11.438c2.234,0,3.352,1.125,3.352,3.375v8.578h-5.461v-7.242h-7.102v27.258h7.102v-7.711h5.461v9.07Z"/>
        <path class="cls-8" d="m865.259,833.048h-5.531v-16.453h-7.43v16.453h-5.484v-36.68h5.484v15.117h7.43v-15.117h5.531v36.68Z"/>
        <path class="cls-8" d="m1029.813,833.048h-5.391v-25.875h-2.109v-.727l2.836-10.078h4.664v36.68Z"/>
        <path class="cls-8" d="m1053.134,826.134h-2.789v6.914h-5.227v-6.914h-12.047v-3.258l9.117-26.508h5.578v.211l-8.555,24.891h5.906v-11.039h5.227v11.039h2.789v4.664Z"/>
        <path class="cls-8" d="m1074.977,826.134h-2.789v6.914h-5.227v-6.914h-12.047v-3.258l9.117-26.508h5.578v.211l-8.555,24.891h5.906v-11.039h5.227v11.039h2.789v4.664Z"/>
        <path class="cls-8" d="m645.462,883.734c0,2.156-.641,3.848-1.922,5.074s-3.008,1.84-5.18,1.84h-11.18v-36.68h11.18c2.172,0,3.898.621,5.18,1.863s1.922,2.941,1.922,5.098v22.805Zm-5.508-.914v-21.07c0-2.047-1.07-3.07-3.211-3.07h-4.078v27.258h3.938c2.234,0,3.352-1.039,3.352-3.117Z"/>
        <path class="cls-8" d="m668.29,890.648h-5.438l-1.102-6.961h-6.867l-1.102,6.961h-5.414v-.094l7.102-36.633h5.766l7.055,36.727Zm-7.312-11.672l-2.672-16.547-2.695,16.547h5.367Z"/>
        <path class="cls-8" d="m689.946,890.648h-4.805l-8.789-23.086c.234,1.125.352,2.008.352,2.648v20.438h-5.344v-36.68h4.805l8.789,22.617c-.234-1.125-.352-2.008-.352-2.648v-19.969h5.344v36.68Z"/>
        <path class="cls-8" d="m709.563,890.648h-15.211v-36.68h15.07v4.852h-9.586v10.711h8.25v4.758h-8.25v11.508h9.727v4.852Z"/>
        <path class="cls-8" d="m741.696,887.297c0,2.234-1.109,3.352-3.328,3.352h-11.906c-2.172,0-3.258-1.117-3.258-3.352v-29.953c0-2.25,1.086-3.375,3.258-3.375h11.906c2.219,0,3.328,1.125,3.328,3.375v29.953Zm-5.484-1.359v-27.258h-7.523v27.258h7.523Z"/>
        <path class="cls-8" d="m760.516,890.648h-14.414v-36.68h5.484v31.781h8.93v4.898Z"/>
        <path class="cls-8" d="m785.946,890.648h-5.273v-18.094c0-.953.109-2.281.328-3.984l-4.734,18.727h-2.789l-4.758-18.727c.219,1.734.328,3.062.328,3.984v18.094h-5.273v-36.68h5.18l5.766,20.273c.062.219.109.773.141,1.664,0-.391.047-.945.141-1.664l5.766-20.273h5.18v36.68Z"/>
        <path class="cls-8" d="m807.907,887.297c0,2.234-1.109,3.352-3.328,3.352h-11.039c-2.203,0-3.305-1.117-3.305-3.352v-8.742h5.484v7.477h6.703v-7.195l-10.992-10.406c-.797-.766-1.195-1.742-1.195-2.93v-8.156c0-2.25,1.102-3.375,3.305-3.375h11.039c2.219,0,3.328,1.109,3.328,3.328v8.203h-5.484v-6.914h-6.703v6.633l10.992,10.359c.797.75,1.195,1.742,1.195,2.977v8.742Z"/>
        <path class="cls-8" d="m828.204,858.82h-6.047v31.828h-5.461v-31.828h-6.047v-4.852h17.555v4.852Z"/>
        <path class="cls-8" d="m846.204,890.648h-15.211v-36.68h15.07v4.852h-9.586v10.711h8.25v4.758h-8.25v11.508h9.727v4.852Z"/>
        <path class="cls-8" d="m868.54,890.648h-5.438l-1.102-6.961h-6.867l-1.102,6.961h-5.414v-.094l7.102-36.633h5.766l7.055,36.727Zm-7.312-11.672l-2.672-16.547-2.695,16.547h5.367Z"/>
        <path class="cls-8" d="m889.891,883.734c0,2.156-.641,3.848-1.922,5.074s-3.008,1.84-5.18,1.84h-11.18v-36.68h11.18c2.172,0,3.898.621,5.18,1.863s1.922,2.941,1.922,5.098v22.805Zm-5.508-.914v-21.07c0-2.047-1.07-3.07-3.211-3.07h-4.078v27.258h3.938c2.234,0,3.352-1.039,3.352-3.117Z"/>
        <path class="cls-8" d="m1029.813,890.648h-5.391v-25.875h-2.109v-.727l2.836-10.078h4.664v36.68Z"/>
        <path class="cls-8" d="m1052.219,887.297c0,2.234-1.102,3.352-3.305,3.352h-11.133c-2.219,0-3.328-1.117-3.328-3.352v-29.953c0-2.25,1.086-3.375,3.258-3.375h11.109c2.203,0,3.305,1.125,3.305,3.375v7.758h-5.391v-6.422h-6.891v11.039h9.07c2.203,0,3.305,1.102,3.305,3.305v14.273Zm-5.367-1.359v-11.555h-7.008v11.555h7.008Z"/>
        <path class="cls-8" d="m1075.259,883.734h-2.789v6.914h-5.227v-6.914h-12.047v-3.258l9.117-26.508h5.578v.211l-8.555,24.891h5.906v-11.039h5.227v11.039h2.789v4.664Z"/>
        <path class="cls-8" d="m643.657,944.896c0,2.234-1.125,3.352-3.375,3.352h-10.406c-2.203,0-3.305-1.117-3.305-3.352v-9.023h5.461v7.664h6.141v-31.969h5.484v33.328Z"/>
        <path class="cls-8" d="m666.602,948.248h-5.438l-1.102-6.961h-6.867l-1.102,6.961h-5.414v-.094l7.102-36.633h5.766l7.055,36.727Zm-7.312-11.672l-2.672-16.547-2.695,16.547h5.367Z"/>
        <path class="cls-8" d="m687.954,948.248h-5.93l-4.031-12.914-4.055,12.914h-5.836v-.188l6.844-18.586c-4.297-11.875-6.438-17.844-6.422-17.906h5.859l3.656,11.953,3.68-11.953h5.812v.211l-6.422,17.555,6.844,18.914Z"/>
        <path class="cls-8" d="m708.368,944.896c0,2.234-1.109,3.352-3.328,3.352h-11.039c-2.203,0-3.305-1.117-3.305-3.352v-8.742h5.484v7.477h6.703v-7.195l-10.992-10.406c-.797-.766-1.195-1.742-1.195-2.93v-8.156c0-2.25,1.102-3.375,3.305-3.375h11.039c2.219,0,3.328,1.109,3.328,3.328v8.203h-5.484v-6.914h-6.703v6.633l10.992,10.359c.797.75,1.195,1.742,1.195,2.977v8.742Z"/>
        <path class="cls-8" d="m731.219,944.896c0,2.234-1.109,3.352-3.328,3.352h-11.906c-2.172,0-3.258-1.117-3.258-3.352v-29.953c0-2.25,1.086-3.375,3.258-3.375h11.906c2.219,0,3.328,1.125,3.328,3.375v29.953Zm-5.484-1.359v-27.258h-7.523v27.258h7.523Z"/>
        <path class="cls-8" d="m754.212,948.248h-4.805l-8.789-23.086c.234,1.125.352,2.008.352,2.648v20.438h-5.344v-36.68h4.805l8.789,22.617c-.234-1.125-.352-2.008-.352-2.648v-19.969h5.344v36.68Z"/>
        <path class="cls-8" d="m790.68,948.248h-5.273v-18.094c0-.953.109-2.281.328-3.984l-4.734,18.727h-2.789l-4.758-18.727c.219,1.734.328,3.062.328,3.984v18.094h-5.273v-36.68h5.18l5.766,20.273c.062.219.109.773.141,1.664,0-.391.047-.945.141-1.664l5.766-20.273h5.18v36.68Z"/>
        <path class="cls-8" d="m813.649,948.248h-5.438l-1.102-6.961h-6.867l-1.102,6.961h-5.414v-.094l7.102-36.633h5.766l7.055,36.727Zm-7.312-11.672l-2.672-16.547-2.695,16.547h5.367Z"/>
        <path class="cls-8" d="m832.657,916.42h-6.047v31.828h-5.461v-31.828h-6.047v-4.852h17.555v4.852Z"/>
        <path class="cls-8" d="m853.891,948.248h-5.531v-16.453h-7.43v16.453h-5.484v-36.68h5.484v15.117h7.43v-15.117h5.531v36.68Z"/>
        <path class="cls-8" d="m873.462,948.248h-15.211v-36.68h15.07v4.852h-9.586v10.711h8.25v4.758h-8.25v11.508h9.727v4.852Z"/>
        <path class="cls-8" d="m895.798,948.248h-4.805l-8.789-23.086c.234,1.125.352,2.008.352,2.648v20.438h-5.344v-36.68h4.805l8.789,22.617c-.234-1.125-.352-2.008-.352-2.648v-19.969h5.344v36.68Z"/>
        <path class="cls-8" d="m905.782,948.248h-5.484v-36.68h5.484v36.68Z"/>
        <path class="cls-8" d="m928.868,948.248h-5.438l-1.102-6.961h-6.867l-1.102,6.961h-5.414v-.094l7.102-36.633h5.766l7.055,36.727Zm-7.312-11.672l-2.672-16.547-2.695,16.547h5.367Z"/>
        <path class="cls-8" d="m1029.813,948.248h-5.391v-25.875h-2.109v-.727l2.836-10.078h4.664v36.68Z"/>
        <path class="cls-8" d="m1051.798,915.084l-8.461,33.164h-5.625l8.227-31.969h-7.008v5.367h-5.297v-10.078h18.164v3.516Z"/>
        <path class="cls-8" d="m1072.915,944.896c0,2.234-1.102,3.352-3.305,3.352h-11.133c-2.219,0-3.328-1.117-3.328-3.352v-29.953c0-2.25,1.086-3.375,3.258-3.375h11.109c2.203,0,3.305,1.125,3.305,3.375v7.758h-5.391v-6.422h-6.891v11.039h9.07c2.203,0,3.305,1.102,3.305,3.305v14.273Zm-5.367-1.359v-11.555h-7.008v11.555h7.008Z"/>
        <path class="cls-8" d="m649.352,1005.847h-5.273v-18.094c0-.953.109-2.281.328-3.984l-4.734,18.727h-2.789l-4.758-18.727c.219,1.734.328,3.062.328,3.984v18.094h-5.273v-36.68h5.18l5.766,20.273c.062.219.109.773.141,1.664,0-.391.047-.945.141-1.664l5.766-20.273h5.18v36.68Z"/>
        <path class="cls-8" d="m672.321,1005.847h-5.438l-1.102-6.961h-6.867l-1.102,6.961h-5.414v-.094l7.102-36.633h5.766l7.055,36.727Zm-7.312-11.672l-2.672-16.547-2.695,16.547h5.367Z"/>
        <path class="cls-8" d="m692.969,1002.496c0,2.234-1.109,3.352-3.328,3.352h-11.039c-2.203,0-3.305-1.117-3.305-3.352v-8.742h5.484v7.477h6.703v-7.195l-10.992-10.406c-.797-.766-1.195-1.742-1.195-2.93v-8.156c0-2.25,1.102-3.375,3.305-3.375h11.039c2.219,0,3.328,1.109,3.328,3.328v8.203h-5.484v-6.914h-6.703v6.633l10.992,10.359c.797.75,1.195,1.742,1.195,2.977v8.742Z"/>
        <path class="cls-8" d="m715.821,1002.496c0,2.234-1.109,3.352-3.328,3.352h-11.906c-2.172,0-3.258-1.117-3.258-3.352v-29.953c0-2.25,1.086-3.375,3.258-3.375h11.906c2.219,0,3.328,1.125,3.328,3.375v29.953Zm-5.484-1.359v-27.258h-7.523v27.258h7.523Z"/>
        <path class="cls-8" d="m738.813,1005.847h-4.805l-8.789-23.086c.234,1.125.352,2.008.352,2.648v20.438h-5.344v-36.68h4.805l8.789,22.617c-.234-1.125-.352-2.008-.352-2.648v-19.969h5.344v36.68Z"/>
        <path class="cls-8" d="m780.18,969.168l-5.367,36.727h-5.367l-3.281-20.789c-.031-.75-.094-1.867-.188-3.352,0,.75-.062,1.867-.188,3.352l-3.258,20.789h-5.391l-5.367-36.727h5.555l2.836,21.75c.047.75.109,1.867.188,3.352.016-.75.086-1.867.211-3.352l3.164-21.75h4.5l3.164,21.75c.047.75.117,1.867.211,3.352.016-.75.078-1.867.188-3.352l2.836-21.75h5.555Z"/>
        <path class="cls-8" d="m798.462,1005.847h-15.211v-36.68h15.07v4.852h-9.586v10.711h8.25v4.758h-8.25v11.508h9.727v4.852Z"/>
        <path class="cls-8" d="m819.79,1002.496c0,2.234-1.109,3.352-3.328,3.352h-11.039c-2.203,0-3.305-1.117-3.305-3.352v-8.742h5.484v7.477h6.703v-7.195l-10.992-10.406c-.797-.766-1.195-1.742-1.195-2.93v-8.156c0-2.25,1.102-3.375,3.305-3.375h11.039c2.219,0,3.328,1.109,3.328,3.328v8.203h-5.484v-6.914h-6.703v6.633l10.992,10.359c.797.75,1.195,1.742,1.195,2.977v8.742Z"/>
        <path class="cls-8" d="m840.087,974.019h-6.047v31.828h-5.461v-31.828h-6.047v-4.852h17.555v4.852Z"/>
        <path class="cls-8" d="m1029.813,1005.847h-5.391v-25.875h-2.109v-.727l2.836-10.078h4.664v36.68Z"/>
        <path class="cls-8" d="m1052.548,1002.496c0,2.234-1.102,3.352-3.305,3.352h-11.578c-2.172,0-3.258-1.117-3.258-3.352v-10.664c0-1.359.453-2.398,1.359-3.117,1.078-.625,2.164-1.25,3.258-1.875l-3.141-1.828c-.953-.75-1.43-1.758-1.43-3.023v-9.445c0-2.25,1.109-3.375,3.328-3.375h11.414c2.172,0,3.258,1.125,3.258,3.375v9.445c0,1.281-.469,2.289-1.406,3.023l-3.141,1.828c1.078.625,2.164,1.25,3.258,1.875.922.719,1.383,1.758,1.383,3.117v10.664Zm-5.461-1.266v-10.172l-3.609-2.062-3.633,2.062v10.172h7.242Zm-.047-18.656v-8.789h-7.102v8.789l3.539,2.109,3.562-2.109Z"/>
        <path class="cls-8" d="m1075.071,1002.496c0,2.234-1.102,3.352-3.305,3.352h-11.578c-2.172,0-3.258-1.117-3.258-3.352v-10.664c0-1.359.453-2.398,1.359-3.117,1.078-.625,2.164-1.25,3.258-1.875l-3.141-1.828c-.953-.75-1.43-1.758-1.43-3.023v-9.445c0-2.25,1.109-3.375,3.328-3.375h11.414c2.172,0,3.258,1.125,3.258,3.375v9.445c0,1.281-.469,2.289-1.406,3.023l-3.141,1.828c1.078.625,2.164,1.25,3.258,1.875.922.719,1.383,1.758,1.383,3.117v10.664Zm-5.461-1.266v-10.172l-3.609-2.062-3.633,2.062v10.172h7.242Zm-.047-18.656v-8.789h-7.102v8.789l3.539,2.109,3.562-2.109Z"/>
        <path class="cls-8" d="m643.657,1060.096c0,2.234-1.125,3.352-3.375,3.352h-10.406c-2.203,0-3.305-1.117-3.305-3.352v-9.023h5.461v7.664h6.141v-31.969h5.484v33.328Z"/>
        <path class="cls-8" d="m666.602,1063.448h-5.438l-1.102-6.961h-6.867l-1.102,6.961h-5.414v-.094l7.102-36.633h5.766l7.055,36.727Zm-7.312-11.672l-2.672-16.547-2.695,16.547h5.367Z"/>
        <path class="cls-8" d="m687.719,1060.096c0,2.234-1.117,3.352-3.352,3.352h-11.438c-2.172,0-3.258-1.117-3.258-3.352v-29.953c0-2.25,1.086-3.375,3.258-3.375h11.438c2.234,0,3.352,1.125,3.352,3.375v8.578h-5.461v-7.242h-7.102v27.258h7.102v-7.711h5.461v9.07Z"/>
        <path class="cls-8" d="m710.524,1063.448h-6.047l-6.961-16.359v16.359h-5.484v-36.68h5.484v15.516l6.094-15.516h6v.258l-7.453,17.414,8.367,19.008Z"/>
        <path class="cls-8" d="m741.204,1063.448h-5.438l-1.102-6.961h-6.867l-1.102,6.961h-5.414v-.094l7.102-36.633h5.766l7.055,36.727Zm-7.312-11.672l-2.672-16.547-2.695,16.547h5.367Z"/>
        <path class="cls-8" d="m766.446,1063.448h-5.273v-18.094c0-.953.109-2.281.328-3.984l-4.734,18.727h-2.789l-4.758-18.727c.219,1.734.328,3.062.328,3.984v18.094h-5.273v-36.68h5.18l5.766,20.273c.062.219.109.773.141,1.664,0-.391.047-.945.141-1.664l5.766-20.273h5.18v36.68Z"/>
        <path class="cls-8" d="m789.415,1063.448h-5.438l-1.102-6.961h-6.867l-1.102,6.961h-5.414v-.094l7.102-36.633h5.766l7.055,36.727Zm-7.312-11.672l-2.672-16.547-2.695,16.547h5.367Z"/>
        <path class="cls-8" d="m811.071,1063.448h-4.805l-8.789-23.086c.234,1.125.352,2.008.352,2.648v20.438h-5.344v-36.68h4.805l8.789,22.617c-.234-1.125-.352-2.008-.352-2.648v-19.969h5.344v36.68Z"/>
        <path class="cls-8" d="m834.063,1063.448h-4.805l-8.789-23.086c.234,1.125.352,2.008.352,2.648v20.438h-5.344v-36.68h4.805l8.789,22.617c-.234-1.125-.352-2.008-.352-2.648v-19.969h5.344v36.68Z"/>
        <path class="cls-8" d="m1040.407,1037.198c0,1.156-.398,2.438-1.195,3.844l-10.078,17.602h11.227v4.805h-17.789v-3.398l12.422-21.844v-6.773h-6.68v6.82h-5.367v-8.156c0-2.219,1.117-3.328,3.352-3.328h10.758c2.234,0,3.352,1.109,3.352,3.328v7.102Z"/>
        <path class="cls-8" d="m1061.688,1030.284l-8.461,33.164h-5.625l8.227-31.969h-7.008v5.367h-5.297v-10.078h18.164v3.516Z"/>
        <path class="cls-8" d="m1082.571,1060.096c0,2.234-1.109,3.352-3.328,3.352h-10.992c-2.172,0-3.258-1.117-3.258-3.352v-8.461h5.391v7.102h6.797v-14.109h-12.188l.586-17.859h16.734v4.805h-11.648l-.352,8.344h8.93c2.219,0,3.328,1.109,3.328,3.328v16.852Z"/>
      </g>
      <g id="Senior">
        <path class="cls-2" d="m771.843,585.321c0,2.607-1.294,3.91-3.883,3.91h-12.879c-2.57,0-3.855-1.303-3.855-3.91v-10.199h6.398v8.723h7.82v-8.395l-12.824-12.141c-.93-.893-1.395-2.031-1.395-3.418v-9.516c0-2.625,1.285-3.938,3.855-3.938h12.879c2.588,0,3.883,1.295,3.883,3.883v9.57h-6.398v-8.066h-7.82v7.738l12.824,12.086c.93.875,1.395,2.033,1.395,3.473v10.199Z"/>
        <path class="cls-2" d="m793.712,585.813c0,2.279-1.176,3.418-3.527,3.418h-10.801c-2.352,0-3.527-1.139-3.527-3.418v-20.781c0-2.277,1.176-3.418,3.527-3.418h10.801c2.352,0,3.527,1.141,3.527,3.418v10.145l-1.723,1.723h-10.145v7.738h5.879v-4.594h5.988v5.77Zm-5.988-12.988v-6.617h-5.879v6.617h5.879Z"/>
        <path class="cls-2" d="m815.891,589.231h-6.289v-22.395l-5.879.109v22.285h-6.262v-27.617h6.262v1.012c1.458-.236,2.907-.465,4.348-.684,1.786-.291,3.254-.438,4.402-.438,2.278,0,3.418,1.121,3.418,3.363v24.363Z"/>
        <path class="cls-2" d="m825.968,557.649h-6.262v-6.453h6.262v6.453Zm-.055,31.582h-6.152v-27.617h6.152v27.617Z"/>
        <path class="cls-2" d="m847.928,585.813c0,2.279-1.158,3.418-3.473,3.418h-11.211c-2.352,0-3.527-1.139-3.527-3.418v-20.781c0-2.277,1.176-3.418,3.527-3.418h11.211c2.314,0,3.473,1.141,3.473,3.418v20.781Zm-6.125-1.777v-17.199h-5.934v17.199h5.934Z"/>
        <path class="cls-2" d="m869.118,573.153h-6.207v-6.316l-4.949.109v22.285h-6.262v-27.617h6.262v1.012c1.294-.236,2.579-.473,3.855-.711,1.549-.273,2.844-.41,3.883-.41,2.278,0,3.418,1.121,3.418,3.363v8.285Z"/>
      </g>
    </g>
  </g>
  <g id="Paw-2023-Paw">
    <g id="Paws">
      <g id="Paw-Left">
        <path class="cls-5" d="m282.735,362.999c1.742.471,5.379,3.776,5.379,23.113,0,2.518.078,4.915.153,7.233.387,11.965.054,16.343-5.205,18.475-1.497.607-2.888.915-4.134.915-1.476,0-2.799-.436-4.044-1.331-7.173-5.163-10.951-11.78-10.928-19.136.069-21.384,15.222-29.091,18.778-29.27m28.938.893c2.806,0,6.189,1.778,9.281,4.878,6.317,6.334,10.224,16.528,10.197,26.604-.005,1.842-1.384,8.351-7.442,13.911-1.023.918-4.738,3.224-7.441,3.224-.716,0-1.086-.168-1.302-.294-7.522-4.397-7.817-14.2-7.473-23.864.033-.931.063-1.794.077-2.572.04-2.339.002-4.638-.036-6.862-.084-4.966-.164-9.656.713-12.593.556-1.861,1.086-2.291,2.988-2.417.146-.01.293-.015.44-.015m39.397,43.141c1.162.218,5.119,2.305,9.559,7.946,4.472,5.682,7.137,12.059,7.31,17.498.074,2.328-1.559,12.156-7.578,17.24-1.582,1.336-7.005,3.723-12.182,3.723-1.417,0-2.669-.184-3.721-.546-5.079-1.748-8.364-5.855-9.074-8.214-2.184-7.253-.673-11.711,1.239-17.356l.176-.521c5.056-14.958,12.313-19.304,14.271-19.771m-105.646.961c.437.083,6.351,1.534,15.963,17.97,1.512,2.585,1.759,5.385.756,8.561-2.334,7.39-10.446,13.968-12.34,14.865-1.615.601-3.36.919-5.051.919-2.818,0-4.826-.852-5.689-1.581-5.652-4.774-5.362-13.228-5.266-16.006l.01-.297c.191-5.982,2.071-12.419,5.159-17.662,2.864-4.861,5.603-6.666,6.459-6.77m52.95,24.834c5.856,0,13.815,4.751,15.77,9.414.632,1.507,1.178,3.03,1.706,4.503,3.196,8.91,6.5,18.122,27.725,24.884,3.223,1.027,5.036,3.018,5.878,6.455.827,3.379.57,7.951-.726,12.875-1.909,7.255-8.295,9.658-13.317,10.397-1.435.211-2.87.314-4.388.314-4.343,0-8.751-.876-13.418-1.804-5.475-1.088-11.68-2.322-18.904-2.372h-.39c-6.787-.002-11.399,1.277-15.86,2.513-5.424,1.503-11.033,3.058-22.355,3.058h-.428c-6.708-.024-12.279-4.958-15.284-13.537-2.45-6.991,2.554-17.926,7.923-20.351,13.181-5.954,18.016-12.301,21.216-16.5,1.104-1.45,2.148-3.027,3.254-4.696,4.859-7.34,9.884-14.929,21.409-15.151l.188-.002m-15.519-75.831c-6.299,0-24.818,9.95-24.899,35.253-.027,8.517,3.864,17.144,13.422,24.025,1.671,1.203,4.165,2.462,7.549,2.462,1.857,0,3.983-.379,6.388-1.355,11.531-4.676,8.798-16.767,8.798-31.269,0-10.618-.704-27.226-10.437-29.048-.243-.046-.518-.069-.821-.069h0Zm28.818.896c-.281,0-.56.009-.839.028-11.571.772-9.032,14.303-9.265,27.755-.135,7.793-2.069,24.45,10.368,31.72,1.361.796,2.84,1.114,4.33,1.114,5.07,0,10.278-3.683,11.494-4.8,7.418-6.808,9.381-15.068,9.389-18.319.056-20.291-13.357-37.498-25.477-37.498h0Zm39.325,43.124c-3.588,0-13.64,5.396-19.883,23.866-2.088,6.177-4.292,12.176-1.477,21.528,1.36,4.516,6.233,9.875,12.867,12.157,1.781.613,3.712.872,5.673.872,6.519,0,13.361-2.865,16.054-5.139,8.111-6.851,9.8-18.996,9.703-22.015-.483-15.168-15.357-31.159-22.887-31.269-.017,0-.034,0-.051,0h0Zm-105.558.974c-.025,0-.049,0-.073,0-7.53.11-17.075,15.074-17.558,30.243-.096,3.019-.729,14.226,7.382,21.077,2.191,1.851,5.673,2.997,9.561,2.997,2.326,0,4.798-.41,7.225-1.326,4.133-1.559,23.135-17.437,14.59-32.048-10.039-17.166-17.553-20.944-21.127-20.944h0Zm52.932,24.837c-.101,0-.202,0-.302.003-17.713.341-23.586,14.684-29.32,22.21-2.953,3.877-7.141,9.351-18.913,14.668-8.392,3.791-14.523,18.076-11.116,27.803,3.797,10.837,11.391,17.519,20.926,17.552.151,0,.3,0,.449,0,21.72,0,24.681-5.573,38.214-5.573.115,0,.232,0,.349.001,12.747.089,22.043,4.176,32.362,4.176,1.718,0,3.466-.113,5.261-.377,6.1-.897,15.473-4.264,18.246-14.806,2.742-10.423,2.305-22.93-9.133-26.574-21.77-6.935-21.242-15.312-25.719-25.99-3.028-7.222-13.399-13.094-21.305-13.094h0Z"/>
      </g>
      <g id="Paw-Right">
        <path class="cls-5" d="m917.265,362.999c3.557.179,18.71,7.885,18.779,29.27.024,7.355-3.755,13.973-10.928,19.136-1.245.896-2.567,1.331-4.044,1.331-1.246,0-2.637-.308-4.134-.915-5.259-2.132-5.592-6.51-5.205-18.475.075-2.318.153-4.715.153-7.233,0-19.336,3.637-22.642,5.379-23.113m-28.938.893c.147,0,.294.005.44.015,1.902.127,2.432.556,2.988,2.417.877,2.937.797,7.627.713,12.593-.038,2.224-.077,4.523-.036,6.862.013.778.044,1.641.077,2.572.343,9.664.049,19.467-7.473,23.864-.216.126-.586.294-1.302.294-2.703,0-6.418-2.306-7.437-3.22-6.063-5.564-7.441-12.073-7.447-13.915-.028-10.076,3.879-20.27,10.196-26.604,3.092-3.1,6.475-4.878,9.282-4.878m-39.405,43.139c1.947.457,9.216,4.795,14.279,19.773l.176.521c1.912,5.645,3.423,10.103,1.239,17.356-.71,2.359-3.995,6.466-9.074,8.214-1.052.362-2.304.546-3.721.546-5.177,0-10.6-2.387-12.182-3.723-6.019-5.084-7.652-14.913-7.578-17.24.173-5.439,2.838-11.816,7.31-17.498,4.458-5.663,8.428-7.744,9.552-7.948m105.652.963c.864.108,3.6,1.914,6.46,6.769,3.088,5.242,4.969,11.68,5.159,17.662l.01.297c.095,2.778.385,11.232-5.266,16.006-.863.729-2.871,1.581-5.689,1.581-1.691,0-3.437-.318-5.051-.919-1.894-.897-10.007-7.475-12.341-14.865-1.003-3.176-.756-5.977.756-8.561,9.604-16.422,15.516-17.884,15.962-17.969m-52.947,24.834h0l.187.002c11.524.222,16.549,7.811,21.408,15.151,1.105,1.669,2.149,3.246,3.254,4.696,3.2,4.2,8.035,10.547,21.216,16.5,5.369,2.425,10.372,13.359,7.923,20.351-3.006,8.579-8.577,13.513-15.285,13.536h-.428c-11.324,0-16.933-1.554-22.358-3.057-4.46-1.236-9.071-2.514-15.857-2.514h-.391c-7.222.052-13.428,1.285-18.903,2.374-4.667.928-9.075,1.804-13.418,1.804-1.518,0-2.953-.103-4.388-.314-5.022-.738-11.408-3.142-13.317-10.397-1.296-4.924-1.553-9.497-.726-12.875.842-3.437,2.655-5.428,5.878-6.455,21.225-6.762,24.529-15.974,27.725-24.884.528-1.473,1.074-2.995,1.706-4.503,1.955-4.663,9.914-9.414,15.772-9.414m15.517-75.831c-.303,0-.578.023-.821.069-9.732,1.822-10.437,18.43-10.437,29.048,0,14.502-2.733,26.593,8.798,31.269,2.405.975,4.531,1.355,6.388,1.355,3.385,0,5.878-1.259,7.549-2.462,9.558-6.88,13.45-15.507,13.422-24.025-.082-25.302-18.599-35.253-24.899-35.253h0Zm-28.818.896c-12.121,0-25.533,17.206-25.477,37.498.009,3.25,1.971,11.51,9.389,18.319,1.216,1.116,6.425,4.8,11.494,4.8,1.491,0,2.969-.318,4.33-1.114,12.437-7.27,10.503-23.927,10.368-31.72-.233-13.452,2.306-26.983-9.265-27.755-.279-.019-.559-.028-.839-.028h0Zm-39.325,43.124c-.017,0-.034,0-.051,0-7.53.11-22.404,16.1-22.887,31.269-.096,3.019,1.593,15.164,9.703,22.015,2.692,2.274,9.535,5.139,16.054,5.139,1.962,0,3.892-.259,5.673-.872,6.635-2.283,11.508-7.642,12.867-12.157,2.816-9.351.611-15.351-1.477-21.528-6.242-18.469-16.294-23.866-19.883-23.866h0Zm105.558.974c-3.573,0-11.087,3.777-21.127,20.944-8.545,14.612,10.457,30.49,14.59,32.048,2.427.915,4.899,1.326,7.225,1.326,3.888,0,7.37-1.146,9.561-2.997,8.111-6.851,7.478-18.058,7.382-21.077-.483-15.168-10.028-30.133-17.558-30.243-.024,0-.049,0-.073,0h0Zm-52.932,24.837c-7.905,0-18.277,5.872-21.305,13.094-4.477,10.677-3.949,19.055-25.719,25.99-11.439,3.644-11.876,16.151-9.133,26.574,2.774,10.543,12.146,13.909,18.246,14.806,1.796.264,3.542.377,5.26.377,10.318,0,19.616-4.087,32.362-4.176.117,0,.233-.001.349-.001,13.532,0,16.492,5.573,38.214,5.573.148,0,.299,0,.449,0,9.535-.033,17.129-6.715,20.926-17.552,3.408-9.727-2.723-24.012-11.115-27.803-11.772-5.317-15.96-10.792-18.913-14.668-5.734-7.526-11.606-21.869-29.32-22.21-.1-.002-.201-.003-.302-.003h0Z"/>
      </g>
    </g>
    <g id="_2023" data-name="2023">
      <path id="_2" data-name="2" class="cls-3" d="m501.569,400.236c0,4.795-1.652,10.105-4.956,15.936l-41.782,72.973h46.543v19.919h-73.75v-14.089l51.499-90.561v-28.082h-27.693v28.276h-22.251v-33.814c0-9.198,4.631-13.798,13.895-13.798h44.6c9.263,0,13.895,4.6,13.895,13.798v29.442Z"/>
      <path id="_0" data-name="0" class="cls-3" d="m592.518,495.169c0,9.265-4.567,13.895-13.701,13.895h-47.418c-9.005,0-13.506-4.63-13.506-13.895v-124.181c0-9.328,4.599-13.992,13.798-13.992h47.126c9.134,0,13.701,4.664,13.701,13.992v124.181Zm-22.251-5.636v-113.006h-30.025v113.006h30.025Z"/>
      <path id="_2-2" data-name="2" class="cls-3" d="m682.204,400.236c0,4.795-1.652,10.105-4.956,15.936l-41.782,72.973h46.543v19.919h-73.75v-14.089l51.499-90.561v-28.082h-27.693v28.276h-22.251v-33.814c0-9.198,4.63-13.798,13.895-13.798h44.6c9.263,0,13.895,4.6,13.895,13.798v29.442Z"/>
      <path id="_3" data-name="3" class="cls-3" d="m772.376,495.169c0,9.265-4.567,13.895-13.701,13.895h-46.641c-9.005,0-13.506-4.63-13.506-13.895v-35.078h22.349v29.442h29.248v-38.187l-27.887-19.142v-4.761l27.887-18.851v-32.065h-29.248v27.693h-22.349v-33.231c0-9.328,4.599-13.992,13.798-13.992h46.349c9.134,0,13.701,4.664,13.701,13.992v35.758c0,6.024-2.526,10.688-7.579,13.992l-14.089,9.134,14.284,8.939c4.922,3.046,7.385,7.612,7.385,13.701v42.657Z"/>
    </g>
  </g>
  <g>
    <path class="cls-1" d="m412.779,286.763l-3.002-3.054,3.002-3.054v-11.464c0-3.545.983-6.858,2.717-9.73.802-1.32,1.734-2.51,2.795-3.597,1.087-1.061,2.277-1.993,3.571-2.795,2.873-1.734,6.185-2.743,9.782-2.743,3.545,0,6.858.983,9.73,2.743,1.32.776,2.51,1.708,3.623,2.795,1.061,1.087,1.993,2.277,2.795,3.597,1.734,2.873,2.717,6.185,2.717,9.73v11.594l2.898,2.924-2.898,2.924v7.738c.052,7.971-5.072,14.906-12.085,17.572v7.764h-12.241v-7.298c-7.738-2.277-13.457-9.601-13.405-18.038v-7.608Zm12.577,5.616v1.993c0,1.734.621,3.209,1.837,4.451,1.216,1.216,2.717,1.837,4.451,1.837s3.235-.621,4.451-1.837c1.216-1.242,1.837-2.717,1.837-4.451v-25.18c0-.44-.052-.854-.129-1.268-.285-1.242-.854-2.303-1.708-3.157-.88-.88-1.941-1.449-3.183-1.734-.414-.078-.828-.129-1.268-.129s-.854.052-1.268.129c-1.268.285-2.329.854-3.183,1.734-.88.854-1.449,1.915-1.708,3.157-.078.414-.129.828-.129,1.268v23.188Z"/>
    <path class="cls-1" d="m459.025,286.763l-3.028-3.054,3.028-3.054v-29.088h12.085v42.286c0,1.682.595,3.105,1.76,4.296,1.19,1.165,2.614,1.76,4.296,1.76,1.656,0,3.08-.595,4.244-1.76,1.19-1.19,1.786-2.614,1.786-4.296v-42.286h12.085v29.088l3.028,3.054-3.028,3.054v7.091c0,3.338-.828,6.392-2.458,9.135s-3.804,4.943-6.547,6.573-5.771,2.433-9.109,2.433-6.392-.802-9.135-2.433-4.943-3.83-6.573-6.573-2.433-5.797-2.433-9.135v-7.091Z"/>
    <path class="cls-1" d="m541.656,283.71l-1.63,1.656,6.961,26.629h-12.085l-2.717-12.215h-16.485l-2.717,12.215h-12.085l6.91-26.526-1.734-1.76,3.002-3.054,7.583-29.088h14.544l7.66,29.321,2.795,2.821Zm-23.834,6.573h12.241l-6.133-24.896-6.107,24.896Z"/>
    <path class="cls-1" d="m552.525,286.66l-2.95-2.95,2.95-2.95v-29.191h12.086v29.114l3.002,3.028-3.002,3.028v13.172h20.91v12.085h-32.996v-25.335Z"/>
    <path class="cls-1" d="m590.982,286.608l-2.873-2.898,2.873-2.898v-29.243h12.085v29.321l2.795,2.821-2.795,2.821v25.465h-12.085v-25.387Z"/>
    <path class="cls-1" d="m611.476,287.824v-1.061l-3.027-3.054,3.027-3.054v-29.088h32.996v12.085h-20.91v12.085h15.76v12.085h-15.76v24.171h-12.086v-24.171Z"/>
    <path class="cls-1" d="m649.933,286.608l-2.873-2.898,2.873-2.898v-29.243h12.085v29.321l2.795,2.821-2.795,2.821v25.465h-12.085v-25.387Z"/>
    <path class="cls-1" d="m670.43,287.824v-1.061l-3.027-3.054,3.027-3.054v-29.088h33.021v12.085h-20.936v12.085h15.786v12.085h-15.786v12.085h20.936v12.085h-33.021v-24.171Z"/>
    <path class="cls-1" d="m709.015,286.712l-2.977-3.002,2.977-3.002v-29.14h19.979c8.876-.104,16.381,7.401,16.277,16.278v2.355c0,3.442-.932,6.651-2.82,9.627-1.89,2.976-4.348,5.176-7.402,6.625l10.223,25.542h-12.086l-9.678-24.171h-2.407v24.171h-12.085v-25.284Zm12.085-23.058v12.085h6.909c.854,0,1.656-.311,2.407-.906.828-.647,1.501-1.501,1.993-2.562.518-1.061.775-2.07.775-3.054v-.673c0-1.346-.491-2.484-1.449-3.442-.957-.958-2.096-1.449-3.441-1.449h-7.194Z"/>
    <path class="cls-1" d="m761.109,290.723c-.182,2.148-.207,4.348.699,6.289.879,1.63,2.225,2.666,4.011,3.157,1.812.492,3.493.233,5.072-.725,1.476-1.087,2.354-2.562,2.588-4.399s-.207-3.494-1.372-4.917c-1.009-1.009-2.174-1.812-3.493-2.381-.647-.311-1.319-.621-1.993-.906l-15.76-3.157,3.08-3.131c-.854-.647-1.605-1.397-2.304-2.251-2.251-2.924-3.312-6.133-3.157-9.601.182-3.494,1.242-6.729,3.184-9.73,1.967-3.028,4.502-5.305,7.634-6.858,2.925-1.346,5.978-1.915,9.187-1.734,3.235.181,6.211,1.139,8.955,2.821,2.717,1.734,4.839,4.037,6.392,6.858s2.354,5.849,2.381,9.058h-12.525c-.026-1.32-.44-2.536-1.242-3.623-.776-1.087-1.786-1.863-3.054-2.303-1.268-.414-2.562-.414-3.855-.026-1.269.388-2.33,1.113-3.158,2.148-1.061,1.527-1.449,3.209-1.139,5.046.13.802.44,1.579.906,2.277.957,1.449,2.433,2.433,4.012,3.235,1.863.906,3.777,1.734,5.744,2.433,1.32.492,2.614,1.009,3.883,1.553.465.207.932.414,1.396.647h-.025l10.48,3.183-3.131,3.157-.025-.026c1.268,2.381,1.863,4.943,1.785,7.66-.104,3.545-1.113,6.806-3.027,9.808-1.916,2.976-4.451,5.279-7.635,6.858-3.184,1.501-6.547,2.07-10.093,1.708-3.546-.336-6.729-1.579-9.575-3.675-2.795-2.174-4.84-4.917-6.133-8.204-1.295-3.312-1.656-6.729-1.062-10.222,4.114,0,8.255,0,12.37-.026Z"/>
  </g>
  <g id="IKWF-STATE">
    <g>
      <polygon class="cls-4" points="210.556 208.702 210.556 158.777 204.565 152.732 210.556 146.688 210.556 89.268 236.042 89.268 236.042 146.839 241.882 152.732 236.042 158.626 236.042 208.702 210.556 208.702"/>
      <path class="cls-7" d="m235.042,90.268v56.982l5.432,5.482-5.432,5.482v49.488h-23.487v-49.337l-5.583-5.633,5.583-5.633v-56.831h23.487m2-2h-27.487v58.008l-5.003,5.048-1.395,1.408,1.395,1.408,5.003,5.048v50.514h27.487v-50.665l4.852-4.897,1.395-1.408-1.395-1.408-4.852-4.897v-58.159h0Z"/>
    </g>
    <g>
      <polygon class="cls-4" points="304.894 208.702 286.585 162.978 283.084 168.85 283.084 208.702 257.598 208.702 257.598 159.078 251.305 152.732 257.598 146.386 257.598 89.268 283.084 89.268 283.084 125.776 290.58 113.242 305.006 89.268 330.825 89.268 301.956 137.331 330.535 208.702 304.894 208.702"/>
      <path class="cls-7" d="m329.058,90.268l-28.214,46.974,28.214,70.46h-23.487l-18.81-46.974-4.677,7.846v39.128h-23.487v-49.036l-5.884-5.935,5.884-5.935v-56.529h23.487v39.128l9.354-15.641,14.132-23.487h23.487m3.534-2h-28.152l-.583.969-14.132,23.487-5.641,9.432v-33.887h-27.487v57.706l-5.304,5.35-1.396,1.408,1.396,1.408,5.304,5.35v50.212h27.487v-40.577l2.324-3.898,17.306,43.219.503,1.257h27.796l-1.099-2.743-27.845-69.539,27.703-46.122,1.82-3.03h0Z"/>
    </g>
    <g>
      <polygon class="cls-4" points="407.993 208.753 403.984 193.306 399.932 208.753 370.174 208.753 357.258 159.266 350.781 152.734 354.546 148.914 338.973 89.268 364.556 89.268 370.011 113.789 385.09 176.656 392.144 147.911 376.844 89.268 402.428 89.268 404.965 100.765 407.832 113.792 411.955 132.297 415.772 147.663 422.901 176.708 433.847 132.275 437.966 113.789 443.369 89.268 468.954 89.268 453.282 149.312 456.698 152.729 450.906 158.576 437.804 208.753 407.993 208.753"/>
      <path class="cls-7" d="m467.659,90.268l-15.49,59.346,3.118,3.118-5.281,5.331-12.976,49.689h-28.265l-4.778-18.407-4.828,18.407h-28.214l-12.825-49.136-.05.05-5.884-5.935,3.47-3.521-15.39-58.943h23.487l5.281,23.738,16.043,66.89,8.097-32.992-15.038-57.636h23.487l2.364,10.712,2.867,13.026,4.124,18.508,3.822,15.39,8.097,32.992,11.919-48.382,4.124-18.508,5.23-23.738h23.487m2.589-2h-27.683l-.346,1.57-5.23,23.738-4.123,18.503-9.964,40.441-6.159-25.093-3.824-15.395-4.113-18.461-2.866-13.021-2.364-10.713-.346-1.569h-27.682l.654,2.505,14.91,57.146-6.012,24.495-14.121-58.874-5.273-23.706-.348-1.566h-27.68l.654,2.505,15.103,57.844-2.672,2.711-1.388,1.408,1.392,1.404,5.591,5.639,12.653,48.478.39,1.495h31.302l.392-1.493,2.883-10.993,2.852,10.988.389,1.498h31.357l.39-1.495,12.84-49.169,4.902-4.949,1.401-1.414-1.408-1.408-2.308-2.308,15.201-58.237.654-2.505h0Z"/>
    </g>
    <g>
      <polygon class="cls-4" points="480.663 208.702 480.663 159.078 474.37 152.732 480.663 146.386 480.663 89.268 546.786 89.268 546.786 114.755 506.15 114.755 506.15 136.242 536.778 136.242 536.778 161.729 506.15 161.729 506.15 208.702 480.663 208.702"/>
      <path class="cls-7" d="m545.786,90.268v23.487h-40.637v23.487h30.628v23.487h-30.628v46.974h-23.487v-49.036l-5.884-5.935,5.884-5.935v-56.529h64.124m2-2h-68.124v57.706l-5.305,5.35-1.396,1.408,1.396,1.408,5.305,5.35v50.212h27.487v-46.974h30.628v-27.487h-30.628v-19.487h40.637v-27.487h0Z"/>
    </g>
    <g>
      <path class="cls-4" d="m643.339,210.568c-1.341,0-2.714-.071-4.081-.211-6.963-.661-13.391-3.127-19.1-7.331-5.561-4.325-9.678-9.831-12.257-16.382-2.585-6.616-3.297-13.479-2.117-20.4l.142-.832h.844c7.886,0,16.041,0,24.034-.05l1.094-.007-.092,1.091c-.333,3.959-.41,8.118,1.269,11.714,1.539,2.848,3.888,4.695,7.154,5.594,1.067.29,2.13.438,3.153.438,2.058,0,3.994-.568,5.92-1.736,2.585-1.909,4.143-4.557,4.556-7.82.423-3.335-.4-6.295-2.447-8.797-1.825-1.818-4.005-3.304-6.412-4.342-1.421-.682-2.646-1.239-3.772-1.718l-32.342-6.479,6.503-6.612c-1.312-1.094-2.55-2.356-3.758-3.833-4.538-5.894-6.672-12.392-6.361-19.337.358-6.923,2.493-13.451,6.346-19.408,3.896-5.999,9.021-10.601,15.231-13.681,5.109-2.352,10.504-3.537,16.059-3.537.762,0,1.526.021,2.297.065,6.346.355,12.357,2.249,17.867,5.628,5.36,3.42,9.653,8.025,12.775,13.698,3.102,5.635,4.7,11.717,4.751,18.077l.008,1.008h-26.33l-.02-.98c-.046-2.359-.792-4.535-2.219-6.467-1.429-2-3.211-3.346-5.458-4.125-1.121-.366-2.291-.555-3.46-.555-1.123,0-2.273.174-3.418.518-2.256.69-4.155,1.983-5.642,3.841-1.898,2.735-2.568,5.702-2.008,9.016.227,1.408.781,2.801,1.605,4.038,1.502,2.272,3.788,4.106,7.417,5.95,3.864,1.878,7.482,3.411,11.047,4.677,2.582.962,5.135,1.983,7.603,3.041.913.406,1.844.819,2.77,1.282l21.75,6.606-6.759,6.814c2.281,4.562,3.361,9.49,3.214,14.662-.205,7.024-2.237,13.608-6.041,19.57-3.845,5.976-8.97,10.579-15.235,13.686-5.111,2.411-10.516,3.629-16.079,3.629Z"/>
      <path class="cls-7" d="m642.903,87.891c.743,0,1.489.021,2.24.064,6.286.352,12.07,2.213,17.401,5.482,5.28,3.37,9.404,7.846,12.422,13.328,3.018,5.482,4.577,11.366,4.627,17.603h-24.342c-.05-2.565-.854-4.929-2.414-7.041-1.509-2.112-3.47-3.621-5.935-4.476-1.252-.409-2.517-.61-3.788-.61-1.231,0-2.468.189-3.705.56-2.465.754-4.526,2.163-6.136,4.174-2.062,2.967-2.816,6.236-2.213,9.807.251,1.559.854,3.068,1.76,4.426,1.861,2.816,4.728,4.728,7.796,6.287,3.621,1.76,7.343,3.37,11.165,4.728,2.564.956,5.079,1.961,7.544,3.018.905.402,1.811.805,2.716,1.257h-.051l20.369,6.186-6.086,6.136-.05-.05c2.464,4.627,3.621,9.606,3.47,14.887-.201,6.89-2.162,13.227-5.884,19.061-3.722,5.784-8.65,10.26-14.837,13.328-4.983,2.35-10.194,3.525-15.635,3.525-1.313,0-2.64-.068-3.98-.205-6.89-.654-13.076-3.068-18.608-7.142-5.432-4.225-9.404-9.556-11.919-15.943-2.515-6.438-3.219-13.076-2.062-19.866,7.997,0,16.044,0,24.04-.05-.352,4.174-.402,8.449,1.358,12.221,1.71,3.168,4.325,5.18,7.795,6.136,1.167.317,2.306.473,3.419.473,2.246,0,4.388-.637,6.439-1.881,2.867-2.112,4.577-4.979,5.029-8.55.453-3.571-.402-6.79-2.665-9.556-1.962-1.961-4.225-3.521-6.79-4.627-1.257-.604-2.564-1.207-3.872-1.76l-30.629-6.136,5.985-6.085c-1.66-1.257-3.118-2.716-4.477-4.375-4.375-5.683-6.438-11.919-6.136-18.659.352-6.79,2.414-13.076,6.187-18.91,3.822-5.884,8.751-10.31,14.836-13.328,4.999-2.3,10.193-3.433,15.614-3.433m0-2c-5.701,0-11.235,1.217-16.45,3.616l-.026.012-.026.013c-6.374,3.161-11.63,7.881-15.625,14.03-3.95,6.109-6.139,12.802-6.507,19.896-.322,7.201,1.881,13.919,6.548,19.982l.018.024.019.023c.996,1.217,2.013,2.295,3.074,3.257l-4.461,4.535-2.594,2.637,3.627.726,30.428,6.096c1.087.464,2.267,1.002,3.6,1.642l.036.018.037.016c2.259.975,4.31,2.365,6.096,4.133,1.847,2.295,2.555,4.9,2.167,7.961-.379,2.994-1.74,5.33-4.159,7.138-1.74,1.039-3.482,1.545-5.324,1.545-.935,0-1.909-.136-2.895-.403-2.963-.816-5.102-2.487-6.531-5.104-1.554-3.373-1.474-7.354-1.153-11.155l.184-2.182-2.189.014c-7.99.05-16.143.05-24.027.05h-1.688l-.284,1.664c-1.21,7.103-.48,14.145,2.171,20.929,2.648,6.725,6.871,12.373,12.554,16.794l.021.016.021.016c5.857,4.313,12.453,6.843,19.605,7.522,1.386.142,2.794.214,4.169.214,5.712,0,11.259-1.25,16.488-3.716,6.465-3.206,11.724-7.928,15.666-14.054,3.906-6.122,5.991-12.878,6.201-20.085.146-5.096-.863-9.963-3.003-14.491l5.09-5.132,2.338-2.357-3.177-.965-20.078-6.098c-.921-.458-1.838-.865-2.725-1.26-2.507-1.074-5.075-2.102-7.658-3.064-3.558-1.264-7.143-2.782-10.989-4.652-3.434-1.745-5.603-3.474-7.002-5.591-.75-1.125-1.251-2.381-1.454-3.641-.513-3.037.09-5.745,1.842-8.292,1.352-1.67,3.073-2.834,5.117-3.459,1.041-.312,2.094-.472,3.12-.472,1.063,0,2.129.172,3.167.511,2.009.697,3.632,1.924,4.928,3.737,1.319,1.787,2,3.77,2.042,5.917l.038,1.961h28.319l-.016-2.016c-.052-6.528-1.692-12.769-4.875-18.551-3.204-5.821-7.611-10.547-13.098-14.049-5.683-3.485-11.852-5.428-18.365-5.793-.784-.044-1.576-.067-2.352-.067h0Z"/>
    </g>
    <g>
      <polygon class="cls-4" points="716.434 208.702 716.434 159.078 710.141 152.732 716.434 146.386 716.434 114.755 690.332 114.755 690.332 89.268 768.022 89.268 768.022 114.755 741.921 114.755 741.921 146.487 748.112 152.732 741.921 158.978 741.921 208.702 716.434 208.702"/>
      <path class="cls-7" d="m767.022,90.268v23.487h-26.102v33.143l5.783,5.834-5.783,5.834v49.136h-23.486v-49.036l-5.885-5.935,5.885-5.935v-33.042h-26.103v-23.487h75.69m2-2h-79.69v27.487h26.103v30.219l-5.305,5.35-1.396,1.408,1.396,1.408,5.305,5.35v50.212h27.486v-50.313l5.204-5.249,1.396-1.408-1.396-1.408-5.204-5.249v-30.32h26.102v-27.487h0Z"/>
    </g>
    <g>
      <path class="cls-4" d="m823.907,208.702l-5.28-23.738h-30.434l-5.281,23.738h-25.583l13.661-52.249-3.716-3.716,6.342-6.451,14.914-57.019h29.759l15.014,57.469,5.938,5.992-3.462,3.518,13.713,52.455h-25.584Zm-9.88-44.196l-10.641-43.193-10.596,43.193h21.236Z"/>
      <path class="cls-7" d="m817.516,90.268l14.887,56.982,5.432,5.482-3.168,3.219,13.529,51.751h-23.487l-5.28-23.738h-32.037l-5.281,23.738h-23.486l13.479-51.55-3.42-3.42,5.834-5.935,14.786-56.529h28.214m-26.001,75.238h23.788l-11.919-48.382-11.869,48.382m27.546-77.238h-31.303l-.391,1.494-14.651,56.014-5.46,5.554-1.39,1.414,1.402,1.402,2.609,2.609-13.188,50.441-.655,2.506h27.68l.348-1.566,4.933-22.173h28.829l4.932,22.173.348,1.566h27.681l-.655-2.506-13.242-50.652,2.371-2.409,1.385-1.408-1.39-1.403-5.053-5.1-14.751-56.462-.39-1.494h0Zm-24.996,75.238l9.323-38.004,9.362,38.004h-18.686Z"/>
    </g>
    <g>
      <polygon class="cls-4" points="864.899 208.702 864.899 159.078 858.606 152.732 864.899 146.386 864.899 114.755 838.797 114.755 838.797 89.268 916.487 89.268 916.487 114.755 890.386 114.755 890.386 146.487 896.577 152.732 890.386 158.978 890.386 208.702 864.899 208.702"/>
      <path class="cls-7" d="m915.487,90.268v23.487h-26.102v33.143l5.783,5.834-5.783,5.834v49.136h-23.486v-49.036l-5.885-5.935,5.885-5.935v-33.042h-26.103v-23.487h75.69m2-2h-79.69v27.487h26.103v30.219l-5.305,5.35-1.396,1.408,1.396,1.408,5.305,5.35v50.212h27.486v-50.313l5.204-5.249,1.396-1.408-1.396-1.408-5.204-5.249v-30.32h26.102v-27.487h0Z"/>
    </g>
    <g>
      <polygon class="cls-4" points="928.903 208.702 928.903 159.078 922.611 152.732 928.903 146.386 928.903 89.268 995.027 89.268 995.027 114.755 954.39 114.755 954.39 136.242 985.018 136.242 985.018 161.729 954.39 161.729 954.39 183.216 995.027 183.216 995.027 208.702 928.903 208.702"/>
      <path class="cls-7" d="m994.027,90.268v23.487h-40.637v23.487h30.628v23.487h-30.628v23.487h40.637v23.487h-64.124v-49.036l-5.884-5.935,5.884-5.935v-56.529h64.124m2-2h-68.124v57.706l-5.304,5.35-1.396,1.408,1.396,1.408,5.304,5.35v50.212h68.124v-27.487h-40.637v-19.487h30.628v-27.487h-30.628v-19.487h40.637v-27.487h0Z"/>
    </g>
  </g>
</svg>