<?xml version="1.0" encoding="UTF-8"?>
<svg id="Layer_1" data-name="Layer 1" xmlns="http://www.w3.org/2000/svg" viewBox="0 0 1600 1600">
  <defs>
    <style>
      .cls-1 {
        fill: #828792;
      }

      .cls-2 {
        fill: none;
        opacity: 0;
      }

      .cls-3 {
        fill: #231f20;
      }

      .cls-4 {
        fill: #414042;
      }
    </style>
  </defs>
  <rect id="Background" class="cls-2" width="1600" height="1600"/>
  <g id="Back">
    <g id="List">
      <g>
        <g id="Names">
          <path class="cls-4" d="m513.30981,501.15452h-6.5918v-22.61719c0-1.19092.13623-2.85156.41016-4.98047l-5.91797,23.4082h-3.48633l-5.94727-23.4082c.27344,2.16797.41016,3.82812.41016,4.98047v22.61719h-6.5918v-45.84961h6.47461l7.20703,25.3418c.07764.27393.13623.9668.17578,2.08008,0-.48779.05859-1.18164.17578-2.08008l7.20703-25.3418h6.47461v45.84961Z"/>
          <path class="cls-4" d="m542.02075,501.15452h-6.79688l-1.37695-8.70117h-8.58398l-1.37695,8.70117h-6.76758v-.11719l8.87695-45.79102h7.20703l8.81836,45.9082Zm-9.14062-14.58984l-3.33984-20.68359-3.36914,20.68359h6.70898Z"/>
          <path class="cls-4" d="m568.97388,501.15452h-7.55859l-8.70117-20.44922v20.44922h-6.85547v-45.84961h6.85547v19.39453l7.61719-19.39453h7.5v.32227l-9.31641,21.76758,10.45898,23.75977Z"/>
          <path class="cls-4" d="m590.74146,501.15452h-19.01367v-45.84961h18.83789v6.06445h-11.98242v13.38867h10.3125v5.94727h-10.3125v14.38477h12.1582v6.06445Z"/>
          <path class="cls-4" d="m618.66138,501.15452h-6.00586l-10.98633-28.85742c.29297,1.40625.43945,2.50977.43945,3.31055v25.54688h-6.67969v-45.84961h6.00586l10.98633,28.27148c-.29297-1.40625-.43945-2.50928-.43945-3.31055v-24.96094h6.67969v45.84961Z"/>
          <path class="cls-4" d="m643.62231,501.15452h-21.06445v-3.66211l12.83203-36.00586h-11.80664v-6.18164h19.98047v3.95508l-12.80273,35.71289h12.86133v6.18164Z"/>
          <path class="cls-4" d="m654.55005,501.15452h-6.85547v-45.84961h6.85547v45.84961Z"/>
          <path class="cls-4" d="m679.18872,501.15452h-19.01367v-45.84961h18.83789v6.06445h-11.98242v13.38867h10.3125v5.94727h-10.3125v14.38477h12.1582v6.06445Z"/>
          <path class="cls-4" d="m714.25708,501.15452h-18.01758v-45.84961h6.85547v39.72656h11.16211v6.12305Z"/>
          <path class="cls-4" d="m725.302,501.15452h-6.85547v-45.84961h6.85547v45.84961Z"/>
          <path class="cls-4" d="m749.94067,501.15452h-19.01367v-45.84961h18.83789v6.06445h-11.98242v13.38867h10.3125v5.94727h-10.3125v14.38477h12.1582v6.06445Z"/>
          <path class="cls-4" d="m773.34888,461.36937h-11.86523v13.56445h10.13672v5.94727h-10.13672v20.27344h-6.85547v-45.84961h18.7207v6.06445Z"/>
          <path class="cls-4" d="m796.25903,501.15452h-19.01367v-45.84961h18.83789v6.06445h-11.98242v13.38867h10.3125v5.94727h-10.3125v14.38477h12.1582v6.06445Z"/>
          <path class="cls-4" d="m824.41382,501.15452h-7.14844l-7.55859-21.29883v-4.13086h6.73828v-14.53125h-8.64307v39.96094h-6.85547v-45.84961h18.19385c2.75391,0,4.13086,1.40625,4.13086,4.21875v16.66992c0,1.93359-.6543,3.18359-1.96289,3.75-.70312.29297-2.1875.43945-4.45312.43945l7.55859,20.77148Z"/>
          <path class="cls-4" d="m508.44653,554.51195c0,2.69531-.80127,4.80957-2.40234,6.34277-1.60156,1.53369-3.76025,2.2998-6.47461,2.2998h-13.97461v-45.84961h13.97461c2.71436,0,4.87305.77637,6.47461,2.3291,1.60107,1.55273,2.40234,3.67676,2.40234,6.37207v28.50586Zm-6.88477-1.14258v-26.33789c0-2.55859-1.33789-3.83789-4.01367-3.83789h-5.09766v34.07227h4.92188c2.79297,0,4.18945-1.29883,4.18945-3.89648Z"/>
          <path class="cls-4" d="m532.76294,563.15452h-19.01367v-45.84961h18.83789v6.06445h-11.98242v13.38867h10.3125v5.94727h-10.3125v14.38477h12.1582v6.06445Z"/>
          <path class="cls-4" d="m560.12622,558.96507c0,2.79346-1.39648,4.18945-4.18945,4.18945h-14.41406c-2.71484,0-4.07227-1.396-4.07227-4.18945v-37.44141c0-2.8125,1.38672-4.21875,4.16016-4.21875h14.32617c2.79297,0,4.18945,1.40625,4.18945,4.21875v9.78516h-6.88477v-8.11523h-8.93555v34.07227h8.93555v-12.83203h-5.09766v-5.83008h11.98242v20.36133Z"/>
          <path class="cls-4" d="m588.83716,563.15452h-6.79688l-1.37695-8.70117h-8.58398l-1.37695,8.70117h-6.76758v-.11719l8.87695-45.79102h7.20703l8.81836,45.9082Zm-9.14062-14.58984l-3.33984-20.68359-3.36914,20.68359h6.70898Z"/>
          <path class="cls-4" d="m615.90747,563.15452h-6.00586l-10.98633-28.85742c.29297,1.40625.43945,2.50977.43945,3.31055v25.54688h-6.67969v-45.84961h6.00586l10.98633,28.27148c-.29297-1.40625-.43945-2.50928-.43945-3.31055v-24.96094h6.67969v45.84961Z"/>
          <path class="cls-4" d="m655.75122,558.96507c0,2.79346-1.38721,4.18945-4.16016,4.18945h-13.79883c-2.75391,0-4.13086-1.396-4.13086-4.18945v-10.92773h6.85547v9.3457h8.37891v-8.99414l-13.74023-13.00781c-.99609-.95654-1.49414-2.17773-1.49414-3.66211v-10.19531c0-2.8125,1.37695-4.21875,4.13086-4.21875h13.79883c2.77295,0,4.16016,1.38721,4.16016,4.16016v10.25391h-6.85547v-8.64258h-8.37891v8.29102l13.74023,12.94922c.99609.9375,1.49414,2.17822,1.49414,3.7207v10.92773Z"/>
          <path class="cls-4" d="m681.12231,523.36937h-7.55859v39.78516h-6.82617v-39.78516h-7.55859v-6.06445h21.94336v6.06445Z"/>
          <path class="cls-4" d="m707.5481,558.96507c0,2.79346-1.40625,4.18945-4.21875,4.18945h-14.56055c-2.77344,0-4.16016-1.396-4.16016-4.18945v-41.66016h6.85547v39.96094h9.22852v-39.96094h6.85547v41.66016Z"/>
          <path class="cls-4" d="m731.07349,563.15452h-18.01758v-45.84961h6.85547v39.72656h11.16211v6.12305Z"/>
          <path class="cls-4" d="m757.70435,558.96507c0,2.79346-1.39648,4.18945-4.18945,4.18945h-14.29688c-2.71484,0-4.07227-1.396-4.07227-4.18945v-37.44141c0-2.8125,1.35742-4.21875,4.07227-4.21875h14.29688c2.79297,0,4.18945,1.40625,4.18945,4.21875v10.72266h-6.82617v-9.05273h-8.87695v34.07227h8.87695v-9.63867h6.82617v11.33789Z"/>
          <path class="cls-4" d="m782.10864,563.15452h-19.01367v-45.84961h18.83789v6.06445h-11.98242v13.38867h10.3125v5.94727h-10.3125v14.38477h12.1582v6.06445Z"/>
          <path class="cls-4" d="m508.27075,620.96507c0,2.79297-1.39648,4.18945-4.18945,4.18945h-14.41406c-2.71484,0-4.07227-1.39648-4.07227-4.18945v-37.44141c0-2.8125,1.38672-4.21875,4.16016-4.21875h14.32617c2.79297,0,4.18945,1.40625,4.18945,4.21875v9.78516h-6.88477v-8.11523h-8.93555v34.07227h8.93555v-12.83203h-5.09766v-5.83008h11.98242v20.36133Z"/>
          <path class="cls-4" d="m537.21606,625.15452h-7.14844l-7.55859-21.29883v-4.13086h6.73828v-14.53125h-8.64258v39.96094h-6.85547v-45.84961h18.19336c2.75391,0,4.13086,1.40625,4.13086,4.21875v16.66992c0,1.93359-.65479,3.18359-1.96289,3.75-.70312.29297-2.1875.43945-4.45312.43945l7.55859,20.77148Z"/>
          <path class="cls-4" d="m564.63794,625.15452h-6.79688l-1.37695-8.70117h-8.58398l-1.37695,8.70117h-6.76758v-.11719l8.87695-45.79102h7.20703l8.81836,45.9082Zm-9.14062-14.58984l-3.33984-20.68359-3.36914,20.68359h6.70898Z"/>
          <path class="cls-4" d="m591.53247,579.56859l-6.06445,19.16016c-.74268,1.89453-1.74805,5.08789-3.01758,9.58008v16.8457h-6.88477v-16.8457c-.3125-1.52344-.76172-3.13477-1.34766-4.83398-1.03564-2.91016-1.59229-4.49219-1.66992-4.74609l-6.03516-19.16016c-.01953-.01904-.01953-.10693,0-.26367h7.06055l5.47852,19.92188,5.44922-19.92188h7.03125v.26367Z"/>
          <path class="cls-4" d="m617.89966,616.51195c0,2.69531-.80127,4.80957-2.40234,6.34277-1.60156,1.5332-3.76025,2.2998-6.47461,2.2998h-13.97461v-45.84961h13.97461c2.71436,0,4.87305.77637,6.47461,2.3291,1.60107,1.55273,2.40234,3.67676,2.40234,6.37207v28.50586Zm-6.88477-1.14258v-26.33789c0-2.55859-1.33789-3.83789-4.01367-3.83789h-5.09766v34.07227h4.92188c2.79297,0,4.18945-1.29883,4.18945-3.89648Z"/>
          <path class="cls-4" d="m642.21606,625.15452h-19.01367v-45.84961h18.83789v6.06445h-11.98242v13.38867h10.3125v5.94727h-10.3125v14.38477h12.1582v6.06445Z"/>
          <path class="cls-4" d="m670.13599,625.15452h-6.00586l-10.98633-28.85742c.29297,1.40625.43945,2.50977.43945,3.31055v25.54688h-6.67969v-45.84961h6.00586l10.98633,28.27148c-.29297-1.40625-.43945-2.50977-.43945-3.31055v-24.96094h6.67969v45.84961Z"/>
          <path class="cls-4" d="m709.97974,620.96507c0,2.79297-1.38721,4.18945-4.16016,4.18945h-13.79883c-2.75391,0-4.13086-1.39648-4.13086-4.18945v-10.92773h6.85547v9.3457h8.37891v-8.99414l-13.74023-13.00781c-.99609-.95703-1.49414-2.17773-1.49414-3.66211v-10.19531c0-2.8125,1.37695-4.21875,4.13086-4.21875h13.79883c2.77295,0,4.16016,1.38721,4.16016,4.16016v10.25391h-6.85547v-8.64258h-8.37891v8.29102l13.74023,12.94922c.99609.9375,1.49414,2.17773,1.49414,3.7207v10.92773Z"/>
          <path class="cls-4" d="m737.98755,620.96507c0,2.79297-1.39648,4.18945-4.18945,4.18945h-14.29688c-2.71484,0-4.07227-1.39648-4.07227-4.18945v-37.44141c0-2.8125,1.35742-4.21875,4.07227-4.21875h14.29688c2.79297,0,4.18945,1.40625,4.18945,4.21875v10.72266h-6.82617v-9.05273h-8.87695v34.07227h8.87695v-9.63867h6.82617v11.33789Z"/>
          <path class="cls-4" d="m766.43481,625.15452h-6.91406v-20.56641h-9.28711v20.56641h-6.85547v-45.84961h6.85547v18.89648h9.28711v-18.89648h6.91406v45.84961Z"/>
          <path class="cls-4" d="m789.90161,625.15452h-18.01758v-45.84961h6.85547v39.72656h11.16211v6.12305Z"/>
          <path class="cls-4" d="m817.0896,620.96507c0,2.79297-1.38672,4.18945-4.16016,4.18945h-14.8833c-2.71484,0-4.07227-1.39648-4.07227-4.18945v-37.44141c0-2.8125,1.35742-4.21875,4.07227-4.21875h14.8833c2.77344,0,4.16016,1.40625,4.16016,4.21875v37.44141Zm-6.85547-1.69922v-34.07227h-9.40479v34.07227h9.40479Z"/>
          <path class="cls-4" d="m841.61108,625.15452h-19.01367v-45.84961h18.83789v6.06445h-11.98242v13.38867h10.3125v5.94727h-10.3125v14.38477h12.1582v6.06445Z"/>
          <path class="cls-4" d="m874.01343,625.15452h-6.5918v-22.61719c0-1.19141.13672-2.85156.41016-4.98047l-5.91797,23.4082h-3.48633l-5.94727-23.4082c.27344,2.16797.41016,3.82812.41016,4.98047v22.61719h-6.5918v-45.84961h6.47461l7.20703,25.3418c.07812.27344.13672.9668.17578,2.08008,0-.48828.05859-1.18164.17578-2.08008l7.20703-25.3418h6.47461v45.84961Z"/>
          <path class="cls-4" d="m902.72437,625.15452h-6.79688l-1.37695-8.70117h-8.58398l-1.37695,8.70117h-6.76758v-.11719l8.87695-45.79102h7.20703l8.81836,45.9082Zm-9.14062-14.58984l-3.33984-20.68359-3.36914,20.68359h6.70898Z"/>
          <path class="cls-4" d="m929.79468,625.15452h-6.00586l-10.98633-28.85742c.29297,1.40625.43945,2.50977.43945,3.31055v25.54688h-6.67969v-45.84961h6.00586l10.98633,28.27148c-.29297-1.40625-.43945-2.50977-.43945-3.31055v-24.96094h6.67969v45.84961Z"/>
          <path class="cls-4" d="m958.53491,625.15452h-6.00586l-10.98633-28.85742c.29297,1.40625.43945,2.50977.43945,3.31055v25.54688h-6.67969v-45.84961h6.00586l10.98633,28.27148c-.29297-1.40625-.43945-2.50977-.43945-3.31055v-24.96094h6.67969v45.84961Z"/>
          <path class="cls-4" d="m508.09497,682.96507c0,2.79297-1.39648,4.18945-4.18945,4.18945h-18.31055v-45.84961h18.19336c2.71436,0,4.07227,1.40625,4.07227,4.21875v11.80664c0,1.5625-.48828,2.77344-1.46484,3.63281-.13672.11719-1.32861.86914-3.57422,2.25586,2.32422,1.42578,3.55469,2.20703,3.69141,2.34375,1.05469.91797,1.58203,2.17773,1.58203,3.7793v13.62305Zm-7.06055-24.78516v-11.10352h-8.58398v13.44727h5.27344l3.31055-2.34375Zm.17578,23.20312v-13.06641l-3.36914-2.22656h-5.39062v15.29297h8.75977Z"/>
          <path class="cls-4" d="m532.49927,687.15452h-19.01367v-45.84961h18.83789v6.06445h-11.98242v13.38867h10.3125v5.94727h-10.3125v14.38477h12.1582v6.06445Z"/>
          <path class="cls-4" d="m560.41919,687.15452h-6.00586l-10.98633-28.85742c.29297,1.40625.43945,2.50977.43945,3.31055v25.54688h-6.67969v-45.84961h6.00586l10.98633,28.27148c-.29297-1.40625-.43945-2.50977-.43945-3.31055v-24.96094h6.67969v45.84961Z"/>
          <path class="cls-4" d="m589.15942,687.15452h-6.00586l-10.98633-28.85742c.29297,1.40625.43945,2.50977.43945,3.31055v25.54688h-6.67969v-45.84961h6.00586l10.98633,28.27148c-.29297-1.40625-.43945-2.50977-.43945-3.31055v-24.96094h6.67969v45.84961Z"/>
          <path class="cls-4" d="m617.72388,641.56859l-6.06445,19.16016c-.74268,1.89453-1.74805,5.08789-3.01758,9.58008v16.8457h-6.88477v-16.8457c-.3125-1.52344-.76172-3.13477-1.34766-4.83398-1.03564-2.91016-1.59229-4.49219-1.66992-4.74609l-6.03516-19.16016c-.01953-.01953-.01953-.10742,0-.26367h7.06055l5.47852,19.92188,5.44922-19.92188h7.03125v.26367Z"/>
          <path class="cls-4" d="m656.71802,687.15452h-7.55859l-8.70117-20.44922v20.44922h-6.85547v-45.84961h6.85547v19.39453l7.61719-19.39453h7.5v.32227l-9.31641,21.76758,10.45898,23.75977Z"/>
          <path class="cls-4" d="m682.70435,687.15452h-6.00586l-10.98633-28.85742c.29297,1.40625.43945,2.50977.43945,3.31055v25.54688h-6.67969v-45.84961h6.00586l10.98633,28.27148c-.29297-1.40625-.43945-2.50977-.43945-3.31055v-24.96094h6.67969v45.84961Z"/>
          <path class="cls-4" d="m711.2688,641.56859l-6.06445,19.16016c-.74268,1.89453-1.74805,5.08789-3.01758,9.58008v16.8457h-6.88477v-16.8457c-.3125-1.52344-.76172-3.13477-1.34766-4.83398-1.03564-2.91016-1.59229-4.49219-1.66992-4.74609l-6.03516-19.16016c-.01953-.01953-.01953-.10742,0-.26367h7.06055l5.47852,19.92188,5.44922-19.92188h7.03125v.26367Z"/>
          <path class="cls-4" d="m736.75708,682.96507c0,2.79297-1.38721,4.18945-4.16016,4.18945h-13.79883c-2.75391,0-4.13086-1.39648-4.13086-4.18945v-10.92773h6.85547v9.3457h8.37891v-8.99414l-13.74023-13.00781c-.99609-.95703-1.49414-2.17773-1.49414-3.66211v-10.19531c0-2.8125,1.37695-4.21875,4.13086-4.21875h13.79883c2.77295,0,4.16016,1.38672,4.16016,4.16016v10.25391h-6.85547v-8.64258h-8.37891v8.29102l13.74023,12.94922c.99609.9375,1.49414,2.17773,1.49414,3.7207v10.92773Z"/>
          <path class="cls-4" d="m765.43872,687.15452h-6.79688l-1.37695-8.70117h-8.58398l-1.37695,8.70117h-6.76758v-.11719l8.87695-45.79102h7.20703l8.81836,45.9082Zm-9.14062-14.58984l-3.33984-20.68359-3.36914,20.68359h6.70898Z"/>
          <path class="cls-4" d="m792.39185,687.15452h-7.55859l-8.70117-20.44922v20.44922h-6.85547v-45.84961h6.85547v19.39453l7.61719-19.39453h7.5v.32227l-9.31641,21.76758,10.45898,23.75977Z"/>
          <path class="cls-4" d="m506.95239,744.99437c0,2.79297-1.40625,4.18945-4.21875,4.18945h-13.00781c-2.75391,0-4.13086-1.39648-4.13086-4.18945v-11.2793h6.82617v9.58008h7.67578v-39.96094h6.85547v41.66016Zm28.56445,0c0,2.79297-1.38721,4.18945-4.16016,4.18945h-14.88281c-2.71484,0-4.07227-1.39648-4.07227-4.18945v-37.44141c0-2.8125,1.35742-4.21875,4.07227-4.21875h14.88281c2.77295,0,4.16016,1.40625,4.16016,4.21875v37.44141Zm-6.85547-1.69922v-34.07227h-9.4043v34.07227h9.4043Zm34.81934,1.69922c0,2.79297-1.39648,4.18945-4.18945,4.18945h-14.41406c-2.71484,0-4.07227-1.39648-4.07227-4.18945v-37.44141c0-2.8125,1.38672-4.21875,4.16016-4.21875h14.32617c2.79297,0,4.18945,1.40625,4.18945,4.21875v9.78516h-6.88477v-8.11523h-8.93555l.21973,34.07227h8.71582v-12.83203h-5.09766v-5.83008h11.98242v20.36133Zm28.93066,4.18945h-6.79688l-1.37695-8.70117h-8.58398l-1.37695,8.70117h-6.76758v-.11719l8.87695-45.79102h7.20703l8.81836,45.9082Zm-9.14062-14.58984l-3.33984-20.68359-3.36914,20.68359h6.70898Zm36.21094,14.58984h-6.00586l-10.98633-28.85742c.29297,1.40625.43945,2.50977.43945,3.31055v25.54688h-6.67969v-45.84961h6.00586l10.98633,28.27148c-.29297-1.40625-.43945-2.50977-.43945-3.31055v-24.96094h6.67969v45.84961Zm35.88867,0h-18.01758v-45.84961h6.85547v39.72656h11.16211v6.12305Zm27.30469,0h-6.79688l-1.37695-8.70117h-8.58398l-1.37695,8.70117h-6.76758v-.11719l8.87695-45.79102h7.20703l8.81836,45.9082Zm-9.14062-14.58984l-3.33984-20.68359-3.36914,20.68359h6.70898Zm32.21191,14.58984h-21.06445v-3.66211l12.83203-36.00586h-11.80664v-6.18164h19.98047v3.95508l-12.80273,35.71289h12.86133v6.18164Zm22.96875,0h-19.01367v-45.84961h18.83789v6.06445h-11.98242v13.38867h10.3125v5.94727h-10.3125v14.38477h12.1582v6.06445Zm27.91992,0h-6.00586l-10.98633-28.85742c.29297,1.40625.43945,2.50977.43945,3.31055v25.54688h-6.67969v-45.84961h6.00586l10.98633,28.27148c-.29297-1.40625-.43945-2.50977-.43945-3.31055v-24.96094h6.67969v45.84961Zm28.00781-4.18945c0,2.79297-1.39648,4.18945-4.18945,4.18945h-18.31055v-45.84961h18.19336c2.71436,0,4.07227,1.40625,4.07227,4.21875v11.80664c0,1.5625-.48828,2.77344-1.46484,3.63281-.13672.11719-1.32861.86914-3.57422,2.25586,2.32422,1.42578,3.55469,2.20703,3.69141,2.34375,1.05469.91797,1.58203,2.17773,1.58203,3.7793v13.62305Zm-7.06055-24.78516v-11.10352h-8.58398v13.44727h5.27344l3.31055-2.34375Zm.17578,23.20312v-13.06641l-3.36914-2.22656h-5.39062v15.29297h8.75977Zm35.33252-39.81445l-6.06494,19.16016c-.74268,1.89453-1.74805,5.08789-3.01758,9.58008v16.8457h-6.88477v-16.8457c-.3125-1.52344-.76172-3.13477-1.34766-4.83398-1.03564-2.91016-1.59229-4.49219-1.66992-4.74609l-6.03516-19.16016c-.01953-.01953-.01953-.10742,0-.26367h7.06055l5.47852,19.92188,5.44922-19.92188h7.03174v.26367Z"/>
          <path class="cls-4" d="m660.96216,765.30491l-1.31836,14.35547h-4.07227l-1.31836-14.35547h6.70898Zm-150.68848,45.84961h-6.79688l-1.37695-8.70117h-8.58398l-1.37695,8.70117h-6.76758v-.11719l8.87695-45.79102h7.20703l8.81836,45.9082Zm-9.14062-14.58984l-3.33984-20.68359-3.36914,20.68359h6.70898Zm36.44531,14.58984h-7.14844l-7.55859-21.29883v-4.13086h6.73828v-14.53125h-8.64258v39.96094h-6.85547v-45.84961h18.19336c2.75391,0,4.13086,1.40625,4.13086,4.21875v16.66992c0,1.93359-.65479,3.18359-1.96289,3.75-.70312.29297-2.1875.43945-4.45312.43945l7.55859,20.77148Zm31.9043,0h-6.5918v-22.61719c0-1.19141.13623-2.85156.41016-4.98047l-5.91797,23.4082h-3.48633l-5.94727-23.4082c.27344,2.16797.41016,3.82812.41016,4.98047v22.61719h-6.5918v-45.84961h6.47461l7.20703,25.3418c.07764.27344.13623.9668.17578,2.08008,0-.48828.05859-1.18164.17578-2.08008l7.20703-25.3418h6.47461v45.84961Zm12.45117,0h-6.85547v-45.84961h6.85547v45.84961Zm28.85742,0h-6.00586l-10.98633-28.85742c.29297,1.40625.43945,2.50977.43945,3.31055v25.54688h-6.67969v-45.84961h6.00586l10.98633,28.27148c-.29297-1.40625-.43945-2.50977-.43945-3.31055v-24.96094h6.67969v45.84961Zm40.98633-4.18945c0,2.79297-1.38721,4.18945-4.16016,4.18945h-14.88281c-2.71484,0-4.07227-1.39648-4.07227-4.18945v-37.44141c0-2.8125,1.35742-4.21875,4.07227-4.21875h14.88281c2.77295,0,4.16016,1.40625,4.16016,4.21875v37.44141Zm-6.85547-1.69922v-34.07227h-9.4043v34.07227h9.4043Zm46.08398,1.69922c0,2.79297-1.39648,4.18945-4.18945,4.18945h-14.41406c-2.71484,0-4.07227-1.39648-4.07227-4.18945v-37.44141c0-2.8125,1.38672-4.21875,4.16016-4.21875h14.32617c2.79297,0,4.18945,1.40625,4.18945,4.21875v9.78516h-6.88477v-8.11523h-8.93555v34.07227h8.93555v-12.83203h-5.09766v-5.83008h11.98242v20.36133Zm28.41797,0c0,2.79297-1.40625,4.18945-4.21875,4.18945h-14.56055c-2.77344,0-4.16016-1.39648-4.16016-4.18945v-41.66016h6.85547v39.96094h9.22852v-39.96094h6.85547v41.66016Zm12.48047,4.18945h-6.85547v-45.84961h6.85547v45.84961Zm28.85742,0h-6.00586l-10.98633-28.85742c.29297,1.40625.43945,2.50977.43945,3.31055v25.54688h-6.67969v-45.84961h6.00586l10.98633,28.27148c-.29297-1.40625-.43945-2.50977-.43945-3.31055v-24.96094h6.67969v45.84961Z"/>
          <path id="TRENTON" class="cls-4" d="m507.51685,833.36937h-7.55859v39.78516h-6.82617v-39.78516h-7.55859v-6.06445h21.94336v6.06445Zm26.95312,39.78516h-7.14844l-7.55859-21.29883v-4.13086h6.73828v-14.53125h-8.64258v39.96094h-6.85547v-45.84961h18.19336c2.75391,0,4.13086,1.40625,4.13086,4.21875v16.66992c0,1.93359-.65479,3.18359-1.96289,3.75-.70312.29297-2.1875.43945-4.45312.43945l7.55859,20.77148Zm23.20312,0h-19.01367v-45.84961h18.83789v6.06445h-11.98242v13.38867h10.3125v5.94727h-10.3125v14.38477h12.1582v6.06445Zm27.91992,0h-6.00586l-10.98633-28.85742c.29297,1.40625.43945,2.50977.43945,3.31055v25.54688h-6.67969v-45.84961h6.00586l10.98633,28.27148c-.29297-1.40625-.43945-2.50977-.43945-3.31055v-24.96094h6.67969v45.84961Zm25.42969-39.78516h-7.55859v39.78516h-6.82617v-39.78516h-7.55859v-6.06445h21.94336v6.06445Zm26.60156,35.5957c0,2.79297-1.38721,4.18945-4.16016,4.18945h-14.88281c-2.71484,0-4.07227-1.39648-4.07227-4.18945v-37.44141c0-2.8125,1.35742-4.21875,4.07227-4.21875h14.88281c2.77295,0,4.16016,1.40625,4.16016,4.21875v37.44141Zm-6.85547-1.69922v-34.07227h-9.4043v34.07227h9.4043Zm35.5957,5.88867h-6.00586l-10.98633-28.85742c.29297,1.40625.43945,2.50977.43945,3.31055v25.54688h-6.67969v-45.84961h6.00586l10.98633,28.27148c-.29297-1.40625-.43945-2.50977-.43945-3.31055v-24.96094h6.67969v45.84961Zm51.70898-45.84961l-6.70898,45.9082h-6.70898l-4.10156-25.98633c-.03955-.9375-.11719-2.33398-.23438-4.18945,0,.9375-.07812,2.33398-.23438,4.18945l-4.07227,25.98633h-6.73828l-6.70898-45.9082h6.94336l3.54492,27.1875c.05859.9375.13623,2.33398.23438,4.18945.01904-.9375.10693-2.33398.26367-4.18945l3.95508-27.1875h5.625l3.95508,27.1875c.05859.9375.14648,2.33398.26367,4.18945.01904-.9375.09766-2.33398.23438-4.18945l3.54492-27.1875h6.94336Zm10.81055,45.84961h-6.85547v-45.84961h6.85547v45.84961Zm23.64258,0h-18.01758v-45.84961h6.85547v39.72656h11.16211v6.12305Zm22.08984,0h-18.01758v-45.84961h6.85547v39.72656h11.16211v6.12305Zm11.04492,0h-6.85547v-45.84961h6.85547v45.84961Zm28.85791,0h-6.79736l-1.37695-8.70117h-8.58398l-1.37695,8.70117h-6.76758v-.11719l8.87695-45.79102h7.20703l8.81885,45.9082Zm-9.14111-14.58984l-3.33984-20.68359-3.36914,20.68359h6.70898Zm40.69385,14.58984h-6.5918v-22.61719c0-1.19141.13672-2.85156.41016-4.98047l-5.91797,23.4082h-3.48633l-5.94727-23.4082c.27344,2.16797.41016,3.82812.41016,4.98047v22.61719h-6.5918v-45.84961h6.47461l7.20703,25.3418c.07812.27344.13672.9668.17578,2.08008,0-.48828.05859-1.18164.17578-2.08008l7.20703-25.3418h6.47461v45.84961Zm27.45117-4.18945c0,2.79297-1.38672,4.18945-4.16016,4.18945h-13.79883c-2.75391,0-4.13086-1.39648-4.13086-4.18945v-10.92773h6.85547v9.3457h8.37891v-8.99414l-13.74023-13.00781c-.99609-.95703-1.49414-2.17773-1.49414-3.66211v-10.19531c0-2.8125,1.37695-4.21875,4.13086-4.21875h13.79883c2.77344,0,4.16016,1.38672,4.16016,4.16016v10.25391h-6.85547v-8.64258h-8.37891v8.29102l13.74023,12.94922c.99609.9375,1.49414,2.17773,1.49414,3.7207v10.92773Z"/>
          <path class="cls-4" d="m521.0813,889.30443l-6.70898,45.9082h-6.70898l-4.10156-25.98633c-.03955-.9375-.11719-2.33398-.23438-4.18945,0,.9375-.07812,2.33398-.23438,4.18945l-4.07227,25.98633h-6.73828l-6.70898-45.9082h6.94336l3.54492,27.1875c.05859.9375.13623,2.33398.23438,4.18945.01904-.9375.10693-2.33398.26367-4.18945l3.95508-27.1875h5.625l3.95508,27.1875c.05859.9375.14648,2.33398.26367,4.18945.01904-.9375.09766-2.33398.23438-4.18945l3.54492-27.1875h6.94336Zm10.81055,45.84961h-6.85547v-45.84961h6.85547v45.84961Zm23.64258,0h-18.01758v-45.84961h6.85547v39.72656h11.16211v6.12305Zm22.08984,0h-18.01758v-45.84961h6.85547v39.72656h11.16211v6.12305Zm38.58398-20.88867c0,2.85156-1.39648,4.27734-4.18945,4.27734h-11.10352v16.61133h-6.85547v-45.84961h17.95898c2.79297,0,4.18945,1.40625,4.18945,4.21875v20.74219Zm-6.91406-1.61133v-17.46094h-8.37891v17.46094h8.37891Zm35.00977,22.5h-6.79688l-1.37695-8.70117h-8.58398l-1.37695,8.70117h-6.76758v-.11719l8.87695-45.79102h7.20703l8.81836,45.9082Zm-9.14062-14.58984l-3.33984-20.68359-3.36914,20.68359h6.70898Zm34.95117,10.40039c0,2.79297-1.38721,4.18945-4.16016,4.18945h-13.79883c-2.75391,0-4.13086-1.39648-4.13086-4.18945v-10.92773h6.85547v9.3457h8.37891v-8.99414l-13.74023-13.00781c-.99609-.95703-1.49414-2.17773-1.49414-3.66211v-10.19531c0-2.8125,1.37695-4.21875,4.13086-4.21875h13.79883c2.77295,0,4.16016,1.38672,4.16016,4.16016v10.25391h-6.85547v-8.64258h-8.37891v8.29102l13.74023,12.94922c.99609.9375,1.49414,2.17773,1.49414,3.7207v10.92773Zm28.50586,4.18945h-6.91406v-20.56641h-9.28711v20.56641h-6.85547v-45.84961h6.85547v18.89648h9.28711v-18.89648h6.91406v45.84961Zm12.42188,0h-6.85547v-45.84961h6.85547v45.84961Zm28.85742,0h-6.79688l-1.37695-8.70117h-8.58398l-1.37695,8.70117h-6.76758v-.11719l8.87695-45.79102h7.20703l8.81836,45.9082Zm-9.14062-14.58984l-3.33984-20.68359-3.36914,20.68359h6.70898Z"/>
          <path class="cls-4" d="m503.61255,997.15404h-18.01758v-45.84961h6.85547v39.72656h11.16211v6.12305Z"/>
          <path class="cls-4" d="m530.91724,997.15404h-6.79688l-1.37695-8.70117h-8.58398l-1.37695,8.70117h-6.76758v-.11719l8.87695-45.79102h7.20703l8.81836,45.9082Zm-9.14062-14.58984l-3.33984-20.68359-3.36914,20.68359h6.70898Z"/>
          <path class="cls-4" d="m557.98755,997.15404h-6.00586l-10.98633-28.85742c.29297,1.40625.43945,2.50977.43945,3.31055v25.54688h-6.67969v-45.84961h6.00586l10.98633,28.27148c-.29297-1.40625-.43945-2.50977-.43945-3.31055v-24.96094h6.67969v45.84961Z"/>
          <path class="cls-4" d="m582.50903,997.15404h-19.01367v-45.84961h18.83789v6.06445h-11.98242v13.38867h10.3125v5.94727h-10.3125v14.38477h12.1582v6.06445Z"/>
          <path class="cls-4" d="m618.28052,957.36888h-11.86523v13.56445h10.13672v5.94727h-10.13672v20.27344h-6.85547v-45.84961h18.7207v6.06445Z"/>
          <path class="cls-4" d="m645.40942,997.15404h-6.79688l-1.37695-8.70117h-8.58398l-1.37695,8.70117h-6.76758v-.11719l8.87695-45.79102h7.20703l8.81836,45.9082Zm-9.14062-14.58984l-3.33984-20.68359-3.36914,20.68359h6.70898Z"/>
          <path class="cls-4" d="m672.18677,992.96458c0,2.79297-1.40625,4.18945-4.21875,4.18945h-14.56055c-2.77344,0-4.16016-1.39648-4.16016-4.18945v-41.66016h6.85547v39.96094h9.22852v-39.96094h6.85547v41.66016Z"/>
          <path class="cls-4" d="m699.66724,992.96458c0,2.79297-1.38721,4.18945-4.16016,4.18945h-13.79883c-2.75391,0-4.13086-1.39648-4.13086-4.18945v-10.92773h6.85547v9.3457h8.37891v-8.99414l-13.74023-13.00781c-.99609-.95703-1.49414-2.17773-1.49414-3.66211v-10.19531c0-2.8125,1.37695-4.21875,4.13086-4.21875h13.79883c2.77295,0,4.16016,1.38672,4.16016,4.16016v10.25391h-6.85547v-8.64258h-8.37891v8.29102l13.74023,12.94922c.99609.9375,1.49414,2.17773,1.49414,3.7207v10.92773Z"/>
          <path class="cls-4" d="m724.56958,997.15404h-21.06445v-3.66211l12.83203-36.00586h-11.80664v-6.18164h19.98047v3.95508l-12.80273,35.71289h12.86133v6.18164Z"/>
          <path class="cls-4" d="m508.15356,1054.96458c0,2.79297-1.39648,4.18945-4.18945,4.18945h-14.29688c-2.71484,0-4.07227-1.39648-4.07227-4.18945v-37.44141c0-2.8125,1.35742-4.21875,4.07227-4.21875h14.29688c2.79297,0,4.18945,1.40625,4.18945,4.21875v10.72266h-6.82617v-9.05273h-8.87695v34.07227h8.87695v-9.63867h6.82617v11.33789Z"/>
          <path class="cls-4" d="m536.65942,1054.96458c0,2.79297-1.38721,4.18945-4.16016,4.18945h-14.88281c-2.71484,0-4.07227-1.39648-4.07227-4.18945v-37.44141c0-2.8125,1.35742-4.21875,4.07227-4.21875h14.88281c2.77295,0,4.16016,1.40625,4.16016,4.21875v37.44141Zm-6.85547-1.69922v-34.07227h-9.4043v34.07227h9.4043Z"/>
          <path class="cls-4" d="m565.28247,1054.96458c0,2.79297-1.38721,4.18945-4.16016,4.18945h-14.88281c-2.71484,0-4.07227-1.39648-4.07227-4.18945v-37.44141c0-2.8125,1.35742-4.21875,4.07227-4.21875h14.88281c2.77295,0,4.16016,1.40625,4.16016,4.21875v37.44141Zm-6.85547-1.69922v-34.07227h-9.4043v34.07227h9.4043Z"/>
          <path class="cls-4" d="m592.93872,1038.26536c0,2.85156-1.39648,4.27734-4.18945,4.27734h-11.10352v16.61133h-6.85547v-45.84961h17.95898c2.79297,0,4.18945,1.40625,4.18945,4.21875v20.74219Zm-6.91406-1.61133v-17.46094h-8.37891v17.46094h8.37891Z"/>
          <path class="cls-4" d="m616.81567,1059.15404h-19.01367v-45.84961h18.83789v6.06445h-11.98242v13.38867h10.3125v5.94727h-10.3125v14.38477h12.1582v6.06445Z"/>
          <path class="cls-4" d="m644.96997,1059.15404h-7.14844l-7.55859-21.29883v-4.13086h6.73828v-14.53125h-8.64258v39.96094h-6.85547v-45.84961h18.19336c2.75391,0,4.13086,1.40625,4.13086,4.21875v16.66992c0,1.93359-.65479,3.18359-1.96289,3.75-.70312.29297-2.1875.43945-4.45312.43945l7.55859,20.77148Z"/>
          <path class="cls-4" d="m695.3606,1013.30443l-6.70898,45.9082h-6.70898l-4.10156-25.98633c-.03955-.9375-.11719-2.33398-.23438-4.18945,0,.9375-.07812,2.33398-.23438,4.18945l-4.07227,25.98633h-6.73828l-6.70898-45.9082h6.94336l3.54492,27.1875c.05859.9375.13623,2.33398.23438,4.18945.01904-.9375.10693-2.33398.26367-4.18945l3.95508-27.1875h5.625l3.95508,27.1875c.05859.9375.14648,2.33398.26367,4.18945.01904-.9375.09766-2.33398.23438-4.18945l3.54492-27.1875h6.94336Z"/>
          <path class="cls-4" d="m706.17114,1059.15404h-6.85547v-45.84961h6.85547v45.84961Z"/>
          <path class="cls-4" d="m735.02856,1059.15404h-6.00586l-10.98633-28.85742c.29297,1.40625.43945,2.50977.43945,3.31055v25.54688h-6.67969v-45.84961h6.00586l10.98633,28.27148c-.29297-1.40625-.43945-2.50977-.43945-3.31055v-24.96094h6.67969v45.84961Z"/>
          <path class="cls-4" d="m763.21216,1054.96458c0,2.79297-1.39648,4.18945-4.18945,4.18945h-14.41406c-2.71484,0-4.07227-1.39648-4.07227-4.18945v-37.44141c0-2.8125,1.38672-4.21875,4.16016-4.21875h14.32617c2.79297,0,4.18945,1.40625,4.18945,4.21875v9.78516h-6.88477v-8.11523h-8.93555v34.07227h8.93555v-12.83203h-5.09766v-5.83008h11.98242v20.36133Z"/>
          <path class="cls-4" d="m787.70435,1059.15404h-19.01367v-45.84961h18.83789v6.06445h-11.98242v13.38867h10.3125v5.94727h-10.3125v14.38477h12.1582v6.06445Z"/>
          <path class="cls-4" d="m815.85913,1059.15404h-7.14844l-7.55908-21.29883v-4.13086h6.73877v-14.53125h-8.64307v39.96094h-6.85547v-45.84961h18.19385c2.75391,0,4.13086,1.40625,4.13086,4.21875v16.66992c0,1.93359-.6543,3.18359-1.96289,3.75-.70312.29297-2.1875.43945-4.45312.43945l7.55859,20.77148Z"/>
          <path class="cls-4" d="m839.97046,1019.36888h-7.55859v39.78516h-6.82617v-39.78516h-7.55859v-6.06445h21.94336v6.06445Z"/>
          <path class="cls-4" d="m862.47046,1059.15404h-19.01367v-45.84961h18.83789v6.06445h-11.98242v13.38867h10.3125v5.94727h-10.3125v14.38477h12.1582v6.06445Z"/>
          <path class="cls-4" d="m890.62476,1059.15404h-7.14844l-7.55859-21.29883v-4.13086h6.73828v-14.53125h-8.64258v39.96094h-6.85547v-45.84961h18.19336c2.75391,0,4.13086,1.40625,4.13086,4.21875v16.66992c0,1.93359-.6543,3.18359-1.96289,3.75-.70312.29297-2.1875.43945-4.45312.43945l7.55859,20.77148Z"/>
          <path class="cls-4" d="m503.61255,1121.15404h-18.01758v-45.84961h6.85547v39.72656h11.16211v6.12305Z"/>
          <path class="cls-4" d="m530.80005,1116.96458c0,2.79297-1.38721,4.18945-4.16016,4.18945h-14.88281c-2.71484,0-4.07227-1.39648-4.07227-4.18945v-37.44141c0-2.8125,1.35742-4.21875,4.07227-4.21875h14.88281c2.77295,0,4.16016,1.40625,4.16016,4.21875v37.44141Zm-6.85547-1.69922v-34.07227h-9.4043v34.07227h9.4043Z"/>
          <path class="cls-4" d="m558.98364,1116.96458c0,2.79297-1.39648,4.18945-4.18945,4.18945h-14.41406c-2.71484,0-4.07227-1.39648-4.07227-4.18945v-37.44141c0-2.8125,1.38672-4.21875,4.16016-4.21875h14.32617c2.79297,0,4.18945,1.40625,4.18945,4.21875v9.78516h-6.88477v-8.11523h-8.93555v34.07227h8.93555v-12.83203h-5.09766v-5.83008h11.98242v20.36133Z"/>
          <path class="cls-4" d="m587.69458,1121.15404h-6.79688l-1.37695-8.70117h-8.58398l-1.37695,8.70117h-6.76758v-.11719l8.87695-45.79102h7.20703l8.81836,45.9082Zm-9.14062-14.58984l-3.33984-20.68359-3.36914,20.68359h6.70898Z"/>
          <path class="cls-4" d="m614.76489,1121.15404h-6.00586l-10.98633-28.85742c.29297,1.40625.43945,2.50977.43945,3.31055v25.54688h-6.67969v-45.84961h6.00586l10.98633,28.27148c-.29297-1.40625-.43945-2.50977-.43945-3.31055v-24.96094h6.67969v45.84961Z"/>
          <path class="cls-4" d="m655.31177,1116.96458c0,2.79297-1.39648,4.18945-4.18945,4.18945h-14.41406c-2.71484,0-4.07227-1.39648-4.07227-4.18945v-37.44141c0-2.8125,1.38672-4.21875,4.16016-4.21875h14.32617c2.79297,0,4.18945,1.40625,4.18945,4.21875v9.78516h-6.88477v-8.11523h-8.93555v34.07227h8.93555v-12.83203h-5.09766v-5.83008h11.98242v20.36133Z"/>
          <path class="cls-4" d="m667.76294,1121.15404h-6.85547v-45.84961h6.85547v45.84961Z"/>
          <path class="cls-4" d="m695.88794,1116.96458c0,2.79297-1.39648,4.18945-4.18945,4.18945h-18.31055v-45.84961h18.19336c2.71436,0,4.07227,1.40625,4.07227,4.21875v11.80664c0,1.5625-.48828,2.77344-1.46484,3.63281-.13672.11719-1.32861.86914-3.57422,2.25586,2.32422,1.42578,3.55469,2.20703,3.69141,2.34375,1.05469.91797,1.58203,2.17773,1.58203,3.7793v13.62305Zm-7.06055-24.78516v-11.10352h-8.58398v13.44727h5.27344l3.31055-2.34375Zm.17578,23.20312v-13.06641l-3.36914-2.22656h-5.39062v15.29297h8.75977Z"/>
          <path class="cls-4" d="m723.77856,1116.96458c0,2.79297-1.39648,4.18945-4.18945,4.18945h-18.31055v-45.84961h18.19336c2.71436,0,4.07227,1.40625,4.07227,4.21875v11.80664c0,1.5625-.48828,2.77344-1.46484,3.63281-.13672.11719-1.32861.86914-3.57422,2.25586,2.32422,1.42578,3.55469,2.20703,3.69141,2.34375,1.05469.91797,1.58203,2.17773,1.58203,3.7793v13.62305Zm-7.06055-24.78516v-11.10352h-8.58398v13.44727h5.27344l3.31055-2.34375Zm.17578,23.20312v-13.06641l-3.36914-2.22656h-5.39062v15.29297h8.75977Z"/>
          <path class="cls-4" d="m751.14185,1116.96458c0,2.79297-1.38721,4.18945-4.16016,4.18945h-13.79883c-2.75391,0-4.13086-1.39648-4.13086-4.18945v-10.92773h6.85547v9.3457h8.37891v-8.99414l-13.74023-13.00781c-.99609-.95703-1.49414-2.17773-1.49414-3.66211v-10.19531c0-2.8125,1.37695-4.21875,4.13086-4.21875h13.79883c2.77295,0,4.16016,1.38672,4.16016,4.16016v10.25391h-6.85547v-8.64258h-8.37891v8.29102l13.74023,12.94922c.99609.9375,1.49414,2.17773,1.49414,3.7207v10.92773Z"/>
          <path id="JACOB_HERN" data-name="JACOB HERN" class="cls-4" d="m506.95239,1178.96458c0,2.79297-1.40625,4.18945-4.21875,4.18945h-13.00781c-2.75391,0-4.13086-1.39648-4.13086-4.18945v-11.2793h6.82617v9.58008h7.67578v-39.96094h6.85547v41.66016Zm28.68164,4.18945h-6.79688l-1.37695-8.70117h-8.58398l-1.37695,8.70117h-6.76758v-.11719l8.87695-45.79102h7.20703l8.81836,45.9082Zm-9.14062-14.58984l-3.33984-20.68359-3.36914,20.68359h6.70898Zm35.53711,10.40039c0,2.79297-1.39648,4.18945-4.18945,4.18945h-14.29688c-2.71484,0-4.07227-1.39648-4.07227-4.18945v-37.44141c0-2.8125,1.35742-4.21875,4.07227-4.21875h14.29688c2.79297,0,4.18945,1.40625,4.18945,4.21875v10.72266h-6.82617v-9.05273h-8.87695v34.07227h8.87695v-9.63867h6.82617v11.33789Zm28.50586,0c0,2.79297-1.38721,4.18945-4.16016,4.18945h-14.88281c-2.71484,0-4.07227-1.39648-4.07227-4.18945v-37.44141c0-2.8125,1.35742-4.21875,4.07227-4.21875h14.88281c2.77295,0,4.16016,1.40625,4.16016,4.21875v37.44141Zm-6.85547-1.69922v-34.07227h-9.4043v34.07227h9.4043Zm34.86328,1.69922c0,2.79297-1.39648,4.18945-4.18945,4.18945h-18.31055v-45.84961h18.19336c2.71436,0,4.07227,1.40625,4.07227,4.21875v11.80664c0,1.5625-.48828,2.77344-1.46484,3.63281-.13672.11719-1.32861.86914-3.57422,2.25586,2.32422,1.42578,3.55469,2.20703,3.69141,2.34375,1.05469.91797,1.58203,2.17773,1.58203,3.7793v13.62305Zm-7.06055-24.78516v-11.10352h-8.58398v13.44727h5.27344l3.31055-2.34375Zm.17578,23.20312v-13.06641l-3.36914-2.22656h-5.39062v15.29297h8.75977Zm47.69531,5.77148h-6.91406v-20.56641h-9.28711v20.56641h-6.85547v-45.84961h6.85547v18.89648h9.28711v-18.89648h6.91406v45.84961Zm24.46289,0h-19.01367v-45.84961h18.83789v6.06445h-11.98242v13.38867h10.3125v5.94727h-10.3125v14.38477h12.1582v6.06445Zm28.1543,0h-7.14844l-7.55859-21.29883v-4.13086h6.73828v-14.53125h-8.64258v39.96094h-6.85547v-45.84961h18.19336c2.75391,0,4.13086,1.40625,4.13086,4.21875v16.66992c0,1.93359-.65479,3.18359-1.96289,3.75-.70312.29297-2.1875.43945-4.45312.43945l7.55859,20.77148Zm27.42188,0h-6.00586l-10.98633-28.85742c.29297,1.40625.43945,2.50977.43945,3.31055v25.54688h-6.67969v-45.84961h6.00586l10.98633,28.27148c-.29297-1.40625-.43945-2.50977-.43945-3.31055v-24.96094h6.67969v45.84961Z"/>
          <path class="cls-4" d="m504.60864,1245.15404h-19.01367v-45.84961h18.83789v6.06445h-11.98242v13.38867h10.3125v5.94727h-10.3125v14.38477h12.1582v6.06445Z"/>
          <path class="cls-4" d="m527.31372,1245.15404h-18.01758v-45.84961h6.85547v39.72656h11.16211v6.12305Z"/>
          <path class="cls-4" d="m538.35864,1245.15404h-6.85547v-45.84961h6.85547v45.84961Z"/>
          <path class="cls-4" d="m575.3606,1245.15404h-19.01367v-45.84961h18.83789v6.06445h-11.98242v13.38867h10.3125v5.94727h-10.3125v14.38477h12.1582v6.06445Z"/>
          <path class="cls-4" d="m603.28052,1245.15404h-6.79688l-1.37695-8.70117h-8.58398l-1.37695,8.70117h-6.76758v-.11719l8.87695-45.79102h7.20703l8.81836,45.9082Zm-9.14062-14.58984l-3.33984-20.68359-3.36914,20.68359h6.70898Z"/>
          <path class="cls-4" d="m630.58521,1245.15404h-7.14844l-7.55859-21.29883v-4.13086h6.73828v-14.53125h-8.64258v39.96094h-6.85547v-45.84961h18.19336c2.75391,0,4.13086,1.40625,4.13086,4.21875v16.66992c0,1.93359-.65479,3.18359-1.96289,3.75-.70312.29297-2.1875.43945-4.45312.43945l7.55859,20.77148Z"/>
          <path class="cls-4" d="m652.79224,1245.15404h-18.01758v-45.84961h6.85547v39.72656h11.16211v6.12305Z"/>
          <path class="cls-4" d="m508.44653,1298.51146c0,2.69531-.80127,4.80957-2.40234,6.34277-1.60156,1.5332-3.76025,2.2998-6.47461,2.2998h-13.97461v-45.84961h13.97461c2.71436,0,4.87305.77637,6.47461,2.3291,1.60107,1.55273,2.40234,3.67676,2.40234,6.37207v28.50586Zm-6.88477-1.14258v-26.33789c0-2.55859-1.33789-3.83789-4.01367-3.83789h-5.09766v34.07227h4.92188c2.79297,0,4.18945-1.29883,4.18945-3.89648Z"/>
          <path class="cls-4" d="m536.98169,1307.15404h-6.79688l-1.37695-8.70117h-8.58398l-1.37695,8.70117h-6.76758v-.11719l8.87695-45.79102h7.20703l8.81836,45.9082Zm-9.14062-14.58984l-3.33984-20.68359-3.36914,20.68359h6.70898Z"/>
          <path class="cls-4" d="m558.83716,1307.15404h-18.01758v-45.84961h6.85547v39.72656h11.16211v6.12305Z"/>
          <path class="cls-4" d="m580.927,1307.15404h-18.01758v-45.84961h6.85547v39.72656h11.16211v6.12305Z"/>
          <path class="cls-4" d="m608.05591,1261.5681l-6.06445,19.16016c-.74268,1.89453-1.74805,5.08789-3.01758,9.58008v16.8457h-6.88477v-16.8457c-.3125-1.52344-.76172-3.13477-1.34766-4.83398-1.03564-2.91016-1.59229-4.49219-1.66992-4.74609l-6.03516-19.16016c-.01953-.01953-.01953-.10742,0-.26367h7.06055l5.47852,19.92188,5.44922-19.92188h7.03125v.26367Z"/>
          <path class="cls-4" d="m634.80396,1307.15404h-6.00586l-10.98633-28.85742c.29297,1.40625.43945,2.50977.43945,3.31055v25.54688h-6.67969v-45.84961h6.00586l10.98633,28.27148c-.29297-1.40625-.43945-2.50977-.43945-3.31055v-24.96094h6.67969v45.84961Z"/>
          <path class="cls-4" d="m675.17505,1302.96458c0,2.79297-1.39648,4.18945-4.18945,4.18945h-18.31055v-45.84961h18.19336c2.71436,0,4.07227,1.40625,4.07227,4.21875v11.80664c0,1.5625-.48828,2.77344-1.46484,3.63281-.13672.11719-1.32861.86914-3.57422,2.25586,2.32422,1.42578,3.55469,2.20703,3.69141,2.34375,1.05469.91797,1.58203,2.17773,1.58203,3.7793v13.62305Zm-7.06055-24.78516v-11.10352h-8.58398v13.44727h5.27344l3.31055-2.34375Zm.17578,23.20312v-13.06641l-3.36914-2.22656h-5.39062v15.29297h8.75977Z"/>
          <path class="cls-4" d="m704.03247,1307.15404h-7.14844l-7.55859-21.29883v-4.13086h6.73828v-14.53125h-8.64258v39.96094h-6.85547v-45.84961h18.19336c2.75391,0,4.13086,1.40625,4.13086,4.21875v16.66992c0,1.93359-.65479,3.18359-1.96289,3.75-.70312.29297-2.1875.43945-4.45312.43945l7.55859,20.77148Z"/>
          <path class="cls-4" d="m731.45435,1307.15404h-6.79688l-1.37695-8.70117h-8.58398l-1.37695,8.70117h-6.76758v-.11719l8.87695-45.79102h7.20703l8.81836,45.9082Zm-9.14062-14.58984l-3.33984-20.68359-3.36914,20.68359h6.70898Z"/>
          <path class="cls-4" d="m755.21411,1267.36888h-7.55859v39.78516h-6.82617v-39.78516h-7.55859v-6.06445h21.94336v6.06445Z"/>
          <path class="cls-4" d="m781.25903,1302.96458c0,2.79297-1.39648,4.18945-4.18945,4.18945h-14.29688c-2.71484,0-4.07227-1.39648-4.07227-4.18945v-37.44141c0-2.8125,1.35742-4.21875,4.07227-4.21875h14.29688c2.79297,0,4.18945,1.40625,4.18945,4.21875v10.72266h-6.82617v-9.05273h-8.87695v34.07227h8.87695v-9.63867h6.82617v11.33789Z"/>
          <path class="cls-4" d="m809.70679,1307.15404h-6.91455v-20.56641h-9.28711v20.56641h-6.85547v-45.84961h6.85547v18.89648h9.28711v-18.89648h6.91455v45.84961Z"/>
          <path class="cls-4" d="m834.16968,1307.15404h-19.01367v-45.84961h18.83789v6.06445h-11.98242v13.38867h10.3125v5.94727h-10.3125v14.38477h12.1582v6.06445Z"/>
          <path class="cls-4" d="m862.32397,1307.15404h-7.14844l-7.55859-21.29883v-4.13086h6.73828v-14.53125h-8.64258v39.96094h-6.85547v-45.84961h18.19336c2.75391,0,4.13086,1.40625,4.13086,4.21875v16.66992c0,1.93359-.6543,3.18359-1.96289,3.75-.70312.29297-2.1875.43945-4.45312.43945l7.55859,20.77148Z"/>
          <path class="cls-4" d="m508.65161,1369.15404h-6.91406v-20.56641h-9.28711v20.56641h-6.85547v-45.84961h6.85547v18.89648h9.28711v-18.89648h6.91406v45.84961Z"/>
          <path class="cls-4" d="m537.33325,1369.15404h-6.79688l-1.37695-8.70117h-8.58398l-1.37695,8.70117h-6.76758v-.11719l8.87695-45.79102h7.20703l8.81836,45.9082Zm-9.14062-14.58984l-3.33984-20.68359-3.36914,20.68359h6.70898Z"/>
          <path class="cls-4" d="m564.40356,1369.15404h-6.00586l-10.98633-28.85742c.29297,1.40625.43945,2.50977.43945,3.31055v25.54688h-6.67969v-45.84961h6.00586l10.98633,28.27148c-.29297-1.40625-.43945-2.50977-.43945-3.31055v-24.96094h6.67969v45.84961Z"/>
          <path class="cls-4" d="m593.02661,1369.15404h-7.55859l-8.70117-20.44922v20.44922h-6.85547v-45.84961h6.85547v19.39453l7.61719-19.39453h7.5v.32227l-9.31641,21.76758,10.45898,23.75977Z"/>
          <path class="cls-4" d="m628.7395,1364.96458c0,2.79297-1.40625,4.18945-4.21875,4.18945h-13.00781c-2.75391,0-4.13086-1.39648-4.13086-4.18945v-11.2793h6.82617v9.58008h7.67578v-39.96094h6.85547v41.66016Z"/>
          <path class="cls-4" d="m657.42114,1369.15404h-6.79688l-1.37695-8.70117h-8.58398l-1.37695,8.70117h-6.76758v-.11719l8.87695-45.79102h7.20703l8.81836,45.9082Zm-9.14062-14.58984l-3.33984-20.68359-3.36914,20.68359h6.70898Z"/>
          <path class="cls-4" d="m683.81763,1364.96458c0,2.79297-1.39648,4.18945-4.18945,4.18945h-14.29688c-2.71484,0-4.07227-1.39648-4.07227-4.18945v-37.44141c0-2.8125,1.35742-4.21875,4.07227-4.21875h14.29688c2.79297,0,4.18945,1.40625,4.18945,4.21875v10.72266h-6.82617v-9.05273h-8.87695v34.07227h8.87695v-9.63867h6.82617v11.33789Z"/>
          <path class="cls-4" d="m712.32349,1369.15404h-7.55859l-8.70117-20.44922v20.44922h-6.85547v-45.84961h6.85547v19.39453l7.61719-19.39453h7.5v.32227l-9.31641,21.76758,10.45898,23.75977Z"/>
          <path class="cls-4" d="m737.05005,1364.96458c0,2.79297-1.38721,4.18945-4.16016,4.18945h-13.79883c-2.75391,0-4.13086-1.39648-4.13086-4.18945v-10.92773h6.85547v9.3457h8.37891v-8.99414l-13.74023-13.00781c-.99609-.95703-1.49414-2.17773-1.49414-3.66211v-10.19531c0-2.8125,1.37695-4.21875,4.13086-4.21875h13.79883c2.77295,0,4.16016,1.38672,4.16016,4.16016v10.25391h-6.85547v-8.64258h-8.37891v8.29102l13.74023,12.94922c.99609.9375,1.49414,2.17773,1.49414,3.7207v10.92773Z"/>
          <path class="cls-4" d="m765.6145,1364.96458c0,2.79297-1.38721,4.18945-4.16016,4.18945h-14.88281c-2.71484,0-4.07227-1.39648-4.07227-4.18945v-37.44141c0-2.8125,1.35742-4.21875,4.07227-4.21875h14.88281c2.77295,0,4.16016,1.40625,4.16016,4.21875v37.44141Zm-6.85547-1.69922v-34.07227h-9.4043v34.07227h9.4043Z"/>
          <path class="cls-4" d="m794.35474,1369.15404h-6.00586l-10.98633-28.85742c.29297,1.40625.43945,2.50977.43945,3.31055v25.54688h-6.67969v-45.84961h6.00586l10.98633,28.27148c-.29297-1.40625-.43945-2.50977-.43945-3.31055v-24.96094h6.67969v45.84961Z"/>
          <path class="cls-4" d="m508.15356,1426.96458c0,2.79297-1.39648,4.18945-4.18945,4.18945h-14.29688c-2.71484,0-4.07227-1.39648-4.07227-4.18945v-37.44141c0-2.8125,1.35742-4.21875,4.07227-4.21875h14.29688c2.79297,0,4.18945,1.40625,4.18945,4.21875v10.72266h-6.82617v-9.05273h-8.87695v34.07227h8.87695v-9.63867h6.82617v11.33789Z"/>
          <path class="cls-4" d="m536.77661,1431.15404h-6.79688l-1.37695-8.70117h-8.58398l-1.37695,8.70117h-6.76758v-.11719l8.87695-45.79102h7.20703l8.81836,45.9082Zm-9.14062-14.58984l-3.33984-20.68359-3.36914,20.68359h6.70898Z"/>
          <path class="cls-4" d="m564.0813,1431.15404h-7.14844l-7.55859-21.29883v-4.13086h6.73828v-14.53125h-8.64258v39.96094h-6.85547v-45.84961h18.19336c2.75391,0,4.13086,1.40625,4.13086,4.21875v16.66992c0,1.93359-.65479,3.18359-1.96289,3.75-.70312.29297-2.1875.43945-4.45312.43945l7.55859,20.77148Z"/>
          <path class="cls-4" d="m590.24341,1426.96458c0,2.79297-1.38721,4.18945-4.16016,4.18945h-13.79883c-2.75391,0-4.13086-1.39648-4.13086-4.18945v-10.92773h6.85547v9.3457h8.37891v-8.99414l-13.74023-13.00781c-.99609-.95703-1.49414-2.17773-1.49414-3.66211v-10.19531c0-2.8125,1.37695-4.21875,4.13086-4.21875h13.79883c2.77295,0,4.16016,1.38672,4.16016,4.16016v10.25391h-6.85547v-8.64258h-8.37891v8.29102l13.74023,12.94922c.99609.9375,1.49414,2.17773,1.49414,3.7207v10.92773Z"/>
          <path class="cls-4" d="m618.80786,1426.96458c0,2.79297-1.38721,4.18945-4.16016,4.18945h-14.88281c-2.71484,0-4.07227-1.39648-4.07227-4.18945v-37.44141c0-2.8125,1.35742-4.21875,4.07227-4.21875h14.88281c2.77295,0,4.16016,1.40625,4.16016,4.21875v37.44141Zm-6.85547-1.69922v-34.07227h-9.4043v34.07227h9.4043Z"/>
          <path class="cls-4" d="m647.5481,1431.15404h-6.00586l-10.98633-28.85742c.29297,1.40625.43945,2.50977.43945,3.31055v25.54688h-6.67969v-45.84961h6.00586l10.98633,28.27148c-.29297-1.40625-.43945-2.50977-.43945-3.31055v-24.96094h6.67969v45.84961Z"/>
          <path class="cls-4" d="m687.91919,1426.96458c0,2.79297-1.39648,4.18945-4.18945,4.18945h-18.31055v-45.84961h18.19336c2.71436,0,4.07227,1.40625,4.07227,4.21875v11.80664c0,1.5625-.48828,2.77344-1.46484,3.63281-.13672.11719-1.32861.86914-3.57422,2.25586,2.32422,1.42578,3.55469,2.20703,3.69141,2.34375,1.05469.91797,1.58203,2.17773,1.58203,3.7793v13.62305Zm-7.06055-24.78516v-11.10352h-8.58398v13.44727h5.27344l3.31055-2.34375Zm.17578,23.20312v-13.06641l-3.36914-2.22656h-5.39062v15.29297h8.75977Z"/>
          <path class="cls-4" d="m716.42505,1426.96458c0,2.79297-1.38721,4.18945-4.16016,4.18945h-14.88281c-2.71484,0-4.07227-1.39648-4.07227-4.18945v-37.44141c0-2.8125,1.35742-4.21875,4.07227-4.21875h14.88281c2.77295,0,4.16016,1.40625,4.16016,4.21875v37.44141Zm-6.85547-1.69922v-34.07227h-9.4043v34.07227h9.4043Z"/>
          <path class="cls-4" d="m744.87231,1426.96458c0,2.79297-1.40625,4.18945-4.21875,4.18945h-14.56055c-2.77344,0-4.16016-1.39648-4.16016-4.18945v-41.66016h6.85547v39.96094h9.22852v-39.96094h6.85547v41.66016Z"/>
          <path class="cls-4" d="m772.35278,1426.96458c0,2.79297-1.38721,4.18945-4.16016,4.18945h-13.79883c-2.75391,0-4.13086-1.39648-4.13086-4.18945v-10.92773h6.85547v9.3457h8.37891v-8.99414l-13.74023-13.00781c-.99609-.95703-1.49414-2.17773-1.49414-3.66211v-10.19531c0-2.8125,1.37695-4.21875,4.13086-4.21875h13.79883c2.77295,0,4.16016,1.38672,4.16016,4.16016v10.25391h-6.85547v-8.64258h-8.37891v8.29102l13.74023,12.94922c.99609.9375,1.49414,2.17773,1.49414,3.7207v10.92773Z"/>
          <path class="cls-4" d="m796.81567,1431.15404h-19.01367v-45.84961h18.83789v6.06445h-11.98242v13.38867h10.3125v5.94727h-10.3125v14.38477h12.1582v6.06445Z"/>
          <path id="AYDIN_BUSH" data-name="AYDIN BUSH" class="cls-4" d="m510.29224,1493.15404h-6.79688l-1.37695-8.70117h-8.58398l-1.37695,8.70117h-6.76758v-.11719l8.87695-45.79102h7.20703l8.81836,45.9082Zm-9.14062-14.58984l-3.33984-20.68359-3.36914,20.68359h6.70898Zm36.03516-30.99609l-6.06445,19.16016c-.74268,1.89453-1.74805,5.08789-3.01758,9.58008v16.8457h-6.88477v-16.8457c-.3125-1.52344-.76172-3.13477-1.34766-4.83398-1.03564-2.91016-1.59229-4.49219-1.66992-4.74609l-6.03516-19.16016c-.01953-.01953-.01953-.10742,0-.26367h7.06055l5.47852,19.92188,5.44922-19.92188h7.03125v.26367Zm26.36719,36.94336c0,2.69531-.80127,4.80957-2.40234,6.34277-1.60156,1.5332-3.76025,2.2998-6.47461,2.2998h-13.97461v-45.84961h13.97461c2.71436,0,4.87305.77637,6.47461,2.3291,1.60107,1.55273,2.40234,3.67676,2.40234,6.37207v28.50586Zm-6.88477-1.14258v-26.33789c0-2.55859-1.33789-3.83789-4.01367-3.83789h-5.09766v34.07227h4.92188c2.79297,0,4.18945-1.29883,4.18945-3.89648Zm19.16016,9.78516h-6.85547v-45.84961h6.85547v45.84961Zm28.85742,0h-6.00586l-10.98633-28.85742c.29297,1.40625.43945,2.50977.43945,3.31055v25.54688h-6.67969v-45.84961h6.00586l10.98633,28.27148c-.29297-1.40625-.43945-2.50977-.43945-3.31055v-24.96094h6.67969v45.84961Zm40.37109-4.18945c0,2.79297-1.39648,4.18945-4.18945,4.18945h-18.31055v-45.84961h18.19336c2.71436,0,4.07227,1.40625,4.07227,4.21875v11.80664c0,1.5625-.48828,2.77344-1.46484,3.63281-.13672.11719-1.32861.86914-3.57422,2.25586,2.32422,1.42578,3.55469,2.20703,3.69141,2.34375,1.05469.91797,1.58203,2.17773,1.58203,3.7793v13.62305Zm-7.06055-24.78516v-11.10352h-8.58398v13.44727h5.27344l3.31055-2.34375Zm.17578,23.20312v-13.06641l-3.36914-2.22656h-5.39062v15.29297h8.75977Zm35.21484,1.58203c0,2.79297-1.40625,4.18945-4.21875,4.18945h-14.56055c-2.77344,0-4.16016-1.39648-4.16016-4.18945v-41.66016h6.85547v39.96094h9.22852v-39.96094h6.85547v41.66016Zm27.48047,0c0,2.79297-1.38721,4.18945-4.16016,4.18945h-13.79883c-2.75391,0-4.13086-1.39648-4.13086-4.18945v-10.92773h6.85547v9.3457h8.37891v-8.99414l-13.74023-13.00781c-.99609-.95703-1.49414-2.17773-1.49414-3.66211v-10.19531c0-2.8125,1.37695-4.21875,4.13086-4.21875h13.79883c2.77295,0,4.16016,1.38672,4.16016,4.16016v10.25391h-6.85547v-8.64258h-8.37891v8.29102l13.74023,12.94922c.99609.9375,1.49414,2.17773,1.49414,3.7207v10.92773Zm28.50586,4.18945h-6.91406v-20.56641h-9.28711v20.56641h-6.85547v-45.84961h6.85547v18.89648h9.28711v-18.89648h6.91406v45.84961Z"/>
        </g>
        <g id="Numbers">
          <path id="G-95" class="cls-4" d="m1040.9978,496.96507c0,2.79346-1.39648,4.18945-4.18945,4.18945h-14.41406c-2.71484,0-4.07227-1.396-4.07227-4.18945v-37.44141c0-2.8125,1.38672-4.21875,4.16016-4.21875h14.32617c2.79297,0,4.18945,1.40625,4.18945,4.21875v9.78516h-6.88477v-8.11523h-8.93555v34.07227h8.93555v-12.83203h-5.09766v-5.83008h11.98242v20.36133Zm18.92578-10.40039h-13.97461v-6.12305h13.97461v6.12305Zm27.1875,10.40039c0,2.79346-1.37695,4.18945-4.13086,4.18945h-13.79883c-2.77344,0-4.16016-1.396-4.16016-4.18945v-9.72656h6.73828v8.02734h8.55469v-13.79883h-11.39648c-2.71484,0-4.07227-1.37695-4.07227-4.13086v-17.8125c0-2.8125,1.35742-4.21875,4.07227-4.21875h14.00391c2.79297,0,4.18945,1.40625,4.18945,4.21875v37.44141Zm-6.79688-21.29883v-14.47266h-8.75977v14.47266h8.75977Zm34.21875,21.29883c0,2.79346-1.38672,4.18945-4.16016,4.18945h-13.74023c-2.71484,0-4.07227-1.396-4.07227-4.18945v-10.57617h6.73828v8.87695h8.49609v-17.63672h-15.23438l.73242-22.32422h20.91797v6.00586h-14.56055l-.43945,10.42969h11.16211c2.77344,0,4.16016,1.38721,4.16016,4.16016v21.06445Z"/>
          <path id="_50" data-name="50" class="cls-4" d="m1086.79663,558.96507c0,2.79346-1.38672,4.18945-4.16016,4.18945h-13.74023c-2.71484,0-4.07227-1.396-4.07227-4.18945v-10.57617h6.73828v8.87695h8.49609v-17.63672h-15.23438l.73242-22.32422h20.91797v6.00586h-14.56055l-.43945,10.42969h11.16211c2.77344,0,4.16016,1.38721,4.16016,4.16016v21.06445Zm27.83203,0c0,2.79346-1.37695,4.18945-4.13086,4.18945h-14.29688c-2.71484,0-4.07227-1.396-4.07227-4.18945v-37.44141c0-2.8125,1.38672-4.21875,4.16016-4.21875h14.20898c2.75391,0,4.13086,1.40625,4.13086,4.21875v37.44141Zm-6.70898-1.69922v-34.07227h-9.05273v34.07227h9.05273Z"/>
          <path id="_54" data-name=" 54" class="cls-4" d="m1085.94702,620.96507c0,2.79297-1.38672,4.18945-4.16016,4.18945h-13.74023c-2.71484,0-4.07227-1.39648-4.07227-4.18945v-10.57617h6.73828v8.87695h8.49609v-17.63672h-15.23438l.73242-22.32422h20.91797v6.00586h-14.56055l-.43945,10.42969h11.16211c2.77344,0,4.16016,1.38672,4.16016,4.16016v21.06445Zm28.68164-4.45312h-3.48633v8.64258h-6.5332v-8.64258h-15.05859v-4.07227l11.39648-33.13477h6.97266v.26367l-10.69336,31.11328h7.38281v-13.79883h6.5332v13.79883h3.48633v5.83008Z"/>
          <path id="_57" data-name="57" class="cls-4" d="m1087.61694,682.96507c0,2.79297-1.38672,4.18945-4.16016,4.18945h-13.74023c-2.71484,0-4.07227-1.39648-4.07227-4.18945v-10.57617h6.73828v8.87695h8.49609v-17.63672h-15.23438l.73242-22.32422h20.91797v6.00586h-14.56055l-.43945,10.42969h11.16211c2.77344,0,4.16016,1.38672,4.16016,4.16016v21.06445Zm27.01172-37.26562l-10.57617,41.45508h-7.03125l10.2832-39.96094h-8.75977v6.70898h-6.62109v-12.59766h22.70508v4.39453Z"/>
          <path id="_64" data-name="64" class="cls-4" d="m1085.82983,744.96507c0,2.79297-1.37695,4.18945-4.13086,4.18945h-13.91602c-2.77344,0-4.16016-1.39648-4.16016-4.18945v-37.44141c0-2.8125,1.35742-4.21875,4.07227-4.21875h13.88672c2.75391,0,4.13086,1.40625,4.13086,4.21875v9.69727h-6.73828v-8.02734h-8.61328v13.79883h11.33789c2.75391,0,4.13086,1.37695,4.13086,4.13086v17.8418Zm-6.70898-1.69922v-14.44336h-8.75977v14.44336h8.75977Zm35.50781-2.75391h-3.48633v8.64258h-6.5332v-8.64258h-15.05859v-4.07227l11.39648-33.13477h6.97266v.26367l-10.69336,31.11328h7.38281v-13.79883h6.5332v13.79883h3.48633v5.83008Z"/>
          <path id="_67" data-name="67" class="cls-4" d="m1087.49976,806.96507c0,2.79297-1.37695,4.18945-4.13086,4.18945h-13.91602c-2.77344,0-4.16016-1.39648-4.16016-4.18945v-37.44141c0-2.8125,1.35742-4.21875,4.07227-4.21875h13.88672c2.75391,0,4.13086,1.40625,4.13086,4.21875v9.69727h-6.73828v-8.02734h-8.61328v13.79883h11.33789c2.75391,0,4.13086,1.37695,4.13086,4.13086v17.8418Zm-6.70898-1.69922v-14.44336h-8.75977v14.44336h8.75977Zm33.83789-35.56641l-10.57617,41.45508h-7.03125l10.2832-39.96094h-8.75977v6.70898h-6.62109v-12.59766h22.70508v4.39453Z"/>
          <path id="_67-2" data-name="67" class="cls-4" d="m1087.49976,868.96507c0,2.79297-1.37695,4.18945-4.13086,4.18945h-13.91602c-2.77344,0-4.16016-1.39648-4.16016-4.18945v-37.44141c0-2.8125,1.35742-4.21875,4.07227-4.21875h13.88672c2.75391,0,4.13086,1.40625,4.13086,4.21875v9.69727h-6.73828v-8.02734h-8.61328v13.79883h11.33789c2.75391,0,4.13086,1.37695,4.13086,4.13086v17.8418Zm-6.70898-1.69922v-14.44336h-8.75977v14.44336h8.75977Zm33.83789-35.56641l-10.57617,41.45508h-7.03125l10.2832-39.96094h-8.75977v6.70898h-6.62109v-12.59766h22.70508v4.39453Z"/>
          <path id="_70" data-name="70" class="cls-4" d="m1087.93921,893.69896l-10.57617,41.45508h-7.03125l10.2832-39.96094h-8.75977v6.70898h-6.62109v-12.59766h22.70508v4.39453Zm26.68945,37.26562c0,2.79297-1.37695,4.18945-4.13086,4.18945h-14.29688c-2.71484,0-4.07227-1.39648-4.07227-4.18945v-37.44141c0-2.8125,1.38672-4.21875,4.16016-4.21875h14.20898c2.75391,0,4.13086,1.40625,4.13086,4.21875v37.44141Zm-6.70898-1.69922v-34.07227h-9.05273v34.07227h9.05273Z"/>
          <path id="_74" data-name="74" class="cls-4" d="m1087.0896,955.39516l-10.57617,41.45508h-7.03125l10.2832-39.96094h-8.75977v6.70898h-6.62109v-12.59766h22.70508v4.39453Zm27.53906,32.8125h-3.48633v8.64258h-6.5332v-8.64258h-15.05859v-4.07227l11.39648-33.13477h6.97266v.26367l-10.69336,31.11328h7.38281v-13.79883h6.5332v13.79883h3.48633v5.83008Z"/>
          <path id="_74-2" data-name="74" class="cls-4" d="m1087.0896,1017.69896l-10.57617,41.45508h-7.03125l10.2832-39.96094h-8.75977v6.70898h-6.62109v-12.59766h22.70508v4.39453Zm27.53906,32.8125h-3.48633v8.64258h-6.5332v-8.64258h-15.05859v-4.07227l11.39648-33.13477h6.97266v.26367l-10.69336,31.11328h7.38281v-13.79883h6.5332v13.79883h3.48633v5.83008Z"/>
          <path id="_79" data-name="79" class="cls-4" d="m1088.29077,1079.69896l-10.57617,41.45508h-7.03125l10.2832-39.96094h-8.75977v6.70898h-6.62109v-12.59766h22.70508v4.39453Zm26.33789,37.26562c0,2.79297-1.37695,4.18945-4.13086,4.18945h-13.79883c-2.77344,0-4.16016-1.39648-4.16016-4.18945v-9.72656h6.73828v8.02734h8.55469v-13.79883h-11.39648c-2.71484,0-4.07227-1.37695-4.07227-4.13086v-17.8125c0-2.8125,1.35742-4.21875,4.07227-4.21875h14.00391c2.79297,0,4.18945,1.40625,4.18945,4.21875v37.44141Zm-6.79688-21.29883v-14.47266h-8.75977v14.47266h8.75977Z"/>
          <path id="_79-2" data-name="79" class="cls-4" d="m1088.29077,1141.69896l-10.57617,41.45508h-7.03125l10.2832-39.96094h-8.75977v6.70898h-6.62109v-12.59766h22.70508v4.39453Zm26.33789,37.26562c0,2.79297-1.37695,4.18945-4.13086,4.18945h-13.79883c-2.77344,0-4.16016-1.39648-4.16016-4.18945v-9.72656h6.73828v8.02734h8.55469v-13.79883h-11.39648c-2.71484,0-4.07227-1.37695-4.07227-4.13086v-17.8125c0-2.8125,1.35742-4.21875,4.07227-4.21875h14.00391c2.79297,0,4.18945,1.40625,4.18945,4.21875v37.44141Zm-6.79688-21.29883v-14.47266h-8.75977v14.47266h8.75977Z"/>
          <path id="_87" data-name="87" class="cls-4" d="m1087.41187,1240.96458c0,2.79297-1.37695,4.18945-4.13086,4.18945h-14.47266c-2.71484,0-4.07227-1.39648-4.07227-4.18945v-13.33008c0-1.69922.56641-2.99805,1.69922-3.89648,1.34766-.78125,2.70508-1.5625,4.07227-2.34375l-3.92578-2.28516c-1.19141-.9375-1.78711-2.19727-1.78711-3.7793v-11.80664c0-2.8125,1.38672-4.21875,4.16016-4.21875h14.26758c2.71484,0,4.07227,1.40625,4.07227,4.21875v11.80664c0,1.60156-.58594,2.86133-1.75781,3.7793l-3.92578,2.28516c1.34766.78125,2.70508,1.5625,4.07227,2.34375,1.15234.89844,1.72852,2.19727,1.72852,3.89648v13.33008Zm-6.82617-1.58203v-12.71484l-4.51172-2.57812-4.54102,2.57812v12.71484h9.05273Zm-.05859-23.32031v-10.98633h-8.87695v10.98633l4.42383,2.63672,4.45312-2.63672Zm34.10156-12.36328l-10.57617,41.45508h-7.03125l10.2832-39.96094h-8.75977v6.70898h-6.62109v-12.59766h22.70508v4.39453Z"/>
          <path id="_94" data-name="94" class="cls-4" d="m1085.77124,1302.96458c0,2.79297-1.37695,4.18945-4.13086,4.18945h-13.79883c-2.77344,0-4.16016-1.39648-4.16016-4.18945v-9.72656h6.73828v8.02734h8.55469v-13.79883h-11.39648c-2.71484,0-4.07227-1.37695-4.07227-4.13086v-17.8125c0-2.8125,1.35742-4.21875,4.07227-4.21875h14.00391c2.79297,0,4.18945,1.40625,4.18945,4.21875v37.44141Zm-6.79688-21.29883v-14.47266h-8.75977v14.47266h8.75977Zm35.6543,16.8457h-3.48633v8.64258h-6.5332v-8.64258h-15.05859v-4.07227l11.39648-33.13477h6.97266v.26367l-10.69336,31.11328h7.38281v-13.79883h6.5332v13.79883h3.48633v5.83008Z"/>
          <path id="_94-2" data-name="94" class="cls-4" d="m1085.77124,1364.96458c0,2.79297-1.37695,4.18945-4.13086,4.18945h-13.79883c-2.77344,0-4.16016-1.39648-4.16016-4.18945v-9.72656h6.73828v8.02734h8.55469v-13.79883h-11.39648c-2.71484,0-4.07227-1.37695-4.07227-4.13086v-17.8125c0-2.8125,1.35742-4.21875,4.07227-4.21875h14.00391c2.79297,0,4.18945,1.40625,4.18945,4.21875v37.44141Zm-6.79688-21.29883v-14.47266h-8.75977v14.47266h8.75977Zm35.6543,16.8457h-3.48633v8.64258h-6.5332v-8.64258h-15.05859v-4.07227l11.39648-33.13477h6.97266v.26367l-10.69336,31.11328h7.38281v-13.79883h6.5332v13.79883h3.48633v5.83008Z"/>
          <path id="_106" data-name="106" class="cls-4" d="m1058.61304,1431.15404h-6.73828v-32.34375h-2.63672v-.9082l3.54492-12.59766h5.83008v45.84961Zm28.30078-4.18945c0,2.79297-1.37695,4.18945-4.13086,4.18945h-14.29688c-2.71484,0-4.07227-1.39648-4.07227-4.18945v-37.44141c0-2.8125,1.38672-4.21875,4.16016-4.21875h14.20898c2.75391,0,4.13086,1.40625,4.13086,4.21875v37.44141Zm-6.70898-1.69922v-34.07227h-9.05273v34.07227h9.05273Zm34.42383,1.69922c0,2.79297-1.37695,4.18945-4.13086,4.18945h-13.91602c-2.77344,0-4.16016-1.39648-4.16016-4.18945v-37.44141c0-2.8125,1.35742-4.21875,4.07227-4.21875h13.88672c2.75391,0,4.13086,1.40625,4.13086,4.21875v9.69727h-6.73828v-8.02734h-8.61328v13.79883h11.33789c2.75391,0,4.13086,1.37695,4.13086,4.13086v17.8418Zm-6.70898-1.69922v-14.44336h-8.75977v14.44336h8.75977Z"/>
          <path id="_130" data-name="130" class="cls-4" d="m1058.73022,1493.15404h-6.73828v-32.34375h-2.63672v-.9082l3.54492-12.59766h5.83008v45.84961Zm28.06641-4.18945c0,2.79297-1.37695,4.18945-4.13086,4.18945h-14.0625c-2.71484,0-4.07227-1.39648-4.07227-4.18945v-10.57617h6.73828v8.87695h8.81836v-11.51367l-8.4082-5.77148v-1.43555l8.4082-5.68359v-9.66797h-8.81836v8.34961h-6.73828v-10.01953c0-2.8125,1.38672-4.21875,4.16016-4.21875h13.97461c2.75391,0,4.13086,1.40625,4.13086,4.21875v10.78125c0,1.81641-.76172,3.22266-2.28516,4.21875l-4.24805,2.75391,4.30664,2.69531c1.48438.91797,2.22656,2.29492,2.22656,4.13086v12.86133Zm27.83203,0c0,2.79297-1.37695,4.18945-4.13086,4.18945h-14.29688c-2.71484,0-4.07227-1.39648-4.07227-4.18945v-37.44141c0-2.8125,1.38672-4.21875,4.16016-4.21875h14.20898c2.75391,0,4.13086,1.40625,4.13086,4.21875v37.44141Zm-6.70898-1.69922v-34.07227h-9.05273v34.07227h9.05273Z"/>
        </g>
      </g>
    </g>
    <g id="Paws">
      <g id="Paw-Left">
        <path class="cls-1" d="m482.73533,264.94456c1.74164.47066,5.379,3.77613,5.37894,23.11342,0,2.5185.07758,4.91547.15259,7.23353.3873,11.96547.05365,16.34263-5.20514,18.47503-1.49686.607-2.88763.91476-4.13367.91476-1.47632,0-2.79901-.43553-4.04364-1.33147-7.17255-5.1632-10.95126-11.78023-10.92755-19.13567.06888-21.38355,15.22177-29.09081,18.77847-29.26962m28.93823.89259c2.80643,0,6.18918,1.77807,9.28091,4.87827,6.31708,6.33437,10.22418,16.52833,10.19659,26.6037-.00507,1.8415-1.38394,8.35053-7.44235,13.91087-1.02289.91757-4.73834,3.2238-7.44125,3.2238-.71622,0-1.08615-.16784-1.30212-.29407-7.52225-4.3972-7.81659-14.20003-7.47336-23.8638.03308-.93093.06332-1.7939.07681-2.57217.04047-2.33897.00153-4.63823-.03613-6.8618-.08411-4.96577-.16354-9.65613.71326-12.59293.55569-1.86123,1.08624-2.2905,2.98785-2.41733.1463-.00977.29263-.01453.43979-.01453m39.39737,43.14076c1.16199.21798,5.1188,2.30455,9.55933,7.94584,4.47226,5.6816,7.1366,12.05936,7.30988,17.498.07416,2.32757-1.55911,12.1558-7.57816,17.24007-1.5817,1.33607-7.00519,3.72266-12.18185,3.72266-1.41736,0-2.66943-.18353-3.72144-.54546-5.07938-1.74763-8.36414-5.85517-9.07428-8.21364-2.18372-7.25286-.67322-11.71127,1.23911-17.35576l.17636-.52097c5.05566-14.95787,12.31293-19.30413,14.27106-19.77074m-105.64578.96055c.43694.08314,6.35135,1.53426,15.96298,17.96969,1.51163,2.5848,1.75888,5.3853.75592,8.5615-2.33353,7.38984-10.44669,13.96783-12.34061,14.86496-1.61467.60105-3.35985.91851-5.05122.91851-2.81784,0-4.82581-.85157-5.6891-1.5808-5.65167-4.77393-5.36157-13.2279-5.26627-16.00593l.00996-.29673c.19057-5.98183,2.071-12.41924,5.15913-17.66164,2.86353-4.86108,5.60335-6.666,6.4592-6.76955m52.94989,24.83429c5.85641.00058,13.81476,4.75115,15.76965,9.41376.63202,1.50743,1.17819,3.03014,1.70636,4.5027,3.19562,8.90957,6.50006,18.12247,27.7247,24.88393,3.22336,1.02686,5.03619,3.01773,5.87796,6.4552.82739,3.37883.56964,7.9514-.72586,12.87543-1.90881,7.25523-8.29541,9.65843-13.31689,10.3969-1.43481.211-2.86996.31357-4.38757.31357-4.34274,0-8.75076-.87624-13.4176-1.8039-5.47498-1.08833-11.68042-2.32186-18.90356-2.3724l-.38983-.00137c-6.78674-.00024-11.39908,1.2782-15.85953,2.51453-5.42426,1.50346-11.03311,3.05813-22.35504,3.05813l-.42789-.00076c-6.70761-.02347-12.27855-4.9572-15.28438-13.53613-2.4496-6.99147,2.55431-17.92577,7.92281-20.35057,13.18109-5.95356,18.01636-12.30056,21.21597-16.50047,1.10446-1.44977,2.14847-3.0266,3.25372-4.696,4.85938-7.33953,9.88416-14.92897,21.40921-15.1508l.18777-.00177m-15.51907-75.83139c-6.29874,0-24.81754,9.94995-24.89908,35.25349-.02744,8.51733,3.86435,17.1443,13.42215,24.02453,1.67117,1.20296,4.16492,2.46193,7.54901,2.46193,1.85745,0,3.98254-.37894,6.38837-1.3545,11.53088-4.6757,8.79785-16.7672,8.79785-31.26883.00003-10.61773-.70441-27.22627-10.43689-29.04803-.24301-.04549-.5184-.06859-.82141-.06859h0Zm28.8176.8958c-.28082,0-.56003.0092-.83926.02782-11.5708.7719-9.03189,14.30347-9.26462,27.75497-.13483,7.79287-2.06885,24.44977,10.36771,31.71967,1.36102.7956,2.83987,1.11416,4.33008,1.11416,5.06949,0,10.27811-3.68351,11.49411-4.79953,7.41803-6.80817,9.38055-15.0685,9.38947-18.31863.05557-20.29115-13.35733-37.49846-25.47748-37.49846h0Zm39.32529,43.12429c-3.58807,0-13.64035,5.39605-19.88306,23.866-2.08774,6.17677-4.29218,12.1763-1.47659,21.52774,1.35962,4.51569,6.23254,9.8746,12.86746,12.15739,1.78058.61263,3.71243.87192,5.67346.87192,6.51865,0,13.36115-2.86474,16.05359-5.13905,8.11069-6.85107,9.79956-18.9957,9.70337-22.0148-.48328-15.16837-15.35718-31.15903-22.88724-31.26884-.01663-.00024-.03406-.00037-.05099-.00037h0Zm-105.5582.97394c-.0246,0-.04868.00018-.07291.00053-7.53009.1098-17.07463,15.0743-17.55789,30.24267-.09621,3.01913-.72917,14.2263,7.3815,21.07734,2.19116,1.85087,5.67331,2.99722,9.56087,2.99722,2.32645,0,4.79774-.41034,7.2254-1.32582,4.133-1.55856,23.13484-17.4365,14.58983-32.0481-10.03894-17.16614-17.55327-20.94383-21.1268-20.94383h0Zm52.93243,24.83737c-.10068,0-.20215.00097-.302.00289-17.71329.34093-23.58597,14.68357-29.31952,22.20963-2.95346,3.8768-7.14127,9.3514-18.91301,14.6684-8.39241,3.79063-14.52347,18.0759-11.11551,27.80263,3.79697,10.83694,11.39081,17.51877,20.92586,17.55214.15121.00052.29953.00078.44894.00078,21.72,0,24.68066-5.57312,38.21436-5.57264.1149,0,.23233.00041.34879.00123,12.74716.08916,22.04337,4.17644,32.3624,4.17644,1.71762,0,3.4657-.11346,5.2605-.37741,6.1004-.89713,15.47269-4.26347,18.24649-14.80643,2.74225-10.42294,2.30527-22.93017-9.13339-26.57417-21.76965-6.9351-21.24225-15.31239-25.71896-25.9897-3.02795-7.22194-13.39948-13.0944-21.30493-13.09379h0Z"/>
      </g>
      <g id="Paw-Right">
        <path class="cls-1" d="m1117.26469,264.94455c3.5567.1786,18.70953,7.88523,18.7785,29.2696.02362,7.3555-3.75507,13.9725-10.92755,19.13567-1.24469.89597-2.56738,1.3315-4.0437,1.3315-1.24603,0-2.63678-.30777-4.13373-.91476-5.25873-2.1324-5.59241-6.50957-5.20508-18.47503.07501-2.31807.15259-4.71503.15259-7.23353,0-19.33608,3.63696-22.64238,5.37897-23.11343m-28.93823.8926c.14685,0,.29407.0048.43988.01453,1.90149.12683,2.43201.5561,2.98773,2.41737.87683,2.9368.79742,7.62717.71332,12.59293-.03766,2.22357-.0766,4.52283-.03613,6.86177.01343.77827.0437,1.64123.07678,2.57217.3432,9.66373.04889,19.46657-7.47333,23.86377-.216.12623-.586.2941-1.30219.2941-2.70276,0-6.41821-2.3062-7.43707-3.22-6.06256-5.56413-7.44147-12.07317-7.44653-13.9146-.02753-10.0758,3.87927-20.26973,10.19592-26.60373,3.09174-3.10023,6.47479-4.8783,9.28162-4.8783m-39.40485,43.13898c1.94666.45705,9.21619,4.79502,14.2785,19.77255l.17627.52077c1.91241,5.64457,3.42291,10.103,1.2392,17.3559-.71008,2.3585-3.99487,6.46603-9.07422,8.21363-1.05212.36197-2.3042.5455-3.7215.5455-5.17664,0-10.60016-2.3866-12.18182-3.72263-6.0191-5.0843-7.65234-14.91253-7.57819-17.24013.17328-5.4386,2.83759-11.81637,7.30988-17.49797,4.4577-5.66315,8.42798-7.74397,9.55188-7.94762m105.6521.96254c.86383.10782,3.60028,1.91421,6.46033,6.76929,3.08813,5.2424,4.96857,11.67983,5.15918,17.66173l.00995.29673c.09534,2.77803.38538,11.23197-5.2663,16.0059-.86328.72923-2.87128,1.5808-5.68909,1.5808-1.69135,0-3.43652-.31747-5.05103-.91841-1.89331-.89649-10.00714-7.47477-12.34082-14.86509-1.00293-3.17617-.75568-5.97667.75592-8.56147,9.60388-16.42222,15.5163-17.88418,15.96185-17.96948m-52.94666,24.83409h-.00012l.18652.0018c11.52429.2218,16.54913,7.8112,21.40845,15.15073,1.10535,1.6694,2.14935,3.24626,3.25378,4.696,3.19958,4.19994,8.03485,10.54694,21.216,16.5005,5.36847,2.4248,10.37238,13.3591,7.92279,20.35054-3.00586,8.57896-8.57684,13.5127-15.28479,13.53616l-.42755.00076c-11.32416,0-16.93323-1.5547-22.35767-3.05823-4.45966-1.23614-9.07117-2.51434-15.85663-2.51443l-.39081.00137c-7.22192.05054-13.42761,1.28407-18.90283,2.37237-4.66705.9277-9.07526,1.80393-13.4176,1.80393-1.5177,0-2.95288-.10257-4.38751-.31357-5.02155-.73846-11.40814-3.14166-13.31689-10.3969-1.29553-4.92403-1.55334-9.49664-.72589-12.87543.84174-3.43747,2.6546-5.42834,5.87793-6.45517,21.22461-6.7615,24.52911-15.9744,27.72473-24.88396.5282-1.47256,1.07434-2.99527,1.70636-4.50273,1.95496-4.66277,9.91449-9.41364,15.77173-9.41373m15.51697-75.83139c-.30347,0-.57806.02304-.82141.06859-9.73248,1.82177-10.43689,18.4303-10.43689,29.04803,0,14.50163-2.73303,26.59313,8.79785,31.26883,2.4054.97539,4.53119,1.3545,6.38837,1.3545,3.38458,0,5.87775-1.25886,7.54901-2.46193,9.5578-6.88023,13.44958-15.5072,13.42218-24.02453-.08154-25.30192-18.59924-35.25349-24.89911-35.25349h0Zm-28.81757.8958c-12.12073,0-25.53308,17.20604-25.47748,37.49846.00891,3.25013,1.97144,11.51047,9.38947,18.31863,1.21588,1.11592,6.42499,4.79953,11.49408,4.79953,1.4906,0,2.96869-.31835,4.33008-1.11416,12.43658-7.2699,10.50256-23.9268,10.36774-31.71967-.23273-13.4515,2.30615-26.98307-9.26465-27.75497-.2785-.01858-.5592-.02782-.83923-.02782h0Zm-39.32526,43.12429c-.01721,0-.03418.00012-.05103.00037-7.53009.1098-22.40399,16.10047-22.88727,31.26884-.09619,3.0191,1.59271,15.16373,9.70337,22.0148,2.69226,2.27412,9.5354,5.13905,16.05359,5.13905,1.96155,0,3.8924-.25913,5.67346-.87192,6.63495-2.2828,11.50787-7.6417,12.86749-12.15739,2.81555-9.35144.61115-15.35097-1.47662-21.52774-6.24231-18.46882-16.29443-23.866-19.883-23.866h0Zm105.55811.97394c-3.57318,0-11.08722,3.77663-21.12677,20.94383-8.54498,14.6116,10.45685,30.48954,14.58984,32.0481,2.42725.91534,4.89929,1.32582,7.2254,1.32582,3.888,0,7.36951-1.14617,9.56085-2.99722,8.11072-6.85104,7.47772-18.0582,7.38153-21.07734-.48328-15.16837-10.02777-30.13287-17.55792-30.24267-.02399-.00035-.04852-.00053-.07294-.00053h0Zm-52.93237,24.83737c-7.90527.00011-18.27722,5.8723-21.30493,13.09379-4.47668,10.6773-3.94934,19.0546-25.71899,25.9897-11.43866,3.644-11.87561,16.15124-9.13336,26.57417,2.7738,10.54296,12.14606,13.90929,18.24646,14.80643,1.79559.26405,3.54218.37741,5.2605.37741,10.31818,0,19.61615-4.08729,32.36243-4.17644.11731-.00082.23303-.00123.34882-.00123,13.53235.00021,16.492,5.57264,38.21429,5.57264.14807,0,.29907-.00026.44891-.00078,9.5351-.03337,17.12891-6.7152,20.9259-17.55214,3.40796-9.72673-2.72308-24.01199-11.11548-27.80263-11.77179-5.317-15.95959-10.7916-18.91302-14.6684-5.73358-7.52607-11.60626-21.8687-29.31952-22.20963-.10034-.00193-.20087-.00289-.302-.00289h0Z"/>
      </g>
    </g>
    <g id="_2023" data-name="2023">
      <path class="cls-3" d="m701.56885,302.1811c0,4.79468-1.65186,10.10547-4.95557,15.93555l-41.78223,72.97314h46.54346v19.91943h-73.75049v-14.08936l51.49902-90.56055v-28.08154h-27.69287v28.27588h-22.25146v-33.81445c0-9.19751,4.63062-13.79785,13.89502-13.79785h44.6001c9.26294,0,13.89502,4.60034,13.89502,13.79785v29.44189Z"/>
      <path class="cls-3" d="m792.51807,397.11421c0,9.26465-4.56689,13.89502-13.70068,13.89502h-47.41797c-9.00464,0-13.50635-4.63037-13.50635-13.89502v-124.18066c0-9.32812,4.59888-13.99219,13.79785-13.99219h47.12646c9.13379,0,13.70068,4.66406,13.70068,13.99219v124.18066Zm-22.25146-5.63574v-113.00635h-30.0249v113.00635h30.0249Z"/>
      <path class="cls-3" d="m882.2041,302.1811c0,4.79468-1.65186,10.10547-4.95557,15.93555l-41.78223,72.97314h46.54346v19.91943h-73.75049v-14.08936l51.49902-90.56055v-28.08154h-27.69287v28.27588h-22.25146v-33.81445c0-9.19751,4.63037-13.79785,13.89502-13.79785h44.6001c9.2627,0,13.89502,4.60034,13.89502,13.79785v29.44189Z"/>
      <path class="cls-3" d="m972.37598,397.11421c0,9.26465-4.56689,13.89502-13.70068,13.89502h-46.64062c-9.00488,0-13.50635-4.63037-13.50635-13.89502v-35.07764h22.34863v29.44189h29.24756v-38.18701l-27.88721-19.14209v-4.76123l27.88721-18.85059v-32.06543h-29.24756v27.69287h-22.34863v-33.23145c0-9.32812,4.59863-13.99219,13.79785-13.99219h46.34912c9.13379,0,13.70068,4.66406,13.70068,13.99219v35.75781c0,6.02441-2.52637,10.68848-7.5791,13.99219l-14.08936,9.13379,14.28369,8.93945c4.92236,3.0459,7.38477,7.6123,7.38477,13.70068v42.65674Z"/>
    </g>
    <g id="MIDGET_STATE" data-name="MIDGET STATE">
      <g>
        <g>
          <polygon class="cls-1" points="449.35728 215.68236 449.35728 164.33616 436.95005 215.68236 421.13999 215.68236 408.73276 164.33616 408.73276 215.68236 387.35044 215.68236 387.35044 165.80247 382.36851 159.71214 387.35044 153.62181 387.35044 96.24827 408.51939 96.24827 429.0648 181.0598 449.57017 96.24827 470.7396 96.24827 470.7396 153.82298 475.55747 159.71507 470.7396 165.55345 470.7396 215.68236 449.35728 215.68236"/>
          <path class="cls-3" d="m469.7396,97.24827v56.93164l4.52393,5.53222-4.52393,5.48194v49.48828h-19.38232v-58.74218l-14.19435,58.74218h-14.23584l-14.19431-58.74218v58.74218h-19.38235v-49.23682l-4.68993-5.7334,4.68993-5.7334v-56.73046h19.38235l21.33299,88.06298,21.2915-88.06298h19.38232m2-2h-22.95641l-.3699,1.53-19.34941,80.03036-19.38733-80.03124-.37042-1.52911h-22.9557v58.01663l-4.23799,5.18091-1.03584,1.26632,1.03584,1.26632,4.23799,5.18091v50.52299h23.38235v-43.95029l10.25027,42.42005.36975,1.53024h17.38441l.36975-1.53024,10.25031-42.42007v43.95032h23.38232v-50.76959l4.0665-4.92763,1.04575-1.2672-1.04007-1.27186-4.07217-4.97977v-58.21803h0Z"/>
        </g>
        <g>
          <polygon class="cls-1" points="491.13462 215.68236 491.13462 165.70189 486.23569 159.71214 491.13462 153.7224 491.13462 96.24827 512.51694 96.24827 512.51694 153.87327 517.29087 159.71214 512.51694 165.55101 512.51694 215.68236 491.13462 215.68236"/>
          <path class="cls-3" d="m511.51694,97.24827v56.98194l4.48242,5.48192-4.48242,5.48194v49.48828h-19.38232v-49.3374l-4.60693-5.63282,4.60693-5.6328v-56.83106h19.38232m2-2h-23.38232v58.11734l-4.15506,5.08032-1.03561,1.2662,1.03561,1.2662,4.15506,5.08034v50.62368h23.38232v-50.7747l4.03073-4.92952,1.03516-1.266-1.03516-1.266-4.03073-4.9295v-58.26836h0Z"/>
        </g>
        <g>
          <path class="cls-1" d="m533.10776,215.68236v-49.67871l-5.14795-6.2915,5.14795-6.2915v-57.17236h30.26025c5.54004,0,10.62549,1.65479,15.11426,4.91895,4.46973,3.24951,8.09229,7.63623,10.76709,13.03857,2.65771,5.36768,4.00537,11.43896,4.00537,18.04639v47.42627c0,6.60742-1.34766,12.67871-4.00537,18.04639-2.6748,5.40234-6.29736,9.78906-10.76709,13.03857-4.48877,3.26416-9.57422,4.91895-15.11426,4.91895h-30.26025Zm30.63379-25.48682c2.22412,0,4.07617-.93408,5.66162-2.85547,1.63867-1.98486,2.46924-4.42773,2.46924-7.25928v-48.28125c0-2.8042-.80762-5.14551-2.46924-7.15869-1.61328-1.95557-3.46533-2.90576-5.66162-2.90576h-9.25146v31.68555l5.14795,6.2915-5.14795,6.2915v24.19189h9.25146Z"/>
          <path class="cls-3" d="m563.36802,97.24827c5.3125,0,10.16846,1.55908,14.52637,4.72754s7.84424,7.39307,10.45898,12.67383c2.61475,5.28075,3.90137,11.16504,3.90137,17.60254v47.42628c0,6.4375-1.28662,12.32178-3.90137,17.60254s-6.10107,9.50536-10.45898,12.67382c-4.35791,3.16846-9.21387,4.72754-14.52637,4.72754h-29.26025v-49.03564l-4.85596-5.93458,4.85596-5.93456v-56.5293h29.26025m-9.87793,93.94726h10.25146c2.53174,0,4.64844-1.05614,6.43311-3.21873,1.78467-2.16261,2.69775-4.82814,2.69775-7.896v-48.28127c0-3.06786-.91309-5.6328-2.69775-7.79539s-3.90137-3.26904-6.43311-3.26904h-10.25146v33.04249l4.85596,5.93456-4.85596,5.93458v25.54882m9.87793-95.94726h-31.26025v57.81532l-4.40381,5.382-1.03635,1.26654,1.03635,1.26654,4.40381,5.38201v50.32167h31.26025c5.75583,0,11.03891-1.71922,15.70248-5.1099,4.60162-3.34564,8.32782-7.8554,11.0752-13.404,2.72656-5.5066,4.10904-11.72752,4.10904-18.49v-47.42628c0-6.76248-1.38248-12.9834-4.10904-18.49001-2.74738-5.5486-6.47357-10.05836-11.0752-13.40401-4.66357-3.39067-9.94666-5.10989-15.70248-5.10989h0Zm-7.87793,27.48682h8.25146c1.90533,0,3.45935.80774,4.89053,2.54202,1.50751,1.82674,2.24033,3.96024,2.24033,6.52242v48.28127c0,2.59334-.75375,4.82164-2.24033,6.623-1.40286,1.69998-2.95688,2.49174-4.89053,2.49174h-8.25146v-22.83485l4.40381-5.38201,1.03635-1.26654-1.03635-1.26654-4.40381-5.382v-30.32851h0Z"/>
        </g>
        <g>
          <path class="cls-1" d="m640.62632,218.09642c-5.70996,0-11.0293-1.72021-15.81055-5.11328-4.68555-3.40625-8.47559-7.99658-11.27441-13.64893-2.76953-5.73047-4.17139-12.08691-4.17139-18.90137v-14.4292l-5.14795-6.2915,5.14795-6.2915v-21.92285c0-6.83252,1.40234-13.17334,4.16846-18.8457,2.80127-5.7085,6.59375-10.30078,11.27393-13.65186,4.75684-3.42725,10.07812-5.16602,15.81396-5.16602,8.38672,0,16.26611,3.95117,22.1875,11.12598,5.84912,7.1416,9.06885,16.56494,9.06885,26.5376v3.96729h-22.1709v-3.96729c0-3.09863-.91455-5.77832-2.71826-7.96338-1.80859-2.19238-3.8916-3.25781-6.36719-3.25781-2.47852,0-4.61865,1.09326-6.36084,3.24951-1.81006,2.19336-2.72461,4.87305-2.72461,7.97168v21.92285l5.14795,6.2915-5.14795,6.2915v14.4292c0,3.12891.89111,5.75293,2.72461,8.02197,1.74951,2.12012,3.89209,3.19922,6.36084,3.19922s4.61133-1.0791,6.36719-3.20752c1.82715-2.26074,2.71826-4.88477,2.71826-8.01367v-2.26904h-4.73145v-20.75928h26.90234v23.02832c0,6.84521-1.41699,13.20312-4.21094,18.89795-2.75732,5.6543-6.5498,10.24707-11.27051,13.64844-4.74268,3.396-10.0498,5.11719-15.7749,5.11719Z"/>
          <path class="cls-3" d="m640.62632,94.83421c8.34229,0,15.896,4.07373,21.41602,10.76271,5.47852,6.68895,8.84033,15.79198,8.84033,25.90088v2.96727h-20.1709v-2.96727c0-3.36964-.99609-6.23634-2.94678-8.60011-1.99219-2.41405-4.35791-3.62109-7.13867-3.62109s-5.18799,1.20705-7.13867,3.62109c-1.95068,2.36377-2.94678,5.23047-2.94678,8.60011v22.27978l4.85596,5.93456-4.85596,5.93458v14.78613c0,3.36964.99609,6.23634,2.94678,8.6504,1.95068,2.36376,4.35791,3.5708,7.13867,3.5708s5.18799-1.20704,7.13867-3.5708c1.95068-2.41406,2.94678-5.28076,2.94678-8.6504v-3.26904h-4.73145v-18.75928h24.90234v22.02832c0,6.73926-1.36963,12.875-4.10889,18.45752-2.69775,5.53224-6.3501,9.95802-10.95703,13.27736-4.56543,3.26904-9.62891,4.9287-15.19043,4.9287s-10.625-1.65966-15.23193-4.9287c-4.56543-3.31934-8.21777-7.74512-10.95703-13.27736-2.69775-5.58252-4.06738-11.71826-4.06738-18.45752v-14.78613l-4.85596-5.93458,4.85596-5.93456v-22.27978c0-6.73927,1.36963-12.875,4.06738-18.40724,2.73926-5.58252,6.3916-10.0083,10.95703-13.27734,4.60693-3.31934,9.67041-4.979,15.23193-4.979m0-2c-5.95007,0-11.4682,1.80212-16.40109,5.35632-4.81091,3.44482-8.70975,8.16266-11.58337,14.019-2.83533,5.81436-4.27188,12.30238-4.27188,19.28827v21.5658l-4.40381,5.382-1.03635,1.26654,1.03635,1.26654,4.40381,5.38201v14.07215c0,6.96646,1.43552,13.46924,4.26663,19.32774,2.87973,5.81616,6.77353,10.52898,11.58167,14.02478,4.97263,3.52868,10.48679,5.31106,16.40805,5.31106,5.93839,0,11.44092-1.78404,16.35477-5.30258,4.86096-3.50237,8.75891-8.22052,11.59036-14.02686,2.85999-5.82856,4.31122-12.335,4.31122-19.33414v-24.02832h-28.90234v22.75928h4.73145v1.26904c0,2.89116-.81854,5.30956-2.50238,7.39338-1.56613,1.8976-3.39664,2.82782-5.58307,2.82782s-4.01694-.93022-5.59613-2.8438c-1.67078-2.06786-2.48932-4.48626-2.48932-7.3774v-14.07215l4.40381-5.38201,1.03635-1.26654-1.03635-1.26654-4.40381-5.382v-21.5658c0-2.9006.81427-5.29733,2.48932-7.3271,1.578-1.95267,3.40427-2.8941,5.59613-2.8941,2.15851,0,3.98901.94666,5.59613,2.8941,1.67505,2.02975,2.48932,4.42648,2.48932,7.3271v4.96727h24.1709v-4.96727c0-10.20287-3.30035-19.85136-9.29306-27.16815-6.11914-7.41498-14.27264-11.49544-22.96329-11.49544h0Z"/>
        </g>
        <g>
          <polygon class="cls-1" points="687.9979 215.68236 687.9979 166.00365 682.84995 159.71214 687.9979 153.42064 687.9979 96.24827 742.95689 96.24827 742.95689 121.73509 709.38023 121.73509 709.38023 143.22191 734.69761 143.22191 734.69761 168.70872 709.38023 168.70872 709.38023 190.19554 742.95689 190.19554 742.95689 215.68236 687.9979 215.68236"/>
          <path class="cls-3" d="m741.95689,97.24827v23.48682h-33.57666v23.48683h25.31738v23.48679h-25.31738v23.48682h33.57666v23.48682h-52.95898v-49.03564l-4.85596-5.93458,4.85596-5.93456v-56.5293h52.95898m2-2h-56.95898v57.81532l-4.40384,5.382-1.03632,1.26654,1.03632,1.26654,4.40384,5.38201v50.32167h56.95898v-27.48682h-33.57666v-19.48682h25.31738v-27.48679h-25.31738v-19.48683h33.57666v-27.48682h0Z"/>
        </g>
        <g>
          <polygon class="cls-1" points="775.75571 215.68236 775.75571 166.00365 770.60776 159.71214 775.75571 153.42064 775.75571 121.73509 754.21519 121.73509 754.21519 96.24827 818.67857 96.24827 818.67857 121.73509 797.13804 121.73509 797.13804 153.52122 802.20298 159.71214 797.13804 165.90306 797.13804 215.68236 775.75571 215.68236"/>
          <path class="cls-3" d="m817.67857,97.24827v23.48682h-21.54053v33.14307l4.77295,5.83398-4.77295,5.834v49.13622h-19.38232v-49.03564l-4.85596-5.93458,4.85596-5.93456v-33.04249h-21.54053v-23.48682h62.46338m2-2h-66.46338v27.48682h21.54053v30.32851l-4.40381,5.382-1.03638,1.26654,1.03638,1.26654,4.40381,5.38201v50.32167h23.38232v-50.42233l4.32092-5.28147,1.03607-1.26642-1.03607-1.26642-4.32092-5.28146v-30.42917h21.54053v-27.48682h0Z"/>
        </g>
        <g>
          <path class="cls-1" d="m906.10825,217.54759c-1.11914,0-2.26465-.07178-3.40625-.21338-5.80078-.6665-11.15332-3.15283-15.89941-7.3877-4.59766-4.33252-7.99609-9.8374-10.12207-16.37988-2.12402-6.58984-2.70996-13.42383-1.74023-20.31396l.12109-.86084h.86914c6.50684,0,13.23535,0,19.83105-.05029l1.08008-.0083-.07422,1.07764c-.27832,3.97998-.3418,8.16309,1.05566,11.79248,1.26367,2.83447,3.17285,4.66455,5.81641,5.54639.84961.2793,1.69336.42188,2.50488.42188,1.63184,0,3.17676-.55176,4.72168-1.68701,2.11719-1.89746,3.40332-4.55811,3.74805-7.84814.35254-3.37891-.33203-6.37061-2.03516-8.89209-1.49121-1.80078-3.27246-3.27344-5.23633-4.30029-1.1709-.6792-2.16992-1.23096-3.08496-1.70264l-26.69727-6.48096,5.35547-6.6001c-1.10938-1.11279-2.15137-2.39648-3.16602-3.8999-3.7334-5.87451-5.48926-12.34521-5.2334-19.25537.29395-6.89453,2.05078-13.40088,5.22168-19.34375,3.21973-6.00732,7.46289-10.62109,12.61133-13.71436,4.26367-2.37793,8.76172-3.57568,13.39941-3.57568.63574,0,1.27344.02197,1.91699.06592,5.29297.35889,10.30273,2.26904,14.88867,5.67676,4.4375,3.43066,7.9873,8.04199,10.56445,13.7168,2.55176,5.6167,3.86621,11.67578,3.9082,18.00977l.00684,1.00635h-22.07715l-.0166-.9834c-.03906-2.39014-.66016-4.58936-1.84668-6.5376-1.16797-1.98193-2.61523-3.31104-4.43066-4.07422-.88574-.3501-1.81348-.53174-2.73926-.53174-.89062,0-1.80469.16797-2.71582.49951-1.81836.6748-3.3584,1.94922-4.57031,3.78516-1.55957,2.72314-2.13184,5.80908-1.6709,9.11816.19043,1.42578.65332,2.83496,1.33887,4.08203,1.2334,2.26221,3.1084,4.08594,6.08105,5.91699,3.17578,1.87061,6.15332,3.39844,9.08496,4.66064,2.13965.96582,4.25098,1.98877,6.29102,3.04883.76855.41357,1.52441.8208,2.2793,1.27783l17.93164,6.59912-5.54004,6.77002c1.89844,4.56396,2.79883,9.49902,2.67773,14.6792-.16895,6.99609-1.8418,13.55762-4.97168,19.50342-3.17773,5.9834-7.41992,10.59814-12.61328,13.71875-4.26465,2.4375-8.77344,3.66797-13.41797,3.66797Z"/>
          <path class="cls-3" d="m905.74876,94.87115c.61292,0,1.2287.02122,1.84875.06364,5.18848.35207,9.96094,2.21291,14.36035,5.48193,4.3584,3.36963,7.76074,7.8457,10.25098,13.32765,2.49023,5.48192,3.77734,11.3662,3.81836,17.60254h-20.08691c-.04199-2.56497-.70605-4.92873-1.99219-7.04103-1.24512-2.11229-2.86426-3.62109-4.89746-4.47607-1.03345-.40883-2.07764-.60994-3.12689-.60995-1.01599,0-2.0368.18854-3.05768.55965-2.0332.75441-3.73535,2.16261-5.06348,4.17433-1.70117,2.96727-2.32422,6.23633-1.82617,9.80713.20801,1.55908.70605,3.06787,1.45312,4.42578,1.53516,2.81641,3.90137,4.72754,6.43262,6.28662,2.98828,1.76024,6.05957,3.36963,9.21387,4.72754,2.11719.95557,4.19238,1.96143,6.22559,3.01758.74707.40234,1.49414.80469,2.24121,1.25732h-.04102l16.80859,6.18604-5.02148,6.13574-.04199-.0503c2.03418,4.62696,2.98828,9.60596,2.86426,14.88672-.16602,6.89014-1.78516,13.22706-4.85645,19.06104-3.07129,5.78368-7.13867,10.25976-12.24316,13.32764-4.11267,2.34975-8.41376,3.52468-12.90283,3.52468-1.08368,0-2.1781-.06844-3.28369-.20536-5.68652-.6538-10.79102-3.06786-15.35645-7.1416-4.48242-4.2246-7.76172-9.55566-9.83691-15.94286-2.0752-6.4375-2.65625-13.07618-1.70117-19.86572,6.59863,0,13.23926,0,19.83887-.0503-.29102,4.17432-.33203,8.44922,1.12012,12.2212,1.41113,3.16844,3.56934,5.18016,6.43359,6.13574.96271.31664,1.90265.47314,2.82123.47314,1.85352,0,3.62042-.63712,5.31354-1.88134,2.36523-2.11232,3.77637-4.97902,4.15039-8.54982.37305-3.5708-.33203-6.78954-2.2002-9.55566-1.61816-1.96142-3.48633-3.5205-5.60254-4.62696-1.03809-.6035-2.11719-1.20702-3.19629-1.76024l-25.27539-6.13574,4.93848-6.08546c-1.36914-1.25732-2.57324-2.71582-3.69336-4.37549-3.61133-5.68312-5.3125-11.91943-5.06348-18.65869.29004-6.78955,1.99219-13.07616,5.10449-18.91016,3.1543-5.88429,7.22168-10.31007,12.24414-13.32762,4.12445-2.30016,8.41052-3.43329,12.88464-3.43329m0-2c-4.80963,0-9.47241,1.24034-13.85876,3.68654l-.0282.01575-.02771.01662c-5.30505,3.18738-9.67108,7.93031-12.97681,14.09711-3.24323,6.07938-5.03925,12.72969-5.33997,19.7697-.26343,7.12773,1.54468,13.79115,5.37366,19.81671l.01477.0233.01544.02289c.85919,1.27304,1.73883,2.39575,2.66241,3.39588l-3.80273,4.68595-1.99414,2.45726,3.07532.74656,25.04303,6.07933c.87122.45198,1.82098.97757,2.89526,1.60213l.03876.02254.03973.02078c1.81934.95123,3.47559,2.31428,4.92432,4.05243,1.5293,2.30511,2.1402,5.0465,1.81592,8.15003-.31409,2.9989-1.46545,5.42158-3.42261,7.2021-1.34082.9667-2.66724,1.43685-4.05212,1.43685-.7049,0-1.44385-.1255-2.19635-.373-2.34045-.78086-4.04785-2.41825-5.21045-5.00266-1.30823-3.43707-1.24115-7.46865-.97296-11.31532l.15027-2.1555-2.16071.01646c-6.59198.05024-13.31854.05024-19.82361.05024h-1.73834l-.24213,1.7214c-.99048,7.04122-.39227,14.0252,1.77808,20.75794,2.1795,6.70822,5.6676,12.35392,10.36871,16.7847l.01984.01868.02039.01814c4.90308,4.37505,10.44086,6.94424,16.45953,7.63624,1.16418.14424,2.35168.21844,3.51215.21844,4.82056,0,9.49548-1.27452,13.89502-3.78812,5.38843-3.23798,9.75525-7.9832,13.0174-14.1262,3.20593-6.08976,4.91718-12.80006,5.08942-19.95086.12006-5.11206-.72974-9.99313-2.5274-14.53008l4.27496-5.22358,1.77887-2.17356-2.63586-.97004-16.52448-6.08147c-.75537-.45343-1.50256-.85585-2.2262-1.24556-2.08325-1.0824-4.21118-2.11385-6.35168-3.07993-2.92432-1.25923-5.86487-2.76842-9.02155-4.62785-2.78265-1.71439-4.54846-3.42326-5.69165-5.52057-.63062-1.14633-1.05353-2.43486-1.22675-3.73306-.43481-3.11774.0719-5.89276,1.54742-8.49281,1.08722-1.62733,2.45135-2.75386,4.05554-3.34908.78943-.28694,1.58832-.43474,2.36188-.43472.79883,0,1.60333.15804,2.3913.46971,1.57025.66081,2.86224,1.85411,3.91016,3.63191,1.10706,1.81856,1.67926,3.84857,1.71539,6.05814l.03223,1.96729h24.06763l-.01324-2.01317c-.0426-6.47504-1.38745-12.67126-3.99738-18.41656-2.646-5.82483-6.29602-10.56296-10.84857-14.08272-4.77301-3.54707-9.96033-5.52272-15.4483-5.8951-.66138-.04524-1.32928-.06822-1.98413-.06822h0Z"/>
        </g>
        <g>
          <polygon class="cls-1" points="965.33384 215.68236 965.33384 166.00365 960.1854 159.71214 965.33384 153.42064 965.33384 121.73509 943.79282 121.73509 943.79282 96.24827 1008.25571 96.24827 1008.25571 121.73509 986.71567 121.73509 986.71567 153.52122 991.78013 159.71214 986.71567 165.90306 986.71567 215.68236 965.33384 215.68236"/>
          <path class="cls-3" d="m1007.25571,97.24827v23.48682h-21.54004v33.14307l4.77246,5.83398-4.77246,5.834v49.13622h-19.38184v-49.03564l-4.85645-5.93458,4.85645-5.93456v-33.04249h-21.54102v-23.48682h62.46289m2-2h-66.46289v27.48682h21.54102v30.32845l-4.40424,5.38198-1.03656,1.26662,1.03656,1.26662,4.40424,5.38199v50.32161h23.38184v-50.42239l4.3205-5.28149,1.03589-1.26634-1.03589-1.26634-4.3205-5.28147v-30.42923h21.54004v-27.48682h0Z"/>
        </g>
        <g>
          <path class="cls-1" d="m1059.13853,215.68236l-4.3584-23.73828h-24.77148l-4.35742,23.73828h-21.4541l11.24219-52.2915-2.99121-3.67773,5.1748-6.37988,12.28027-57.08496h24.94141l12.4043,57.53564,4.8457,5.92627-2.82617,3.479,11.32324,52.49316h-21.45312Zm-8.15137-44.1958l-8.61133-42.35254-8.57422,42.35254h17.18555Z"/>
          <path class="cls-3" d="m1054.03696,97.24827l12.28516,56.98194,4.48242,5.48192-2.61523,3.21877,11.16406,51.75146h-19.38184l-4.3584-23.73828h-26.4375l-4.35742,23.73828h-19.38281l11.08203-51.5503-2.78125-3.41992,4.81445-5.93456,12.16016-56.5293h23.32617m-21.45801,75.23828h19.63184l-9.83691-48.38184-9.79492,48.38184m23.07275-77.23828h-26.55646l-.33972,1.57941-12.05951,56.06148-4.513,5.56296-1.02344,1.26156,1.02496,1.26034,2.1759,2.67564-10.88037,50.61237-.52032,2.42034h23.52478l.30078-1.6389,4.05664-22.09938h23.10498l4.0575,22.09944.3009,1.63884h23.52551l-.52246-2.42174-10.96167-50.81337,2.01007-2.47393,1.02795-1.26521-1.03192-1.26198-4.17725-5.1087-12.18353-56.51065-.34033-1.57851h0Zm-20.62726,75.23828l7.35364-36.32315,7.38513,36.32315h-14.73877Z"/>
        </g>
        <g>
          <polygon class="cls-1" points="1098.07603 215.68236 1098.07603 166.00365 1092.92857 159.71214 1098.07603 153.42064 1098.07603 121.73509 1076.53599 121.73509 1076.53599 96.24827 1140.99985 96.24827 1140.99985 121.73509 1119.45884 121.73509 1119.45884 153.52122 1124.52427 159.71214 1119.45884 165.90306 1119.45884 215.68236 1098.07603 215.68236"/>
          <path class="cls-3" d="m1139.99985,97.24827v23.48682h-21.54102v33.14307l4.77344,5.83398-4.77344,5.834v49.13622h-19.38281v-49.03564l-4.85547-5.93458,4.85547-5.93456v-33.04249h-21.54004v-23.48682h62.46387m2-2h-66.46387v27.48682h21.54004v30.32858l-4.40338,5.382-1.03619,1.26646,1.03619,1.26646,4.40338,5.38203v50.32173h23.38281v-50.42227l4.32135-5.28145,1.03625-1.2665-1.03625-1.26649-4.32135-5.28144v-30.42911h21.54102v-27.48682h0Z"/>
        </g>
        <g>
          <polygon class="cls-1" points="1153.11899 215.68236 1153.11899 166.00365 1147.97056 159.71214 1153.11899 153.42064 1153.11899 96.24827 1208.07798 96.24827 1208.07798 121.73509 1174.50083 121.73509 1174.50083 143.22191 1199.81821 143.22191 1199.81821 168.70872 1174.50083 168.70872 1174.50083 190.19554 1208.07798 190.19554 1208.07798 215.68236 1153.11899 215.68236"/>
          <path class="cls-3" d="m1207.07798,97.24827v23.48682h-33.57715v23.48683h25.31738v23.48679h-25.31738v23.48682h33.57715v23.48682h-52.95898v-49.03564l-4.85645-5.93458,4.85645-5.93456v-56.5293h52.95898m2-2h-56.95898v57.81526l-4.40424,5.38198-1.03656,1.26662,1.03656,1.26662,4.40424,5.38199v50.32161h56.95898v-27.48682h-33.57715v-19.48682h25.31738v-27.48679h-25.31738v-19.48683h33.57715v-27.48682h0Z"/>
        </g>
      </g>
    </g>
  </g>
</svg>